<svg width="24" height="24" viewBox="0 0 24 24" fill="none" xmlns="http://www.w3.org/2000/svg">
<g clip-path="url(#clip0_1315_0)">
<path fill-rule="evenodd" clip-rule="evenodd" d="M9.01719 0.75C9.01719 0.551088 9.0962 0.360322 9.23686 0.21967C9.37751 0.0790176 9.56827 0 9.76719 0L14.2672 0C14.4661 0 14.6569 0.0790176 14.7975 0.21967C14.9382 0.360322 15.0172 0.551088 15.0172 0.75C15.0172 0.948912 14.9382 1.13968 14.7975 1.28033C14.6569 1.42098 14.4661 1.5 14.2672 1.5H13.5172V3.105C15.5599 3.39986 17.4704 4.2901 19.0101 5.6645C20.5498 7.0389 21.6504 8.83652 22.1743 10.8328C22.6983 12.829 22.6224 14.9354 21.9561 16.8888C21.2899 18.8422 20.0628 20.556 18.4282 21.816L19.3297 22.719C19.4705 22.8596 19.5497 23.0504 19.5499 23.2495C19.55 23.4485 19.4711 23.6394 19.3304 23.7803C19.1898 23.9211 18.999 24.0003 18.8 24.0004C18.6009 24.0006 18.41 23.9216 18.2692 23.781L17.1502 22.662C15.5827 23.5419 13.8148 24.0027 12.0172 24C10.2196 24.0027 8.45171 23.5419 6.88419 22.662L5.76519 23.781C5.69545 23.8506 5.61269 23.9059 5.52162 23.9435C5.43055 23.9811 5.33295 24.0005 5.23441 24.0004C5.13586 24.0003 5.03829 23.9809 4.94727 23.9431C4.85626 23.9053 4.77357 23.85 4.70394 23.7803C4.6343 23.7105 4.57909 23.6278 4.54144 23.5367C4.50379 23.4456 4.48445 23.348 4.48452 23.2495C4.48466 23.0504 4.56386 22.8596 4.70469 22.719L5.60769 21.816C3.97312 20.5561 2.74602 18.8424 2.07969 16.8892C1.41337 14.9359 1.33734 12.8296 1.86112 10.8334C2.3849 8.83714 3.48527 7.0395 5.02475 5.66501C6.56424 4.29051 8.4746 3.4001 10.5172 3.105V1.5H9.76719C9.56827 1.5 9.37751 1.42098 9.23686 1.28033C9.0962 1.13968 9.01719 0.948912 9.01719 0.75V0.75ZM1.30719 8.0805C0.919076 7.7429 0.604571 7.32907 0.38323 6.86473C0.161888 6.40039 0.0384444 5.89548 0.0205743 5.3814C0.00270415 4.86732 0.0907901 4.35505 0.279354 3.87647C0.467919 3.39788 0.752929 2.96321 1.11666 2.59947C1.48039 2.23574 1.91507 1.95073 2.39365 1.76217C2.87224 1.5736 3.3845 1.48552 3.89859 1.50339C4.41267 1.52126 4.91758 1.6447 5.38192 1.86604C5.84625 2.08738 6.26009 2.40189 6.59769 2.79C4.31761 3.94762 2.46481 5.80042 1.30719 8.0805V8.0805ZM17.4367 2.79C17.7743 2.40189 18.1881 2.08738 18.6525 1.86604C19.1168 1.6447 19.6217 1.52126 20.1358 1.50339C20.6499 1.48552 21.1621 1.5736 21.6407 1.76217C22.1193 1.95073 22.554 2.23574 22.9177 2.59947C23.2814 2.96321 23.5665 3.39788 23.755 3.87647C23.9436 4.35505 24.0317 4.86732 24.0138 5.3814C23.9959 5.89548 23.8725 6.40039 23.6511 6.86473C23.4298 7.32907 23.1153 7.7429 22.7272 8.0805C21.5696 5.80042 19.7168 3.94762 17.4367 2.79V2.79ZM12.7672 8.25C12.7672 8.05109 12.6882 7.86032 12.5475 7.71967C12.4069 7.57902 12.2161 7.5 12.0172 7.5C11.8183 7.5 11.6275 7.57902 11.4869 7.71967C11.3462 7.86032 11.2672 8.05109 11.2672 8.25V13.293L9.12369 16.863C9.02125 17.0337 8.9908 17.238 9.03904 17.4312C9.08729 17.6243 9.21027 17.7903 9.38094 17.8928C9.5516 17.9952 9.75597 18.0256 9.94909 17.9774C10.1422 17.9291 10.3082 17.8062 10.4107 17.6355L12.6607 13.8855C12.7304 13.769 12.7672 13.6358 12.7672 13.5V8.25Z" fill="black"/>
</g>
<defs>
<clipPath id="clip0_1315_0">
<rect width="24" height="24" fill="white"/>
</clipPath>
</defs>
</svg>
