<svg width="24" height="24" viewBox="0 0 24 24" fill="none" xmlns="http://www.w3.org/2000/svg">
<path d="M9 21C9 21.3978 9.15804 21.7794 9.43934 22.0607C9.72064 22.342 10.1022 22.5 10.5 22.5H13.5C13.8978 22.5 14.2794 22.342 14.5607 22.0607C14.842 21.7794 15 21.3978 15 21V6C15 5.60218 14.842 5.22064 14.5607 4.93934C14.2794 4.65804 13.8978 4.5 13.5 4.5H10.5C10.1022 4.5 9.72064 4.65804 9.43934 4.93934C9.15804 5.22064 9 5.60218 9 6V21Z" fill="black"/>
<path fill-rule="evenodd" clip-rule="evenodd" d="M1.5 2.25C1.5 2.44891 1.57902 2.63968 1.71967 2.78033C1.86032 2.92098 2.05109 3 2.25 3H21.75C21.9489 3 22.1397 2.92098 22.2803 2.78033C22.421 2.63968 22.5 2.44891 22.5 2.25C22.5 2.05109 22.421 1.86032 22.2803 1.71967C22.1397 1.57902 21.9489 1.5 21.75 1.5H2.25C2.05109 1.5 1.86032 1.57902 1.71967 1.71967C1.57902 1.86032 1.5 2.05109 1.5 2.25Z" fill="black"/>
</svg>
