<svg width="24" height="24" viewBox="0 0 24 24" fill="none" xmlns="http://www.w3.org/2000/svg">
<g clip-path="url(#clip0_1315_86)">
<path fill-rule="evenodd" clip-rule="evenodd" d="M21 1.5H3C2.60218 1.5 2.22064 1.65804 1.93934 1.93934C1.65804 2.22064 1.5 2.60218 1.5 3V21C1.5 21.3978 1.65804 21.7794 1.93934 22.0607C2.22064 22.342 2.60218 22.5 3 22.5H21C21.3978 22.5 21.7794 22.342 22.0607 22.0607C22.342 21.7794 22.5 21.3978 22.5 21V3C22.5 2.60218 22.342 2.22064 22.0607 1.93934C21.7794 1.65804 21.3978 1.5 21 1.5ZM3 0C2.20435 0 1.44129 0.316071 0.87868 0.87868C0.316071 1.44129 0 2.20435 0 3L0 21C0 21.7956 0.316071 22.5587 0.87868 23.1213C1.44129 23.6839 2.20435 24 3 24H21C21.7956 24 22.5587 23.6839 23.1213 23.1213C23.6839 22.5587 24 21.7956 24 21V3C24 2.20435 23.6839 1.44129 23.1213 0.87868C22.5587 0.316071 21.7956 0 21 0L3 0Z" fill="black"/>
<path fill-rule="evenodd" clip-rule="evenodd" d="M12.0002 6C12.1991 6 12.3899 6.07902 12.5305 6.21967C12.6712 6.36032 12.7502 6.55109 12.7502 6.75V15.4395L15.9692 12.219C16.0389 12.1493 16.1217 12.094 16.2128 12.0562C16.3039 12.0185 16.4016 11.9991 16.5002 11.9991C16.5988 11.9991 16.6965 12.0185 16.7876 12.0562C16.8787 12.094 16.9615 12.1493 17.0312 12.219C17.1009 12.2887 17.1562 12.3715 17.194 12.4626C17.2317 12.5537 17.2511 12.6514 17.2511 12.75C17.2511 12.8486 17.2317 12.9463 17.194 13.0374C17.1562 13.1285 17.1009 13.2113 17.0312 13.281L12.5312 17.781C12.4615 17.8508 12.3788 17.9063 12.2876 17.9441C12.1965 17.9819 12.0989 18.0013 12.0002 18.0013C11.9015 18.0013 11.8039 17.9819 11.7127 17.9441C11.6216 17.9063 11.5389 17.8508 11.4692 17.781L6.9692 13.281C6.89947 13.2113 6.84415 13.1285 6.80641 13.0374C6.76868 12.9463 6.74925 12.8486 6.74925 12.75C6.74925 12.6514 6.76868 12.5537 6.80641 12.4626C6.84415 12.3715 6.89947 12.2887 6.9692 12.219C7.11003 12.0782 7.30104 11.9991 7.5002 11.9991C7.59882 11.9991 7.69647 12.0185 7.78758 12.0562C7.87868 12.094 7.96147 12.1493 8.0312 12.219L11.2502 15.4395V6.75C11.2502 6.55109 11.3292 6.36032 11.4699 6.21967C11.6105 6.07902 11.8013 6 12.0002 6Z" fill="black"/>
</g>
<defs>
<clipPath id="clip0_1315_86">
<rect width="24" height="24" fill="white"/>
</clipPath>
</defs>
</svg>
