<svg width="24" height="24" viewBox="0 0 24 24" fill="none" xmlns="http://www.w3.org/2000/svg">
<g clip-path="url(#clip0_1315_154)">
<path fill-rule="evenodd" clip-rule="evenodd" d="M21 1.5H3C2.60218 1.5 2.22064 1.65804 1.93934 1.93934C1.65804 2.22064 1.5 2.60218 1.5 3V21C1.5 21.3978 1.65804 21.7794 1.93934 22.0607C2.22064 22.342 2.60218 22.5 3 22.5H21C21.3978 22.5 21.7794 22.342 22.0607 22.0607C22.342 21.7794 22.5 21.3978 22.5 21V3C22.5 2.60218 22.342 2.22064 22.0607 1.93934C21.7794 1.65804 21.3978 1.5 21 1.5ZM3 0C2.20435 0 1.44129 0.316071 0.87868 0.87868C0.316071 1.44129 0 2.20435 0 3L0 21C0 21.7956 0.316071 22.5587 0.87868 23.1213C1.44129 23.6839 2.20435 24 3 24H21C21.7956 24 22.5587 23.6839 23.1213 23.1213C23.6839 22.5587 24 21.7956 24 21V3C24 2.20435 23.6839 1.44129 23.1213 0.87868C22.5587 0.316071 21.7956 0 21 0L3 0Z" fill="black"/>
<path fill-rule="evenodd" clip-rule="evenodd" d="M7.75769 16.2419C7.89834 16.3825 8.08907 16.4614 8.28794 16.4614C8.48681 16.4614 8.67755 16.3825 8.81819 16.2419L14.9622 10.0979V14.2499C14.9622 14.4488 15.0412 14.6395 15.1819 14.7802C15.3225 14.9208 15.5133 14.9999 15.7122 14.9999C15.9111 14.9999 16.1019 14.9208 16.2425 14.7802C16.3832 14.6395 16.4622 14.4488 16.4622 14.2499V8.28735C16.4622 8.08844 16.3832 7.89768 16.2425 7.75702C16.1019 7.61637 15.9111 7.53735 15.7122 7.53735H9.74969C9.55078 7.53735 9.36001 7.61637 9.21936 7.75702C9.07871 7.89768 8.99969 8.08844 8.99969 8.28735C8.99969 8.48627 9.07871 8.67703 9.21936 8.81768C9.36001 8.95834 9.55078 9.03735 9.74969 9.03735H13.9017L7.75769 15.1814C7.61709 15.322 7.5381 15.5127 7.5381 15.7116C7.5381 15.9105 7.61709 16.1012 7.75769 16.2419Z" fill="black"/>
</g>
<defs>
<clipPath id="clip0_1315_154">
<rect width="24" height="24" fill="white"/>
</clipPath>
</defs>
</svg>
