<svg width="24" height="24" viewBox="0 0 24 24" fill="none" xmlns="http://www.w3.org/2000/svg">
<path fill-rule="evenodd" clip-rule="evenodd" d="M24 12C24 15.1826 22.7357 18.2348 20.4853 20.4853C18.2348 22.7357 15.1826 24 12 24C8.8174 24 5.76516 22.7357 3.51472 20.4853C1.26428 18.2348 0 15.1826 0 12C0 8.8174 1.26428 5.76516 3.51472 3.51472C5.76516 1.26428 8.8174 0 12 0C15.1826 0 18.2348 1.26428 20.4853 3.51472C22.7357 5.76516 24 8.8174 24 12ZM15.1815 7.758C15.2507 7.68637 15.3334 7.62923 15.4249 7.58992C15.5164 7.55062 15.6149 7.52993 15.7144 7.52906C15.814 7.5282 15.9128 7.54717 16.005 7.58488C16.0971 7.62259 16.1809 7.67828 16.2513 7.7487C16.3217 7.81912 16.3774 7.90286 16.4151 7.99503C16.4528 8.08721 16.4718 8.18597 16.4709 8.28555C16.4701 8.38514 16.4494 8.48355 16.4101 8.57505C16.3708 8.66656 16.3136 8.74932 16.242 8.8185L10.098 14.9625H14.25C14.4489 14.9625 14.6397 15.0415 14.7803 15.1822C14.921 15.3228 15 15.5136 15 15.7125C15 15.9114 14.921 16.1022 14.7803 16.2428C14.6397 16.3835 14.4489 16.4625 14.25 16.4625H8.2875C8.08859 16.4625 7.89782 16.3835 7.75717 16.2428C7.61652 16.1022 7.5375 15.9114 7.5375 15.7125V9.75C7.5375 9.55109 7.61652 9.36032 7.75717 9.21967C7.89782 9.07902 8.08859 9 8.2875 9C8.48641 9 8.67718 9.07902 8.81783 9.21967C8.95848 9.36032 9.0375 9.55109 9.0375 9.75V13.902L15.1815 7.758Z" fill="black"/>
</svg>
