<svg width="24" height="24" viewBox="0 0 24 24" fill="none" xmlns="http://www.w3.org/2000/svg">
<path fill-rule="evenodd" clip-rule="evenodd" d="M0.257676 23.7417C0.398322 23.8823 0.589053 23.9613 0.787926 23.9613C0.986799 23.9613 1.17753 23.8823 1.31818 23.7417L7.46218 17.5977V21.7497C7.46218 21.9486 7.54119 22.1394 7.68185 22.28C7.8225 22.4207 8.01326 22.4997 8.21218 22.4997C8.41109 22.4997 8.60185 22.4207 8.74251 22.28C8.88316 22.1394 8.96218 21.9486 8.96218 21.7497V15.7872C8.96218 15.5883 8.88316 15.3975 8.74251 15.2569C8.60185 15.1162 8.41109 15.0372 8.21218 15.0372H2.24968C2.05076 15.0372 1.86 15.1162 1.71935 15.2569C1.57869 15.3975 1.49968 15.5883 1.49968 15.7872C1.49968 15.9861 1.57869 16.1769 1.71935 16.3175C1.86 16.4582 2.05076 16.5372 2.24968 16.5372H6.40168L0.257676 22.6812C0.117073 22.8218 0.0380859 23.0126 0.0380859 23.2114C0.0380859 23.4103 0.117073 23.601 0.257676 23.7417ZM23.7417 0.257691C23.601 0.117088 23.4103 0.0381012 23.2114 0.0381012C23.0126 0.0381012 22.8218 0.117088 22.6812 0.257691L16.5372 6.40169V2.24969C16.5372 2.05078 16.4582 1.86001 16.3175 1.71936C16.1769 1.57871 15.9861 1.49969 15.7872 1.49969C15.5883 1.49969 15.3975 1.57871 15.2568 1.71936C15.1162 1.86001 15.0372 2.05078 15.0372 2.24969V8.21219C15.0372 8.4111 15.1162 8.60187 15.2568 8.74252C15.3975 8.88317 15.5883 8.96219 15.7872 8.96219H21.7497C21.9486 8.96219 22.1394 8.88317 22.28 8.74252C22.4207 8.60187 22.4997 8.4111 22.4997 8.21219C22.4997 8.01328 22.4207 7.82251 22.28 7.68186C22.1394 7.54121 21.9486 7.46219 21.7497 7.46219H17.5977L23.7417 1.31819C23.8823 1.17755 23.9613 0.986814 23.9613 0.787941C23.9613 0.589068 23.8823 0.398337 23.7417 0.257691Z" fill="black"/>
</svg>
