<svg width="24" height="24" viewBox="0 0 24 24" fill="none" xmlns="http://www.w3.org/2000/svg">
<path fill-rule="evenodd" clip-rule="evenodd" d="M8.74185 15.2579C8.60121 15.1173 8.41048 15.0383 8.2116 15.0383C8.01273 15.0383 7.822 15.1173 7.68135 15.2579L1.53735 21.4019V17.2499C1.53735 17.0509 1.45834 16.8602 1.31768 16.7195C1.17703 16.5789 0.986266 16.4999 0.787353 16.4999C0.588441 16.4999 0.397676 16.5789 0.257023 16.7195C0.116371 16.8602 0.0373535 17.0509 0.0373535 17.2499V23.2124C0.0373535 23.4113 0.116371 23.602 0.257023 23.7427C0.397676 23.8833 0.588441 23.9624 0.787353 23.9624H6.74985C6.94877 23.9624 7.13953 23.8833 7.28018 23.7427C7.42084 23.602 7.49985 23.4113 7.49985 23.2124C7.49985 23.0135 7.42084 22.8227 7.28018 22.682C7.13953 22.5414 6.94877 22.4624 6.74985 22.4624H2.59785L8.74185 16.3184C8.88246 16.1777 8.96144 15.987 8.96144 15.7881C8.96144 15.5892 8.88246 15.3985 8.74185 15.2579ZM15.2579 8.74186C15.3985 8.88246 15.5892 8.96145 15.7881 8.96145C15.987 8.96145 16.1777 8.88246 16.3184 8.74186L22.4624 2.59786V6.74986C22.4624 6.94877 22.5414 7.13954 22.682 7.28019C22.8227 7.42084 23.0134 7.49986 23.2124 7.49986C23.4113 7.49986 23.602 7.42084 23.7427 7.28019C23.8833 7.13954 23.9624 6.94877 23.9624 6.74986V0.787361C23.9624 0.588449 23.8833 0.397683 23.7427 0.257031C23.602 0.116379 23.4113 0.0373611 23.2124 0.0373611H17.2499C17.0509 0.0373611 16.8602 0.116379 16.7195 0.257031C16.5789 0.397683 16.4999 0.588449 16.4999 0.787361C16.4999 0.986273 16.5789 1.17704 16.7195 1.31769C16.8602 1.45834 17.0509 1.53736 17.2499 1.53736H21.4019L15.2579 7.68136C15.1173 7.82201 15.0383 8.01274 15.0383 8.21161C15.0383 8.41048 15.1173 8.60122 15.2579 8.74186Z" fill="black"/>
</svg>
