<svg width="24" height="24" viewBox="0 0 24 24" fill="none" xmlns="http://www.w3.org/2000/svg">
<g clip-path="url(#clip0_1315_60)">
<path fill-rule="evenodd" clip-rule="evenodd" d="M12 22.5C14.7848 22.5 17.4555 21.3938 19.4246 19.4246C21.3938 17.4555 22.5 14.7848 22.5 12C22.5 9.21523 21.3938 6.54451 19.4246 4.57538C17.4555 2.60625 14.7848 1.5 12 1.5C9.21523 1.5 6.54451 2.60625 4.57538 4.57538C2.60625 6.54451 1.5 9.21523 1.5 12C1.5 14.7848 2.60625 17.4555 4.57538 19.4246C6.54451 21.3938 9.21523 22.5 12 22.5ZM12 24C15.1826 24 18.2348 22.7357 20.4853 20.4853C22.7357 18.2348 24 15.1826 24 12C24 8.8174 22.7357 5.76516 20.4853 3.51472C18.2348 1.26428 15.1826 0 12 0C8.8174 0 5.76516 1.26428 3.51472 3.51472C1.26428 5.76516 0 8.8174 0 12C0 15.1826 1.26428 18.2348 3.51472 20.4853C5.76516 22.7357 8.8174 24 12 24Z" fill="black"/>
<path fill-rule="evenodd" clip-rule="evenodd" d="M16.2419 7.75804C16.1012 7.61744 15.9105 7.53845 15.7116 7.53845C15.5127 7.53845 15.322 7.61744 15.1814 7.75804L9.03735 13.902V9.75004C9.03735 9.55113 8.95834 9.36036 8.81768 9.21971C8.67703 9.07906 8.48627 9.00004 8.28735 9.00004C8.08844 9.00004 7.89768 9.07906 7.75702 9.21971C7.61637 9.36036 7.53735 9.55113 7.53735 9.75004V15.7125C7.53735 15.9115 7.61637 16.1022 7.75702 16.2429C7.89768 16.3835 8.08844 16.4625 8.28735 16.4625H14.2499C14.4488 16.4625 14.6395 16.3835 14.7802 16.2429C14.9208 16.1022 14.9999 15.9115 14.9999 15.7125C14.9999 15.5136 14.9208 15.3229 14.7802 15.1822C14.6395 15.0416 14.4488 14.9625 14.2499 14.9625H10.0979L16.2419 8.81854C16.3825 8.6779 16.4614 8.48717 16.4614 8.28829C16.4614 8.08942 16.3825 7.89869 16.2419 7.75804Z" fill="black"/>
</g>
<defs>
<clipPath id="clip0_1315_60">
<rect width="24" height="24" fill="white"/>
</clipPath>
</defs>
</svg>
