<svg width="24" height="24" viewBox="0 0 24 24" fill="none" xmlns="http://www.w3.org/2000/svg">
<path fill-rule="evenodd" clip-rule="evenodd" d="M12.0002 17.9999C12.1991 17.9999 12.3899 17.9209 12.5305 17.7802C12.6712 17.6396 12.7502 17.4488 12.7502 17.2499V8.56038L15.9692 11.7809C16.0389 11.8506 16.1217 11.9059 16.2128 11.9437C16.3039 11.9814 16.4016 12.0008 16.5002 12.0008C16.5988 12.0008 16.6965 11.9814 16.7876 11.9437C16.8787 11.9059 16.9615 11.8506 17.0312 11.7809C17.1009 11.7111 17.1562 11.6284 17.194 11.5373C17.2317 11.4461 17.2511 11.3485 17.2511 11.2499C17.2511 11.1513 17.2317 11.0536 17.194 10.9625C17.1562 10.8714 17.1009 10.7886 17.0312 10.7189L12.5312 6.21888C12.4615 6.14903 12.3788 6.09362 12.2876 6.05581C12.1965 6.018 12.0989 5.99854 12.0002 5.99854C11.9015 5.99854 11.8039 6.018 11.7127 6.05581C11.6216 6.09362 11.5389 6.14903 11.4692 6.21888L6.9692 10.7189C6.82837 10.8597 6.74925 11.0507 6.74925 11.2499C6.74925 11.449 6.82837 11.64 6.9692 11.7809C7.11003 11.9217 7.30104 12.0008 7.5002 12.0008C7.69936 12.0008 7.89037 11.9217 8.0312 11.7809L11.2502 8.56038V17.2499C11.2502 17.4488 11.3292 17.6396 11.4699 17.7802C11.6105 17.9209 11.8013 17.9999 12.0002 17.9999Z" fill="black"/>
</svg>
