<svg width="24" height="24" viewBox="0 0 24 24" fill="none" xmlns="http://www.w3.org/2000/svg">
<path fill-rule="evenodd" clip-rule="evenodd" d="M21.7499 2.25C21.9488 2.25 22.1396 2.32902 22.2802 2.46967C22.4209 2.61032 22.4999 2.80109 22.4999 3V10.2C22.4999 10.6925 22.4029 11.1801 22.2144 11.6351C22.026 12.09 21.7497 12.5034 21.4015 12.8517C21.0533 13.1999 20.6399 13.4761 20.1849 13.6645C19.73 13.853 19.2423 13.95 18.7499 13.95H4.06038L9.08088 18.969C9.22171 19.1098 9.30082 19.3008 9.30082 19.5C9.30082 19.6992 9.22171 19.8902 9.08088 20.031C8.94005 20.1718 8.74904 20.2509 8.54988 20.2509C8.35071 20.2509 8.15971 20.1718 8.01888 20.031L1.71888 13.731C1.64903 13.6613 1.59362 13.5786 1.55581 13.4874C1.518 13.3963 1.49854 13.2987 1.49854 13.2C1.49854 13.1013 1.518 13.0037 1.55581 12.9125C1.59362 12.8214 1.64903 12.7387 1.71888 12.669L7.71888 6.669C7.85971 6.52817 8.05071 6.44905 8.24988 6.44905C8.44904 6.44905 8.64005 6.52817 8.78088 6.669C8.92171 6.80983 9.00082 7.00084 9.00082 7.2C9.00082 7.39916 8.92171 7.59017 8.78088 7.731L4.06038 12.45H18.7499C19.3466 12.45 19.9189 12.2129 20.3409 11.791C20.7628 11.369 20.9999 10.7967 20.9999 10.2V3C20.9999 2.80109 21.0789 2.61032 21.2195 2.46967C21.3602 2.32902 21.551 2.25 21.7499 2.25Z" fill="black"/>
</svg>
