<svg width="24" height="24" viewBox="0 0 24 24" fill="none" xmlns="http://www.w3.org/2000/svg">
<path fill-rule="evenodd" clip-rule="evenodd" d="M12.0002 22.4999C12.1991 22.4999 12.3899 22.4209 12.5305 22.2802C12.6712 22.1396 12.7502 21.9488 12.7502 21.7499V4.06038L17.4692 8.78088C17.61 8.92171 17.8011 9.00083 18.0002 9.00083C18.1994 9.00083 18.3904 8.92171 18.5312 8.78088C18.672 8.64005 18.7512 8.44905 18.7512 8.24988C18.7512 8.05072 18.672 7.85971 18.5312 7.71888L12.5312 1.71888C12.4615 1.64904 12.3788 1.59362 12.2877 1.55581C12.1965 1.518 12.0989 1.49854 12.0002 1.49854C11.9016 1.49854 11.8039 1.518 11.7128 1.55581C11.6216 1.59362 11.5389 1.64904 11.4692 1.71888L5.46921 7.71888C5.39948 7.78861 5.34417 7.8714 5.30643 7.96251C5.26869 8.05362 5.24927 8.15127 5.24927 8.24988C5.24927 8.44905 5.32838 8.64005 5.46921 8.78088C5.61004 8.92171 5.80105 9.00083 6.00021 9.00083C6.19938 9.00083 6.39039 8.92171 6.53122 8.78088L11.2502 4.06038V21.7499C11.2502 21.9488 11.3292 22.1396 11.4699 22.2802C11.6105 22.4209 11.8013 22.4999 12.0002 22.4999Z" fill="black"/>
</svg>
