<svg width="24" height="24" viewBox="0 0 24 24" fill="none" xmlns="http://www.w3.org/2000/svg">
<path fill-rule="evenodd" clip-rule="evenodd" d="M12.0001 4.5C13.621 4.50062 15.1982 5.02639 16.4953 5.99856C17.7923 6.97072 18.7396 8.33696 19.195 9.89262C19.6505 11.4483 19.5897 13.1096 19.0217 14.6278C18.4538 16.1461 17.4092 17.4394 16.0446 18.3142C14.6799 19.1889 13.0686 19.598 11.4519 19.4801C9.8352 19.3623 8.30022 18.7238 7.07684 17.6604C5.85346 16.597 5.00754 15.1658 4.66578 13.5813C4.32401 11.9968 4.5048 10.3442 5.18107 8.871C5.25468 8.69189 5.25616 8.49126 5.1852 8.31108C5.11424 8.13091 4.97635 7.98516 4.80038 7.90435C4.6244 7.82353 4.42399 7.81391 4.24109 7.8775C4.05818 7.94109 3.90696 8.07295 3.81907 8.2455C3.00759 10.0134 2.79072 11.9966 3.20097 13.8981C3.61121 15.7996 4.62648 17.5169 6.09469 18.793C7.56289 20.069 9.40501 20.835 11.3451 20.9762C13.2852 21.1175 15.2188 20.6263 16.8564 19.5764C18.4939 18.5264 19.7472 16.9742 20.4285 15.1522C21.1098 13.3301 21.1824 11.3364 20.6355 9.46967C20.0886 7.6029 18.9516 5.96357 17.3948 4.79723C15.8381 3.63089 13.9453 3.00033 12.0001 3V4.5Z" fill="black"/>
<path d="M12 6.69913V0.801129C12 0.729874 11.9797 0.660101 11.9414 0.599981C11.9032 0.539861 11.8486 0.491882 11.7841 0.461663C11.7195 0.431444 11.6477 0.420236 11.5771 0.42935C11.5064 0.438465 11.4398 0.467526 11.385 0.513129L7.84504 3.46213C7.80283 3.49732 7.76888 3.54136 7.74558 3.59113C7.72228 3.6409 7.71021 3.69518 7.71021 3.75013C7.71021 3.80508 7.72228 3.85936 7.74558 3.90913C7.76888 3.9589 7.80283 4.00294 7.84504 4.03813L11.385 6.98713C11.4398 7.03273 11.5064 7.06179 11.5771 7.07091C11.6477 7.08002 11.7195 7.06881 11.7841 7.0386C11.8486 7.00838 11.9032 6.9604 11.9414 6.90028C11.9797 6.84016 12 6.77038 12 6.69913Z" fill="black"/>
</svg>
