<svg width="24" height="24" viewBox="0 0 24 24" fill="none" xmlns="http://www.w3.org/2000/svg">
<g clip-path="url(#clip0_1315_137)">
<path fill-rule="evenodd" clip-rule="evenodd" d="M12 22.5C14.7848 22.5 17.4555 21.3938 19.4246 19.4246C21.3938 17.4555 22.5 14.7848 22.5 12C22.5 9.21523 21.3938 6.54451 19.4246 4.57538C17.4555 2.60625 14.7848 1.5 12 1.5C9.21523 1.5 6.54451 2.60625 4.57538 4.57538C2.60625 6.54451 1.5 9.21523 1.5 12C1.5 14.7848 2.60625 17.4555 4.57538 19.4246C6.54451 21.3938 9.21523 22.5 12 22.5ZM12 24C15.1826 24 18.2348 22.7357 20.4853 20.4853C22.7357 18.2348 24 15.1826 24 12C24 8.8174 22.7357 5.76516 20.4853 3.51472C18.2348 1.26428 15.1826 0 12 0C8.8174 0 5.76516 1.26428 3.51472 3.51472C1.26428 5.76516 0 8.8174 0 12C0 15.1826 1.26428 18.2348 3.51472 20.4853C5.76516 22.7357 8.8174 24 12 24Z" fill="black"/>
<path fill-rule="evenodd" clip-rule="evenodd" d="M16.2419 16.2419C16.1012 16.3825 15.9105 16.4614 15.7116 16.4614C15.5127 16.4614 15.322 16.3825 15.1814 16.2419L9.03736 10.0979V14.2499C9.03736 14.4488 8.95834 14.6395 8.81769 14.7802C8.67704 14.9208 8.48627 14.9999 8.28736 14.9999C8.08845 14.9999 7.89768 14.9208 7.75703 14.7802C7.61638 14.6395 7.53736 14.4488 7.53736 14.2499V8.28735C7.53736 8.08844 7.61638 7.89768 7.75703 7.75702C7.89768 7.61637 8.08845 7.53735 8.28736 7.53735H14.2499C14.4488 7.53735 14.6395 7.61637 14.7802 7.75702C14.9208 7.89768 14.9999 8.08844 14.9999 8.28735C14.9999 8.48627 14.9208 8.67703 14.7802 8.81768C14.6395 8.95834 14.4488 9.03735 14.2499 9.03735H10.0979L16.2419 15.1814C16.3825 15.322 16.4614 15.5127 16.4614 15.7116C16.4614 15.9105 16.3825 16.1012 16.2419 16.2419Z" fill="black"/>
</g>
<defs>
<clipPath id="clip0_1315_137">
<rect width="24" height="24" fill="white"/>
</clipPath>
</defs>
</svg>
