<svg width="24" height="24" viewBox="0 0 24 24" fill="none" xmlns="http://www.w3.org/2000/svg">
<g clip-path="url(#clip0_1315_140)">
<path fill-rule="evenodd" clip-rule="evenodd" d="M3 0C2.20435 0 1.44129 0.316071 0.87868 0.87868C0.316071 1.44129 0 2.20435 0 3L0 21C0 21.7956 0.316071 22.5587 0.87868 23.1213C1.44129 23.6839 2.20435 24 3 24H21C21.7956 24 22.5587 23.6839 23.1213 23.1213C23.6839 22.5587 24 21.7956 24 21V3C24 2.20435 23.6839 1.44129 23.1213 0.87868C22.5587 0.316071 21.7956 0 21 0L3 0ZM15.1815 16.242C15.2507 16.3136 15.3334 16.3708 15.4249 16.4101C15.5164 16.4494 15.6149 16.4701 15.7144 16.4709C15.814 16.4718 15.9128 16.4528 16.005 16.4151C16.0971 16.3774 16.1809 16.3217 16.2513 16.2513C16.3217 16.1809 16.3774 16.0971 16.4151 16.005C16.4528 15.9128 16.4718 15.814 16.4709 15.7144C16.4701 15.6149 16.4494 15.5164 16.4101 15.4249C16.3708 15.3334 16.3136 15.2507 16.242 15.1815L10.098 9.0375H14.25C14.4489 9.0375 14.6397 8.95848 14.7803 8.81783C14.921 8.67718 15 8.48641 15 8.2875C15 8.08859 14.921 7.89782 14.7803 7.75717C14.6397 7.61652 14.4489 7.5375 14.25 7.5375H8.2875C8.08859 7.5375 7.89782 7.61652 7.75717 7.75717C7.61652 7.89782 7.5375 8.08859 7.5375 8.2875V14.25C7.5375 14.4489 7.61652 14.6397 7.75717 14.7803C7.89782 14.921 8.08859 15 8.2875 15C8.48641 15 8.67718 14.921 8.81783 14.7803C8.95848 14.6397 9.0375 14.4489 9.0375 14.25V10.098L15.1815 16.242Z" fill="black"/>
</g>
<defs>
<clipPath id="clip0_1315_140">
<rect width="24" height="24" fill="white"/>
</clipPath>
</defs>
</svg>
