<svg width="24" height="24" viewBox="0 0 24 24" fill="none" xmlns="http://www.w3.org/2000/svg">
<g clip-path="url(#clip0_1315_89)">
<path fill-rule="evenodd" clip-rule="evenodd" d="M17.2502 22.4999C17.4491 22.4999 17.6399 22.4209 17.7805 22.2802C17.9212 22.1396 18.0002 21.9488 18.0002 21.7499V4.06038L22.7192 8.78088C22.86 8.92171 23.051 9.00082 23.2502 9.00082C23.4494 9.00082 23.6404 8.92171 23.7812 8.78088C23.922 8.64005 24.0011 8.44904 24.0011 8.24988C24.0011 8.05071 23.922 7.85971 23.7812 7.71888L17.7812 1.71888C17.7115 1.64903 17.6288 1.59362 17.5376 1.55581C17.4465 1.518 17.3489 1.49854 17.2502 1.49854C17.1515 1.49854 17.0539 1.518 16.9627 1.55581C16.8716 1.59362 16.7889 1.64903 16.7192 1.71888L10.7192 7.71888C10.5784 7.85971 10.4993 8.05071 10.4993 8.24988C10.4993 8.44904 10.5784 8.64005 10.7192 8.78088C10.86 8.92171 11.051 9.00082 11.2502 9.00082C11.4494 9.00082 11.6404 8.92171 11.7812 8.78088L16.5002 4.06038V21.7499C16.5002 21.9488 16.5792 22.1396 16.7199 22.2802C16.8605 22.4209 17.0513 22.4999 17.2502 22.4999ZM6.7502 1.49988C6.94911 1.49988 7.13988 1.57889 7.28053 1.71955C7.42118 1.8602 7.5002 2.05096 7.5002 2.24988V19.9394L12.2192 15.2189C12.36 15.078 12.551 14.9989 12.7502 14.9989C12.9494 14.9989 13.1404 15.078 13.2812 15.2189C13.422 15.3597 13.5011 15.5507 13.5011 15.7499C13.5011 15.949 13.422 16.14 13.2812 16.2809L7.2812 22.2809C7.21153 22.3507 7.12877 22.4061 7.03765 22.4439C6.94653 22.4818 6.84885 22.5012 6.7502 22.5012C6.65155 22.5012 6.55387 22.4818 6.46275 22.4439C6.37163 22.4061 6.28887 22.3507 6.2192 22.2809L0.2192 16.2809C0.0783698 16.14 -0.000747685 15.949 -0.000747681 15.7499C-0.000747676 15.5507 0.0783698 15.3597 0.2192 15.2189C0.36003 15.078 0.551036 14.9989 0.7502 14.9989C0.949363 14.9989 1.14037 15.078 1.2812 15.2189L6.0002 19.9394V2.24988C6.0002 2.05096 6.07922 1.8602 6.21987 1.71955C6.36052 1.57889 6.55129 1.49988 6.7502 1.49988Z" fill="black"/>
</g>
<defs>
<clipPath id="clip0_1315_89">
<rect width="24" height="24" fill="white"/>
</clipPath>
</defs>
</svg>
