<svg width="24" height="24" viewBox="0 0 24 24" fill="none" xmlns="http://www.w3.org/2000/svg">
<path fill-rule="evenodd" clip-rule="evenodd" d="M18.7499 22.5C18.551 22.5 18.3602 22.421 18.2195 22.2803C18.0789 22.1397 17.9999 21.9489 17.9999 21.75V2.25C17.9999 2.05109 18.0789 1.86032 18.2195 1.71967C18.3602 1.57902 18.551 1.5 18.7499 1.5C18.9488 1.5 19.1396 1.57902 19.2802 1.71967C19.4209 1.86032 19.4999 2.05109 19.4999 2.25V21.75C19.4999 21.9489 19.4209 22.1397 19.2802 22.2803C19.1396 22.421 18.9488 22.5 18.7499 22.5ZM14.9999 12C14.9999 12.1989 14.9209 12.3897 14.7802 12.5303C14.6396 12.671 14.4488 12.75 14.2499 12.75H5.56038L8.78088 15.969C8.85061 16.0387 8.90592 16.1215 8.94366 16.2126C8.9814 16.3037 9.00082 16.4014 9.00082 16.5C9.00082 16.5986 8.9814 16.6963 8.94366 16.7874C8.90592 16.8785 8.85061 16.9613 8.78088 17.031C8.71114 17.1007 8.62836 17.156 8.53725 17.1938C8.44614 17.2315 8.34849 17.2509 8.24988 17.2509C8.15126 17.2509 8.05361 17.2315 7.9625 17.1938C7.87139 17.156 7.78861 17.1007 7.71888 17.031L3.21888 12.531C3.14903 12.4613 3.09362 12.3786 3.05581 12.2874C3.018 12.1963 2.99854 12.0987 2.99854 12C2.99854 11.9013 3.018 11.8037 3.05581 11.7125C3.09362 11.6214 3.14903 11.5387 3.21888 11.469L7.71888 6.969C7.85971 6.82817 8.05071 6.74905 8.24988 6.74905C8.44904 6.74905 8.64005 6.82817 8.78088 6.969C8.92171 7.10983 9.00082 7.30084 9.00082 7.5C9.00082 7.69916 8.92171 7.89017 8.78088 8.031L5.56038 11.25H14.2499C14.4488 11.25 14.6396 11.329 14.7802 11.4697C14.9209 11.6103 14.9999 11.8011 14.9999 12Z" fill="black"/>
</svg>
