<svg width="24" height="24" viewBox="0 0 24 24" fill="none" xmlns="http://www.w3.org/2000/svg">
<g clip-path="url(#clip0_1315_75)">
<path fill-rule="evenodd" clip-rule="evenodd" d="M3 0C2.20435 0 1.44129 0.316071 0.87868 0.87868C0.316071 1.44129 0 2.20435 0 3L0 21C0 21.7956 0.316071 22.5587 0.87868 23.1213C1.44129 23.6839 2.20435 24 3 24H21C21.7956 24 22.5587 23.6839 23.1213 23.1213C23.6839 22.5587 24 21.7956 24 21V3C24 2.20435 23.6839 1.44129 23.1213 0.87868C22.5587 0.316071 21.7956 0 21 0L3 0ZM8.8185 7.758C8.67705 7.62138 8.4876 7.54579 8.29095 7.54749C8.0943 7.5492 7.90619 7.62808 7.76714 7.76714C7.62808 7.90619 7.5492 8.0943 7.54749 8.29095C7.54579 8.4876 7.62138 8.67705 7.758 8.8185L13.902 14.9625H9.75C9.55109 14.9625 9.36032 15.0415 9.21967 15.1822C9.07902 15.3228 9 15.5136 9 15.7125C9 15.9114 9.07902 16.1022 9.21967 16.2428C9.36032 16.3835 9.55109 16.4625 9.75 16.4625H15.7125C15.9114 16.4625 16.1022 16.3835 16.2428 16.2428C16.3835 16.1022 16.4625 15.9114 16.4625 15.7125V9.75C16.4625 9.55109 16.3835 9.36032 16.2428 9.21967C16.1022 9.07902 15.9114 9 15.7125 9C15.5136 9 15.3228 9.07902 15.1822 9.21967C15.0415 9.36032 14.9625 9.55109 14.9625 9.75V13.902L8.8185 7.758Z" fill="black"/>
</g>
<defs>
<clipPath id="clip0_1315_75">
<rect width="24" height="24" fill="white"/>
</clipPath>
</defs>
</svg>
