<svg width="24" height="24" viewBox="0 0 24 24" fill="none" xmlns="http://www.w3.org/2000/svg">
<g clip-path="url(#clip0_1315_33)">
<path fill-rule="evenodd" clip-rule="evenodd" d="M1.71888 7.28121C1.64903 7.21155 1.59362 7.12878 1.55581 7.03767C1.518 6.94655 1.49854 6.84887 1.49854 6.75021C1.49854 6.65156 1.518 6.55388 1.55581 6.46276C1.59362 6.37165 1.64903 6.28888 1.71888 6.21921L7.71888 0.219215C7.85971 0.078385 8.05071 -0.000732422 8.24988 -0.000732422C8.44904 -0.000732422 8.64005 0.078385 8.78088 0.219215C8.92171 0.360045 9.00082 0.551051 9.00082 0.750215C9.00082 0.949379 8.92171 1.14038 8.78088 1.28121L4.06038 6.00021H18.7499C19.7444 6.00021 20.6983 6.3953 21.4015 7.09856C22.1048 7.80183 22.4999 8.75565 22.4999 9.75021V21.7502C22.4999 21.9491 22.4209 22.1399 22.2802 22.2805C22.1396 22.4212 21.9488 22.5002 21.7499 22.5002C21.551 22.5002 21.3602 22.4212 21.2195 22.2805C21.0789 22.1399 20.9999 21.9491 20.9999 21.7502V9.75021C20.9999 9.15348 20.7628 8.58118 20.3409 8.15922C19.9189 7.73727 19.3466 7.50021 18.7499 7.50021H4.06038L8.78088 12.2192C8.85061 12.2889 8.90592 12.3717 8.94366 12.4628C8.9814 12.5539 9.00082 12.6516 9.00082 12.7502C9.00082 12.8488 8.9814 12.9465 8.94366 13.0376C8.90592 13.1287 8.85061 13.2115 8.78088 13.2812C8.71114 13.3509 8.62836 13.4063 8.53725 13.444C8.44614 13.4817 8.34849 13.5012 8.24988 13.5012C8.15126 13.5012 8.05361 13.4817 7.9625 13.444C7.87139 13.4063 7.78861 13.3509 7.71888 13.2812L1.71888 7.28121Z" fill="black"/>
</g>
<defs>
<clipPath id="clip0_1315_33">
<rect width="24" height="24" fill="white"/>
</clipPath>
</defs>
</svg>
