<svg width="24" height="24" viewBox="0 0 24 24" fill="none" xmlns="http://www.w3.org/2000/svg">
<g clip-path="url(#clip0_1315_178)">
<path fill-rule="evenodd" clip-rule="evenodd" d="M11.4491 0.199093C11.5188 0.129248 11.6015 0.0738337 11.6926 0.036024C11.7838 -0.00178566 11.8814 -0.0212479 11.9801 -0.0212479C12.0787 -0.0212479 12.1764 -0.00178566 12.2675 0.036024C12.3587 0.0738337 12.4414 0.129248 12.5111 0.199093L15.5111 3.19909C15.5808 3.26882 15.6361 3.35161 15.6739 3.44272C15.7116 3.53383 15.731 3.63148 15.731 3.73009C15.731 3.82871 15.7116 3.92636 15.6739 4.01747C15.6361 4.10858 15.5808 4.19136 15.5111 4.26109C15.4414 4.33082 15.3586 4.38614 15.2675 4.42388C15.1764 4.46162 15.0787 4.48104 14.9801 4.48104C14.8815 4.48104 14.7838 4.46162 14.6927 4.42388C14.6016 4.38614 14.5188 4.33082 14.4491 4.26109L12.7301 2.54059V8.23009C12.7301 8.429 12.6511 8.61977 12.5104 8.76042C12.3698 8.90107 12.179 8.98009 11.9801 8.98009C11.7812 8.98009 11.5904 8.90107 11.4498 8.76042C11.3091 8.61977 11.2301 8.429 11.2301 8.23009V2.54059L9.51109 4.26109C9.37026 4.40192 9.17925 4.48104 8.98009 4.48104C8.78092 4.48104 8.58991 4.40192 8.44909 4.26109C8.30826 4.12026 8.22914 3.92926 8.22914 3.73009C8.22914 3.53093 8.30826 3.33992 8.44909 3.19909L11.4491 0.199093ZM11.9801 14.9801C12.179 14.9801 12.3698 15.0591 12.5104 15.1998C12.6511 15.3404 12.7301 15.5312 12.7301 15.7301V21.4196L14.4491 19.6991C14.5899 19.5583 14.7809 19.4791 14.9801 19.4791C15.1792 19.4791 15.3703 19.5583 15.5111 19.6991C15.6519 19.8399 15.731 20.0309 15.731 20.2301C15.731 20.4293 15.6519 20.6203 15.5111 20.7611L12.5111 23.7611C12.4414 23.8309 12.3587 23.8864 12.2675 23.9242C12.1764 23.962 12.0787 23.9814 11.9801 23.9814C11.8814 23.9814 11.7838 23.962 11.6926 23.9242C11.6015 23.8864 11.5188 23.8309 11.4491 23.7611L8.44909 20.7611C8.37935 20.6914 8.32404 20.6086 8.2863 20.5175C8.24856 20.4264 8.22914 20.3287 8.22914 20.2301C8.22914 20.1315 8.24856 20.0338 8.2863 19.9427C8.32404 19.8516 8.37935 19.7688 8.44909 19.6991C8.58991 19.5583 8.78092 19.4791 8.98009 19.4791C9.0787 19.4791 9.17635 19.4986 9.26746 19.5363C9.35857 19.574 9.44135 19.6294 9.51109 19.6991L11.2301 21.4196V15.7301C11.2301 15.5312 11.3091 15.3404 11.4498 15.1998C11.5904 15.0591 11.7812 14.9801 11.9801 14.9801ZM0.199085 12.5111C0.12924 12.4414 0.0738261 12.3587 0.0360164 12.2675C-0.00179329 12.1764 -0.0212555 12.0787 -0.0212555 11.9801C-0.0212555 11.8814 -0.00179329 11.7838 0.0360164 11.6926C0.0738261 11.6015 0.12924 11.5188 0.199085 11.4491L3.19909 8.44909C3.33992 8.30826 3.53092 8.22915 3.73009 8.22915C3.92925 8.22915 4.12026 8.30826 4.26109 8.44909C4.40192 8.58992 4.48103 8.78093 4.48103 8.98009C4.48103 9.17926 4.40192 9.37026 4.26109 9.51109L2.54059 11.2301H8.23009C8.429 11.2301 8.61976 11.3091 8.76042 11.4498C8.90107 11.5904 8.98009 11.7812 8.98009 11.9801C8.98009 12.179 8.90107 12.3698 8.76042 12.5104C8.61976 12.6511 8.429 12.7301 8.23009 12.7301H2.54059L4.26109 14.4491C4.40192 14.5899 4.48103 14.7809 4.48103 14.9801C4.48103 15.1793 4.40192 15.3703 4.26109 15.5111C4.12026 15.6519 3.92925 15.731 3.73009 15.731C3.53092 15.731 3.33992 15.6519 3.19909 15.5111L0.199085 12.5111ZM14.9801 11.9801C14.9801 11.7812 15.0591 11.5904 15.1998 11.4498C15.3404 11.3091 15.5312 11.2301 15.7301 11.2301H21.4196L19.6991 9.51109C19.6294 9.44136 19.574 9.35858 19.5363 9.26747C19.4986 9.17636 19.4791 9.07871 19.4791 8.98009C19.4791 8.88148 19.4986 8.78383 19.5363 8.69272C19.574 8.60161 19.6294 8.51882 19.6991 8.44909C19.8399 8.30826 20.0309 8.22915 20.2301 8.22915C20.3287 8.22915 20.4264 8.24857 20.5175 8.28631C20.6086 8.32405 20.6914 8.37936 20.7611 8.44909L23.7611 11.4491C23.8309 11.5188 23.8863 11.6015 23.9242 11.6926C23.962 11.7838 23.9814 11.8814 23.9814 11.9801C23.9814 12.0787 23.962 12.1764 23.9242 12.2675C23.8863 12.3587 23.8309 12.4414 23.7611 12.5111L20.7611 15.5111C20.6914 15.5808 20.6086 15.6361 20.5175 15.6739C20.4264 15.7116 20.3287 15.731 20.2301 15.731C20.1315 15.731 20.0338 15.7116 19.9427 15.6739C19.8516 15.6361 19.7688 15.5808 19.6991 15.5111C19.6294 15.4414 19.574 15.3586 19.5363 15.2675C19.4986 15.1764 19.4791 15.0787 19.4791 14.9801C19.4791 14.8815 19.4986 14.7838 19.5363 14.6927C19.574 14.6016 19.6294 14.5188 19.6991 14.4491L21.4196 12.7301H15.7301C15.5312 12.7301 15.3404 12.6511 15.1998 12.5104C15.0591 12.3698 14.9801 12.179 14.9801 11.9801Z" fill="black"/>
</g>
<defs>
<clipPath id="clip0_1315_178">
<rect width="24" height="24" fill="white"/>
</clipPath>
</defs>
</svg>
