<svg width="24" height="24" viewBox="0 0 24 24" fill="none" xmlns="http://www.w3.org/2000/svg">
<path d="M17.3011 10.5H23.1991C23.2704 10.5001 23.3402 10.5204 23.4003 10.5586C23.4604 10.5969 23.5084 10.6515 23.5386 10.716C23.5688 10.7805 23.58 10.8523 23.5709 10.923C23.5618 10.9937 23.5327 11.0603 23.4871 11.115L20.5381 14.655C20.5029 14.6972 20.4589 14.7312 20.4091 14.7545C20.3594 14.7778 20.3051 14.7899 20.2501 14.7899C20.1952 14.7899 20.1409 14.7778 20.0911 14.7545C20.0414 14.7312 19.9973 14.6972 19.9621 14.655L17.0131 11.115C16.9675 11.0603 16.9385 10.9937 16.9293 10.923C16.9202 10.8523 16.9314 10.7805 16.9617 10.716C16.9919 10.6515 17.0399 10.5969 17.1 10.5586C17.1601 10.5204 17.2299 10.5001 17.3011 10.5ZM0.801129 13.5H6.69913C6.77038 13.5 6.84016 13.4797 6.90028 13.4414C6.9604 13.4032 7.00838 13.3486 7.0386 13.2841C7.06881 13.2195 7.08002 13.1477 7.07091 13.0771C7.06179 13.0064 7.03273 12.9398 6.98713 12.885L4.03813 9.34504C4.00294 9.30283 3.9589 9.26888 3.90913 9.24558C3.85936 9.22228 3.80508 9.21021 3.75013 9.21021C3.69518 9.21021 3.6409 9.22228 3.59113 9.24558C3.54136 9.26888 3.49732 9.30283 3.46213 9.34504L0.513129 12.885C0.467526 12.9398 0.438465 13.0064 0.42935 13.0771C0.420236 13.1477 0.431444 13.2195 0.461663 13.2841C0.491882 13.3486 0.539861 13.4032 0.599981 13.4414C0.660101 13.4797 0.729874 13.5 0.801129 13.5Z" fill="black"/>
<path fill-rule="evenodd" clip-rule="evenodd" d="M12 4.50033C9.67201 4.50033 7.59001 5.56083 6.21451 7.22733C6.15309 7.30694 6.07629 7.37339 5.98867 7.42272C5.90106 7.47206 5.80442 7.50327 5.7045 7.5145C5.60458 7.52573 5.50342 7.51676 5.40703 7.48812C5.31065 7.45947 5.22101 7.41174 5.14345 7.34775C5.06588 7.28377 5.00198 7.20484 4.95553 7.11567C4.90908 7.02649 4.88103 6.92888 4.87306 6.82865C4.86509 6.72841 4.87736 6.6276 4.90913 6.5322C4.9409 6.43681 4.99153 6.34877 5.05801 6.27333C6.1563 4.94362 7.6134 3.95735 9.25601 3.43182C10.8986 2.90628 12.6576 2.86361 14.3238 3.30887C15.9899 3.75413 17.4932 4.66858 18.6546 5.94346C19.8161 7.21835 20.587 8.80001 20.8755 10.5003H19.35C19.0037 8.80655 18.0831 7.28432 16.7438 6.19105C15.4046 5.09778 13.7288 4.50055 12 4.50033ZM4.65001 13.5003C4.93398 14.8873 5.60454 16.1656 6.58423 17.1875C7.56392 18.2095 8.81275 18.9335 10.1865 19.2758C11.5602 19.6181 13.0027 19.5647 14.3473 19.1219C15.692 18.6791 16.884 17.8649 17.7855 16.7733C17.8469 16.6937 17.9237 16.6273 18.0113 16.5779C18.099 16.5286 18.1956 16.4974 18.2955 16.4862C18.3954 16.4749 18.4966 16.4839 18.593 16.5126C18.6894 16.5412 18.779 16.5889 18.8566 16.6529C18.9341 16.7169 18.998 16.7958 19.0445 16.885C19.0909 16.9742 19.119 17.0718 19.127 17.172C19.1349 17.2723 19.1227 17.3731 19.0909 17.4685C19.0591 17.5639 19.0085 17.6519 18.942 17.7273C17.8437 19.057 16.3866 20.0433 14.744 20.5688C13.1014 21.0944 11.3424 21.1371 9.67625 20.6918C8.01009 20.2465 6.50687 19.3321 5.3454 18.0572C4.18392 16.7823 3.41306 15.2007 3.12451 13.5003H4.65001Z" fill="black"/>
</svg>
