<svg width="24" height="24" viewBox="0 0 24 24" fill="none" xmlns="http://www.w3.org/2000/svg">
<g clip-path="url(#clip0_1315_37)">
<path fill-rule="evenodd" clip-rule="evenodd" d="M7.2812 1.71888C7.21153 1.64903 7.12877 1.59362 7.03765 1.55581C6.94653 1.518 6.84885 1.49854 6.7502 1.49854C6.65155 1.49854 6.55387 1.518 6.46275 1.55581C6.37163 1.59362 6.28887 1.64903 6.2192 1.71888L0.2192 7.71888C0.0783698 7.85971 -0.000747681 8.05071 -0.000747681 8.24988C-0.000747681 8.44904 0.0783698 8.64005 0.2192 8.78088C0.36003 8.92171 0.551036 9.00082 0.7502 9.00082C0.949363 9.00082 1.14037 8.92171 1.2812 8.78088L6.0002 4.06038V18.7499C6.0002 19.7444 6.39529 20.6983 7.09855 21.4015C7.80181 22.1048 8.75564 22.4999 9.7502 22.4999H21.7502C21.9491 22.4999 22.1399 22.4209 22.2805 22.2802C22.4212 22.1396 22.5002 21.9488 22.5002 21.7499C22.5002 21.551 22.4212 21.3602 22.2805 21.2195C22.1399 21.0789 21.9491 20.9999 21.7502 20.9999H9.7502C9.15346 20.9999 8.58117 20.7628 8.15921 20.3409C7.73725 19.9189 7.5002 19.3466 7.5002 18.7499V4.06038L12.2192 8.78088C12.2889 8.85061 12.3717 8.90592 12.4628 8.94366C12.5539 8.9814 12.6516 9.00082 12.7502 9.00082C12.8488 9.00082 12.9465 8.9814 13.0376 8.94366C13.1287 8.90592 13.2115 8.85061 13.2812 8.78088C13.3509 8.71114 13.4062 8.62836 13.444 8.53725C13.4817 8.44614 13.5011 8.34849 13.5011 8.24988C13.5011 8.15126 13.4817 8.05361 13.444 7.9625C13.4062 7.87139 13.3509 7.78861 13.2812 7.71888L7.2812 1.71888Z" fill="black"/>
</g>
<defs>
<clipPath id="clip0_1315_37">
<rect width="24" height="24" fill="white"/>
</clipPath>
</defs>
</svg>
