<svg width="24" height="24" viewBox="0 0 24 24" fill="none" xmlns="http://www.w3.org/2000/svg">
<g clip-path="url(#clip0_1315_35)">
<path fill-rule="evenodd" clip-rule="evenodd" d="M22.281 7.28121C22.3508 7.21155 22.4063 7.12878 22.4441 7.03767C22.4819 6.94655 22.5013 6.84887 22.5013 6.75021C22.5013 6.65156 22.4819 6.55388 22.4441 6.46276C22.4063 6.37165 22.3508 6.28888 22.281 6.21921L16.281 0.219215C16.1402 0.078385 15.9492 -0.000732427 15.75 -0.000732422C15.5508 -0.000732417 15.3598 0.078385 15.219 0.219215C15.0782 0.360045 14.9991 0.551051 14.9991 0.750215C14.9991 0.949378 15.0782 1.14038 15.219 1.28121L19.9395 6.00021H5.25C4.25544 6.00021 3.30161 6.3953 2.59835 7.09856C1.89509 7.80183 1.5 8.75565 1.5 9.75021V21.7502C1.5 21.9491 1.57902 22.1399 1.71967 22.2805C1.86032 22.4212 2.05109 22.5002 2.25 22.5002C2.44891 22.5002 2.63968 22.4212 2.78033 22.2805C2.92098 22.1399 3 21.9491 3 21.7502V9.75021C3 9.15348 3.23705 8.58118 3.65901 8.15922C4.08097 7.73727 4.65326 7.50021 5.25 7.50021H19.9395L15.219 12.2192C15.0782 12.36 14.9991 12.5511 14.9991 12.7502C14.9991 12.9494 15.0782 13.1404 15.219 13.2812C15.3598 13.422 15.5508 13.5012 15.75 13.5012C15.9492 13.5012 16.1402 13.422 16.281 13.2812L22.281 7.28121Z" fill="black"/>
</g>
<defs>
<clipPath id="clip0_1315_35">
<rect width="24" height="24" fill="white"/>
</clipPath>
</defs>
</svg>
