<svg width="24" height="24" viewBox="0 0 24 24" fill="none" xmlns="http://www.w3.org/2000/svg">
<path fill-rule="evenodd" clip-rule="evenodd" d="M19.659 10.8329C19.659 6.38242 16.2855 3.28492 11.436 3.28492C6.41104 3.28492 2.96704 6.76192 2.96704 11.8379C2.96704 17.0774 6.31954 20.3999 11.61 20.3999C12.903 20.3999 14.1435 20.2154 15.066 19.8974V18.6044C14.421 18.9029 13.035 19.0964 11.631 19.0964C7.24204 19.0964 4.41154 16.2764 4.41154 11.8994C4.41154 7.63342 7.29304 4.57792 11.3025 4.57792C15.405 4.57792 18.2145 7.10992 18.2145 10.8119C18.2145 13.3349 17.3835 14.9654 16.0905 14.9654C15.3525 14.9654 14.9325 14.5454 14.9325 13.8254V7.80892H13.3845V9.05992H13.2195C12.8205 8.16742 11.898 7.61392 10.8195 7.61392C8.71954 7.61392 7.25254 9.35692 7.25254 11.8484C7.25254 14.4539 8.68804 16.2074 10.821 16.2074C12.021 16.2074 12.9435 15.6224 13.3845 14.5769H13.5495C13.671 15.5819 14.604 16.2989 15.804 16.2989C18.162 16.2989 19.659 14.1764 19.659 10.8344V10.8329ZM8.89354 11.8889C8.89354 10.0934 9.70354 9.02842 11.0775 9.02842C12.4725 9.02842 13.3635 10.1354 13.3635 11.8889C13.3635 13.6424 12.462 14.7599 11.0565 14.7599C9.71404 14.7599 8.89354 13.6724 8.89354 11.8889Z" fill="black"/>
</svg>
