<svg width="24" height="24" viewBox="0 0 24 24" fill="none" xmlns="http://www.w3.org/2000/svg">
<path fill-rule="evenodd" clip-rule="evenodd" d="M9.90438 3H20.5244C20.9222 3 21.3037 3.15804 21.585 3.43934C21.8663 3.72064 22.0244 4.10218 22.0244 4.5V19.5C22.0244 19.8978 21.8663 20.2794 21.585 20.5607C21.3037 20.842 20.9222 21 20.5244 21H9.90438C9.68772 21 9.47363 20.9531 9.27683 20.8625C9.08004 20.7718 8.90521 20.6396 8.76438 20.475L1.49988 12L8.76588 3.525C8.90655 3.36054 9.08113 3.22847 9.27765 3.13785C9.47417 3.04723 9.68798 3.0002 9.90438 3ZM20.5244 1.5C21.32 1.5 22.0831 1.81607 22.6457 2.37868C23.2083 2.94129 23.5244 3.70435 23.5244 4.5V19.5C23.5244 20.2956 23.2083 21.0587 22.6457 21.6213C22.0831 22.1839 21.32 22.5 20.5244 22.5H9.90438C9.47155 22.5002 9.0438 22.4067 8.6505 22.226C8.2572 22.0452 7.90766 21.7816 7.62588 21.453L0.361383 12.975C0.12819 12.7031 0 12.3567 0 11.9985C0 11.6403 0.12819 11.2939 0.361383 11.022L7.62588 2.55C7.90738 2.2209 8.25679 1.95664 8.6501 1.77539C9.04342 1.59414 9.47131 1.50019 9.90438 1.5H20.5244ZM8.74338 7.719C8.67354 7.78867 8.61812 7.87143 8.58031 7.96255C8.5425 8.05367 8.52304 8.15135 8.52304 8.25C8.52304 8.34865 8.5425 8.44633 8.58031 8.53745C8.61812 8.62857 8.67354 8.71133 8.74338 8.781L11.9639 12L8.74338 15.219C8.60255 15.3596 8.52336 15.5504 8.52322 15.7495C8.52308 15.9485 8.602 16.1394 8.74263 16.2803C8.88326 16.4211 9.07408 16.5003 9.2731 16.5004C9.47213 16.5006 9.66305 16.4216 9.80388 16.281L13.0244 13.0605L16.2434 16.281C16.3842 16.4216 16.5751 16.5006 16.7742 16.5004C16.9732 16.5003 17.164 16.4211 17.3046 16.2803C17.4453 16.1394 17.5242 15.9485 17.524 15.7495C17.5239 15.5504 17.4447 15.3596 17.3039 15.219L14.0849 12L17.3039 8.781C17.4447 8.64037 17.5239 8.44955 17.524 8.25053C17.5242 8.05151 17.4453 7.86058 17.3046 7.71975C17.164 7.57892 16.9732 7.49972 16.7742 7.49958C16.5751 7.49944 16.3842 7.57837 16.2434 7.719L13.0244 10.9395L9.80388 7.719C9.66324 7.5784 9.47251 7.49941 9.27363 7.49941C9.07476 7.49941 8.88403 7.5784 8.74338 7.719Z" fill="black"/>
</svg>
