<svg width="24" height="24" viewBox="0 0 24 24" fill="none" xmlns="http://www.w3.org/2000/svg">
<path fill-rule="evenodd" clip-rule="evenodd" d="M12 1.5C11.0054 1.5 10.0516 1.89509 9.34835 2.59835C8.64509 3.30161 8.25 4.25544 8.25 5.25V6H15.75V5.25C15.75 4.25544 15.3549 3.30161 14.6517 2.59835C13.9484 1.89509 12.9946 1.5 12 1.5ZM17.25 6V5.25C17.25 3.85761 16.6969 2.52226 15.7123 1.53769C14.7277 0.553123 13.3924 0 12 0C10.6076 0 9.27226 0.553123 8.28769 1.53769C7.30312 2.52226 6.75 3.85761 6.75 5.25V6H1.5V21C1.5 21.7956 1.81607 22.5587 2.37868 23.1213C2.94129 23.6839 3.70435 24 4.5 24H19.5C20.2956 24 21.0587 23.6839 21.6213 23.1213C22.1839 22.5587 22.5 21.7956 22.5 21V6H17.25ZM3 7.5V21C3 21.3978 3.15804 21.7794 3.43934 22.0607C3.72064 22.342 4.10218 22.5 4.5 22.5H19.5C19.8978 22.5 20.2794 22.342 20.5607 22.0607C20.842 21.7794 21 21.3978 21 21V7.5H3Z" fill="black"/>
<path fill-rule="evenodd" clip-rule="evenodd" d="M16.2812 12.2189C16.3511 12.2885 16.4065 12.3713 16.4443 12.4624C16.4821 12.5535 16.5016 12.6512 16.5016 12.7499C16.5016 12.8485 16.4821 12.9462 16.4443 13.0373C16.4065 13.1284 16.3511 13.2112 16.2812 13.2809L11.7812 17.7809C11.7115 17.8507 11.6288 17.9061 11.5377 17.9439C11.4465 17.9818 11.3489 18.0012 11.2502 18.0012C11.1516 18.0012 11.0539 17.9818 10.9628 17.9439C10.8716 17.9061 10.7889 17.8507 10.7192 17.7809L8.46922 15.5309C8.39948 15.4611 8.34417 15.3784 8.30643 15.2873C8.26869 15.1961 8.24927 15.0985 8.24927 14.9999C8.24927 14.9013 8.26869 14.8036 8.30643 14.7125C8.34417 14.6214 8.39948 14.5386 8.46922 14.4689C8.61005 14.328 8.80105 14.2489 9.00022 14.2489C9.09883 14.2489 9.19648 14.2684 9.28759 14.3061C9.3787 14.3438 9.46148 14.3991 9.53122 14.4689L11.2502 16.1894L15.2192 12.2189C15.2889 12.149 15.3716 12.0936 15.4628 12.0558C15.5539 12.018 15.6516 11.9985 15.7502 11.9985C15.8489 11.9985 15.9465 12.018 16.0377 12.0558C16.1288 12.0936 16.2115 12.149 16.2812 12.2189Z" fill="black"/>
</svg>
