<svg width="24" height="24" viewBox="0 0 24 24" fill="none" xmlns="http://www.w3.org/2000/svg">
<g clip-path="url(#clip0_1315_287)">
<path fill-rule="evenodd" clip-rule="evenodd" d="M8.8935 2.63563C8.94412 2.55113 8.97761 2.45748 8.99204 2.36003C9.00647 2.26259 9.00157 2.16325 8.97761 2.0677C8.95366 1.97215 8.91111 1.88225 8.85241 1.80314C8.79371 1.72403 8.72001 1.65726 8.6355 1.60664C8.55099 1.55601 8.45735 1.52253 8.3599 1.50809C8.26245 1.49366 8.16312 1.49856 8.06757 1.52252C7.97201 1.54648 7.88212 1.58902 7.80301 1.64772C7.7239 1.70642 7.65712 1.78013 7.6065 1.86464L3.3255 9.00014H0.75C0.551088 9.00014 0.360322 9.07915 0.21967 9.21981C0.0790176 9.36046 0 9.55122 0 9.75014L0 11.2501C0 11.449 0.0790176 11.6398 0.21967 11.7805C0.360322 11.9211 0.551088 12.0001 0.75 12.0001H1.6845L4.4505 21.6841C4.51778 21.9197 4.6601 22.1268 4.85584 22.2741C5.05158 22.4214 5.29004 22.5007 5.535 22.5001H18.468C18.7127 22.5004 18.9508 22.4209 19.1463 22.2736C19.3417 22.1264 19.4838 21.9194 19.551 21.6841L22.3155 12.0001H23.25C23.4489 12.0001 23.6397 11.9211 23.7803 11.7805C23.921 11.6398 24 11.449 24 11.2501V9.75014C24 9.55122 23.921 9.36046 23.7803 9.21981C23.6397 9.07915 23.4489 9.00014 23.25 9.00014H20.6745L16.395 1.86464C16.3444 1.78013 16.2776 1.70642 16.1985 1.64772C16.1194 1.58902 16.0295 1.54648 15.9339 1.52252C15.8384 1.49856 15.739 1.49366 15.6416 1.50809C15.5442 1.52253 15.4505 1.55601 15.366 1.60664C15.2815 1.65726 15.2078 1.72403 15.1491 1.80314C15.0904 1.88225 15.0478 1.97215 15.0239 2.0677C14.9999 2.16325 14.995 2.26259 15.0095 2.36003C15.0239 2.45748 15.0574 2.55113 15.108 2.63563L18.9255 9.00014H5.0745L8.895 2.63563H8.8935ZM6 15.0001C6 14.6023 6.15804 14.2208 6.43934 13.9395C6.72064 13.6582 7.10218 13.5001 7.5 13.5001C7.89782 13.5001 8.27936 13.6582 8.56066 13.9395C8.84196 14.2208 9 14.6023 9 15.0001V18.0001C9 18.398 8.84196 18.7795 8.56066 19.0608C8.27936 19.3421 7.89782 19.5001 7.5 19.5001C7.10218 19.5001 6.72064 19.3421 6.43934 19.0608C6.15804 18.7795 6 18.398 6 18.0001V15.0001ZM10.5 15.0001C10.5 14.6023 10.658 14.2208 10.9393 13.9395C11.2206 13.6582 11.6022 13.5001 12 13.5001C12.3978 13.5001 12.7794 13.6582 13.0607 13.9395C13.342 14.2208 13.5 14.6023 13.5 15.0001V18.0001C13.5 18.398 13.342 18.7795 13.0607 19.0608C12.7794 19.3421 12.3978 19.5001 12 19.5001C11.6022 19.5001 11.2206 19.3421 10.9393 19.0608C10.658 18.7795 10.5 18.398 10.5 18.0001V15.0001ZM16.5 13.5001C16.1022 13.5001 15.7206 13.6582 15.4393 13.9395C15.158 14.2208 15 14.6023 15 15.0001V18.0001C15 18.398 15.158 18.7795 15.4393 19.0608C15.7206 19.3421 16.1022 19.5001 16.5 19.5001C16.8978 19.5001 17.2794 19.3421 17.5607 19.0608C17.842 18.7795 18 18.398 18 18.0001V15.0001C18 14.6023 17.842 14.2208 17.5607 13.9395C17.2794 13.6582 16.8978 13.5001 16.5 13.5001Z" fill="black"/>
</g>
<defs>
<clipPath id="clip0_1315_287">
<rect width="24" height="24" fill="white"/>
</clipPath>
</defs>
</svg>
