<svg width="24" height="24" viewBox="0 0 24 24" fill="none" xmlns="http://www.w3.org/2000/svg">
<g clip-path="url(#clip0_1315_301)">
<path fill-rule="evenodd" clip-rule="evenodd" d="M18 7.5H3C2.60218 7.5 2.22064 7.65804 1.93934 7.93934C1.65804 8.22064 1.5 8.60218 1.5 9V15C1.5 15.3978 1.65804 15.7794 1.93934 16.0607C2.22064 16.342 2.60218 16.5 3 16.5H18C18.3978 16.5 18.7794 16.342 19.0607 16.0607C19.342 15.7794 19.5 15.3978 19.5 15V9C19.5 8.60218 19.342 8.22064 19.0607 7.93934C18.7794 7.65804 18.3978 7.5 18 7.5ZM3 6C2.20435 6 1.44129 6.31607 0.87868 6.87868C0.316071 7.44129 0 8.20435 0 9L0 15C0 15.7956 0.316071 16.5587 0.87868 17.1213C1.44129 17.6839 2.20435 18 3 18H18C18.7956 18 19.5587 17.6839 20.1213 17.1213C20.6839 16.5587 21 15.7956 21 15V9C21 8.20435 20.6839 7.44129 20.1213 6.87868C19.5587 6.31607 18.7956 6 18 6H3Z" fill="black"/>
<path d="M3 9H18V15H3V9ZM21.75 14.25C22.3467 14.25 22.919 14.0129 23.341 13.591C23.7629 13.169 24 12.5967 24 12C24 11.4033 23.7629 10.831 23.341 10.409C22.919 9.98705 22.3467 9.75 21.75 9.75V14.25Z" fill="black"/>
</g>
<defs>
<clipPath id="clip0_1315_301">
<rect width="24" height="24" fill="white"/>
</clipPath>
</defs>
</svg>
