<svg width="24" height="24" viewBox="0 0 24 24" fill="none" xmlns="http://www.w3.org/2000/svg">
<g clip-path="url(#clip0_1315_297)">
<path d="M21.75 14.25C22.3467 14.25 22.919 14.0129 23.341 13.591C23.7629 13.169 24 12.5967 24 12C24 11.4033 23.7629 10.831 23.341 10.409C22.919 9.98705 22.3467 9.75 21.75 9.75V14.25Z" fill="black"/>
<path fill-rule="evenodd" clip-rule="evenodd" d="M14.3778 3.85178C14.5243 3.93711 14.6376 4.06959 14.6992 4.22759C14.7608 4.38559 14.767 4.55979 14.7168 4.72178L13.0158 10.2478H16.0008C16.1473 10.2477 16.2906 10.2906 16.413 10.371C16.5354 10.4514 16.6316 10.566 16.6896 10.7005C16.7477 10.8349 16.7651 10.9835 16.7397 11.1278C16.7144 11.272 16.6473 11.4057 16.5468 11.5123L8.5458 20.0128C8.42969 20.1362 8.27518 20.2167 8.10746 20.2412C7.93974 20.2656 7.76869 20.2325 7.6222 20.1472C7.47571 20.062 7.36242 19.9296 7.30078 19.7717C7.23915 19.6138 7.23281 19.4397 7.2828 19.2778L8.9853 13.7503H6.0003C5.85382 13.7503 5.71052 13.7075 5.58811 13.627C5.46569 13.5466 5.36951 13.4321 5.31145 13.2976C5.25338 13.1631 5.23596 13.0146 5.26135 12.8703C5.28674 12.726 5.35381 12.5924 5.4543 12.4858L13.4538 3.98528C13.5699 3.86162 13.7244 3.78095 13.8922 3.75643C14.06 3.73191 14.2312 3.76499 14.3778 3.85028V3.85178Z" fill="black"/>
<path fill-rule="evenodd" clip-rule="evenodd" d="M9.498 6H3C2.20435 6 1.44129 6.31607 0.87868 6.87868C0.316071 7.44129 0 8.20435 0 9L0 15C0 15.7956 0.316071 16.5587 0.87868 17.1213C1.44129 17.6839 2.20435 18 3 18H6.108L6.5685 16.5H3C2.60218 16.5 2.22064 16.342 1.93934 16.0607C1.65804 15.7794 1.5 15.3978 1.5 15V9C1.5 8.60218 1.65804 8.22064 1.93934 7.93934C2.22064 7.65804 2.60218 7.5 3 7.5H8.0865L9.498 6ZM6.675 9H3V15H4.9695C4.65989 14.8403 4.39159 14.611 4.18572 14.33C3.97985 14.049 3.84204 13.724 3.78314 13.3806C3.72425 13.0373 3.74588 12.685 3.84633 12.3514C3.94678 12.0179 4.1233 11.7122 4.362 11.4585L6.675 9ZM8.139 16.5L7.677 18H10.44L10.755 17.664H10.7565L11.8515 16.5H9.795L9.6675 16.635L9.7095 16.5H8.139ZM10.17 15H8.5995L8.985 13.7505H6C5.85352 13.7506 5.71022 13.7077 5.58781 13.6273C5.46539 13.5468 5.36922 13.4323 5.31115 13.2978C5.25308 13.1633 5.23566 13.0148 5.26105 12.8705C5.28644 12.7263 5.35351 12.5926 5.454 12.486L6.6435 11.2215L8.7345 9H10.794L7.7355 12.2505H10.0005C10.1179 12.2505 10.2336 12.278 10.3384 12.3309C10.4432 12.3837 10.5341 12.4604 10.6039 12.5548C10.6736 12.6492 10.7202 12.7587 10.74 12.8744C10.7597 12.9901 10.752 13.1088 10.7175 13.221L10.17 15ZM11.205 15H13.266L15.357 12.777L16.5465 11.514C16.647 11.4074 16.7141 11.2737 16.7395 11.1295C16.7648 10.9852 16.7474 10.8367 16.6894 10.7022C16.6313 10.5677 16.5351 10.4532 16.4127 10.3727C16.2903 10.2923 16.147 10.2494 16.0005 10.2495H13.0155L13.3995 9H11.8305L11.5815 9.81L11.283 10.779C11.2485 10.8912 11.2408 11.0099 11.2605 11.1256C11.2803 11.2413 11.3269 11.3508 11.3966 11.4452C11.4664 11.5396 11.5573 11.6163 11.6621 11.6691C11.7669 11.722 11.8826 11.7495 12 11.7495H14.265L11.205 15ZM12.2925 7.5H13.86L14.322 6H11.559L10.146 7.5H12.207L12.3345 7.365L12.2925 7.5ZM15.8925 6L15.4305 7.5H18C18.3978 7.5 18.7794 7.65804 19.0607 7.93934C19.342 8.22064 19.5 8.60218 19.5 9V15C19.5 15.3978 19.342 15.7794 19.0607 16.0607C18.7794 16.342 18.3978 16.5 18 16.5H13.914L12.501 18H18C18.7956 18 19.5587 17.6839 20.1213 17.1213C20.6839 16.5587 21 15.7956 21 15V9C21 8.20435 20.6839 7.44129 20.1213 6.87868C19.5587 6.31607 18.7956 6 18 6H15.8925ZM15.3255 15H18V12.03C17.904 12.2165 17.7823 12.3887 17.6385 12.5415L15.3255 15ZM18 9.969V9H17.031C17.4469 9.21439 17.7856 9.5531 18 9.969Z" fill="black"/>
</g>
<defs>
<clipPath id="clip0_1315_297">
<rect width="24" height="24" fill="white"/>
</clipPath>
</defs>
</svg>
