<svg width="24" height="24" viewBox="0 0 24 24" fill="none" xmlns="http://www.w3.org/2000/svg">
<path fill-rule="evenodd" clip-rule="evenodd" d="M3 5.25C3 5.05109 3.07902 4.86032 3.21967 4.71967C3.36032 4.57902 3.55109 4.5 3.75 4.5H20.25C20.4489 4.5 20.6397 4.57902 20.7803 4.71967C20.921 4.86032 21 5.05109 21 5.25C21 5.44891 20.921 5.63968 20.7803 5.78033C20.6397 5.92098 20.4489 6 20.25 6H3.75C3.55109 6 3.36032 5.92098 3.21967 5.78033C3.07902 5.63968 3 5.44891 3 5.25ZM10.5 9.75C10.5 9.55109 10.579 9.36032 10.7197 9.21967C10.8603 9.07902 11.0511 9 11.25 9H20.25C20.4489 9 20.6397 9.07902 20.7803 9.21967C20.921 9.36032 21 9.55109 21 9.75C21 9.94891 20.921 10.1397 20.7803 10.2803C20.6397 10.421 20.4489 10.5 20.25 10.5H11.25C11.0511 10.5 10.8603 10.421 10.7197 10.2803C10.579 10.1397 10.5 9.94891 10.5 9.75ZM10.5 14.25C10.5 14.0511 10.579 13.8603 10.7197 13.7197C10.8603 13.579 11.0511 13.5 11.25 13.5H20.25C20.4489 13.5 20.6397 13.579 20.7803 13.7197C20.921 13.8603 21 14.0511 21 14.25C21 14.4489 20.921 14.6397 20.7803 14.7803C20.6397 14.921 20.4489 15 20.25 15H11.25C11.0511 15 10.8603 14.921 10.7197 14.7803C10.579 14.6397 10.5 14.4489 10.5 14.25ZM3 18.75C3 18.5511 3.07902 18.3603 3.21967 18.2197C3.36032 18.079 3.55109 18 3.75 18H20.25C20.4489 18 20.6397 18.079 20.7803 18.2197C20.921 18.3603 21 18.5511 21 18.75C21 18.9489 20.921 19.1397 20.7803 19.2803C20.6397 19.421 20.4489 19.5 20.25 19.5H3.75C3.55109 19.5 3.36032 19.421 3.21967 19.2803C3.07902 19.1397 3 18.9489 3 18.75Z" fill="black"/>
<path d="M5.601 9.528C5.37312 9.65661 5.15045 9.79421 4.9335 9.9405C4.74342 10.069 4.56921 10.2196 4.4145 10.389C4.25927 10.5517 4.13159 10.7387 4.0365 10.9425C3.9495 11.136 3.8865 11.385 3.852 11.6895H4.275C4.638 11.6895 4.9215 11.7795 5.127 11.9625C5.337 12.138 5.442 12.3975 5.442 12.744C5.43748 13.0022 5.33756 13.2496 5.1615 13.4385C4.9815 13.6485 4.728 13.7535 4.407 13.7535C3.903 13.7535 3.5415 13.5915 3.3255 13.263C3.108 12.9285 3 12.492 3 11.9535C3 11.5725 3.0825 11.226 3.246 10.9155C3.411 10.6005 3.609 10.3185 3.843 10.0725C4.083 9.8205 4.338 9.6075 4.608 9.4305C4.878 9.255 5.103 9.111 5.2845 9L5.601 9.528ZM8.853 9.528C8.62513 9.65661 8.40245 9.79422 8.1855 9.9405C7.99542 10.069 7.82121 10.2196 7.6665 10.389C7.497 10.569 7.368 10.758 7.281 10.9515C7.18656 11.1876 7.12694 11.4362 7.104 11.6895H7.527C7.89 11.6895 8.1735 11.7795 8.379 11.9625C8.589 12.138 8.694 12.3975 8.694 12.744C8.68948 13.0022 8.58956 13.2496 8.4135 13.4385C8.2335 13.6485 7.98 13.7535 7.6575 13.7535C7.155 13.7535 6.7935 13.5915 6.5775 13.263C6.36 12.9285 6.252 12.492 6.252 11.9535C6.252 11.5725 6.3345 11.226 6.498 10.9155C6.663 10.6005 6.861 10.3185 7.095 10.0725C7.335 9.8205 7.59 9.6075 7.86 9.4305C8.13 9.255 8.355 9.111 8.5365 9L8.853 9.528Z" fill="black"/>
</svg>
