<svg width="24" height="24" viewBox="0 0 24 24" fill="none" xmlns="http://www.w3.org/2000/svg">
<g clip-path="url(#clip0_1315_348)">
<path fill-rule="evenodd" clip-rule="evenodd" d="M3 3C3 2.20435 3.31607 1.44129 3.87868 0.87868C4.44129 0.316071 5.20435 0 6 0L18 0C18.7956 0 19.5587 0.316071 20.1213 0.87868C20.6839 1.44129 21 2.20435 21 3V23.25C21.0001 23.3802 20.9663 23.5083 20.9019 23.6215C20.8375 23.7347 20.7447 23.8291 20.6327 23.8956C20.5207 23.962 20.3933 23.9982 20.263 24.0004C20.1328 24.0027 20.0043 23.971 19.89 23.9085L12 19.6035L4.11 23.9085C3.99574 23.971 3.86718 24.0027 3.73696 24.0004C3.60674 23.9982 3.47935 23.962 3.36734 23.8956C3.25532 23.8291 3.16255 23.7347 3.09814 23.6215C3.03373 23.5083 2.9999 23.3802 3 23.25V3Z" fill="black"/>
</g>
<defs>
<clipPath id="clip0_1315_348">
<rect width="24" height="24" fill="white"/>
</clipPath>
</defs>
</svg>
