<svg width="24" height="24" viewBox="0 0 24 24" fill="none" xmlns="http://www.w3.org/2000/svg">
<g clip-path="url(#clip0_1315_336)">
<path fill-rule="evenodd" clip-rule="evenodd" d="M1.5 4.24217V19.1267C2.877 18.6017 4.6605 18.0887 6.4305 17.9117C8.0715 17.7452 9.8475 17.8532 11.25 18.6497V4.03067C10.269 2.99717 8.577 2.70167 6.582 2.90267C4.731 3.08867 2.8275 3.68717 1.5 4.24217ZM12.75 4.03067V18.6497C14.1525 17.8547 15.93 17.7452 17.5695 17.9102C19.3395 18.0902 21.1245 18.6017 22.5 19.1267V4.24217C21.1725 3.68717 19.269 3.08867 17.418 2.90267C15.423 2.70167 13.731 2.99717 12.75 4.03067ZM12 2.67467C10.5225 1.40417 8.3805 1.21517 6.4305 1.41017C4.1595 1.63967 1.8675 2.41817 0.4395 3.06767C0.308474 3.12726 0.197363 3.2233 0.119432 3.34432C0.0415 3.46534 3.98571e-05 3.60623 0 3.75017L0 20.2502C3.4743e-05 20.3757 0.0315557 20.4991 0.0916756 20.6093C0.151796 20.7194 0.238593 20.8127 0.344116 20.8806C0.44964 20.9486 0.570517 20.9889 0.695675 20.998C0.820833 21.0071 0.946271 20.9846 1.0605 20.9327C2.3835 20.3327 4.515 19.6112 6.5805 19.4027C8.694 19.1897 10.4655 19.5332 11.415 20.7182C11.4853 20.8058 11.5743 20.8765 11.6756 20.925C11.7768 20.9736 11.8877 20.9988 12 20.9988C12.1123 20.9988 12.2232 20.9736 12.3244 20.925C12.4257 20.8765 12.5147 20.8058 12.585 20.7182C13.5345 19.5332 15.306 19.1897 17.418 19.4027C19.485 19.6112 21.618 20.3327 22.9395 20.9327C23.0537 20.9846 23.1792 21.0071 23.3043 20.998C23.4295 20.9889 23.5504 20.9486 23.6559 20.8806C23.7614 20.8127 23.8482 20.7194 23.9083 20.6093C23.9684 20.4991 24 20.3757 24 20.2502V3.75017C24 3.60623 23.9585 3.46534 23.8806 3.34432C23.8026 3.2233 23.6915 3.12726 23.5605 3.06767C22.1325 2.41817 19.8405 1.63967 17.5695 1.41017C15.6195 1.21367 13.4775 1.40417 12 2.67467Z" fill="black"/>
</g>
<defs>
<clipPath id="clip0_1315_336">
<rect width="24" height="24" fill="white"/>
</clipPath>
</defs>
</svg>
