<svg width="24" height="24" viewBox="0 0 24 24" fill="none" xmlns="http://www.w3.org/2000/svg">
<g clip-path="url(#clip0_1315_384)">
<path fill-rule="evenodd" clip-rule="evenodd" d="M18 1.5H6C4.80653 1.5 3.66193 1.97411 2.81802 2.81802C1.97411 3.66193 1.5 4.80653 1.5 6V18C1.5 19.1935 1.97411 20.3381 2.81802 21.182C3.66193 22.0259 4.80653 22.5 6 22.5H18C19.1935 22.5 20.3381 22.0259 21.182 21.182C22.0259 20.3381 22.5 19.1935 22.5 18V6C22.5 4.80653 22.0259 3.66193 21.182 2.81802C20.3381 1.97411 19.1935 1.5 18 1.5ZM6 0C4.4087 0 2.88258 0.632141 1.75736 1.75736C0.632141 2.88258 0 4.4087 0 6L0 18C0 19.5913 0.632141 21.1174 1.75736 22.2426C2.88258 23.3679 4.4087 24 6 24H18C19.5913 24 21.1174 23.3679 22.2426 22.2426C23.3679 21.1174 24 19.5913 24 18V6C24 4.4087 23.3679 2.88258 22.2426 1.75736C21.1174 0.632141 19.5913 0 18 0L6 0Z" fill="black"/>
<path fill-rule="evenodd" clip-rule="evenodd" d="M12.8055 17.9999H7.59302V5.31738H12.6915C15.072 5.31738 16.506 6.53088 16.506 8.48238C16.506 9.80838 15.531 10.9949 14.2815 11.2064V11.3564C15.996 11.5319 17.1375 12.7529 17.1375 14.4059C17.1375 16.6379 15.5115 17.9999 12.8055 17.9999ZM9.56252 6.98688V10.6874H11.8995C13.6395 10.6874 14.5455 10.0454 14.5455 8.84238C14.5455 7.67238 13.692 6.98688 12.234 6.98688H9.56252ZM12.4095 16.3304H9.56252V12.2429H12.2955C14.1495 12.2429 15.126 12.9374 15.126 14.2649C15.126 15.6089 14.1855 16.3304 12.4095 16.3304Z" fill="black"/>
</g>
<defs>
<clipPath id="clip0_1315_384">
<rect width="24" height="24" fill="white"/>
</clipPath>
</defs>
</svg>
