<svg width="24" height="24" viewBox="0 0 24 24" fill="none" xmlns="http://www.w3.org/2000/svg">
<g clip-path="url(#clip0_1315_382)">
<path fill-rule="evenodd" clip-rule="evenodd" d="M1.75592 12C1.75592 14.0291 2.35758 16.0127 3.48484 17.6998C4.61209 19.387 6.2143 20.7021 8.0889 21.4787C9.96349 22.2554 12.0263 22.4587 14.0164 22.0631C16.0066 21.6674 17.8348 20.6906 19.2698 19.256C20.7048 17.8214 21.6822 15.9935 22.0784 14.0035C22.4746 12.0134 22.2719 9.95057 21.4958 8.07575C20.7197 6.20092 19.4051 4.59832 17.7183 3.47058C16.0314 2.34284 14.048 1.74059 12.0189 1.74C11.7882 1.74 11.5669 1.64834 11.4037 1.48518C11.2406 1.32203 11.1489 1.10074 11.1489 0.87C11.1489 0.639262 11.2406 0.417974 11.4037 0.254817C11.5669 0.0916604 11.7882 0 12.0189 0C14.7052 0.000790858 17.3135 0.902876 19.4263 2.56183C21.539 4.22079 23.0341 6.54067 23.6721 9.15007C24.31 11.7595 24.054 14.5075 22.945 16.9541C21.836 19.4008 19.9382 21.4046 17.5553 22.6447C15.1724 23.8848 12.4424 24.2896 9.80221 23.7941C7.16204 23.2987 4.76445 21.9318 2.99328 19.9121C1.22212 17.8925 0.179823 15.337 0.0332625 12.6547C-0.113298 9.97246 0.644355 7.31859 2.18492 5.118L1.19042 4.2525C1.07163 4.14922 0.983092 4.01565 0.93423 3.86601C0.885369 3.71638 0.878019 3.55629 0.912964 3.40281C0.947909 3.24933 1.02384 3.10821 1.13266 2.99448C1.24149 2.88075 1.37913 2.79867 1.53092 2.757L5.31092 1.722C5.44899 1.68433 5.59423 1.6813 5.73375 1.71319C5.87328 1.74507 6.00278 1.81088 6.11078 1.90479C6.21878 1.9987 6.30195 2.1178 6.35291 2.25154C6.40387 2.38529 6.42105 2.52953 6.40292 2.6715L5.90492 6.5595C5.88494 6.71575 5.8229 6.86365 5.72544 6.9874C5.62798 7.11116 5.49874 7.20613 5.35153 7.26219C5.20431 7.31824 5.04464 7.33327 4.88955 7.30567C4.73446 7.27808 4.58977 7.20889 4.47092 7.1055L3.50642 6.2655C2.36209 7.95878 1.7518 9.9563 1.75442 12H1.75592ZM9.97592 11.8815V7.9155H12.3309C13.6524 7.9155 14.4549 8.664 14.4549 9.8955C14.4549 11.1555 13.6989 11.8815 12.3759 11.8815H9.97592ZM9.97592 17.5065V13.2645H12.3309L14.5779 17.5065H16.5489L14.0799 12.9975C15.4254 12.5475 16.2204 11.3385 16.2204 9.8475C16.2204 7.7925 14.8059 6.4785 12.5364 6.4785H8.26442V17.5065H9.97592Z" fill="black"/>
</g>
<defs>
<clipPath id="clip0_1315_382">
<rect width="24" height="24" fill="white"/>
</clipPath>
</defs>
</svg>
