<svg width="24" height="24" viewBox="0 0 24 24" fill="none" xmlns="http://www.w3.org/2000/svg">
<g clip-path="url(#clip0_1315_391)">
<path fill-rule="evenodd" clip-rule="evenodd" d="M3 1.50004C2.60218 1.50004 2.22065 1.65808 1.93934 1.93938C1.65804 2.22069 1.5 2.60222 1.5 3.00004C1.5 3.39787 1.65804 3.7794 1.93934 4.0607C2.22065 4.34201 2.60218 4.50004 3 4.50004C3.39783 4.50004 3.77936 4.34201 4.06066 4.0607C4.34197 3.7794 4.5 3.39787 4.5 3.00004C4.5 2.60222 4.34197 2.22069 4.06066 1.93938C3.77936 1.65808 3.39783 1.50004 3 1.50004ZM1.46676e-06 3.00004C-0.000720717 2.26934 0.265264 1.5635 0.748032 1.015C1.2308 0.466494 1.89716 0.113042 2.62204 0.0209825C3.34691 -0.0710771 4.08047 0.104585 4.68502 0.514999C5.28957 0.925413 5.72355 1.54236 5.9055 2.25004H18.0945C18.2269 1.73804 18.4923 1.27014 18.8638 0.893741C19.2352 0.517345 19.6996 0.245835 20.2098 0.106724C20.72 -0.032387 21.258 -0.0341552 21.7691 0.101599C22.2802 0.237353 22.7464 0.505804 23.1203 0.87975C23.4942 1.2537 23.7627 1.71985 23.8984 2.23097C24.0342 2.74208 24.0324 3.28001 23.8933 3.79022C23.7542 4.30044 23.4827 4.76481 23.1063 5.13629C22.7299 5.50777 22.262 5.77315 21.75 5.90554V18.0945C22.262 18.2269 22.7299 18.4923 23.1063 18.8638C23.4827 19.2353 23.7542 19.6996 23.8933 20.2099C24.0324 20.7201 24.0342 21.258 23.8984 21.7691C23.7627 22.2802 23.4942 22.7464 23.1203 23.1203C22.7464 23.4943 22.2802 23.7627 21.7691 23.8985C21.258 24.0342 20.72 24.0325 20.2098 23.8934C19.6996 23.7542 19.2352 23.4827 18.8638 23.1063C18.4923 22.7299 18.2269 22.262 18.0945 21.75H5.9055C5.77311 22.262 5.50773 22.7299 5.13625 23.1063C4.76477 23.4827 4.30039 23.7542 3.79018 23.8934C3.27996 24.0325 2.74204 24.0342 2.23092 23.8985C1.71981 23.7627 1.25366 23.4943 0.879709 23.1203C0.505763 22.7464 0.237312 22.2802 0.101558 21.7691C-0.0341964 21.258 -0.0324283 20.7201 0.106683 20.2099C0.245794 19.6996 0.517304 19.2353 0.8937 18.8638C1.2701 18.4923 1.738 18.2269 2.25 18.0945V5.90554C1.60591 5.73924 1.03535 5.36357 0.62806 4.83762C0.220765 4.31167 -0.000167602 3.66526 1.46676e-06 3.00004ZM3.75 5.90554V18.0945C4.8045 18.3645 5.634 19.1955 5.9055 20.25H18.0945C18.229 19.7312 18.4998 19.2578 18.8788 18.8788C19.2577 18.4998 19.7312 18.229 20.25 18.0945V5.90554C19.7312 5.77105 19.2577 5.50028 18.8788 5.12129C18.4998 4.7423 18.229 4.26887 18.0945 3.75004H5.9055C5.77101 4.26887 5.50024 4.7423 5.12125 5.12129C4.74226 5.50028 4.26883 5.77105 3.75 5.90554ZM21 1.50004C20.6022 1.50004 20.2206 1.65808 19.9393 1.93938C19.658 2.22069 19.5 2.60222 19.5 3.00004C19.5 3.39787 19.658 3.7794 19.9393 4.0607C20.2206 4.34201 20.6022 4.50004 21 4.50004C21.3978 4.50004 21.7794 4.34201 22.0607 4.0607C22.342 3.7794 22.5 3.39787 22.5 3.00004C22.5 2.60222 22.342 2.22069 22.0607 1.93938C21.7794 1.65808 21.3978 1.50004 21 1.50004ZM3 19.5C2.60218 19.5 2.22065 19.6581 1.93934 19.9394C1.65804 20.2207 1.5 20.6022 1.5 21C1.5 21.3979 1.65804 21.7794 1.93934 22.0607C2.22065 22.342 2.60218 22.5 3 22.5C3.39783 22.5 3.77936 22.342 4.06066 22.0607C4.34197 21.7794 4.5 21.3979 4.5 21C4.5 20.6022 4.34197 20.2207 4.06066 19.9394C3.77936 19.6581 3.39783 19.5 3 19.5ZM21 19.5C20.6022 19.5 20.2206 19.6581 19.9393 19.9394C19.658 20.2207 19.5 20.6022 19.5 21C19.5 21.3979 19.658 21.7794 19.9393 22.0607C20.2206 22.342 20.6022 22.5 21 22.5C21.3978 22.5 21.7794 22.342 22.0607 22.0607C22.342 21.7794 22.5 21.3979 22.5 21C22.5 20.6022 22.342 20.2207 22.0607 19.9394C21.7794 19.6581 21.3978 19.5 21 19.5Z" fill="black"/>
</g>
<defs>
<clipPath id="clip0_1315_391">
<rect width="24" height="24" fill="white"/>
</clipPath>
</defs>
</svg>
