<svg width="24" height="24" viewBox="0 0 24 24" fill="none" xmlns="http://www.w3.org/2000/svg">
<path fill-rule="evenodd" clip-rule="evenodd" d="M9.546 20.25C9.546 20.4489 9.62502 20.6397 9.76567 20.7803C9.90632 20.921 10.0971 21 10.296 21H20.25C20.8467 21 21.419 20.7629 21.841 20.341C22.2629 19.919 22.5 19.3467 22.5 18.75V3.75C22.5 3.15326 22.2629 2.58097 21.841 2.15901C21.419 1.73705 20.8467 1.5 20.25 1.5H5.25C4.65326 1.5 4.08097 1.73705 3.65901 2.15901C3.23705 2.58097 3 3.15326 3 3.75V13.704C3 13.9029 3.07902 14.0937 3.21967 14.2343C3.36032 14.375 3.55109 14.454 3.75 14.454C3.94891 14.454 4.13968 14.375 4.28033 14.2343C4.42098 14.0937 4.5 13.9029 4.5 13.704V3.75C4.5 3.55109 4.57902 3.36032 4.71967 3.21967C4.86032 3.07902 5.05109 3 5.25 3H20.25C20.4489 3 20.6397 3.07902 20.7803 3.21967C20.921 3.36032 21 3.55109 21 3.75V18.75C21 18.9489 20.921 19.1397 20.7803 19.2803C20.6397 19.421 20.4489 19.5 20.25 19.5H10.296C10.0971 19.5 9.90632 19.579 9.76567 19.7197C9.62502 19.8603 9.546 20.0511 9.546 20.25Z" fill="black"/>
<path fill-rule="evenodd" clip-rule="evenodd" d="M16.4998 8.25C16.4998 8.05109 16.4208 7.86032 16.2802 7.71967C16.1395 7.57902 15.9488 7.5 15.7498 7.5H8.24985C8.05094 7.5 7.86017 7.57902 7.71952 7.71967C7.57887 7.86032 7.49985 8.05109 7.49985 8.25C7.49985 8.44891 7.57887 8.63968 7.71952 8.78033C7.86017 8.92098 8.05094 9 8.24985 9H13.9393L1.71885 21.219C1.57802 21.3598 1.4989 21.5508 1.4989 21.75C1.4989 21.9492 1.57802 22.1402 1.71885 22.281C1.85968 22.4218 2.05069 22.5009 2.24985 22.5009C2.44901 22.5009 2.64002 22.4218 2.78085 22.281L14.9998 10.0605V15.75C14.9998 15.9489 15.0789 16.1397 15.2195 16.2803C15.3602 16.421 15.5509 16.5 15.7498 16.5C15.9488 16.5 16.1395 16.421 16.2802 16.2803C16.4208 16.1397 16.4998 15.9489 16.4998 15.75V8.25Z" fill="black"/>
</svg>
