<svg width="24" height="24" viewBox="0 0 24 24" fill="none" xmlns="http://www.w3.org/2000/svg">
<path fill-rule="evenodd" clip-rule="evenodd" d="M5.25 15C5.05109 15 4.86032 14.921 4.71967 14.7803C4.57902 14.6397 4.5 14.4489 4.5 14.25V2.25C4.5 2.05109 4.57902 1.86032 4.71967 1.71967C4.86032 1.57902 5.05109 1.5 5.25 1.5H18.75C18.9489 1.5 19.1397 1.57902 19.2803 1.71967C19.421 1.86032 19.5 2.05109 19.5 2.25V14.25C19.5 14.4489 19.421 14.6397 19.2803 14.7803C19.1397 14.921 18.9489 15 18.75 15H15.75C15.5511 15 15.3603 15.079 15.2197 15.2197C15.079 15.3603 15 15.5511 15 15.75C15 15.9489 15.079 16.1397 15.2197 16.2803C15.3603 16.421 15.5511 16.5 15.75 16.5H18.75C19.3467 16.5 19.919 16.2629 20.341 15.841C20.7629 15.419 21 14.8467 21 14.25V2.25C21 1.65326 20.7629 1.08097 20.341 0.65901C19.919 0.237053 19.3467 0 18.75 0L5.25 0C4.65326 0 4.08097 0.237053 3.65901 0.65901C3.23705 1.08097 3 1.65326 3 2.25V14.25C3 14.8467 3.23705 15.419 3.65901 15.841C4.08097 16.2629 4.65326 16.5 5.25 16.5H8.25C8.44891 16.5 8.63968 16.421 8.78033 16.2803C8.92098 16.1397 9 15.9489 9 15.75C9 15.5511 8.92098 15.3603 8.78033 15.2197C8.63968 15.079 8.44891 15 8.25 15H5.25Z" fill="black"/>
<path fill-rule="evenodd" clip-rule="evenodd" d="M11.4692 6.21888C11.5389 6.14903 11.6216 6.09362 11.7128 6.05581C11.8039 6.018 11.9016 5.99854 12.0002 5.99854C12.0989 5.99854 12.1965 6.018 12.2877 6.05581C12.3788 6.09362 12.4615 6.14903 12.5312 6.21888L17.0312 10.7189C17.172 10.8597 17.2512 11.0507 17.2512 11.2499C17.2512 11.449 17.172 11.64 17.0312 11.7809C16.8904 11.9217 16.6994 12.0008 16.5002 12.0008C16.3011 12.0008 16.11 11.9217 15.9692 11.7809L12.7502 8.56038V21.7499C12.7502 21.9488 12.6712 22.1396 12.5305 22.2802C12.3899 22.4209 12.1991 22.4999 12.0002 22.4999C11.8013 22.4999 11.6105 22.4209 11.4699 22.2802C11.3292 22.1396 11.2502 21.9488 11.2502 21.7499V8.56038L8.03122 11.7809C7.89039 11.9217 7.69938 12.0008 7.50022 12.0008C7.30105 12.0008 7.11005 11.9217 6.96922 11.7809C6.82839 11.64 6.74927 11.449 6.74927 11.2499C6.74927 11.0507 6.82839 10.8597 6.96922 10.7189L11.4692 6.21888Z" fill="black"/>
</svg>
