<svg width="24" height="24" viewBox="0 0 24 24" fill="none" xmlns="http://www.w3.org/2000/svg">
<g clip-path="url(#clip0_1315_398)">
<path fill-rule="evenodd" clip-rule="evenodd" d="M12.954 18.75C12.954 18.9489 12.875 19.1397 12.7343 19.2803C12.5937 19.421 12.4029 19.5 12.204 19.5H2.25C1.65326 19.5 1.08097 19.2629 0.65901 18.841C0.237053 18.419 0 17.8467 0 17.25L0 2.25C0 1.65326 0.237053 1.08097 0.65901 0.65901C1.08097 0.237053 1.65326 0 2.25 0L17.25 0C17.8467 0 18.419 0.237053 18.841 0.65901C19.2629 1.08097 19.5 1.65326 19.5 2.25V12.204C19.5 12.4029 19.421 12.5937 19.2803 12.7343C19.1397 12.875 18.9489 12.954 18.75 12.954C18.5511 12.954 18.3603 12.875 18.2197 12.7343C18.079 12.5937 18 12.4029 18 12.204V2.25C18 2.05109 17.921 1.86032 17.7803 1.71967C17.6397 1.57902 17.4489 1.5 17.25 1.5H2.25C2.05109 1.5 1.86032 1.57902 1.71967 1.71967C1.57902 1.86032 1.5 2.05109 1.5 2.25V17.25C1.5 17.4489 1.57902 17.6397 1.71967 17.7803C1.86032 17.921 2.05109 18 2.25 18H12.204C12.4029 18 12.5937 18.079 12.7343 18.2197C12.875 18.3603 12.954 18.5511 12.954 18.75Z" fill="black"/>
<path fill-rule="evenodd" clip-rule="evenodd" d="M24.0002 23.2498C24.0002 23.4488 23.9212 23.6395 23.7805 23.7802C23.6399 23.9208 23.4491 23.9998 23.2502 23.9998H15.7502C15.5513 23.9998 15.3605 23.9208 15.2199 23.7802C15.0792 23.6395 15.0002 23.4488 15.0002 23.2498C15.0002 23.0509 15.0792 22.8602 15.2199 22.7195C15.3605 22.5789 15.5513 22.4998 15.7502 22.4998H21.4397L9.21922 10.2808C9.14948 10.2111 9.09417 10.1283 9.05643 10.0372C9.01869 9.94612 8.99927 9.84846 8.99927 9.74985C8.99927 9.65123 9.01869 9.55358 9.05643 9.46247C9.09417 9.37136 9.14948 9.28858 9.21922 9.21885C9.28895 9.14912 9.37173 9.0938 9.46284 9.05606C9.55395 9.01833 9.6516 8.9989 9.75022 8.9989C9.84883 8.9989 9.94648 9.01833 10.0376 9.05606C10.1287 9.0938 10.2115 9.14912 10.2812 9.21885L22.5002 21.4393V15.7498C22.5002 15.5509 22.5792 15.3602 22.7199 15.2195C22.8605 15.0789 23.0513 14.9998 23.2502 14.9998C23.4491 14.9998 23.6399 15.0789 23.7805 15.2195C23.9212 15.3602 24.0002 15.5509 24.0002 15.7498V23.2498Z" fill="black"/>
</g>
<defs>
<clipPath id="clip0_1315_398">
<rect width="24" height="24" fill="white"/>
</clipPath>
</defs>
</svg>
