<svg width="24" height="24" viewBox="0 0 24 24" fill="none" xmlns="http://www.w3.org/2000/svg">
<g clip-path="url(#clip0_1315_401)">
<path fill-rule="evenodd" clip-rule="evenodd" d="M5.25 15C5.05109 15 4.86032 14.921 4.71967 14.7803C4.57902 14.6397 4.5 14.4489 4.5 14.25V2.25C4.5 2.05109 4.57902 1.86032 4.71967 1.71967C4.86032 1.57902 5.05109 1.5 5.25 1.5H18.75C18.9489 1.5 19.1397 1.57902 19.2803 1.71967C19.421 1.86032 19.5 2.05109 19.5 2.25V14.25C19.5 14.4489 19.421 14.6397 19.2803 14.7803C19.1397 14.921 18.9489 15 18.75 15H15.75C15.5511 15 15.3603 15.079 15.2197 15.2197C15.079 15.3603 15 15.5511 15 15.75C15 15.9489 15.079 16.1397 15.2197 16.2803C15.3603 16.421 15.5511 16.5 15.75 16.5H18.75C19.3467 16.5 19.919 16.2629 20.341 15.841C20.7629 15.419 21 14.8467 21 14.25V2.25C21 1.65326 20.7629 1.08097 20.341 0.65901C19.919 0.237053 19.3467 0 18.75 0L5.25 0C4.65326 0 4.08097 0.237053 3.65901 0.65901C3.23705 1.08097 3 1.65326 3 2.25V14.25C3 14.8467 3.23705 15.419 3.65901 15.841C4.08097 16.2629 4.65326 16.5 5.25 16.5H8.25C8.44891 16.5 8.63968 16.421 8.78033 16.2803C8.92098 16.1397 9 15.9489 9 15.75C9 15.5511 8.92098 15.3603 8.78033 15.2197C8.63968 15.079 8.44891 15 8.25 15H5.25Z" fill="black"/>
<path fill-rule="evenodd" clip-rule="evenodd" d="M11.4692 23.781C11.5389 23.8508 11.6216 23.9063 11.7128 23.9441C11.8039 23.9819 11.9016 24.0013 12.0002 24.0013C12.0989 24.0013 12.1965 23.9819 12.2877 23.9441C12.3788 23.9063 12.4615 23.8508 12.5312 23.781L17.0312 19.281C17.172 19.1402 17.2512 18.9492 17.2512 18.75C17.2512 18.5508 17.172 18.3598 17.0312 18.219C16.8904 18.0782 16.6994 17.9991 16.5002 17.9991C16.3011 17.9991 16.11 18.0782 15.9692 18.219L12.7502 21.4395V8.25C12.7502 8.05109 12.6712 7.86032 12.5305 7.71967C12.3899 7.57902 12.1991 7.5 12.0002 7.5C11.8013 7.5 11.6105 7.57902 11.4699 7.71967C11.3292 7.86032 11.2502 8.05109 11.2502 8.25V21.4395L8.03122 18.219C7.89039 18.0782 7.69938 17.9991 7.50022 17.9991C7.30105 17.9991 7.11005 18.0782 6.96922 18.219C6.82839 18.3598 6.74927 18.5508 6.74927 18.75C6.74927 18.9492 6.82839 19.1402 6.96922 19.281L11.4692 23.781Z" fill="black"/>
</g>
<defs>
<clipPath id="clip0_1315_401">
<rect width="24" height="24" fill="white"/>
</clipPath>
</defs>
</svg>
