<svg width="24" height="24" viewBox="0 0 24 24" fill="none" xmlns="http://www.w3.org/2000/svg">
<path fill-rule="evenodd" clip-rule="evenodd" d="M0 18.7501C0 19.3469 0.237053 19.9192 0.65901 20.3411C1.08097 20.7631 1.65326 21.0001 2.25 21.0001H21.75C22.3467 21.0001 22.919 20.7631 23.341 20.3411C23.7629 19.9192 24 19.3469 24 18.7501V10.2751L12.1935 13.4206C12.0667 13.4545 11.9333 13.4545 11.8065 13.4206L0 10.2751V18.7501Z" fill="black"/>
<path fill-rule="evenodd" clip-rule="evenodd" d="M0 6.75C0 6.15326 0.237053 5.58097 0.65901 5.15901C1.08097 4.73705 1.65326 4.5 2.25 4.5H21.75C22.3467 4.5 22.919 4.73705 23.341 5.15901C23.7629 5.58097 24 6.15326 24 6.75V8.826L12.579 11.871C12.1996 11.972 11.8004 11.972 11.421 11.871L0 8.826V6.75ZM7.5 3.75C7.5 3.15326 7.73705 2.58097 8.15901 2.15901C8.58097 1.73705 9.15326 1.5 9.75 1.5H14.25C14.8467 1.5 15.419 1.73705 15.841 2.15901C16.2629 2.58097 16.5 3.15326 16.5 3.75V4.5H15V3.75C15 3.55109 14.921 3.36032 14.7803 3.21967C14.6397 3.07902 14.4489 3 14.25 3H9.75C9.55109 3 9.36032 3.07902 9.21967 3.21967C9.07902 3.36032 9 3.55109 9 3.75V4.5H7.5V3.75Z" fill="black"/>
</svg>
