<svg width="24" height="24" viewBox="0 0 24 24" fill="none" xmlns="http://www.w3.org/2000/svg">
<path fill-rule="evenodd" clip-rule="evenodd" d="M6 16.5C6 14.9087 6.63214 13.3826 7.75736 12.2574C8.88258 11.1321 10.4087 10.5 12 10.5C13.5913 10.5 15.1174 11.1321 16.2426 12.2574C17.3679 13.3826 18 14.9087 18 16.5C18 16.6989 17.921 16.8897 17.7803 17.0303C17.6397 17.171 17.4489 17.25 17.25 17.25H6.75C6.55109 17.25 6.36032 17.171 6.21967 17.0303C6.07902 16.8897 6 16.6989 6 16.5ZM12 4.5C12.1989 4.5 12.3897 4.57902 12.5303 4.71967C12.671 4.86032 12.75 5.05109 12.75 5.25V8.25C12.75 8.44891 12.671 8.63968 12.5303 8.78033C12.3897 8.92098 12.1989 9 12 9C11.8011 9 11.6103 8.92098 11.4697 8.78033C11.329 8.63968 11.25 8.44891 11.25 8.25V5.25C11.25 5.05109 11.329 4.86032 11.4697 4.71967C11.6103 4.57902 11.8011 4.5 12 4.5ZM24 16.5C24 16.6989 23.921 16.8897 23.7803 17.0303C23.6397 17.171 23.4489 17.25 23.25 17.25H20.25C20.0511 17.25 19.8603 17.171 19.7197 17.0303C19.579 16.8897 19.5 16.6989 19.5 16.5C19.5 16.3011 19.579 16.1103 19.7197 15.9697C19.8603 15.829 20.0511 15.75 20.25 15.75H23.25C23.4489 15.75 23.6397 15.829 23.7803 15.9697C23.921 16.1103 24 16.3011 24 16.5ZM4.5 16.5C4.5 16.6989 4.42098 16.8897 4.28033 17.0303C4.13968 17.171 3.94891 17.25 3.75 17.25H0.75C0.551088 17.25 0.360322 17.171 0.21967 17.0303C0.0790176 16.8897 0 16.6989 0 16.5C0 16.3011 0.0790176 16.1103 0.21967 15.9697C0.360322 15.829 0.551088 15.75 0.75 15.75H3.75C3.94891 15.75 4.13968 15.829 4.28033 15.9697C4.42098 16.1103 4.5 16.3011 4.5 16.5ZM20.4855 8.0145C20.6261 8.15515 20.7051 8.34588 20.7051 8.54475C20.7051 8.74362 20.6261 8.93435 20.4855 9.075L18.3645 11.196C18.2953 11.2676 18.2126 11.3248 18.1211 11.3641C18.0296 11.4034 17.9311 11.4241 17.8316 11.4249C17.732 11.4258 17.6332 11.4068 17.541 11.3691C17.4489 11.3314 17.3651 11.2757 17.2947 11.2053C17.2243 11.1349 17.1686 11.0511 17.1309 10.959C17.0932 10.8668 17.0742 10.768 17.0751 10.6684C17.0759 10.5689 17.0966 10.4704 17.1359 10.3789C17.1752 10.2874 17.2324 10.2047 17.304 10.1355L19.425 8.0145C19.5656 7.8739 19.7564 7.79491 19.9552 7.79491C20.1541 7.79491 20.3449 7.8739 20.4855 8.0145ZM6.696 11.196C6.55535 11.3366 6.36462 11.4156 6.16575 11.4156C5.96688 11.4156 5.77615 11.3366 5.6355 11.196L3.5145 9.075C3.37788 8.93355 3.30229 8.7441 3.30399 8.54745C3.3057 8.3508 3.38458 8.16269 3.52364 8.02364C3.66269 7.88458 3.8508 7.8057 4.04745 7.80399C4.2441 7.80229 4.43355 7.87788 4.575 8.0145L6.696 10.1355C6.8366 10.2761 6.91559 10.4669 6.91559 10.6657C6.91559 10.8646 6.8366 11.0554 6.696 11.196Z" fill="black"/>
</svg>
