<svg width="24" height="24" viewBox="0 0 24 24" fill="none" xmlns="http://www.w3.org/2000/svg">
<path fill-rule="evenodd" clip-rule="evenodd" d="M7.467 1.28245C7.44192 1.18431 7.39722 1.09227 7.33561 1.01188C7.27399 0.931489 7.19672 0.864413 7.10847 0.814697C7.02022 0.764981 6.92282 0.733656 6.82213 0.722612C6.72145 0.711567 6.61957 0.721032 6.52264 0.750435C6.42571 0.779838 6.33574 0.828569 6.25816 0.893691C6.18058 0.958812 6.11699 1.03897 6.07124 1.12934C6.02548 1.21971 5.9985 1.3184 5.99193 1.41948C5.98536 1.52056 5.99933 1.62192 6.033 1.71745L6.648 3.74545C5.26916 5.14651 4.49749 7.03419 4.5 8.99995H19.5C19.5025 7.03419 18.7308 5.14651 17.352 3.74545L17.967 1.71745C18.0007 1.62192 18.0146 1.52056 18.0081 1.41948C18.0015 1.3184 17.9745 1.21971 17.9288 1.12934C17.883 1.03897 17.8194 0.958812 17.7418 0.893691C17.6643 0.828569 17.5743 0.779838 17.4774 0.750435C17.3804 0.721032 17.2786 0.711567 17.1779 0.722612C17.0772 0.733656 16.9798 0.764981 16.8915 0.814697C16.8033 0.864413 16.726 0.931489 16.6644 1.01188C16.6028 1.09227 16.5581 1.18431 16.533 1.28245L16.0965 2.71645C14.8787 1.92053 13.4549 1.49771 12 1.49995C10.5452 1.4978 9.12137 1.92061 7.9035 2.71645L7.4685 1.28245H7.467ZM19.5 8.99995V10.4999H12.75V23.9624C14.6 23.7765 16.3149 22.9101 17.5622 21.5312C18.8094 20.1523 19.5 18.3592 19.5 16.4999H20.25C20.4489 16.4999 20.6397 16.579 20.7803 16.7196C20.921 16.8603 21 17.051 21 17.2499V17.9999C21 18.1989 21.079 18.3896 21.2197 18.5303C21.3603 18.6709 21.5511 18.7499 21.75 18.7499C21.9489 18.7499 22.1397 18.6709 22.2803 18.5303C22.421 18.3896 22.5 18.1989 22.5 17.9999V17.2499C22.5 16.6532 22.2629 16.0809 21.841 15.659C21.419 15.237 20.8467 14.9999 20.25 14.9999H19.5V13.4999H21.75C21.9489 13.4999 22.1397 13.4209 22.2803 13.2803C22.421 13.1396 22.5 12.9489 22.5 12.7499C22.5 12.551 22.421 12.3603 22.2803 12.2196C22.1397 12.079 21.9489 11.9999 21.75 11.9999H19.5V10.4999H20.25C20.8467 10.4999 21.419 10.2629 21.841 9.84094C22.2629 9.41898 22.5 8.84668 22.5 8.24995V7.49995C22.5 7.30103 22.421 7.11027 22.2803 6.96962C22.1397 6.82896 21.9489 6.74995 21.75 6.74995C21.5511 6.74995 21.3603 6.82896 21.2197 6.96962C21.079 7.11027 21 7.30103 21 7.49995V8.24995C21 8.44886 20.921 8.63962 20.7803 8.78028C20.6397 8.92093 20.4489 8.99995 20.25 8.99995H19.5ZM11.25 23.9624V10.4999H4.5V8.99995H3.75C3.55109 8.99995 3.36032 8.92093 3.21967 8.78028C3.07902 8.63962 3 8.44886 3 8.24995V7.49995C3 7.30103 2.92098 7.11027 2.78033 6.96962C2.63968 6.82896 2.44891 6.74995 2.25 6.74995C2.05109 6.74995 1.86032 6.82896 1.71967 6.96962C1.57902 7.11027 1.5 7.30103 1.5 7.49995V8.24995C1.5 8.84668 1.73705 9.41898 2.15901 9.84094C2.58097 10.2629 3.15326 10.4999 3.75 10.4999H4.5V11.9999H2.25C2.05109 11.9999 1.86032 12.079 1.71967 12.2196C1.57902 12.3603 1.5 12.551 1.5 12.7499C1.5 12.9489 1.57902 13.1396 1.71967 13.2803C1.86032 13.4209 2.05109 13.4999 2.25 13.4999H4.5V14.9999H3.75C3.15326 14.9999 2.58097 15.237 2.15901 15.659C1.73705 16.0809 1.5 16.6532 1.5 17.2499V17.9999C1.5 18.1989 1.57902 18.3896 1.71967 18.5303C1.86032 18.6709 2.05109 18.7499 2.25 18.7499C2.44891 18.7499 2.63968 18.6709 2.78033 18.5303C2.92098 18.3896 3 18.1989 3 17.9999V17.2499C3 17.051 3.07902 16.8603 3.21967 16.7196C3.36032 16.579 3.55109 16.4999 3.75 16.4999H4.5C4.49998 18.3592 5.19058 20.1523 6.43782 21.5312C7.68506 22.9101 9.40003 23.7765 11.25 23.9624Z" fill="black"/>
</svg>
