<svg width="24" height="24" viewBox="0 0 24 24" fill="none" xmlns="http://www.w3.org/2000/svg">
<g clip-path="url(#clip0_1315_494)">
<path fill-rule="evenodd" clip-rule="evenodd" d="M22.1445 0.115253C22.2531 0.182445 22.3428 0.276272 22.405 0.387838C22.4673 0.499404 22.4999 0.625013 22.5 0.752753V23.2528C22.5 23.4517 22.421 23.6424 22.2803 23.7831C22.1397 23.9237 21.9489 24.0028 21.75 24.0028H17.25C17.0511 24.0028 16.8603 23.9237 16.7197 23.7831C16.579 23.6424 16.5 23.4517 16.5 23.2528V21.0028H15V23.2528C15 23.4517 14.921 23.6424 14.7803 23.7831C14.6397 23.9237 14.4489 24.0028 14.25 24.0028H0.75C0.551088 24.0028 0.360322 23.9237 0.21967 23.7831C0.0790176 23.6424 0 23.4517 0 23.2528V15.0028C0.00011947 14.8454 0.0497221 14.6921 0.141787 14.5645C0.233853 14.4369 0.363717 14.3415 0.513 14.2918L9 11.4628V6.75275C9 6.61358 9.03873 6.47716 9.11185 6.35875C9.18496 6.24033 9.28958 6.1446 9.414 6.08225L21.414 0.0822533C21.5285 0.0249621 21.6557 -0.00208242 21.7835 0.00369391C21.9114 0.00947024 22.0357 0.0478752 22.1445 0.115253ZM9 13.0438L1.5 15.5428V22.5028H9V13.0438ZM10.5 22.5028H13.5V20.2528C13.5 20.0538 13.579 19.8631 13.7197 19.7224C13.8603 19.5818 14.0511 19.5028 14.25 19.5028H17.25C17.4489 19.5028 17.6397 19.5818 17.7803 19.7224C17.921 19.8631 18 20.0538 18 20.2528V22.5028H21V1.96625L10.5 7.21625V22.5028Z" fill="black"/>
<path d="M3 16.5H4.5V18H3V16.5ZM6 16.5H7.5V18H6V16.5ZM3 19.5H4.5V21H3V19.5ZM6 19.5H7.5V21H6V19.5ZM12 13.5H13.5V15H12V13.5ZM15 13.5H16.5V15H15V13.5ZM12 16.5H13.5V18H12V16.5ZM15 16.5H16.5V18H15V16.5ZM18 13.5H19.5V15H18V13.5ZM18 16.5H19.5V18H18V16.5ZM12 10.5H13.5V12H12V10.5ZM15 10.5H16.5V12H15V10.5ZM18 10.5H19.5V12H18V10.5ZM12 7.5H13.5V9H12V7.5ZM15 7.5H16.5V9H15V7.5ZM18 7.5H19.5V9H18V7.5ZM18 4.5H19.5V6H18V4.5Z" fill="black"/>
</g>
<defs>
<clipPath id="clip0_1315_494">
<rect width="24" height="24" fill="white"/>
</clipPath>
</defs>
</svg>
