<svg width="24" height="24" viewBox="0 0 24 24" fill="none" xmlns="http://www.w3.org/2000/svg">
<path fill-rule="evenodd" clip-rule="evenodd" d="M5.25 0C5.44891 0 5.63968 0.0790176 5.78033 0.21967C5.92098 0.360322 6 0.551088 6 0.75V1.5H18V0.75C18 0.551088 18.079 0.360322 18.2197 0.21967C18.3603 0.0790176 18.5511 0 18.75 0C18.9489 0 19.1397 0.0790176 19.2803 0.21967C19.421 0.360322 19.5 0.551088 19.5 0.75V1.5H21C21.7956 1.5 22.5587 1.81607 23.1213 2.37868C23.6839 2.94129 24 3.70435 24 4.5V21C24 21.7956 23.6839 22.5587 23.1213 23.1213C22.5587 23.6839 21.7956 24 21 24H3C2.20435 24 1.44129 23.6839 0.87868 23.1213C0.316071 22.5587 0 21.7956 0 21V4.5C0 3.70435 0.316071 2.94129 0.87868 2.37868C1.44129 1.81607 2.20435 1.5 3 1.5H4.5V0.75C4.5 0.551088 4.57902 0.360322 4.71967 0.21967C4.86032 0.0790176 5.05109 0 5.25 0V0ZM3 3C2.60218 3 2.22064 3.15804 1.93934 3.43934C1.65804 3.72064 1.5 4.10218 1.5 4.5V21C1.5 21.3978 1.65804 21.7794 1.93934 22.0607C2.22064 22.342 2.60218 22.5 3 22.5H21C21.3978 22.5 21.7794 22.342 22.0607 22.0607C22.342 21.7794 22.5 21.3978 22.5 21V4.5C22.5 4.10218 22.342 3.72064 22.0607 3.43934C21.7794 3.15804 21.3978 3 21 3H3Z" fill="black"/>
<path d="M3.75 6C3.75 5.80109 3.82902 5.61032 3.96967 5.46967C4.11032 5.32902 4.30109 5.25 4.5 5.25H19.5C19.6989 5.25 19.8897 5.32902 20.0303 5.46967C20.171 5.61032 20.25 5.80109 20.25 6V7.5C20.25 7.69891 20.171 7.88968 20.0303 8.03033C19.8897 8.17098 19.6989 8.25 19.5 8.25H4.5C4.30109 8.25 4.11032 8.17098 3.96967 8.03033C3.82902 7.88968 3.75 7.69891 3.75 7.5V6Z" fill="black"/>
<path fill-rule="evenodd" clip-rule="evenodd" d="M9.21888 12.2189C9.28854 12.149 9.37131 12.0936 9.46242 12.0558C9.55354 12.018 9.65122 11.9985 9.74988 11.9985C9.84853 11.9985 9.94621 12.018 10.0373 12.0558C10.1284 12.0936 10.2112 12.149 10.2809 12.2189L11.9999 13.9394L13.7189 12.2189C13.8597 12.078 14.0507 11.9989 14.2499 11.9989C14.449 11.9989 14.64 12.078 14.7809 12.2189C14.9217 12.3597 15.0008 12.5507 15.0008 12.7499C15.0008 12.949 14.9217 13.14 14.7809 13.2809L13.0604 14.9999L14.7809 16.7189C14.9217 16.8597 15.0008 17.0507 15.0008 17.2499C15.0008 17.449 14.9217 17.64 14.7809 17.7809C14.64 17.9217 14.449 18.0008 14.2499 18.0008C14.0507 18.0008 13.8597 17.9217 13.7189 17.7809L11.9999 16.0604L10.2809 17.7809C10.14 17.9217 9.94904 18.0008 9.74988 18.0008C9.55071 18.0008 9.35971 17.9217 9.21888 17.7809C9.07805 17.64 8.99893 17.449 8.99893 17.2499C8.99893 17.0507 9.07805 16.8597 9.21888 16.7189L10.9394 14.9999L9.21888 13.2809C9.14903 13.2112 9.09362 13.1284 9.05581 13.0373C9.018 12.9462 8.99854 12.8485 8.99854 12.7499C8.99854 12.6512 9.018 12.5535 9.05581 12.4624C9.09362 12.3713 9.14903 12.2885 9.21888 12.2189Z" fill="black"/>
</svg>
