<svg width="24" height="24" viewBox="0 0 24 24" fill="none" xmlns="http://www.w3.org/2000/svg">
<path fill-rule="evenodd" clip-rule="evenodd" d="M5.25 0C5.44891 0 5.63968 0.0790176 5.78033 0.21967C5.92098 0.360322 6 0.551088 6 0.75V1.5H18V0.75C18 0.551088 18.079 0.360322 18.2197 0.21967C18.3603 0.0790176 18.5511 0 18.75 0C18.9489 0 19.1397 0.0790176 19.2803 0.21967C19.421 0.360322 19.5 0.551088 19.5 0.75V1.5H21C21.7956 1.5 22.5587 1.81607 23.1213 2.37868C23.6839 2.94129 24 3.70435 24 4.5V21C24 21.7956 23.6839 22.5587 23.1213 23.1213C22.5587 23.6839 21.7956 24 21 24H3C2.20435 24 1.44129 23.6839 0.87868 23.1213C0.316071 22.5587 0 21.7956 0 21V4.5C0 3.70435 0.316071 2.94129 0.87868 2.37868C1.44129 1.81607 2.20435 1.5 3 1.5H4.5V0.75C4.5 0.551088 4.57902 0.360322 4.71967 0.21967C4.86032 0.0790176 5.05109 0 5.25 0V0ZM3 5.25C3 4.836 3.366 4.5 3.8175 4.5H20.1825C20.6325 4.5 21 4.836 21 5.25V6.75C21 7.164 20.634 7.5 20.181 7.5H3.8175C3.3675 7.5 3 7.164 3 6.75V5.25ZM16.8225 11.7825C16.7382 11.7835 16.6544 11.7677 16.5762 11.7361C16.498 11.7045 16.4269 11.6578 16.3669 11.5985C16.3069 11.5392 16.2592 11.4685 16.2267 11.3907C16.1942 11.3129 16.1775 11.2294 16.1775 11.145C16.1775 10.782 16.4655 10.5 16.8225 10.5C16.9093 10.4958 16.9961 10.5093 17.0775 10.5396C17.159 10.5699 17.2335 10.6165 17.2964 10.6764C17.3593 10.7364 17.4094 10.8085 17.4436 10.8884C17.4779 10.9683 17.4955 11.0543 17.4955 11.1412C17.4955 11.2282 17.4779 11.3142 17.4436 11.3941C17.4094 11.474 17.3593 11.5461 17.2964 11.6061C17.2335 11.666 17.159 11.7126 17.0775 11.7429C16.9961 11.7732 16.9093 11.7867 16.8225 11.7825ZM17.3265 12.627V18.7845H16.3185V12.627H17.3265ZM7.026 18.7845V15.3345H10.4175V14.4195H7.026V11.7015H10.722V10.7865H6V18.7845H7.026ZM11.97 18.7845H12.984V14.97C12.984 14.139 13.3245 13.4595 14.4135 13.4595C14.601 13.4595 14.8005 13.4655 14.907 13.482V12.5625C14.7809 12.5435 14.6535 12.5335 14.526 12.5325C13.653 12.5325 13.1895 13.0125 13.008 13.383H12.978V12.627H11.97V18.7845Z" fill="black"/>
</svg>
