<svg width="24" height="24" viewBox="0 0 24 24" fill="none" xmlns="http://www.w3.org/2000/svg">
<path fill-rule="evenodd" clip-rule="evenodd" d="M5.25 0C5.44891 0 5.63968 0.0790176 5.78033 0.21967C5.92098 0.360322 6 0.551088 6 0.75V1.5H18V0.75C18 0.551088 18.079 0.360322 18.2197 0.21967C18.3603 0.0790176 18.5511 0 18.75 0C18.9489 0 19.1397 0.0790176 19.2803 0.21967C19.421 0.360322 19.5 0.551088 19.5 0.75V1.5H21C21.7956 1.5 22.5587 1.81607 23.1213 2.37868C23.6839 2.94129 24 3.70435 24 4.5V21C24 21.7956 23.6839 22.5587 23.1213 23.1213C22.5587 23.6839 21.7956 24 21 24H3C2.20435 24 1.44129 23.6839 0.87868 23.1213C0.316071 22.5587 0 21.7956 0 21V4.5C0 3.70435 0.316071 2.94129 0.87868 2.37868C1.44129 1.81607 2.20435 1.5 3 1.5H4.5V0.75C4.5 0.551088 4.57902 0.360322 4.71967 0.21967C4.86032 0.0790176 5.05109 0 5.25 0V0ZM1.5 6V21C1.5 21.3978 1.65804 21.7794 1.93934 22.0607C2.22064 22.342 2.60218 22.5 3 22.5H21C21.3978 22.5 21.7794 22.342 22.0607 22.0607C22.342 21.7794 22.5 21.3978 22.5 21V6H1.5Z" fill="black"/>
<path fill-rule="evenodd" clip-rule="evenodd" d="M9.21888 10.7189C9.28854 10.649 9.37131 10.5936 9.46242 10.5558C9.55354 10.518 9.65122 10.4985 9.74988 10.4985C9.84853 10.4985 9.94621 10.518 10.0373 10.5558C10.1284 10.5936 10.2112 10.649 10.2809 10.7189L11.9999 12.4394L13.7189 10.7189C13.8597 10.5781 14.0507 10.4989 14.2499 10.4989C14.449 10.4989 14.64 10.5781 14.7809 10.7189C14.9217 10.8597 15.0008 11.0507 15.0008 11.2499C15.0008 11.449 14.9217 11.6401 14.7809 11.7809L13.0604 13.4999L14.7809 15.2189C14.9217 15.3597 15.0008 15.5507 15.0008 15.7499C15.0008 15.949 14.9217 16.1401 14.7809 16.2809C14.64 16.4217 14.449 16.5008 14.2499 16.5008C14.0507 16.5008 13.8597 16.4217 13.7189 16.2809L11.9999 14.5604L10.2809 16.2809C10.14 16.4217 9.94904 16.5008 9.74988 16.5008C9.55071 16.5008 9.35971 16.4217 9.21888 16.2809C9.07805 16.1401 8.99893 15.949 8.99893 15.7499C8.99893 15.5507 9.07805 15.3597 9.21888 15.2189L10.9394 13.4999L9.21888 11.7809C9.14903 11.7112 9.09362 11.6285 9.05581 11.5373C9.018 11.4462 8.99854 11.3485 8.99854 11.2499C8.99854 11.1512 9.018 11.0536 9.05581 10.9624C9.09362 10.8713 9.14903 10.7886 9.21888 10.7189Z" fill="black"/>
</svg>
