<svg width="24" height="24" viewBox="0 0 24 24" fill="none" xmlns="http://www.w3.org/2000/svg">
<path fill-rule="evenodd" clip-rule="evenodd" d="M0 12C0 11.2044 0.316071 10.4413 0.87868 9.87868C1.44129 9.31607 2.20435 9 3 9H14.25C14.9776 8.99991 15.6805 9.26429 16.2277 9.74389C16.7749 10.2235 17.1292 10.8856 17.2245 11.607L21.8895 9.534C22.1178 9.43226 22.368 9.3892 22.6172 9.40873C22.8664 9.42826 23.1068 9.50977 23.3165 9.64584C23.5262 9.78192 23.6986 9.96824 23.8179 10.1879C23.9373 10.4075 23.9999 10.6535 24 10.9035V22.0965C23.9998 22.3463 23.9372 22.5921 23.8179 22.8115C23.6986 23.031 23.5264 23.2172 23.3169 23.3532C23.1074 23.4893 22.8673 23.5708 22.6183 23.5905C22.3693 23.6102 22.1193 23.5674 21.891 23.466L17.2245 21.393C17.1292 22.1144 16.7749 22.7765 16.2277 23.2561C15.6805 23.7357 14.9776 24.0001 14.25 24H3C2.20435 24 1.44129 23.6839 0.87868 23.1213C0.316071 22.5587 0 21.7956 0 21V12Z" fill="black"/>
<path d="M4.5 9C6.98528 9 9 6.98528 9 4.5C9 2.01472 6.98528 0 4.5 0C2.01472 0 0 2.01472 0 4.5C0 6.98528 2.01472 9 4.5 9Z" fill="black"/>
<path d="M13.5 9C15.9853 9 18 6.98528 18 4.5C18 2.01472 15.9853 0 13.5 0C11.0147 0 9 2.01472 9 4.5C9 6.98528 11.0147 9 13.5 9Z" fill="black"/>
</svg>
