<svg width="24" height="24" viewBox="0 0 24 24" fill="none" xmlns="http://www.w3.org/2000/svg">
<g clip-path="url(#clip0_1315_690)">
<path fill-rule="evenodd" clip-rule="evenodd" d="M21.75 4.5H2.25C2.05109 4.5 1.86032 4.57902 1.71967 4.71967C1.57902 4.86032 1.5 5.05109 1.5 5.25V18.75C1.5 18.7695 1.5 18.7905 1.503 18.81V18L5.472 14.469C5.5946 14.3468 5.75567 14.2709 5.92791 14.2539C6.10014 14.237 6.27294 14.2801 6.417 14.376L10.407 17.0355L15.972 11.4705C16.0832 11.3592 16.2267 11.2856 16.382 11.2603C16.5373 11.235 16.6967 11.2592 16.8375 11.3295L22.5 14.2485V5.25C22.5 5.05109 22.421 4.86032 22.2803 4.71967C22.1397 4.57902 21.9489 4.5 21.75 4.5ZM2.25 3C1.65326 3 1.08097 3.23705 0.65901 3.65901C0.237053 4.08097 0 4.65326 0 5.25L0 18.75C0 19.3467 0.237053 19.919 0.65901 20.341C1.08097 20.7629 1.65326 21 2.25 21H21.75C22.3467 21 22.919 20.7629 23.341 20.341C23.7629 19.919 24 19.3467 24 18.75V5.25C24 4.65326 23.7629 4.08097 23.341 3.65901C22.919 3.23705 22.3467 3 21.75 3H2.25ZM9.003 8.25C9.003 8.84674 8.76595 9.41903 8.34399 9.84099C7.92203 10.2629 7.34974 10.5 6.753 10.5C6.15626 10.5 5.58397 10.2629 5.16201 9.84099C4.74005 9.41903 4.503 8.84674 4.503 8.25C4.503 7.65326 4.74005 7.08097 5.16201 6.65901C5.58397 6.23705 6.15626 6 6.753 6C7.34974 6 7.92203 6.23705 8.34399 6.65901C8.76595 7.08097 9.003 7.65326 9.003 8.25Z" fill="black"/>
</g>
<defs>
<clipPath id="clip0_1315_690">
<rect width="24" height="24" fill="white"/>
</clipPath>
</defs>
</svg>
