<svg width="24" height="24" viewBox="0 0 24 24" fill="none" xmlns="http://www.w3.org/2000/svg">
<g clip-path="url(#clip0_1315_692)">
<path fill-rule="evenodd" clip-rule="evenodd" d="M21.75 4.5H2.25C2.05109 4.5 1.86032 4.57902 1.71967 4.71967C1.57902 4.86032 1.5 5.05109 1.5 5.25V18.75C1.5 18.9489 1.57902 19.1397 1.71967 19.2803C1.86032 19.421 2.05109 19.5 2.25 19.5H21.75C21.9489 19.5 22.1397 19.421 22.2803 19.2803C22.421 19.1397 22.5 18.9489 22.5 18.75V5.25C22.5 5.05109 22.421 4.86032 22.2803 4.71967C22.1397 4.57902 21.9489 4.5 21.75 4.5ZM2.25 3C1.65326 3 1.08097 3.23705 0.65901 3.65901C0.237053 4.08097 0 4.65326 0 5.25L0 18.75C0 19.3467 0.237053 19.919 0.65901 20.341C1.08097 20.7629 1.65326 21 2.25 21H21.75C22.3467 21 22.919 20.7629 23.341 20.341C23.7629 19.919 24 19.3467 24 18.75V5.25C24 4.65326 23.7629 4.08097 23.341 3.65901C22.919 3.23705 22.3467 3 21.75 3H2.25Z" fill="black"/>
<path fill-rule="evenodd" clip-rule="evenodd" d="M7.5 12C7.5 11.8011 7.57902 11.6103 7.71967 11.4697C7.86032 11.329 8.05109 11.25 8.25 11.25H18.75C18.9489 11.25 19.1397 11.329 19.2803 11.4697C19.421 11.6103 19.5 11.8011 19.5 12C19.5 12.1989 19.421 12.3897 19.2803 12.5303C19.1397 12.671 18.9489 12.75 18.75 12.75H8.25C8.05109 12.75 7.86032 12.671 7.71967 12.5303C7.57902 12.3897 7.5 12.1989 7.5 12ZM7.5 8.25C7.5 8.05109 7.57902 7.86032 7.71967 7.71967C7.86032 7.57902 8.05109 7.5 8.25 7.5H18.75C18.9489 7.5 19.1397 7.57902 19.2803 7.71967C19.421 7.86032 19.5 8.05109 19.5 8.25C19.5 8.44891 19.421 8.63968 19.2803 8.78033C19.1397 8.92098 18.9489 9 18.75 9H8.25C8.05109 9 7.86032 8.92098 7.71967 8.78033C7.57902 8.63968 7.5 8.44891 7.5 8.25ZM7.5 15.75C7.5 15.5511 7.57902 15.3603 7.71967 15.2197C7.86032 15.079 8.05109 15 8.25 15H18.75C18.9489 15 19.1397 15.079 19.2803 15.2197C19.421 15.3603 19.5 15.5511 19.5 15.75C19.5 15.9489 19.421 16.1397 19.2803 16.2803C19.1397 16.421 18.9489 16.5 18.75 16.5H8.25C8.05109 16.5 7.86032 16.421 7.71967 16.2803C7.57902 16.1397 7.5 15.9489 7.5 15.75Z" fill="black"/>
<path d="M5.25 9C5.66421 9 6 8.66421 6 8.25C6 7.83579 5.66421 7.5 5.25 7.5C4.83579 7.5 4.5 7.83579 4.5 8.25C4.5 8.66421 4.83579 9 5.25 9Z" fill="black"/>
<path d="M5.25 12.75C5.66421 12.75 6 12.4142 6 12C6 11.5858 5.66421 11.25 5.25 11.25C4.83579 11.25 4.5 11.5858 4.5 12C4.5 12.4142 4.83579 12.75 5.25 12.75Z" fill="black"/>
<path d="M5.25 16.5C5.66421 16.5 6 16.1642 6 15.75C6 15.3358 5.66421 15 5.25 15C4.83579 15 4.5 15.3358 4.5 15.75C4.5 16.1642 4.83579 16.5 5.25 16.5Z" fill="black"/>
</g>
<defs>
<clipPath id="clip0_1315_692">
<rect width="24" height="24" fill="white"/>
</clipPath>
</defs>
</svg>
