<svg width="24" height="24" viewBox="0 0 24 24" fill="none" xmlns="http://www.w3.org/2000/svg">
<g clip-path="url(#clip0_1315_732)">
<path fill-rule="evenodd" clip-rule="evenodd" d="M21 1.5H3C2.60218 1.5 2.22064 1.65804 1.93934 1.93934C1.65804 2.22064 1.5 2.60218 1.5 3V21C1.5 21.3978 1.65804 21.7794 1.93934 22.0607C2.22064 22.342 2.60218 22.5 3 22.5H21C21.3978 22.5 21.7794 22.342 22.0607 22.0607C22.342 21.7794 22.5 21.3978 22.5 21V3C22.5 2.60218 22.342 2.22064 22.0607 1.93934C21.7794 1.65804 21.3978 1.5 21 1.5ZM3 0C2.20435 0 1.44129 0.316071 0.87868 0.87868C0.316071 1.44129 0 2.20435 0 3L0 21C0 21.7956 0.316071 22.5587 0.87868 23.1213C1.44129 23.6839 2.20435 24 3 24H21C21.7956 24 22.5587 23.6839 23.1213 23.1213C23.6839 22.5587 24 21.7956 24 21V3C24 2.20435 23.6839 1.44129 23.1213 0.87868C22.5587 0.316071 21.7956 0 21 0L3 0Z" fill="black"/>
<path fill-rule="evenodd" clip-rule="evenodd" d="M5.31603 16.0574C5.37528 16.1892 5.47136 16.3011 5.59271 16.3796C5.71406 16.4581 5.8555 16.4998 6.00003 16.4999H18C18.1446 16.4999 18.2861 16.4582 18.4075 16.3796C18.5289 16.3011 18.625 16.1892 18.6843 16.0574C18.7436 15.9255 18.7635 15.7793 18.7416 15.6364C18.7197 15.4935 18.657 15.36 18.561 15.2519L12.561 8.50186C12.4907 8.42255 12.4043 8.35907 12.3076 8.31559C12.2109 8.27211 12.106 8.24963 12 8.24963C11.894 8.24963 11.7892 8.27211 11.6925 8.31559C11.5958 8.35907 11.5094 8.42255 11.439 8.50186L5.43903 15.2519C5.34307 15.36 5.28042 15.4935 5.25859 15.6364C5.23677 15.7794 5.25672 15.9255 5.31603 16.0574Z" fill="black"/>
</g>
<defs>
<clipPath id="clip0_1315_732">
<rect width="24" height="24" fill="white"/>
</clipPath>
</defs>
</svg>
