<svg width="24" height="24" viewBox="0 0 24 24" fill="none" xmlns="http://www.w3.org/2000/svg">
<path fill-rule="evenodd" clip-rule="evenodd" d="M0 2.25C0 2.05109 0.0790176 1.86032 0.21967 1.71967C0.360322 1.57902 0.551088 1.5 0.75 1.5H3C3.1673 1.50005 3.32978 1.55603 3.4616 1.65904C3.59342 1.76205 3.68701 1.90618 3.7275 2.0685L4.335 4.5H21.75C21.8601 4.5001 21.9689 4.52445 22.0685 4.57133C22.1682 4.6182 22.2563 4.68644 22.3266 4.77121C22.3969 4.85597 22.4477 4.95518 22.4753 5.06178C22.5029 5.16838 22.5068 5.27976 22.4865 5.388L20.2365 17.388C20.2043 17.5599 20.1131 17.7151 19.9786 17.8268C19.8442 17.9386 19.6749 17.9998 19.5 18H6C5.82515 17.9998 5.65585 17.9386 5.52137 17.8268C5.38688 17.7151 5.29567 17.5599 5.2635 17.388L3.015 5.4105L2.415 3H0.75C0.551088 3 0.360322 2.92098 0.21967 2.78033C0.0790176 2.63968 0 2.44891 0 2.25ZM4.653 6L6.6225 16.5H18.8775L20.847 6H4.653ZM7.5 18C6.70435 18 5.94129 18.3161 5.37868 18.8787C4.81607 19.4413 4.5 20.2044 4.5 21C4.5 21.7956 4.81607 22.5587 5.37868 23.1213C5.94129 23.6839 6.70435 24 7.5 24C8.29565 24 9.05871 23.6839 9.62132 23.1213C10.1839 22.5587 10.5 21.7956 10.5 21C10.5 20.2044 10.1839 19.4413 9.62132 18.8787C9.05871 18.3161 8.29565 18 7.5 18ZM18 18C17.2044 18 16.4413 18.3161 15.8787 18.8787C15.3161 19.4413 15 20.2044 15 21C15 21.7956 15.3161 22.5587 15.8787 23.1213C16.4413 23.6839 17.2044 24 18 24C18.7957 24 19.5587 23.6839 20.1213 23.1213C20.6839 22.5587 21 21.7956 21 21C21 20.2044 20.6839 19.4413 20.1213 18.8787C19.5587 18.3161 18.7957 18 18 18ZM7.5 19.5C7.10218 19.5 6.72065 19.658 6.43934 19.9393C6.15804 20.2206 6 20.6022 6 21C6 21.3978 6.15804 21.7794 6.43934 22.0607C6.72065 22.342 7.10218 22.5 7.5 22.5C7.89783 22.5 8.27936 22.342 8.56066 22.0607C8.84196 21.7794 9 21.3978 9 21C9 20.6022 8.84196 20.2206 8.56066 19.9393C8.27936 19.658 7.89783 19.5 7.5 19.5ZM18 19.5C17.6022 19.5 17.2206 19.658 16.9393 19.9393C16.658 20.2206 16.5 20.6022 16.5 21C16.5 21.3978 16.658 21.7794 16.9393 22.0607C17.2206 22.342 17.6022 22.5 18 22.5C18.3978 22.5 18.7794 22.342 19.0607 22.0607C19.342 21.7794 19.5 21.3978 19.5 21C19.5 20.6022 19.342 20.2206 19.0607 19.9393C18.7794 19.658 18.3978 19.5 18 19.5Z" fill="black"/>
<path fill-rule="evenodd" clip-rule="evenodd" d="M9.96888 8.46888C10.0385 8.39903 10.1213 8.34362 10.2124 8.30581C10.3035 8.268 10.4012 8.24854 10.4999 8.24854C10.5985 8.24854 10.6962 8.268 10.7873 8.30581C10.8784 8.34362 10.9612 8.39903 11.0309 8.46888L12.7499 10.1894L14.4689 8.46888C14.6097 8.32805 14.8007 8.24893 14.9999 8.24893C15.199 8.24893 15.39 8.32805 15.5309 8.46888C15.6717 8.60971 15.7508 8.80071 15.7508 8.99988C15.7508 9.19904 15.6717 9.39005 15.5309 9.53088L13.8104 11.2499L15.5309 12.9689C15.6717 13.1097 15.7508 13.3007 15.7508 13.4999C15.7508 13.699 15.6717 13.89 15.5309 14.0309C15.39 14.1717 15.199 14.2508 14.9999 14.2508C14.8007 14.2508 14.6097 14.1717 14.4689 14.0309L12.7499 12.3104L11.0309 14.0309C10.9611 14.1006 10.8784 14.1559 10.7873 14.1937C10.6961 14.2314 10.5985 14.2508 10.4999 14.2508C10.4013 14.2508 10.3036 14.2314 10.2125 14.1937C10.1214 14.1559 10.0386 14.1006 9.96888 14.0309C9.89914 13.9611 9.84383 13.8784 9.80609 13.7873C9.76835 13.6961 9.74893 13.5985 9.74893 13.4999C9.74893 13.4013 9.76835 13.3036 9.80609 13.2125C9.84383 13.1214 9.89914 13.0386 9.96888 12.9689L11.6894 11.2499L9.96888 9.53088C9.89903 9.46121 9.84362 9.37844 9.80581 9.28733C9.768 9.19621 9.74854 9.09853 9.74854 8.99988C9.74854 8.90122 9.768 8.80354 9.80581 8.71242C9.84362 8.62131 9.89903 8.53854 9.96888 8.46888Z" fill="black"/>
</svg>
