<svg width="24" height="24" viewBox="0 0 24 24" fill="none" xmlns="http://www.w3.org/2000/svg">
<path fill-rule="evenodd" clip-rule="evenodd" d="M0 2.25C0 2.05109 0.0790176 1.86032 0.21967 1.71967C0.360322 1.57902 0.551088 1.5 0.75 1.5H3C3.1673 1.50005 3.32978 1.55603 3.4616 1.65904C3.59342 1.76205 3.68701 1.90618 3.7275 2.0685L4.335 4.5H21.75C21.8601 4.5001 21.9689 4.52445 22.0685 4.57133C22.1682 4.6182 22.2563 4.68644 22.3266 4.77121C22.3969 4.85597 22.4477 4.95518 22.4753 5.06178C22.5029 5.16838 22.5068 5.27976 22.4865 5.388L20.2365 17.388C20.2043 17.5599 20.1131 17.7151 19.9786 17.8268C19.8442 17.9386 19.6749 17.9998 19.5 18H6C5.82515 17.9998 5.65585 17.9386 5.52137 17.8268C5.38688 17.7151 5.29567 17.5599 5.2635 17.388L3.015 5.4105L2.415 3H0.75C0.551088 3 0.360322 2.92098 0.21967 2.78033C0.0790176 2.63968 0 2.44891 0 2.25ZM4.653 6L6.6225 16.5H18.8775L20.847 6H4.653ZM7.5 18C6.70435 18 5.94129 18.3161 5.37868 18.8787C4.81607 19.4413 4.5 20.2044 4.5 21C4.5 21.7956 4.81607 22.5587 5.37868 23.1213C5.94129 23.6839 6.70435 24 7.5 24C8.29565 24 9.05871 23.6839 9.62132 23.1213C10.1839 22.5587 10.5 21.7956 10.5 21C10.5 20.2044 10.1839 19.4413 9.62132 18.8787C9.05871 18.3161 8.29565 18 7.5 18ZM18 18C17.2044 18 16.4413 18.3161 15.8787 18.8787C15.3161 19.4413 15 20.2044 15 21C15 21.7956 15.3161 22.5587 15.8787 23.1213C16.4413 23.6839 17.2044 24 18 24C18.7957 24 19.5587 23.6839 20.1213 23.1213C20.6839 22.5587 21 21.7956 21 21C21 20.2044 20.6839 19.4413 20.1213 18.8787C19.5587 18.3161 18.7957 18 18 18ZM7.5 19.5C7.10218 19.5 6.72065 19.658 6.43934 19.9393C6.15804 20.2206 6 20.6022 6 21C6 21.3978 6.15804 21.7794 6.43934 22.0607C6.72065 22.342 7.10218 22.5 7.5 22.5C7.89783 22.5 8.27936 22.342 8.56066 22.0607C8.84196 21.7794 9 21.3978 9 21C9 20.6022 8.84196 20.2206 8.56066 19.9393C8.27936 19.658 7.89783 19.5 7.5 19.5ZM18 19.5C17.6022 19.5 17.2206 19.658 16.9393 19.9393C16.658 20.2206 16.5 20.6022 16.5 21C16.5 21.3978 16.658 21.7794 16.9393 22.0607C17.2206 22.342 17.6022 22.5 18 22.5C18.3978 22.5 18.7794 22.342 19.0607 22.0607C19.342 21.7794 19.5 21.3978 19.5 21C19.5 20.6022 19.342 20.2206 19.0607 19.9393C18.7794 19.658 18.3978 19.5 18 19.5Z" fill="black"/>
<path fill-rule="evenodd" clip-rule="evenodd" d="M17.0312 8.46888C17.1011 8.53854 17.1565 8.62131 17.1943 8.71242C17.2321 8.80354 17.2516 8.90122 17.2516 8.99988C17.2516 9.09853 17.2321 9.19621 17.1943 9.28733C17.1565 9.37844 17.1011 9.46121 17.0312 9.53088L12.5312 14.0309C12.4615 14.1007 12.3788 14.1561 12.2877 14.1939C12.1965 14.2318 12.0989 14.2512 12.0002 14.2512C11.9016 14.2512 11.8039 14.2318 11.7128 14.1939C11.6216 14.1561 11.5389 14.1007 11.4692 14.0309L9.21922 11.7809C9.14948 11.7111 9.09417 11.6284 9.05643 11.5373C9.01869 11.4461 8.99927 11.3485 8.99927 11.2499C8.99927 11.1513 9.01869 11.0536 9.05643 10.9625C9.09417 10.8714 9.14948 10.7886 9.21922 10.7189C9.28895 10.6491 9.37173 10.5938 9.46284 10.5561C9.55395 10.5184 9.6516 10.4989 9.75022 10.4989C9.84883 10.4989 9.94648 10.5184 10.0376 10.5561C10.1287 10.5938 10.2115 10.6491 10.2812 10.7189L12.0002 12.4394L15.9692 8.46888C16.0389 8.39903 16.1216 8.34362 16.2128 8.30581C16.3039 8.268 16.4016 8.24854 16.5002 8.24854C16.5989 8.24854 16.6965 8.268 16.7877 8.30581C16.8788 8.34362 16.9615 8.39903 17.0312 8.46888Z" fill="black"/>
</svg>
