<svg width="24" height="24" viewBox="0 0 24 24" fill="none" xmlns="http://www.w3.org/2000/svg">
<g clip-path="url(#clip0_1315_767)">
<path d="M21 4.5H1.5C1.5 4.10218 1.65804 3.72064 1.93934 3.43934C2.22064 3.15804 2.60218 3 3 3H21C21.3978 3 21.7794 3.15804 22.0607 3.43934C22.342 3.72064 22.5 4.10218 22.5 4.5H21Z" fill="black"/>
<path fill-rule="evenodd" clip-rule="evenodd" d="M22.5 7.5H1.5V19.5H22.5V7.5ZM1.5 6C1.10218 6 0.720644 6.15804 0.43934 6.43934C0.158035 6.72064 0 7.10218 0 7.5L0 19.5C0 19.8978 0.158035 20.2794 0.43934 20.5607C0.720644 20.842 1.10218 21 1.5 21H22.5C22.8978 21 23.2794 20.842 23.5607 20.5607C23.842 20.2794 24 19.8978 24 19.5V7.5C24 7.10218 23.842 6.72064 23.5607 6.43934C23.2794 6.15804 22.8978 6 22.5 6H1.5Z" fill="black"/>
<path d="M19.5 7.5C19.5 8.29565 19.8161 9.05871 20.3787 9.62132C20.9413 10.1839 21.7044 10.5 22.5 10.5V7.5H19.5ZM4.5 7.5C4.5 8.29565 4.18393 9.05871 3.62132 9.62132C3.05871 10.1839 2.29565 10.5 1.5 10.5V7.5H4.5ZM19.5 19.5C19.5 18.7044 19.8161 17.9413 20.3787 17.3787C20.9413 16.8161 21.7044 16.5 22.5 16.5V19.5H19.5ZM4.5 19.5C4.5 18.7044 4.18393 17.9413 3.62132 17.3787C3.05871 16.8161 2.29565 16.5 1.5 16.5V19.5H4.5ZM15 13.5C15 14.2956 14.6839 15.0587 14.1213 15.6213C13.5587 16.1839 12.7956 16.5 12 16.5C11.2044 16.5 10.4413 16.1839 9.87868 15.6213C9.31607 15.0587 9 14.2956 9 13.5C9 12.7044 9.31607 11.9413 9.87868 11.3787C10.4413 10.8161 11.2044 10.5 12 10.5C12.7956 10.5 13.5587 10.8161 14.1213 11.3787C14.6839 11.9413 15 12.7044 15 13.5Z" fill="black"/>
</g>
<defs>
<clipPath id="clip0_1315_767">
<rect width="24" height="24" fill="white"/>
</clipPath>
</defs>
</svg>
