<svg width="24" height="24" viewBox="0 0 24 24" fill="none" xmlns="http://www.w3.org/2000/svg">
<path d="M11.4689 14.0309L5.78089 19.7189C5.67582 19.8237 5.6042 19.9573 5.57511 20.1028C5.54601 20.2484 5.56074 20.3992 5.61743 20.5364C5.67412 20.6735 5.77022 20.7908 5.89357 20.8733C6.01693 20.9558 6.16198 20.9999 6.31039 20.9999H17.6894C17.8379 21.0002 17.9832 20.9563 18.1068 20.8739C18.2304 20.7915 18.3267 20.6743 18.3836 20.5371C18.4404 20.3999 18.4553 20.2489 18.4262 20.1032C18.3972 19.9575 18.3255 19.8238 18.2204 19.7189L12.5309 14.0309C12.4612 13.961 12.3785 13.9056 12.2873 13.8678C12.1962 13.83 12.0985 13.8105 11.9999 13.8105C11.9012 13.8105 11.8036 13.83 11.7124 13.8678C11.6213 13.9056 11.5386 13.961 11.4689 14.0309Z" fill="black"/>
<path d="M17.121 16.5H21.75C21.9489 16.5 22.1397 16.421 22.2803 16.2803C22.421 16.1397 22.5 15.9489 22.5 15.75V5.25C22.5 5.05109 22.421 4.86032 22.2803 4.71967C22.1397 4.57902 21.9489 4.5 21.75 4.5H2.25C2.05109 4.5 1.86032 4.57902 1.71967 4.71967C1.57902 4.86032 1.5 5.05109 1.5 5.25V15.75C1.5 15.9489 1.57902 16.1397 1.71967 16.2803C1.86032 16.421 2.05109 16.5 2.25 16.5H6.879L5.379 18H2.25C1.65326 18 1.08097 17.7629 0.65901 17.341C0.237053 16.919 0 16.3467 0 15.75L0 5.25C0 4.65326 0.237053 4.08097 0.65901 3.65901C1.08097 3.23705 1.65326 3 2.25 3H21.75C22.3467 3 22.919 3.23705 23.341 3.65901C23.7629 4.08097 24 4.65326 24 5.25V15.75C24 16.3467 23.7629 16.919 23.341 17.341C22.919 17.7629 22.3467 18 21.75 18H18.621L17.121 16.5Z" fill="black"/>
</svg>
