<svg width="24" height="24" viewBox="0 0 24 24" fill="none" xmlns="http://www.w3.org/2000/svg">
<path fill-rule="evenodd" clip-rule="evenodd" d="M3 1.5H21C21.3978 1.5 21.7794 1.65804 22.0607 1.93934C22.342 2.22064 22.5 2.60218 22.5 3V20.379L19.5 17.379C18.9375 16.8164 18.1746 16.5002 17.379 16.5H3C2.60218 16.5 2.22064 16.342 1.93934 16.0607C1.65804 15.7794 1.5 15.3978 1.5 15V3C1.5 2.60218 1.65804 2.22064 1.93934 1.93934C2.22064 1.65804 2.60218 1.5 3 1.5ZM21 0C21.7956 0 22.5587 0.316071 23.1213 0.87868C23.6839 1.44129 24 2.20435 24 3V22.1895C24 22.3379 23.9559 22.483 23.8734 22.6063C23.7909 22.7297 23.6737 22.8258 23.5365 22.8825C23.3994 22.9392 23.2485 22.9539 23.1029 22.9248C22.9574 22.8957 22.8238 22.8241 22.719 22.719L18.4395 18.4395C18.1583 18.1582 17.7768 18.0001 17.379 18H3C2.20435 18 1.44129 17.6839 0.87868 17.1213C0.316071 16.5587 0 15.7957 0 15V3C0 2.20435 0.316071 1.44129 0.87868 0.87868C1.44129 0.316071 2.20435 0 3 0L21 0Z" fill="black"/>
<path fill-rule="evenodd" clip-rule="evenodd" d="M10.599 7.13997C10.3068 6.68494 9.87486 6.33704 9.368 6.14856C8.86115 5.96008 8.30681 5.94119 7.78831 6.09475C7.2698 6.24831 6.81515 6.566 6.49267 7.00009C6.17019 7.43419 5.99732 7.96122 6.00003 8.50197C6.0003 8.94977 6.12082 9.38929 6.34899 9.7746C6.57717 10.1599 6.90463 10.4769 7.29717 10.6924C7.68971 10.9079 8.13291 11.014 8.58048 10.9997C9.02806 10.9854 9.46357 10.8511 9.84153 10.611C9.64503 11.1945 9.27903 11.817 8.67603 12.441C8.56066 12.5603 8.49743 12.7206 8.50024 12.8866C8.50306 13.0525 8.57168 13.2106 8.69103 13.326C8.81038 13.4413 8.97067 13.5046 9.13664 13.5018C9.30261 13.4989 9.46066 13.4303 9.57603 13.311C11.805 11.001 11.5155 8.48997 10.599 7.14297V7.13997ZM16.599 7.13997C16.3068 6.68494 15.8749 6.33704 15.368 6.14856C14.8612 5.96008 14.3068 5.94119 13.7883 6.09475C13.2698 6.24831 12.8151 6.566 12.4927 7.00009C12.1702 7.43419 11.9973 7.96122 12 8.50197C12.0003 8.94977 12.1208 9.38929 12.349 9.7746C12.5772 10.1599 12.9046 10.4769 13.2972 10.6924C13.6897 10.9079 14.1329 11.014 14.5805 10.9997C15.0281 10.9854 15.4636 10.8511 15.8415 10.611C15.645 11.1945 15.279 11.817 14.676 12.441C14.5607 12.5603 14.4974 12.7206 14.5002 12.8866C14.5031 13.0525 14.5717 13.2106 14.691 13.326C14.8104 13.4413 14.9707 13.5046 15.1366 13.5018C15.3026 13.4989 15.4607 13.4303 15.576 13.311C17.805 11.001 17.5155 8.48997 16.599 7.14297V7.13997Z" fill="black"/>
</svg>
