<svg width="24" height="24" viewBox="0 0 24 24" fill="none" xmlns="http://www.w3.org/2000/svg">
<path fill-rule="evenodd" clip-rule="evenodd" d="M24 12C24 17.799 18.627 22.5 12 22.5C10.8115 22.5016 9.62788 22.3473 8.4795 22.041C7.6035 22.485 5.592 23.337 2.208 23.892C1.908 23.94 1.68 23.628 1.7985 23.349C2.3295 22.095 2.8095 20.424 2.9535 18.9C1.116 17.055 0 14.64 0 12C0 6.201 5.373 1.5 12 1.5C18.627 1.5 24 6.201 24 12ZM10.791 10.149C10.9215 10.335 11.0355 10.539 11.1315 10.7505C11.7735 12.1725 11.721 14.316 9.7185 16.3095C9.59627 16.4286 9.43314 16.4965 9.26248 16.4993C9.09182 16.5021 8.92655 16.4396 8.8005 16.3245C8.73904 16.2688 8.68963 16.2012 8.65531 16.1257C8.62098 16.0502 8.60248 15.9685 8.60093 15.8856C8.59939 15.8027 8.61483 15.7203 8.64632 15.6436C8.6778 15.5669 8.72466 15.4974 8.784 15.4395C9.4125 14.8155 9.792 14.193 9.9975 13.6095C9.594 13.857 9.1155 13.9995 8.6025 13.9995C7.1625 13.9995 6 12.8805 6 11.5005C6 10.1205 7.164 9 8.601 9C9.0075 9 9.393 9.09 9.735 9.249L9.747 9.255C10.0005 9.36 10.2375 9.528 10.4505 9.741C10.578 9.8655 10.692 10.002 10.791 10.149ZM16.5 13.6095C16.0965 13.857 15.618 13.9995 15.105 13.9995C13.668 13.9995 12.5025 12.8805 12.5025 11.5005C12.5025 10.1205 13.668 9 15.1035 9C15.51 9 15.8955 9.09 16.2375 9.249L16.2495 9.255C16.5045 9.36 16.74 9.528 16.953 9.741C17.0805 9.8655 17.1945 10.002 17.2935 10.149C17.424 10.335 17.5395 10.539 17.6355 10.7505C18.2775 12.1725 18.2235 14.316 16.2225 16.3095C16.1002 16.4291 15.9367 16.4972 15.7657 16.5C15.5947 16.5028 15.4291 16.44 15.303 16.3245C15.2415 16.2688 15.1921 16.2012 15.1578 16.1257C15.1235 16.0502 15.105 15.9685 15.1034 15.8856C15.1019 15.8027 15.1173 15.7203 15.1488 15.6436C15.1803 15.5669 15.2272 15.4974 15.2865 15.4395C15.9165 14.8155 16.2945 14.193 16.5015 13.6095H16.5Z" fill="black"/>
</svg>
