<svg width="24" height="24" viewBox="0 0 24 24" fill="none" xmlns="http://www.w3.org/2000/svg">
<path fill-rule="evenodd" clip-rule="evenodd" d="M0 3C0 2.20435 0.316071 1.44129 0.87868 0.87868C1.44129 0.316071 2.20435 0 3 0L21 0C21.7956 0 22.5587 0.316071 23.1213 0.87868C23.6839 1.44129 24 2.20435 24 3V15C24 15.7956 23.6839 16.5587 23.1213 17.1213C22.5587 17.6839 21.7956 18 21 18H17.25C17.0171 18 16.7875 18.0542 16.5792 18.1584C16.3709 18.2625 16.1897 18.4137 16.05 18.6L13.2 22.3995C13.0603 22.5858 12.8791 22.737 12.6708 22.8411C12.4625 22.9453 12.2329 22.9995 12 22.9995C11.7671 22.9995 11.5375 22.9453 11.3292 22.8411C11.1209 22.737 10.9397 22.5858 10.8 22.3995L7.95 18.6C7.81028 18.4137 7.6291 18.2625 7.42082 18.1584C7.21254 18.0542 6.98287 18 6.75 18H3C2.20435 18 1.44129 17.6839 0.87868 17.1213C0.316071 16.5587 0 15.7956 0 15V3ZM10.791 7.149C10.9215 7.335 11.0355 7.539 11.1315 7.7505C11.7735 9.1725 11.721 11.316 9.7185 13.3095C9.59627 13.4286 9.43314 13.4965 9.26248 13.4993C9.09182 13.5021 8.92655 13.4396 8.8005 13.3245C8.73904 13.2688 8.68963 13.2012 8.65531 13.1257C8.62098 13.0502 8.60248 12.9685 8.60093 12.8856C8.59939 12.8027 8.61483 12.7203 8.64632 12.6436C8.6778 12.5669 8.72466 12.4974 8.784 12.4395C9.4125 11.8155 9.792 11.193 9.9975 10.6095C9.594 10.857 9.1155 10.9995 8.6025 10.9995C7.1625 10.9995 6 9.8805 6 8.5005C6 7.1205 7.164 6 8.601 6C9.0075 6 9.393 6.09 9.735 6.249L9.747 6.255C10.0005 6.36 10.2375 6.528 10.4505 6.741C10.578 6.8655 10.692 7.002 10.791 7.149ZM16.5 10.6095C16.0965 10.857 15.618 10.9995 15.105 10.9995C13.668 10.9995 12.5025 9.8805 12.5025 8.5005C12.5025 7.1205 13.668 6 15.1035 6C15.51 6 15.8955 6.09 16.2375 6.249L16.2495 6.255C16.5045 6.36 16.74 6.528 16.953 6.741C17.0805 6.8655 17.1945 7.002 17.2935 7.149C17.424 7.335 17.5395 7.539 17.6355 7.7505C18.2775 9.1725 18.2235 11.316 16.2225 13.3095C16.1002 13.4291 15.9367 13.4972 15.7657 13.5C15.5947 13.5028 15.4291 13.44 15.303 13.3245C15.2415 13.2688 15.1921 13.2012 15.1578 13.1257C15.1235 13.0502 15.105 12.9685 15.1034 12.8856C15.1019 12.8027 15.1173 12.7203 15.1488 12.6436C15.1803 12.5669 15.2272 12.4974 15.2865 12.4395C15.9165 11.8155 16.2945 11.193 16.5015 10.6095H16.5Z" fill="black"/>
</svg>
