<svg width="24" height="24" viewBox="0 0 24 24" fill="none" xmlns="http://www.w3.org/2000/svg">
<path fill-rule="evenodd" clip-rule="evenodd" d="M4.017 17.841C4.1727 17.9973 4.292 18.186 4.36641 18.3937C4.44082 18.6014 4.46851 18.8229 4.4475 19.0425C4.34208 20.0589 4.14221 21.0632 3.8505 22.0425C5.943 21.558 7.221 20.997 7.8015 20.703C8.13076 20.5362 8.50993 20.4967 8.8665 20.592C9.88865 20.8645 10.9421 21.0017 12 21C17.994 21 22.5 16.7895 22.5 12C22.5 7.212 17.994 3 12 3C6.006 3 1.5 7.212 1.5 12C1.5 14.202 2.4255 16.245 4.017 17.841ZM3.2775 23.6985C2.9221 23.769 2.56555 23.8335 2.208 23.892C1.908 23.94 1.68 23.628 1.7985 23.349C1.93169 23.0349 2.05376 22.7162 2.1645 22.3935L2.169 22.3785C2.541 21.2985 2.844 20.0565 2.955 18.9C1.1145 17.055 0 14.64 0 12C0 6.201 5.373 1.5 12 1.5C18.627 1.5 24 6.201 24 12C24 17.799 18.627 22.5 12 22.5C10.8115 22.5016 9.62788 22.3473 8.4795 22.041C7.6995 22.4355 6.021 23.154 3.2775 23.6985Z" fill="black"/>
<path d="M11.202 11.5005C11.202 12.8805 10.038 13.9995 8.601 13.9995C7.164 13.9995 6 12.8805 6 11.5005C6 10.1205 7.164 9 8.601 9C10.038 9 11.202 10.119 11.202 11.5005Z" fill="black"/>
<path fill-rule="evenodd" clip-rule="evenodd" d="M9.23568 10.4039C9.21097 10.4889 9.16933 10.5681 9.11325 10.6366C9.05717 10.7052 8.98782 10.7617 8.90936 10.8027C8.8309 10.8438 8.74495 10.8685 8.65668 10.8755C8.5684 10.8825 8.47963 10.8716 8.39568 10.8434C8.31599 10.8197 8.24188 10.7803 8.17776 10.7273C8.11365 10.6744 8.06084 10.6091 8.02249 10.5354C7.98414 10.4616 7.96103 10.3809 7.95453 10.298C7.94804 10.2151 7.95829 10.1318 7.98468 10.0529C8.10468 9.70791 8.32968 9.39291 8.70018 9.23391C8.86712 9.16675 9.04591 9.13399 9.22582 9.1376C9.40573 9.14121 9.58306 9.18111 9.74718 9.25491C10.3277 9.49491 10.8272 10.0724 11.1317 10.7504C11.7737 12.1724 11.7212 14.3159 9.71868 16.3094C9.59645 16.4285 9.43332 16.4965 9.26266 16.4992C9.092 16.502 8.92673 16.4395 8.80068 16.3244C8.73922 16.2687 8.68981 16.2011 8.65549 16.1256C8.62116 16.0501 8.60266 15.9684 8.60112 15.8855C8.59957 15.8026 8.61501 15.7202 8.6465 15.6435C8.67798 15.5668 8.72484 15.4973 8.78418 15.4394C10.4237 13.8089 10.3712 12.2024 9.93918 11.2484C9.71118 10.7444 9.40818 10.4774 9.23418 10.4039H9.23568ZM9.18318 10.3859H9.18168H9.18318Z" fill="black"/>
<path d="M17.7044 11.5005C17.7044 12.8805 16.5404 13.9995 15.1034 13.9995C13.6679 13.9995 12.5024 12.8805 12.5024 11.5005C12.5024 10.1205 13.6679 9 15.1034 9C16.5404 9 17.7044 10.119 17.7044 11.5005Z" fill="black"/>
<path fill-rule="evenodd" clip-rule="evenodd" d="M15.7381 10.4039C15.7134 10.4889 15.6718 10.5681 15.6157 10.6366C15.5596 10.7052 15.4903 10.7617 15.4118 10.8027C15.3333 10.8438 15.2474 10.8685 15.1591 10.8755C15.0708 10.8825 14.9821 10.8716 14.8981 10.8434C14.8184 10.8197 14.7443 10.7803 14.6802 10.7273C14.6161 10.6744 14.5633 10.6091 14.5249 10.5354C14.4866 10.4616 14.4635 10.3809 14.457 10.298C14.4505 10.2151 14.4607 10.1318 14.4871 10.0529C14.6071 9.70791 14.8321 9.39291 15.2026 9.23391C15.3696 9.16675 15.5484 9.13399 15.7283 9.1376C15.9082 9.14121 16.0855 9.18111 16.2496 9.25491C16.8301 9.49491 17.3296 10.0724 17.6356 10.7504C18.2776 12.1724 18.2236 14.3159 16.2226 16.3094C16.1003 16.429 15.9369 16.4972 15.7659 16.5C15.5948 16.5027 15.4293 16.4399 15.3031 16.3244C15.2417 16.2687 15.1922 16.2011 15.1579 16.1256C15.1236 16.0501 15.1051 15.9684 15.1036 15.8855C15.102 15.8026 15.1175 15.7202 15.1489 15.6435C15.1804 15.5668 15.2273 15.4973 15.2866 15.4394C16.9261 13.8089 16.8736 12.2024 16.4416 11.2484C16.2136 10.7444 15.9106 10.4774 15.7381 10.4039ZM15.6871 10.3859H15.6841H15.6871Z" fill="black"/>
</svg>
