<svg width="24" height="24" viewBox="0 0 24 24" fill="none" xmlns="http://www.w3.org/2000/svg">
<g clip-path="url(#clip0_1315_823)">
<path fill-rule="evenodd" clip-rule="evenodd" d="M24 3C24 2.20435 23.6839 1.44129 23.1213 0.87868C22.5587 0.316071 21.7956 0 21 0L3 0C2.20435 0 1.44129 0.316071 0.87868 0.87868C0.316071 1.44129 0 2.20435 0 3L0 15C0 15.7957 0.316071 16.5587 0.87868 17.1213C1.44129 17.6839 2.20435 18 3 18H17.379C17.7768 18.0001 18.1583 18.1582 18.4395 18.4395L22.719 22.719C22.8238 22.8241 22.9574 22.8957 23.1029 22.9248C23.2485 22.9539 23.3994 22.9392 23.5365 22.8825C23.6737 22.8258 23.7909 22.7297 23.8734 22.6063C23.9559 22.483 24 22.3379 24 22.1895V3ZM5.25 4.5C5.05109 4.5 4.86032 4.57902 4.71967 4.71967C4.57902 4.86032 4.5 5.05109 4.5 5.25C4.5 5.44891 4.57902 5.63968 4.71967 5.78033C4.86032 5.92098 5.05109 6 5.25 6H18.75C18.9489 6 19.1397 5.92098 19.2803 5.78033C19.421 5.63968 19.5 5.44891 19.5 5.25C19.5 5.05109 19.421 4.86032 19.2803 4.71967C19.1397 4.57902 18.9489 4.5 18.75 4.5H5.25ZM5.25 8.25C5.05109 8.25 4.86032 8.32902 4.71967 8.46967C4.57902 8.61032 4.5 8.80109 4.5 9C4.5 9.19891 4.57902 9.38968 4.71967 9.53033C4.86032 9.67098 5.05109 9.75 5.25 9.75H18.75C18.9489 9.75 19.1397 9.67098 19.2803 9.53033C19.421 9.38968 19.5 9.19891 19.5 9C19.5 8.80109 19.421 8.61032 19.2803 8.46967C19.1397 8.32902 18.9489 8.25 18.75 8.25H5.25ZM5.25 12C5.05109 12 4.86032 12.079 4.71967 12.2197C4.57902 12.3603 4.5 12.5511 4.5 12.75C4.5 12.9489 4.57902 13.1397 4.71967 13.2803C4.86032 13.421 5.05109 13.5 5.25 13.5H12.75C12.9489 13.5 13.1397 13.421 13.2803 13.2803C13.421 13.1397 13.5 12.9489 13.5 12.75C13.5 12.5511 13.421 12.3603 13.2803 12.2197C13.1397 12.079 12.9489 12 12.75 12H5.25Z" fill="black"/>
</g>
<defs>
<clipPath id="clip0_1315_823">
<rect width="24" height="24" fill="white"/>
</clipPath>
</defs>
</svg>
