<svg width="24" height="24" viewBox="0 0 24 24" fill="none" xmlns="http://www.w3.org/2000/svg">
<path fill-rule="evenodd" clip-rule="evenodd" d="M13.4545 7.45506C13.6644 7.24697 13.9478 7.12986 14.2434 7.12904C14.539 7.12823 14.823 7.24378 15.0341 7.45071C15.2452 7.65764 15.3663 7.93932 15.3713 8.23487C15.3764 8.53041 15.2649 8.81606 15.061 9.03006L9.073 16.5151C8.97009 16.6259 8.84588 16.7149 8.7078 16.7766C8.56972 16.8384 8.42061 16.8716 8.26938 16.8744C8.11815 16.8772 7.96791 16.8495 7.82764 16.7929C7.68737 16.7363 7.55995 16.652 7.453 16.5451L3.4855 12.5761C3.37497 12.4731 3.28632 12.3489 3.22483 12.2109C3.16334 12.0729 3.13028 11.9239 3.12762 11.7728C3.12495 11.6218 3.15274 11.4718 3.20932 11.3317C3.2659 11.1916 3.35012 11.0643 3.45695 10.9575C3.56377 10.8507 3.69103 10.7665 3.83111 10.7099C3.97119 10.6533 4.12123 10.6255 4.27229 10.6282C4.42334 10.6308 4.57231 10.6639 4.71031 10.7254C4.84831 10.7869 4.97251 10.8755 5.0755 10.9861L8.2165 14.1256L13.4245 7.48806C13.4338 7.47648 13.4439 7.46546 13.4545 7.45506ZM12.0745 15.1651L13.4545 16.5451C13.5614 16.6518 13.6888 16.7359 13.8289 16.7923C13.969 16.8488 14.1191 16.8765 14.2701 16.8737C14.4212 16.8709 14.5701 16.8377 14.708 16.7761C14.846 16.7144 14.9701 16.6257 15.073 16.5151L21.061 9.03006C21.1686 8.92387 21.2536 8.79708 21.3111 8.65728C21.3686 8.51748 21.3973 8.36752 21.3955 8.21638C21.3938 8.06523 21.3616 7.91599 21.3008 7.77756C21.2401 7.63914 21.1521 7.51437 21.0421 7.41071C20.9321 7.30705 20.8023 7.22662 20.6605 7.17423C20.5188 7.12184 20.3679 7.09856 20.2169 7.10578C20.0659 7.113 19.9179 7.15057 19.7818 7.21625C19.6456 7.28193 19.5241 7.37438 19.4245 7.48806L14.215 14.1256L13.4875 13.3966L12.073 15.1651H12.0745Z" fill="black"/>
</svg>
