<svg width="24" height="24" viewBox="0 0 24 24" fill="none" xmlns="http://www.w3.org/2000/svg">
<g clip-path="url(#clip0_1315_870)">
<path fill-rule="evenodd" clip-rule="evenodd" d="M18.5305 5.46888C18.6003 5.53854 18.6557 5.62131 18.6936 5.71243C18.7314 5.80354 18.7508 5.90123 18.7508 5.99988C18.7508 6.09853 18.7314 6.19621 18.6936 6.28733C18.6557 6.37844 18.6003 6.46121 18.5305 6.53088L8.03048 17.0309C7.96081 17.1007 7.87805 17.1561 7.78693 17.1939C7.69582 17.2318 7.59813 17.2512 7.49948 17.2512C7.40083 17.2512 7.30315 17.2318 7.21203 17.1939C7.12091 17.1561 7.03815 17.1007 6.96848 17.0309L1.71848 11.7809C1.57765 11.64 1.49854 11.449 1.49854 11.2499C1.49854 11.0507 1.57765 10.8597 1.71848 10.7189C1.85931 10.578 2.05032 10.4989 2.24948 10.4989C2.44865 10.4989 2.63965 10.578 2.78048 10.7189L7.49948 15.4394L17.4685 5.46888C17.5382 5.39903 17.6209 5.34362 17.712 5.30581C17.8032 5.268 17.9008 5.24854 17.9995 5.24854C18.0981 5.24854 18.1958 5.268 18.2869 5.30581C18.378 5.34362 18.4608 5.39903 18.5305 5.46888Z" fill="black"/>
<path d="M9.37448 12.0643L8.03048 10.7188C7.88965 10.578 7.69865 10.4989 7.49948 10.4989C7.30032 10.4989 7.10931 10.578 6.96848 10.7188C6.82765 10.8597 6.74854 11.0507 6.74854 11.2498C6.74854 11.449 6.82765 11.64 6.96848 11.7808L8.31398 13.1248L9.37448 12.0643ZM10.8745 15.6853L12.2185 17.0308C12.2882 17.1007 12.3709 17.1561 12.462 17.1939C12.5532 17.2317 12.6508 17.2512 12.7495 17.2512C12.8481 17.2512 12.9458 17.2317 13.0369 17.1939C13.1281 17.1561 13.2108 17.1007 13.2805 17.0308L23.7805 6.53085C23.9213 6.39002 24.0004 6.19901 24.0004 5.99985C24.0004 5.80069 23.9213 5.60968 23.7805 5.46885C23.6397 5.32802 23.4486 5.2489 23.2495 5.2489C23.0503 5.2489 22.8593 5.32802 22.7185 5.46885L12.7495 15.4393L11.935 14.6248L10.8745 15.6853Z" fill="black"/>
</g>
<defs>
<clipPath id="clip0_1315_870">
<rect width="24" height="24" fill="white"/>
</clipPath>
</defs>
</svg>
