<svg width="24" height="24" viewBox="0 0 24 24" fill="none" xmlns="http://www.w3.org/2000/svg">
<path fill-rule="evenodd" clip-rule="evenodd" d="M2.46888 9.96888C2.53854 9.89903 2.62131 9.84362 2.71243 9.80581C2.80354 9.768 2.90122 9.74854 2.99988 9.74854C3.09853 9.74854 3.19621 9.768 3.28733 9.80581C3.37844 9.84362 3.46121 9.89903 3.53088 9.96888L11.9999 18.4394L20.4689 9.96888C20.6097 9.82805 20.8007 9.74893 20.9999 9.74893C21.199 9.74893 21.39 9.82805 21.5309 9.96888C21.6717 10.1097 21.7508 10.3007 21.7508 10.4999C21.7508 10.699 21.6717 10.89 21.5309 11.0309L12.5309 20.0309C12.4612 20.1007 12.3784 20.1561 12.2873 20.1939C12.1962 20.2318 12.0985 20.2512 11.9999 20.2512C11.9012 20.2512 11.8035 20.2318 11.7124 20.1939C11.6213 20.1561 11.5385 20.1007 11.4689 20.0309L2.46888 11.0309C2.39903 10.9612 2.34362 10.8784 2.30581 10.7873C2.268 10.6962 2.24854 10.5985 2.24854 10.4999C2.24854 10.4012 2.268 10.3035 2.30581 10.2124C2.34362 10.1213 2.39903 10.0385 2.46888 9.96888Z" fill="black"/>
<path fill-rule="evenodd" clip-rule="evenodd" d="M2.46888 3.96888C2.53854 3.89903 2.62131 3.84362 2.71243 3.80581C2.80354 3.768 2.90122 3.74854 2.99988 3.74854C3.09853 3.74854 3.19621 3.768 3.28733 3.80581C3.37844 3.84362 3.46121 3.89903 3.53088 3.96888L11.9999 12.4394L20.4689 3.96888C20.5386 3.89914 20.6214 3.84383 20.7125 3.80609C20.8036 3.76835 20.9013 3.74893 20.9999 3.74893C21.0985 3.74893 21.1961 3.76835 21.2873 3.80609C21.3784 3.84383 21.4611 3.89914 21.5309 3.96888C21.6006 4.03861 21.6559 4.12139 21.6937 4.2125C21.7314 4.30361 21.7508 4.40126 21.7508 4.49988C21.7508 4.59849 21.7314 4.69614 21.6937 4.78725C21.6559 4.87836 21.6006 4.96114 21.5309 5.03088L12.5309 14.0309C12.4612 14.1007 12.3784 14.1561 12.2873 14.1939C12.1962 14.2318 12.0985 14.2512 11.9999 14.2512C11.9012 14.2512 11.8035 14.2318 11.7124 14.1939C11.6213 14.1561 11.5385 14.1007 11.4689 14.0309L2.46888 5.03088C2.39903 4.96121 2.34362 4.87844 2.30581 4.78733C2.268 4.69621 2.24854 4.59853 2.24854 4.49988C2.24854 4.40122 2.268 4.30354 2.30581 4.21243C2.34362 4.12131 2.39903 4.03854 2.46888 3.96888Z" fill="black"/>
</svg>
