<svg width="24" height="24" viewBox="0 0 24 24" fill="none" xmlns="http://www.w3.org/2000/svg">
<path fill-rule="evenodd" clip-rule="evenodd" d="M10.1637 2.32947C10.3415 2.24036 10.5474 2.22555 10.7362 2.28828C10.925 2.35101 11.0811 2.48615 11.1702 2.66397L15.6702 11.664C15.7224 11.7683 15.7496 11.8833 15.7496 12C15.7496 12.1166 15.7224 12.2317 15.6702 12.336L11.1702 21.336C11.1265 21.4248 11.0657 21.5041 10.9913 21.5693C10.9168 21.6346 10.8302 21.6844 10.7364 21.716C10.6426 21.7475 10.5434 21.7602 10.4447 21.7533C10.3459 21.7464 10.2496 21.72 10.1611 21.6757C10.0726 21.6313 9.99373 21.5699 9.92909 21.495C9.86445 21.42 9.81529 21.333 9.78444 21.2389C9.75358 21.1449 9.74165 21.0457 9.74933 20.947C9.75701 20.8483 9.78414 20.7521 9.82917 20.664L14.1597 12L9.82917 3.33597C9.74007 3.15814 9.72525 2.9522 9.78798 2.76345C9.85071 2.57469 9.98585 2.41859 10.1637 2.32947Z" fill="black"/>
</svg>
