<svg width="24" height="24" viewBox="0 0 24 24" fill="none" xmlns="http://www.w3.org/2000/svg">
<path fill-rule="evenodd" clip-rule="evenodd" d="M5.46888 2.46888C5.53854 2.39903 5.62131 2.34362 5.71243 2.30581C5.80354 2.268 5.90122 2.24854 5.99988 2.24854C6.09853 2.24854 6.19621 2.268 6.28733 2.30581C6.37844 2.34362 6.46121 2.39903 6.53088 2.46888L15.5309 11.4689C15.6007 11.5385 15.6561 11.6213 15.6939 11.7124C15.7318 11.8035 15.7512 11.9012 15.7512 11.9999C15.7512 12.0985 15.7318 12.1962 15.6939 12.2873C15.6561 12.3784 15.6007 12.4612 15.5309 12.5309L6.53088 21.5309C6.39005 21.6717 6.19904 21.7508 5.99988 21.7508C5.80071 21.7508 5.60971 21.6717 5.46888 21.5309C5.32805 21.39 5.24893 21.199 5.24893 20.9999C5.24893 20.8007 5.32805 20.6097 5.46888 20.4689L13.9394 11.9999L5.46888 3.53088C5.39903 3.46121 5.34362 3.37844 5.30581 3.28733C5.268 3.19621 5.24854 3.09853 5.24854 2.99988C5.24854 2.90122 5.268 2.80354 5.30581 2.71243C5.34362 2.62131 5.39903 2.53854 5.46888 2.46888Z" fill="black"/>
<path fill-rule="evenodd" clip-rule="evenodd" d="M11.4689 2.46888C11.5385 2.39903 11.6213 2.34362 11.7124 2.30581C11.8035 2.268 11.9012 2.24854 11.9999 2.24854C12.0985 2.24854 12.1962 2.268 12.2873 2.30581C12.3784 2.34362 12.4612 2.39903 12.5309 2.46888L21.5309 11.4689C21.6007 11.5385 21.6561 11.6213 21.6939 11.7124C21.7318 11.8035 21.7512 11.9012 21.7512 11.9999C21.7512 12.0985 21.7318 12.1962 21.6939 12.2873C21.6561 12.3784 21.6007 12.4612 21.5309 12.5309L12.5309 21.5309C12.39 21.6717 12.199 21.7508 11.9999 21.7508C11.8007 21.7508 11.6097 21.6717 11.4689 21.5309C11.328 21.39 11.2489 21.199 11.2489 20.9999C11.2489 20.8007 11.328 20.6097 11.4689 20.4689L19.9394 11.9999L11.4689 3.53088C11.399 3.46121 11.3436 3.37844 11.3058 3.28733C11.268 3.19621 11.2485 3.09853 11.2485 2.99988C11.2485 2.90122 11.268 2.80354 11.3058 2.71243C11.3436 2.62131 11.399 2.53854 11.4689 2.46888Z" fill="black"/>
</svg>
