<svg width="24" height="24" viewBox="0 0 24 24" fill="none" xmlns="http://www.w3.org/2000/svg">
<path fill-rule="evenodd" clip-rule="evenodd" d="M13.8359 2.3296C14.0134 2.41872 14.1482 2.57457 14.2109 2.76296C14.2736 2.95136 14.2591 3.15693 14.1704 3.3346L9.83994 12.0001L14.1719 20.6641C14.217 20.7522 14.2441 20.8484 14.2518 20.9471C14.2595 21.0458 14.2475 21.145 14.2167 21.2391C14.1858 21.3331 14.1367 21.4201 14.072 21.4951C14.0074 21.5701 13.9285 21.6315 13.8401 21.6758C13.7516 21.7202 13.6552 21.7466 13.5564 21.7535C13.4577 21.7604 13.3586 21.7477 13.2648 21.7161C13.1709 21.6845 13.0843 21.6347 13.0099 21.5695C12.9354 21.5042 12.8746 21.4249 12.8309 21.3361L8.33094 12.3361C8.27868 12.2318 8.25146 12.1168 8.25146 12.0001C8.25146 11.8834 8.27868 11.7684 8.33094 11.6641L12.8309 2.6641C12.9201 2.48667 13.0759 2.35182 13.2643 2.28911C13.4527 2.22641 13.6583 2.24097 13.8359 2.3296Z" fill="black"/>
</svg>
