<svg width="24" height="24" viewBox="0 0 24 24" fill="none" xmlns="http://www.w3.org/2000/svg">
<path fill-rule="evenodd" clip-rule="evenodd" d="M12.5309 2.46888C12.6007 2.53854 12.6561 2.62131 12.6939 2.71243C12.7318 2.80354 12.7512 2.90122 12.7512 2.99988C12.7512 3.09853 12.7318 3.19621 12.6939 3.28733C12.6561 3.37844 12.6007 3.46121 12.5309 3.53088L4.06038 11.9999L12.5309 20.4689C12.6717 20.6097 12.7508 20.8007 12.7508 20.9999C12.7508 21.199 12.6717 21.39 12.5309 21.5309C12.39 21.6717 12.199 21.7508 11.9999 21.7508C11.8007 21.7508 11.6097 21.6717 11.4689 21.5309L2.46888 12.5309C2.39903 12.4612 2.34362 12.3784 2.30581 12.2873C2.268 12.1962 2.24854 12.0985 2.24854 11.9999C2.24854 11.9012 2.268 11.8035 2.30581 11.7124C2.34362 11.6213 2.39903 11.5385 2.46888 11.4689L11.4689 2.46888C11.5385 2.39903 11.6213 2.34362 11.7124 2.30581C11.8035 2.268 11.9012 2.24854 11.9999 2.24854C12.0985 2.24854 12.1962 2.268 12.2873 2.30581C12.3784 2.34362 12.4612 2.39903 12.5309 2.46888Z" fill="black"/>
<path fill-rule="evenodd" clip-rule="evenodd" d="M18.5309 2.46888C18.6007 2.53854 18.6561 2.62131 18.6939 2.71243C18.7318 2.80354 18.7512 2.90122 18.7512 2.99988C18.7512 3.09853 18.7318 3.19621 18.6939 3.28733C18.6561 3.37844 18.6007 3.46121 18.5309 3.53088L10.0604 11.9999L18.5309 20.4689C18.6006 20.5386 18.6559 20.6214 18.6937 20.7125C18.7314 20.8036 18.7508 20.9013 18.7508 20.9999C18.7508 21.0985 18.7314 21.1961 18.6937 21.2873C18.6559 21.3784 18.6006 21.4611 18.5309 21.5309C18.4611 21.6006 18.3784 21.6559 18.2873 21.6937C18.1961 21.7314 18.0985 21.7508 17.9999 21.7508C17.9013 21.7508 17.8036 21.7314 17.7125 21.6937C17.6214 21.6559 17.5386 21.6006 17.4689 21.5309L8.46888 12.5309C8.39903 12.4612 8.34362 12.3784 8.30581 12.2873C8.268 12.1962 8.24854 12.0985 8.24854 11.9999C8.24854 11.9012 8.268 11.8035 8.30581 11.7124C8.34362 11.6213 8.39903 11.5385 8.46888 11.4689L17.4689 2.46888C17.5385 2.39903 17.6213 2.34362 17.7124 2.30581C17.8035 2.268 17.9012 2.24854 17.9999 2.24854C18.0985 2.24854 18.1962 2.268 18.2873 2.30581C18.3784 2.34362 18.4612 2.39903 18.5309 2.46888Z" fill="black"/>
</svg>
