<svg width="24" height="24" viewBox="0 0 24 24" fill="none" xmlns="http://www.w3.org/2000/svg">
<path fill-rule="evenodd" clip-rule="evenodd" d="M6.21888 5.469C6.14903 5.53867 6.09362 5.62143 6.05581 5.71255C6.018 5.80367 5.99854 5.90135 5.99854 6C5.99854 6.09865 6.018 6.19633 6.05581 6.28745C6.09362 6.37857 6.14903 6.46133 6.21888 6.531L11.6894 12L6.21888 17.469C6.07805 17.6098 5.99893 17.8008 5.99893 18C5.99893 18.1992 6.07805 18.3902 6.21888 18.531C6.35971 18.6718 6.55071 18.7509 6.74988 18.7509C6.94904 18.7509 7.14005 18.6718 7.28088 18.531L13.2809 12.531C13.3507 12.4613 13.4061 12.3786 13.4439 12.2874C13.4818 12.1963 13.5012 12.0987 13.5012 12C13.5012 11.9013 13.4818 11.8037 13.4439 11.7125C13.4061 11.6214 13.3507 11.5387 13.2809 11.469L7.28088 5.469C7.21121 5.39915 7.12844 5.34374 7.03733 5.30593C6.94621 5.26812 6.84853 5.24866 6.74988 5.24866C6.65122 5.24866 6.55354 5.26812 6.46243 5.30593C6.37131 5.34374 6.28854 5.39915 6.21888 5.469ZM17.2499 1.5C17.4488 1.5 17.6396 1.57902 17.7802 1.71967C17.9209 1.86032 17.9999 2.05109 17.9999 2.25V21.75C17.9999 21.9489 17.9209 22.1397 17.7802 22.2803C17.6396 22.421 17.4488 22.5 17.2499 22.5C17.051 22.5 16.8602 22.421 16.7195 22.2803C16.5789 22.1397 16.4999 21.9489 16.4999 21.75V2.25C16.4999 2.05109 16.5789 1.86032 16.7195 1.71967C16.8602 1.57902 17.051 1.5 17.2499 1.5Z" fill="black"/>
</svg>
