<svg width="24" height="24" viewBox="0 0 24 24" fill="none" xmlns="http://www.w3.org/2000/svg">
<path fill-rule="evenodd" clip-rule="evenodd" d="M5.46888 20.7809C5.53854 20.8507 5.62131 20.9061 5.71243 20.9439C5.80354 20.9818 5.90122 21.0012 5.99988 21.0012C6.09853 21.0012 6.19621 20.9818 6.28733 20.9439C6.37844 20.9061 6.46121 20.8507 6.53088 20.7809L11.9999 15.3104L17.4689 20.7809C17.6097 20.9217 17.8007 21.0008 17.9999 21.0008C18.199 21.0008 18.39 20.9217 18.5309 20.7809C18.6717 20.64 18.7508 20.449 18.7508 20.2499C18.7508 20.0507 18.6717 19.8597 18.5309 19.7189L12.5309 13.7189C12.4612 13.649 12.3784 13.5936 12.2873 13.5558C12.1962 13.518 12.0985 13.4985 11.9999 13.4985C11.9012 13.4985 11.8035 13.518 11.7124 13.5558C11.6213 13.5936 11.5385 13.649 11.4689 13.7189L5.46888 19.7189C5.39903 19.7885 5.34362 19.8713 5.30581 19.9624C5.268 20.0535 5.24854 20.1512 5.24854 20.2499C5.24854 20.3485 5.268 20.4462 5.30581 20.5373C5.34362 20.6284 5.39903 20.7112 5.46888 20.7809ZM5.46888 3.21888C5.53854 3.14903 5.62131 3.09362 5.71243 3.05581C5.80354 3.018 5.90122 2.99854 5.99988 2.99854C6.09853 2.99854 6.19621 3.018 6.28733 3.05581C6.37844 3.09362 6.46121 3.14903 6.53088 3.21888L11.9999 8.68938L17.4689 3.21888C17.6097 3.07805 17.8007 2.99893 17.9999 2.99893C18.199 2.99893 18.39 3.07805 18.5309 3.21888C18.6717 3.35971 18.7508 3.55071 18.7508 3.74988C18.7508 3.94904 18.6717 4.14005 18.5309 4.28088L12.5309 10.2809C12.4612 10.3507 12.3784 10.4061 12.2873 10.4439C12.1962 10.4818 12.0985 10.5012 11.9999 10.5012C11.9012 10.5012 11.8035 10.4818 11.7124 10.4439C11.6213 10.4061 11.5385 10.3507 11.4689 10.2809L5.46888 4.28088C5.39903 4.21121 5.34362 4.12844 5.30581 4.03733C5.268 3.94621 5.24854 3.84853 5.24854 3.74988C5.24854 3.65123 5.268 3.55354 5.30581 3.46243C5.34362 3.37131 5.39903 3.28854 5.46888 3.21888Z" fill="black"/>
</svg>
