<svg width="24" height="24" viewBox="0 0 24 24" fill="none" xmlns="http://www.w3.org/2000/svg">
<path fill-rule="evenodd" clip-rule="evenodd" d="M5.469 22.2809C5.53867 22.3507 5.62143 22.4061 5.71255 22.4439C5.80367 22.4818 5.90135 22.5012 6 22.5012C6.09865 22.5012 6.19633 22.4818 6.28745 22.4439C6.37857 22.4061 6.46133 22.3507 6.531 22.2809L12 16.8104L17.469 22.2809C17.6098 22.4217 17.8008 22.5008 18 22.5008C18.1992 22.5008 18.3902 22.4217 18.531 22.2809C18.6718 22.14 18.7509 21.949 18.7509 21.7499C18.7509 21.5507 18.6718 21.3597 18.531 21.2189L12.531 15.2189C12.4613 15.149 12.3786 15.0936 12.2874 15.0558C12.1963 15.018 12.0987 14.9985 12 14.9985C11.9013 14.9985 11.8037 15.018 11.7125 15.0558C11.6214 15.0936 11.5387 15.149 11.469 15.2189L5.469 21.2189C5.39915 21.2885 5.34374 21.3713 5.30593 21.4624C5.26812 21.5535 5.24866 21.6512 5.24866 21.7499C5.24866 21.8485 5.26812 21.9462 5.30593 22.0373C5.34374 22.1284 5.39915 22.2112 5.469 22.2809ZM5.469 1.71888C5.53867 1.64903 5.62143 1.59362 5.71255 1.55581C5.80367 1.518 5.90135 1.49854 6 1.49854C6.09865 1.49854 6.19633 1.518 6.28745 1.55581C6.37857 1.59362 6.46133 1.64903 6.531 1.71888L12 7.18938L17.469 1.71888C17.6098 1.57805 17.8008 1.49893 18 1.49893C18.1992 1.49893 18.3902 1.57805 18.531 1.71888C18.6718 1.85971 18.7509 2.05071 18.7509 2.24988C18.7509 2.44904 18.6718 2.64005 18.531 2.78088L12.531 8.78088C12.4613 8.85072 12.3786 8.90614 12.2874 8.94395C12.1963 8.98175 12.0987 9.00122 12 9.00122C11.9013 9.00122 11.8037 8.98175 11.7125 8.94395C11.6214 8.90614 11.5387 8.85072 11.469 8.78088L5.469 2.78088C5.39915 2.71121 5.34374 2.62844 5.30593 2.53733C5.26812 2.44621 5.24866 2.34853 5.24866 2.24988C5.24866 2.15122 5.26812 2.05354 5.30593 1.96243C5.34374 1.87131 5.39915 1.78854 5.469 1.71888ZM1.5 11.9999C1.5 11.801 1.57902 11.6102 1.71967 11.4695C1.86032 11.3289 2.05109 11.2499 2.25 11.2499H21.75C21.9489 11.2499 22.1397 11.3289 22.2803 11.4695C22.421 11.6102 22.5 11.801 22.5 11.9999C22.5 12.1988 22.421 12.3896 22.2803 12.5302C22.1397 12.6709 21.9489 12.7499 21.75 12.7499H2.25C2.05109 12.7499 1.86032 12.6709 1.71967 12.5302C1.57902 12.3896 1.5 12.1988 1.5 11.9999Z" fill="black"/>
</svg>
