<svg width="24" height="24" viewBox="0 0 24 24" fill="none" xmlns="http://www.w3.org/2000/svg">
<path fill-rule="evenodd" clip-rule="evenodd" d="M5.46959 17.7811C5.53925 17.8509 5.62202 17.9063 5.71314 17.9441C5.80425 17.9819 5.90193 18.0014 6.00059 18.0014C6.09924 18.0014 6.19692 17.9819 6.28804 17.9441C6.37915 17.9063 6.46192 17.8509 6.53159 17.7811L12.0006 12.3106L17.4696 17.7811C17.6104 17.9219 17.8014 18.001 18.0006 18.001C18.1997 18.001 18.3908 17.9219 18.5316 17.7811C18.6724 17.6402 18.7515 17.4492 18.7515 17.2501C18.7515 17.0509 18.6724 16.8599 18.5316 16.7191L12.5316 10.7191C12.4619 10.6492 12.3792 10.5938 12.288 10.556C12.1969 10.5182 12.0992 10.4987 12.0006 10.4987C11.9019 10.4987 11.8043 10.5182 11.7131 10.556C11.622 10.5938 11.5393 10.6492 11.4696 10.7191L5.46959 16.7191C5.39974 16.7887 5.34433 16.8715 5.30652 16.9626C5.26871 17.0537 5.24925 17.1514 5.24925 17.2501C5.24925 17.3487 5.26871 17.4464 5.30652 17.5375C5.34433 17.6286 5.39974 17.7114 5.46959 17.7811ZM3.60059 7.80007C3.60059 8.13007 3.87059 8.40007 4.20059 8.40007H19.8006C19.9597 8.40007 20.1123 8.33686 20.2248 8.22434C20.3374 8.11182 20.4006 7.9592 20.4006 7.80007C20.4006 7.64094 20.3374 7.48833 20.2248 7.37581C20.1123 7.26329 19.9597 7.20007 19.8006 7.20007H4.20059C4.04146 7.20007 3.88884 7.26329 3.77632 7.37581C3.6638 7.48833 3.60059 7.64094 3.60059 7.80007Z" fill="black"/>
</svg>
