<svg width="24" height="24" viewBox="0 0 24 24" fill="none" xmlns="http://www.w3.org/2000/svg">
<path fill-rule="evenodd" clip-rule="evenodd" d="M6 2.25H4.5C3.70435 2.25 2.94129 2.56607 2.37868 3.12868C1.81607 3.69129 1.5 4.45435 1.5 5.25V21C1.5 21.7956 1.81607 22.5587 2.37868 23.1213C2.94129 23.6839 3.70435 24 4.5 24H19.5C20.2956 24 21.0587 23.6839 21.6213 23.1213C22.1839 22.5587 22.5 21.7956 22.5 21V5.25C22.5 4.45435 22.1839 3.69129 21.6213 3.12868C21.0587 2.56607 20.2956 2.25 19.5 2.25H18V3.75H19.5C19.8978 3.75 20.2794 3.90804 20.5607 4.18934C20.842 4.47064 21 4.85218 21 5.25V21C21 21.3978 20.842 21.7794 20.5607 22.0607C20.2794 22.342 19.8978 22.5 19.5 22.5H4.5C4.10218 22.5 3.72064 22.342 3.43934 22.0607C3.15804 21.7794 3 21.3978 3 21V5.25C3 4.85218 3.15804 4.47064 3.43934 4.18934C3.72064 3.90804 4.10218 3.75 4.5 3.75H6V2.25Z" fill="black"/>
<path fill-rule="evenodd" clip-rule="evenodd" d="M14.25 1.5H9.75C9.55109 1.5 9.36032 1.57902 9.21967 1.71967C9.07902 1.86032 9 2.05109 9 2.25V3.75C9 3.94891 9.07902 4.13968 9.21967 4.28033C9.36032 4.42098 9.55109 4.5 9.75 4.5H14.25C14.4489 4.5 14.6397 4.42098 14.7803 4.28033C14.921 4.13968 15 3.94891 15 3.75V2.25C15 2.05109 14.921 1.86032 14.7803 1.71967C14.6397 1.57902 14.4489 1.5 14.25 1.5ZM9.75 0C9.15326 0 8.58097 0.237053 8.15901 0.65901C7.73705 1.08097 7.5 1.65326 7.5 2.25V3.75C7.5 4.34674 7.73705 4.91903 8.15901 5.34099C8.58097 5.76295 9.15326 6 9.75 6H14.25C14.8467 6 15.419 5.76295 15.841 5.34099C16.2629 4.91903 16.5 4.34674 16.5 3.75V2.25C16.5 1.65326 16.2629 1.08097 15.841 0.65901C15.419 0.237053 14.8467 0 14.25 0L9.75 0ZM9.219 10.719C9.28867 10.6492 9.37143 10.5937 9.46255 10.5559C9.55367 10.5181 9.65135 10.4987 9.75 10.4987C9.84865 10.4987 9.94633 10.5181 10.0375 10.5559C10.1286 10.5937 10.2113 10.6492 10.281 10.719L12 12.4395L13.719 10.719C13.8598 10.5782 14.0508 10.4991 14.25 10.4991C14.4492 10.4991 14.6402 10.5782 14.781 10.719C14.9218 10.8598 15.0009 11.0508 15.0009 11.25C15.0009 11.4492 14.9218 11.6402 14.781 11.781L13.0605 13.5L14.781 15.219C14.9218 15.3598 15.0009 15.5508 15.0009 15.75C15.0009 15.9492 14.9218 16.1402 14.781 16.281C14.6402 16.4218 14.4492 16.5009 14.25 16.5009C14.0508 16.5009 13.8598 16.4218 13.719 16.281L12 14.5605L10.281 16.281C10.1402 16.4218 9.94916 16.5009 9.75 16.5009C9.55084 16.5009 9.35983 16.4218 9.219 16.281C9.07817 16.1402 8.99905 15.9492 8.99905 15.75C8.99905 15.5508 9.07817 15.3598 9.219 15.219L10.9395 13.5L9.219 11.781C9.14916 11.7113 9.09374 11.6286 9.05593 11.5374C9.01812 11.4463 8.99866 11.3486 8.99866 11.25C8.99866 11.1513 9.01812 11.0537 9.05593 10.9625C9.09374 10.8714 9.14916 10.7887 9.219 10.719Z" fill="black"/>
</svg>
