<svg width="24" height="24" viewBox="0 0 24 24" fill="none" xmlns="http://www.w3.org/2000/svg">
<path fill-rule="evenodd" clip-rule="evenodd" d="M6.609 5.013C8.10822 3.7202 10.0204 3.00621 12 3C16.035 3 19.3845 6 19.749 9.8685C22.137 10.206 24 12.2055 24 14.6595C24 17.3535 21.753 19.5 19.0305 19.5H5.6715C2.562 19.5 0 17.049 0 13.977C0 11.3325 1.899 9.1425 4.413 8.5875C4.6275 7.293 5.46 6.003 6.609 5.013ZM7.5885 6.1485C6.453 7.128 5.859 8.3085 5.859 9.2325V9.9045L5.1915 9.978C3.096 10.2075 1.5 11.928 1.5 13.977C1.5 16.1775 3.345 18 5.6715 18H19.0305C20.97 18 22.5 16.482 22.5 14.6595C22.5 12.8355 20.97 11.3175 19.0305 11.3175H18.2805V10.5675C18.282 7.2375 15.492 4.5 12 4.5C10.3798 4.50647 8.81526 5.09165 7.5885 6.15V6.1485Z" fill="black"/>
<path fill-rule="evenodd" clip-rule="evenodd" d="M11.4685 16.281C11.5382 16.3508 11.6209 16.4063 11.712 16.4441C11.8031 16.4819 11.9008 16.5013 11.9995 16.5013C12.0981 16.5013 12.1958 16.4819 12.2869 16.4441C12.378 16.4063 12.4608 16.3508 12.5305 16.281L15.5305 13.281C15.6002 13.2113 15.6555 13.1285 15.6933 13.0374C15.731 12.9463 15.7504 12.8486 15.7504 12.75C15.7504 12.6514 15.731 12.5537 15.6933 12.4626C15.6555 12.3715 15.6002 12.2887 15.5305 12.219C15.4608 12.1493 15.378 12.094 15.2869 12.0562C15.1957 12.0185 15.0981 11.9991 14.9995 11.9991C14.9009 11.9991 14.8032 12.0185 14.7121 12.0562C14.621 12.094 14.5382 12.1493 14.4685 12.219L12.7495 13.9395V8.25C12.7495 8.05109 12.6705 7.86032 12.5298 7.71967C12.3892 7.57902 12.1984 7.5 11.9995 7.5C11.8006 7.5 11.6098 7.57902 11.4692 7.71967C11.3285 7.86032 11.2495 8.05109 11.2495 8.25V13.9395L9.53048 12.219C9.38965 12.0782 9.19865 11.9991 8.99948 11.9991C8.80032 11.9991 8.60931 12.0782 8.46848 12.219C8.32765 12.3598 8.24854 12.5508 8.24854 12.75C8.24854 12.9492 8.32765 13.1402 8.46848 13.281L11.4685 16.281Z" fill="black"/>
</svg>
