<svg width="24" height="24" viewBox="0 0 24 24" fill="none" xmlns="http://www.w3.org/2000/svg">
<path fill-rule="evenodd" clip-rule="evenodd" d="M6.609 5.013C8.10822 3.7202 10.0204 3.00621 12 3C16.035 3 19.3845 6 19.749 9.8685C22.137 10.206 24 12.2055 24 14.6595C24 17.3535 21.753 19.5 19.0305 19.5H5.6715C2.562 19.5 0 17.049 0 13.977C0 11.3325 1.899 9.1425 4.413 8.5875C4.6275 7.293 5.46 6.003 6.609 5.013ZM7.5885 6.1485C6.453 7.128 5.859 8.3085 5.859 9.2325V9.9045L5.1915 9.978C3.096 10.2075 1.5 11.928 1.5 13.977C1.5 16.1775 3.345 18 5.6715 18H19.0305C20.97 18 22.5 16.482 22.5 14.6595C22.5 12.8355 20.97 11.3175 19.0305 11.3175H18.2805V10.5675C18.282 7.2375 15.492 4.5 12 4.5C10.3798 4.50647 8.81526 5.09165 7.5885 6.15V6.1485Z" fill="black"/>
<path fill-rule="evenodd" clip-rule="evenodd" d="M11.4685 7.71888C11.5382 7.64903 11.6209 7.59362 11.712 7.55581C11.8031 7.518 11.9008 7.49854 11.9995 7.49854C12.0981 7.49854 12.1958 7.518 12.2869 7.55581C12.378 7.59362 12.4608 7.64903 12.5305 7.71888L15.5305 10.7189C15.6002 10.7886 15.6555 10.8714 15.6933 10.9625C15.731 11.0536 15.7504 11.1513 15.7504 11.2499C15.7504 11.3485 15.731 11.4461 15.6933 11.5373C15.6555 11.6284 15.6002 11.7111 15.5305 11.7809C15.4608 11.8506 15.378 11.9059 15.2869 11.9437C15.1957 11.9814 15.0981 12.0008 14.9995 12.0008C14.9009 12.0008 14.8032 11.9814 14.7121 11.9437C14.621 11.9059 14.5382 11.8506 14.4685 11.7809L12.7495 10.0604V15.7499C12.7495 15.9488 12.6705 16.1396 12.5298 16.2802C12.3892 16.4209 12.1984 16.4999 11.9995 16.4999C11.8006 16.4999 11.6098 16.4209 11.4692 16.2802C11.3285 16.1396 11.2495 15.9488 11.2495 15.7499V10.0604L9.53048 11.7809C9.38965 11.9217 9.19865 12.0008 8.99948 12.0008C8.80032 12.0008 8.60931 11.9217 8.46848 11.7809C8.32765 11.64 8.24854 11.449 8.24854 11.2499C8.24854 11.0507 8.32765 10.8597 8.46848 10.7189L11.4685 7.71888Z" fill="black"/>
</svg>
