<svg width="24" height="24" viewBox="0 0 24 24" fill="none" xmlns="http://www.w3.org/2000/svg">
<path fill-rule="evenodd" clip-rule="evenodd" d="M7.28088 6.21891C7.35072 6.28858 7.40614 6.37134 7.44395 6.46246C7.48175 6.55358 7.50122 6.65126 7.50122 6.74991C7.50122 6.84856 7.48175 6.94624 7.44395 7.03736C7.40614 7.12848 7.35072 7.21124 7.28088 7.28091L2.56038 11.9999L7.28088 16.7189C7.42171 16.8597 7.50082 17.0507 7.50082 17.2499C7.50082 17.4491 7.42171 17.6401 7.28088 17.7809C7.14005 17.9217 6.94904 18.0009 6.74988 18.0009C6.55071 18.0009 6.35971 17.9217 6.21888 17.7809L0.968876 12.5309C0.899031 12.4612 0.843617 12.3785 0.805807 12.2874C0.767997 12.1962 0.748535 12.0986 0.748535 11.9999C0.748535 11.9013 0.767997 11.8036 0.805807 11.7125C0.843617 11.6213 0.899031 11.5386 0.968876 11.4689L6.21888 6.21891C6.28854 6.14906 6.37131 6.09365 6.46243 6.05584C6.55354 6.01803 6.65123 5.99857 6.74988 5.99857C6.84853 5.99857 6.94621 6.01803 7.03733 6.05584C7.12844 6.09365 7.21121 6.14906 7.28088 6.21891ZM16.7189 6.21891C16.649 6.28858 16.5936 6.37134 16.5558 6.46246C16.518 6.55358 16.4985 6.65126 16.4985 6.74991C16.4985 6.84856 16.518 6.94624 16.5558 7.03736C16.5936 7.12848 16.649 7.21124 16.7189 7.28091L21.4394 11.9999L16.7189 16.7189C16.6491 16.7886 16.5938 16.8714 16.5561 16.9625C16.5184 17.0536 16.4989 17.1513 16.4989 17.2499C16.4989 17.3485 16.5184 17.4462 16.5561 17.5373C16.5938 17.6284 16.6491 17.7112 16.7189 17.7809C16.7886 17.8506 16.8714 17.906 16.9625 17.9437C17.0536 17.9814 17.1513 18.0009 17.2499 18.0009C17.3485 18.0009 17.4461 17.9814 17.5373 17.9437C17.6284 17.906 17.7111 17.8506 17.7809 17.7809L23.0309 12.5309C23.1007 12.4612 23.1561 12.3785 23.1939 12.2874C23.2318 12.1962 23.2512 12.0986 23.2512 11.9999C23.2512 11.9013 23.2318 11.8036 23.1939 11.7125C23.1561 11.6213 23.1007 11.5386 23.0309 11.4689L17.7809 6.21891C17.7112 6.14906 17.6284 6.09365 17.5373 6.05584C17.4462 6.01803 17.3485 5.99857 17.2499 5.99857C17.1512 5.99857 17.0535 6.01803 16.9624 6.05584C16.8713 6.09365 16.7885 6.14906 16.7189 6.21891ZM15.2204 1.53291C15.4103 1.59167 15.5691 1.72342 15.6619 1.89921C15.7547 2.075 15.774 2.28045 15.7154 2.47041L9.71538 21.9704C9.65113 22.1533 9.51858 22.3042 9.34553 22.3914C9.17248 22.4787 8.97235 22.4956 8.78711 22.4386C8.60187 22.3816 8.4459 22.255 8.3519 22.0855C8.2579 21.916 8.23316 21.7167 8.28288 21.5294L14.2829 2.02941C14.3416 1.8395 14.4734 1.68069 14.6492 1.58788C14.825 1.49506 15.0304 1.47583 15.2204 1.53441V1.53291Z" fill="black"/>
</svg>
