<svg width="24" height="24" viewBox="0 0 24 24" fill="none" xmlns="http://www.w3.org/2000/svg">
<g clip-path="url(#clip0_1315_1020)">
<path fill-rule="evenodd" clip-rule="evenodd" d="M9.75 20.25H-9.75C-9.94891 20.25 -10.1397 20.171 -10.2803 20.0303C-10.421 19.8897 -10.5 19.6989 -10.5 19.5V9C-10.5 8.80109 -10.421 8.61032 -10.2803 8.46967C-10.1397 8.32902 -9.94891 8.25 -9.75 8.25H9.75C9.94891 8.25 10.1397 8.32902 10.2803 8.46967C10.421 8.61032 10.5 8.80109 10.5 9V19.5C10.5 19.6989 10.421 19.8897 10.2803 20.0303C10.1397 20.171 9.94891 20.25 9.75 20.25ZM-9.75 21.75C-10.3467 21.75 -10.919 21.5129 -11.341 21.091C-11.7629 20.669 -12 20.0967 -12 19.5V9C-12 8.40326 -11.7629 7.83097 -11.341 7.40901C-10.919 6.98705 -10.3467 6.75 -9.75 6.75H9.75C10.3467 6.75 10.919 6.98705 11.341 7.40901C11.7629 7.83097 12 8.40326 12 9V19.5C12 20.0967 11.7629 20.669 11.341 21.091C10.919 21.5129 10.3467 21.75 9.75 21.75H-9.75ZM-9 4.5C-9 4.69891 -8.92098 4.88968 -8.78033 5.03033C-8.63968 5.17098 -8.44891 5.25 -8.25 5.25H8.25C8.44891 5.25 8.63968 5.17098 8.78033 5.03033C8.92098 4.88968 9 4.69891 9 4.5C9 4.30109 8.92098 4.11032 8.78033 3.96967C8.63968 3.82902 8.44891 3.75 8.25 3.75H-8.25C-8.44891 3.75 -8.63968 3.82902 -8.78033 3.96967C-8.92098 4.11032 -9 4.30109 -9 4.5ZM-6 1.5C-6 1.69891 -5.92098 1.88968 -5.78033 2.03033C-5.63968 2.17098 -5.44891 2.25 -5.25 2.25H5.25C5.44891 2.25 5.63968 2.17098 5.78033 2.03033C5.92098 1.88968 6 1.69891 6 1.5C6 1.30109 5.92098 1.11032 5.78033 0.96967C5.63968 0.829018 5.44891 0.75 5.25 0.75H-5.25C-5.44891 0.75 -5.63968 0.829018 -5.78033 0.96967C-5.92098 1.11032 -6 1.30109 -6 1.5Z" fill="black"/>
</g>
<defs>
<clipPath id="clip0_1315_1020">
<rect width="24" height="24" fill="white"/>
</clipPath>
</defs>
</svg>
