<svg width="24" height="24" viewBox="0 0 24 24" fill="none" xmlns="http://www.w3.org/2000/svg">
<g clip-path="url(#clip0_1315_1024)">
<path fill-rule="evenodd" clip-rule="evenodd" d="M22.5 3H1.5V21H22.5V3ZM1.5 1.5C1.10218 1.5 0.720644 1.65804 0.43934 1.93934C0.158035 2.22064 0 2.60218 0 3L0 21C0 21.3978 0.158035 21.7794 0.43934 22.0607C0.720644 22.342 1.10218 22.5 1.5 22.5H22.5C22.8978 22.5 23.2794 22.342 23.5607 22.0607C23.842 21.7794 24 21.3978 24 21V3C24 2.60218 23.842 2.22064 23.5607 1.93934C23.2794 1.65804 22.8978 1.5 22.5 1.5H1.5Z" fill="black"/>
<path fill-rule="evenodd" clip-rule="evenodd" d="M11.25 21V3H12.75V21H11.25ZM11.25 9H1.5V7.5H11.25V9ZM22.5 16.5H12.75V15H22.5V16.5Z" fill="black"/>
</g>
<defs>
<clipPath id="clip0_1315_1024">
<rect width="24" height="24" fill="white"/>
</clipPath>
</defs>
</svg>
