<svg width="24" height="24" viewBox="0 0 24 24" fill="none" xmlns="http://www.w3.org/2000/svg">
<path d="M14.9548 7.32009L16.3843 13.0366C15.2383 13.3171 13.7098 13.5001 11.9998 13.5001C10.2898 13.5001 8.76278 13.3171 7.61528 13.0366L9.04478 7.32009C9.95228 7.43559 10.9498 7.50009 11.9998 7.50009C13.0498 7.50009 14.0473 7.43559 14.9548 7.32009ZM14.5873 5.85309L13.4548 1.32009C13.0768 -0.194912 10.9228 -0.194912 10.5448 1.32009L9.41228 5.85009C10.1998 5.94759 11.0728 6.00009 11.9998 6.00009C12.9268 6.00009 13.7998 5.94609 14.5873 5.85309ZM21.1813 18.7726C21.3391 18.8117 21.48 18.901 21.5826 19.0271C21.6853 19.1532 21.7442 19.3092 21.7505 19.4717C21.7567 19.6342 21.71 19.7943 21.6174 19.9279C21.5247 20.0616 21.3911 20.1615 21.2368 20.2126L12.2368 23.2126C12.0829 23.2638 11.9166 23.2638 11.7628 23.2126L2.76278 20.2126C2.60842 20.1615 2.47485 20.0616 2.3822 19.9279C2.28954 19.7943 2.24283 19.6342 2.24909 19.4717C2.25535 19.3092 2.31425 19.1532 2.41692 19.0271C2.51958 18.901 2.66044 18.8117 2.81828 18.7726L6.40478 17.8756L7.25228 14.4901C8.54528 14.8081 10.1983 14.9986 11.9998 14.9986C13.8013 14.9986 15.4543 14.8081 16.7473 14.4901L17.5948 17.8756L21.1813 18.7726Z" fill="black"/>
</svg>
