<svg width="24" height="24" viewBox="0 0 24 24" fill="none" xmlns="http://www.w3.org/2000/svg">
<path fill-rule="evenodd" clip-rule="evenodd" d="M4.66669 0.666672C4.8435 0.666672 5.01307 0.73691 5.13809 0.861934C5.26312 0.986958 5.33335 1.15653 5.33335 1.33334V18.6667H22.6667C22.8435 18.6667 23.0131 18.7369 23.1381 18.8619C23.2631 18.987 23.3334 19.1565 23.3334 19.3333C23.3334 19.5101 23.2631 19.6797 23.1381 19.8047C23.0131 19.9298 22.8435 20 22.6667 20H20V22.6667C20 22.8435 19.9298 23.0131 19.8048 23.1381C19.6797 23.2631 19.5102 23.3333 19.3334 23.3333C19.1565 23.3333 18.987 23.2631 18.8619 23.1381C18.7369 23.0131 18.6667 22.8435 18.6667 22.6667V20H4.66669C4.48988 20 4.32031 19.9298 4.19528 19.8047C4.07026 19.6797 4.00002 19.5101 4.00002 19.3333V5.33334H1.33335C1.15654 5.33334 0.986973 5.2631 0.861949 5.13808C0.736925 5.01305 0.666687 4.84348 0.666687 4.66667C0.666687 4.48986 0.736925 4.32029 0.861949 4.19527C0.986973 4.07024 1.15654 4 1.33335 4H4.00002V1.33334C4.00002 1.15653 4.07026 0.986958 4.19528 0.861934C4.32031 0.73691 4.48988 0.666672 4.66669 0.666672ZM8.00002 4.66667C8.00002 4.48986 8.07026 4.32029 8.19528 4.19527C8.32031 4.07024 8.48988 4 8.66669 4H19.3334C19.5102 4 19.6797 4.07024 19.8048 4.19527C19.9298 4.32029 20 4.48986 20 4.66667V15.3333C20 15.5101 19.9298 15.6797 19.8048 15.8047C19.6797 15.9298 19.5102 16 19.3334 16C19.1565 16 18.987 15.9298 18.8619 15.8047C18.7369 15.6797 18.6667 15.5101 18.6667 15.3333V5.33334H8.66669C8.48988 5.33334 8.32031 5.2631 8.19528 5.13808C8.07026 5.01305 8.00002 4.84348 8.00002 4.66667Z" fill="black"/>
</svg>
