<svg width="24" height="24" viewBox="0 0 24 24" fill="none" xmlns="http://www.w3.org/2000/svg">
<path fill-rule="evenodd" clip-rule="evenodd" d="M20.9461 1.38408C21.02 1.55781 21.0176 1.75208 20.9394 1.92416C20.8612 2.09624 20.7136 2.23205 20.5291 2.30173L17.1466 3.57514L16.4536 6.51161C17.0161 6.64714 17.5246 6.81655 17.9101 7.03114C18.2521 7.22172 18.7501 7.5902 18.7501 8.18878C18.7501 8.25372 18.7441 8.31584 18.7336 8.37514L17.3011 21.177C17.2781 21.4362 17.1961 21.6877 17.0604 21.9143C16.9248 22.1409 16.7387 22.3372 16.5151 22.49C15.7831 22.97 14.2741 23.7182 12.0001 23.7182C9.72605 23.7182 8.21705 22.97 7.48505 22.49C7.26137 22.3372 7.07534 22.1409 6.93969 21.9143C6.80404 21.6877 6.72196 21.4362 6.69905 21.177L5.26505 8.37514C5.25445 8.31353 5.24943 8.25119 5.25005 8.18878C5.25005 7.5902 5.74805 7.22172 6.09005 7.03114C6.48305 6.81372 7.00055 6.64149 7.57505 6.50596C8.73605 6.23208 10.3006 6.07114 12.0001 6.07114C13.0681 6.07114 14.0836 6.13467 14.9776 6.25043L15.7681 2.90455C15.7946 2.79267 15.8498 2.68857 15.9287 2.60124C16.0076 2.51392 16.108 2.44601 16.2211 2.40337L19.9711 0.991608C20.0625 0.957184 20.1604 0.940067 20.2589 0.941233C20.3574 0.9424 20.4547 0.961828 20.5453 0.998406C20.6358 1.03499 20.7178 1.088 20.7866 1.15442C20.8554 1.22083 20.9095 1.29935 20.9461 1.38549V1.38408ZM14.6521 7.63537C13.7724 7.53188 12.8866 7.48095 12.0001 7.4829C10.3861 7.4829 8.95055 7.6382 7.93955 7.87537C7.60483 7.94767 7.27906 8.05271 6.96755 8.18878C7.18655 8.29184 7.51055 8.40055 7.93955 8.5022C8.95055 8.73937 10.3861 8.89467 12.0001 8.89467C12.8566 8.89467 13.6636 8.85231 14.3821 8.77467L14.6521 7.63396V7.63537ZM15.0901 10.1144C15.7684 10.0523 16.4359 9.91145 17.0776 9.69514L15.8101 21.0316C15.7906 21.201 15.7201 21.2928 15.6571 21.3337C15.1216 21.6853 13.9066 22.3078 12.0001 22.3078C10.0951 22.3078 8.88005 21.6853 8.34305 21.3337C8.28155 21.2928 8.20805 21.201 8.19005 21.0316L6.92255 9.69514C7.12805 9.76008 7.34705 9.81937 7.57505 9.87302C8.73605 10.1469 10.3006 10.3078 12.0001 10.3078C13.1131 10.3078 14.1676 10.2387 15.0901 10.1144ZM6.70055 8.02502C6.70055 8.02502 6.70505 8.02784 6.70805 8.03349L6.70055 8.02502ZM17.2996 8.02502L17.2921 8.03349C17.2941 8.03033 17.2966 8.02747 17.2996 8.02502ZM17.0311 8.18878C16.694 8.33649 16.3402 8.44779 15.9766 8.52055L16.1266 7.8909C16.5226 7.98831 16.8226 8.09137 17.0311 8.18878Z" fill="black"/>
</svg>
