<svg width="24" height="24" viewBox="0 0 24 24" fill="none" xmlns="http://www.w3.org/2000/svg">
<g clip-path="url(#clip0_1315_1102)">
<path fill-rule="evenodd" clip-rule="evenodd" d="M10.4223 0.6525C11.2923 -0.2175 12.7023 -0.2175 13.5723 0.6525L23.3448 10.4265C24.2148 11.2965 24.2148 12.705 23.3448 13.5735L13.5723 23.3475C12.7023 24.2175 11.2938 24.2175 10.4253 23.3475L0.649775 13.575C0.44287 13.3685 0.27872 13.1233 0.16672 12.8533C0.0547202 12.5832 -0.00292969 12.2938 -0.00292969 12.0015C-0.00292969 11.7092 0.0547202 11.4198 0.16672 11.1497C0.27872 10.8797 0.44287 10.6345 0.649775 10.428L10.4223 0.6525ZM12.5223 1.7025C12.383 1.56327 12.1942 1.48505 11.9973 1.48505C11.8004 1.48505 11.6115 1.56327 11.4723 1.7025L1.69828 11.475C1.55905 11.6142 1.48083 11.8031 1.48083 12C1.48083 12.1969 1.55905 12.3858 1.69828 12.525L11.4723 22.299C11.6115 22.4382 11.8004 22.5164 11.9973 22.5164C12.1942 22.5164 12.383 22.4382 12.5223 22.299L22.2963 12.525C22.4355 12.3858 22.5137 12.1969 22.5137 12C22.5137 11.8031 22.4355 11.6142 22.2963 11.475L12.5223 1.701V1.7025Z" fill="black"/>
</g>
<defs>
<clipPath id="clip0_1315_1102">
<rect width="24" height="24" fill="white"/>
</clipPath>
</defs>
</svg>
