<svg width="24" height="24" viewBox="0 0 24 24" fill="none" xmlns="http://www.w3.org/2000/svg">
<g clip-path="url(#clip0_1315_1132)">
<path fill-rule="evenodd" clip-rule="evenodd" d="M19.5 1.5H4.5C3.70435 1.5 2.94129 1.81607 2.37868 2.37868C1.81607 2.94129 1.5 3.70435 1.5 4.5V19.5C1.5 20.2956 1.81607 21.0587 2.37868 21.6213C2.94129 22.1839 3.70435 22.5 4.5 22.5H19.5C20.2956 22.5 21.0587 22.1839 21.6213 21.6213C22.1839 21.0587 22.5 20.2956 22.5 19.5V4.5C22.5 3.70435 22.1839 2.94129 21.6213 2.37868C21.0587 1.81607 20.2956 1.5 19.5 1.5ZM4.5 0C3.30653 0 2.16193 0.474106 1.31802 1.31802C0.474106 2.16193 0 3.30653 0 4.5L0 19.5C0 20.6935 0.474106 21.8381 1.31802 22.682C2.16193 23.5259 3.30653 24 4.5 24H19.5C20.6935 24 21.8381 23.5259 22.682 22.682C23.5259 21.8381 24 20.6935 24 19.5V4.5C24 3.30653 23.5259 2.16193 22.682 1.31802C21.8381 0.474106 20.6935 0 19.5 0L4.5 0Z" fill="black"/>
<path d="M6 8.25C7.24264 8.25 8.25 7.24264 8.25 6C8.25 4.75736 7.24264 3.75 6 3.75C4.75736 3.75 3.75 4.75736 3.75 6C3.75 7.24264 4.75736 8.25 6 8.25Z" fill="black"/>
<path d="M18 8.25C19.2426 8.25 20.25 7.24264 20.25 6C20.25 4.75736 19.2426 3.75 18 3.75C16.7574 3.75 15.75 4.75736 15.75 6C15.75 7.24264 16.7574 8.25 18 8.25Z" fill="black"/>
<path d="M18 20.25C19.2426 20.25 20.25 19.2426 20.25 18C20.25 16.7574 19.2426 15.75 18 15.75C16.7574 15.75 15.75 16.7574 15.75 18C15.75 19.2426 16.7574 20.25 18 20.25Z" fill="black"/>
<path d="M6 20.25C7.24264 20.25 8.25 19.2426 8.25 18C8.25 16.7574 7.24264 15.75 6 15.75C4.75736 15.75 3.75 16.7574 3.75 18C3.75 19.2426 4.75736 20.25 6 20.25Z" fill="black"/>
<path d="M12 14.25C13.2426 14.25 14.25 13.2426 14.25 12C14.25 10.7574 13.2426 9.75 12 9.75C10.7574 9.75 9.75 10.7574 9.75 12C9.75 13.2426 10.7574 14.25 12 14.25Z" fill="black"/>
</g>
<defs>
<clipPath id="clip0_1315_1132">
<rect width="24" height="24" fill="white"/>
</clipPath>
</defs>
</svg>
