<svg width="24" height="24" viewBox="0 0 24 24" fill="none" xmlns="http://www.w3.org/2000/svg">
<g clip-path="url(#clip0_1315_1188)">
<path d="M12.7099 0.50541C12.6593 0.357514 12.5636 0.229152 12.4364 0.138271C12.3092 0.0473908 12.1568 -0.00146484 12.0004 -0.00146484C11.8441 -0.00146484 11.6917 0.0473908 11.5645 0.138271C11.4373 0.229152 11.3416 0.357514 11.2909 0.50541L10.4314 2.99991H13.5694L12.7099 0.50541ZM18.2254 16.4999H16.6384L18.7909 22.7444C18.8558 22.9326 18.9927 23.0873 19.1716 23.1745C19.3506 23.2617 19.5568 23.2743 19.7449 23.2094C19.9331 23.1446 20.0878 23.0076 20.175 22.8287C20.2622 22.6498 20.2748 22.4436 20.2099 22.2554L18.2254 16.4999ZM12.7504 16.4999H11.2504V20.2499C11.2504 20.4488 11.3295 20.6396 11.4701 20.7802C11.6108 20.9209 11.8015 20.9999 12.0004 20.9999C12.1994 20.9999 12.3901 20.9209 12.5308 20.7802C12.6714 20.6396 12.7504 20.4488 12.7504 20.2499V16.4999ZM7.36245 16.4999H5.77545L3.79095 22.2554C3.7261 22.4436 3.73866 22.6498 3.82587 22.8287C3.91307 23.0076 4.06778 23.1446 4.25595 23.2094C4.44412 23.2743 4.65034 23.2617 4.82925 23.1745C5.00816 23.0873 5.1451 22.9326 5.20995 22.7444L7.36245 16.4999Z" fill="black"/>
<path fill-rule="evenodd" clip-rule="evenodd" d="M21 4.5H3V15H21V4.5ZM3 3C2.60218 3 2.22064 3.15804 1.93934 3.43934C1.65804 3.72064 1.5 4.10218 1.5 4.5V15C1.5 15.3978 1.65804 15.7794 1.93934 16.0607C2.22064 16.342 2.60218 16.5 3 16.5H21C21.3978 16.5 21.7794 16.342 22.0607 16.0607C22.342 15.7794 22.5 15.3978 22.5 15V4.5C22.5 4.10218 22.342 3.72064 22.0607 3.43934C21.7794 3.15804 21.3978 3 21 3H3Z" fill="black"/>
</g>
<defs>
<clipPath id="clip0_1315_1188">
<rect width="24" height="24" fill="white"/>
</clipPath>
</defs>
</svg>
