<svg width="24" height="24" viewBox="0 0 24 24" fill="none" xmlns="http://www.w3.org/2000/svg">
<g clip-path="url(#clip0_1315_1214)">
<path fill-rule="evenodd" clip-rule="evenodd" d="M12 22.5C14.7848 22.5 17.4555 21.3938 19.4246 19.4246C21.3938 17.4555 22.5 14.7848 22.5 12C22.5 9.21523 21.3938 6.54451 19.4246 4.57538C17.4555 2.60625 14.7848 1.5 12 1.5C9.21523 1.5 6.54451 2.60625 4.57538 4.57538C2.60625 6.54451 1.5 9.21523 1.5 12C1.5 14.7848 2.60625 17.4555 4.57538 19.4246C6.54451 21.3938 9.21523 22.5 12 22.5ZM12 24C15.1826 24 18.2348 22.7357 20.4853 20.4853C22.7357 18.2348 24 15.1826 24 12C24 8.8174 22.7357 5.76516 20.4853 3.51472C18.2348 1.26428 15.1826 0 12 0C8.8174 0 5.76516 1.26428 3.51472 3.51472C1.26428 5.76516 0 8.8174 0 12C0 15.1826 1.26428 18.2348 3.51472 20.4853C5.76516 22.7357 8.8174 24 12 24Z" fill="black"/>
<path fill-rule="evenodd" clip-rule="evenodd" d="M6.42771 18.6495C6.59997 18.749 6.80468 18.7759 6.99681 18.7244C7.18894 18.6729 7.35275 18.5473 7.45221 18.375C7.91288 17.5765 8.57579 16.9135 9.37421 16.4526C10.1726 15.9918 11.0784 15.7495 12.0002 15.75C13.9427 15.75 15.6392 16.8045 16.5482 18.375C16.6484 18.5459 16.8121 18.6702 17.0035 18.7208C17.195 18.7714 17.3987 18.7442 17.5702 18.6452C17.7417 18.5462 17.8671 18.3833 17.919 18.1922C17.9709 18.0011 17.9451 17.7972 17.8472 17.625C17.2549 16.5985 16.4026 15.7461 15.3762 15.1536C14.3498 14.5611 13.1854 14.2495 12.0002 14.25C10.8151 14.2498 9.65084 14.5615 8.62446 15.154C7.59808 15.7464 6.74576 16.5987 6.15321 17.625C6.05376 17.7973 6.02681 18.002 6.07829 18.1941C6.12977 18.3862 6.25546 18.55 6.42771 18.6495Z" fill="black"/>
<path d="M10.5 9.75C10.5 10.992 9.828 12 9 12C8.172 12 7.5 10.992 7.5 9.75C7.5 8.508 8.172 7.5 9 7.5C9.828 7.5 10.5 8.508 10.5 9.75ZM16.5 9.75C16.5 10.992 15.828 12 15 12C14.172 12 13.5 10.992 13.5 9.75C13.5 8.508 14.172 7.5 15 7.5C15.828 7.5 16.5 8.508 16.5 9.75Z" fill="black"/>
</g>
<defs>
<clipPath id="clip0_1315_1214">
<rect width="24" height="24" fill="white"/>
</clipPath>
</defs>
</svg>
