<svg width="24" height="24" viewBox="0 0 24 24" fill="none" xmlns="http://www.w3.org/2000/svg">
<g clip-path="url(#clip0_1315_1230)">
<path fill-rule="evenodd" clip-rule="evenodd" d="M12 22.5C14.7848 22.5 17.4555 21.3938 19.4246 19.4246C21.3938 17.4555 22.5 14.7848 22.5 12C22.5 9.21523 21.3938 6.54451 19.4246 4.57538C17.4555 2.60625 14.7848 1.5 12 1.5C9.21523 1.5 6.54451 2.60625 4.57538 4.57538C2.60625 6.54451 1.5 9.21523 1.5 12C1.5 14.7848 2.60625 17.4555 4.57538 19.4246C6.54451 21.3938 9.21523 22.5 12 22.5ZM12 24C15.1826 24 18.2348 22.7357 20.4853 20.4853C22.7357 18.2348 24 15.1826 24 12C24 8.8174 22.7357 5.76516 20.4853 3.51472C18.2348 1.26428 15.1826 0 12 0C8.8174 0 5.76516 1.26428 3.51472 3.51472C1.26428 5.76516 0 8.8174 0 12C0 15.1826 1.26428 18.2348 3.51472 20.4853C5.76516 22.7357 8.8174 24 12 24Z" fill="black"/>
<path fill-rule="evenodd" clip-rule="evenodd" d="M6.42771 14.3504C6.59997 14.251 6.80468 14.224 6.99681 14.2755C7.18894 14.327 7.35275 14.4527 7.45221 14.6249C7.91288 15.4234 8.57579 16.0865 9.37421 16.5473C10.1726 17.0081 11.0784 17.2505 12.0002 17.2499C12.9221 17.2505 13.8278 17.0081 14.6262 16.5473C15.4246 16.0865 16.0875 15.4234 16.5482 14.6249C16.5971 14.5389 16.6625 14.4635 16.7407 14.4029C16.8189 14.3423 16.9082 14.2977 17.0037 14.2718C17.0991 14.2459 17.1988 14.2391 17.2969 14.2519C17.395 14.2646 17.4896 14.2966 17.5752 14.3461C17.6609 14.3955 17.7359 14.4615 17.796 14.54C17.8561 14.6186 17.9 14.7083 17.9253 14.8039C17.9506 14.8995 17.9567 14.9992 17.9433 15.0972C17.9299 15.1952 17.8972 15.2896 17.8472 15.3749C17.2549 16.4014 16.4026 17.2538 15.3762 17.8463C14.3498 18.4388 13.1854 18.7505 12.0002 18.7499C10.8151 18.7505 9.65066 18.4388 8.62423 17.8463C7.59779 17.2538 6.74553 16.4014 6.15321 15.3749C6.05376 15.2027 6.02681 14.9979 6.07829 14.8058C6.12977 14.6137 6.25546 14.4499 6.42771 14.3504Z" fill="black"/>
<path d="M10.5 9.75C10.5 10.992 9.828 12 9 12C8.172 12 7.5 10.992 7.5 9.75C7.5 8.508 8.172 7.5 9 7.5C9.828 7.5 10.5 8.508 10.5 9.75ZM16.5 9.75C16.5 10.992 15.828 12 15 12C14.172 12 13.5 10.992 13.5 9.75C13.5 8.508 14.172 7.5 15 7.5C15.828 7.5 16.5 8.508 16.5 9.75Z" fill="black"/>
</g>
<defs>
<clipPath id="clip0_1315_1230">
<rect width="24" height="24" fill="white"/>
</clipPath>
</defs>
</svg>
