<svg width="24" height="24" viewBox="0 0 24 24" fill="none" xmlns="http://www.w3.org/2000/svg">
<g clip-path="url(#clip0_1315_1242)">
<path fill-rule="evenodd" clip-rule="evenodd" d="M12.705 1.97686C12.488 1.8613 12.2459 1.80086 12 1.80086C11.7541 1.80086 11.512 1.8613 11.295 1.97686L2.295 6.77686C2.05503 6.90464 1.8543 7.09523 1.71428 7.32826C1.57425 7.56129 1.50018 7.82799 1.5 8.09986V9.32686L10.086 14.5244L12 13.3754L13.914 14.5244L22.5 9.32686V8.09986C22.4998 7.82799 22.4258 7.56129 22.2857 7.32826C22.1457 7.09523 21.945 6.90464 21.705 6.77686L12.705 1.97686ZM22.5 11.0819L15.369 15.3974L22.5 19.6754V11.0804V11.0819ZM22.4475 21.3929L12 15.1244L1.5525 21.3944C1.63906 21.7119 1.82767 21.9922 2.08925 22.192C2.35083 22.3917 2.67086 22.4999 3 22.4999H21C21.3293 22.4998 21.6495 22.3914 21.9111 22.1914C22.1727 21.9913 22.3612 21.7107 22.4475 21.3929ZM1.5 19.6754L8.631 15.3974L1.5 11.0804V19.6754ZM10.5885 0.652361C11.0229 0.420724 11.5077 0.299561 12 0.299561C12.4923 0.299561 12.9771 0.420724 13.4115 0.652361L22.4115 5.45236C22.8914 5.70823 23.2927 6.08974 23.5725 6.55607C23.8523 7.02241 24.0001 7.55603 24 8.09986V20.9999C24 21.7955 23.6839 22.5586 23.1213 23.1212C22.5587 23.6838 21.7956 23.9999 21 23.9999H3C2.20435 23.9999 1.44129 23.6838 0.87868 23.1212C0.316071 22.5586 1.50058e-08 21.7955 1.50058e-08 20.9999V8.09986C-5.437e-05 7.55603 0.147721 7.02241 0.427521 6.55607C0.707321 6.08974 1.10862 5.70823 1.5885 5.45236L10.5885 0.652361Z" fill="black"/>
</g>
<defs>
<clipPath id="clip0_1315_1242">
<rect width="24" height="24" fill="white"/>
</clipPath>
</defs>
</svg>
