<svg width="24" height="24" viewBox="0 0 24 24" fill="none" xmlns="http://www.w3.org/2000/svg">
<g clip-path="url(#clip0_1315_1253)">
<path fill-rule="evenodd" clip-rule="evenodd" d="M10.4223 0.6525C11.2923 -0.2175 12.7023 -0.2175 13.5723 0.6525L23.3448 10.4265C24.2148 11.2965 24.2148 12.705 23.3448 13.5735L13.5723 23.3475C12.7023 24.2175 11.2938 24.2175 10.4253 23.3475L0.649775 13.575C0.44287 13.3685 0.27872 13.1233 0.16672 12.8533C0.0547202 12.5832 -0.00292969 12.2938 -0.00292969 12.0015C-0.00292969 11.7092 0.0547202 11.4198 0.16672 11.1497C0.27872 10.8797 0.44287 10.6345 0.649775 10.428L10.4223 0.6525ZM12.5223 1.7025C12.383 1.56327 12.1942 1.48505 11.9973 1.48505C11.8004 1.48505 11.6115 1.56327 11.4723 1.7025L1.69828 11.475C1.55905 11.6142 1.48083 11.8031 1.48083 12C1.48083 12.1969 1.55905 12.3858 1.69828 12.525L11.4723 22.299C11.6115 22.4382 11.8004 22.5164 11.9973 22.5164C12.1942 22.5164 12.383 22.4382 12.5223 22.299L22.2963 12.525C22.4355 12.3858 22.5137 12.1969 22.5137 12C22.5137 11.8031 22.4355 11.6142 22.2963 11.475L12.5223 1.701V1.7025Z" fill="black"/>
<path d="M10.5029 16.5002C10.5029 16.3032 10.5417 16.1081 10.6171 15.9262C10.6925 15.7442 10.803 15.5788 10.9423 15.4395C11.0816 15.3002 11.2469 15.1897 11.4289 15.1144C11.6109 15.039 11.8059 15.0002 12.0029 15.0002C12.1999 15.0002 12.395 15.039 12.577 15.1144C12.7589 15.1897 12.9243 15.3002 13.0636 15.4395C13.2029 15.5788 13.3134 15.7442 13.3887 15.9262C13.4641 16.1081 13.5029 16.3032 13.5029 16.5002C13.5029 16.898 13.3449 17.2795 13.0636 17.5608C12.7823 17.8421 12.4008 18.0002 12.0029 18.0002C11.6051 18.0002 11.2236 17.8421 10.9423 17.5608C10.661 17.2795 10.5029 16.898 10.5029 16.5002ZM10.6499 7.49268C10.63 7.30344 10.65 7.11211 10.7087 6.93112C10.7675 6.75012 10.8636 6.5835 10.9909 6.44206C11.1182 6.30062 11.2738 6.18752 11.4476 6.1101C11.6215 6.03268 11.8096 5.99268 11.9999 5.99268C12.1902 5.99268 12.3784 6.03268 12.5522 6.1101C12.726 6.18752 12.8817 6.30062 13.009 6.44206C13.1362 6.5835 13.2324 6.75012 13.2911 6.93112C13.3499 7.11211 13.3699 7.30344 13.3499 7.49268L12.8249 12.7532C12.8073 12.9598 12.7127 13.1523 12.56 13.2926C12.4072 13.4329 12.2073 13.5108 11.9999 13.5108C11.7925 13.5108 11.5927 13.4329 11.4399 13.2926C11.2871 13.1523 11.1926 12.9598 11.1749 12.7532L10.6499 7.49268Z" fill="black"/>
</g>
<defs>
<clipPath id="clip0_1315_1253">
<rect width="24" height="24" fill="white"/>
</clipPath>
</defs>
</svg>
