<svg width="24" height="24" viewBox="0 0 24 24" fill="none" xmlns="http://www.w3.org/2000/svg">
<g clip-path="url(#clip0_1315_1261)">
<path fill-rule="evenodd" clip-rule="evenodd" d="M3 0C2.20435 0 1.44129 0.316071 0.87868 0.87868C0.316071 1.44129 0 2.20435 0 3L0 21C0 21.7956 0.316071 22.5587 0.87868 23.1213C1.44129 23.6839 2.20435 24 3 24H21C21.7956 24 22.5587 23.6839 23.1213 23.1213C23.6839 22.5587 24 21.7956 24 21V3C24 2.20435 23.6839 1.44129 23.1213 0.87868C22.5587 0.316071 21.7956 0 21 0L3 0ZM12 6C11.8104 6.00011 11.6229 6.03993 11.4497 6.11689C11.2764 6.19386 11.1212 6.30626 10.994 6.44687C10.8668 6.58747 10.7705 6.75316 10.7113 6.93325C10.652 7.11334 10.6311 7.30385 10.65 7.4925L11.175 12.753C11.1926 12.9597 11.2872 13.1522 11.44 13.2925C11.5927 13.4327 11.7926 13.5106 12 13.5106C12.2074 13.5106 12.4073 13.4327 12.56 13.2925C12.7128 13.1522 12.8074 12.9597 12.825 12.753L13.35 7.4925C13.3689 7.30385 13.348 7.11334 13.2887 6.93325C13.2295 6.75316 13.1332 6.58747 13.006 6.44687C12.8788 6.30626 12.7236 6.19386 12.5503 6.11689C12.3771 6.03993 12.1896 6.00011 12 6ZM12.003 15C11.6052 15 11.2236 15.158 10.9423 15.4393C10.661 15.7206 10.503 16.1022 10.503 16.5C10.503 16.8978 10.661 17.2794 10.9423 17.5607C11.2236 17.842 11.6052 18 12.003 18C12.4008 18 12.7824 17.842 13.0637 17.5607C13.345 17.2794 13.503 16.8978 13.503 16.5C13.503 16.1022 13.345 15.7206 13.0637 15.4393C12.7824 15.158 12.4008 15 12.003 15Z" fill="black"/>
</g>
<defs>
<clipPath id="clip0_1315_1261">
<rect width="24" height="24" fill="white"/>
</clipPath>
</defs>
</svg>
