<svg width="26" height="24" viewBox="0 0 26 24" fill="none" xmlns="http://www.w3.org/2000/svg">
<path fill-rule="evenodd" clip-rule="evenodd" d="M13.4726 2.34893C13.3241 2.09027 13.11 1.87538 12.8519 1.72594C12.5938 1.5765 12.3008 1.4978 12.0026 1.4978C11.7043 1.4978 11.4113 1.5765 11.1532 1.72594C10.8951 1.87538 10.681 2.09027 10.5326 2.34893L0.247053 19.8494C-0.438447 21.0164 0.383553 22.4999 1.71705 22.4999H22.2866C23.6201 22.4999 24.4436 21.0149 23.7566 19.8494L13.4726 2.34893ZM11.9996 7.49993C11.81 7.50003 11.6225 7.53985 11.4492 7.61682C11.276 7.69379 11.1207 7.80619 10.9936 7.94679C10.8664 8.0874 10.7701 8.25308 10.7108 8.43318C10.6516 8.61327 10.6307 8.80378 10.6496 8.99243L11.1746 14.2529C11.1922 14.4596 11.2867 14.6521 11.4395 14.7924C11.5923 14.9327 11.7921 15.0105 11.9996 15.0105C12.207 15.0105 12.4068 14.9327 12.5596 14.7924C12.7124 14.6521 12.8069 14.4596 12.8246 14.2529L13.3496 8.99243C13.3684 8.80378 13.3475 8.61327 13.2883 8.43318C13.229 8.25308 13.1327 8.0874 13.0055 7.94679C12.8784 7.80619 12.7231 7.69379 12.5499 7.61682C12.3766 7.53985 12.1891 7.50003 11.9996 7.49993ZM12.0026 16.4999C11.6047 16.4999 11.2232 16.658 10.9419 16.9393C10.6606 17.2206 10.5026 17.6021 10.5026 17.9999C10.5026 18.3978 10.6606 18.7793 10.9419 19.0606C11.2232 19.3419 11.6047 19.4999 12.0026 19.4999C12.4004 19.4999 12.7819 19.3419 13.0632 19.0606C13.3445 18.7793 13.5026 18.3978 13.5026 17.9999C13.5026 17.6021 13.3445 17.2206 13.0632 16.9393C12.7819 16.658 12.4004 16.4999 12.0026 16.4999Z" fill="black"/>
</svg>
