<svg width="25" height="24" viewBox="0 0 25 24" fill="none" xmlns="http://www.w3.org/2000/svg">
<g clip-path="url(#clip0_1315_1282)">
<path d="M20.5399 16.857C23.0914 14.58 24.5014 12 24.5014 12C24.5014 12 20.0014 3.75 12.5014 3.75C11.0608 3.75496 9.63649 4.05514 8.31641 4.632L9.47141 5.7885C10.4426 5.43473 11.4678 5.25252 12.5014 5.25C15.6814 5.25 18.3199 7.002 20.2534 8.9355C21.1839 9.87104 22.0181 10.8977 22.7434 12C22.6564 12.1305 22.5604 12.2745 22.4509 12.432C21.9484 13.152 21.2059 14.112 20.2534 15.0645C20.0059 15.312 19.7479 15.5565 19.4779 15.7935L20.5399 16.857Z" fill="black"/>
<path d="M17.446 13.7642C17.7808 12.8279 17.8427 11.8159 17.6248 10.8458C17.4068 9.8757 16.9179 8.98745 16.2148 8.28439C15.5117 7.58134 14.6235 7.09238 13.6534 6.87441C12.6833 6.65644 11.6713 6.71843 10.735 7.05317L11.9695 8.28767C12.546 8.20515 13.1338 8.25803 13.6862 8.44211C14.2387 8.62619 14.7407 8.93641 15.1525 9.34818C15.5643 9.75996 15.8745 10.262 16.0586 10.8145C16.2427 11.3669 16.2955 11.9547 16.213 12.5312L17.446 13.7642ZM13.0315 15.7127L14.2645 16.9457C13.3283 17.2804 12.3163 17.3424 11.3462 17.1244C10.3761 16.9065 9.48782 16.4175 8.78476 15.7144C8.0817 15.0114 7.59274 14.1231 7.37478 13.153C7.15681 12.1829 7.2188 11.1709 7.55353 10.2347L8.78803 11.4692C8.70552 12.0456 8.7584 12.6334 8.94248 13.1859C9.12655 13.7384 9.43677 14.2404 9.84855 14.6521C10.2603 15.0639 10.7623 15.3741 11.3148 15.5582C11.8673 15.7423 12.4551 15.7952 13.0315 15.7127Z" fill="black"/>
<path d="M5.525 8.20494C5.255 8.44494 4.9955 8.68794 4.748 8.93544C3.81747 9.87098 2.98328 10.8976 2.258 11.9999L2.5505 12.4319C3.053 13.1519 3.7955 14.1119 4.748 15.0644C6.6815 16.9979 9.3215 18.7499 12.5 18.7499C13.574 18.7499 14.585 18.5504 15.53 18.2099L16.685 19.3679C15.3649 19.9448 13.9406 20.2449 12.5 20.2499C5 20.2499 0.5 11.9999 0.5 11.9999C0.5 11.9999 1.9085 9.41844 4.4615 7.14294L5.5235 8.20644L5.525 8.20494Z" fill="black"/>
<path fill-rule="evenodd" clip-rule="evenodd" d="M20.9697 21.531L2.96973 3.53099L4.03173 2.46899L22.0317 20.469L20.9697 21.531Z" fill="black"/>
</g>
<defs>
<clipPath id="clip0_1315_1282">
<rect width="24" height="24" fill="white" transform="translate(0.5)"/>
</clipPath>
</defs>
</svg>
