<svg width="25" height="24" viewBox="0 0 25 24" fill="none" xmlns="http://www.w3.org/2000/svg">
<g clip-path="url(#clip0_1315_1275)">
<path d="M16.25 12C16.25 12.9946 15.8549 13.9484 15.1517 14.6517C14.4484 15.3549 13.4946 15.75 12.5 15.75C11.5054 15.75 10.5516 15.3549 9.84835 14.6517C9.14509 13.9484 8.75 12.9946 8.75 12C8.75 11.0054 9.14509 10.0516 9.84835 9.34835C10.5516 8.64509 11.5054 8.25 12.5 8.25C13.4946 8.25 14.4484 8.64509 15.1517 9.34835C15.8549 10.0516 16.25 11.0054 16.25 12Z" fill="black"/>
<path fill-rule="evenodd" clip-rule="evenodd" d="M0.5 12C0.5 12 5 3.75 12.5 3.75C20 3.75 24.5 12 24.5 12C24.5 12 20 20.25 12.5 20.25C5 20.25 0.5 12 0.5 12ZM12.5 17.25C13.8924 17.25 15.2277 16.6969 16.2123 15.7123C17.1969 14.7277 17.75 13.3924 17.75 12C17.75 10.6076 17.1969 9.27226 16.2123 8.28769C15.2277 7.30312 13.8924 6.75 12.5 6.75C11.1076 6.75 9.77226 7.30312 8.78769 8.28769C7.80312 9.27226 7.25 10.6076 7.25 12C7.25 13.3924 7.80312 14.7277 8.78769 15.7123C9.77226 16.6969 11.1076 17.25 12.5 17.25Z" fill="black"/>
</g>
<defs>
<clipPath id="clip0_1315_1275">
<rect width="24" height="24" fill="white" transform="translate(0.5)"/>
</clipPath>
</defs>
</svg>
