<svg width="25" height="24" viewBox="0 0 25 24" fill="none" xmlns="http://www.w3.org/2000/svg">
<g clip-path="url(#clip0_1315_1287)">
<path fill-rule="evenodd" clip-rule="evenodd" d="M24.5 12C24.5 12 20 3.75 12.5 3.75C5 3.75 0.5 12 0.5 12C0.5 12 5 20.25 12.5 20.25C20 20.25 24.5 12 24.5 12ZM2.2595 12C2.98478 13.1023 3.81897 14.129 4.7495 15.0645C6.68 16.998 9.32 18.75 12.5 18.75C15.68 18.75 18.3185 16.998 20.252 15.0645C21.1825 14.129 22.0167 13.1023 22.742 12C22.0167 10.8977 21.1825 9.87103 20.252 8.9355C18.3185 7.002 15.6785 5.25 12.5 5.25C9.32 5.25 6.6815 7.002 4.748 8.9355C3.81746 9.87103 2.98327 10.8977 2.258 12H2.2595Z" fill="black"/>
<path fill-rule="evenodd" clip-rule="evenodd" d="M12.5 8.25C11.5054 8.25 10.5516 8.64509 9.84835 9.34835C9.14509 10.0516 8.75 11.0054 8.75 12C8.75 12.9946 9.14509 13.9484 9.84835 14.6517C10.5516 15.3549 11.5054 15.75 12.5 15.75C13.4946 15.75 14.4484 15.3549 15.1517 14.6517C15.8549 13.9484 16.25 12.9946 16.25 12C16.25 11.0054 15.8549 10.0516 15.1517 9.34835C14.4484 8.64509 13.4946 8.25 12.5 8.25ZM7.25 12C7.25 10.6076 7.80312 9.27226 8.78769 8.28769C9.77226 7.30312 11.1076 6.75 12.5 6.75C13.8924 6.75 15.2277 7.30312 16.2123 8.28769C17.1969 9.27226 17.75 10.6076 17.75 12C17.75 13.3924 17.1969 14.7277 16.2123 15.7123C15.2277 16.6969 13.8924 17.25 12.5 17.25C11.1076 17.25 9.77226 16.6969 8.78769 15.7123C7.80312 14.7277 7.25 13.3924 7.25 12Z" fill="black"/>
</g>
<defs>
<clipPath id="clip0_1315_1287">
<rect width="24" height="24" fill="white" transform="translate(0.5)"/>
</clipPath>
</defs>
</svg>
