<svg width="25" height="24" viewBox="0 0 25 24" fill="none" xmlns="http://www.w3.org/2000/svg">
<g clip-path="url(#clip0_1315_1290)">
<path fill-rule="evenodd" clip-rule="evenodd" d="M6.5 9.00016C5.70435 9.00016 4.94129 9.31623 4.37868 9.87884C3.81607 10.4414 3.5 11.2045 3.5 12.0002C3.5 12.7958 3.81607 13.5589 4.37868 14.1215C4.94129 14.6841 5.70435 15.0002 6.5 15.0002C7.29565 15.0002 8.05871 14.6841 8.62132 14.1215C9.18393 13.5589 9.5 12.7958 9.5 12.0002C9.5 11.2045 9.18393 10.4414 8.62132 9.87884C8.05871 9.31623 7.29565 9.00016 6.5 9.00016ZM10.4375 9.82066C9.98588 9.00354 9.29129 8.34712 8.44998 7.94235C7.60866 7.53758 6.66228 7.40451 5.74197 7.56158C4.82165 7.71864 3.97298 8.15807 3.31354 8.81897C2.65409 9.47986 2.21654 10.3295 2.0615 11.2502H1.25C1.05109 11.2502 0.860322 11.3292 0.71967 11.4698C0.579018 11.6105 0.5 11.8012 0.5 12.0002C0.5 12.1991 0.579018 12.3898 0.71967 12.5305C0.860322 12.6711 1.05109 12.7502 1.25 12.7502H2.0615C2.24764 13.8645 2.84617 14.8681 3.73817 15.5616C4.63018 16.255 5.75039 16.5875 6.87627 16.493C8.00214 16.3986 9.05128 15.884 9.81526 15.0517C10.5792 14.2193 11.0022 13.13 11 12.0002C11 11.6023 11.158 11.2208 11.4393 10.9395C11.7206 10.6582 12.1022 10.5002 12.5 10.5002C12.8978 10.5002 13.2794 10.6582 13.5607 10.9395C13.842 11.2208 14 11.6023 14 12.0002C13.9978 13.13 14.4208 14.2193 15.1847 15.0517C15.9487 15.884 16.9979 16.3986 18.1237 16.493C19.2496 16.5875 20.3698 16.255 21.2618 15.5616C22.1538 14.8681 22.7524 13.8645 22.9385 12.7502H23.75C23.9489 12.7502 24.1397 12.6711 24.2803 12.5305C24.421 12.3898 24.5 12.1991 24.5 12.0002C24.5 11.8012 24.421 11.6105 24.2803 11.4698C24.1397 11.3292 23.9489 11.2502 23.75 11.2502H22.9385C22.7835 10.3295 22.3459 9.47986 21.6865 8.81897C21.027 8.15807 20.1783 7.71864 19.258 7.56158C18.3377 7.40451 17.3913 7.53758 16.55 7.94235C15.7087 8.34712 15.0141 9.00354 14.5625 9.82066C14.0058 9.2926 13.2673 8.99883 12.5 9.00016C11.702 9.00016 10.976 9.31216 10.4375 9.82066ZM21.5 12.0002C21.5 11.2045 21.1839 10.4414 20.6213 9.87884C20.0587 9.31623 19.2956 9.00016 18.5 9.00016C17.7044 9.00016 16.9413 9.31623 16.3787 9.87884C15.8161 10.4414 15.5 11.2045 15.5 12.0002C15.5 12.7958 15.8161 13.5589 16.3787 14.1215C16.9413 14.6841 17.7044 15.0002 18.5 15.0002C19.2956 15.0002 20.0587 14.6841 20.6213 14.1215C21.1839 13.5589 21.5 12.7958 21.5 12.0002Z" fill="black"/>
</g>
<defs>
<clipPath id="clip0_1315_1290">
<rect width="24" height="24" fill="white" transform="translate(0.5)"/>
</clipPath>
</defs>
</svg>
