<svg width="24" height="24" viewBox="0 0 24 24" fill="none" xmlns="http://www.w3.org/2000/svg">
<path fill-rule="evenodd" clip-rule="evenodd" d="M7.5 15H4.5V13.5H19.5V15H9V18H19.5V19.5H9V22.5H7.5V19.5H4.5V18H7.5V15Z" fill="black"/>
<path d="M6 0H14.25V1.5H6C5.60218 1.5 5.22064 1.65804 4.93934 1.93934C4.65804 2.22064 4.5 2.60218 4.5 3V21C4.5 21.3978 4.65804 21.7794 4.93934 22.0607C5.22064 22.342 5.60218 22.5 6 22.5H18C18.3978 22.5 18.7794 22.342 19.0607 22.0607C19.342 21.7794 19.5 21.3978 19.5 21V6.75H21V21C21 21.7956 20.6839 22.5587 20.1213 23.1213C19.5587 23.6839 18.7956 24 18 24H6C5.20435 24 4.44129 23.6839 3.87868 23.1213C3.31607 22.5587 3 21.7956 3 21V3C3 2.20435 3.31607 1.44129 3.87868 0.87868C4.44129 0.316071 5.20435 0 6 0V0Z" fill="black"/>
<path d="M14.25 4.5V0L21 6.75H16.5C15.9033 6.75 15.331 6.51295 14.909 6.09099C14.4871 5.66903 14.25 5.09674 14.25 4.5Z" fill="black"/>
</svg>
