<svg width="24" height="24" viewBox="0 0 24 24" fill="none" xmlns="http://www.w3.org/2000/svg">
<path fill-rule="evenodd" clip-rule="evenodd" d="M6 0H18C18.7956 0 19.5587 0.316071 20.1213 0.87868C20.6839 1.44129 21 2.20435 21 3V21C21 21.7956 20.6839 22.5587 20.1213 23.1213C19.5587 23.6839 18.7956 24 18 24H6C5.20435 24 4.44129 23.6839 3.87868 23.1213C3.31607 22.5587 3 21.7956 3 21V3C3 2.20435 3.31607 1.44129 3.87868 0.87868C4.44129 0.316071 5.20435 0 6 0V0ZM6 1.5C5.60218 1.5 5.22064 1.65804 4.93934 1.93934C4.65804 2.22064 4.5 2.60218 4.5 3V21C4.5 21.3978 4.65804 21.7794 4.93934 22.0607C5.22064 22.342 5.60218 22.5 6 22.5H18C18.3978 22.5 18.7794 22.342 19.0607 22.0607C19.342 21.7794 19.5 21.3978 19.5 21V3C19.5 2.60218 19.342 2.22064 19.0607 1.93934C18.7794 1.65804 18.3978 1.5 18 1.5H6Z" fill="black"/>
<path fill-rule="evenodd" clip-rule="evenodd" d="M6.75 17.25C6.75 17.0511 6.82902 16.8603 6.96967 16.7197C7.11032 16.579 7.30109 16.5 7.5 16.5H12C12.1989 16.5 12.3897 16.579 12.5303 16.7197C12.671 16.8603 12.75 17.0511 12.75 17.25C12.75 17.4489 12.671 17.6397 12.5303 17.7803C12.3897 17.921 12.1989 18 12 18H7.5C7.30109 18 7.11032 17.921 6.96967 17.7803C6.82902 17.6397 6.75 17.4489 6.75 17.25ZM6.75 14.25C6.75 14.0511 6.82902 13.8603 6.96967 13.7197C7.11032 13.579 7.30109 13.5 7.5 13.5H16.5C16.6989 13.5 16.8897 13.579 17.0303 13.7197C17.171 13.8603 17.25 14.0511 17.25 14.25C17.25 14.4489 17.171 14.6397 17.0303 14.7803C16.8897 14.921 16.6989 15 16.5 15H7.5C7.30109 15 7.11032 14.921 6.96967 14.7803C6.82902 14.6397 6.75 14.4489 6.75 14.25ZM9.2085 8.688L11.2035 10.017L13.9845 7.2345C14.0402 7.17867 14.112 7.1418 14.1898 7.12915C14.2677 7.11649 14.3475 7.12869 14.418 7.164L17.25 8.625V11.25C17.25 11.4489 17.171 11.6397 17.0303 11.7803C16.8897 11.921 16.6989 12 16.5 12H7.5C7.30109 12 7.11032 11.921 6.96967 11.7803C6.82902 11.6397 6.75 11.4489 6.75 11.25V10.5C6.75 10.5 9.06 8.589 9.2085 8.688ZM9.375 7.5C9.67337 7.5 9.95952 7.38147 10.1705 7.1705C10.3815 6.95952 10.5 6.67337 10.5 6.375C10.5 6.07663 10.3815 5.79048 10.1705 5.5795C9.95952 5.36853 9.67337 5.25 9.375 5.25C9.07663 5.25 8.79048 5.36853 8.5795 5.5795C8.36853 5.79048 8.25 6.07663 8.25 6.375C8.25 6.67337 8.36853 6.95952 8.5795 7.1705C8.79048 7.38147 9.07663 7.5 9.375 7.5Z" fill="black"/>
</svg>
