<svg width="24" height="24" viewBox="0 0 24 24" fill="none" xmlns="http://www.w3.org/2000/svg">
<g clip-path="url(#clip0_1315_1524)">
<path fill-rule="evenodd" clip-rule="evenodd" d="M18 0H6C5.20435 0 4.44129 0.316071 3.87868 0.87868C3.31607 1.44129 3 2.20435 3 3V21C3 21.7956 3.31607 22.5587 3.87868 23.1213C4.44129 23.6839 5.20435 24 6 24H18C18.7956 24 19.5587 23.6839 20.1213 23.1213C20.6839 22.5587 21 21.7956 21 21V3C21 2.20435 20.6839 1.44129 20.1213 0.87868C19.5587 0.316071 18.7956 0 18 0V0ZM17.25 6.165C17.2499 5.94316 17.2005 5.72412 17.1055 5.52364C17.0106 5.32317 16.8723 5.14626 16.7007 5.00566C16.5291 4.86506 16.3285 4.76427 16.1132 4.71055C15.898 4.65683 15.6735 4.65152 15.456 4.695L13.206 5.145C12.8661 5.21294 12.5602 5.39651 12.3403 5.6645C12.1205 5.93249 12.0002 6.26836 12 6.615V15.294C11.5246 15.0969 11.0146 14.997 10.5 15C9.75 15 9.039 15.201 8.493 15.5655C7.953 15.9255 7.5 16.5075 7.5 17.25C7.5 17.9925 7.9515 18.5745 8.493 18.9345C9.039 19.299 9.7515 19.5 10.5 19.5C11.25 19.5 11.961 19.299 12.507 18.9345C13.047 18.5745 13.5 17.9925 13.5 17.25V9.615L17.25 8.865V6.165Z" fill="black"/>
</g>
<defs>
<clipPath id="clip0_1315_1524">
<rect width="24" height="24" fill="white"/>
</clipPath>
</defs>
</svg>
