<svg width="24" height="24" viewBox="0 0 24 24" fill="none" xmlns="http://www.w3.org/2000/svg">
<path d="M6 0H14.25V1.5H6C5.60218 1.5 5.22064 1.65804 4.93934 1.93934C4.65804 2.22064 4.5 2.60218 4.5 3V21C4.5 21.3978 4.65804 21.7794 4.93934 22.0607C5.22064 22.342 5.60218 22.5 6 22.5H18C18.3978 22.5 18.7794 22.342 19.0607 22.0607C19.342 21.7794 19.5 21.3978 19.5 21V6.75H21V21C21 21.7956 20.6839 22.5587 20.1213 23.1213C19.5587 23.6839 18.7956 24 18 24H6C5.20435 24 4.44129 23.6839 3.87868 23.1213C3.31607 22.5587 3 21.7956 3 21V3C3 2.20435 3.31607 1.44129 3.87868 0.87868C4.44129 0.316071 5.20435 0 6 0V0Z" fill="black"/>
<path d="M14.25 4.5V0L21 6.75H16.5C15.9033 6.75 15.331 6.51295 14.909 6.09099C14.4871 5.66903 14.25 5.09674 14.25 4.5ZM15 20.25C15 20.664 13.6575 21 12 21C10.3425 21 9 20.664 9 20.25C9 19.836 10.3425 19.5 12 19.5C13.6575 19.5 15 19.836 15 20.25Z" fill="black"/>
<path fill-rule="evenodd" clip-rule="evenodd" d="M6.75579 9.657C6.77845 9.47564 6.86656 9.3088 7.00356 9.18782C7.14056 9.06684 7.31702 9.00005 7.49979 9H16.4998C16.6826 9.00005 16.859 9.06684 16.996 9.18782C17.133 9.3088 17.2211 9.47564 17.2438 9.657L17.9938 15.657C18.007 15.7625 17.9976 15.8696 17.9662 15.9712C17.9349 16.0728 17.8823 16.1666 17.8119 16.2463C17.7415 16.326 17.655 16.3898 17.5581 16.4336C17.4612 16.4773 17.3561 16.5 17.2498 16.5H12.7498V19.524C12.2503 19.4919 11.7493 19.4919 11.2498 19.524V16.5H6.74979C6.64346 16.5 6.53836 16.4773 6.44145 16.4336C6.34454 16.3898 6.25804 16.326 6.18768 16.2463C6.11732 16.1666 6.06472 16.0728 6.03336 15.9712C6.002 15.8696 5.9926 15.7625 6.00579 15.657L6.75579 9.657ZM10.4998 10.8315V14.6685C10.4998 14.814 10.6588 14.904 10.7848 14.829L13.9798 12.9105C14.0074 12.8938 14.0303 12.8703 14.0462 12.8421C14.062 12.814 14.0704 12.7823 14.0704 12.75C14.0704 12.7177 14.062 12.686 14.0462 12.6579C14.0303 12.6297 14.0074 12.6062 13.9798 12.5895L10.7848 10.6695C10.7561 10.652 10.7233 10.6426 10.6897 10.6422C10.6561 10.6417 10.6231 10.6503 10.594 10.667C10.5648 10.6837 10.5407 10.7079 10.5242 10.7371C10.5076 10.7663 10.4992 10.7994 10.4998 10.833V10.8315Z" fill="black"/>
</svg>
