<svg width="24" height="24" viewBox="0 0 24 24" fill="none" xmlns="http://www.w3.org/2000/svg">
<g clip-path="url(#clip0_1315_1373)">
<path fill-rule="evenodd" clip-rule="evenodd" d="M6 0C5.20435 0 4.44129 0.316071 3.87868 0.87868C3.31607 1.44129 3 2.20435 3 3V21C3 21.7956 3.31607 22.5587 3.87868 23.1213C4.44129 23.6839 5.20435 24 6 24H18C18.7956 24 19.5587 23.6839 20.1213 23.1213C20.6839 22.5587 21 21.7956 21 21V7.0605C20.9999 6.66271 20.8418 6.28124 20.5605 6L15 0.4395C14.7188 0.158176 14.3373 8.49561e-05 13.9395 0L6 0ZM14.25 2.25V5.25C14.25 5.64782 14.408 6.02936 14.6893 6.31066C14.9706 6.59196 15.3522 6.75 15.75 6.75H18.75L14.25 2.25Z" fill="black"/>
</g>
<defs>
<clipPath id="clip0_1315_1373">
<rect width="24" height="24" fill="white"/>
</clipPath>
</defs>
</svg>
