<svg width="24" height="24" viewBox="0 0 24 24" fill="none" xmlns="http://www.w3.org/2000/svg">
<path fill-rule="evenodd" clip-rule="evenodd" d="M3 3C3 2.20435 3.31607 1.44129 3.87868 0.87868C4.44129 0.316071 5.20435 0 6 0L13.9395 0C14.3373 8.49561e-05 14.7188 0.158176 15 0.4395L20.5605 6C20.8418 6.28124 20.9999 6.66271 21 7.0605V21C21 21.7956 20.6839 22.5587 20.1213 23.1213C19.5587 23.6839 18.7956 24 18 24H6C5.20435 24 4.44129 23.6839 3.87868 23.1213C3.31607 22.5587 3 21.7956 3 21V3ZM13.5 6L14.25 2.25L18.75 6.75L15 7.5C14.6022 7.5 14.2206 7.34196 13.9393 7.06066C13.658 6.77936 13.5 6.39782 13.5 6ZM6.75 12C6.55109 12 6.36032 12.079 6.21967 12.2197C6.07902 12.3603 6 12.5511 6 12.75C6 12.9489 6.07902 13.1397 6.21967 13.2803C6.36032 13.421 6.55109 13.5 6.75 13.5H17.25C17.4489 13.5 17.6397 13.421 17.7803 13.2803C17.921 13.1397 18 12.9489 18 12.75C18 12.5511 17.921 12.3603 17.7803 12.2197C17.6397 12.079 17.4489 12 17.25 12H6.75ZM6 15.75C6 15.5511 6.07902 15.3603 6.21967 15.2197C6.36032 15.079 6.55109 15 6.75 15H17.25C17.4489 15 17.6397 15.079 17.7803 15.2197C17.921 15.3603 18 15.5511 18 15.75C18 15.9489 17.921 16.1397 17.7803 16.2803C17.6397 16.421 17.4489 16.5 17.25 16.5H6.75C6.55109 16.5 6.36032 16.421 6.21967 16.2803C6.07902 16.1397 6 15.9489 6 15.75ZM6 18.75C6 18.5511 6.07902 18.3603 6.21967 18.2197C6.36032 18.079 6.55109 18 6.75 18H12.75C12.9489 18 13.1397 18.079 13.2803 18.2197C13.421 18.3603 13.5 18.5511 13.5 18.75C13.5 18.9489 13.421 19.1397 13.2803 19.2803C13.1397 19.421 12.9489 19.5 12.75 19.5H6.75C6.55109 19.5 6.36032 19.421 6.21967 19.2803C6.07902 19.1397 6 18.9489 6 18.75Z" fill="black"/>
</svg>
