<svg width="24" height="24" viewBox="0 0 24 24" fill="none" xmlns="http://www.w3.org/2000/svg">
<path d="M6 0H14.25V1.5H6C5.60218 1.5 5.22064 1.65804 4.93934 1.93934C4.65804 2.22064 4.5 2.60218 4.5 3V21C4.5 21.3978 4.65804 21.7794 4.93934 22.0607C5.22064 22.342 5.60218 22.5 6 22.5H18C18.3978 22.5 18.7794 22.342 19.0607 22.0607C19.342 21.7794 19.5 21.3978 19.5 21V6.75H21V21C21 21.7956 20.6839 22.5587 20.1213 23.1213C19.5587 23.6839 18.7956 24 18 24H6C5.20435 24 4.44129 23.6839 3.87868 23.1213C3.31607 22.5587 3 21.7956 3 21V3C3 2.20435 3.31607 1.44129 3.87868 0.87868C4.44129 0.316071 5.20435 0 6 0V0Z" fill="black"/>
<path d="M14.25 4.5V0L21 6.75H16.5C15.9033 6.75 15.331 6.51295 14.909 6.09099C14.4871 5.66903 14.25 5.09674 14.25 4.5Z" fill="black"/>
<path fill-rule="evenodd" clip-rule="evenodd" d="M14.6355 8.50498C14.8567 8.44958 15.0876 8.44532 15.3106 8.49254C15.5337 8.53976 15.7431 8.63721 15.9228 8.77748C16.1026 8.91776 16.248 9.09716 16.348 9.30207C16.448 9.50697 16.5 9.73197 16.5 9.95998V12.585L13.5 13.335V18.75C13.5 19.4925 13.0485 20.0745 12.507 20.4345C11.961 20.799 11.2485 21 10.5 21C9.75 21 9.039 20.799 8.493 20.4345C7.953 20.0745 7.5 19.4925 7.5 18.75C7.5 18.0075 7.9515 17.4255 8.493 17.0655C9.039 16.701 9.7515 16.5 10.5 16.5C11.034 16.5 11.55 16.602 12 16.794V10.335C12 10.0006 12.1118 9.67579 12.3175 9.41217C12.5232 9.14855 12.8111 8.96124 13.1355 8.87998L14.6355 8.50498Z" fill="black"/>
</svg>
