<svg width="24" height="24" viewBox="0 0 24 24" fill="none" xmlns="http://www.w3.org/2000/svg">
<g clip-path="url(#clip0_1315_1534)">
<path fill-rule="evenodd" clip-rule="evenodd" d="M18 0H6C5.20435 0 4.44129 0.316071 3.87868 0.87868C3.31607 1.44129 3 2.20435 3 3V21C3 21.7956 3.31607 22.5587 3.87868 23.1213C4.44129 23.6839 5.20435 24 6 24H18C18.7956 24 19.5587 23.6839 20.1213 23.1213C20.6839 22.5587 21 21.7956 21 21V3C21 2.20435 20.6839 1.44129 20.1213 0.87868C19.5587 0.316071 18.7956 0 18 0V0ZM9 8.8245V15.1755C8.99997 15.3082 9.03515 15.4385 9.10195 15.5532C9.16875 15.6679 9.26477 15.7627 9.38022 15.8282C9.49567 15.8936 9.62641 15.9272 9.7591 15.9256C9.89179 15.924 10.0217 15.8872 10.1355 15.819L15.4275 12.6435C15.5387 12.5769 15.6308 12.4826 15.6947 12.3698C15.7587 12.2571 15.7923 12.1296 15.7923 12C15.7923 11.8704 15.7587 11.7429 15.6947 11.6302C15.6308 11.5174 15.5387 11.4231 15.4275 11.3565L10.1355 8.181C10.0216 8.11273 9.89154 8.07594 9.75872 8.07439C9.6259 8.07285 9.49506 8.1066 9.37956 8.17221C9.26407 8.23781 9.16807 8.33291 9.10138 8.44778C9.03469 8.56265 8.99971 8.69317 9 8.826V8.8245Z" fill="black"/>
</g>
<defs>
<clipPath id="clip0_1315_1534">
<rect width="24" height="24" fill="white"/>
</clipPath>
</defs>
</svg>
