<svg width="24" height="24" viewBox="0 0 24 24" fill="none" xmlns="http://www.w3.org/2000/svg">
<path d="M6 0H14.25V1.5H6C5.60218 1.5 5.22064 1.65804 4.93934 1.93934C4.65804 2.22064 4.5 2.60218 4.5 3V21C4.5 21.3978 4.65804 21.7794 4.93934 22.0607C5.22064 22.342 5.60218 22.5 6 22.5H18C18.3978 22.5 18.7794 22.342 19.0607 22.0607C19.342 21.7794 19.5 21.3978 19.5 21V6.75H21V21C21 21.7956 20.6839 22.5587 20.1213 23.1213C19.5587 23.6839 18.7956 24 18 24H6C5.20435 24 4.44129 23.6839 3.87868 23.1213C3.31607 22.5587 3 21.7956 3 21V3C3 2.20435 3.31607 1.44129 3.87868 0.87868C4.44129 0.316071 5.20435 0 6 0V0Z" fill="black"/>
<path d="M14.25 4.5V0L21 6.75H16.5C15.9033 6.75 15.331 6.51295 14.909 6.09099C14.4871 5.66903 14.25 5.09674 14.25 4.5Z" fill="black"/>
<path fill-rule="evenodd" clip-rule="evenodd" d="M12.9703 9.969C13.04 9.89915 13.1228 9.84374 13.2139 9.80593C13.305 9.76812 13.4027 9.74866 13.5013 9.74866C13.6 9.74866 13.6977 9.76812 13.7888 9.80593C13.8799 9.84374 13.9627 9.89915 14.0323 9.969L17.0323 12.969C17.1022 13.0387 17.1576 13.1214 17.1954 13.2125C17.2332 13.3037 17.2527 13.4013 17.2527 13.5C17.2527 13.5986 17.2332 13.6963 17.1954 13.7874C17.1576 13.8786 17.1022 13.9613 17.0323 14.031L14.0323 17.031C13.8915 17.1718 13.7005 17.2509 13.5013 17.2509C13.3022 17.2509 13.1112 17.1718 12.9703 17.031C12.8295 16.8902 12.7504 16.6992 12.7504 16.5C12.7504 16.3008 12.8295 16.1098 12.9703 15.969L15.4408 13.5L12.9703 11.031C12.9005 10.9613 12.8451 10.8786 12.8073 10.7874C12.7695 10.6963 12.75 10.5986 12.75 10.5C12.75 10.4013 12.7695 10.3037 12.8073 10.2125C12.8451 10.1214 12.9005 10.0387 12.9703 9.969ZM11.0323 9.969C10.9627 9.89915 10.8799 9.84374 10.7888 9.80593C10.6977 9.76812 10.6 9.74866 10.5013 9.74866C10.4027 9.74866 10.305 9.76812 10.2139 9.80593C10.1228 9.84374 10.04 9.89915 9.97034 9.969L6.97034 12.969C6.9005 13.0387 6.84508 13.1214 6.80727 13.2125C6.76946 13.3037 6.75 13.4013 6.75 13.5C6.75 13.5986 6.76946 13.6963 6.80727 13.7874C6.84508 13.8786 6.9005 13.9613 6.97034 14.031L9.97034 17.031C10.1112 17.1718 10.3022 17.2509 10.5013 17.2509C10.7005 17.2509 10.8915 17.1718 11.0323 17.031C11.1732 16.8902 11.2523 16.6992 11.2523 16.5C11.2523 16.3008 11.1732 16.1098 11.0323 15.969L8.56184 13.5L11.0323 11.031C11.1022 10.9613 11.1576 10.8786 11.1954 10.7874C11.2332 10.6963 11.2527 10.5986 11.2527 10.5C11.2527 10.4013 11.2332 10.3037 11.1954 10.2125C11.1576 10.1214 11.1022 10.0387 11.0323 9.969Z" fill="black"/>
</svg>
