<svg width="24" height="24" viewBox="0 0 24 24" fill="none" xmlns="http://www.w3.org/2000/svg">
<path d="M6 0H14.25V1.5H6C5.60218 1.5 5.22064 1.65804 4.93934 1.93934C4.65804 2.22064 4.5 2.60218 4.5 3V21C4.5 21.3978 4.65804 21.7794 4.93934 22.0607C5.22064 22.342 5.60218 22.5 6 22.5H18C18.3978 22.5 18.7794 22.342 19.0607 22.0607C19.342 21.7794 19.5 21.3978 19.5 21V6.75H21V21C21 21.7956 20.6839 22.5587 20.1213 23.1213C19.5587 23.6839 18.7956 24 18 24H6C5.20435 24 4.44129 23.6839 3.87868 23.1213C3.31607 22.5587 3 21.7956 3 21V3C3 2.20435 3.31607 1.44129 3.87868 0.87868C4.44129 0.316071 5.20435 0 6 0V0Z" fill="black"/>
<path d="M14.25 4.5V0L21 6.75H16.5C15.9033 6.75 15.331 6.51295 14.909 6.09099C14.4871 5.66903 14.25 5.09674 14.25 4.5Z" fill="black"/>
<path fill-rule="evenodd" clip-rule="evenodd" d="M8.25 17.25C8.25 17.0511 8.32902 16.8603 8.46967 16.7197C8.61032 16.579 8.80109 16.5 9 16.5H15C15.1989 16.5 15.3897 16.579 15.5303 16.7197C15.671 16.8603 15.75 17.0511 15.75 17.25C15.75 17.4489 15.671 17.6397 15.5303 17.7803C15.3897 17.921 15.1989 18 15 18H9C8.80109 18 8.61032 17.921 8.46967 17.7803C8.32902 17.6397 8.25 17.4489 8.25 17.25ZM12 7.5C12.1989 7.5 12.3897 7.57902 12.5303 7.71967C12.671 7.86032 12.75 8.05109 12.75 8.25V14.25C12.75 14.4489 12.671 14.6397 12.5303 14.7803C12.3897 14.921 12.1989 15 12 15C11.8011 15 11.6103 14.921 11.4697 14.7803C11.329 14.6397 11.25 14.4489 11.25 14.25V8.25C11.25 8.05109 11.329 7.86032 11.4697 7.71967C11.6103 7.57902 11.8011 7.5 12 7.5Z" fill="black"/>
<path fill-rule="evenodd" clip-rule="evenodd" d="M8.25 11.25C8.25 11.0511 8.32902 10.8603 8.46967 10.7197C8.61032 10.579 8.80109 10.5 9 10.5H15C15.1989 10.5 15.3897 10.579 15.5303 10.7197C15.671 10.8603 15.75 11.0511 15.75 11.25C15.75 11.4489 15.671 11.6397 15.5303 11.7803C15.3897 11.921 15.1989 12 15 12H9C8.80109 12 8.61032 11.921 8.46967 11.7803C8.32902 11.6397 8.25 11.4489 8.25 11.25Z" fill="black"/>
</svg>
