<svg width="24" height="24" viewBox="0 0 24 24" fill="none" xmlns="http://www.w3.org/2000/svg">
<path d="M6 0H14.25V1.5H6C5.60218 1.5 5.22064 1.65804 4.93934 1.93934C4.65804 2.22064 4.5 2.60218 4.5 3V21C4.5 21.3978 4.65804 21.7794 4.93934 22.0607C5.22064 22.342 5.60218 22.5 6 22.5H18C18.3978 22.5 18.7794 22.342 19.0607 22.0607C19.342 21.7794 19.5 21.3978 19.5 21V6.75H21V21C21 21.7956 20.6839 22.5587 20.1213 23.1213C19.5587 23.6839 18.7956 24 18 24H6C5.20435 24 4.44129 23.6839 3.87868 23.1213C3.31607 22.5587 3 21.7956 3 21V3C3 2.20435 3.31607 1.44129 3.87868 0.87868C4.44129 0.316071 5.20435 0 6 0V0Z" fill="black"/>
<path d="M14.25 4.5V0L21 6.75H16.5C15.9033 6.75 15.331 6.51295 14.909 6.09099C14.4871 5.66903 14.25 5.09674 14.25 4.5ZM8.289 21.135C9.753 21.135 10.575 19.95 10.575 17.8275C10.575 15.7095 9.753 14.523 8.289 14.523C6.822 14.523 6 15.708 6 17.8275C6 19.95 6.822 21.1365 8.289 21.1365V21.135ZM7.041 17.8275C7.041 16.2525 7.476 15.4095 8.289 15.4095C8.826 15.4095 9.1995 15.78 9.3885 16.491L7.05 18.2055C7.04465 18.0796 7.04165 17.9535 7.041 17.8275ZM8.289 20.2485C7.749 20.2485 7.38 19.8795 7.191 19.1715L9.525 17.454C9.5295 17.5725 9.5325 17.7 9.5325 17.8275C9.5325 19.4055 9.0975 20.2485 8.289 20.2485ZM16.2825 21V20.1075H14.595V14.658H13.56L11.775 15.837V16.869L13.479 15.7485H13.554V20.1075H11.784V21H16.284H16.2825Z" fill="black"/>
</svg>
