<svg width="24" height="24" viewBox="0 0 24 24" fill="none" xmlns="http://www.w3.org/2000/svg">
<path fill-rule="evenodd" clip-rule="evenodd" d="M6 0H18C18.7956 0 19.5587 0.316071 20.1213 0.87868C20.6839 1.44129 21 2.20435 21 3V21C21 21.7956 20.6839 22.5587 20.1213 23.1213C19.5587 23.6839 18.7956 24 18 24H6C5.20435 24 4.44129 23.6839 3.87868 23.1213C3.31607 22.5587 3 21.7956 3 21V3C3 2.20435 3.31607 1.44129 3.87868 0.87868C4.44129 0.316071 5.20435 0 6 0V0ZM6 1.5C5.60218 1.5 5.22064 1.65804 4.93934 1.93934C4.65804 2.22064 4.5 2.60218 4.5 3V21C4.5 21.3978 4.65804 21.7794 4.93934 22.0607C5.22064 22.342 5.60218 22.5 6 22.5H18C18.3978 22.5 18.7794 22.342 19.0607 22.0607C19.342 21.7794 19.5 21.3978 19.5 21V3C19.5 2.60218 19.342 2.22064 19.0607 1.93934C18.7794 1.65804 18.3978 1.5 18 1.5H6Z" fill="black"/>
<path fill-rule="evenodd" clip-rule="evenodd" d="M12.0009 16.5001C12.1999 16.5001 12.3906 16.421 12.5313 16.2804C12.6719 16.1397 12.7509 15.949 12.7509 15.7501V10.0606L14.4699 11.7811C14.6108 11.9219 14.8018 12.001 15.0009 12.001C15.2001 12.001 15.3911 11.9219 15.5319 11.7811C15.6728 11.6402 15.7519 11.4492 15.7519 11.2501C15.7519 11.0509 15.6728 10.8599 15.5319 10.7191L12.5319 7.71906C12.4623 7.64921 12.3795 7.5938 12.2884 7.55599C12.1973 7.51818 12.0996 7.49872 12.0009 7.49872C11.9023 7.49872 11.8046 7.51818 11.7135 7.55599C11.6224 7.5938 11.5396 7.64921 11.4699 7.71906L8.46995 10.7191C8.32912 10.8599 8.25 11.0509 8.25 11.2501C8.25 11.4492 8.32912 11.6402 8.46995 11.7811C8.61078 11.9219 8.80178 12.001 9.00095 12.001C9.20011 12.001 9.39112 11.9219 9.53195 11.7811L11.2509 10.0606V15.7501C11.2509 15.949 11.33 16.1397 11.4706 16.2804C11.6113 16.421 11.802 16.5001 12.0009 16.5001Z" fill="black"/>
</svg>
