<svg width="24" height="24" viewBox="0 0 24 24" fill="none" xmlns="http://www.w3.org/2000/svg">
<path fill-rule="evenodd" clip-rule="evenodd" d="M6 0H18C18.7956 0 19.5587 0.316071 20.1213 0.87868C20.6839 1.44129 21 2.20435 21 3V21C21 21.7956 20.6839 22.5587 20.1213 23.1213C19.5587 23.6839 18.7956 24 18 24H6C5.20435 24 4.44129 23.6839 3.87868 23.1213C3.31607 22.5587 3 21.7956 3 21V3C3 2.20435 3.31607 1.44129 3.87868 0.87868C4.44129 0.316071 5.20435 0 6 0V0ZM9.75 12.75C9.75 12.3522 9.90804 11.9706 10.1893 11.6893C10.4706 11.408 10.8522 11.25 11.25 11.25H12.75C13.1478 11.25 13.5294 11.408 13.8107 11.6893C14.092 11.9706 14.25 12.3522 14.25 12.75V14.157L14.85 16.5555C14.9248 16.8556 14.9049 17.1715 14.7932 17.4599C14.6815 17.7482 14.4834 17.9951 14.226 18.1665L12.831 19.0965C12.5847 19.2606 12.2953 19.3482 11.9992 19.3482C11.7032 19.3482 11.4138 19.2606 11.1675 19.0965L9.7725 18.1665C9.51537 17.9949 9.31756 17.748 9.20613 17.4596C9.0947 17.1712 9.0751 16.8554 9.15 16.5555L9.75 14.157V12.75ZM12.75 14.157V12.75H11.25V14.157C11.25 14.2799 11.2349 14.4023 11.205 14.5215L10.605 16.9185L12 17.8485L13.395 16.9185L12.795 14.5215C12.7651 14.4023 12.75 14.2799 12.75 14.157ZM11.25 4.5V3H9.75V1.5H12V3H13.5V4.5H12V6H13.5V7.5H12V9H13.5V10.5H11.25V9H9.75V7.5H11.25V6H9.75V4.5H11.25Z" fill="black"/>
</svg>
