<svg width="24" height="24" viewBox="0 0 24 24" fill="none" xmlns="http://www.w3.org/2000/svg">
<path fill-rule="evenodd" clip-rule="evenodd" d="M3 3C3 2.20435 3.31607 1.44129 3.87868 0.87868C4.44129 0.316071 5.20435 0 6 0L13.9395 0C14.3373 8.49561e-05 14.7188 0.158176 15 0.4395L20.5605 6C20.8418 6.28124 20.9999 6.66271 21 7.0605V21C21 21.7956 20.6839 22.5587 20.1213 23.1213C19.5587 23.6839 18.7956 24 18 24H6C5.20435 24 4.44129 23.6839 3.87868 23.1213C3.31607 22.5587 3 21.7956 3 21V3ZM14.25 5.25V2.25L18.75 6.75H15.75C15.3522 6.75 14.9706 6.59196 14.6893 6.31066C14.408 6.02936 14.25 5.64782 14.25 5.25ZM7.5 9C7.31723 9.00005 7.14077 9.06684 7.00377 9.18782C6.86677 9.3088 6.77866 9.47564 6.756 9.657L6.006 15.657C5.99282 15.7625 6.00221 15.8696 6.03357 15.9712C6.06493 16.0728 6.11754 16.1666 6.18789 16.2463C6.25825 16.326 6.34475 16.3898 6.44166 16.4336C6.53857 16.4773 6.64367 16.5 6.75 16.5H11.25V19.524C9.9555 19.6065 9 19.9005 9 20.25C9 20.664 10.3425 21 12 21C13.6575 21 15 20.664 15 20.25C15 19.9005 14.0445 19.6065 12.75 19.524V16.5H17.25C17.3563 16.5 17.4614 16.4773 17.5583 16.4336C17.6553 16.3898 17.7418 16.326 17.8121 16.2463C17.8825 16.1666 17.9351 16.0728 17.9664 15.9712C17.9978 15.8696 18.0072 15.7625 17.994 15.657L17.244 9.657C17.2213 9.47564 17.1332 9.3088 16.9962 9.18782C16.8592 9.06684 16.6828 9.00005 16.5 9H7.5ZM10.5 14.67V10.83C10.5 10.686 10.659 10.596 10.785 10.671L13.98 12.5895C14.0076 12.6062 14.0305 12.6297 14.0464 12.6579C14.0622 12.686 14.0706 12.7177 14.0706 12.75C14.0706 12.7823 14.0622 12.814 14.0464 12.8421C14.0305 12.8703 14.0076 12.8938 13.98 12.9105L10.785 14.8305C10.7563 14.848 10.7235 14.8574 10.6899 14.8578C10.6564 14.8583 10.6233 14.8497 10.5942 14.833C10.565 14.8163 10.5409 14.7921 10.5244 14.7629C10.5078 14.7337 10.4994 14.7006 10.5 14.667V14.67Z" fill="black"/>
</svg>
