<svg width="24" height="24" viewBox="0 0 24 24" fill="none" xmlns="http://www.w3.org/2000/svg">
<path fill-rule="evenodd" clip-rule="evenodd" d="M3 3C3 2.20435 3.31607 1.44129 3.87868 0.87868C4.44129 0.316071 5.20435 0 6 0L13.9395 0C14.3373 8.49561e-05 14.7188 0.158176 15 0.4395L20.5605 6C20.8418 6.28124 20.9999 6.66271 21 7.0605V21C21 21.7956 20.6839 22.5587 20.1213 23.1213C19.5587 23.6839 18.7956 24 18 24H6C5.20435 24 4.44129 23.6839 3.87868 23.1213C3.31607 22.5587 3 21.7956 3 21V3ZM14.25 5.25V2.25L18.75 6.75H15.75C15.3522 6.75 14.9706 6.59196 14.6893 6.31066C14.408 6.02936 14.25 5.64782 14.25 5.25ZM9 10.3245V16.6755C8.99997 16.8082 9.03515 16.9385 9.10195 17.0532C9.16875 17.1679 9.26477 17.2627 9.38022 17.3282C9.49567 17.3936 9.62641 17.4272 9.7591 17.4256C9.89179 17.424 10.0217 17.3872 10.1355 17.319L15.4275 14.1435C15.5387 14.0769 15.6308 13.9826 15.6947 13.8698C15.7587 13.7571 15.7923 13.6296 15.7923 13.5C15.7923 13.3704 15.7587 13.2429 15.6947 13.1302C15.6308 13.0174 15.5387 12.9231 15.4275 12.8565L10.1355 9.681C10.0216 9.61273 9.89154 9.57594 9.75872 9.57439C9.6259 9.57285 9.49506 9.6066 9.37956 9.67221C9.26407 9.73781 9.16807 9.83291 9.10138 9.94778C9.03469 10.0627 8.99971 10.1932 9 10.326V10.3245Z" fill="black"/>
</svg>
