<svg width="24" height="24" viewBox="0 0 24 24" fill="none" xmlns="http://www.w3.org/2000/svg">
<path fill-rule="evenodd" clip-rule="evenodd" d="M6 0H18C18.7956 0 19.5587 0.316071 20.1213 0.87868C20.6839 1.44129 21 2.20435 21 3V21C21 21.7956 20.6839 22.5587 20.1213 23.1213C19.5587 23.6839 18.7956 24 18 24H6C5.20435 24 4.44129 23.6839 3.87868 23.1213C3.31607 22.5587 3 21.7956 3 21V3C3 2.20435 3.31607 1.44129 3.87868 0.87868C4.44129 0.316071 5.20435 0 6 0V0ZM6 1.5C5.60218 1.5 5.22064 1.65804 4.93934 1.93934C4.65804 2.22064 4.5 2.60218 4.5 3V21C4.5 21.3978 4.65804 21.7794 4.93934 22.0607C5.22064 22.342 5.60218 22.5 6 22.5H18C18.3978 22.5 18.7794 22.342 19.0607 22.0607C19.342 21.7794 19.5 21.3978 19.5 21V3C19.5 2.60218 19.342 2.22064 19.0607 1.93934C18.7794 1.65804 18.3978 1.5 18 1.5H6Z" fill="black"/>
<path d="M9 15.1754V8.82438C8.99997 8.69168 9.03515 8.56135 9.10195 8.44669C9.16875 8.33203 9.26477 8.23714 9.38022 8.17171C9.49567 8.10629 9.62641 8.07266 9.7591 8.07427C9.89179 8.07588 10.0217 8.11267 10.1355 8.18088L15.4275 11.3564C15.5387 11.423 15.6308 11.5172 15.6947 11.63C15.7587 11.7428 15.7923 11.8702 15.7923 11.9999C15.7923 12.1295 15.7587 12.2569 15.6947 12.3697C15.6308 12.4825 15.5387 12.5768 15.4275 12.6434L10.1355 15.8189C10.0216 15.8871 9.89154 15.9239 9.75872 15.9255C9.62591 15.927 9.49506 15.8933 9.37957 15.8277C9.26407 15.7621 9.16807 15.667 9.10138 15.5521C9.03469 15.4372 8.99971 15.3067 9 15.1739V15.1754Z" fill="black"/>
</svg>
