<svg width="24" height="24" viewBox="0 0 24 24" fill="none" xmlns="http://www.w3.org/2000/svg">
<path d="M6 0H14.25V1.5H6C5.60218 1.5 5.22064 1.65804 4.93934 1.93934C4.65804 2.22064 4.5 2.60218 4.5 3V21C4.5 21.3978 4.65804 21.7794 4.93934 22.0607C5.22064 22.342 5.60218 22.5 6 22.5H18C18.3978 22.5 18.7794 22.342 19.0607 22.0607C19.342 21.7794 19.5 21.3978 19.5 21V6.75H21V21C21 21.7956 20.6839 22.5587 20.1213 23.1213C19.5587 23.6839 18.7956 24 18 24H6C5.20435 24 4.44129 23.6839 3.87868 23.1213C3.31607 22.5587 3 21.7956 3 21V3C3 2.20435 3.31607 1.44129 3.87868 0.87868C4.44129 0.316071 5.20435 0 6 0V0Z" fill="black"/>
<path d="M14.25 4.5V0L21 6.75H16.5C15.9033 6.75 15.331 6.51295 14.909 6.09099C14.4871 5.66903 14.25 5.09674 14.25 4.5Z" fill="black"/>
<path fill-rule="evenodd" clip-rule="evenodd" d="M7.50016 11.25C7.50016 10.8522 7.6582 10.4706 7.9395 10.1893C8.22081 9.90804 8.60234 9.75 9.00016 9.75H10.5002C10.898 9.75 11.2795 9.90804 11.5608 10.1893C11.8421 10.4706 12.0002 10.8522 12.0002 11.25V12.657L12.6002 15.0555C12.6749 15.3556 12.6551 15.6715 12.5434 15.9599C12.4317 16.2482 12.2336 16.4951 11.9762 16.6665L10.5812 17.5965C10.3347 17.761 10.045 17.8487 9.74866 17.8487C9.45234 17.8487 9.16266 17.761 8.91616 17.5965L7.52266 16.6665C7.26553 16.4949 7.06772 16.248 6.95629 15.9596C6.84486 15.6712 6.82526 15.3554 6.90016 15.0555L7.50016 12.657V11.25ZM10.5002 11.25H9.00016V12.657C9.00015 12.7799 8.98504 12.9023 8.95516 13.0215L8.35516 15.4185L9.75016 16.3485L11.1437 15.4185L10.5437 13.0215C10.5143 12.9022 10.4997 12.7798 10.5002 12.657V11.25Z" fill="black"/>
<path d="M9 1.5H11.25V3H9V1.5ZM7.5 3H9.75V4.5H7.5V3ZM9 4.5H11.25V6H9V4.5ZM7.5 6H9.75V7.5H7.5V6ZM9 7.5H11.25V9H9V7.5Z" fill="black"/>
</svg>
