<svg width="24" height="24" viewBox="0 0 24 24" fill="none" xmlns="http://www.w3.org/2000/svg">
<path fill-rule="evenodd" clip-rule="evenodd" d="M6 0H18C18.7956 0 19.5587 0.316071 20.1213 0.87868C20.6839 1.44129 21 2.20435 21 3V21C21 21.7956 20.6839 22.5587 20.1213 23.1213C19.5587 23.6839 18.7956 24 18 24H6C5.20435 24 4.44129 23.6839 3.87868 23.1213C3.31607 22.5587 3 21.7956 3 21V3C3 2.20435 3.31607 1.44129 3.87868 0.87868C4.44129 0.316071 5.20435 0 6 0V0ZM6 1.5C5.60218 1.5 5.22064 1.65804 4.93934 1.93934C4.65804 2.22064 4.5 2.60218 4.5 3V21C4.5 21.3978 4.65804 21.7794 4.93934 22.0607C5.22064 22.342 5.60218 22.5 6 22.5H18C18.3978 22.5 18.7794 22.342 19.0607 22.0607C19.342 21.7794 19.5 21.3978 19.5 21V3C19.5 2.60218 19.342 2.22064 19.0607 1.93934C18.7794 1.65804 18.3978 1.5 18 1.5H6Z" fill="black"/>
<path d="M12.7502 7.5C12.7502 7.30109 12.6712 7.11032 12.5305 6.96967C12.3899 6.82902 12.1991 6.75 12.0002 6.75C11.8013 6.75 11.6105 6.82902 11.4699 6.96967C11.3292 7.11032 11.2502 7.30109 11.2502 7.5H12.7502ZM15.0407 15H13.4597L14.2892 17.487C14.3175 17.5839 14.365 17.674 14.4289 17.7521C14.4928 17.8301 14.5718 17.8945 14.6611 17.9413C14.7505 17.9882 14.8484 18.0165 14.9489 18.0246C15.0495 18.0327 15.1507 18.0204 15.2464 17.9885C15.3421 17.9566 15.4304 17.9057 15.506 17.8389C15.5816 17.7721 15.6429 17.6907 15.6863 17.5996C15.7297 17.5085 15.7542 17.4096 15.7585 17.3089C15.7628 17.2081 15.7467 17.1074 15.7112 17.013L15.0407 15ZM12.7502 15H11.2502V16.5C11.2502 16.6989 11.3292 16.8897 11.4699 17.0303C11.6105 17.171 11.8013 17.25 12.0002 17.25C12.1991 17.25 12.3899 17.171 12.5305 17.0303C12.6712 16.8897 12.7502 16.6989 12.7502 16.5V15ZM10.5407 15H8.95971L8.28921 17.013C8.2537 17.1074 8.2376 17.2081 8.24189 17.3089C8.24617 17.4096 8.27075 17.5085 8.31415 17.5996C8.35754 17.6907 8.41887 17.7721 8.49446 17.8389C8.57004 17.9057 8.65833 17.9566 8.75404 17.9885C8.84975 18.0204 8.95091 18.0327 9.05147 18.0246C9.15204 18.0165 9.24993 17.9882 9.33929 17.9413C9.42865 17.8945 9.50765 17.8301 9.57156 17.7521C9.63546 17.674 9.68296 17.5839 9.71121 17.487L10.5407 15Z" fill="black"/>
<path fill-rule="evenodd" clip-rule="evenodd" d="M6 9.75C6 9.15326 6.23705 8.58097 6.65901 8.15901C7.08097 7.73705 7.65326 7.5 8.25 7.5H15.75C16.3467 7.5 16.919 7.73705 17.341 8.15901C17.7629 8.58097 18 9.15326 18 9.75V12.75C18 13.3467 17.7629 13.919 17.341 14.341C16.919 14.7629 16.3467 15 15.75 15H8.25C7.65326 15 7.08097 14.7629 6.65901 14.341C6.23705 13.919 6 13.3467 6 12.75V9.75ZM8.25 9C8.05109 9 7.86032 9.07902 7.71967 9.21967C7.57902 9.36032 7.5 9.55109 7.5 9.75V12.75C7.5 12.9489 7.57902 13.1397 7.71967 13.2803C7.86032 13.421 8.05109 13.5 8.25 13.5H15.75C15.9489 13.5 16.1397 13.421 16.2803 13.2803C16.421 13.1397 16.5 12.9489 16.5 12.75V9.75C16.5 9.55109 16.421 9.36032 16.2803 9.21967C16.1397 9.07902 15.9489 9 15.75 9H8.25Z" fill="black"/>
</svg>
