<svg width="24" height="24" viewBox="0 0 24 24" fill="none" xmlns="http://www.w3.org/2000/svg">
<path fill-rule="evenodd" clip-rule="evenodd" d="M6 3H16.5C17.2956 3 18.0587 3.31607 18.6213 3.87868C19.1839 4.44129 19.5 5.20435 19.5 6V21C19.5 21.7956 19.1839 22.5587 18.6213 23.1213C18.0587 23.6839 17.2956 24 16.5 24H6C5.20435 24 4.44129 23.6839 3.87868 23.1213C3.31607 22.5587 3 21.7956 3 21V6C3 5.20435 3.31607 4.44129 3.87868 3.87868C4.44129 3.31607 5.20435 3 6 3ZM6 4.5C5.60218 4.5 5.22064 4.65804 4.93934 4.93934C4.65804 5.22064 4.5 5.60218 4.5 6V21C4.5 21.3978 4.65804 21.7794 4.93934 22.0607C5.22064 22.342 5.60218 22.5 6 22.5H16.5C16.8978 22.5 17.2794 22.342 17.5607 22.0607C17.842 21.7794 18 21.3978 18 21V6C18 5.60218 17.842 5.22064 17.5607 4.93934C17.2794 4.65804 16.8978 4.5 16.5 4.5H6Z" fill="black"/>
<path d="M9 0H19.5C20.2956 0 21.0587 0.316071 21.6213 0.87868C22.1839 1.44129 22.5 2.20435 22.5 3V18C22.5 18.7956 22.1839 19.5587 21.6213 20.1213C21.0587 20.6839 20.2956 21 19.5 21V19.5C19.8978 19.5 20.2794 19.342 20.5607 19.0607C20.842 18.7794 21 18.3978 21 18V3C21 2.60218 20.842 2.22064 20.5607 1.93934C20.2794 1.65804 19.8978 1.5 19.5 1.5H9C8.60218 1.5 8.22064 1.65804 7.93934 1.93934C7.65804 2.22064 7.5 2.60218 7.5 3H6C6 2.20435 6.31607 1.44129 6.87868 0.87868C7.44129 0.316071 8.20435 0 9 0V0Z" fill="black"/>
</svg>
