<svg width="24" height="24" viewBox="0 0 24 24" fill="none" xmlns="http://www.w3.org/2000/svg">
<g clip-path="url(#clip0_1315_1574)">
<path fill-rule="evenodd" clip-rule="evenodd" d="M18 0H6C5.20435 0 4.44129 0.316071 3.87868 0.87868C3.31607 1.44129 3 2.20435 3 3V21C3 21.7956 3.31607 22.5587 3.87868 23.1213C4.44129 23.6839 5.20435 24 6 24H18C18.7956 24 19.5587 23.6839 20.1213 23.1213C20.6839 22.5587 21 21.7956 21 21V3C21 2.20435 20.6839 1.44129 20.1213 0.87868C19.5587 0.316071 18.7956 0 18 0V0ZM10.281 9.219C10.2113 9.14927 10.1285 9.09395 10.0374 9.05622C9.94627 9.01848 9.84862 8.99905 9.75 8.99905C9.65138 8.99905 9.55373 9.01848 9.46262 9.05622C9.37152 9.09395 9.28873 9.14927 9.219 9.219C9.14927 9.28873 9.09395 9.37152 9.05621 9.46262C9.01848 9.55373 8.99905 9.65138 8.99905 9.75C8.99905 9.84862 9.01848 9.94627 9.05621 10.0374C9.09395 10.1285 9.14927 10.2113 9.219 10.281L10.9395 12L9.219 13.719C9.14927 13.7887 9.09395 13.8715 9.05621 13.9626C9.01848 14.0537 8.99905 14.1514 8.99905 14.25C8.99905 14.3486 9.01848 14.4463 9.05621 14.5374C9.09395 14.6285 9.14927 14.7113 9.219 14.781C9.28873 14.8507 9.37152 14.906 9.46262 14.9438C9.55373 14.9815 9.65138 15.0009 9.75 15.0009C9.84862 15.0009 9.94627 14.9815 10.0374 14.9438C10.1285 14.906 10.2113 14.8507 10.281 14.781L12 13.0605L13.719 14.781C13.8598 14.9218 14.0508 15.0009 14.25 15.0009C14.4492 15.0009 14.6402 14.9218 14.781 14.781C14.9218 14.6402 15.0009 14.4492 15.0009 14.25C15.0009 14.0508 14.9218 13.8598 14.781 13.719L13.0605 12L14.781 10.281C14.9218 10.1402 15.0009 9.94916 15.0009 9.75C15.0009 9.55084 14.9218 9.35983 14.781 9.219C14.6402 9.07817 14.4492 8.99905 14.25 8.99905C14.0508 8.99905 13.8598 9.07817 13.719 9.219L12 10.9395L10.281 9.219Z" fill="black"/>
</g>
<defs>
<clipPath id="clip0_1315_1574">
<rect width="24" height="24" fill="white"/>
</clipPath>
</defs>
</svg>
