<svg width="24" height="24" viewBox="0 0 24 24" fill="none" xmlns="http://www.w3.org/2000/svg">
<path fill-rule="evenodd" clip-rule="evenodd" d="M6 0H18C18.7956 0 19.5587 0.316071 20.1213 0.87868C20.6839 1.44129 21 2.20435 21 3V21C21 21.7956 20.6839 22.5587 20.1213 23.1213C19.5587 23.6839 18.7956 24 18 24H6C5.20435 24 4.44129 23.6839 3.87868 23.1213C3.31607 22.5587 3 21.7956 3 21V3C3 2.20435 3.31607 1.44129 3.87868 0.87868C4.44129 0.316071 5.20435 0 6 0V0ZM6 1.5C5.60218 1.5 5.22064 1.65804 4.93934 1.93934C4.65804 2.22064 4.5 2.60218 4.5 3V21C4.5 21.3978 4.65804 21.7794 4.93934 22.0607C5.22064 22.342 5.60218 22.5 6 22.5H18C18.3978 22.5 18.7794 22.342 19.0607 22.0607C19.342 21.7794 19.5 21.3978 19.5 21V3C19.5 2.60218 19.342 2.22064 19.0607 1.93934C18.7794 1.65804 18.3978 1.5 18 1.5H6Z" fill="black"/>
<path d="M8.289 19.635C9.753 19.635 10.575 18.45 10.575 16.3275C10.575 14.2095 9.753 13.023 8.289 13.023C6.822 13.023 6 14.208 6 16.3275C6 18.45 6.822 19.6365 8.289 19.6365V19.635ZM7.041 16.3275C7.041 14.7525 7.476 13.9095 8.289 13.9095C8.826 13.9095 9.1995 14.28 9.3885 14.991L7.05 16.7055C7.04465 16.5796 7.04165 16.4536 7.041 16.3275ZM8.289 18.7485C7.749 18.7485 7.38 18.3795 7.191 17.6715L9.525 15.954C9.5295 16.0725 9.5325 16.2 9.5325 16.3275C9.5325 17.9055 9.0975 18.7485 8.289 18.7485ZM16.2825 19.5V18.6075H14.595V13.158H13.56L11.775 14.337V15.369L13.479 14.25H13.554V18.609H11.784V19.5H16.284H16.2825Z" fill="black"/>
</svg>
