<svg width="24" height="24" viewBox="0 0 24 24" fill="none" xmlns="http://www.w3.org/2000/svg">
<path d="M6 0H14.25V1.5H6C5.60218 1.5 5.22064 1.65804 4.93934 1.93934C4.65804 2.22064 4.5 2.60218 4.5 3V21C4.5 21.3978 4.65804 21.7794 4.93934 22.0607C5.22064 22.342 5.60218 22.5 6 22.5H18C18.3978 22.5 18.7794 22.342 19.0607 22.0607C19.342 21.7794 19.5 21.3978 19.5 21V6.75H21V21C21 21.7956 20.6839 22.5587 20.1213 23.1213C19.5587 23.6839 18.7956 24 18 24H6C5.20435 24 4.44129 23.6839 3.87868 23.1213C3.31607 22.5587 3 21.7956 3 21V3C3 2.20435 3.31607 1.44129 3.87868 0.87868C4.44129 0.316071 5.20435 0 6 0V0Z" fill="black"/>
<path d="M14.25 4.5V0L21 6.75H16.5C15.9033 6.75 15.331 6.51295 14.909 6.09099C14.4871 5.66903 14.25 5.09674 14.25 4.5Z" fill="black"/>
<path fill-rule="evenodd" clip-rule="evenodd" d="M10.5 7.5C10.6989 7.5 10.8897 7.57902 11.0303 7.71967C11.171 7.86032 11.25 8.05109 11.25 8.25V9.201L12.0735 8.7255C12.1588 8.67548 12.2532 8.64283 12.3512 8.62943C12.4492 8.61603 12.5489 8.62214 12.6445 8.64743C12.7401 8.67271 12.8298 8.71665 12.9084 8.77674C12.987 8.83682 13.0529 8.91185 13.1023 8.9975C13.1518 9.08316 13.1838 9.17776 13.1966 9.27584C13.2093 9.37393 13.2025 9.47356 13.1766 9.56902C13.1507 9.66447 13.1062 9.75386 13.0456 9.83203C12.9849 9.9102 12.9095 9.97561 12.8235 10.0245L12 10.5L12.8235 10.9755C12.9095 11.0244 12.9849 11.0898 13.0456 11.168C13.1062 11.2461 13.1507 11.3355 13.1766 11.431C13.2025 11.5264 13.2093 11.6261 13.1966 11.7242C13.1838 11.8222 13.1518 11.9168 13.1023 12.0025C13.0529 12.0882 12.987 12.1632 12.9084 12.2233C12.8298 12.2833 12.7401 12.3273 12.6445 12.3526C12.5489 12.3779 12.4492 12.384 12.3512 12.3706C12.2532 12.3572 12.1588 12.3245 12.0735 12.2745L11.25 11.799V12.75C11.25 12.9489 11.171 13.1397 11.0303 13.2803C10.8897 13.421 10.6989 13.5 10.5 13.5C10.3011 13.5 10.1103 13.421 9.96967 13.2803C9.82902 13.1397 9.75 12.9489 9.75 12.75V11.799L8.9265 12.2745C8.84117 12.3245 8.74679 12.3572 8.64879 12.3706C8.5508 12.384 8.45111 12.3779 8.35549 12.3526C8.25987 12.3273 8.17019 12.2833 8.09162 12.2233C8.01304 12.1632 7.94713 12.0882 7.89768 12.0025C7.84822 11.9168 7.8162 11.8222 7.80345 11.7242C7.7907 11.6261 7.79748 11.5264 7.82339 11.431C7.84931 11.3355 7.89385 11.2461 7.95445 11.168C8.01505 11.0898 8.09052 11.0244 8.1765 10.9755L9 10.5L8.1765 10.0245C8.00565 9.92434 7.88134 9.76066 7.83072 9.56919C7.7801 9.37772 7.80727 9.17399 7.90629 9.00248C8.00532 8.83096 8.16817 8.70558 8.3593 8.65369C8.55043 8.6018 8.75433 8.62761 8.9265 8.7255L9.75 9.201V8.25C9.75 8.05109 9.82902 7.86032 9.96967 7.71967C10.1103 7.57902 10.3011 7.5 10.5 7.5ZM7.5 15.75C7.5 15.5511 7.57902 15.3603 7.71967 15.2197C7.86032 15.079 8.05109 15 8.25 15H15.75C15.9489 15 16.1397 15.079 16.2803 15.2197C16.421 15.3603 16.5 15.5511 16.5 15.75C16.5 15.9489 16.421 16.1397 16.2803 16.2803C16.1397 16.421 15.9489 16.5 15.75 16.5H8.25C8.05109 16.5 7.86032 16.421 7.71967 16.2803C7.57902 16.1397 7.5 15.9489 7.5 15.75ZM7.5 18.75C7.5 18.5511 7.57902 18.3603 7.71967 18.2197C7.86032 18.079 8.05109 18 8.25 18H15.75C15.9489 18 16.1397 18.079 16.2803 18.2197C16.421 18.3603 16.5 18.5511 16.5 18.75C16.5 18.9489 16.421 19.1397 16.2803 19.2803C16.1397 19.421 15.9489 19.5 15.75 19.5H8.25C8.05109 19.5 7.86032 19.421 7.71967 19.2803C7.57902 19.1397 7.5 18.9489 7.5 18.75Z" fill="black"/>
</svg>
