<svg width="24" height="24" viewBox="0 0 24 24" fill="none" xmlns="http://www.w3.org/2000/svg">
<g clip-path="url(#clip0_1315_1559)">
<path fill-rule="evenodd" clip-rule="evenodd" d="M18 0H6C5.20435 0 4.44129 0.316071 3.87868 0.87868C3.31607 1.44129 3 2.20435 3 3V21C3 21.7956 3.31607 22.5587 3.87868 23.1213C4.44129 23.6839 5.20435 24 6 24H18C18.7956 24 19.5587 23.6839 20.1213 23.1213C20.6839 22.5587 21 21.7956 21 21V3C21 2.20435 20.6839 1.44129 20.1213 0.87868C19.5587 0.316071 18.7956 0 18 0V0ZM7.5 6C7.31723 6.00005 7.14077 6.06684 7.00377 6.18782C6.86677 6.3088 6.77866 6.47564 6.756 6.657L6.006 12.657C5.99282 12.7625 6.00221 12.8696 6.03357 12.9712C6.06493 13.0728 6.11754 13.1666 6.18789 13.2463C6.25825 13.326 6.34475 13.3898 6.44166 13.4336C6.53857 13.4773 6.64367 13.5 6.75 13.5H11.25V16.524C9.9555 16.6065 9 16.9005 9 17.25C9 17.664 10.3425 18 12 18C13.6575 18 15 17.664 15 17.25C15 16.9005 14.0445 16.6065 12.75 16.524V13.5H17.25C17.3563 13.5 17.4614 13.4773 17.5583 13.4336C17.6553 13.3898 17.7418 13.326 17.8121 13.2463C17.8825 13.1666 17.9351 13.0728 17.9664 12.9712C17.9978 12.8696 18.0072 12.7625 17.994 12.657L17.244 6.657C17.2213 6.47564 17.1332 6.3088 16.9962 6.18782C16.8592 6.06684 16.6828 6.00005 16.5 6H7.5ZM10.5 11.67V7.83C10.5 7.686 10.659 7.596 10.785 7.671L13.98 9.5895C14.0076 9.60619 14.0305 9.62974 14.0464 9.65786C14.0622 9.68597 14.0706 9.71771 14.0706 9.75C14.0706 9.78229 14.0622 9.81403 14.0464 9.84214C14.0305 9.87026 14.0076 9.89381 13.98 9.9105L10.785 11.8305C10.7563 11.848 10.7235 11.8574 10.6899 11.8578C10.6564 11.8583 10.6233 11.8497 10.5942 11.833C10.565 11.8163 10.5409 11.7921 10.5244 11.7629C10.5078 11.7337 10.4994 11.7006 10.5 11.667V11.67Z" fill="black"/>
</g>
<defs>
<clipPath id="clip0_1315_1559">
<rect width="24" height="24" fill="white"/>
</clipPath>
</defs>
</svg>
