<svg width="24" height="24" viewBox="0 0 24 24" fill="none" xmlns="http://www.w3.org/2000/svg">
<path fill-rule="evenodd" clip-rule="evenodd" d="M3 3C3 2.20435 3.31607 1.44129 3.87868 0.87868C4.44129 0.316071 5.20435 0 6 0L13.9395 0C14.3373 8.49561e-05 14.7188 0.158176 15 0.4395L20.5605 6C20.8418 6.28124 20.9999 6.66271 21 7.0605V21C21 21.7956 20.6839 22.5587 20.1213 23.1213C19.5587 23.6839 18.7956 24 18 24H6C5.20435 24 4.44129 23.6839 3.87868 23.1213C3.31607 22.5587 3 21.7956 3 21V3ZM14.25 5.25V2.25L18.75 6.75H15.75C15.3522 6.75 14.9706 6.59196 14.6893 6.31066C14.408 6.02936 14.25 5.64782 14.25 5.25ZM16.5 9.96C16.5 9.73199 16.448 9.50698 16.348 9.30208C16.248 9.09718 16.1026 8.91777 15.9228 8.7775C15.7431 8.63722 15.5337 8.53977 15.3106 8.49256C15.0876 8.44534 14.8567 8.44959 14.6355 8.505L13.1355 8.88C12.8111 8.96126 12.5232 9.14857 12.3175 9.41219C12.1118 9.67581 12 10.0006 12 10.335V16.794C11.5246 16.5969 11.0146 16.497 10.5 16.5C9.75 16.5 9.039 16.701 8.493 17.0655C7.953 17.4255 7.5 18.0075 7.5 18.75C7.5 19.4925 7.9515 20.0745 8.493 20.4345C9.039 20.799 9.7515 21 10.5 21C11.25 21 11.961 20.799 12.507 20.4345C13.047 20.0745 13.5 19.4925 13.5 18.75V13.335L16.5 12.585V9.96Z" fill="black"/>
</svg>
