<svg width="24" height="24" viewBox="0 0 24 24" fill="none" xmlns="http://www.w3.org/2000/svg">
<g clip-path="url(#clip0_1315_1307)">
<path fill-rule="evenodd" clip-rule="evenodd" d="M18 0H6C5.20435 0 4.44129 0.316071 3.87868 0.87868C3.31607 1.44129 3 2.20435 3 3V13.5H21V3C21 2.20435 20.6839 1.44129 20.1213 0.87868C19.5587 0.316071 18.7956 0 18 0V0ZM21 18H3V21C3 21.7956 3.31607 22.5587 3.87868 23.1213C4.44129 23.6839 5.20435 24 6 24H18C18.7956 24 19.5587 23.6839 20.1213 23.1213C20.6839 22.5587 21 21.7956 21 21V18ZM0 15.75C0 15.5511 0.0790176 15.3603 0.21967 15.2197C0.360322 15.079 0.551088 15 0.75 15H23.25C23.4489 15 23.6397 15.079 23.7803 15.2197C23.921 15.3603 24 15.5511 24 15.75C24 15.9489 23.921 16.1397 23.7803 16.2803C23.6397 16.421 23.4489 16.5 23.25 16.5H0.75C0.551088 16.5 0.360322 16.421 0.21967 16.2803C0.0790176 16.1397 0 15.9489 0 15.75Z" fill="black"/>
</g>
<defs>
<clipPath id="clip0_1315_1307">
<rect width="24" height="24" fill="white"/>
</clipPath>
</defs>
</svg>
