<svg width="24" height="24" viewBox="0 0 24 24" fill="none" xmlns="http://www.w3.org/2000/svg">
<path fill-rule="evenodd" clip-rule="evenodd" d="M3 3C3 2.20435 3.31607 1.44129 3.87868 0.87868C4.44129 0.316071 5.20435 0 6 0L13.9395 0C14.3373 8.49561e-05 14.7188 0.158176 15 0.4395L20.5605 6C20.8418 6.28124 20.9999 6.66271 21 7.0605V21C21 21.7956 20.6839 22.5587 20.1213 23.1213C19.5587 23.6839 18.7956 24 18 24H6C5.20435 24 4.44129 23.6839 3.87868 23.1213C3.31607 22.5587 3 21.7956 3 21V3ZM14.25 5.25V2.25L18.75 6.75H15.75C15.3522 6.75 14.9706 6.59196 14.6893 6.31066C14.408 6.02936 14.25 5.64782 14.25 5.25ZM12.75 10.5C12.75 10.3011 12.671 10.1103 12.5303 9.96967C12.3897 9.82902 12.1989 9.75 12 9.75C11.8011 9.75 11.6103 9.82902 11.4697 9.96967C11.329 10.1103 11.25 10.3011 11.25 10.5V12.75H9C8.80109 12.75 8.61032 12.829 8.46967 12.9697C8.32902 13.1103 8.25 13.3011 8.25 13.5C8.25 13.6989 8.32902 13.8897 8.46967 14.0303C8.61032 14.171 8.80109 14.25 9 14.25H11.25V16.5C11.25 16.6989 11.329 16.8897 11.4697 17.0303C11.6103 17.171 11.8011 17.25 12 17.25C12.1989 17.25 12.3897 17.171 12.5303 17.0303C12.671 16.8897 12.75 16.6989 12.75 16.5V14.25H15C15.1989 14.25 15.3897 14.171 15.5303 14.0303C15.671 13.8897 15.75 13.6989 15.75 13.5C15.75 13.3011 15.671 13.1103 15.5303 12.9697C15.3897 12.829 15.1989 12.75 15 12.75H12.75V10.5Z" fill="black"/>
</svg>
