<svg width="24" height="24" viewBox="0 0 24 24" fill="none" xmlns="http://www.w3.org/2000/svg">
<path d="M6 0H14.25V1.5H6C5.60218 1.5 5.22064 1.65804 4.93934 1.93934C4.65804 2.22064 4.5 2.60218 4.5 3V21C4.5 21.3978 4.65804 21.7794 4.93934 22.0607C5.22064 22.342 5.60218 22.5 6 22.5H18C18.3978 22.5 18.7794 22.342 19.0607 22.0607C19.342 21.7794 19.5 21.3978 19.5 21V6.75H21V21C21 21.7956 20.6839 22.5587 20.1213 23.1213C19.5587 23.6839 18.7956 24 18 24H6C5.20435 24 4.44129 23.6839 3.87868 23.1213C3.31607 22.5587 3 21.7956 3 21V3C3 2.20435 3.31607 1.44129 3.87868 0.87868C4.44129 0.316071 5.20435 0 6 0V0Z" fill="black"/>
<path d="M14.25 4.5V0L21 6.75H16.5C15.9033 6.75 15.331 6.51295 14.909 6.09099C14.4871 5.66903 14.25 5.09674 14.25 4.5Z" fill="black"/>
<path fill-rule="evenodd" clip-rule="evenodd" d="M12.0009 18C12.1999 18 12.3906 17.921 12.5313 17.7803C12.6719 17.6396 12.7509 17.4489 12.7509 17.25V11.5605L14.4699 13.281C14.6108 13.4218 14.8018 13.5009 15.0009 13.5009C15.2001 13.5009 15.3911 13.4218 15.5319 13.281C15.6728 13.1401 15.7519 12.9491 15.7519 12.75C15.7519 12.5508 15.6728 12.3598 15.5319 12.219L12.5319 9.21897C12.4623 9.14912 12.3795 9.09371 12.2884 9.0559C12.1973 9.01809 12.0996 8.99863 12.0009 8.99863C11.9023 8.99863 11.8046 9.01809 11.7135 9.0559C11.6224 9.09371 11.5396 9.14912 11.4699 9.21897L8.46995 12.219C8.32912 12.3598 8.25 12.5508 8.25 12.75C8.25 12.9491 8.32912 13.1401 8.46995 13.281C8.61078 13.4218 8.80178 13.5009 9.00095 13.5009C9.20011 13.5009 9.39112 13.4218 9.53195 13.281L11.2509 11.5605V17.25C11.2509 17.4489 11.33 17.6396 11.4706 17.7803C11.6113 17.921 11.802 18 12.0009 18Z" fill="black"/>
</svg>
