<svg width="25" height="24" viewBox="0 0 25 24" fill="none" xmlns="http://www.w3.org/2000/svg">
<g clip-path="url(#clip0_1315_1292)">
<path fill-rule="evenodd" clip-rule="evenodd" d="M18.5 0H6.5C5.70435 0 4.94129 0.316071 4.37868 0.87868C3.81607 1.44129 3.5 2.20435 3.5 3V21C3.5 21.7956 3.81607 22.5587 4.37868 23.1213C4.94129 23.6839 5.70435 24 6.5 24H18.5C19.2956 24 20.0587 23.6839 20.6213 23.1213C21.1839 22.5587 21.5 21.7956 21.5 21V3C21.5 2.20435 21.1839 1.44129 20.6213 0.87868C20.0587 0.316071 19.2956 0 18.5 0V0ZM12.5 7.5C12.6989 7.5 12.8897 7.57902 13.0303 7.71967C13.171 7.86032 13.25 8.05109 13.25 8.25V13.9395L14.969 12.219C15.1098 12.0782 15.3008 11.9991 15.5 11.9991C15.6992 11.9991 15.8902 12.0782 16.031 12.219C16.1718 12.3598 16.2509 12.5508 16.2509 12.75C16.2509 12.9492 16.1718 13.1402 16.031 13.281L13.031 16.281C12.9613 16.3508 12.8786 16.4063 12.7874 16.4441C12.6963 16.4819 12.5987 16.5013 12.5 16.5013C12.4013 16.5013 12.3037 16.4819 12.2125 16.4441C12.1214 16.4063 12.0387 16.3508 11.969 16.281L8.969 13.281C8.89927 13.2113 8.84395 13.1285 8.80621 13.0374C8.76848 12.9463 8.74905 12.8486 8.74905 12.75C8.74905 12.6514 8.76848 12.5537 8.80621 12.4626C8.84395 12.3715 8.89927 12.2887 8.969 12.219C9.10983 12.0782 9.30084 11.9991 9.5 11.9991C9.59862 11.9991 9.69627 12.0185 9.78738 12.0562C9.87848 12.094 9.96127 12.1493 10.031 12.219L11.75 13.9395V8.25C11.75 8.05109 11.829 7.86032 11.9697 7.71967C12.1103 7.57902 12.3011 7.5 12.5 7.5Z" fill="black"/>
</g>
<defs>
<clipPath id="clip0_1315_1292">
<rect width="24" height="24" fill="white" transform="translate(0.5)"/>
</clipPath>
</defs>
</svg>
