<svg width="24" height="24" viewBox="0 0 24 24" fill="none" xmlns="http://www.w3.org/2000/svg">
<path fill-rule="evenodd" clip-rule="evenodd" d="M6 0H18C18.7956 0 19.5587 0.316071 20.1213 0.87868C20.6839 1.44129 21 2.20435 21 3V21C21 21.7956 20.6839 22.5587 20.1213 23.1213C19.5587 23.6839 18.7956 24 18 24H6C5.20435 24 4.44129 23.6839 3.87868 23.1213C3.31607 22.5587 3 21.7956 3 21V3C3 2.20435 3.31607 1.44129 3.87868 0.87868C4.44129 0.316071 5.20435 0 6 0V0ZM6 1.5C5.60218 1.5 5.22064 1.65804 4.93934 1.93934C4.65804 2.22064 4.5 2.60218 4.5 3V21C4.5 21.3978 4.65804 21.7794 4.93934 22.0607C5.22064 22.342 5.60218 22.5 6 22.5H18C18.3978 22.5 18.7794 22.342 19.0607 22.0607C19.342 21.7794 19.5 21.3978 19.5 21V3C19.5 2.60218 19.342 2.22064 19.0607 1.93934C18.7794 1.65804 18.3978 1.5 18 1.5H6Z" fill="black"/>
<path fill-rule="evenodd" clip-rule="evenodd" d="M15.456 4.69499C15.6735 4.65151 15.898 4.65682 16.1132 4.71054C16.3285 4.76426 16.5291 4.86505 16.7007 5.00565C16.8723 5.14625 17.0106 5.32316 17.1055 5.52363C17.2005 5.72411 17.2499 5.94315 17.25 6.16499V8.86499L13.5 9.61499V17.25C13.5 17.9925 13.0485 18.5745 12.507 18.9345C11.961 19.299 11.2485 19.5 10.5 19.5C9.75 19.5 9.039 19.299 8.493 18.9345C7.953 18.5745 7.5 17.9925 7.5 17.25C7.5 16.5075 7.9515 15.9255 8.493 15.5655C9.039 15.201 9.7515 15 10.5 15C11.034 15 11.55 15.102 12 15.294V6.61499C12.0002 6.26835 12.1205 5.93248 12.3403 5.66449C12.5602 5.3965 12.8661 5.21293 13.206 5.14499L15.456 4.69499Z" fill="black"/>
</svg>
