<svg width="24" height="24" viewBox="0 0 24 24" fill="none" xmlns="http://www.w3.org/2000/svg">
<path fill-rule="evenodd" clip-rule="evenodd" d="M18 24C18.7956 24 19.5587 23.6839 20.1213 23.1213C20.6839 22.5587 21 21.7956 21 21V6.75L14.25 0H6C5.20435 0 4.44129 0.316071 3.87868 0.87868C3.31607 1.44129 3 2.20435 3 3V21C3 21.7956 3.31607 22.5587 3.87868 23.1213C4.44129 23.6839 5.20435 24 6 24H18ZM4.5 3C4.5 2.60218 4.65804 2.22064 4.93934 1.93934C5.22064 1.65804 5.60218 1.5 6 1.5H14.25V4.5C14.25 5.09674 14.4871 5.66903 14.909 6.09099C15.331 6.51295 15.9033 6.75 16.5 6.75H19.5V15L16.3755 11.8755C16.2985 11.7986 16.2056 11.7394 16.1034 11.702C16.0012 11.6645 15.8921 11.6498 15.7836 11.6588C15.6751 11.6678 15.5699 11.7003 15.4753 11.754C15.3806 11.8078 15.2988 11.8815 15.2355 11.97L12 16.5L8.7525 14.55C8.60892 14.464 8.4407 14.4285 8.27462 14.4492C8.10854 14.4699 7.95415 14.5455 7.836 14.664L4.5 18V3Z" fill="black"/>
<path fill-rule="evenodd" clip-rule="evenodd" d="M9.75293 10.5C10.0484 10.5 10.341 10.4418 10.614 10.3287C10.887 10.2157 11.135 10.0499 11.3439 9.84099C11.5529 9.63206 11.7186 9.38402 11.8317 9.11104C11.9447 8.83806 12.0029 8.54547 12.0029 8.25C12.0029 7.95453 11.9447 7.66194 11.8317 7.38896C11.7186 7.11598 11.5529 6.86794 11.3439 6.65901C11.135 6.45008 10.887 6.28434 10.614 6.17127C10.341 6.0582 10.0484 6 9.75293 6C9.15619 6 8.5839 6.23705 8.16194 6.65901C7.73998 7.08097 7.50293 7.65326 7.50293 8.25C7.50293 8.84674 7.73998 9.41903 8.16194 9.84099C8.5839 10.2629 9.15619 10.5 9.75293 10.5Z" fill="black"/>
</svg>
