<svg width="24" height="24" viewBox="0 0 24 24" fill="none" xmlns="http://www.w3.org/2000/svg">
<g clip-path="url(#clip0_1315_1621)">
<path fill-rule="evenodd" clip-rule="evenodd" d="M14.7417 6H3.28474C3.07636 5.99999 2.87028 6.04339 2.67961 6.12744C2.48894 6.21149 2.31787 6.33434 2.17732 6.48816C2.03676 6.64199 1.92979 6.82341 1.86323 7.02086C1.79667 7.21832 1.77198 7.42747 1.79074 7.635L2.74624 18.135C2.77991 18.5077 2.95168 18.8543 3.22782 19.1069C3.50396 19.3594 3.86453 19.4996 4.23874 19.5H13.4997V21H4.23874C3.49029 20.9997 2.76899 20.7197 2.21643 20.2148C1.66387 19.71 1.31997 19.0169 1.25224 18.2715L0.296736 7.7715C0.232815 7.07667 0.414327 6.38141 0.809736 5.8065L0.749736 4.5C0.749736 3.70435 1.06581 2.94129 1.62842 2.37868C2.19102 1.81607 2.95409 1.5 3.74974 1.5H9.25774C10.0533 1.50017 10.8163 1.81635 11.3787 2.379L12.6207 3.621C13.1832 4.18365 13.9462 4.49983 14.7417 4.5H20.7147C21.1316 4.49996 21.5439 4.5868 21.9254 4.75499C22.3068 4.92317 22.649 5.16902 22.9302 5.47683C23.2113 5.78465 23.4252 6.14768 23.5582 6.54276C23.6912 6.93785 23.7405 7.35633 23.7027 7.7715L23.3187 12H21.8097L22.2072 7.635C22.226 7.4276 22.2013 7.21857 22.1349 7.02122C22.0684 6.82387 21.9616 6.64252 21.8212 6.48872C21.6808 6.33491 21.5099 6.21203 21.3194 6.12789C21.1289 6.04375 20.923 6.0002 20.7147 6H14.7417ZM10.3167 3.4395L11.3802 4.5H3.28474C2.92474 4.5 2.57974 4.563 2.25874 4.68L2.24974 4.47C2.25759 4.0774 2.41909 3.70353 2.69954 3.42868C2.98 3.15383 3.35705 2.99992 3.74974 3H9.25774C9.65553 3.00008 10.037 3.15818 10.3182 3.4395H10.3167Z" fill="black"/>
<path fill-rule="evenodd" clip-rule="evenodd" d="M23.7819 15.2189C23.8518 15.2885 23.9072 15.3713 23.945 15.4624C23.9828 15.5535 24.0023 15.6512 24.0023 15.7499C24.0023 15.8485 23.9828 15.9462 23.945 16.0373C23.9072 16.1284 23.8518 16.2112 23.7819 16.2809L19.2819 20.7809C19.2123 20.8507 19.1295 20.9061 19.0384 20.9439C18.9473 20.9818 18.8496 21.0012 18.7509 21.0012C18.6523 21.0012 18.5546 20.9818 18.4635 20.9439C18.3724 20.9061 18.2896 20.8507 18.2199 20.7809L15.9699 18.5309C15.9002 18.4611 15.8449 18.3784 15.8072 18.2873C15.7694 18.1961 15.75 18.0985 15.75 17.9999C15.75 17.9013 15.7694 17.8036 15.8072 17.7125C15.8449 17.6214 15.9002 17.5386 15.9699 17.4689C16.0397 17.3991 16.1225 17.3438 16.2136 17.3061C16.3047 17.2684 16.4023 17.2489 16.5009 17.2489C16.5996 17.2489 16.6972 17.2684 16.7883 17.3061C16.8794 17.3438 16.9622 17.3991 17.0319 17.4689L18.7509 19.1894L22.7199 15.2189C22.7896 15.149 22.8724 15.0936 22.9635 15.0558C23.0546 15.018 23.1523 14.9985 23.2509 14.9985C23.3496 14.9985 23.4473 15.018 23.5384 15.0558C23.6295 15.0936 23.7123 15.149 23.7819 15.2189Z" fill="black"/>
</g>
<defs>
<clipPath id="clip0_1315_1621">
<rect width="24" height="24" fill="white"/>
</clipPath>
</defs>
</svg>
