<svg width="24" height="24" viewBox="0 0 24 24" fill="none" xmlns="http://www.w3.org/2000/svg">
<path fill-rule="evenodd" clip-rule="evenodd" d="M14.7417 6H3.28474C3.07636 5.99999 2.87028 6.04339 2.67961 6.12744C2.48894 6.21149 2.31787 6.33434 2.17732 6.48816C2.03676 6.64199 1.92979 6.82341 1.86323 7.02086C1.79667 7.21832 1.77198 7.42747 1.79074 7.635L2.74624 18.135C2.77991 18.5077 2.95168 18.8543 3.22782 19.1069C3.50396 19.3594 3.86453 19.4996 4.23874 19.5H13.4997V21H4.23874C3.49029 20.9997 2.76899 20.7197 2.21643 20.2148C1.66387 19.71 1.31997 19.0169 1.25224 18.2715L0.296736 7.7715C0.232815 7.07667 0.414327 6.38141 0.809736 5.8065L0.749736 4.5C0.749736 3.70435 1.06581 2.94129 1.62842 2.37868C2.19102 1.81607 2.95409 1.5 3.74974 1.5H9.25774C10.0533 1.50017 10.8163 1.81635 11.3787 2.379L12.6207 3.621C13.1832 4.18365 13.9462 4.49983 14.7417 4.5H20.7147C21.1316 4.49996 21.5439 4.5868 21.9254 4.75499C22.3068 4.92317 22.649 5.16902 22.9302 5.47683C23.2113 5.78465 23.4252 6.14768 23.5582 6.54276C23.6912 6.93785 23.7405 7.35633 23.7027 7.7715L23.3187 12H21.8097L22.2072 7.635C22.226 7.4276 22.2013 7.21857 22.1349 7.02122C22.0684 6.82387 21.9616 6.64252 21.8212 6.48872C21.6808 6.33491 21.5099 6.21203 21.3194 6.12789C21.1289 6.04375 20.923 6.0002 20.7147 6H14.7417ZM10.3167 3.4395L11.3802 4.5H3.28474C2.92474 4.5 2.57974 4.563 2.25874 4.68L2.24974 4.47C2.25759 4.0774 2.41909 3.70353 2.69954 3.42868C2.98 3.15383 3.35705 2.99992 3.74974 3H9.25774C9.65553 3.00008 10.037 3.15818 10.3182 3.4395H10.3167Z" fill="black"/>
<path fill-rule="evenodd" clip-rule="evenodd" d="M16.5 17.25C16.5 17.0511 16.579 16.8603 16.7197 16.7197C16.8603 16.579 17.0511 16.5 17.25 16.5H23.25C23.4489 16.5 23.6397 16.579 23.7803 16.7197C23.921 16.8603 24 17.0511 24 17.25C24 17.4489 23.921 17.6397 23.7803 17.7803C23.6397 17.921 23.4489 18 23.25 18H17.25C17.0511 18 16.8603 17.921 16.7197 17.7803C16.579 17.6397 16.5 17.4489 16.5 17.25Z" fill="black"/>
</svg>
