<svg width="24" height="24" viewBox="0 0 24 24" fill="none" xmlns="http://www.w3.org/2000/svg">
<path fill-rule="evenodd" clip-rule="evenodd" d="M20.7149 4.5H14.7419C13.9463 4.49983 13.1833 4.18365 12.6209 3.621L11.3789 2.379C10.8164 1.81635 10.0534 1.50017 9.25786 1.5H3.74986C2.95421 1.5 2.19115 1.81607 1.62854 2.37868C1.06593 2.94129 0.749858 3.70435 0.749858 4.5L0.809858 5.805C0.414107 6.38032 0.232579 7.07617 0.296858 7.7715L1.25236 18.2715C1.32009 19.0169 1.664 19.71 2.21655 20.2148C2.76911 20.7197 3.49041 20.9997 4.23886 21H19.7609C20.5093 20.9997 21.2306 20.7197 21.7832 20.2148C22.3357 19.71 22.6796 19.0169 22.7474 18.2715L23.7029 7.7715C23.7406 7.35633 23.6914 6.93785 23.5584 6.54276C23.4253 6.14768 23.2114 5.78465 22.9303 5.47683C22.6492 5.16902 22.3069 4.92317 21.9255 4.75499C21.5441 4.5868 21.1317 4.49996 20.7149 4.5ZM3.28486 4.5C2.92486 4.5 2.57986 4.563 2.25886 4.68L2.24986 4.47C2.25771 4.0774 2.41921 3.70353 2.69967 3.42868C2.98012 3.15383 3.35718 2.99992 3.74986 3H9.25786C9.65565 3.00008 10.0371 3.15818 10.3184 3.4395L11.3789 4.5H3.28486ZM17.6969 12.4065L12.9239 15.3615C12.5189 15.6105 11.9999 15.3075 11.9999 14.8035V13.65C11.9999 13.65 8.14336 13.2 5.99986 17.25C6.85636 10.05 10.7144 10.05 11.9999 10.05V8.8965C11.9999 8.3925 12.5189 8.0895 12.9239 8.34L17.6969 11.2935C18.1019 11.5425 18.1019 12.1575 17.6969 12.4065Z" fill="black"/>
</svg>
