<svg width="24" height="24" viewBox="0 0 24 24" fill="none" xmlns="http://www.w3.org/2000/svg">
<path fill-rule="evenodd" clip-rule="evenodd" d="M14.7417 6H3.28474C3.07636 5.99999 2.87028 6.04339 2.67961 6.12744C2.48894 6.21149 2.31787 6.33434 2.17732 6.48816C2.03676 6.64199 1.92979 6.82341 1.86323 7.02086C1.79667 7.21832 1.77198 7.42747 1.79074 7.635L2.74624 18.135C2.77991 18.5077 2.95168 18.8543 3.22782 19.1069C3.50396 19.3594 3.86453 19.4996 4.23874 19.5H13.4997V21H4.23874C3.49029 20.9997 2.76899 20.7197 2.21643 20.2148C1.66387 19.71 1.31997 19.0169 1.25224 18.2715L0.296736 7.7715C0.232815 7.07667 0.414327 6.38141 0.809736 5.8065L0.749736 4.5C0.749736 3.70435 1.06581 2.94129 1.62842 2.37868C2.19102 1.81607 2.95409 1.5 3.74974 1.5H9.25774C10.0533 1.50017 10.8163 1.81635 11.3787 2.379L12.6207 3.621C13.1832 4.18365 13.9462 4.49983 14.7417 4.5H20.7147C21.1316 4.49996 21.5439 4.5868 21.9254 4.75499C22.3068 4.92317 22.649 5.16902 22.9302 5.47683C23.2113 5.78465 23.4252 6.14768 23.5582 6.54276C23.6912 6.93785 23.7405 7.35633 23.7027 7.7715L23.3187 12H21.8097L22.2072 7.635C22.226 7.4276 22.2013 7.21857 22.1349 7.02122C22.0684 6.82387 21.9616 6.64252 21.8212 6.48872C21.6808 6.33491 21.5099 6.21203 21.3194 6.12789C21.1289 6.04375 20.923 6.0002 20.7147 6H14.7417ZM10.3167 3.4395L11.3802 4.5H3.28474C2.92474 4.5 2.57974 4.563 2.25874 4.68L2.24974 4.47C2.25759 4.0774 2.41909 3.70353 2.69954 3.42868C2.98 3.15383 3.35705 2.99992 3.74974 3H9.25774C9.65553 3.00008 10.037 3.15818 10.3182 3.4395H10.3167Z" fill="black"/>
<path fill-rule="evenodd" clip-rule="evenodd" d="M16.7203 15.2189C16.79 15.149 16.8728 15.0936 16.9639 15.0558C17.055 15.018 17.1527 14.9985 17.2513 14.9985C17.35 14.9985 17.4477 15.018 17.5388 15.0558C17.6299 15.0936 17.7127 15.149 17.7823 15.2189L19.5013 16.9394L21.2203 15.2189C21.3612 15.078 21.5522 14.9989 21.7513 14.9989C21.9505 14.9989 22.1415 15.078 22.2823 15.2189C22.4232 15.3597 22.5023 15.5507 22.5023 15.7499C22.5023 15.949 22.4232 16.14 22.2823 16.2809L20.5618 17.9999L22.2823 19.7189C22.4232 19.8597 22.5023 20.0507 22.5023 20.2499C22.5023 20.449 22.4232 20.64 22.2823 20.7809C22.1415 20.9217 21.9505 21.0008 21.7513 21.0008C21.5522 21.0008 21.3612 20.9217 21.2203 20.7809L19.5013 19.0604L17.7823 20.7809C17.7126 20.8506 17.6298 20.9059 17.5387 20.9437C17.4476 20.9814 17.35 21.0008 17.2513 21.0008C17.1527 21.0008 17.0551 20.9814 16.964 20.9437C16.8729 20.9059 16.7901 20.8506 16.7203 20.7809C16.6506 20.7111 16.5953 20.6284 16.5576 20.5373C16.5198 20.4461 16.5004 20.3485 16.5004 20.2499C16.5004 20.1513 16.5198 20.0536 16.5576 19.9625C16.5953 19.8714 16.6506 19.7886 16.7203 19.7189L18.4408 17.9999L16.7203 16.2809C16.6505 16.2112 16.5951 16.1284 16.5573 16.0373C16.5195 15.9462 16.5 15.8485 16.5 15.7499C16.5 15.6512 16.5195 15.5535 16.5573 15.4624C16.5951 15.3713 16.6505 15.2885 16.7203 15.2189Z" fill="black"/>
</svg>
