<svg width="24" height="24" viewBox="0 0 24 24" fill="none" xmlns="http://www.w3.org/2000/svg">
<path d="M14.655 18.1649L20.673 13.7354C20.8182 13.6496 20.9386 13.5274 21.0222 13.3809C21.1058 13.2344 21.1497 13.0686 21.1497 12.8999C21.1497 12.7312 21.1058 12.5654 21.0222 12.4189C20.9386 12.2724 20.8182 12.1502 20.673 12.0644L14.6565 7.6349C14.5095 7.54828 14.3423 7.50212 14.1717 7.50112C14.0011 7.50011 13.8333 7.54429 13.6853 7.62917C13.5374 7.71405 13.4145 7.8366 13.3293 7.98436C13.244 8.13212 13.1994 8.29981 13.2 8.4704V9.9749H3V15.8249H13.2V17.3294C13.2 18.0869 14.0175 18.5414 14.655 18.1649Z" fill="black"/>
</svg>
