<svg width="24" height="24" viewBox="0 0 24 24" fill="none" xmlns="http://www.w3.org/2000/svg">
<g clip-path="url(#clip0_1315_1669)">
<path fill-rule="evenodd" clip-rule="evenodd" d="M13.387 1.07917C13.0225 -0.375835 10.957 -0.375835 10.591 1.07917L10.4845 1.50817C10.4222 1.75748 10.2943 1.98557 10.1141 2.16878C9.93391 2.35198 9.70796 2.48363 9.45972 2.55005C9.21147 2.61648 8.94997 2.61526 8.70235 2.54652C8.45473 2.47779 8.23002 2.34404 8.05153 2.15916L7.74403 1.84267C6.70153 0.764165 4.91203 1.79766 5.32453 3.23917L5.44453 3.66516C5.51504 3.91198 5.5183 4.17316 5.45396 4.42166C5.38962 4.67016 5.26002 4.89695 5.07859 5.07853C4.89716 5.26012 4.67048 5.3899 4.42204 5.45445C4.17359 5.519 3.91241 5.51597 3.66553 5.44566L3.23953 5.32416C1.79953 4.91166 0.764531 6.70117 1.84303 7.74367L2.15953 8.05117C2.34441 8.22966 2.47816 8.45437 2.54689 8.70199C2.61562 8.9496 2.61684 9.2111 2.55042 9.45935C2.484 9.7076 2.35235 9.93355 2.16914 10.1138C1.98594 10.294 1.75784 10.4219 1.50853 10.4842L1.07953 10.5907C-0.375469 10.9552 -0.375469 13.0207 1.07953 13.3867L1.50853 13.4932C1.75784 13.5555 1.98594 13.6834 2.16914 13.8636C2.35235 14.0438 2.484 14.2697 2.55042 14.518C2.61684 14.7662 2.61562 15.0277 2.54689 15.2753C2.47816 15.523 2.34441 15.7477 2.15953 15.9262L1.84303 16.2337C0.764531 17.2762 1.79803 19.0657 3.23953 18.6532L3.66553 18.5332C3.9125 18.4625 4.17388 18.4592 4.42255 18.5236C4.67123 18.588 4.89815 18.7178 5.07979 18.8994C5.26143 19.081 5.39118 19.308 5.45558 19.5566C5.51997 19.8053 5.51668 20.0667 5.44603 20.3137L5.32453 20.7382C4.91203 22.1782 6.70153 23.2132 7.74403 22.1347L8.05153 21.8182C8.23002 21.6333 8.45473 21.4995 8.70235 21.4308C8.94997 21.3621 9.21147 21.3609 9.45972 21.4273C9.70796 21.4937 9.93391 21.6253 10.1141 21.8086C10.2943 21.9918 10.4222 22.2199 10.4845 22.4692L10.591 22.8982C10.9555 24.3532 13.021 24.3532 13.387 22.8982L13.4935 22.4692C13.5558 22.2199 13.6837 21.9918 13.8639 21.8086C14.0442 21.6253 14.2701 21.4937 14.5183 21.4273C14.7666 21.3609 15.0281 21.3621 15.2757 21.4308C15.5233 21.4995 15.748 21.6333 15.9265 21.8182L16.234 22.1347C17.2765 23.2132 19.066 22.1797 18.6535 20.7382L18.5335 20.3122C18.4629 20.0652 18.4596 19.8038 18.524 19.5551C18.5884 19.3065 18.7181 19.0795 18.8998 18.8979C19.0814 18.7163 19.3083 18.5865 19.557 18.5221C19.8057 18.4577 20.0671 18.461 20.314 18.5317L20.7385 18.6532C22.1785 19.0657 23.2135 17.2762 22.135 16.2337L21.8185 15.9262C21.6337 15.7477 21.4999 15.523 21.4312 15.2753C21.3624 15.0277 21.3612 14.7662 21.4276 14.518C21.4941 14.2697 21.6257 14.0438 21.8089 13.8636C21.9921 13.6834 22.2202 13.5555 22.4695 13.4932L22.8985 13.3867C24.3535 13.0222 24.3535 10.9567 22.8985 10.5907L22.4695 10.4842C22.2202 10.4219 21.9921 10.294 21.8089 10.1138C21.6257 9.93355 21.4941 9.7076 21.4276 9.45935C21.3612 9.2111 21.3624 8.9496 21.4312 8.70199C21.4999 8.45437 21.6337 8.22966 21.8185 8.05117L22.135 7.74367C23.2135 6.70117 22.18 4.91166 20.7385 5.32416L20.3125 5.44417C20.0657 5.51468 19.8045 5.51793 19.556 5.45359C19.3075 5.38925 19.0807 5.25966 18.8992 5.07822C18.7176 4.89679 18.5878 4.67012 18.5232 4.42167C18.4587 4.17323 18.4617 3.91204 18.532 3.66516L18.6535 3.23917C19.066 1.79917 17.2765 0.764165 16.234 1.84267L15.9265 2.15916C15.748 2.34404 15.5233 2.47779 15.2757 2.54652C15.0281 2.61526 14.7666 2.61648 14.5183 2.55005C14.2701 2.48363 14.0442 2.35198 13.8639 2.16878C13.6837 1.98557 13.5558 1.75748 13.4935 1.50817L13.387 1.07917ZM11.989 19.4842C12.9824 19.4982 13.9686 19.3147 14.8904 18.9443C15.8122 18.5739 16.6512 18.0239 17.3586 17.3265C18.066 16.629 18.6278 15.7978 19.0112 14.8814C19.3946 13.9649 19.5921 12.9814 19.5921 11.9879C19.5921 10.9945 19.3946 10.0109 19.0112 9.09446C18.6278 8.17799 18.066 7.34686 17.3586 6.64938C16.6512 5.95189 15.8122 5.40196 14.8904 5.03154C13.9686 4.66113 12.9824 4.47761 11.989 4.49166C10.0007 4.49167 8.09381 5.28153 6.68785 6.68749C5.28189 8.09345 4.49203 10.0003 4.49203 11.9887C4.49203 13.977 5.28189 15.8839 6.68785 17.2898C8.09381 18.6958 10.0007 19.4857 11.989 19.4857V19.4842Z" fill="black"/>
</g>
<defs>
<clipPath id="clip0_1315_1669">
<rect width="24" height="24" fill="white"/>
</clipPath>
</defs>
</svg>
