<svg width="24" height="24" viewBox="0 0 24 24" fill="none" xmlns="http://www.w3.org/2000/svg">
<path d="M14.7178 2.92804C14.8389 3.02517 14.9269 3.15746 14.9696 3.30668C15.0123 3.4559 15.0076 3.61469 14.9563 3.76116C14.9049 3.90763 14.8094 4.03456 14.6829 4.12445C14.5563 4.21434 14.4051 4.26276 14.2498 4.26304C11.7433 4.26304 9.97184 5.15704 8.82584 6.04054L7.28534 7.60954V9.31504C7.28552 9.4136 7.26627 9.51122 7.22869 9.60233C7.19111 9.69345 7.13594 9.77626 7.06634 9.84604L5.13734 11.7795C5.06767 11.8494 4.98491 11.9048 4.89379 11.9426C4.80267 11.9804 4.70499 11.9999 4.60634 11.9999C4.50769 11.9999 4.41001 11.9804 4.31889 11.9426C4.22777 11.9048 4.14501 11.8494 4.07534 11.7795L0.218841 7.91104C0.0786959 7.77046 0 7.58005 0 7.38154C0 7.18303 0.0786959 6.99262 0.218841 6.85204L2.14784 4.91704C2.21762 4.84744 2.30043 4.79227 2.39155 4.75469C2.48266 4.71711 2.58028 4.69786 2.67884 4.69804H4.25984C6.75734 1.84204 9.32384 1.29304 11.3353 1.56004C12.4485 1.71316 13.5131 2.114 14.4508 2.73304L14.7178 2.92654V2.92804Z" fill="black"/>
<path fill-rule="evenodd" clip-rule="evenodd" d="M9.01773 5.25002C9.1196 5.25253 9.21988 5.27578 9.31247 5.31833C9.40505 5.36088 9.48799 5.42185 9.55623 5.49752L23.2752 18.4665C23.4044 18.6092 23.4737 18.796 23.469 18.9884C23.4643 19.1807 23.3858 19.3639 23.2497 19.5L20.9997 21.75C20.9235 21.8264 20.8316 21.8855 20.7304 21.9231C20.6292 21.9608 20.5211 21.9762 20.4135 21.9682C20.3058 21.9602 20.2011 21.9291 20.1066 21.8769C20.0121 21.8248 19.9299 21.7528 19.8657 21.666L6.89673 7.94552C6.79016 7.80125 6.73883 7.62356 6.75204 7.44468C6.76525 7.2658 6.84213 7.09758 6.96873 6.97052L8.46873 5.47052C8.54051 5.39847 8.62619 5.34176 8.72057 5.30385C8.81495 5.26595 8.91605 5.24763 9.01773 5.25002Z" fill="black"/>
</svg>
