<svg width="24" height="24" viewBox="0 0 24 24" fill="none" xmlns="http://www.w3.org/2000/svg">
<g clip-path="url(#clip0_1315_1729)">
<path fill-rule="evenodd" clip-rule="evenodd" d="M10.434 21.801C10.5315 23.205 11.862 24.2895 13.296 23.931L13.6875 23.8335C14.0467 23.7496 14.3768 23.5712 14.6437 23.3166C14.9107 23.0621 15.1046 22.7408 15.2055 22.386C15.5355 21.162 16.005 18.618 15.2985 15.621C15.5025 15.651 15.726 15.6765 15.963 15.6975C17.0325 15.795 18.4665 15.804 19.737 15.381C20.514 15.1215 21.228 14.361 21.537 13.473C21.6917 13.0432 21.7406 12.5824 21.6795 12.1296C21.6184 11.6769 21.4491 11.2455 21.186 10.872C21.273 10.695 21.3405 10.509 21.393 10.329C21.5085 9.92404 21.5625 9.47704 21.5625 9.04354C21.5625 8.61154 21.5085 8.16604 21.393 7.75954C21.3341 7.55028 21.2537 7.3477 21.153 7.15504C21.4065 6.57454 21.3135 5.92504 21.1485 5.43154C20.9795 4.94477 20.7322 4.48879 20.4165 4.08154C20.4975 3.85204 20.5305 3.61204 20.5305 3.38404C20.5241 2.90295 20.3933 2.43169 20.151 2.01604C19.65 1.13554 18.6555 0.420044 17.25 0.420044V1.92004C18.0945 1.92004 18.6015 2.32804 18.849 2.76004C18.978 2.98504 19.0305 3.21004 19.0305 3.38404C19.0305 3.56404 18.978 3.63154 18.9705 3.63904L18.4395 4.16854L18.969 4.69954C19.272 5.00254 19.5795 5.46754 19.7265 5.90704C19.8825 6.37504 19.791 6.56704 19.719 6.63904L19.1895 7.16854L19.719 7.69954C19.7835 7.76404 19.8765 7.91104 19.95 8.17204C20.022 8.42254 20.0625 8.72704 20.0625 9.04354C20.0625 9.36154 20.022 9.66604 19.95 9.91654C19.875 10.1775 19.7835 10.3245 19.719 10.389L19.1895 10.9185L19.719 11.4495C20.2485 11.9775 20.2785 12.5205 20.1195 12.981C19.9365 13.506 19.5255 13.8705 19.263 13.9575C18.2835 14.2845 17.0925 14.2935 16.098 14.2035C15.5462 14.1527 14.9982 14.0675 14.457 13.9485L14.436 13.9425H14.43C14.2997 13.9102 14.1631 13.9134 14.0345 13.9518C13.9059 13.9902 13.7899 14.0625 13.6987 14.161C13.6075 14.2596 13.5445 14.3808 13.5161 14.512C13.4878 14.6432 13.4951 14.7796 13.5375 14.907C14.292 17.1991 14.3676 19.6605 13.755 21.9945C13.71 22.1625 13.563 22.317 13.323 22.377L12.93 22.476C12.471 22.59 11.967 22.242 11.9295 21.6975C11.817 20.076 11.571 18.4725 11.2065 17.4225C10.9455 16.6695 10.302 15.522 9.3495 14.457C8.3955 13.389 7.0725 12.345 5.43 11.895C4.839 11.7345 4.5 11.301 4.5 10.92V4.91854C4.5 4.52854 4.83 4.14604 5.3295 4.09354C7.269 3.88654 8.2335 3.29854 9.066 2.79004L9.126 2.75404C9.531 2.50654 9.8685 2.31004 10.29 2.16454C10.7055 2.02054 11.235 1.92004 12 1.92004H17.25V0.420044H12C11.0925 0.420044 10.395 0.540044 9.801 0.745544C9.29019 0.932571 8.80211 1.17661 8.346 1.47304L8.274 1.51654C7.518 1.97854 6.7755 2.43154 5.172 2.60104C4.023 2.72254 3 3.65104 3 4.91854V10.9185C3 12.195 4.0275 13.068 5.0355 13.3425C6.309 13.6905 7.3965 14.523 8.2335 15.4575C9.0735 16.3965 9.6045 17.3775 9.792 17.9145C10.0905 18.777 10.326 20.2245 10.434 21.801Z" fill="black"/>
</g>
<defs>
<clipPath id="clip0_1315_1729">
<rect width="24" height="24" fill="white"/>
</clipPath>
</defs>
</svg>
