<svg width="24" height="24" viewBox="0 0 24 24" fill="none" xmlns="http://www.w3.org/2000/svg">
<path fill-rule="evenodd" clip-rule="evenodd" d="M11.9997 1.5C11.204 1.5 10.441 1.81607 9.87838 2.37868C9.31577 2.94129 8.9997 3.70435 8.9997 4.5V7.5H14.9997V4.5C14.9997 3.70435 14.6836 2.94129 14.121 2.37868C13.5584 1.81607 12.7953 1.5 11.9997 1.5ZM16.4997 7.5V4.5C16.4997 3.30653 16.0256 2.16193 15.1817 1.31802C14.3378 0.474106 13.1932 0 11.9997 0C10.8062 0 9.66163 0.474106 8.81772 1.31802C7.9738 2.16193 7.4997 3.30653 7.4997 4.5V7.5H5.0412C4.50251 7.50012 3.98174 7.6935 3.57353 8.045C3.16533 8.39651 2.89678 8.8828 2.8167 9.4155L1.2747 19.695C1.19488 20.2284 1.23105 20.7727 1.38073 21.2908C1.53042 21.8089 1.7901 22.2887 2.14206 22.6973C2.49403 23.1059 2.92999 23.4338 3.42021 23.6587C3.91044 23.8835 4.44338 23.9999 4.9827 24H19.0167C19.556 23.9999 20.089 23.8835 20.5792 23.6587C21.0694 23.4338 21.5054 23.1059 21.8573 22.6973C22.2093 22.2887 22.469 21.8089 22.6187 21.2908C22.7683 20.7727 22.8045 20.2284 22.7247 19.695L21.1827 9.4155C21.1026 8.88305 20.8343 8.39696 20.4264 8.04549C20.0185 7.69402 19.4981 7.50048 18.9597 7.5H16.4997ZM14.9997 9V11.25C14.9997 11.4489 15.0787 11.6397 15.2194 11.7803C15.36 11.921 15.5508 12 15.7497 12C15.9486 12 16.1394 11.921 16.28 11.7803C16.4207 11.6397 16.4997 11.4489 16.4997 11.25V9H18.9582C19.1377 9.00018 19.3113 9.06476 19.4473 9.18202C19.5832 9.29928 19.6726 9.46143 19.6992 9.639L21.2412 19.9155C21.2893 20.2356 21.2678 20.5623 21.1781 20.8734C21.0884 21.1844 20.9327 21.4724 20.7215 21.7178C20.5103 21.9631 20.2487 22.16 19.9545 22.295C19.6603 22.43 19.3404 22.4999 19.0167 22.5H4.9827C4.65899 22.4999 4.3391 22.43 4.04489 22.295C3.75067 22.16 3.48904 21.9631 3.27787 21.7178C3.0667 21.4724 2.91096 21.1844 2.82127 20.8734C2.73159 20.5623 2.71007 20.2356 2.7582 19.9155L4.3002 9.639C4.32673 9.46168 4.41591 9.29973 4.55157 9.18251C4.68723 9.06528 4.8604 9.00054 5.0397 9H7.4997V11.25C7.4997 11.4489 7.57871 11.6397 7.71937 11.7803C7.86002 11.921 8.05078 12 8.2497 12C8.44861 12 8.63937 11.921 8.78003 11.7803C8.92068 11.6397 8.9997 11.4489 8.9997 11.25V9H14.9997Z" fill="black"/>
</svg>
