<svg width="24" height="24" viewBox="0 0 24 24" fill="none" xmlns="http://www.w3.org/2000/svg">
<g clip-path="url(#clip0_1315_1731)">
<path fill-rule="evenodd" clip-rule="evenodd" d="M10.434 2.61751C10.5315 1.21501 11.862 0.130515 13.296 0.487515L13.6875 0.586515C14.382 0.760515 14.9985 1.27051 15.2055 2.03401C15.5355 3.25801 16.005 5.80052 15.2985 8.79902C15.5194 8.7685 15.741 8.74299 15.963 8.72252C17.0325 8.62502 18.4665 8.61452 19.737 9.03752C20.514 9.29702 21.228 10.059 21.537 10.947C21.813 11.745 21.777 12.69 21.186 13.5465C21.273 13.725 21.3405 13.9095 21.393 14.091C21.5085 14.496 21.5625 14.9415 21.5625 15.375C21.5625 15.8085 21.5085 16.254 21.393 16.659C21.3345 16.8615 21.258 17.0685 21.153 17.265C21.4065 17.8455 21.3135 18.4935 21.1485 18.987C20.9796 19.4743 20.7323 19.9308 20.4165 20.3385C20.4975 20.5665 20.5305 20.8065 20.5305 21.036C20.5305 21.4935 20.397 21.9735 20.151 22.404C19.65 23.283 18.6555 24 17.25 24V22.5C18.0945 22.5 18.6015 22.092 18.849 21.66C18.9615 21.4708 19.0239 21.256 19.0305 21.036C19.0305 20.856 18.978 20.7885 18.9705 20.781L18.4395 20.25L18.969 19.719C19.272 19.4175 19.5795 18.9525 19.7265 18.513C19.8825 18.045 19.791 17.8515 19.719 17.781L19.1895 17.25L19.719 16.719C19.7835 16.656 19.8765 16.509 19.95 16.2465C20.022 15.996 20.0625 15.6915 20.0625 15.375C20.0625 15.0585 20.022 14.754 19.95 14.5035C19.875 14.2425 19.7835 14.094 19.719 14.031L19.1895 13.5L19.719 12.969C20.2485 12.441 20.2785 11.8995 20.1195 11.439C19.9365 10.914 19.5255 10.5495 19.263 10.461C18.2835 10.1355 17.0925 10.125 16.098 10.215C15.5462 10.2664 14.9982 10.3521 14.457 10.4715L14.436 10.476L14.4315 10.4775C14.3012 10.5099 14.1646 10.5067 14.036 10.4682C13.9074 10.4298 13.7914 10.3576 13.7002 10.259C13.609 10.1605 13.546 10.0393 13.5176 9.90806C13.4893 9.77684 13.4966 9.64041 13.539 9.51302C14.2938 7.22047 14.3694 4.75852 13.7565 2.42401C13.7115 2.25751 13.5645 2.10151 13.3245 2.04151L12.9315 1.94401C12.4725 1.82851 11.9685 2.17801 11.931 2.72101C11.8185 4.34402 11.5725 5.94602 11.208 6.99602C10.947 7.74902 10.3035 8.89802 9.351 9.96152C8.3955 11.0295 7.0725 12.0765 5.43 12.5235C4.839 12.6855 4.5 13.1175 4.5 13.4985V19.5015C4.5 19.8915 4.83 20.274 5.3295 20.3265C7.269 20.532 8.2335 21.1215 9.066 21.6285L9.126 21.666C9.531 21.912 9.8685 22.11 10.29 22.2555C10.7055 22.398 11.235 22.5 12 22.5H17.25V24H12C11.0925 24 10.395 23.8785 9.801 23.673C9.29024 23.4865 8.80216 23.243 8.346 22.947L8.274 22.902C7.518 22.4415 6.7755 21.9885 5.172 21.819C4.023 21.696 3 20.769 3 19.5V13.5C3 12.225 4.0275 11.352 5.0355 11.0775C6.309 10.7295 7.3965 9.89702 8.2335 8.96252C9.0735 8.02202 9.6045 7.04252 9.792 6.50402C10.0905 5.64152 10.326 4.19552 10.434 2.61901V2.61751Z" fill="black"/>
</g>
<defs>
<clipPath id="clip0_1315_1731">
<rect width="24" height="24" fill="white"/>
</clipPath>
</defs>
</svg>
