<svg width="24" height="24" viewBox="0 0 24 24" fill="none" xmlns="http://www.w3.org/2000/svg">
<path fill-rule="evenodd" clip-rule="evenodd" d="M10.1262 1.5C9.82786 1.5 9.54171 1.61853 9.33073 1.8295C9.11975 2.04048 9.00123 2.32663 9.00123 2.625V13.5C9.00123 13.6989 8.92221 13.8897 8.78156 14.0303C8.6409 14.171 8.45014 14.25 8.25123 14.25C8.05231 14.25 7.86155 14.171 7.7209 14.0303C7.58024 13.8897 7.50123 13.6989 7.50123 13.5V12.165L5.99673 12.465C5.81253 12.5018 5.64884 12.6063 5.53802 12.758C5.4272 12.9096 5.37731 13.0973 5.39823 13.284L5.91573 17.9415C5.95566 18.2988 6.08065 18.6414 6.28023 18.9405L8.42973 22.1655C8.49815 22.2683 8.59091 22.3527 8.69977 22.411C8.80863 22.4694 8.93021 22.4999 9.05373 22.5H18.6312C18.7634 22.5 18.8933 22.465 19.0076 22.3986C19.1219 22.3322 19.2167 22.2368 19.2822 22.122L21.3747 18.459C21.6357 18.0023 21.7977 17.4959 21.8502 16.9725L22.2582 12.9C22.2792 12.6914 22.2562 12.4808 22.1907 12.2816C22.1253 12.0824 22.0188 11.8992 21.8782 11.7438C21.7375 11.5883 21.5659 11.464 21.3743 11.379C21.1827 11.2939 20.9754 11.25 20.7657 11.25H20.2512V12.75C20.2512 12.9489 20.1722 13.1397 20.0316 13.2803C19.8909 13.421 19.7001 13.5 19.5012 13.5C19.3023 13.5 19.1115 13.421 18.9709 13.2803C18.8302 13.1397 18.7512 12.9489 18.7512 12.75V10.731C18.6563 10.5971 18.5563 10.4671 18.4512 10.341C18.1707 10.008 17.8992 9.7665 17.7222 9.696C17.5362 9.621 17.1342 9.6015 16.6602 9.6375C16.6072 9.64192 16.5542 9.64692 16.5012 9.6525V12C16.5012 12.1989 16.4222 12.3897 16.2816 12.5303C16.1409 12.671 15.9501 12.75 15.7512 12.75C15.5523 12.75 15.3615 12.671 15.2209 12.5303C15.0802 12.3897 15.0012 12.1989 15.0012 12V8.979C15.0012 8.7285 14.8917 8.571 14.7762 8.508C14.5668 8.38463 14.3404 8.29265 14.1042 8.235C13.8357 8.1825 13.3542 8.175 12.8802 8.1945L12.7512 8.2005V12C12.7512 12.1989 12.6722 12.3897 12.5316 12.5303C12.3909 12.671 12.2001 12.75 12.0012 12.75C11.8023 12.75 11.6115 12.671 11.4709 12.5303C11.3302 12.3897 11.2512 12.1989 11.2512 12V2.625C11.2512 2.32663 11.1327 2.04048 10.9217 1.8295C10.7107 1.61853 10.4246 1.5 10.1262 1.5ZM12.7512 6.699V2.625C12.7512 1.92881 12.4747 1.26113 11.9824 0.768845C11.4901 0.276562 10.8224 0 10.1262 0C9.43003 0 8.76235 0.276562 8.27007 0.768845C7.77779 1.26113 7.50123 1.92881 7.50123 2.625V10.635L5.70273 10.995C5.15072 11.1053 4.6601 11.4185 4.3277 11.8728C3.99531 12.3271 3.84528 12.8895 3.90723 13.449L4.42473 18.108C4.49128 18.7036 4.6996 19.2745 5.03223 19.773L7.18173 22.998C7.38718 23.3062 7.66553 23.5589 7.9921 23.7337C8.31866 23.9085 8.68333 24 9.05373 24H18.6312C19.0278 23.9999 19.4173 23.8949 19.7603 23.6958C20.1033 23.4966 20.3875 23.2104 20.5842 22.866L22.6767 19.2045C23.0425 18.5645 23.2695 17.8546 23.3427 17.121L23.7507 13.0485C23.7924 12.6315 23.7463 12.2103 23.6153 11.8122C23.4842 11.414 23.2712 11.0478 22.99 10.737C22.7088 10.4263 22.3655 10.1779 21.9824 10.0079C21.5993 9.83786 21.1849 9.75002 20.7657 9.75H19.8927C19.799 9.62306 19.7015 9.499 19.6002 9.378C19.3137 9.0345 18.8352 8.526 18.2802 8.304C17.7342 8.085 17.0112 8.106 16.5432 8.142L16.3452 8.16C16.1855 7.75121 15.8885 7.41074 15.5052 7.197C15.1601 6.99802 14.7869 6.85237 14.3982 6.765C13.9332 6.672 13.2897 6.678 12.8232 6.696L12.7512 6.699Z" fill="black"/>
</svg>
