<svg width="24" height="24" viewBox="0 0 24 24" fill="none" xmlns="http://www.w3.org/2000/svg">
<path fill-rule="evenodd" clip-rule="evenodd" d="M21 6.86546L12 1.49996L3 6.86546V17.1345L12 22.5L21 17.1345V6.86546ZM12.75 0.200964C12.522 0.0693113 12.2633 1.90735e-06 12 1.90735e-06C11.7367 1.90735e-06 11.478 0.0693113 11.25 0.200964L2.25 5.56646C2.02198 5.69811 1.83262 5.88746 1.70097 6.11549C1.56932 6.34351 1.50001 6.60217 1.5 6.86546V17.1345C1.50001 17.3978 1.56932 17.6564 1.70097 17.8844C1.83262 18.1125 2.02198 18.3018 2.25 18.4335L11.25 23.799C11.478 23.9306 11.7367 23.9999 12 23.9999C12.2633 23.9999 12.522 23.9306 12.75 23.799L21.75 18.4335C21.978 18.3018 22.1674 18.1125 22.299 17.8844C22.4307 17.6564 22.5 17.3978 22.5 17.1345V6.86546C22.5 6.60217 22.4307 6.34351 22.299 6.11549C22.1674 5.88746 21.978 5.69811 21.75 5.56646L12.75 0.200964Z" fill="black"/>
</svg>
