<svg width="26" height="24" viewBox="0 0 26 24" fill="none" xmlns="http://www.w3.org/2000/svg">
<g clip-path="url(#clip0_1315_1817)">
<path d="M15.9719 9.96893C16.0833 9.85784 16.2269 9.7846 16.3822 9.75956C16.5375 9.73453 16.6968 9.75897 16.8374 9.82943L24.0029 15.7499V22.4999C24.0029 22.8978 23.8449 23.2793 23.5636 23.5606C23.2823 23.8419 22.9008 23.9999 22.5029 23.9999H1.50293C1.1051 23.9999 0.723574 23.8419 0.44227 23.5606C0.160965 23.2793 0.00292969 22.8978 0.00292969 22.4999V19.4999L5.47193 12.9689C5.59453 12.8468 5.7556 12.7708 5.92784 12.7538C6.10007 12.7369 6.27287 12.78 6.41693 12.8759L10.4069 17.0354L15.9719 9.97043V9.96893Z" fill="black"/>
<path fill-rule="evenodd" clip-rule="evenodd" d="M6.75 7.5C7.74456 7.5 8.69839 7.10491 9.40165 6.40165C10.1049 5.69839 10.5 4.74456 10.5 3.75C10.5 2.75544 10.1049 1.80161 9.40165 1.09835C8.69839 0.395088 7.74456 0 6.75 0C5.75544 0 4.80161 0.395088 4.09835 1.09835C3.39509 1.80161 3 2.75544 3 3.75C3 4.74456 3.39509 5.69839 4.09835 6.40165C4.80161 7.10491 5.75544 7.5 6.75 7.5Z" fill="black"/>
</g>
<defs>
<clipPath id="clip0_1315_1817">
<rect width="25.5" height="24" fill="white"/>
</clipPath>
</defs>
</svg>
