<svg width="25" height="24" viewBox="0 0 25 24" fill="none" xmlns="http://www.w3.org/2000/svg">
<g clip-path="url(#clip0_1315_1824)">
<path fill-rule="evenodd" clip-rule="evenodd" d="M18.5029 6H3.50293C3.1051 6 2.72357 6.15804 2.44227 6.43934C2.16097 6.72064 2.00293 7.10218 2.00293 7.5V19.5L5.97193 15.969C6.09453 15.8468 6.2556 15.7709 6.42784 15.7539C6.60007 15.737 6.77287 15.7801 6.91693 15.876L10.9069 18.5355L16.4719 12.9705C16.5832 12.8592 16.7266 12.7856 16.8819 12.7603C17.0373 12.735 17.1966 12.7592 17.3374 12.8295L20.0029 15.75V7.5C20.0029 7.10218 19.8449 6.72064 19.5636 6.43934C19.2823 6.15804 18.9008 6 18.5029 6ZM3.50293 4.5C2.70728 4.5 1.94422 4.81607 1.38161 5.37868C0.819 5.94129 0.50293 6.70435 0.50293 7.5V19.5C0.50293 20.2956 0.819 21.0587 1.38161 21.6213C1.94422 22.1839 2.70728 22.5 3.50293 22.5H18.5029C19.2986 22.5 20.0616 22.1839 20.6243 21.6213C21.1869 21.0587 21.5029 20.2956 21.5029 19.5V7.5C21.5029 6.70435 21.1869 5.94129 20.6243 5.37868C20.0616 4.81607 19.2986 4.5 18.5029 4.5H3.50293ZM9.50293 11.25C9.50293 11.5455 9.44473 11.8381 9.33166 12.111C9.21859 12.384 9.05285 12.6321 8.84392 12.841C8.63499 13.0499 8.38695 13.2157 8.11397 13.3287C7.84098 13.4418 7.5484 13.5 7.25293 13.5C6.95746 13.5 6.66487 13.4418 6.39189 13.3287C6.11891 13.2157 5.87087 13.0499 5.66194 12.841C5.45301 12.6321 5.28727 12.384 5.1742 12.111C5.06113 11.8381 5.00293 11.5455 5.00293 11.25C5.00293 10.6533 5.23998 10.081 5.66194 9.65901C6.0839 9.23705 6.65619 9 7.25293 9C7.84967 9 8.42196 9.23705 8.84392 9.65901C9.26588 10.081 9.50293 10.6533 9.50293 11.25Z" fill="black"/>
<path fill-rule="evenodd" clip-rule="evenodd" d="M6.5 3H21.5C21.8978 3 22.2794 3.15804 22.5607 3.43934C22.842 3.72064 23 4.10218 23 4.5V16.5C23 16.8978 22.842 17.2794 22.5607 17.5607C22.2794 17.842 21.8978 18 21.5 18V19.5C22.2956 19.5 23.0587 19.1839 23.6213 18.6213C24.1839 18.0587 24.5 17.2956 24.5 16.5V4.5C24.5 3.70435 24.1839 2.94129 23.6213 2.37868C23.0587 1.81607 22.2956 1.5 21.5 1.5H6.5C5.70435 1.5 4.94129 1.81607 4.37868 2.37868C3.81607 2.94129 3.5 3.70435 3.5 4.5H5C5 4.10218 5.15804 3.72064 5.43934 3.43934C5.72064 3.15804 6.10218 3 6.5 3Z" fill="black"/>
</g>
<defs>
<clipPath id="clip0_1315_1824">
<rect width="24" height="24" fill="white" transform="translate(0.5)"/>
</clipPath>
</defs>
</svg>
