<svg width="26" height="24" viewBox="0 0 26 24" fill="none" xmlns="http://www.w3.org/2000/svg">
<g clip-path="url(#clip0_1315_1820)">
<path fill-rule="evenodd" clip-rule="evenodd" d="M0.50293 4.5C0.50293 3.70435 0.819 2.94129 1.38161 2.37868C1.94422 1.81607 2.70728 1.5 3.50293 1.5H21.5029C22.2986 1.5 23.0616 1.81607 23.6243 2.37868C24.1869 2.94129 24.5029 3.70435 24.5029 4.5V19.5C24.5029 20.2956 24.1869 21.0587 23.6243 21.6213C23.0616 22.1839 22.2986 22.5 21.5029 22.5H3.50293C2.70728 22.5 1.94422 22.1839 1.38161 21.6213C0.819 21.0587 0.50293 20.2956 0.50293 19.5V4.5ZM2.00293 18L5.97193 14.469C6.09453 14.3468 6.2556 14.2709 6.42784 14.2539C6.60007 14.237 6.77287 14.2801 6.91693 14.376L10.9069 17.0355L16.4719 11.4705C16.5832 11.3592 16.7266 11.2856 16.8819 11.2603C17.0373 11.235 17.1966 11.2592 17.3374 11.3295L23.0029 14.25V19.5C23.0029 19.8978 22.8449 20.2794 22.5636 20.5607C22.2823 20.842 21.9008 21 21.5029 21H3.50293C3.1051 21 2.72357 20.842 2.44227 20.5607C2.16097 20.2794 2.00293 19.8978 2.00293 19.5V18ZM9.50293 8.25C9.50293 8.84674 9.26588 9.41903 8.84392 9.84099C8.42196 10.2629 7.84967 10.5 7.25293 10.5C6.65619 10.5 6.0839 10.2629 5.66194 9.84099C5.23998 9.41903 5.00293 8.84674 5.00293 8.25C5.00293 7.65326 5.23998 7.08097 5.66194 6.65901C6.0839 6.23705 6.65619 6 7.25293 6C7.84967 6 8.42196 6.23705 8.84392 6.65901C9.26588 7.08097 9.50293 7.65326 9.50293 8.25Z" fill="black"/>
</g>
<defs>
<clipPath id="clip0_1315_1820">
<rect width="25.5" height="24" fill="white" transform="translate(0.5)"/>
</clipPath>
</defs>
</svg>
