<svg width="26" height="24" viewBox="0 0 26 24" fill="none" xmlns="http://www.w3.org/2000/svg">
<path fill-rule="evenodd" clip-rule="evenodd" d="M21.0029 3H3.00293C2.6051 3 2.22357 3.15804 1.94227 3.43934C1.66097 3.72064 1.50293 4.10218 1.50293 4.5V18L5.47193 14.469C5.59453 14.3468 5.7556 14.2709 5.92784 14.2539C6.10007 14.237 6.27287 14.2801 6.41693 14.376L10.4069 17.0355L15.9719 11.4705C16.0832 11.3592 16.2266 11.2856 16.3819 11.2603C16.5373 11.235 16.6966 11.2592 16.8374 11.3295L22.5029 14.25V4.5C22.5029 4.10218 22.3449 3.72064 22.0636 3.43934C21.7823 3.15804 21.4008 3 21.0029 3ZM3.00293 1.5C2.20728 1.5 1.44422 1.81607 0.881609 2.37868C0.319 2.94129 0.00292969 3.70435 0.00292969 4.5V19.5C0.00292969 20.2956 0.319 21.0587 0.881609 21.6213C1.44422 22.1839 2.20728 22.5 3.00293 22.5H21.0029C21.3969 22.5 21.787 22.4224 22.151 22.2716C22.515 22.1209 22.8457 21.8999 23.1243 21.6213C23.4028 21.3427 23.6238 21.012 23.7746 20.6481C23.9253 20.2841 24.0029 19.894 24.0029 19.5V4.5C24.0029 3.70435 23.6869 2.94129 23.1243 2.37868C22.5616 1.81607 21.7986 1.5 21.0029 1.5H3.00293ZM9.00293 8.25C9.00293 8.54547 8.94473 8.83806 8.83166 9.11104C8.71859 9.38402 8.55285 9.63206 8.34392 9.84099C8.13499 10.0499 7.88695 10.2157 7.61397 10.3287C7.34098 10.4418 7.0484 10.5 6.75293 10.5C6.45746 10.5 6.16487 10.4418 5.89189 10.3287C5.61891 10.2157 5.37087 10.0499 5.16194 9.84099C4.95301 9.63206 4.78727 9.38402 4.6742 9.11104C4.56113 8.83806 4.50293 8.54547 4.50293 8.25C4.50293 7.65326 4.73998 7.08097 5.16194 6.65901C5.5839 6.23705 6.15619 6 6.75293 6C7.34967 6 7.92196 6.23705 8.34392 6.65901C8.76588 7.08097 9.00293 7.65326 9.00293 8.25Z" fill="black"/>
</svg>
