<svg width="25" height="24" viewBox="0 0 25 24" fill="none" xmlns="http://www.w3.org/2000/svg">
<g clip-path="url(#clip0_1315_1831)">
<path fill-rule="evenodd" clip-rule="evenodd" d="M7.97279 1.5C7.86038 1.50016 7.74945 1.52559 7.64819 1.5744C7.54693 1.62321 7.45794 1.69416 7.38779 1.782L2.81279 7.5H9.50279C9.7017 7.5 9.89247 7.57902 10.0331 7.71967C10.1738 7.86032 10.2528 8.05109 10.2528 8.25C10.2528 8.84674 10.4898 9.41903 10.9118 9.84099C11.3338 10.2629 11.9061 10.5 12.5028 10.5C13.0995 10.5 13.6718 10.2629 14.0938 9.84099C14.5157 9.41903 14.7528 8.84674 14.7528 8.25C14.7528 8.05109 14.8318 7.86032 14.9725 7.71967C15.1131 7.57902 15.3039 7.5 15.5028 7.5H22.1928L17.6178 1.782C17.5476 1.69416 17.4587 1.62321 17.3574 1.5744C17.2561 1.52559 17.1452 1.50016 17.0328 1.5H7.97279ZM6.21779 0.8445C6.42837 0.581255 6.69541 0.368692 6.99918 0.22252C7.30295 0.076347 7.63568 0.000300644 7.97279 0L17.0328 0C17.3699 0.000300644 17.7026 0.076347 18.0064 0.22252C18.3102 0.368692 18.5772 0.581255 18.7878 0.8445L24.3378 7.782C24.4004 7.86016 24.4467 7.95006 24.474 8.04642C24.5014 8.14277 24.5091 8.24361 24.4968 8.343L23.9118 13.029C23.8438 13.5733 23.5792 14.0741 23.1679 14.437C22.7566 14.8 22.2269 15.0002 21.6783 15H3.32729C2.77872 15.0002 2.24898 14.8 1.83766 14.437C1.42635 14.0741 1.16181 13.5733 1.09379 13.029L0.508791 8.343C0.496496 8.24361 0.504231 8.14277 0.531539 8.04642C0.558848 7.95006 0.605176 7.86016 0.667791 7.782L6.21779 0.8445ZM0.690291 16.755C0.760573 16.675 0.847086 16.6109 0.944075 16.5669C1.04106 16.5229 1.1463 16.5001 1.25279 16.5H9.50279C9.7017 16.5 9.89247 16.579 10.0331 16.7197C10.1738 16.8603 10.2528 17.0511 10.2528 17.25C10.2528 17.8467 10.4898 18.419 10.9118 18.841C11.3338 19.2629 11.9061 19.5 12.5028 19.5C13.0995 19.5 13.6718 19.2629 14.0938 18.841C14.5157 18.419 14.7528 17.8467 14.7528 17.25C14.7528 17.0511 14.8318 16.8603 14.9725 16.7197C15.1131 16.579 15.3039 16.5 15.5028 16.5H23.7528C23.8591 16.5 23.9642 16.5227 24.0611 16.5664C24.158 16.6102 24.2445 16.674 24.3149 16.7537C24.3853 16.8334 24.4379 16.9272 24.4692 17.0288C24.5006 17.1304 24.51 17.2375 24.4968 17.343L23.9118 22.029C23.8438 22.5733 23.5792 23.0741 23.1679 23.437C22.7566 23.8 22.2269 24.0002 21.6783 24H3.32729C2.77872 24.0002 2.24898 23.8 1.83766 23.437C1.42635 23.0741 1.16181 22.5733 1.09379 22.029L0.508791 17.343C0.495522 17.2375 0.504843 17.1304 0.536135 17.0287C0.567427 16.9271 0.619974 16.8333 0.690291 16.7535V16.755Z" fill="black"/>
</g>
<defs>
<clipPath id="clip0_1315_1831">
<rect width="24" height="24" fill="white" transform="translate(0.5)"/>
</clipPath>
</defs>
</svg>
