<svg width="25" height="24" viewBox="0 0 25 24" fill="none" xmlns="http://www.w3.org/2000/svg">
<g clip-path="url(#clip0_1315_1833)">
<path fill-rule="evenodd" clip-rule="evenodd" d="M7.97279 1.5C7.86038 1.50016 7.74944 1.52559 7.64819 1.5744C7.54693 1.62321 7.45793 1.69416 7.38779 1.782L2.81279 7.5H9.50279C9.7017 7.5 9.89247 7.57902 10.0331 7.71967C10.1738 7.86032 10.2528 8.05109 10.2528 8.25C10.2528 8.84674 10.4898 9.41903 10.9118 9.84099C11.3338 10.2629 11.9061 10.5 12.5028 10.5C13.0995 10.5 13.6718 10.2629 14.0938 9.84099C14.5157 9.41903 14.7528 8.84674 14.7528 8.25C14.7528 8.05109 14.8318 7.86032 14.9725 7.71967C15.1131 7.57902 15.3039 7.5 15.5028 7.5H22.1928L17.6178 1.782C17.5476 1.69416 17.4587 1.62321 17.3574 1.5744C17.2561 1.52559 17.1452 1.50016 17.0328 1.5H7.97279ZM22.9038 9H16.1778C16.0057 9.84772 15.5457 10.6099 14.876 11.1573C14.2062 11.7047 13.3678 12.0038 12.5028 12.0038C11.6378 12.0038 10.7994 11.7047 10.1296 11.1573C9.45984 10.6099 8.99993 9.84772 8.82779 9H2.10179L2.58179 12.843C2.60452 13.0249 2.69306 13.1921 2.83069 13.3132C2.96831 13.4342 3.1455 13.5007 3.32879 13.5H21.6798C21.8626 13.4999 22.039 13.4332 22.176 13.3122C22.313 13.1912 22.4011 13.0244 22.4238 12.843L22.9023 9H22.9038ZM6.21629 0.8445C6.42719 0.58086 6.69471 0.368059 6.99903 0.22187C7.30336 0.0756811 7.63668 -0.000148919 7.97429 2.19562e-07H17.0313C17.3689 -0.000148919 17.7022 0.0756811 18.0065 0.22187C18.3109 0.368059 18.5784 0.58086 18.7893 0.8445L24.3393 7.782C24.4016 7.86027 24.4477 7.95023 24.4747 8.04658C24.5018 8.14293 24.5093 8.24371 24.4968 8.343L23.9118 13.029C23.8438 13.5733 23.5792 14.0741 23.1679 14.437C22.7566 14.8 22.2269 15.0002 21.6783 15H3.32729C2.77872 15.0002 2.24898 14.8 1.83766 14.437C1.42635 14.0741 1.16181 13.5733 1.09379 13.029L0.508791 8.343C0.496496 8.24361 0.504231 8.14277 0.531539 8.04642C0.558848 7.95006 0.605176 7.86016 0.667791 7.782L6.21779 0.8445H6.21629ZM0.690291 16.755C0.760573 16.675 0.847086 16.6109 0.944075 16.5669C1.04106 16.5229 1.1463 16.5001 1.25279 16.5H9.50279C9.7017 16.5 9.89247 16.579 10.0331 16.7197C10.1738 16.8603 10.2528 17.0511 10.2528 17.25C10.2528 17.8467 10.4898 18.419 10.9118 18.841C11.3338 19.2629 11.9061 19.5 12.5028 19.5C13.0995 19.5 13.6718 19.2629 14.0938 18.841C14.5157 18.419 14.7528 17.8467 14.7528 17.25C14.7528 17.0511 14.8318 16.8603 14.9725 16.7197C15.1131 16.579 15.3039 16.5 15.5028 16.5H23.7528C23.8591 16.5 23.9642 16.5227 24.0611 16.5664C24.158 16.6102 24.2445 16.674 24.3149 16.7537C24.3853 16.8334 24.4379 16.9272 24.4692 17.0288C24.5006 17.1304 24.51 17.2375 24.4968 17.343L23.9118 22.029C23.8438 22.5733 23.5792 23.0741 23.1679 23.437C22.7566 23.8 22.2269 24.0002 21.6783 24H3.32729C2.77872 24.0002 2.24898 23.8 1.83766 23.437C1.42635 23.0741 1.16181 22.5733 1.09379 22.029L0.508791 17.343C0.495522 17.2375 0.504843 17.1304 0.536135 17.0287C0.567427 16.9271 0.619974 16.8333 0.690291 16.7535V16.755ZM2.10179 18L2.58179 21.843C2.60449 22.0246 2.69281 22.1917 2.83012 22.3127C2.96744 22.4337 3.14426 22.5003 3.32729 22.5H21.6783C21.8611 22.4999 22.0375 22.4332 22.1745 22.3122C22.3115 22.1912 22.3996 22.0244 22.4223 21.843L22.9023 18H16.1778C16.0057 18.8477 15.5457 19.6099 14.876 20.1573C14.2062 20.7047 13.3678 21.0038 12.5028 21.0038C11.6378 21.0038 10.7994 20.7047 10.1296 20.1573C9.45984 19.6099 8.99993 18.8477 8.82779 18H2.10179Z" fill="black"/>
</g>
<defs>
<clipPath id="clip0_1315_1833">
<rect width="24" height="24" fill="white" transform="translate(0.5)"/>
</clipPath>
</defs>
</svg>
