<svg width="24" height="24" viewBox="0 0 24 24" fill="none" xmlns="http://www.w3.org/2000/svg">
<path d="M13.3949 9.88184L9.95993 10.3123L9.83693 10.8823L10.5119 11.0068C10.9529 11.1118 11.0399 11.2708 10.9439 11.7103L9.83693 16.9123C9.54593 18.2578 9.99443 18.8908 11.0489 18.8908C11.8664 18.8908 12.8159 18.5128 13.2464 17.9938L13.3784 17.3698C13.0784 17.6338 12.6404 17.7388 12.3494 17.7388C11.9369 17.7388 11.7869 17.4493 11.8934 16.9393L13.3949 9.88184Z" fill="black"/>
<path d="M12 8.25C12.8284 8.25 13.5 7.57843 13.5 6.75C13.5 5.92157 12.8284 5.25 12 5.25C11.1716 5.25 10.5 5.92157 10.5 6.75C10.5 7.57843 11.1716 8.25 12 8.25Z" fill="black"/>
</svg>
