<svg width="24" height="24" viewBox="0 0 24 24" fill="none" xmlns="http://www.w3.org/2000/svg">
<g clip-path="url(#clip0_1315_1936)">
<path d="M3 4.5C3 4.10218 3.15804 3.72064 3.43934 3.43934C3.72064 3.15804 4.10218 3 4.5 3H19.5C19.8978 3 20.2794 3.15804 20.5607 3.43934C20.842 3.72064 21 4.10218 21 4.5V10.5C21 10.8978 20.842 11.2794 20.5607 11.5607C20.2794 11.842 19.8978 12 19.5 12H4.5C4.10218 12 3.72064 11.842 3.43934 11.5607C3.15804 11.2794 3 10.8978 3 10.5V4.5Z" fill="black"/>
<path fill-rule="evenodd" clip-rule="evenodd" d="M11.25 1.50014L11.664 0.670638C11.695 0.608037 11.7429 0.555349 11.8023 0.518513C11.8617 0.481677 11.9301 0.462158 12 0.462158C12.0699 0.462158 12.1383 0.481677 12.1977 0.518513C12.2571 0.555349 12.305 0.608037 12.336 0.670638L12.75 1.50014H11.25ZM10.3275 13.5001H13.6725C14.952 15.8926 16.5 19.0351 16.5 20.2501C16.5 22.3201 14.4855 24.0001 12 24.0001C9.5145 24.0001 7.5 22.3201 7.5 20.2501C7.5 19.0351 9.048 15.8926 10.3275 13.5001Z" fill="black"/>
</g>
<defs>
<clipPath id="clip0_1315_1936">
<rect width="24" height="24" fill="white"/>
</clipPath>
</defs>
</svg>
