<svg width="24" height="24" viewBox="0 0 24 24" fill="none" xmlns="http://www.w3.org/2000/svg">
<g clip-path="url(#clip0_1315_1939)">
<path fill-rule="evenodd" clip-rule="evenodd" d="M19.5 4.50014H4.5V10.5001H19.5V4.50014ZM4.5 3.00014C4.10218 3.00014 3.72064 3.15817 3.43934 3.43948C3.15804 3.72078 3 4.10231 3 4.50014V10.5001C3 10.898 3.15804 11.2795 3.43934 11.5608C3.72064 11.8421 4.10218 12.0001 4.5 12.0001H19.5C19.8978 12.0001 20.2794 11.8421 20.5607 11.5608C20.842 11.2795 21 10.898 21 10.5001V4.50014C21 4.10231 20.842 3.72078 20.5607 3.43948C20.2794 3.15817 19.8978 3.00014 19.5 3.00014H4.5ZM11.25 1.50014L11.664 0.670638C11.695 0.608037 11.7429 0.555349 11.8023 0.518513C11.8617 0.481677 11.9301 0.462158 12 0.462158C12.0699 0.462158 12.1383 0.481677 12.1977 0.518513C12.2571 0.555349 12.305 0.608037 12.336 0.670638L12.75 1.50014H11.25ZM11.232 15.0001C10.7265 15.9691 10.2165 16.9951 9.807 17.9236C9.543 18.5176 9.33 19.0486 9.1875 19.4866C9.1279 19.6641 9.07684 19.8443 9.0345 20.0266C9.0195 20.0971 9.0105 20.1511 9.0045 20.1916L9 20.2501C9 21.2476 10.0755 22.5001 12 22.5001C13.9245 22.5001 15 21.2476 15 20.2501C15 20.2501 15 20.2306 14.994 20.1916C14.9863 20.1362 14.9763 20.0812 14.964 20.0266C14.9231 19.8442 14.8731 19.664 14.814 19.4866C14.6325 18.9561 14.4258 18.4345 14.1945 17.9236C13.75 16.9346 13.2747 15.9596 12.7695 15.0001H11.2305H11.232ZM13.6725 13.5001H10.3275C9.048 15.8926 7.5 19.0351 7.5 20.2501C7.5 22.3201 9.5145 24.0001 12 24.0001C14.4855 24.0001 16.5 22.3201 16.5 20.2501C16.5 19.0351 14.952 15.8926 13.6725 13.5001Z" fill="black"/>
</g>
<defs>
<clipPath id="clip0_1315_1939">
<rect width="24" height="24" fill="white"/>
</clipPath>
</defs>
</svg>
