<svg width="24" height="24" viewBox="0 0 24 24" fill="none" xmlns="http://www.w3.org/2000/svg">
<path fill-rule="evenodd" clip-rule="evenodd" d="M11.6466 2.33872C11.7551 2.28094 11.8761 2.25072 11.9991 2.25072C12.122 2.25072 12.2431 2.28094 12.3516 2.33872L23.6016 8.33872C23.7214 8.40273 23.8215 8.49808 23.8914 8.61459C23.9612 8.73109 23.9981 8.86438 23.9981 9.00022C23.9981 9.13605 23.9612 9.26934 23.8914 9.38585C23.8215 9.50235 23.7214 9.5977 23.6016 9.66172L12.3516 15.6617C12.2431 15.7195 12.122 15.7497 11.9991 15.7497C11.8761 15.7497 11.7551 15.7195 11.6466 15.6617L0.396563 9.66172C0.276754 9.5977 0.17658 9.50235 0.106736 9.38585C0.0368916 9.26934 0 9.13605 0 9.00022C0 8.86438 0.0368916 8.73109 0.106736 8.61459C0.17658 8.49808 0.276754 8.40273 0.396563 8.33872L11.6466 2.33872Z" fill="black"/>
<path fill-rule="evenodd" clip-rule="evenodd" d="M3.18656 12.8503L0.396563 14.3383C0.276754 14.4024 0.17658 14.4977 0.106736 14.6142C0.0368916 14.7307 0 14.864 0 14.9998C0 15.1357 0.0368916 15.269 0.106736 15.3855C0.17658 15.502 0.276754 15.5973 0.396563 15.6613L11.6466 21.6613C11.7551 21.7191 11.8761 21.7493 11.9991 21.7493C12.122 21.7493 12.2431 21.7191 12.3516 21.6613L23.6016 15.6613C23.7214 15.5973 23.8215 15.502 23.8914 15.3855C23.9612 15.269 23.9981 15.1357 23.9981 14.9998C23.9981 14.864 23.9612 14.7307 23.8914 14.6142C23.8215 14.4977 23.7214 14.4024 23.6016 14.3383L20.8116 12.8503L13.0566 16.9843C12.731 17.1577 12.3679 17.2483 11.9991 17.2483C11.6303 17.2483 11.2671 17.1577 10.9416 16.9843L3.18656 12.8503Z" fill="black"/>
</svg>
