<svg width="24" height="24" viewBox="0 0 24 24" fill="none" xmlns="http://www.w3.org/2000/svg">
<path fill-rule="evenodd" clip-rule="evenodd" d="M0 3.75C0 3.15326 0.237053 2.58097 0.65901 2.15901C1.08097 1.73705 1.65326 1.5 2.25 1.5H21.75C22.3467 1.5 22.919 1.73705 23.341 2.15901C23.7629 2.58097 24 3.15326 24 3.75V20.25C24 20.8467 23.7629 21.419 23.341 21.841C22.919 22.2629 22.3467 22.5 21.75 22.5H2.25C1.65326 22.5 1.08097 22.2629 0.65901 21.841C0.237053 21.419 0 20.8467 0 20.25L0 3.75ZM2.25 3C2.05109 3 1.86032 3.07902 1.71967 3.21967C1.57902 3.36032 1.5 3.55109 1.5 3.75V20.25C1.5 20.4489 1.57902 20.6397 1.71967 20.7803C1.86032 20.921 2.05109 21 2.25 21H21.75C21.9489 21 22.1397 20.921 22.2803 20.7803C22.421 20.6397 22.5 20.4489 22.5 20.25V3.75C22.5 3.55109 22.421 3.36032 22.2803 3.21967C22.1397 3.07902 21.9489 3 21.75 3H2.25Z" fill="black"/>
<path fill-rule="evenodd" clip-rule="evenodd" d="M7.5 22.5V1.5H9V22.5H7.5ZM15 22.5V1.5H16.5V22.5H15Z" fill="black"/>
</svg>
