<svg width="24" height="24" viewBox="0 0 24 24" fill="none" xmlns="http://www.w3.org/2000/svg">
<path d="M7.0734 9.813L5.0154 11.871C4.17141 12.715 3.69727 13.8597 3.69727 15.0532C3.69727 16.2468 4.17141 17.3915 5.0154 18.2355C5.85938 19.0795 7.00407 19.5536 8.19765 19.5536C9.39122 19.5536 10.5359 19.0795 11.3799 18.2355L14.1219 15.492C14.6308 14.983 15.0103 14.3593 15.2283 13.6733C15.4463 12.9873 15.4966 12.259 15.3749 11.5496C15.2533 10.8402 14.9632 10.1702 14.529 9.59611C14.0949 9.02197 13.5294 8.56035 12.8799 8.25L12.0009 9.129C11.9116 9.21839 11.834 9.31868 11.7699 9.4275C12.2717 9.57175 12.7271 9.84447 13.0912 10.2187C13.4553 10.5929 13.7155 11.0557 13.8459 11.5612C13.9763 12.0668 13.9726 12.5976 13.835 13.1013C13.6974 13.6049 13.4308 14.064 13.0614 14.433L10.3209 17.175C9.75798 17.7379 8.99449 18.0542 8.1984 18.0542C7.40231 18.0542 6.63882 17.7379 6.0759 17.175C5.51297 16.6121 5.19673 15.8486 5.19673 15.0525C5.19673 14.2564 5.51297 13.4929 6.0759 12.93L7.2654 11.742C7.09757 11.1131 7.03273 10.4611 7.0734 9.8115V9.813Z" fill="black"/>
<path d="M9.87834 7.00813C9.3694 7.51714 8.98999 8.14082 8.77195 8.82681C8.55392 9.5128 8.50363 10.2411 8.6253 10.9505C8.74697 11.66 9.03705 12.3299 9.4712 12.904C9.90534 13.4782 10.4709 13.9398 11.1203 14.2501L12.2828 13.0861C11.7743 12.9497 11.3105 12.6818 10.9383 12.3094C10.566 11.937 10.2984 11.4732 10.1622 10.9646C10.026 10.4559 10.026 9.9204 10.1624 9.4118C10.2987 8.9032 10.5665 8.43944 10.9388 8.06713L13.6793 5.32513C14.2423 4.76221 15.0057 4.44596 15.8018 4.44596C16.5979 4.44596 17.3614 4.76221 17.9243 5.32513C18.4873 5.88805 18.8035 6.65154 18.8035 7.44763C18.8035 8.24372 18.4873 9.00721 17.9243 9.57013L16.7348 10.7581C16.9028 11.3881 16.9673 12.0406 16.9268 12.6886L18.9848 10.6306C19.8288 9.78664 20.303 8.64195 20.303 7.44838C20.303 6.2548 19.8288 5.11011 18.9848 4.26613C18.1409 3.42214 16.9962 2.948 15.8026 2.948C14.609 2.948 13.4643 3.42214 12.6203 4.26613L9.87834 7.00813Z" fill="black"/>
</svg>
