<svg width="24" height="24" viewBox="0 0 24 24" fill="none" xmlns="http://www.w3.org/2000/svg">
<path fill-rule="evenodd" clip-rule="evenodd" d="M7.5 17.25C7.5 17.0511 7.57902 16.8603 7.71967 16.7197C7.86032 16.579 8.05109 16.5 8.25 16.5H21.75C21.9489 16.5 22.1397 16.579 22.2803 16.7197C22.421 16.8603 22.5 17.0511 22.5 17.25C22.5 17.4489 22.421 17.6397 22.2803 17.7803C22.1397 17.921 21.9489 18 21.75 18H8.25C8.05109 18 7.86032 17.921 7.71967 17.7803C7.57902 17.6397 7.5 17.4489 7.5 17.25ZM7.5 11.25C7.5 11.0511 7.57902 10.8603 7.71967 10.7197C7.86032 10.579 8.05109 10.5 8.25 10.5H21.75C21.9489 10.5 22.1397 10.579 22.2803 10.7197C22.421 10.8603 22.5 11.0511 22.5 11.25C22.5 11.4489 22.421 11.6397 22.2803 11.7803C22.1397 11.921 21.9489 12 21.75 12H8.25C8.05109 12 7.86032 11.921 7.71967 11.7803C7.57902 11.6397 7.5 11.4489 7.5 11.25ZM7.5 5.25C7.5 5.05109 7.57902 4.86032 7.71967 4.71967C7.86032 4.57902 8.05109 4.5 8.25 4.5H21.75C21.9489 4.5 22.1397 4.57902 22.2803 4.71967C22.421 4.86032 22.5 5.05109 22.5 5.25C22.5 5.44891 22.421 5.63968 22.2803 5.78033C22.1397 5.92098 21.9489 6 21.75 6H8.25C8.05109 6 7.86032 5.92098 7.71967 5.78033C7.57902 5.63968 7.5 5.44891 7.5 5.25Z" fill="black"/>
<path d="M3.36317 3.29073C3.38869 3.20802 3.44004 3.13566 3.50969 3.08426C3.57933 3.03286 3.66361 3.00513 3.75017 3.00513C3.83673 3.00513 3.92101 3.03286 3.99066 3.08426C4.06031 3.13566 4.11165 3.20802 4.13717 3.29073L4.38017 4.08573C4.43267 4.25823 4.59017 4.37673 4.76717 4.37673H5.59367C5.98217 4.37673 6.14867 4.87623 5.83967 5.11623L5.13767 5.66073C5.07134 5.71261 5.02233 5.78342 4.99715 5.86379C4.97197 5.94415 4.9718 6.03027 4.99667 6.11073L5.25617 6.96423C5.37317 7.34823 4.93667 7.65723 4.62167 7.41423L3.99617 6.92823C3.92585 6.87349 3.83929 6.84377 3.75017 6.84377C3.66106 6.84377 3.57449 6.87349 3.50417 6.92823L2.87867 7.41273C2.56367 7.65723 2.12867 7.34823 2.24417 6.96423L2.50367 6.10923C2.52821 6.02898 2.52788 5.94318 2.50271 5.86312C2.47754 5.78306 2.42872 5.7125 2.36267 5.66073L1.66067 5.11623C1.35167 4.87623 1.51817 4.37673 1.90667 4.37673H2.73167C2.81911 4.37646 2.90414 4.348 2.97413 4.29558C3.04411 4.24316 3.09533 4.16957 3.12017 4.08573L3.36317 3.29073ZM3.36317 9.29073C3.38869 9.20802 3.44004 9.13566 3.50969 9.08426C3.57933 9.03286 3.66361 9.00513 3.75017 9.00513C3.83673 9.00513 3.92101 9.03286 3.99066 9.08426C4.06031 9.13566 4.11165 9.20802 4.13717 9.29073L4.38017 10.0857C4.43267 10.2582 4.59017 10.3767 4.76717 10.3767H5.59367C5.98217 10.3767 6.14867 10.8762 5.83967 11.1162L5.13767 11.6607C5.07134 11.7126 5.02233 11.7834 4.99715 11.8638C4.97197 11.9442 4.9718 12.0303 4.99667 12.1107L5.25617 12.9642C5.37317 13.3467 4.93667 13.6572 4.62167 13.4142L3.99617 12.9282C3.92585 12.8735 3.83929 12.8438 3.75017 12.8438C3.66106 12.8438 3.57449 12.8735 3.50417 12.9282L2.87867 13.4127C2.56367 13.6572 2.12867 13.3482 2.24417 12.9642L2.50367 12.1092C2.52821 12.029 2.52788 11.9432 2.50271 11.8631C2.47754 11.7831 2.42872 11.7125 2.36267 11.6607L1.66067 11.1162C1.35167 10.8762 1.51817 10.3767 1.90667 10.3767H2.73167C2.81911 10.3765 2.90414 10.348 2.97413 10.2956C3.04411 10.2432 3.09533 10.1696 3.12017 10.0857L3.36317 9.29073ZM3.36317 15.2907C3.38869 15.208 3.44004 15.1357 3.50969 15.0843C3.57933 15.0329 3.66361 15.0051 3.75017 15.0051C3.83673 15.0051 3.92101 15.0329 3.99066 15.0843C4.06031 15.1357 4.11165 15.208 4.13717 15.2907L4.38017 16.0857C4.43267 16.2582 4.59017 16.3767 4.76717 16.3767H5.59367C5.98217 16.3767 6.14867 16.8762 5.83967 17.1162L5.13767 17.6607C5.07134 17.7126 5.02233 17.7834 4.99715 17.8638C4.97197 17.9442 4.9718 18.0303 4.99667 18.1107L5.25617 18.9642C5.37317 19.3467 4.93667 19.6572 4.62167 19.4142L3.99617 18.9282C3.92585 18.8735 3.83929 18.8438 3.75017 18.8438C3.66106 18.8438 3.57449 18.8735 3.50417 18.9282L2.87867 19.4127C2.56367 19.6572 2.12867 19.3482 2.24417 18.9642L2.50367 18.1092C2.52821 18.029 2.52788 17.9432 2.50271 17.8631C2.47754 17.7831 2.42872 17.7125 2.36267 17.6607L1.66067 17.1162C1.35167 16.8762 1.51817 16.3767 1.90667 16.3767H2.73167C2.81911 16.3765 2.90414 16.348 2.97413 16.2956C3.04411 16.2432 3.09533 16.1696 3.12017 16.0857L3.36317 15.2907Z" fill="black"/>
</svg>
