<svg width="24" height="24" viewBox="0 0 24 24" fill="none" xmlns="http://www.w3.org/2000/svg">
<path fill-rule="evenodd" clip-rule="evenodd" d="M0 6C0 5.20435 0.316071 4.44129 0.87868 3.87868C1.44129 3.31607 2.20435 3 3 3H21C21.7956 3 22.5587 3.31607 23.1213 3.87868C23.6839 4.44129 24 5.20435 24 6V18C24 18.7956 23.6839 19.5587 23.1213 20.1213C22.5587 20.6839 21.7956 21 21 21H3C2.20435 21 1.44129 20.6839 0.87868 20.1213C0.316071 19.5587 0 18.7956 0 18V6ZM17.25 7.5C17.4489 7.5 17.6397 7.57902 17.7803 7.71967C17.921 7.86032 18 8.05109 18 8.25V13.9395L19.719 12.219C19.7887 12.1493 19.8715 12.094 19.9626 12.0562C20.0537 12.0185 20.1514 11.9991 20.25 11.9991C20.3486 11.9991 20.4463 12.0185 20.5374 12.0562C20.6285 12.094 20.7113 12.1493 20.781 12.219C20.8507 12.2887 20.906 12.3715 20.9438 12.4626C20.9815 12.5537 21.0009 12.6514 21.0009 12.75C21.0009 12.8486 20.9815 12.9463 20.9438 13.0374C20.906 13.1285 20.8507 13.2113 20.781 13.281L17.781 16.281C17.7113 16.3508 17.6286 16.4063 17.5374 16.4441C17.4463 16.4819 17.3487 16.5013 17.25 16.5013C17.1513 16.5013 17.0537 16.4819 16.9626 16.4441C16.8714 16.4063 16.7887 16.3508 16.719 16.281L13.719 13.281C13.6493 13.2113 13.594 13.1285 13.5562 13.0374C13.5185 12.9463 13.4991 12.8486 13.4991 12.75C13.4991 12.6514 13.5185 12.5537 13.5562 12.4626C13.594 12.3715 13.6493 12.2887 13.719 12.219C13.7887 12.1493 13.8715 12.094 13.9626 12.0562C14.0537 12.0185 14.1514 11.9991 14.25 11.9991C14.3486 11.9991 14.4463 12.0185 14.5374 12.0562C14.6285 12.094 14.7113 12.1493 14.781 12.219L16.5 13.9395V8.25C16.5 8.05109 16.579 7.86032 16.7197 7.71967C16.8603 7.57902 17.0511 7.5 17.25 7.5ZM5.34 10.515V16.5H3.75V7.5015H5.562L8.127 13.3425H8.187L10.7505 7.5015H12.5505V16.5H10.941V10.515H10.8555L8.7255 15.3735H7.566L5.424 10.5135H5.34V10.515Z" fill="black"/>
</svg>
