<svg width="24" height="24" viewBox="0 0 24 24" fill="none" xmlns="http://www.w3.org/2000/svg">
<g clip-path="url(#clip0_1315_2052)">
<path fill-rule="evenodd" clip-rule="evenodd" d="M0 2.25C0 1.65326 0.237053 1.08097 0.65901 0.65901C1.08097 0.237053 1.65326 0 2.25 0L21.75 0C22.3467 0 22.919 0.237053 23.341 0.65901C23.7629 1.08097 24 1.65326 24 2.25V5.25C24 5.84674 23.7629 6.41903 23.341 6.84099C22.919 7.26295 22.3467 7.5 21.75 7.5H2.25C1.65326 7.5 1.08097 7.26295 0.65901 6.84099C0.237053 6.41903 0 5.84674 0 5.25L0 2.25ZM2.25 1.5C2.05109 1.5 1.86032 1.57902 1.71967 1.71967C1.57902 1.86032 1.5 2.05109 1.5 2.25V5.25C1.5 5.44891 1.57902 5.63968 1.71967 5.78033C1.86032 5.92098 2.05109 6 2.25 6H21.75C21.9489 6 22.1397 5.92098 22.2803 5.78033C22.421 5.63968 22.5 5.44891 22.5 5.25V2.25C22.5 2.05109 22.421 1.86032 22.2803 1.71967C22.1397 1.57902 21.9489 1.5 21.75 1.5H2.25ZM21 10.5H3C2.60218 10.5 2.22064 10.658 1.93934 10.9393C1.65804 11.2206 1.5 11.6022 1.5 12V19.5C1.5 19.8978 1.65804 20.2794 1.93934 20.5607C2.22064 20.842 2.60218 21 3 21H21C21.3978 21 21.7794 20.842 22.0607 20.5607C22.342 20.2794 22.5 19.8978 22.5 19.5V12C22.5 11.6022 22.342 11.2206 22.0607 10.9393C21.7794 10.658 21.3978 10.5 21 10.5ZM3 9C2.20435 9 1.44129 9.31607 0.87868 9.87868C0.316071 10.4413 0 11.2044 0 12L0 19.5C0 20.2956 0.316071 21.0587 0.87868 21.6213C1.44129 22.1839 2.20435 22.5 3 22.5H21C21.7956 22.5 22.5587 22.1839 23.1213 21.6213C23.6839 21.0587 24 20.2956 24 19.5V12C24 11.2044 23.6839 10.4413 23.1213 9.87868C22.5587 9.31607 21.7956 9 21 9H3Z" fill="black"/>
<path fill-rule="evenodd" clip-rule="evenodd" d="M22.5 16.5H1.5V15H22.5V16.5ZM3 18.75C3 18.5511 3.07902 18.3603 3.21967 18.2197C3.36032 18.079 3.55109 18 3.75 18H12.75C12.9489 18 13.1397 18.079 13.2803 18.2197C13.421 18.3603 13.5 18.5511 13.5 18.75C13.5 18.9489 13.421 19.1397 13.2803 19.2803C13.1397 19.421 12.9489 19.5 12.75 19.5H3.75C3.55109 19.5 3.36032 19.421 3.21967 19.2803C3.07902 19.1397 3 18.9489 3 18.75ZM3 3.75C3 3.55109 3.07902 3.36032 3.21967 3.21967C3.36032 3.07902 3.55109 3 3.75 3H8.25C8.44891 3 8.63968 3.07902 8.78033 3.21967C8.92098 3.36032 9 3.55109 9 3.75C9 3.94891 8.92098 4.13968 8.78033 4.28033C8.63968 4.42098 8.44891 4.5 8.25 4.5H3.75C3.55109 4.5 3.36032 4.42098 3.21967 4.28033C3.07902 4.13968 3 3.94891 3 3.75ZM3 12.75C3 12.5511 3.07902 12.3603 3.21967 12.2197C3.36032 12.079 3.55109 12 3.75 12H17.25C17.4489 12 17.6397 12.079 17.7803 12.2197C17.921 12.3603 18 12.5511 18 12.75C18 12.9489 17.921 13.1397 17.7803 13.2803C17.6397 13.421 17.4489 13.5 17.25 13.5H3.75C3.55109 13.5 3.36032 13.421 3.21967 13.2803C3.07902 13.1397 3 12.9489 3 12.75Z" fill="black"/>
<path d="M19.2374 4.2345L18.6434 3.6405C18.5908 3.58805 18.555 3.52118 18.5404 3.44834C18.5259 3.37551 18.5333 3.30001 18.5618 3.2314C18.5902 3.1628 18.6384 3.10418 18.7002 3.06299C18.762 3.02179 18.8346 2.99987 18.9089 3H20.0969C20.1711 2.99987 20.2438 3.02179 20.3056 3.06299C20.3674 3.10418 20.4155 3.1628 20.444 3.2314C20.4724 3.30001 20.4798 3.37551 20.4653 3.44834C20.4508 3.52118 20.415 3.58805 20.3624 3.6405L19.7684 4.2345C19.7335 4.26942 19.6922 4.29713 19.6466 4.31604C19.601 4.33494 19.5522 4.34467 19.5029 4.34467C19.4535 4.34467 19.4047 4.33494 19.3591 4.31604C19.3136 4.29713 19.2722 4.26942 19.2374 4.2345Z" fill="black"/>
</g>
<defs>
<clipPath id="clip0_1315_2052">
<rect width="24" height="24" fill="white"/>
</clipPath>
</defs>
</svg>
