<svg width="24" height="24" viewBox="0 0 24 24" fill="none" xmlns="http://www.w3.org/2000/svg">
<g clip-path="url(#clip0_1315_2063)">
<path fill-rule="evenodd" clip-rule="evenodd" d="M22.5 4.81055V18.3105C22.5 18.7084 22.342 19.0899 22.0607 19.3712C21.7794 19.6525 21.3978 19.8105 21 19.8105H15.621C14.8254 19.8107 14.0625 20.1269 13.5 20.6895L12 22.1895L10.5 20.6895C9.93752 20.1269 9.17458 19.8107 8.379 19.8105H3C2.60218 19.8105 2.22064 19.6525 1.93934 19.3712C1.65804 19.0899 1.5 18.7084 1.5 18.3105V4.81055C1.5 4.41272 1.65804 4.03119 1.93934 3.74989C2.22064 3.46858 2.60218 3.31055 3 3.31055H21C21.3978 3.31055 21.7794 3.46858 22.0607 3.74989C22.342 4.03119 22.5 4.41272 22.5 4.81055ZM3 21.3105C2.20435 21.3105 1.44129 20.9945 0.87868 20.4319C0.316071 19.8693 0 19.1062 0 18.3105V4.81055C0 4.0149 0.316071 3.25184 0.87868 2.68923C1.44129 2.12662 2.20435 1.81055 3 1.81055H21C21.7956 1.81055 22.5587 2.12662 23.1213 2.68923C23.6839 3.25184 24 4.0149 24 4.81055V18.3105C24 19.1062 23.6839 19.8693 23.1213 20.4319C22.5587 20.9945 21.7956 21.3105 21 21.3105H15.621C15.2232 21.3106 14.8417 21.4687 14.5605 21.75L12.531 23.781C12.4613 23.8509 12.3786 23.9063 12.2874 23.9441C12.1963 23.9819 12.0987 24.0014 12 24.0014C11.9013 24.0014 11.8037 23.9819 11.7125 23.9441C11.6214 23.9063 11.5387 23.8509 11.469 23.781L9.4395 21.75C9.15826 21.4687 8.77679 21.3106 8.379 21.3105H3Z" fill="black"/>
<path fill-rule="evenodd" clip-rule="evenodd" d="M22.5 7.81055H1.5V9.31055H22.5V7.81055ZM22.5 13.8105H1.5V15.3105H22.5V13.8105ZM3 5.56055C3 5.75946 3.07902 5.95022 3.21967 6.09088C3.36032 6.23153 3.55109 6.31055 3.75 6.31055H12.75C12.9489 6.31055 13.1397 6.23153 13.2803 6.09088C13.421 5.95022 13.5 5.75946 13.5 5.56055C13.5 5.36163 13.421 5.17087 13.2803 5.03022C13.1397 4.88956 12.9489 4.81055 12.75 4.81055H3.75C3.55109 4.81055 3.36032 4.88956 3.21967 5.03022C3.07902 5.17087 3 5.36163 3 5.56055ZM3 11.5605C3 11.7595 3.07902 11.9502 3.21967 12.0909C3.36032 12.2315 3.55109 12.3105 3.75 12.3105H20.25C20.4489 12.3105 20.6397 12.2315 20.7803 12.0909C20.921 11.9502 21 11.7595 21 11.5605C21 11.3616 20.921 11.1709 20.7803 11.0302C20.6397 10.8896 20.4489 10.8105 20.25 10.8105H3.75C3.55109 10.8105 3.36032 10.8896 3.21967 11.0302C3.07902 11.1709 3 11.3616 3 11.5605ZM3 17.5605C3 17.7595 3.07902 17.9502 3.21967 18.0909C3.36032 18.2315 3.55109 18.3105 3.75 18.3105H15.75C15.9489 18.3105 16.1397 18.2315 16.2803 18.0909C16.421 17.9502 16.5 17.7595 16.5 17.5605C16.5 17.3616 16.421 17.1709 16.2803 17.0302C16.1397 16.8896 15.9489 16.8105 15.75 16.8105H3.75C3.55109 16.8105 3.36032 16.8896 3.21967 17.0302C3.07902 17.1709 3 17.3616 3 17.5605Z" fill="black"/>
</g>
<defs>
<clipPath id="clip0_1315_2063">
<rect width="24" height="24" fill="white"/>
</clipPath>
</defs>
</svg>
