<svg width="24" height="24" viewBox="0 0 24 24" fill="none" xmlns="http://www.w3.org/2000/svg">
<path fill-rule="evenodd" clip-rule="evenodd" d="M5.99943 22.5C6.39725 22.5 6.77878 22.342 7.06009 22.0607C7.34139 21.7794 7.49943 21.3978 7.49943 21C7.49943 20.6022 7.34139 20.2206 7.06009 19.9393C6.77878 19.658 6.39725 19.5 5.99943 19.5C5.6016 19.5 5.22007 19.658 4.93877 19.9393C4.65746 20.2206 4.49943 20.6022 4.49943 21C4.49943 21.3978 4.65746 21.7794 4.93877 22.0607C5.22007 22.342 5.6016 22.5 5.99943 22.5ZM5.99943 24C6.79508 24 7.55814 23.6839 8.12075 23.1213C8.68336 22.5587 8.99943 21.7957 8.99943 21C8.99943 20.2044 8.68336 19.4413 8.12075 18.8787C7.55814 18.3161 6.79508 18 5.99943 18C5.20378 18 4.44072 18.3161 3.87811 18.8787C3.3155 19.4413 2.99943 20.2044 2.99943 21C2.99943 21.7957 3.3155 22.5587 3.87811 23.1213C4.44072 23.6839 5.20378 24 5.99943 24ZM17.9994 22.5C18.3973 22.5 18.7788 22.342 19.0601 22.0607C19.3414 21.7794 19.4994 21.3978 19.4994 21C19.4994 20.6022 19.3414 20.2206 19.0601 19.9393C18.7788 19.658 18.3973 19.5 17.9994 19.5C17.6016 19.5 17.2201 19.658 16.9388 19.9393C16.6575 20.2206 16.4994 20.6022 16.4994 21C16.4994 21.3978 16.6575 21.7794 16.9388 22.0607C17.2201 22.342 17.6016 22.5 17.9994 22.5ZM17.9994 24C18.7951 24 19.5581 23.6839 20.1207 23.1213C20.6834 22.5587 20.9994 21.7957 20.9994 21C20.9994 20.2044 20.6834 19.4413 20.1207 18.8787C19.5581 18.3161 18.7951 18 17.9994 18C17.2038 18 16.4407 18.3161 15.8781 18.8787C15.3155 19.4413 14.9994 20.2044 14.9994 21C14.9994 21.7957 15.3155 22.5587 15.8781 23.1213C16.4407 23.6839 17.2038 24 17.9994 24ZM0.171929 4.77C0.242446 4.68534 0.330751 4.61725 0.430564 4.57059C0.530377 4.52392 0.639246 4.49982 0.749429 4.5H23.2494C23.3596 4.5001 23.4683 4.52446 23.568 4.57133C23.6676 4.6182 23.7557 4.68644 23.826 4.77121C23.8963 4.85597 23.9471 4.95518 23.9747 5.06178C24.0024 5.16838 24.0062 5.27976 23.9859 5.388L21.7359 17.388C21.7038 17.5599 21.6125 17.7151 21.4781 17.8268C21.3436 17.9386 21.1743 17.9998 20.9994 18H2.99943C2.82458 17.9998 2.65528 17.9386 2.52079 17.8268C2.38631 17.7151 2.2951 17.5599 2.26293 17.388L0.0129287 5.388C-0.00741311 5.27987 -0.00371374 5.16858 0.0237644 5.06204C0.0512426 4.9555 0.101827 4.85631 0.171929 4.7715V4.77ZM1.65243 6L3.62193 16.5H20.3769L22.3464 6H1.65243Z" fill="black"/>
</svg>
