<svg width="58" height="66" viewBox="0 0 58 66" fill="none" xmlns="http://www.w3.org/2000/svg">
<path d="M42.2473 0H4.92004C2.20681 0 0 1.77586 0 3.95924V49.1992C0 51.3826 2.20681 53.1585 4.92004 53.1585H5.46778V61.283C5.46778 63.8841 8.09736 66 11.3295 66H35.84C39.0723 66 41.7017 63.8839 41.7017 61.283V53.1585H42.2461C44.9593 53.1585 47.1661 51.3826 47.1661 49.1992V44.9903L54.9689 42.3865C56.8104 41.7679 57.9993 40.3345 57.9993 38.7289L58 17.4946C58 15.889 56.8119 14.4556 54.9668 13.837L47.1673 11.2332L47.1666 3.95938C47.1666 1.776 44.9598 0.000141863 42.2466 0.000141863L42.2473 0ZM47.177 14.0943L53.708 16.275C54.323 16.4811 54.7204 16.9583 54.7204 17.4941V38.7283C54.7204 39.2647 54.323 39.7413 53.7114 39.9474L47.1769 42.1281L47.177 14.0943ZM26.2985 63.3473V53.1603H29.7098V63.3473H26.2985ZM8.74818 61.2826V53.1603H23.0182V63.36H11.3296C9.90741 63.36 8.74818 62.4271 8.74818 61.2827V61.2826ZM38.423 61.2826C38.423 62.427 37.2637 63.3599 35.8416 63.3599H32.991V53.1602H38.4237L38.423 61.2826ZM43.8874 49.1988C43.8874 49.9257 43.1509 50.5184 42.2477 50.5184H4.92039C4.01711 50.5184 3.28061 49.9257 3.28061 49.1988V3.95882C3.28061 3.23193 4.01711 2.63926 4.92039 2.63926H42.2477C43.1509 2.63926 43.8874 3.23193 43.8874 3.95882V49.1988Z" fill="#4F4F4F"/>
<path d="M38.9666 5.27881H8.20057C7.29384 5.27881 6.56079 5.86928 6.56079 6.59837V19.1565C6.56079 19.8862 7.29454 20.4761 8.20057 20.4761H38.9666C39.8733 20.4761 40.6064 19.8856 40.6064 19.1565L40.6071 6.5988C40.6071 5.86914 39.8733 5.27869 38.9666 5.27869V5.27881ZM37.3268 17.837H9.83964V7.91836H37.3268V17.837Z" fill="#4F4F4F"/>
<path d="M12.9661 23.8641H8.19984C7.29311 23.8641 6.56006 24.4546 6.56006 25.1837C6.56006 25.9134 7.29381 26.5033 8.19984 26.5033H12.9661C13.8729 26.5033 14.6059 25.9128 14.6059 25.1837C14.6059 24.4546 13.8728 23.8641 12.9661 23.8641Z" fill="#4F4F4F"/>
<path d="M25.9691 23.8641H21.2028C20.296 23.8641 19.563 24.4546 19.563 25.1837C19.563 25.9134 20.2967 26.5033 21.2028 26.5033H25.9691C26.8758 26.5033 27.6088 25.9128 27.6088 25.1837C27.6088 24.4546 26.8758 23.8641 25.9691 23.8641Z" fill="#4F4F4F"/>
<path d="M38.9668 23.8641H34.204C33.2973 23.8641 32.5642 24.4546 32.5642 25.1837C32.5642 25.9134 33.298 26.5033 34.204 26.5033H38.9668C39.8735 26.5033 40.6065 25.9128 40.6065 25.1837C40.6072 24.4546 39.8735 23.8641 38.9668 23.8641Z" fill="#4F4F4F"/>
<path d="M12.9661 29.8907H8.19984C7.29311 29.8907 6.56006 30.4812 6.56006 31.2103C6.56006 31.94 7.29381 32.5299 8.19984 32.5299H12.9661C13.8729 32.5299 14.6059 31.9394 14.6059 31.2103C14.6059 30.4806 13.8728 29.8907 12.9661 29.8907Z" fill="#4F4F4F"/>
<path d="M25.9691 29.8907H21.2028C20.296 29.8907 19.563 30.4812 19.563 31.2103C19.563 31.94 20.2967 32.5299 21.2028 32.5299H25.9691C26.8758 32.5299 27.6088 31.9394 27.6088 31.2103C27.6088 30.4806 26.8758 29.8907 25.9691 29.8907Z" fill="#4F4F4F"/>
<path d="M38.9668 29.8907H34.204C33.2973 29.8907 32.5642 30.4812 32.5642 31.2103C32.5642 31.94 33.298 32.5299 34.204 32.5299H38.9668C39.8735 32.5299 40.6065 31.9394 40.6065 31.2103C40.6072 30.4806 39.8735 29.8907 38.9668 29.8907Z" fill="#4F4F4F"/>
<path d="M12.9661 35.9159H8.19984C7.29311 35.9159 6.56006 36.5064 6.56006 37.2355C6.56006 37.9651 7.29381 38.555 8.19984 38.555H12.9661C13.8729 38.555 14.6059 37.9645 14.6059 37.2355C14.6059 36.5064 13.8728 35.9159 12.9661 35.9159Z" fill="#4F4F4F"/>
<path d="M25.9691 35.9159H21.2028C20.296 35.9159 19.563 36.5064 19.563 37.2355C19.563 37.9651 20.2967 38.555 21.2028 38.555H25.9691C26.8758 38.555 27.6088 37.9645 27.6088 37.2355C27.6088 36.5064 26.8758 35.9159 25.9691 35.9159Z" fill="#4F4F4F"/>
<path d="M38.9668 35.9159H34.204C33.2973 35.9159 32.5642 36.5064 32.5642 37.2355C32.5642 37.9651 33.298 38.555 34.204 38.555H38.9668C39.8735 38.555 40.6065 37.9645 40.6065 37.2355C40.6072 36.5064 39.8735 35.9159 38.9668 35.9159Z" fill="#4F4F4F"/>
<path d="M12.9661 41.9409H8.19984C7.29311 41.9409 6.56006 42.5314 6.56006 43.2605C6.56006 43.9901 7.29381 44.58 8.19984 44.58H12.9661C13.8729 44.58 14.6059 43.9896 14.6059 43.2605C14.6059 42.5314 13.8728 41.9409 12.9661 41.9409Z" fill="#4F4F4F"/>
<path d="M25.9691 41.9409H21.2028C20.296 41.9409 19.563 42.5314 19.563 43.2605C19.563 43.9901 20.2967 44.58 21.2028 44.58H25.9691C26.8758 44.58 27.6088 43.9896 27.6088 43.2605C27.6088 42.5314 26.8758 41.9409 25.9691 41.9409Z" fill="#4F4F4F"/>
<path d="M38.9668 41.9409H34.204C33.2973 41.9409 32.5642 42.5314 32.5642 43.2605C32.5642 43.9901 33.298 44.58 34.204 44.58H38.9668C39.8735 44.58 40.6065 43.9896 40.6065 43.2605C40.6072 42.5314 39.8735 41.9409 38.9668 41.9409Z" fill="#4F4F4F"/>
</svg>
