<svg width="24" height="24" viewBox="0 0 24 24" fill="none" xmlns="http://www.w3.org/2000/svg">
<g clip-path="url(#clip0_1315_2145)">
<path fill-rule="evenodd" clip-rule="evenodd" d="M15.4259 3.7877L14.0444 2.3717L15.1169 1.3247L16.0499 2.2802L17.3849 2.2637C17.9627 2.25686 18.5362 2.36564 19.0714 2.58363C19.6066 2.80163 20.0928 3.12444 20.5015 3.53309C20.9101 3.94174 21.2329 4.42797 21.4509 4.96319C21.6689 5.49842 21.7777 6.07183 21.7709 6.6497L21.7559 7.9847L22.7099 8.9177C23.1231 9.32146 23.4514 9.80373 23.6755 10.3362C23.8997 10.8686 24.0152 11.4405 24.0152 12.0182C24.0152 12.5959 23.8997 13.1678 23.6755 13.7002C23.4514 14.2327 23.1231 14.7149 22.7099 15.1187L21.7544 16.0517L21.7709 17.3867C21.7777 17.9646 21.6689 18.538 21.4509 19.0732C21.2329 19.6084 20.9101 20.0947 20.5015 20.5033C20.0928 20.912 19.6066 21.2348 19.0714 21.4528C18.5362 21.6708 17.9627 21.7795 17.3849 21.7727L16.0499 21.7577L15.1169 22.7117C14.7131 23.1249 14.2308 23.4532 13.6984 23.6774C13.166 23.9015 12.5941 24.017 12.0164 24.017C11.4387 24.017 10.8668 23.9015 10.3343 23.6774C9.8019 23.4532 9.31963 23.1249 8.91587 22.7117L7.98287 21.7562L6.64787 21.7727C6.07 21.7795 5.49659 21.6708 4.96136 21.4528C4.42614 21.2348 3.93991 20.912 3.53126 20.5033C3.12261 20.0947 2.7998 19.6084 2.5818 19.0732C2.36381 18.538 2.25503 17.9646 2.26187 17.3867L2.27687 16.0517L1.32287 15.1187C0.909682 14.7149 0.581362 14.2327 0.357205 13.7002C0.133049 13.1678 0.0175781 12.5959 0.0175781 12.0182C0.0175781 11.4405 0.133049 10.8686 0.357205 10.3362C0.581362 9.80373 0.909682 9.32146 1.32287 8.9177L2.27837 7.9847L2.26187 6.6497C2.25503 6.07183 2.36381 5.49842 2.5818 4.96319C2.7998 4.42797 3.12261 3.94174 3.53126 3.53309C3.93991 3.12444 4.42614 2.80163 4.96136 2.58363C5.49659 2.36564 6.07 2.25686 6.64787 2.2637L7.98287 2.2787L8.91587 1.3247C9.31963 0.911513 9.8019 0.583193 10.3343 0.359037C10.8668 0.13488 11.4387 0.0194092 12.0164 0.0194092C12.5941 0.0194092 13.166 0.13488 13.6984 0.359037C14.2308 0.583193 14.7131 0.911513 15.1169 1.3247L14.0444 2.3717C13.7803 2.10138 13.4649 1.88658 13.1166 1.73993C12.7683 1.59327 12.3943 1.51772 12.0164 1.51772C11.6385 1.51772 11.2644 1.59327 10.9161 1.73993C10.5679 1.88658 10.2524 2.10138 9.98837 2.3717L8.60837 3.7877L6.62837 3.7637C6.25064 3.75948 5.87587 3.83079 5.52608 3.97344C5.1763 4.1161 4.85855 4.32722 4.59151 4.5944C4.32446 4.86159 4.11351 5.17945 3.97104 5.52931C3.82856 5.87917 3.75745 6.25397 3.76187 6.6317L3.78587 8.6087L2.36987 9.9902C2.09955 10.2543 1.88475 10.5697 1.73809 10.918C1.59144 11.2662 1.51589 11.6403 1.51589 12.0182C1.51589 12.3961 1.59144 12.7702 1.73809 13.1184C1.88475 13.4667 2.09955 13.7821 2.36987 14.0462L3.78587 15.4262L3.76187 17.4062C3.75765 17.7839 3.82896 18.1587 3.97161 18.5085C4.11427 18.8583 4.32539 19.176 4.59257 19.4431C4.85975 19.7101 5.17761 19.9211 5.52747 20.0635C5.87733 20.206 6.25214 20.2771 6.62987 20.2727L8.60687 20.2487L9.98837 21.6647C10.2524 21.935 10.5679 22.1498 10.9161 22.2965C11.2644 22.4431 11.6385 22.5187 12.0164 22.5187C12.3943 22.5187 12.7683 22.4431 13.1166 22.2965C13.4649 22.1498 13.7803 21.935 14.0444 21.6647L15.4244 20.2487L17.4044 20.2727C17.7821 20.2769 18.1569 20.2056 18.5067 20.063C18.8564 19.9203 19.1742 19.7092 19.4412 19.442C19.7083 19.1748 19.9192 18.857 20.0617 18.5071C20.2042 18.1572 20.2753 17.7824 20.2709 17.4047L20.2469 15.4277L21.6629 14.0462C21.9332 13.7821 22.148 13.4667 22.2946 13.1184C22.4413 12.7702 22.5168 12.3961 22.5168 12.0182C22.5168 11.6403 22.4413 11.2662 22.2946 10.918C22.148 10.5697 21.9332 10.2543 21.6629 9.9902L20.2469 8.6102L20.2709 6.6302C20.2751 6.25247 20.2038 5.8777 20.0611 5.52792C19.9185 5.17813 19.7074 4.86038 19.4402 4.59334C19.173 4.32629 18.8551 4.11534 18.5053 3.97287C18.1554 3.8304 17.7806 3.75928 17.4029 3.7637L15.4259 3.7877Z" fill="black"/>
<path fill-rule="evenodd" clip-rule="evenodd" d="M15.5319 9.21888C15.6018 9.28854 15.6572 9.37131 15.695 9.46242C15.7328 9.55354 15.7523 9.65122 15.7523 9.74988C15.7523 9.84853 15.7328 9.94621 15.695 10.0373C15.6572 10.1284 15.6018 10.2112 15.5319 10.2809L11.0319 14.7809C10.9623 14.8507 10.8795 14.9061 10.7884 14.9439C10.6973 14.9818 10.5996 15.0012 10.5009 15.0012C10.4023 15.0012 10.3046 14.9818 10.2135 14.9439C10.1224 14.9061 10.0396 14.8507 9.96995 14.7809L7.71995 12.5309C7.65022 12.4611 7.5949 12.3784 7.55716 12.2873C7.51942 12.1961 7.5 12.0985 7.5 11.9999C7.5 11.9013 7.51942 11.8036 7.55716 11.7125C7.5949 11.6214 7.65022 11.5386 7.71995 11.4689C7.78968 11.3991 7.87246 11.3438 7.96357 11.3061C8.05468 11.2684 8.15233 11.2489 8.25095 11.2489C8.34956 11.2489 8.44721 11.2684 8.53832 11.3061C8.62943 11.3438 8.71222 11.3991 8.78195 11.4689L10.5009 13.1894L14.4699 9.21888C14.5396 9.14903 14.6224 9.09362 14.7135 9.05581C14.8046 9.018 14.9023 8.99854 15.0009 8.99854C15.0996 8.99854 15.1973 9.018 15.2884 9.05581C15.3795 9.09362 15.4623 9.14903 15.5319 9.21888Z" fill="black"/>
</g>
<defs>
<clipPath id="clip0_1315_2145">
<rect width="24" height="24" fill="white"/>
</clipPath>
</defs>
</svg>
