<svg width="24" height="24" viewBox="0 0 24 24" fill="none" xmlns="http://www.w3.org/2000/svg">
<g clip-path="url(#clip0_1315_2158)">
<path fill-rule="evenodd" clip-rule="evenodd" d="M15.1169 1.30062C14.7131 0.887434 14.2308 0.559115 13.6984 0.334958C13.166 0.110802 12.5941 -0.00466919 12.0164 -0.00466919C11.4387 -0.00466919 10.8668 0.110802 10.3343 0.334958C9.8019 0.559115 9.31963 0.887434 8.91587 1.30062L7.98287 2.25762L6.64787 2.24112C6.07 2.23428 5.49659 2.34306 4.96136 2.56106C4.42614 2.77905 3.93991 3.10186 3.53126 3.51051C3.12261 3.91916 2.7998 4.40539 2.5818 4.94062C2.36381 5.47584 2.25503 6.04925 2.26187 6.62712L2.27687 7.96212L1.32287 8.89512C0.909682 9.29888 0.581362 9.78115 0.357205 10.3136C0.133049 10.846 0.0175781 11.4179 0.0175781 11.9956C0.0175781 12.5733 0.133049 13.1452 0.357205 13.6777C0.581362 14.2101 0.909682 14.6924 1.32287 15.0961L2.27837 16.0291L2.26187 17.3641C2.25503 17.942 2.36381 18.5154 2.5818 19.0506C2.7998 19.5859 3.12261 20.0721 3.53126 20.4807C3.93991 20.8894 4.42614 21.2122 4.96136 21.4302C5.49659 21.6482 6.07 21.757 6.64787 21.7501L7.98287 21.7351L8.91587 22.6891C9.31963 23.1023 9.8019 23.4306 10.3343 23.6548C10.8668 23.8789 11.4387 23.9944 12.0164 23.9944C12.5941 23.9944 13.166 23.8789 13.6984 23.6548C14.2308 23.4306 14.7131 23.1023 15.1169 22.6891L16.0499 21.7336L17.3849 21.7501C17.9627 21.757 18.5362 21.6482 19.0714 21.4302C19.6066 21.2122 20.0928 20.8894 20.5015 20.4807C20.9101 20.0721 21.2329 19.5859 21.4509 19.0506C21.6689 18.5154 21.7777 17.942 21.7709 17.3641L21.7559 16.0291L22.7099 15.0961C23.1231 14.6924 23.4514 14.2101 23.6755 13.6777C23.8997 13.1452 24.0152 12.5733 24.0152 11.9956C24.0152 11.4179 23.8997 10.846 23.6755 10.3136C23.4514 9.78115 23.1231 9.29888 22.7099 8.89512L21.7544 7.96212L21.7709 6.62712C21.7777 6.04925 21.6689 5.47584 21.4509 4.94062C21.2329 4.40539 20.9101 3.91916 20.5015 3.51051C20.0928 3.10186 19.6066 2.77905 19.0714 2.56106C18.5362 2.34306 17.9627 2.23428 17.3849 2.24112L16.0499 2.25612L15.1169 1.30212V1.30062ZM12.7664 8.99562C12.7664 8.79671 12.6874 8.60595 12.5467 8.46529C12.406 8.32464 12.2153 8.24562 12.0164 8.24562C11.8175 8.24562 11.6267 8.32464 11.486 8.46529C11.3454 8.60595 11.2664 8.79671 11.2664 8.99562V11.2456H9.01637C8.81746 11.2456 8.62669 11.3246 8.48604 11.4653C8.34539 11.6059 8.26637 11.7967 8.26637 11.9956C8.26637 12.1945 8.34539 12.3853 8.48604 12.526C8.62669 12.6666 8.81746 12.7456 9.01637 12.7456H11.2664V14.9956C11.2664 15.1945 11.3454 15.3853 11.486 15.526C11.6267 15.6666 11.8175 15.7456 12.0164 15.7456C12.2153 15.7456 12.406 15.6666 12.5467 15.526C12.6874 15.3853 12.7664 15.1945 12.7664 14.9956V12.7456H15.0164C15.2153 12.7456 15.406 12.6666 15.5467 12.526C15.6874 12.3853 15.7664 12.1945 15.7664 11.9956C15.7664 11.7967 15.6874 11.6059 15.5467 11.4653C15.406 11.3246 15.2153 11.2456 15.0164 11.2456H12.7664V8.99562Z" fill="black"/>
</g>
<defs>
<clipPath id="clip0_1315_2158">
<rect width="24" height="24" fill="white"/>
</clipPath>
</defs>
</svg>
