<svg width="24" height="24" viewBox="0 0 24 24" fill="none" xmlns="http://www.w3.org/2000/svg">
<g clip-path="url(#clip0_1315_2148)">
<path fill-rule="evenodd" clip-rule="evenodd" d="M15.1169 1.30053C14.7131 0.887343 14.2308 0.559023 13.6984 0.334867C13.166 0.11071 12.5941 -0.00476074 12.0164 -0.00476074C11.4387 -0.00476074 10.8668 0.11071 10.3343 0.334867C9.8019 0.559023 9.31963 0.887343 8.91587 1.30053L7.98287 2.25753L6.64787 2.24103C6.07 2.23419 5.49659 2.34297 4.96136 2.56096C4.42614 2.77896 3.93991 3.10177 3.53126 3.51042C3.12261 3.91907 2.7998 4.4053 2.5818 4.94052C2.36381 5.47575 2.25503 6.04916 2.26187 6.62703L2.27687 7.96203L1.32287 8.89503C0.909682 9.29879 0.581362 9.78106 0.357205 10.3135C0.133049 10.8459 0.0175781 11.4178 0.0175781 11.9955C0.0175781 12.5732 0.133049 13.1451 0.357205 13.6776C0.581362 14.21 0.909682 14.6923 1.32287 15.096L2.27837 16.029L2.26187 17.364C2.25503 17.9419 2.36381 18.5153 2.5818 19.0505C2.7998 19.5858 3.12261 20.072 3.53126 20.4806C3.93991 20.8893 4.42614 21.2121 4.96136 21.4301C5.49659 21.6481 6.07 21.7569 6.64787 21.75L7.98287 21.735L8.91587 22.689C9.31963 23.1022 9.8019 23.4305 10.3343 23.6547C10.8668 23.8789 11.4387 23.9943 12.0164 23.9943C12.5941 23.9943 13.166 23.8789 13.6984 23.6547C14.2308 23.4305 14.7131 23.1022 15.1169 22.689L16.0499 21.7335L17.3849 21.75C17.9627 21.7569 18.5362 21.6481 19.0714 21.4301C19.6066 21.2121 20.0928 20.8893 20.5015 20.4806C20.9101 20.072 21.2329 19.5858 21.4509 19.0505C21.6689 18.5153 21.7777 17.9419 21.7709 17.364L21.7559 16.029L22.7099 15.096C23.1231 14.6923 23.4514 14.21 23.6755 13.6776C23.8997 13.1451 24.0152 12.5732 24.0152 11.9955C24.0152 11.4178 23.8997 10.8459 23.6755 10.3135C23.4514 9.78106 23.1231 9.29879 22.7099 8.89503L21.7544 7.96203L21.7709 6.62703C21.7777 6.04916 21.6689 5.47575 21.4509 4.94052C21.2329 4.4053 20.9101 3.91907 20.5015 3.51042C20.0928 3.10177 19.6066 2.77896 19.0714 2.56096C18.5362 2.34297 17.9627 2.23419 17.3849 2.24103L16.0499 2.25603L15.1169 1.30203V1.30053ZM12.0164 5.99553C11.8268 5.99564 11.6393 6.03546 11.4661 6.11242C11.2928 6.18939 11.1376 6.3018 11.0104 6.4424C10.8832 6.583 10.7869 6.74869 10.7276 6.92878C10.6684 7.10888 10.6475 7.29938 10.6664 7.48803L11.1914 12.7485C11.2127 12.9525 11.3088 13.1413 11.4612 13.2785C11.6135 13.4158 11.8113 13.4917 12.0164 13.4917C12.2214 13.4917 12.4192 13.4158 12.5716 13.2785C12.7239 13.1413 12.82 12.9525 12.8414 12.7485L13.3664 7.48803C13.3852 7.29938 13.3644 7.10888 13.3051 6.92878C13.2459 6.74869 13.1495 6.583 13.0224 6.4424C12.8952 6.3018 12.74 6.18939 12.5667 6.11242C12.3934 6.03546 12.206 5.99564 12.0164 5.99553ZM12.0194 14.9955C11.6215 14.9955 11.24 15.1536 10.9587 15.4349C10.6774 15.7162 10.5194 16.0977 10.5194 16.4955C10.5194 16.8934 10.6774 17.2749 10.9587 17.5562C11.24 17.8375 11.6215 17.9955 12.0194 17.9955C12.4172 17.9955 12.7987 17.8375 13.08 17.5562C13.3613 17.2749 13.5194 16.8934 13.5194 16.4955C13.5194 16.0977 13.3613 15.7162 13.08 15.4349C12.7987 15.1536 12.4172 14.9955 12.0194 14.9955Z" fill="black"/>
</g>
<defs>
<clipPath id="clip0_1315_2148">
<rect width="24" height="24" fill="white"/>
</clipPath>
</defs>
</svg>
