<svg width="24" height="24" viewBox="0 0 24 24" fill="none" xmlns="http://www.w3.org/2000/svg">
<g clip-path="url(#clip0_1315_2150)">
<path d="M10.5059 16.5C10.5059 16.303 10.5447 16.108 10.62 15.926C10.6954 15.744 10.8059 15.5786 10.9452 15.4393C11.0845 15.3 11.2498 15.1896 11.4318 15.1142C11.6138 15.0388 11.8089 15 12.0059 15C12.2028 15 12.3979 15.0388 12.5799 15.1142C12.7619 15.1896 12.9272 15.3 13.0665 15.4393C13.2058 15.5786 13.3163 15.744 13.3917 15.926C13.4671 16.108 13.5059 16.303 13.5059 16.5C13.5059 16.8978 13.3478 17.2793 13.0665 17.5607C12.7852 17.842 12.4037 18 12.0059 18C11.608 18 11.2265 17.842 10.9452 17.5607C10.6639 17.2793 10.5059 16.8978 10.5059 16.5ZM10.6529 7.49249C10.6329 7.30325 10.6529 7.11193 10.7117 6.93093C10.7704 6.74994 10.8665 6.58331 10.9938 6.44187C11.1211 6.30043 11.2767 6.18733 11.4506 6.10992C11.6244 6.0325 11.8126 5.99249 12.0029 5.99249C12.1931 5.99249 12.3813 6.0325 12.5551 6.10992C12.729 6.18733 12.8846 6.30043 13.0119 6.44187C13.1392 6.58331 13.2353 6.74994 13.2941 6.93093C13.3528 7.11193 13.3728 7.30325 13.3529 7.49249L12.8279 12.753C12.8102 12.9597 12.7157 13.1522 12.5629 13.2924C12.4101 13.4327 12.2103 13.5106 12.0029 13.5106C11.7955 13.5106 11.5956 13.4327 11.4428 13.2924C11.2901 13.1522 11.1955 12.9597 11.1779 12.753L10.6529 7.49249Z" fill="black"/>
<path fill-rule="evenodd" clip-rule="evenodd" d="M15.4259 3.78761L14.0444 2.37161L15.1169 1.32461L16.0499 2.28011L17.3849 2.26361C17.9627 2.25677 18.5362 2.36555 19.0714 2.58354C19.6066 2.80154 20.0928 3.12435 20.5015 3.533C20.9101 3.94165 21.2329 4.42788 21.4509 4.9631C21.6689 5.49833 21.7777 6.07174 21.7709 6.64961L21.7559 7.98461L22.7099 8.91761C23.1231 9.32137 23.4514 9.80364 23.6755 10.3361C23.8997 10.8685 24.0152 11.4404 24.0152 12.0181C24.0152 12.5958 23.8997 13.1677 23.6755 13.7001C23.4514 14.2326 23.1231 14.7149 22.7099 15.1186L21.7544 16.0516L21.7709 17.3866C21.7777 17.9645 21.6689 18.5379 21.4509 19.0731C21.2329 19.6083 20.9101 20.0946 20.5015 20.5032C20.0928 20.9119 19.6066 21.2347 19.0714 21.4527C18.5362 21.6707 17.9627 21.7794 17.3849 21.7726L16.0499 21.7576L15.1169 22.7116C14.7131 23.1248 14.2308 23.4531 13.6984 23.6773C13.166 23.9014 12.5941 24.0169 12.0164 24.0169C11.4387 24.0169 10.8668 23.9014 10.3343 23.6773C9.8019 23.4531 9.31963 23.1248 8.91587 22.7116L7.98287 21.7561L6.64787 21.7726C6.07 21.7794 5.49659 21.6707 4.96136 21.4527C4.42614 21.2347 3.93991 20.9119 3.53126 20.5032C3.12261 20.0946 2.7998 19.6083 2.5818 19.0731C2.36381 18.5379 2.25503 17.9645 2.26187 17.3866L2.27687 16.0516L1.32287 15.1186C0.909682 14.7149 0.581362 14.2326 0.357205 13.7001C0.133049 13.1677 0.0175781 12.5958 0.0175781 12.0181C0.0175781 11.4404 0.133049 10.8685 0.357205 10.3361C0.581362 9.80364 0.909682 9.32137 1.32287 8.91761L2.27837 7.98461L2.26187 6.64961C2.25503 6.07174 2.36381 5.49833 2.5818 4.9631C2.7998 4.42788 3.12261 3.94165 3.53126 3.533C3.93991 3.12435 4.42614 2.80154 4.96136 2.58354C5.49659 2.36555 6.07 2.25677 6.64787 2.26361L7.98287 2.27861L8.91587 1.32461C9.31963 0.911421 9.8019 0.583101 10.3343 0.358945C10.8668 0.134789 11.4387 0.0193176 12.0164 0.0193176C12.5941 0.0193176 13.166 0.134789 13.6984 0.358945C14.2308 0.583101 14.7131 0.911421 15.1169 1.32461L14.0444 2.37161C13.7803 2.10129 13.4649 1.88649 13.1166 1.73983C12.7683 1.59318 12.3943 1.51763 12.0164 1.51763C11.6385 1.51763 11.2644 1.59318 10.9161 1.73983C10.5679 1.88649 10.2524 2.10129 9.98837 2.37161L8.60837 3.78761L6.62837 3.76361C6.25064 3.75939 5.87587 3.8307 5.52608 3.97335C5.1763 4.11601 4.85855 4.32713 4.59151 4.59431C4.32446 4.86149 4.11351 5.17935 3.97104 5.52921C3.82856 5.87907 3.75745 6.25388 3.76187 6.63161L3.78587 8.60861L2.36987 9.99011C2.09955 10.2542 1.88475 10.5696 1.73809 10.9179C1.59144 11.2661 1.51589 11.6402 1.51589 12.0181C1.51589 12.396 1.59144 12.7701 1.73809 13.1183C1.88475 13.4666 2.09955 13.7821 2.36987 14.0461L3.78587 15.4261L3.76187 17.4061C3.75765 17.7838 3.82896 18.1586 3.97161 18.5084C4.11427 18.8582 4.32539 19.1759 4.59257 19.443C4.85975 19.71 5.17761 19.921 5.52747 20.0634C5.87733 20.2059 6.25214 20.277 6.62987 20.2726L8.60687 20.2486L9.98837 21.6646C10.2524 21.9349 10.5679 22.1497 10.9161 22.2964C11.2644 22.443 11.6385 22.5186 12.0164 22.5186C12.3943 22.5186 12.7683 22.443 13.1166 22.2964C13.4649 22.1497 13.7803 21.9349 14.0444 21.6646L15.4244 20.2486L17.4044 20.2726C17.7821 20.2768 18.1569 20.2055 18.5067 20.0629C18.8564 19.9202 19.1742 19.7091 19.4412 19.4419C19.7083 19.1747 19.9192 18.8569 20.0617 18.507C20.2042 18.1571 20.2753 17.7823 20.2709 17.4046L20.2469 15.4276L21.6629 14.0461C21.9332 13.7821 22.148 13.4666 22.2946 13.1183C22.4413 12.7701 22.5168 12.396 22.5168 12.0181C22.5168 11.6402 22.4413 11.2661 22.2946 10.9179C22.148 10.5696 21.9332 10.2542 21.6629 9.99011L20.2469 8.61011L20.2709 6.63011C20.2751 6.25238 20.2038 5.87761 20.0611 5.52782C19.9185 5.17804 19.7074 4.86029 19.4402 4.59324C19.173 4.3262 18.8551 4.11525 18.5053 3.97277C18.1554 3.8303 17.7806 3.75919 17.4029 3.76361L15.4259 3.78761Z" fill="black"/>
</g>
<defs>
<clipPath id="clip0_1315_2150">
<rect width="24" height="24" fill="white"/>
</clipPath>
</defs>
</svg>
