<svg width="24" height="24" viewBox="0 0 24 24" fill="none" xmlns="http://www.w3.org/2000/svg">
<g clip-path="url(#clip0_1315_2228)">
<path fill-rule="evenodd" clip-rule="evenodd" d="M21 1.5H3C2.60218 1.5 2.22064 1.65804 1.93934 1.93934C1.65804 2.22064 1.5 2.60218 1.5 3V21C1.5 21.3978 1.65804 21.7794 1.93934 22.0607C2.22064 22.342 2.60218 22.5 3 22.5H21C21.3978 22.5 21.7794 22.342 22.0607 22.0607C22.342 21.7794 22.5 21.3978 22.5 21V3C22.5 2.60218 22.342 2.22064 22.0607 1.93934C21.7794 1.65804 21.3978 1.5 21 1.5ZM3 0C2.20435 0 1.44129 0.316071 0.87868 0.87868C0.316071 1.44129 0 2.20435 0 3L0 21C0 21.7956 0.316071 22.5587 0.87868 23.1213C1.44129 23.6839 2.20435 24 3 24H21C21.7956 24 22.5587 23.6839 23.1213 23.1213C23.6839 22.5587 24 21.7956 24 21V3C24 2.20435 23.6839 1.44129 23.1213 0.87868C22.5587 0.316071 21.7956 0 21 0L3 0Z" fill="black"/>
<path fill-rule="evenodd" clip-rule="evenodd" d="M3 22.5V21C3 19.5 4.5 15 12 15C19.5 15 21 19.5 21 21V22.5H3ZM12 13.5C13.1935 13.5 14.3381 13.0259 15.182 12.182C16.0259 11.3381 16.5 10.1935 16.5 9C16.5 7.80653 16.0259 6.66193 15.182 5.81802C14.3381 4.97411 13.1935 4.5 12 4.5C10.8065 4.5 9.66193 4.97411 8.81802 5.81802C7.97411 6.66193 7.5 7.80653 7.5 9C7.5 10.1935 7.97411 11.3381 8.81802 12.182C9.66193 13.0259 10.8065 13.5 12 13.5Z" fill="black"/>
</g>
<defs>
<clipPath id="clip0_1315_2228">
<rect width="24" height="24" fill="white"/>
</clipPath>
</defs>
</svg>
