<svg width="24" height="24" viewBox="0 0 24 24" fill="none" xmlns="http://www.w3.org/2000/svg">
<g clip-path="url(#clip0_1315_2244)">
<path fill-rule="evenodd" clip-rule="evenodd" d="M15 4.5H9C8.60218 4.5 8.22064 4.65804 7.93934 4.93934C7.65804 5.22064 7.5 5.60218 7.5 6V18C7.5 18.3978 7.65804 18.7794 7.93934 19.0607C8.22064 19.342 8.60218 19.5 9 19.5H15C15.3978 19.5 15.7794 19.342 16.0607 19.0607C16.342 18.7794 16.5 18.3978 16.5 18V6C16.5 5.60218 16.342 5.22064 16.0607 4.93934C15.7794 4.65804 15.3978 4.5 15 4.5ZM9 3C8.20435 3 7.44129 3.31607 6.87868 3.87868C6.31607 4.44129 6 5.20435 6 6V18C6 18.7956 6.31607 19.5587 6.87868 20.1213C7.44129 20.6839 8.20435 21 9 21H15C15.7956 21 16.5587 20.6839 17.1213 20.1213C17.6839 19.5587 18 18.7956 18 18V6C18 5.20435 17.6839 4.44129 17.1213 3.87868C16.5587 3.31607 15.7956 3 15 3H9Z" fill="black"/>
<path fill-rule="evenodd" clip-rule="evenodd" d="M12 17.9999C12.3978 17.9999 12.7794 17.8418 13.0607 17.5605C13.342 17.2792 13.5 16.8977 13.5 16.4999C13.5 16.1021 13.342 15.7205 13.0607 15.4392C12.7794 15.1579 12.3978 14.9999 12 14.9999C11.6022 14.9999 11.2207 15.1579 10.9394 15.4392C10.658 15.7205 10.5 16.1021 10.5 16.4999C10.5 16.8977 10.658 17.2792 10.9394 17.5605C11.2207 17.8418 11.6022 17.9999 12 17.9999ZM2.39851 6.08688C2.4856 6.13296 2.56275 6.19574 2.62556 6.27164C2.68837 6.34754 2.73562 6.43508 2.76459 6.52924C2.79356 6.62341 2.8037 6.72236 2.79442 6.82044C2.78514 6.91853 2.75663 7.01382 2.71051 7.10088C1.91288 8.61048 1.49726 10.2925 1.50001 11.9999C1.50001 13.7699 1.93801 15.4379 2.71051 16.8989C2.8036 17.0747 2.82303 17.2803 2.76452 17.4705C2.70601 17.6607 2.57435 17.8198 2.39851 17.9129C2.22267 18.006 2.01706 18.0254 1.82689 17.9669C1.63673 17.9084 1.4776 17.7767 1.38451 17.6009C0.472548 15.875 -0.00280132 13.9519 1.24191e-05 11.9999C1.24191e-05 9.97938 0.501012 8.07138 1.38451 6.39888C1.43059 6.3118 1.49337 6.23465 1.56927 6.17183C1.64517 6.10902 1.73271 6.06178 1.82687 6.0328C1.92104 6.00383 2.01999 5.99369 2.11807 6.00297C2.21616 6.01225 2.31145 6.04076 2.39851 6.08688ZM21.6015 6.08688C21.6886 6.04076 21.7839 6.01225 21.882 6.00297C21.98 5.99369 22.079 6.00383 22.1732 6.0328C22.2673 6.06178 22.3549 6.10902 22.4308 6.17183C22.5067 6.23465 22.5694 6.3118 22.6155 6.39888C23.5275 8.12478 24.0029 10.0478 24 11.9999C24.0029 13.9519 23.5275 15.875 22.6155 17.6009C22.5224 17.7767 22.3633 17.9084 22.1731 17.9669C21.983 18.0254 21.7774 18.006 21.6015 17.9129C21.4257 17.8198 21.294 17.6607 21.2355 17.4705C21.177 17.2803 21.1964 17.0747 21.2895 16.8989C22.0871 15.3893 22.5028 13.7072 22.5 11.9999C22.5 10.2299 22.062 8.56188 21.2895 7.10088C21.2434 7.01382 21.2149 6.91853 21.2056 6.82044C21.1963 6.72236 21.2065 6.62341 21.2354 6.52924C21.2644 6.43508 21.3117 6.34754 21.3745 6.27164C21.4373 6.19574 21.5144 6.13296 21.6015 6.08688ZM4.58551 8.30088C4.67734 8.33669 4.76121 8.39024 4.83233 8.45848C4.90345 8.52672 4.96042 8.60831 4.99998 8.69858C5.03954 8.78886 5.06093 8.88604 5.06291 8.98458C5.06488 9.08313 5.04742 9.18109 5.01151 9.27288C4.67242 10.142 4.49893 11.0669 4.50001 11.9999C4.50001 12.9629 4.68001 13.8824 5.01001 14.7269C5.05187 14.8196 5.07443 14.9198 5.07633 15.0215C5.07823 15.1232 5.05942 15.2242 5.02105 15.3184C4.98268 15.4126 4.92555 15.4981 4.85314 15.5695C4.78072 15.6409 4.69454 15.6969 4.59982 15.7339C4.5051 15.771 4.40383 15.7884 4.30217 15.7851C4.20051 15.7818 4.10058 15.7579 4.00846 15.7148C3.91634 15.6716 3.83396 15.6102 3.76632 15.5343C3.69868 15.4583 3.6472 15.3694 3.61501 15.2729C3.20771 14.2298 2.99913 13.1197 3.00001 11.9999C3.00001 10.8464 3.21751 9.74238 3.61501 8.72688C3.68734 8.54179 3.83016 8.39296 4.01213 8.31309C4.19409 8.23322 4.40031 8.22883 4.58551 8.30088ZM19.4145 8.30088C19.5063 8.26497 19.6043 8.24751 19.7028 8.24949C19.8014 8.25147 19.8985 8.27285 19.9888 8.31241C20.0791 8.35198 20.1607 8.40895 20.2289 8.48006C20.2972 8.55118 20.3507 8.63505 20.3865 8.72688C20.7825 9.74238 21 10.8464 21 11.9999C21 13.1534 20.7825 14.2574 20.385 15.2729C20.3059 15.4481 20.1625 15.5863 19.9844 15.6588C19.8063 15.7314 19.6072 15.7327 19.4281 15.6627C19.249 15.5926 19.1037 15.4564 19.0222 15.2822C18.9407 15.1081 18.9292 14.9093 18.99 14.7269C19.32 13.8824 19.5 12.9629 19.5 11.9999C19.5 11.0369 19.32 10.1174 18.99 9.27288C18.9174 9.08769 18.9213 8.88125 19.001 8.69896C19.0806 8.51668 19.2293 8.37348 19.4145 8.30088Z" fill="black"/>
</g>
<defs>
<clipPath id="clip0_1315_2244">
<rect width="24" height="24" fill="white"/>
</clipPath>
</defs>
</svg>
