<svg width="24" height="24" viewBox="0 0 24 24" fill="none" xmlns="http://www.w3.org/2000/svg">
<g clip-path="url(#clip0_1315_2250)">
<path d="M23.9789 12.7498H12.3119L4.06193 20.9998C5.74606 22.4856 7.81336 23.469 10.0287 23.8381C12.244 24.2072 14.5185 23.9472 16.5934 23.0877C18.6682 22.2282 20.4603 20.8036 21.7656 18.9761C23.071 17.1485 23.8373 14.9913 23.9774 12.7498H23.9789ZM3.00143 19.9378C1.51563 18.2537 0.532258 16.1864 0.163166 13.9711C-0.205926 11.7558 0.0540735 9.48131 0.913594 7.40643C1.77312 5.33154 3.19766 3.53951 5.0252 2.23413C6.85275 0.928761 9.00994 0.162446 11.2514 0.0223465V11.6893L3.00143 19.9393V19.9378ZM12.7514 0.0223465V11.2498H23.9789C23.7961 8.33203 22.5545 5.58127 20.4873 3.51401C18.42 1.44676 15.6693 0.205169 12.7514 0.0223465Z" fill="black"/>
</g>
<defs>
<clipPath id="clip0_1315_2250">
<rect width="24" height="24" fill="white"/>
</clipPath>
</defs>
</svg>
