<svg width="75" height="69" viewBox="0 0 75 69" fill="none" xmlns="http://www.w3.org/2000/svg">
<path d="M70.5246 4.52808H11.8142C10.8412 4.52808 9.90739 4.91474 9.2195 5.60287C8.53161 6.29101 8.14489 7.22496 8.14489 8.19805V22.8782H4.47548C3.50244 22.8782 2.56865 23.2649 1.88076 23.953C1.19287 24.6412 0.806152 25.5751 0.806152 26.5482V60.802C0.806152 61.7752 1.19275 62.7091 1.88076 63.3971C2.56878 64.0851 3.50257 64.4719 4.47548 64.4719H63.1859C64.159 64.4719 65.0927 64.0853 65.7806 63.3971C66.4685 62.709 66.8552 61.775 66.8552 60.802V46.1218H70.5246C71.4977 46.1218 72.4315 45.7351 73.1194 45.047C73.8073 44.3588 74.194 43.4249 74.194 42.4518V8.19805C74.194 7.22484 73.8074 6.29089 73.1194 5.60287C72.4314 4.91486 71.4976 4.52808 70.5246 4.52808ZM10.5911 11.8682H71.7478V17.9849H10.5911V11.8682ZM11.8142 6.97477H70.5246C70.849 6.97477 71.1602 7.10366 71.3896 7.33304C71.6189 7.56242 71.7478 7.87372 71.7478 8.19812V9.42147H10.5911V8.19812C10.5911 7.52255 11.1388 6.97477 11.8142 6.97477ZM64.409 60.8021C64.409 61.1265 64.2801 61.4378 64.0508 61.6672C63.8214 61.8965 63.5102 62.0254 63.1858 62.0254H4.47541C3.79996 62.0254 3.25228 61.4777 3.25228 60.8021V26.5483C3.25228 25.8728 3.79996 25.325 4.47541 25.325H63.1858C63.5102 25.325 63.8214 25.4539 64.0508 25.6833C64.2801 25.9126 64.409 26.2239 64.409 26.5483V60.8021ZM70.5246 43.6752H66.8552V26.5483C66.8552 25.5751 66.4687 24.6412 65.7806 23.9532C65.0926 23.2652 64.1588 22.8784 63.1859 22.8784H10.5912V20.4317H71.7478V42.4519C71.7478 42.7763 71.619 43.0876 71.3896 43.317C71.1603 43.5464 70.8491 43.6753 70.5247 43.6753L70.5246 43.6752Z" fill="#4F4F4F"/>
<path d="M14.2605 44.8988C15.5317 44.8961 16.7853 44.6078 17.9299 44.0545C19.0733 44.6105 20.3281 44.8994 21.5993 44.8988C24.6582 44.8988 27.4846 43.2664 29.014 40.6171C30.5434 37.9678 30.5434 34.703 29.014 32.0537C27.4846 29.4044 24.6582 27.772 21.5993 27.772C20.3281 27.7714 19.0733 28.0603 17.9299 28.6163C16.7854 28.0631 15.5317 27.7747 14.2605 27.772C11.2015 27.772 8.37519 29.4044 6.84579 32.0537C5.31638 34.703 5.31638 37.9678 6.84579 40.6171C8.37519 43.2664 11.2015 44.8988 14.2605 44.8988ZM27.715 36.3354C27.715 37.9575 27.0706 39.5133 25.924 40.6609C24.7768 41.8078 23.2211 42.4522 21.5993 42.4522C21.1881 42.4505 20.778 42.4052 20.3762 42.3178C21.9379 40.7182 22.8115 38.5707 22.8115 36.3354C22.8115 34.1001 21.9379 31.9526 20.3762 30.353C20.778 30.2657 21.1881 30.2203 21.5993 30.2187C23.2211 30.2187 24.7766 30.8631 25.924 32.0099C27.0707 33.1574 27.715 34.7133 27.715 36.3354V36.3354ZM14.2605 30.2187C15.8823 30.2187 17.4378 30.8631 18.5852 32.0099C19.7319 33.1574 20.3762 34.7133 20.3762 36.3354C20.3762 37.9575 19.7318 39.5133 18.5852 40.6609C17.438 41.8078 15.8823 42.4522 14.2605 42.4522C12.6387 42.4522 11.0831 41.8077 9.93577 40.6609C8.78909 39.5135 8.14482 37.9575 8.14482 36.3354C8.14482 34.7133 8.78916 33.1575 9.93577 32.0099C11.083 30.863 12.6387 30.2187 14.2605 30.2187Z" fill="#4F4F4F"/>
<path d="M17.9296 47.3455H9.36767C8.69222 47.3455 8.14453 47.8932 8.14453 48.5688C8.14453 49.2444 8.69222 49.7922 9.36767 49.7922H17.9296C18.6051 49.7922 19.1527 49.2444 19.1527 48.5688C19.1527 47.8932 18.6051 47.3455 17.9296 47.3455Z" fill="#4F4F4F"/>
<path d="M31.3842 47.3455H22.8223C22.1468 47.3455 21.5991 47.8932 21.5991 48.5688C21.5991 49.2444 22.1468 49.7922 22.8223 49.7922H31.3842C32.0596 49.7922 32.6073 49.2444 32.6073 48.5688C32.6073 47.8932 32.0596 47.3455 31.3842 47.3455Z" fill="#4F4F4F"/>
<path d="M44.8388 47.3455H36.2768C35.6014 47.3455 35.0537 47.8932 35.0537 48.5688C35.0537 49.2444 35.6014 49.7922 36.2768 49.7922H44.8388C45.5142 49.7922 46.0619 49.2444 46.0619 48.5688C46.0619 47.8932 45.5142 47.3455 44.8388 47.3455Z" fill="#4F4F4F"/>
<path d="M58.2934 47.3455H49.7314C49.056 47.3455 48.5083 47.8932 48.5083 48.5688C48.5083 49.2444 49.056 49.7922 49.7314 49.7922H58.2934C58.9688 49.7922 59.5165 49.2444 59.5165 48.5688C59.5165 47.8932 58.9688 47.3455 58.2934 47.3455Z" fill="#4F4F4F"/>
<path d="M44.8388 52.2388H39.9463C39.2708 52.2388 38.7231 52.7865 38.7231 53.4621C38.7231 54.1377 39.2708 54.6855 39.9463 54.6855H44.8388C45.5143 54.6855 46.0619 54.1377 46.0619 53.4621C46.0619 52.7865 45.5143 52.2388 44.8388 52.2388Z" fill="#4F4F4F"/>
<path d="M58.2934 52.2388H53.4009C52.7254 52.2388 52.1777 52.7865 52.1777 53.4621C52.1777 54.1377 52.7254 54.6855 53.4009 54.6855H58.2934C58.9689 54.6855 59.5165 54.1377 59.5165 53.4621C59.5165 52.7865 58.9689 52.2388 58.2934 52.2388Z" fill="#4F4F4F"/>
</svg>
