<svg width="69" height="59" viewBox="0 0 69 59" fill="none" xmlns="http://www.w3.org/2000/svg">
<path d="M48.6141 6.02856e-05C52.4536 6.02856e-05 55.6488 2.73254 56.3236 6.34115C59.5019 6.92328 62.0075 9.40454 62.5965 12.5512C66.2402 13.2195 69 16.3825 69 20.1843V51.2369C69 55.5241 65.4898 59 61.1591 59H7.84091C3.51021 59 0 55.5241 0 51.2369V20.1843C0 16.3823 2.75986 13.2194 6.40406 12.5512C6.99257 9.40454 9.49814 6.92325 12.6769 6.3406C13.3382 2.80186 16.4252 0.10514 20.1667 0.00324908L20.386 0L48.6141 6.02856e-05ZM61.1592 15.5263H7.84105C5.30158 15.5263 3.23255 17.518 3.13958 20.0095L3.1363 20.1844V51.237C3.1363 53.7507 5.14792 55.7997 7.66443 55.8912L7.84109 55.8945H61.1593C63.6987 55.8945 65.7678 53.9028 65.8607 51.4113L65.864 51.2369V20.1844C65.864 17.6701 63.8524 15.6216 61.3359 15.5296L61.1592 15.5263ZM17.2501 45.0262C18.1159 45.0262 18.8182 45.7215 18.8182 46.5787C18.8182 47.4365 18.1159 48.1312 17.2501 48.1312H9.40923C8.54288 48.1312 7.84119 47.4364 7.84119 46.5787C7.84119 45.7215 8.54291 45.0262 9.40923 45.0262H17.2501ZM45.4774 45.0262C46.3438 45.0262 47.046 45.7215 47.046 46.5787C47.046 47.4365 46.3438 48.1312 45.4774 48.1312H37.6365C36.7707 48.1312 36.0685 47.4364 36.0685 46.5787C36.0685 45.7215 36.7707 45.0262 37.6365 45.0262H45.4774ZM31.3638 45.0262C32.2296 45.0262 32.9318 45.7215 32.9318 46.5787C32.9318 47.4365 32.2296 48.1312 31.3638 48.1312H23.5229C22.6565 48.1312 21.9543 47.4364 21.9543 46.5787C21.9543 45.7215 22.6565 45.0262 23.5229 45.0262H31.3638ZM59.5911 45.0262C60.4574 45.0262 61.1591 45.7215 61.1591 46.5787C61.1591 47.4365 60.4574 48.1312 59.5911 48.1312H51.7501C50.8843 48.1312 50.1821 47.4364 50.1821 46.5787C50.1821 45.7215 50.8844 45.0262 51.7501 45.0262H59.5911ZM18.8183 23.2895C21.4169 23.2895 23.5231 25.3748 23.5231 27.9476V34.1583C23.5231 36.7305 21.4169 38.8159 18.8183 38.8159H12.5455C9.94745 38.8159 7.84119 36.7305 7.84119 34.1583V27.9476C7.84119 25.3748 9.94745 23.2895 12.5455 23.2895H18.8183ZM20.3864 32.6051H10.9774V34.1581C10.9774 34.9763 11.6173 35.6467 12.4284 35.7063L12.5454 35.7106H18.8183C19.6453 35.7106 20.3224 35.0771 20.382 34.274L20.3864 34.1582L20.3864 32.6051ZM18.8183 26.395H12.5455C11.719 26.395 11.0414 27.028 10.9818 27.8316L10.9774 27.9475V29.5H20.3863V27.9475C20.3863 27.1287 19.747 26.4583 18.9353 26.3987L18.8183 26.395ZM59.5911 23.2895C60.4574 23.2895 61.1591 23.9848 61.1591 24.8419C61.1591 25.6997 60.4574 26.395 59.5911 26.395H51.7501C50.8843 26.395 50.1821 25.6997 50.1821 24.8419C50.1821 23.9847 50.8844 23.2895 51.7501 23.2895H59.5911ZM54.8868 9.31582H14.1141C12.0658 9.31582 10.3233 10.6122 9.67722 12.4213H59.3242C58.6968 10.6641 57.0352 9.39109 55.0635 9.31901L54.8868 9.31582ZM48.6139 3.10573H20.3866C18.3383 3.10573 16.5958 4.40158 15.9498 6.2107H53.0513C52.424 4.45402 50.7623 3.18045 48.7906 3.10892L48.6139 3.10573Z" fill="#4F4F4F"/>
</svg>
