<svg width="24" height="24" viewBox="0 0 24 24" fill="none" xmlns="http://www.w3.org/2000/svg">
<path d="M16.5 3H7.5C7.10218 3 6.72064 3.15804 6.43934 3.43934C6.15804 3.72064 6 4.10218 6 4.5V7.5H4.5V4.5C4.5 3.70435 4.81607 2.94129 5.37868 2.37868C5.94129 1.81607 6.70435 1.5 7.5 1.5H16.5C17.2956 1.5 18.0587 1.81607 18.6213 2.37868C19.1839 2.94129 19.5 3.70435 19.5 4.5V7.5H18V4.5C18 4.10218 17.842 3.72064 17.5607 3.43934C17.2794 3.15804 16.8978 3 16.5 3ZM21 9H3C2.60218 9 2.22064 9.15804 1.93934 9.43934C1.65804 9.72064 1.5 10.1022 1.5 10.5V15C1.5 15.3978 1.65804 15.7794 1.93934 16.0607C2.22064 16.342 2.60218 16.5 3 16.5H4.5V18H3C2.20435 18 1.44129 17.6839 0.87868 17.1213C0.316071 16.5587 0 15.7956 0 15V10.5C0 9.70435 0.316071 8.94129 0.87868 8.37868C1.44129 7.81607 2.20435 7.5 3 7.5H21C21.7956 7.5 22.5587 7.81607 23.1213 8.37868C23.6839 8.94129 24 9.70435 24 10.5V15C24 15.7956 23.6839 16.5587 23.1213 17.1213C22.5587 17.6839 21.7956 18 21 18H19.5V16.5H21C21.3978 16.5 21.7794 16.342 22.0607 16.0607C22.342 15.7794 22.5 15.3978 22.5 15V10.5C22.5 10.1022 22.342 9.72064 22.0607 9.43934C21.7794 9.15804 21.3978 9 21 9Z" fill="black"/>
<path fill-rule="evenodd" clip-rule="evenodd" d="M16.5 13.5H7.5C7.10218 13.5 6.72064 13.658 6.43934 13.9393C6.15804 14.2206 6 14.6022 6 15V19.5C6 19.8978 6.15804 20.2794 6.43934 20.5607C6.72064 20.842 7.10218 21 7.5 21H16.5C16.8978 21 17.2794 20.842 17.5607 20.5607C17.842 20.2794 18 19.8978 18 19.5V15C18 14.6022 17.842 14.2206 17.5607 13.9393C17.2794 13.658 16.8978 13.5 16.5 13.5ZM7.5 12C6.70435 12 5.94129 12.3161 5.37868 12.8787C4.81607 13.4413 4.5 14.2044 4.5 15V19.5C4.5 20.2956 4.81607 21.0587 5.37868 21.6213C5.94129 22.1839 6.70435 22.5 7.5 22.5H16.5C17.2956 22.5 18.0587 22.1839 18.6213 21.6213C19.1839 21.0587 19.5 20.2956 19.5 19.5V15C19.5 14.2044 19.1839 13.4413 18.6213 12.8787C18.0587 12.3161 17.2956 12 16.5 12H7.5Z" fill="black"/>
<path d="M4.5 11.25C4.5 11.4489 4.42098 11.6397 4.28033 11.7803C4.13968 11.921 3.94891 12 3.75 12C3.55109 12 3.36032 11.921 3.21967 11.7803C3.07902 11.6397 3 11.4489 3 11.25C3 11.0511 3.07902 10.8603 3.21967 10.7197C3.36032 10.579 3.55109 10.5 3.75 10.5C3.94891 10.5 4.13968 10.579 4.28033 10.7197C4.42098 10.8603 4.5 11.0511 4.5 11.25Z" fill="black"/>
</svg>
