<svg width="24" height="24" viewBox="0 0 24 24" fill="none" xmlns="http://www.w3.org/2000/svg">
<g clip-path="url(#clip0_1315_2298)">
<path fill-rule="evenodd" clip-rule="evenodd" d="M13.5969 0.6525C12.7269 -0.2175 11.3169 -0.2175 10.4469 0.6525L0.675938 10.425C-0.194062 11.295 -0.194062 12.7035 0.675938 13.572L10.4499 23.346C11.3199 24.216 12.7284 24.216 13.5969 23.346L23.3709 13.572C24.2409 12.702 24.2409 11.2935 23.3709 10.425L13.5969 0.6525ZM8.26444 9.0495C8.21609 9.05016 8.16811 9.04094 8.12344 9.02242C8.07877 9.00389 8.03835 8.97645 8.00466 8.94177C7.97096 8.90709 7.94469 8.8659 7.92746 8.82072C7.91023 8.77554 7.90239 8.72731 7.90444 8.679C8.04694 6.1365 10.1274 5.25 12.0294 5.25C14.1234 5.25 16.0374 6.345 16.0374 8.61C16.0374 10.23 15.0849 11.001 14.1714 11.6955C13.0659 12.534 12.6564 12.8475 12.6564 13.9245V14.082C12.6564 14.1815 12.6169 14.2768 12.5466 14.3472C12.4763 14.4175 12.3809 14.457 12.2814 14.457H11.0664C10.968 14.457 10.8735 14.4183 10.8034 14.3493C10.7332 14.2803 10.693 14.1864 10.6914 14.088L10.6854 13.7625C10.6284 12.372 11.4279 11.5155 12.4374 10.782C13.3224 10.116 13.8849 9.678 13.8849 8.7255C13.8849 7.488 12.9429 6.9735 11.9139 6.9735C10.7094 6.9735 10.0344 7.6905 9.90094 8.6745C9.87394 8.88 9.70894 9.0495 9.50194 9.0495H8.26444ZM11.7519 18.714C10.8759 18.714 10.2384 18.123 10.2384 17.3235C10.2384 16.4955 10.8759 15.9135 11.7534 15.9135C12.6669 15.9135 13.2954 16.4955 13.2954 17.3235C13.2954 18.123 12.6654 18.714 11.7519 18.714Z" fill="black"/>
</g>
<defs>
<clipPath id="clip0_1315_2298">
<rect width="24" height="24" fill="white"/>
</clipPath>
</defs>
</svg>
