<svg width="24" height="24" viewBox="0 0 24 24" fill="none" xmlns="http://www.w3.org/2000/svg">
<path fill-rule="evenodd" clip-rule="evenodd" d="M2.88 0.758876C2.99739 0.739754 3.11764 0.748824 3.23083 0.785337C3.34403 0.821851 3.44691 0.884761 3.531 0.968876L4.5 1.93938L5.469 0.968876C5.53867 0.899031 5.62143 0.843617 5.71255 0.805807C5.80367 0.767997 5.90135 0.748535 6 0.748535C6.09865 0.748535 6.19633 0.767997 6.28745 0.805807C6.37857 0.843617 6.46133 0.899031 6.531 0.968876L7.5 1.93938L8.469 0.968876C8.53867 0.899031 8.62143 0.843617 8.71255 0.805807C8.80367 0.767997 8.90135 0.748535 9 0.748535C9.09865 0.748535 9.19633 0.767997 9.28745 0.805807C9.37857 0.843617 9.46133 0.899031 9.531 0.968876L10.5 1.93938L11.469 0.968876C11.5387 0.899031 11.6214 0.843617 11.7125 0.805807C11.8037 0.767997 11.9013 0.748535 12 0.748535C12.0987 0.748535 12.1963 0.767997 12.2874 0.805807C12.3786 0.843617 12.4613 0.899031 12.531 0.968876L13.5 1.93938L14.469 0.968876C14.5387 0.899031 14.6214 0.843617 14.7126 0.805807C14.8037 0.767997 14.9013 0.748535 15 0.748535C15.0987 0.748535 15.1963 0.767997 15.2874 0.805807C15.3786 0.843617 15.4613 0.899031 15.531 0.968876L16.5 1.93938L17.469 0.968876C17.5387 0.899031 17.6214 0.843617 17.7126 0.805807C17.8037 0.767997 17.9013 0.748535 18 0.748535C18.0987 0.748535 18.1963 0.767997 18.2874 0.805807C18.3786 0.843617 18.4613 0.899031 18.531 0.968876L19.5 1.93938L20.469 0.968876C20.553 0.884775 20.6559 0.821857 20.769 0.785311C20.8821 0.748766 21.0023 0.73964 21.1197 0.758686C21.237 0.777733 21.3482 0.824406 21.444 0.894856C21.5397 0.965306 21.6174 1.05751 21.6705 1.16388L22.4205 2.66388C22.4728 2.76817 22.5 2.88322 22.5 2.99988V22.4999H21V3.17688L20.7945 2.76588L20.0295 3.53088C19.8889 3.67148 19.6981 3.75047 19.4993 3.75047C19.3004 3.75047 19.1096 3.67148 18.969 3.53088L18 2.56038L17.031 3.53088C16.9613 3.60072 16.8786 3.65614 16.7874 3.69394C16.6963 3.73175 16.5987 3.75122 16.5 3.75122C16.4013 3.75122 16.3037 3.73175 16.2126 3.69394C16.1214 3.65614 16.0387 3.60072 15.969 3.53088L15 2.56038L14.031 3.53088C13.9613 3.60072 13.8786 3.65614 13.7874 3.69394C13.6963 3.73175 13.5987 3.75122 13.5 3.75122C13.4013 3.75122 13.3037 3.73175 13.2126 3.69394C13.1214 3.65614 13.0387 3.60072 12.969 3.53088L12 2.56038L11.031 3.53088C10.9613 3.60072 10.8786 3.65614 10.7875 3.69394C10.6963 3.73175 10.5987 3.75122 10.5 3.75122C10.4013 3.75122 10.3037 3.73175 10.2125 3.69394C10.1214 3.65614 10.0387 3.60072 9.969 3.53088L9 2.56038L8.031 3.53088C7.96133 3.60072 7.87857 3.65614 7.78745 3.69394C7.69633 3.73175 7.59865 3.75122 7.5 3.75122C7.40135 3.75122 7.30367 3.73175 7.21255 3.69394C7.12143 3.65614 7.03867 3.60072 6.969 3.53088L6 2.56038L5.031 3.53088C4.96133 3.60072 4.87857 3.65614 4.78745 3.69394C4.69633 3.73175 4.59865 3.75122 4.5 3.75122C4.40135 3.75122 4.30367 3.73175 4.21255 3.69394C4.12143 3.65614 4.03867 3.60072 3.969 3.53088L3.2055 2.76588L3 3.17688V22.4999H1.5V2.99988C1.50001 2.88322 1.52723 2.76817 1.5795 2.66388L2.3295 1.16388C2.38262 1.05759 2.46023 0.965441 2.55594 0.895028C2.65165 0.824614 2.76272 0.777949 2.88 0.758876ZM0 23.2499C0 23.051 0.0790176 22.8602 0.21967 22.7195C0.360322 22.5789 0.551088 22.4999 0.75 22.4999H23.25C23.4489 22.4999 23.6397 22.5789 23.7803 22.7195C23.921 22.8602 24 23.051 24 23.2499C24 23.4488 23.921 23.6396 23.7803 23.7802C23.6397 23.9209 23.4489 23.9999 23.25 23.9999H0.75C0.551088 23.9999 0.360322 23.9209 0.21967 23.7802C0.0790176 23.6396 0 23.4488 0 23.2499Z" fill="black"/>
<path fill-rule="evenodd" clip-rule="evenodd" d="M4.5 6.75C4.5 6.55109 4.57902 6.36032 4.71967 6.21967C4.86032 6.07902 5.05109 6 5.25 6H14.25C14.4489 6 14.6397 6.07902 14.7803 6.21967C14.921 6.36032 15 6.55109 15 6.75C15 6.94891 14.921 7.13968 14.7803 7.28033C14.6397 7.42098 14.4489 7.5 14.25 7.5H5.25C5.05109 7.5 4.86032 7.42098 4.71967 7.28033C4.57902 7.13968 4.5 6.94891 4.5 6.75ZM4.5 9.75C4.5 9.55109 4.57902 9.36032 4.71967 9.21967C4.86032 9.07902 5.05109 9 5.25 9H14.25C14.4489 9 14.6397 9.07902 14.7803 9.21967C14.921 9.36032 15 9.55109 15 9.75C15 9.94891 14.921 10.1397 14.7803 10.2803C14.6397 10.421 14.4489 10.5 14.25 10.5H5.25C5.05109 10.5 4.86032 10.421 4.71967 10.2803C4.57902 10.1397 4.5 9.94891 4.5 9.75ZM4.5 12.75C4.5 12.5511 4.57902 12.3603 4.71967 12.2197C4.86032 12.079 5.05109 12 5.25 12H14.25C14.4489 12 14.6397 12.079 14.7803 12.2197C14.921 12.3603 15 12.5511 15 12.75C15 12.9489 14.921 13.1397 14.7803 13.2803C14.6397 13.421 14.4489 13.5 14.25 13.5H5.25C5.05109 13.5 4.86032 13.421 4.71967 13.2803C4.57902 13.1397 4.5 12.9489 4.5 12.75ZM4.5 15.75C4.5 15.5511 4.57902 15.3603 4.71967 15.2197C4.86032 15.079 5.05109 15 5.25 15H14.25C14.4489 15 14.6397 15.079 14.7803 15.2197C14.921 15.3603 15 15.5511 15 15.75C15 15.9489 14.921 16.1397 14.7803 16.2803C14.6397 16.421 14.4489 16.5 14.25 16.5H5.25C5.05109 16.5 4.86032 16.421 4.71967 16.2803C4.57902 16.1397 4.5 15.9489 4.5 15.75ZM4.5 18.75C4.5 18.5511 4.57902 18.3603 4.71967 18.2197C4.86032 18.079 5.05109 18 5.25 18H14.25C14.4489 18 14.6397 18.079 14.7803 18.2197C14.921 18.3603 15 18.5511 15 18.75C15 18.9489 14.921 19.1397 14.7803 19.2803C14.6397 19.421 14.4489 19.5 14.25 19.5H5.25C5.05109 19.5 4.86032 19.421 4.71967 19.2803C4.57902 19.1397 4.5 18.9489 4.5 18.75ZM16.5 6.75C16.5 6.55109 16.579 6.36032 16.7197 6.21967C16.8603 6.07902 17.0511 6 17.25 6H18.75C18.9489 6 19.1397 6.07902 19.2803 6.21967C19.421 6.36032 19.5 6.55109 19.5 6.75C19.5 6.94891 19.421 7.13968 19.2803 7.28033C19.1397 7.42098 18.9489 7.5 18.75 7.5H17.25C17.0511 7.5 16.8603 7.42098 16.7197 7.28033C16.579 7.13968 16.5 6.94891 16.5 6.75ZM16.5 9.75C16.5 9.55109 16.579 9.36032 16.7197 9.21967C16.8603 9.07902 17.0511 9 17.25 9H18.75C18.9489 9 19.1397 9.07902 19.2803 9.21967C19.421 9.36032 19.5 9.55109 19.5 9.75C19.5 9.94891 19.421 10.1397 19.2803 10.2803C19.1397 10.421 18.9489 10.5 18.75 10.5H17.25C17.0511 10.5 16.8603 10.421 16.7197 10.2803C16.579 10.1397 16.5 9.94891 16.5 9.75ZM16.5 12.75C16.5 12.5511 16.579 12.3603 16.7197 12.2197C16.8603 12.079 17.0511 12 17.25 12H18.75C18.9489 12 19.1397 12.079 19.2803 12.2197C19.421 12.3603 19.5 12.5511 19.5 12.75C19.5 12.9489 19.421 13.1397 19.2803 13.2803C19.1397 13.421 18.9489 13.5 18.75 13.5H17.25C17.0511 13.5 16.8603 13.421 16.7197 13.2803C16.579 13.1397 16.5 12.9489 16.5 12.75ZM16.5 15.75C16.5 15.5511 16.579 15.3603 16.7197 15.2197C16.8603 15.079 17.0511 15 17.25 15H18.75C18.9489 15 19.1397 15.079 19.2803 15.2197C19.421 15.3603 19.5 15.5511 19.5 15.75C19.5 15.9489 19.421 16.1397 19.2803 16.2803C19.1397 16.421 18.9489 16.5 18.75 16.5H17.25C17.0511 16.5 16.8603 16.421 16.7197 16.2803C16.579 16.1397 16.5 15.9489 16.5 15.75ZM16.5 18.75C16.5 18.5511 16.579 18.3603 16.7197 18.2197C16.8603 18.079 17.0511 18 17.25 18H18.75C18.9489 18 19.1397 18.079 19.2803 18.2197C19.421 18.3603 19.5 18.5511 19.5 18.75C19.5 18.9489 19.421 19.1397 19.2803 19.2803C19.1397 19.421 18.9489 19.5 18.75 19.5H17.25C17.0511 19.5 16.8603 19.421 16.7197 19.2803C16.579 19.1397 16.5 18.9489 16.5 18.75Z" fill="black"/>
</svg>
