<svg width="24" height="24" viewBox="0 0 24 24" fill="none" xmlns="http://www.w3.org/2000/svg">
<g clip-path="url(#clip0_1315_2333)">
<path d="M12.1185 17.8497L18.9705 12.9282C19.1319 12.8329 19.2656 12.6971 19.3585 12.5343C19.4515 12.3714 19.5003 12.1872 19.5003 11.9997C19.5003 11.8123 19.4515 11.628 19.3585 11.4652C19.2656 11.3024 19.1319 11.1666 18.9705 11.0712L12.1185 6.14974C11.9552 6.05367 11.7693 6.00252 11.5798 6.0015C11.3903 6.00047 11.2039 6.0496 11.0396 6.14389C10.8752 6.23819 10.7387 6.37429 10.6439 6.53839C10.5492 6.70249 10.4995 6.88875 10.5 7.07824V8.99974C8.25 8.99974 1.5 8.99974 0 20.9997C3.75 14.2497 10.5 14.9997 10.5 14.9997V16.9212C10.5 17.7612 11.409 18.2682 12.1185 17.8512V17.8497Z" fill="black"/>
<path fill-rule="evenodd" clip-rule="evenodd" d="M16.3004 6.43981C16.3588 6.36033 16.4323 6.29315 16.5168 6.24213C16.6012 6.19111 16.6949 6.15724 16.7924 6.14247C16.8899 6.1277 16.9894 6.13232 17.0852 6.15606C17.1809 6.1798 17.271 6.22219 17.3504 6.28081L23.3399 10.6908C23.5876 10.8454 23.7918 11.0605 23.9334 11.3158C24.075 11.5712 24.1493 11.8583 24.1493 12.1503C24.1493 12.4423 24.075 12.7295 23.9334 12.9848C23.7918 13.2401 23.5876 13.4552 23.3399 13.6098L17.3489 18.0198C17.1885 18.1335 16.99 18.1797 16.7959 18.1485C16.6018 18.1173 16.4278 18.0111 16.3112 17.8529C16.1946 17.6946 16.1448 17.4969 16.1725 17.3023C16.2002 17.1077 16.3032 16.9317 16.4594 16.8123L22.4774 12.3813C22.4976 12.3662 22.5187 12.3522 22.5404 12.3393C22.573 12.3197 22.6 12.292 22.6187 12.2589C22.6375 12.2258 22.6473 12.1884 22.6473 12.1503C22.6473 12.1123 22.6375 12.0749 22.6187 12.0417C22.6 12.0086 22.573 11.9809 22.5404 11.9613C22.5187 11.9484 22.4977 11.9344 22.4774 11.9193L16.4594 7.48831C16.2993 7.37034 16.1926 7.19361 16.1628 6.99699C16.133 6.80036 16.1825 6.59995 16.3004 6.43981Z" fill="black"/>
</g>
<defs>
<clipPath id="clip0_1315_2333">
<rect width="24" height="24" fill="white"/>
</clipPath>
</defs>
</svg>
