<svg width="24" height="24" viewBox="0 0 24 24" fill="none" xmlns="http://www.w3.org/2000/svg">
<path fill-rule="evenodd" clip-rule="evenodd" d="M14.2527 7.51944C14.2196 7.50485 14.1833 7.49883 14.1473 7.50192C14.1112 7.50501 14.0765 7.51712 14.0463 7.53714C14.0161 7.55715 13.9915 7.58442 13.9746 7.61645C13.9577 7.64848 13.9492 7.68424 13.9497 7.72044V9.44994C13.9497 9.64885 13.8707 9.83962 13.7301 9.98027C13.5894 10.1209 13.3987 10.1999 13.1997 10.1999C12.1992 10.1999 10.1802 10.2074 8.24974 11.4329C6.77374 12.3689 5.26474 14.0729 4.35724 17.2469C5.88724 15.7724 7.63474 14.9729 9.16474 14.5499C10.1052 14.2902 11.0717 14.1363 12.0462 14.0909C12.4452 14.0734 12.8447 14.0774 13.2432 14.1029H13.2627L13.2702 14.1044H13.2717L13.1997 14.8499L13.2747 14.1029C13.4599 14.1215 13.6315 14.2083 13.7562 14.3463C13.8809 14.4844 13.9499 14.6639 13.9497 14.8499V16.5794C13.9497 16.7414 14.1147 16.8434 14.2527 16.7804L20.2287 12.3809C20.249 12.3659 20.27 12.3519 20.2917 12.3389C20.3244 12.3193 20.3513 12.2916 20.3701 12.2585C20.3888 12.2254 20.3987 12.188 20.3987 12.1499C20.3987 12.1119 20.3888 12.0745 20.3701 12.0414C20.3513 12.0082 20.3244 11.9805 20.2917 11.9609C20.27 11.948 20.249 11.934 20.2287 11.9189L14.2527 7.51944ZM12.4497 15.5789C11.4746 15.5958 10.5055 15.7354 9.56524 15.9944C7.57624 16.5464 5.22124 17.7959 3.65524 20.6144C3.57055 20.7665 3.43561 20.8844 3.27355 20.9479C3.11149 21.0113 2.9324 21.0165 2.76696 20.9624C2.60152 20.9083 2.46005 20.7984 2.36678 20.6514C2.27351 20.5045 2.23425 20.3297 2.25574 20.1569C2.95174 14.5919 5.08474 11.6639 7.44574 10.1669C9.31324 8.98194 11.2362 8.75394 12.4497 8.71044V7.72044C12.4496 7.41154 12.5328 7.10833 12.6907 6.84281C12.8485 6.57729 13.0751 6.35929 13.3465 6.21183C13.618 6.06436 13.9242 5.9929 14.2328 6.00497C14.5415 6.01705 14.8412 6.11222 15.1002 6.28044L21.0912 10.6904C21.3389 10.845 21.5432 11.0601 21.6848 11.3155C21.8264 11.5708 21.9007 11.858 21.9007 12.1499C21.9007 12.4419 21.8264 12.7291 21.6848 12.9844C21.5432 13.2397 21.3389 13.4548 21.0912 13.6094L15.1002 18.0194C14.8412 18.1877 14.5415 18.2828 14.2328 18.2949C13.9242 18.307 13.618 18.2355 13.3465 18.0881C13.0751 17.9406 12.8485 17.7226 12.6907 17.4571C12.5328 17.1915 12.4496 16.8883 12.4497 16.5794V15.5789Z" fill="black"/>
</svg>
