<svg width="24" height="24" viewBox="0 0 24 24" fill="none" xmlns="http://www.w3.org/2000/svg">
<g clip-path="url(#clip0_1315_2336)">
<path fill-rule="evenodd" clip-rule="evenodd" d="M12.0027 7.51944C11.9696 7.50485 11.9333 7.49883 11.8973 7.50192C11.8612 7.50501 11.8265 7.51712 11.7963 7.53714C11.7661 7.55715 11.7415 7.58442 11.7246 7.61645C11.7077 7.64848 11.6992 7.68424 11.6997 7.72044V9.44994C11.6997 9.64885 11.6207 9.83962 11.4801 9.98027C11.3394 10.1209 11.1487 10.1999 10.9497 10.1999C9.94924 10.1999 7.93024 10.2074 5.99974 11.4329C4.52374 12.3689 3.01474 14.0729 2.10724 17.2469C3.63724 15.7724 5.38474 14.9729 6.91474 14.5499C7.85517 14.2902 8.82165 14.1363 9.79624 14.0909C10.1952 14.0734 10.5947 14.0774 10.9932 14.1029H11.0127L11.0202 14.1044H11.0217L10.9497 14.8499L11.0247 14.1029C11.2099 14.1215 11.3815 14.2083 11.5062 14.3463C11.6309 14.4844 11.6999 14.6639 11.6997 14.8499V16.5794C11.6997 16.7414 11.8647 16.8434 12.0027 16.7804L17.9787 12.3809C17.999 12.3659 18.02 12.3519 18.0417 12.3389C18.0744 12.3193 18.1013 12.2916 18.1201 12.2585C18.1388 12.2254 18.1487 12.188 18.1487 12.1499C18.1487 12.1119 18.1388 12.0745 18.1201 12.0414C18.1013 12.0082 18.0744 11.9805 18.0417 11.9609C18.02 11.948 17.999 11.934 17.9787 11.9189L12.0027 7.51944ZM10.1997 15.5789C9.22461 15.5958 8.25549 15.7354 7.31524 15.9944C5.32624 16.5464 2.97124 17.7959 1.40524 20.6144C1.32055 20.7665 1.18561 20.8844 1.02355 20.9479C0.861492 21.0113 0.682397 21.0165 0.516961 20.9624C0.351524 20.9083 0.210048 20.7984 0.116778 20.6514C0.0235085 20.5045 -0.0157477 20.3297 0.00573754 20.1569C0.701738 14.5919 2.83474 11.6639 5.19574 10.1669C7.06324 8.98194 8.98624 8.75394 10.1997 8.71044V7.72044C10.1996 7.41154 10.2828 7.10833 10.4407 6.84281C10.5985 6.57729 10.8251 6.35929 11.0965 6.21183C11.368 6.06436 11.6742 5.9929 11.9828 6.00497C12.2915 6.01705 12.5912 6.11222 12.8502 6.28044L18.8412 10.6904C19.0889 10.845 19.2932 11.0601 19.4348 11.3155C19.5764 11.5708 19.6507 11.858 19.6507 12.1499C19.6507 12.4419 19.5764 12.7291 19.4348 12.9844C19.2932 13.2397 19.0889 13.4548 18.8412 13.6094L12.8502 18.0194C12.5912 18.1877 12.2915 18.2828 11.9828 18.2949C11.6742 18.307 11.368 18.2355 11.0965 18.0881C10.8251 17.9406 10.5985 17.7226 10.4407 17.4571C10.2828 17.1915 10.1996 16.8883 10.1997 16.5794V15.5789Z" fill="black"/>
<path fill-rule="evenodd" clip-rule="evenodd" d="M16.3004 6.43981C16.3588 6.36033 16.4323 6.29315 16.5168 6.24213C16.6012 6.19111 16.6949 6.15724 16.7924 6.14247C16.8899 6.1277 16.9894 6.13232 17.0852 6.15606C17.1809 6.1798 17.271 6.22219 17.3504 6.28081L23.3399 10.6908C23.5876 10.8454 23.7918 11.0605 23.9334 11.3158C24.075 11.5712 24.1493 11.8583 24.1493 12.1503C24.1493 12.4423 24.075 12.7295 23.9334 12.9848C23.7918 13.2401 23.5876 13.4552 23.3399 13.6098L17.3489 18.0198C17.1885 18.1335 16.99 18.1797 16.7959 18.1485C16.6018 18.1173 16.4278 18.0111 16.3112 17.8529C16.1946 17.6946 16.1448 17.4969 16.1725 17.3023C16.2002 17.1077 16.3032 16.9317 16.4594 16.8123L22.4774 12.3813C22.4976 12.3662 22.5187 12.3522 22.5404 12.3393C22.573 12.3197 22.6 12.292 22.6187 12.2589C22.6375 12.2258 22.6473 12.1884 22.6473 12.1503C22.6473 12.1123 22.6375 12.0749 22.6187 12.0417C22.6 12.0086 22.573 11.9809 22.5404 11.9613C22.5187 11.9484 22.4977 11.9344 22.4774 11.9193L16.4594 7.48831C16.2993 7.37034 16.1926 7.19361 16.1628 6.99699C16.133 6.80036 16.1825 6.59995 16.3004 6.43981Z" fill="black"/>
</g>
<defs>
<clipPath id="clip0_1315_2336">
<rect width="24" height="24" fill="white"/>
</clipPath>
</defs>
</svg>
