<svg width="24" height="24" viewBox="0 0 24 24" fill="none" xmlns="http://www.w3.org/2000/svg">
<g clip-path="url(#clip0_1315_2356)">
<path fill-rule="evenodd" clip-rule="evenodd" d="M21 7.5H9V13.5H21C21.3978 13.5 21.7794 13.342 22.0607 13.0607C22.342 12.7794 22.5 12.3978 22.5 12V9C22.5 8.60218 22.342 8.22064 22.0607 7.93934C21.7794 7.65804 21.3978 7.5 21 7.5ZM3 6C2.20435 6 1.44129 6.31607 0.87868 6.87868C0.316071 7.44129 0 8.20435 0 9L0 12C0 12.7956 0.316071 13.5587 0.87868 14.1213C1.44129 14.6839 2.20435 15 3 15H21C21.7956 15 22.5587 14.6839 23.1213 14.1213C23.6839 13.5587 24 12.7956 24 12V9C24 8.20435 23.6839 7.44129 23.1213 6.87868C22.5587 6.31607 21.7956 6 21 6H3Z" fill="black"/>
<path fill-rule="evenodd" clip-rule="evenodd" d="M15 13.5V7.5H16.5V13.5H15Z" fill="black"/>
</g>
<defs>
<clipPath id="clip0_1315_2356">
<rect width="24" height="24" fill="white"/>
</clipPath>
</defs>
</svg>
