<svg width="24" height="24" viewBox="0 0 24 24" fill="none" xmlns="http://www.w3.org/2000/svg">
<path fill-rule="evenodd" clip-rule="evenodd" d="M1.99805 4.0005C1.99805 1.791 6.47555 0 11.9985 0C17.5215 0 21.999 1.791 21.999 4.0005V6C21.996 8.211 17.5185 10.0005 11.9985 10.0005C6.47555 10.0005 1.99805 8.2095 1.99805 6V4.0005ZM1.99805 9.501V14.001C1.99805 16.2075 6.47555 18 11.9985 18C17.5185 18 21.996 16.2105 21.999 14.0025V9.501C21.354 9.981 20.6025 10.371 19.812 10.686C17.7135 11.526 14.949 12 11.9985 12C9.04805 12 6.28355 11.5245 4.18355 10.686C3.40752 10.3858 2.67307 9.98753 1.99805 9.501ZM21.999 17.502C21.354 17.9805 20.6025 18.369 19.812 18.6855C17.712 19.5255 14.949 19.9995 11.9985 19.9995C9.04805 19.9995 6.28355 19.5255 4.18355 18.6855C3.40754 18.3852 2.67308 17.987 1.99805 17.5005V19.9995C1.99805 22.209 6.47555 24 11.9985 24C17.5215 24 21.999 22.209 21.999 19.9995V17.502Z" fill="black"/>
</svg>
