<svg width="24" height="24" viewBox="0 0 24 24" fill="none" xmlns="http://www.w3.org/2000/svg">
<g clip-path="url(#clip0_1315_2363)">
<path fill-rule="evenodd" clip-rule="evenodd" d="M20.2445 1.49313C19.6478 1.49313 19.0755 1.73018 18.6535 2.15214C18.2316 2.5741 17.9945 3.14639 17.9945 3.74313C17.9945 4.33987 18.2316 4.91217 18.6535 5.33412C19.0755 5.75608 19.6478 5.99313 20.2445 5.99313C20.8413 5.99313 21.4136 5.75608 21.8355 5.33412C22.2575 4.91217 22.4945 4.33987 22.4945 3.74313C22.4945 3.14639 22.2575 2.5741 21.8355 2.15214C21.4136 1.73018 20.8413 1.49313 20.2445 1.49313ZM16.4945 3.74313C16.4944 2.86328 16.8037 2.01141 17.3682 1.33655C17.9328 0.661691 18.7166 0.206827 19.5827 0.0515372C20.4487 -0.103752 21.3418 0.0504216 22.1056 0.487085C22.8695 0.923749 23.4555 1.6151 23.7611 2.44017C24.0667 3.26524 24.0724 4.1715 23.7773 5.00039C23.4822 5.82928 22.9051 6.52801 22.1468 6.97435C21.3886 7.42068 20.4976 7.58618 19.6296 7.44191C18.7617 7.29763 17.9721 6.85276 17.399 6.18513L7.32204 10.8651C7.5537 11.5993 7.5537 12.387 7.32204 13.1211L17.399 17.8011C18.0048 17.0966 18.8505 16.6421 19.7723 16.5256C20.6941 16.4091 21.6263 16.639 22.3883 17.1707C23.1503 17.7023 23.6877 18.498 23.8965 19.4033C24.1053 20.3087 23.9706 21.2593 23.5184 22.071C23.0663 22.8827 22.3289 23.4976 21.4492 23.7966C20.5695 24.0955 19.6101 24.0573 18.757 23.6892C17.9038 23.3212 17.2177 22.6495 16.8316 21.8044C16.4455 20.9593 16.3868 20.001 16.667 19.1151L6.59004 14.4351C6.09119 15.0165 5.42626 15.4311 4.68471 15.6233C3.94315 15.8154 3.16054 15.7758 2.44215 15.5098C1.72376 15.2439 1.10405 14.7643 0.666399 14.1356C0.228747 13.5068 -0.00585938 12.7592 -0.00585938 11.9931C-0.00585938 11.2271 0.228747 10.4794 0.666399 9.8507C1.10405 9.22198 1.72376 8.74238 2.44215 8.47641C3.16054 8.21044 3.94315 8.17087 4.68471 8.363C5.42626 8.55514 6.09119 8.96978 6.59004 9.55113L16.667 4.87113C16.5523 4.50613 16.4942 4.12573 16.4945 3.74313ZM3.74454 9.74313C3.1478 9.74313 2.57551 9.98018 2.15355 10.4021C1.73159 10.8241 1.49454 11.3964 1.49454 11.9931C1.49454 12.5899 1.73159 13.1622 2.15355 13.5841C2.57551 14.0061 3.1478 14.2431 3.74454 14.2431C4.34128 14.2431 4.91357 14.0061 5.33553 13.5841C5.75749 13.1622 5.99454 12.5899 5.99454 11.9931C5.99454 11.3964 5.75749 10.8241 5.33553 10.4021C4.91357 9.98018 4.34128 9.74313 3.74454 9.74313ZM20.2445 17.9931C19.6478 17.9931 19.0755 18.2302 18.6535 18.6521C18.2316 19.0741 17.9945 19.6464 17.9945 20.2431C17.9945 20.8399 18.2316 21.4122 18.6535 21.8341C19.0755 22.2561 19.6478 22.4931 20.2445 22.4931C20.8413 22.4931 21.4136 22.2561 21.8355 21.8341C22.2575 21.4122 22.4945 20.8399 22.4945 20.2431C22.4945 19.6464 22.2575 19.0741 21.8355 18.6521C21.4136 18.2302 20.8413 17.9931 20.2445 17.9931Z" fill="black"/>
</g>
<defs>
<clipPath id="clip0_1315_2363">
<rect width="24" height="24" fill="white"/>
</clipPath>
</defs>
</svg>
