<svg width="24" height="24" viewBox="0 0 24 24" fill="none" xmlns="http://www.w3.org/2000/svg">
<path fill-rule="evenodd" clip-rule="evenodd" d="M8.16603 2.9865C6.79426 3.35528 5.43138 3.75639 4.07853 4.1895C3.95611 4.22729 3.84682 4.29886 3.76324 4.39597C3.67966 4.49308 3.62517 4.61181 3.60603 4.7385C2.80653 10.584 4.65153 14.85 6.85203 17.6595C7.95603 19.0695 9.15153 20.1135 10.1475 20.799C10.647 21.141 11.0865 21.39 11.433 21.549C11.607 21.6285 11.748 21.6825 11.856 21.714C11.9037 21.7293 11.9523 21.7413 12.0015 21.75C12.012 21.7485 12.0585 21.7425 12.147 21.7155C12.255 21.6825 12.396 21.6285 12.57 21.549C12.915 21.39 13.3575 21.141 13.8555 20.799C15.1045 19.9227 16.2153 18.8645 17.151 17.6595C19.3515 14.85 21.1965 10.584 20.397 4.7385C20.3779 4.61181 20.3234 4.49308 20.2398 4.39597C20.1562 4.29886 20.047 4.22729 19.9245 4.1895C18.9855 3.8895 17.4015 3.4005 15.837 2.9865C14.238 2.565 12.7665 2.25 12.0015 2.25C11.2365 2.25 9.76653 2.565 8.16603 2.9865ZM7.78203 1.5375C9.34653 1.1235 11.007 0.75 12.0015 0.75C12.9945 0.75 14.6565 1.1235 16.221 1.5375C17.6165 1.91216 19.0029 2.31978 20.379 2.76C21.171 3.012 21.768 3.6945 21.8835 4.536C22.743 10.8315 20.7495 15.4965 18.333 18.5835C17.3033 19.9083 16.0807 21.0712 14.706 22.0335C14.2281 22.3683 13.7228 22.6623 13.1955 22.9125C12.7905 23.0985 12.3585 23.25 12.0015 23.25C11.6445 23.25 11.2125 23.0985 10.8075 22.9125C10.2802 22.6626 9.77488 22.3685 9.29703 22.0335C7.92295 21.0711 6.70087 19.9082 5.67153 18.5835C3.25203 15.4965 1.26003 10.8315 2.11953 4.536C2.177 4.12811 2.3488 3.74483 2.61506 3.43052C2.88132 3.11622 3.23114 2.88374 3.62403 2.76C5.00021 2.31979 6.38659 1.91217 7.78203 1.5375Z" fill="black"/>
<path d="M10.5059 16.5002C10.5059 16.3032 10.5447 16.1081 10.62 15.9262C10.6954 15.7442 10.8059 15.5788 10.9452 15.4395C11.0845 15.3002 11.2498 15.1897 11.4318 15.1144C11.6138 15.039 11.8089 15.0002 12.0059 15.0002C12.2028 15.0002 12.3979 15.039 12.5799 15.1144C12.7619 15.1897 12.9272 15.3002 13.0665 15.4395C13.2058 15.5788 13.3163 15.7442 13.3917 15.9262C13.4671 16.1081 13.5059 16.3032 13.5059 16.5002C13.5059 16.898 13.3478 17.2795 13.0665 17.5608C12.7852 17.8421 12.4037 18.0002 12.0059 18.0002C11.608 18.0002 11.2265 17.8421 10.9452 17.5608C10.6639 17.2795 10.5059 16.898 10.5059 16.5002ZM10.6529 7.49268C10.6329 7.30344 10.6529 7.11211 10.7117 6.93112C10.7704 6.75012 10.8665 6.5835 10.9938 6.44206C11.1211 6.30062 11.2767 6.18752 11.4506 6.1101C11.6244 6.03268 11.8126 5.99268 12.0029 5.99268C12.1931 5.99268 12.3813 6.03268 12.5551 6.1101C12.729 6.18752 12.8846 6.30062 13.0119 6.44206C13.1392 6.5835 13.2353 6.75012 13.2941 6.93112C13.3528 7.11211 13.3728 7.30344 13.3529 7.49268L12.8279 12.7532C12.8102 12.9598 12.7157 13.1523 12.5629 13.2926C12.4101 13.4329 12.2103 13.5108 12.0029 13.5108C11.7955 13.5108 11.5956 13.4329 11.4428 13.2926C11.2901 13.1523 11.1955 12.9598 11.1779 12.7532L10.6529 7.49268Z" fill="black"/>
</svg>
