<svg width="24" height="24" viewBox="0 0 24 24" fill="none" xmlns="http://www.w3.org/2000/svg">
<path fill-rule="evenodd" clip-rule="evenodd" d="M8.16603 2.9865C6.79426 3.35528 5.43138 3.75639 4.07853 4.1895C3.95611 4.22729 3.84682 4.29886 3.76324 4.39597C3.67966 4.49308 3.62517 4.61181 3.60603 4.7385C2.80653 10.584 4.65153 14.85 6.85203 17.6595C7.95603 19.0695 9.15153 20.1135 10.1475 20.799C10.647 21.141 11.0865 21.39 11.433 21.549C11.607 21.6285 11.748 21.6825 11.856 21.714C11.9037 21.7293 11.9523 21.7413 12.0015 21.75C12.012 21.7485 12.0585 21.7425 12.147 21.7155C12.255 21.6825 12.396 21.6285 12.57 21.549C12.915 21.39 13.3575 21.141 13.8555 20.799C15.1045 19.9227 16.2153 18.8645 17.151 17.6595C19.3515 14.85 21.1965 10.584 20.397 4.7385C20.3779 4.61181 20.3234 4.49308 20.2398 4.39597C20.1562 4.29886 20.047 4.22729 19.9245 4.1895C18.9855 3.8895 17.4015 3.4005 15.837 2.9865C14.238 2.565 12.7665 2.25 12.0015 2.25C11.2365 2.25 9.76653 2.565 8.16603 2.9865ZM7.78203 1.5375C9.34653 1.1235 11.007 0.75 12.0015 0.75C12.9945 0.75 14.6565 1.1235 16.221 1.5375C17.6165 1.91216 19.0029 2.31978 20.379 2.76C21.171 3.012 21.768 3.6945 21.8835 4.536C22.743 10.8315 20.7495 15.4965 18.333 18.5835C17.3033 19.9083 16.0807 21.0712 14.706 22.0335C14.2281 22.3683 13.7228 22.6623 13.1955 22.9125C12.7905 23.0985 12.3585 23.25 12.0015 23.25C11.6445 23.25 11.2125 23.0985 10.8075 22.9125C10.2802 22.6626 9.77488 22.3685 9.29703 22.0335C7.92295 21.0711 6.70087 19.9082 5.67153 18.5835C3.25203 15.4965 1.26003 10.8315 2.11953 4.536C2.177 4.12811 2.3488 3.74483 2.61506 3.43052C2.88132 3.11622 3.23114 2.88374 3.62403 2.76C5.00021 2.31979 6.38659 1.91217 7.78203 1.5375Z" fill="black"/>
<path fill-rule="evenodd" clip-rule="evenodd" d="M16.2819 9.21888C16.3518 9.28854 16.4072 9.37131 16.445 9.46242C16.4828 9.55354 16.5023 9.65122 16.5023 9.74988C16.5023 9.84853 16.4828 9.94621 16.445 10.0373C16.4072 10.1284 16.3518 10.2112 16.2819 10.2809L11.7819 14.7809C11.7123 14.8507 11.6295 14.9061 11.5384 14.9439C11.4473 14.9818 11.3496 15.0012 11.2509 15.0012C11.1523 15.0012 11.0546 14.9818 10.9635 14.9439C10.8724 14.9061 10.7896 14.8507 10.7199 14.7809L8.46995 12.5309C8.40022 12.4611 8.3449 12.3784 8.30716 12.2873C8.26942 12.1961 8.25 12.0985 8.25 11.9999C8.25 11.9013 8.26942 11.8036 8.30716 11.7125C8.3449 11.6214 8.40022 11.5386 8.46995 11.4689C8.53968 11.3991 8.62246 11.3438 8.71357 11.3061C8.80468 11.2684 8.90233 11.2489 9.00095 11.2489C9.09956 11.2489 9.19721 11.2684 9.28832 11.3061C9.37943 11.3438 9.46222 11.3991 9.53195 11.4689L11.2509 13.1894L15.2199 9.21888C15.2896 9.14903 15.3724 9.09362 15.4635 9.05581C15.5546 9.018 15.6523 8.99854 15.7509 8.99854C15.8496 8.99854 15.9473 9.018 16.0384 9.05581C16.1295 9.09362 16.2123 9.14903 16.2819 9.21888Z" fill="black"/>
</svg>
