<svg width="24" height="24" viewBox="0 0 24 24" fill="none" xmlns="http://www.w3.org/2000/svg">
<path fill-rule="evenodd" clip-rule="evenodd" d="M12.0014 0.75C11.0084 0.75 9.34644 1.1235 7.78194 1.5375C6.38649 1.91217 5.00011 2.31979 3.62394 2.76C3.23104 2.88374 2.88122 3.11622 2.61496 3.43052C2.34871 3.74483 2.1769 4.12811 2.11944 4.536C1.25994 10.8315 3.25344 15.4965 5.67144 18.5835C6.70077 19.9082 7.92285 21.0711 9.29694 22.0335C9.85344 22.4175 10.3694 22.71 10.8074 22.9125C11.2124 23.0985 11.6444 23.25 12.0014 23.25C12.3584 23.25 12.7919 23.0985 13.1954 22.9125C13.6334 22.71 14.1494 22.4175 14.7059 22.0335C16.0806 21.0712 17.3032 19.9083 18.3329 18.5835C20.7494 15.4965 22.7429 10.8315 21.8834 4.536C21.826 4.12811 21.6542 3.74483 21.3879 3.43052C21.1217 3.11622 20.7718 2.88374 20.3789 2.76C19.0028 2.31978 17.6164 1.91216 16.2209 1.5375C14.6564 1.1235 12.9959 0.75 12.0014 0.75ZM10.2824 9.219C10.2127 9.14927 10.1299 9.09395 10.0388 9.05622C9.9477 9.01848 9.85005 8.99905 9.75144 8.99905C9.65282 8.99905 9.55517 9.01848 9.46406 9.05622C9.37295 9.09395 9.29017 9.14927 9.22044 9.219C9.1507 9.28873 9.09539 9.37152 9.05765 9.46262C9.01991 9.55373 9.00049 9.65138 9.00049 9.75C9.00049 9.84862 9.01991 9.94627 9.05765 10.0374C9.09539 10.1285 9.1507 10.2113 9.22044 10.281L10.9409 12L9.22044 13.719C9.1507 13.7887 9.09539 13.8715 9.05765 13.9626C9.01991 14.0537 9.00049 14.1514 9.00049 14.25C9.00049 14.3486 9.01991 14.4463 9.05765 14.5374C9.09539 14.6285 9.1507 14.7113 9.22044 14.781C9.29017 14.8507 9.37295 14.906 9.46406 14.9438C9.55517 14.9815 9.65282 15.0009 9.75144 15.0009C9.85005 15.0009 9.9477 14.9815 10.0388 14.9438C10.1299 14.906 10.2127 14.8507 10.2824 14.781L12.0014 13.0605L13.7204 14.781C13.8613 14.9218 14.0523 15.0009 14.2514 15.0009C14.4506 15.0009 14.6416 14.9218 14.7824 14.781C14.9233 14.6402 15.0024 14.4492 15.0024 14.25C15.0024 14.0508 14.9233 13.8598 14.7824 13.719L13.0619 12L14.7824 10.281C14.9233 10.1402 15.0024 9.94916 15.0024 9.75C15.0024 9.55084 14.9233 9.35983 14.7824 9.219C14.6416 9.07817 14.4506 8.99905 14.2514 8.99905C14.0523 8.99905 13.8613 9.07817 13.7204 9.219L12.0014 10.9395L10.2824 9.219Z" fill="black"/>
</svg>
