<svg width="24" height="24" viewBox="0 0 24 24" fill="none" xmlns="http://www.w3.org/2000/svg">
<path d="M2.03644 5.217C1.40644 11.1705 3.34144 15.609 5.67094 18.5835C6.70027 19.9082 7.92235 21.0711 9.29644 22.0335C9.85294 22.4175 10.3689 22.71 10.8069 22.9125C11.2119 23.0985 11.6439 23.25 12.0009 23.25C12.3579 23.25 12.7914 23.0985 13.1949 22.9125C13.6329 22.71 14.1489 22.4175 14.7054 22.0335C15.4044 21.5535 16.1799 20.9235 16.9584 20.139L2.03644 5.217ZM19.7169 16.5345C21.4344 13.5585 22.5699 9.5685 21.8829 4.5345C21.8252 4.12688 21.6533 3.74392 21.387 3.4299C21.1208 3.11588 20.7711 2.88363 20.3784 2.76C19.0023 2.31978 17.6159 1.91216 16.2204 1.5375C14.6559 1.1235 12.9954 0.75 12.0009 0.75C11.0079 0.75 9.34594 1.1235 7.78144 1.5375C6.95944 1.755 6.13144 1.992 5.39644 2.2125L19.7169 16.5345Z" fill="black"/>
<path fill-rule="evenodd" clip-rule="evenodd" d="M21.9668 23.031L0.966797 2.03099L2.0288 0.968994L23.0288 21.969L21.9683 23.0295L21.9668 23.031Z" fill="black"/>
</svg>
