<svg width="24" height="24" viewBox="0 0 24 24" fill="none" xmlns="http://www.w3.org/2000/svg">
<path fill-rule="evenodd" clip-rule="evenodd" d="M12.0014 0.75C11.0084 0.75 9.34644 1.1235 7.78194 1.5375C6.38649 1.91217 5.00011 2.31979 3.62394 2.76C3.23104 2.88374 2.88122 3.11622 2.61496 3.43052C2.34871 3.74483 2.1769 4.12811 2.11944 4.536C1.25994 10.8315 3.25344 15.4965 5.67144 18.5835C6.70077 19.9082 7.92285 21.0711 9.29694 22.0335C9.85344 22.4175 10.3694 22.71 10.8074 22.9125C11.2124 23.0985 11.6444 23.25 12.0014 23.25C12.3584 23.25 12.7919 23.0985 13.1954 22.9125C13.6334 22.71 14.1494 22.4175 14.7059 22.0335C16.0806 21.0712 17.3032 19.9083 18.3329 18.5835C20.7494 15.4965 22.7429 10.8315 21.8834 4.536C21.826 4.12811 21.6542 3.74483 21.3879 3.43052C21.1217 3.11622 20.7718 2.88374 20.3789 2.76C19.0028 2.31978 17.6164 1.91216 16.2209 1.5375C14.6564 1.1235 12.9959 0.75 12.0014 0.75ZM9.00144 11.25C8.80252 11.25 8.61176 11.329 8.47111 11.4697C8.33045 11.6103 8.25144 11.8011 8.25144 12C8.25144 12.1989 8.33045 12.3897 8.47111 12.5303C8.61176 12.671 8.80252 12.75 9.00144 12.75H15.0014C15.2003 12.75 15.3911 12.671 15.5318 12.5303C15.6724 12.3897 15.7514 12.1989 15.7514 12C15.7514 11.8011 15.6724 11.6103 15.5318 11.4697C15.3911 11.329 15.2003 11.25 15.0014 11.25H9.00144Z" fill="black"/>
</svg>
