<svg width="24" height="24" viewBox="0 0 24 24" fill="none" xmlns="http://www.w3.org/2000/svg">
<path fill-rule="evenodd" clip-rule="evenodd" d="M12.0014 0.75C11.0084 0.75 9.34644 1.1235 7.78194 1.5375C6.38649 1.91217 5.00011 2.31979 3.62394 2.76C3.23104 2.88374 2.88122 3.11622 2.61496 3.43052C2.34871 3.74483 2.1769 4.12811 2.11944 4.536C1.25994 10.8315 3.25344 15.4965 5.67144 18.5835C6.70077 19.9082 7.92285 21.0711 9.29694 22.0335C9.85344 22.4175 10.3694 22.71 10.8074 22.9125C11.2124 23.0985 11.6444 23.25 12.0014 23.25C12.3584 23.25 12.7919 23.0985 13.1954 22.9125C13.6334 22.71 14.1494 22.4175 14.7059 22.0335C16.0806 21.0712 17.3032 19.9083 18.3329 18.5835C20.7494 15.4965 22.7429 10.8315 21.8834 4.536C21.826 4.12811 21.6542 3.74483 21.3879 3.43052C21.1217 3.11622 20.7718 2.88374 20.3789 2.76C19.0028 2.31978 17.6164 1.91216 16.2209 1.5375C14.6564 1.1235 12.9959 0.75 12.0014 0.75ZM16.2824 10.281C16.4233 10.1402 16.5024 9.94916 16.5024 9.75C16.5024 9.55084 16.4233 9.35983 16.2824 9.219C16.1416 9.07817 15.9506 8.99905 15.7514 8.99905C15.5523 8.99905 15.3613 9.07817 15.2204 9.219L11.2514 13.1895L9.53244 11.469C9.4627 11.3993 9.37992 11.344 9.28881 11.3062C9.1977 11.2685 9.10005 11.2491 9.00144 11.2491C8.90282 11.2491 8.80517 11.2685 8.71406 11.3062C8.62295 11.344 8.54017 11.3993 8.47044 11.469C8.4007 11.5387 8.34539 11.6215 8.30765 11.7126C8.26991 11.8037 8.25049 11.9014 8.25049 12C8.25049 12.0986 8.26991 12.1963 8.30765 12.2874C8.34539 12.3785 8.4007 12.4613 8.47044 12.531L10.7204 14.781C10.7901 14.8508 10.8729 14.9063 10.964 14.9441C11.0551 14.9819 11.1528 15.0013 11.2514 15.0013C11.3501 15.0013 11.4478 14.9819 11.5389 14.9441C11.63 14.9063 11.7128 14.8508 11.7824 14.781L16.2824 10.281Z" fill="black"/>
</svg>
