<svg width="24" height="24" viewBox="0 0 24 24" fill="none" xmlns="http://www.w3.org/2000/svg">
<path fill-rule="evenodd" clip-rule="evenodd" d="M12.0014 0.75C11.0084 0.75 9.34644 1.1235 7.78194 1.5375C6.38649 1.91217 5.00011 2.31979 3.62394 2.76C3.23104 2.88374 2.88122 3.11622 2.61496 3.43052C2.34871 3.74483 2.1769 4.12811 2.11944 4.536C1.25994 10.8315 3.25344 15.4965 5.67144 18.5835C6.70077 19.9082 7.92285 21.0711 9.29694 22.0335C9.85344 22.4175 10.3694 22.71 10.8074 22.9125C11.2124 23.0985 11.6444 23.25 12.0014 23.25C12.3584 23.25 12.7919 23.0985 13.1954 22.9125C13.6334 22.71 14.1494 22.4175 14.7059 22.0335C16.0806 21.0712 17.3032 19.9083 18.3329 18.5835C20.7494 15.4965 22.7429 10.8315 21.8834 4.536C21.826 4.12811 21.6542 3.74483 21.3879 3.43052C21.1217 3.11622 20.7718 2.88374 20.3789 2.76C19.0028 2.31978 17.6164 1.91216 16.2209 1.5375C14.6564 1.1235 12.9959 0.75 12.0014 0.75ZM12.0014 6C11.8118 6.00011 11.6244 6.03993 11.4511 6.11689C11.2779 6.19386 11.1226 6.30626 10.9955 6.44687C10.8683 6.58747 10.772 6.75316 10.7127 6.93325C10.6535 7.11334 10.6326 7.30385 10.6514 7.4925L11.1764 12.753C11.1978 12.9569 11.2939 13.1458 11.4462 13.283C11.5986 13.4203 11.7964 13.4962 12.0014 13.4962C12.2065 13.4962 12.4043 13.4203 12.5566 13.283C12.709 13.1458 12.8051 12.9569 12.8264 12.753L13.3514 7.4925C13.3703 7.30385 13.3494 7.11334 13.2902 6.93325C13.2309 6.75316 13.1346 6.58747 13.0074 6.44687C12.8802 6.30626 12.725 6.19386 12.5518 6.11689C12.3785 6.03993 12.191 6.00011 12.0014 6ZM12.0044 15C11.6066 15 11.2251 15.158 10.9438 15.4393C10.6625 15.7206 10.5044 16.1022 10.5044 16.5C10.5044 16.8978 10.6625 17.2794 10.9438 17.5607C11.2251 17.842 11.6066 18 12.0044 18C12.4023 18 12.7838 17.842 13.0651 17.5607C13.3464 17.2794 13.5044 16.8978 13.5044 16.5C13.5044 16.1022 13.3464 15.7206 13.0651 15.4393C12.7838 15.158 12.4023 15 12.0044 15Z" fill="black"/>
</svg>
