<svg width="24" height="24" viewBox="0 0 24 24" fill="none" xmlns="http://www.w3.org/2000/svg">
<path fill-rule="evenodd" clip-rule="evenodd" d="M10.9051 3.07053C11.0454 2.92067 11.215 2.8012 11.4033 2.71952C11.5917 2.63785 11.7948 2.5957 12.0001 2.5957C12.2054 2.5957 12.4085 2.63785 12.5968 2.71952C12.7852 2.8012 12.9548 2.92067 13.0951 3.07053L22.6126 13.2255C23.5126 14.1825 22.8316 15.75 21.5176 15.75H17.2501V20.25C17.2501 20.6479 17.0921 21.0294 16.8107 21.3107C16.5294 21.592 16.1479 21.75 15.7501 21.75H8.25009C7.85226 21.75 7.47073 21.592 7.18943 21.3107C6.90812 21.0294 6.75009 20.6479 6.75009 20.25V15.75H2.48109C1.17009 15.75 0.489086 14.1825 1.38609 13.224L10.9051 3.07053Z" fill="black"/>
</svg>
