<svg width="24" height="24" viewBox="0 0 24 24" fill="none" xmlns="http://www.w3.org/2000/svg">
<g clip-path="url(#clip0_1315_2430)">
<path d="M10.5 24.0001H13.5V9.00009H12V3.00009H13.5V2.12109C13.5 1.72327 13.342 1.34174 13.0607 1.06043C12.7794 0.779129 12.3978 0.621094 12 0.621094C11.6022 0.621094 11.2206 0.779129 10.9393 1.06043C10.658 1.34174 10.5 1.72327 10.5 2.12109V10.5001H12V16.5001H10.5V24.0001Z" fill="black"/>
<path fill-rule="evenodd" clip-rule="evenodd" d="M21 4.5H12V7.5H21L22.125 6L21 4.5ZM12 3C11.6022 3 11.2206 3.15804 10.9393 3.43934C10.658 3.72064 10.5 4.10218 10.5 4.5V7.5C10.5 7.89782 10.658 8.27936 10.9393 8.56066C11.2206 8.84196 11.6022 9 12 9H21C21.2329 9 21.4625 8.94578 21.6708 8.84164C21.8791 8.7375 22.0603 8.58629 22.2 8.4L23.6625 6.45C23.7599 6.32018 23.8125 6.16228 23.8125 6C23.8125 5.83772 23.7599 5.67982 23.6625 5.55L22.2 3.6C22.0603 3.41371 21.8791 3.2625 21.6708 3.15836C21.4625 3.05422 21.2329 3 21 3H12ZM3 12H12V15H3L1.875 13.5L3 12ZM12 10.5C12.3978 10.5 12.7794 10.658 13.0607 10.9393C13.342 11.2206 13.5 11.6022 13.5 12V15C13.5 15.3978 13.342 15.7794 13.0607 16.0607C12.7794 16.342 12.3978 16.5 12 16.5H3C2.76713 16.5 2.53746 16.4458 2.32918 16.3416C2.1209 16.2375 1.93972 16.0863 1.8 15.9L0.3375 13.95C0.240133 13.8202 0.1875 13.6623 0.1875 13.5C0.1875 13.3377 0.240133 13.1798 0.3375 13.05L1.8 11.1C1.93972 10.9137 2.1209 10.7625 2.32918 10.6584C2.53746 10.5542 2.76713 10.5 3 10.5H12Z" fill="black"/>
</g>
<defs>
<clipPath id="clip0_1315_2430">
<rect width="24" height="24" fill="white"/>
</clipPath>
</defs>
</svg>
