<svg width="24" height="24" viewBox="0 0 24 24" fill="none" xmlns="http://www.w3.org/2000/svg">
<g clip-path="url(#clip0_1315_2419)">
<path d="M10.5 2.12109V24.0001H13.5V2.12109C13.5 1.72327 13.342 1.34174 13.0607 1.06043C12.7794 0.779129 12.3978 0.621094 12 0.621094C11.6022 0.621094 11.2206 0.779129 10.9393 1.06043C10.658 1.34174 10.5 1.72327 10.5 2.12109Z" fill="black"/>
<path d="M1.5 4.5C1.5 4.10218 1.65804 3.72064 1.93934 3.43934C2.22064 3.15804 2.60218 3 3 3H20.25C20.4829 3 20.7125 3.05422 20.9208 3.15836C21.1291 3.2625 21.3103 3.41371 21.45 3.6L22.9125 5.55C23.0099 5.67982 23.0625 5.83772 23.0625 6C23.0625 6.16228 23.0099 6.32018 22.9125 6.45L21.45 8.4C21.3103 8.58629 21.1291 8.7375 20.9208 8.84164C20.7125 8.94578 20.4829 9 20.25 9H3C2.60218 9 2.22064 8.84196 1.93934 8.56066C1.65804 8.27936 1.5 7.89782 1.5 7.5V4.5ZM22.5 12C22.5 11.6022 22.342 11.2206 22.0607 10.9393C21.7794 10.658 21.3978 10.5 21 10.5H3.75C3.51713 10.5 3.28746 10.5542 3.07918 10.6584C2.8709 10.7625 2.68972 10.9137 2.55 11.1L1.0875 13.05C0.990133 13.1798 0.9375 13.3377 0.9375 13.5C0.9375 13.6623 0.990133 13.8202 1.0875 13.95L2.55 15.9C2.68972 16.0863 2.8709 16.2375 3.07918 16.3416C3.28746 16.4458 3.51713 16.5 3.75 16.5H21C21.3978 16.5 21.7794 16.342 22.0607 16.0607C22.342 15.7794 22.5 15.3978 22.5 15V12Z" fill="black"/>
</g>
<defs>
<clipPath id="clip0_1315_2419">
<rect width="24" height="24" fill="white"/>
</clipPath>
</defs>
</svg>
