<svg width="24" height="24" viewBox="0 0 24 24" fill="none" xmlns="http://www.w3.org/2000/svg">
<path d="M10.5 2.12109V6.00009H13.5V2.12109C13.5 1.72327 13.342 1.34174 13.0607 1.06043C12.7794 0.779129 12.3978 0.621094 12 0.621094C11.6022 0.621094 11.2206 0.779129 10.9393 1.06043C10.658 1.34174 10.5 1.72327 10.5 2.12109Z" fill="black"/>
<path fill-rule="evenodd" clip-rule="evenodd" d="M18.798 7.5H3V13.5H18.798L21.297 10.5L18.798 7.5ZM3 6C2.60218 6 2.22064 6.15804 1.93934 6.43934C1.65804 6.72064 1.5 7.10218 1.5 7.5V13.5C1.5 13.8978 1.65804 14.2794 1.93934 14.5607C2.22064 14.842 2.60218 15 3 15H18.798C19.0179 14.9999 19.235 14.9515 19.4341 14.8582C19.6332 14.7649 19.8093 14.6289 19.95 14.46L22.8495 10.98C22.9618 10.8452 23.0232 10.6754 23.0232 10.5C23.0232 10.3246 22.9618 10.1548 22.8495 10.02L19.95 6.54C19.8093 6.37107 19.6332 6.23513 19.4341 6.14181C19.235 6.0485 19.0179 6.00008 18.798 6H3Z" fill="black"/>
<path d="M10.5 15H13.5V24H10.5V15Z" fill="black"/>
</svg>
