<svg width="24" height="24" viewBox="0 0 24 24" fill="none" xmlns="http://www.w3.org/2000/svg">
<g clip-path="url(#clip0_1315_2426)">
<path d="M10.5 2.12109V6.00009H13.5V2.12109C13.5 1.72327 13.342 1.34174 13.0607 1.06043C12.7794 0.779129 12.3978 0.621094 12 0.621094C11.6022 0.621094 11.2206 0.779129 10.9393 1.06043C10.658 1.34174 10.5 1.72327 10.5 2.12109ZM1.5 7.50009C1.5 7.10227 1.65804 6.72074 1.93934 6.43943C2.22064 6.15813 2.60218 6.00009 3 6.00009H18.798C19.0179 6.00018 19.235 6.04859 19.4341 6.14191C19.6332 6.23522 19.8093 6.37116 19.95 6.54009L22.8495 10.0201C22.9618 10.1549 23.0232 10.3247 23.0232 10.5001C23.0232 10.6755 22.9618 10.8453 22.8495 10.9801L19.95 14.4601C19.8093 14.629 19.6332 14.765 19.4341 14.8583C19.235 14.9516 19.0179 15 18.798 15.0001H3C2.60218 15.0001 2.22064 14.8421 1.93934 14.5608C1.65804 14.2795 1.5 13.8979 1.5 13.5001V7.50009ZM10.5 15.0001H13.5V24.0001H10.5V15.0001Z" fill="black"/>
</g>
<defs>
<clipPath id="clip0_1315_2426">
<rect width="24" height="24" fill="white"/>
</clipPath>
</defs>
</svg>
