<svg width="24" height="24" viewBox="0 0 24 24" fill="none" xmlns="http://www.w3.org/2000/svg">
<path fill-rule="evenodd" clip-rule="evenodd" d="M6.75 5.25C6.55109 5.25 6.36032 5.32902 6.21967 5.46967C6.07902 5.61032 6 5.80109 6 6V18C6 18.1989 6.07902 18.3897 6.21967 18.5303C6.36032 18.671 6.55109 18.75 6.75 18.75C6.94891 18.75 7.13968 18.671 7.28033 18.5303C7.42098 18.3897 7.5 18.1989 7.5 18V6C7.5 5.80109 7.42098 5.61032 7.28033 5.46967C7.13968 5.32902 6.94891 5.25 6.75 5.25Z" fill="black"/>
<path d="M7.35659 13.0457L16.9026 18.5837C17.7126 19.0532 18.7506 18.4847 18.7506 17.5382V6.46216C18.7506 5.51716 17.7126 4.94716 16.9026 5.41816L7.35659 10.9562C7.17233 11.0613 7.01917 11.2134 6.91264 11.3969C6.80611 11.5803 6.75 11.7887 6.75 12.0009C6.75 12.2131 6.80611 12.4215 6.91264 12.6049C7.01917 12.7884 7.17233 12.9405 7.35659 13.0457Z" fill="black"/>
</svg>
