<svg width="24" height="24" viewBox="0 0 24 24" fill="none" xmlns="http://www.w3.org/2000/svg">
<path fill-rule="evenodd" clip-rule="evenodd" d="M23.25 5.25C23.4489 5.25 23.6397 5.32902 23.7803 5.46967C23.921 5.61032 24 5.80109 24 6V18C24 18.1989 23.921 18.3897 23.7803 18.5303C23.6397 18.671 23.4489 18.75 23.25 18.75C23.0511 18.75 22.8603 18.671 22.7197 18.5303C22.579 18.3897 22.5 18.1989 22.5 18V6C22.5 5.80109 22.579 5.61032 22.7197 5.46967C22.8603 5.32902 23.0511 5.25 23.25 5.25Z" fill="black"/>
<path d="M11.394 13.0457L1.8495 18.5837C1.0395 19.0532 0 18.4832 0 17.5382V6.46216C0 5.51716 1.0395 4.94716 1.8495 5.41816L11.394 10.9562C11.5783 11.0613 11.7314 11.2134 11.8379 11.3969C11.9445 11.5803 12.0006 11.7887 12.0006 12.0009C12.0006 12.2131 11.9445 12.4215 11.8379 12.6049C11.7314 12.7884 11.5783 12.9405 11.394 13.0457Z" fill="black"/>
<path d="M22.644 13.0457L13.0995 18.5837C12.2895 19.0532 11.25 18.4847 11.25 17.5382V6.46216C11.25 5.51716 12.2895 4.94716 13.0995 5.41816L22.644 10.9562C22.8283 11.0613 22.9814 11.2134 23.0879 11.3969C23.1945 11.5803 23.2506 11.7887 23.2506 12.0009C23.2506 12.2131 23.1945 12.4215 23.0879 12.6049C22.9814 12.7884 22.8283 12.9405 22.644 13.0457Z" fill="black"/>
</svg>
