<svg width="24" height="24" viewBox="0 0 24 24" fill="none" xmlns="http://www.w3.org/2000/svg">
<path fill-rule="evenodd" clip-rule="evenodd" d="M18 5.25C18.1989 5.25 18.3897 5.32902 18.5303 5.46967C18.671 5.61032 18.75 5.80109 18.75 6V18C18.75 18.1989 18.671 18.3897 18.5303 18.5303C18.3897 18.671 18.1989 18.75 18 18.75C17.8011 18.75 17.6103 18.671 17.4697 18.5303C17.329 18.3897 17.25 18.1989 17.25 18V6C17.25 5.80109 17.329 5.61032 17.4697 5.46967C17.6103 5.32902 17.8011 5.25 18 5.25Z" fill="black"/>
<path fill-rule="evenodd" clip-rule="evenodd" d="M16.206 11.9999L7.5 6.94942V17.0504L16.206 11.9999ZM17.394 10.9559C17.5779 11.0612 17.7307 11.2132 17.837 11.3965C17.9433 11.5799 17.9993 11.788 17.9993 11.9999C17.9993 12.2118 17.9433 12.42 17.837 12.6033C17.7307 12.7866 17.5779 12.9386 17.394 13.0439L7.8495 18.5819C7.0695 19.0349 6 18.5174 6 17.5379V6.46192C6 5.48242 7.0695 4.96492 7.8495 5.41792L17.394 10.9559Z" fill="black"/>
</svg>
