<svg width="24" height="24" viewBox="0 0 24 24" fill="none" xmlns="http://www.w3.org/2000/svg">
<path fill-rule="evenodd" clip-rule="evenodd" d="M6.75 5.25C6.55109 5.25 6.36032 5.32902 6.21967 5.46967C6.07902 5.61032 6 5.80109 6 6V18C6 18.1989 6.07902 18.3897 6.21967 18.5303C6.36032 18.671 6.55109 18.75 6.75 18.75C6.94891 18.75 7.13968 18.671 7.28033 18.5303C7.42098 18.3897 7.5 18.1989 7.5 18V6C7.5 5.80109 7.42098 5.61032 7.28033 5.46967C7.13968 5.32902 6.94891 5.25 6.75 5.25Z" fill="black"/>
<path fill-rule="evenodd" clip-rule="evenodd" d="M8.54328 11.9999L17.2493 6.94942V17.0504L8.54328 11.9999ZM7.35528 10.9559C7.17138 11.0612 7.01855 11.2132 6.91226 11.3965C6.80598 11.5799 6.75 11.788 6.75 11.9999C6.75 12.2118 6.80598 12.42 6.91226 12.6033C7.01855 12.7866 7.17138 12.9386 7.35528 13.0439L16.8998 18.5819C17.6798 19.0349 18.7493 18.5174 18.7493 17.5379V6.46192C18.7493 5.48242 17.6798 4.96492 16.8998 5.41792L7.35528 10.9559Z" fill="black"/>
</svg>
