<svg width="24" height="24" viewBox="0 0 24 24" fill="none" xmlns="http://www.w3.org/2000/svg">
<g clip-path="url(#clip0_1315_2442)">
<path fill-rule="evenodd" clip-rule="evenodd" d="M0.75 5.25C0.551088 5.25 0.360322 5.32902 0.21967 5.46967C0.0790176 5.61032 0 5.80109 0 6L0 18C0 18.1989 0.0790176 18.3897 0.21967 18.5303C0.360322 18.671 0.551088 18.75 0.75 18.75C0.948912 18.75 1.13968 18.671 1.28033 18.5303C1.42098 18.3897 1.5 18.1989 1.5 18V6C1.5 5.80109 1.42098 5.61032 1.28033 5.46967C1.13968 5.32902 0.948912 5.25 0.75 5.25Z" fill="black"/>
<path d="M1.35659 13.0457L10.9011 18.5837C11.7111 19.0532 12.7506 18.4847 12.7506 17.5382V6.46216C12.7506 5.51716 11.7126 4.94716 10.9011 5.41816L1.35659 10.9562C1.17233 11.0613 1.01917 11.2134 0.912641 11.3969C0.806111 11.5803 0.75 11.7887 0.75 12.0009C0.75 12.2131 0.806111 12.4215 0.912641 12.6049C1.01917 12.7884 1.17233 12.9405 1.35659 13.0457Z" fill="black"/>
<path d="M12.6066 13.0457L22.1511 18.5837C22.9611 19.0532 24.0006 18.4847 24.0006 17.5382V6.46216C24.0006 5.51716 22.9611 4.94716 22.1511 5.41816L12.6066 10.9562C12.4223 11.0613 12.2692 11.2134 12.1626 11.3969C12.0561 11.5803 12 11.7887 12 12.0009C12 12.2131 12.0561 12.4215 12.1626 12.6049C12.2692 12.7884 12.4223 12.9405 12.6066 13.0457Z" fill="black"/>
</g>
<defs>
<clipPath id="clip0_1315_2442">
<rect width="24" height="24" fill="white"/>
</clipPath>
</defs>
</svg>
