<svg width="24" height="24" viewBox="0 0 24 24" fill="none" xmlns="http://www.w3.org/2000/svg">
<path fill-rule="evenodd" clip-rule="evenodd" d="M4.5 3C4.69891 3 4.88968 3.07902 5.03033 3.21967C5.17098 3.36032 5.25 3.55109 5.25 3.75V18.75C5.25 18.9489 5.17098 19.1397 5.03033 19.2803C4.88968 19.421 4.69891 19.5 4.5 19.5C4.30109 19.5 4.11032 19.421 3.96967 19.2803C3.82902 19.1397 3.75 18.9489 3.75 18.75V3.75C3.75 3.55109 3.82902 3.36032 3.96967 3.21967C4.11032 3.07902 4.30109 3 4.5 3Z" fill="black"/>
<path fill-rule="evenodd" clip-rule="evenodd" d="M8.03195 15.219C8.10179 15.2887 8.15721 15.3714 8.19502 15.4626C8.23283 15.5537 8.25229 15.6513 8.25229 15.75C8.25229 15.8487 8.23283 15.9463 8.19502 16.0374C8.15721 16.1286 8.10179 16.2113 8.03195 16.281L5.03195 19.281C4.96228 19.3508 4.87952 19.4063 4.7884 19.4441C4.69728 19.4819 4.5996 19.5013 4.50095 19.5013C4.4023 19.5013 4.30461 19.4819 4.2135 19.4441C4.12238 19.4063 4.03962 19.3508 3.96995 19.281L0.969947 16.281C0.829117 16.1402 0.75 15.9492 0.75 15.75C0.75 15.5508 0.829117 15.3598 0.969947 15.219C1.11078 15.0782 1.30178 14.9991 1.50095 14.9991C1.70011 14.9991 1.89112 15.0782 2.03195 15.219L4.50095 17.6895L6.96995 15.219C7.03961 15.1492 7.12238 15.0937 7.2135 15.0559C7.30461 15.0181 7.4023 14.9987 7.50095 14.9987C7.5996 14.9987 7.69728 15.0181 7.7884 15.0559C7.87952 15.0937 7.96228 15.1492 8.03195 15.219ZM10.5009 14.25C10.5009 14.0511 10.58 13.8603 10.7206 13.7197C10.8613 13.579 11.052 13.5 11.2509 13.5H15.7509C15.9499 13.5 16.1406 13.579 16.2813 13.7197C16.4219 13.8603 16.5009 14.0511 16.5009 14.25C16.5009 14.4489 16.4219 14.6397 16.2813 14.7803C16.1406 14.921 15.9499 15 15.7509 15H11.2509C11.052 15 10.8613 14.921 10.7206 14.7803C10.58 14.6397 10.5009 14.4489 10.5009 14.25ZM10.5009 9.75C10.5009 9.55109 10.58 9.36032 10.7206 9.21967C10.8613 9.07902 11.052 9 11.2509 9H18.7509C18.9499 9 19.1406 9.07902 19.2813 9.21967C19.4219 9.36032 19.5009 9.55109 19.5009 9.75C19.5009 9.94891 19.4219 10.1397 19.2813 10.2803C19.1406 10.421 18.9499 10.5 18.7509 10.5H11.2509C11.052 10.5 10.8613 10.421 10.7206 10.2803C10.58 10.1397 10.5009 9.94891 10.5009 9.75ZM10.5009 5.25C10.5009 5.05109 10.58 4.86032 10.7206 4.71967C10.8613 4.57902 11.052 4.5 11.2509 4.5H21.7509C21.9499 4.5 22.1406 4.57902 22.2813 4.71967C22.4219 4.86032 22.5009 5.05109 22.5009 5.25C22.5009 5.44891 22.4219 5.63968 22.2813 5.78033C22.1406 5.92098 21.9499 6 21.7509 6H11.2509C11.052 6 10.8613 5.92098 10.7206 5.78033C10.58 5.63968 10.5009 5.44891 10.5009 5.25ZM10.5009 18.75C10.5009 18.5511 10.58 18.3603 10.7206 18.2197C10.8613 18.079 11.052 18 11.2509 18H12.7509C12.9499 18 13.1406 18.079 13.2813 18.2197C13.4219 18.3603 13.5009 18.5511 13.5009 18.75C13.5009 18.9489 13.4219 19.1397 13.2813 19.2803C13.1406 19.421 12.9499 19.5 12.7509 19.5H11.2509C11.052 19.5 10.8613 19.421 10.7206 19.2803C10.58 19.1397 10.5009 18.9489 10.5009 18.75Z" fill="black"/>
</svg>
