<svg width="24" height="24" viewBox="0 0 24 24" fill="none" xmlns="http://www.w3.org/2000/svg">
<path fill-rule="evenodd" clip-rule="evenodd" d="M4.5 19.5C4.69891 19.5 4.88968 19.421 5.03033 19.2803C5.17098 19.1397 5.25 18.9489 5.25 18.75V3.75C5.25 3.55109 5.17098 3.36032 5.03033 3.21967C4.88968 3.07902 4.69891 3 4.5 3C4.30109 3 4.11032 3.07902 3.96967 3.21967C3.82902 3.36032 3.75 3.55109 3.75 3.75V18.75C3.75 18.9489 3.82902 19.1397 3.96967 19.2803C4.11032 19.421 4.30109 19.5 4.5 19.5Z" fill="black"/>
<path fill-rule="evenodd" clip-rule="evenodd" d="M8.03195 7.28088C8.10179 7.21121 8.15721 7.12844 8.19502 7.03733C8.23283 6.94621 8.25229 6.84853 8.25229 6.74988C8.25229 6.65122 8.23283 6.55354 8.19502 6.46243C8.15721 6.37131 8.10179 6.28854 8.03195 6.21888L5.03195 3.21888C4.96228 3.14903 4.87952 3.09362 4.7884 3.05581C4.69728 3.018 4.5996 2.99854 4.50095 2.99854C4.4023 2.99854 4.30461 3.018 4.2135 3.05581C4.12238 3.09362 4.03962 3.14903 3.96995 3.21888L0.969947 6.21888C0.900216 6.28861 0.844901 6.37139 0.807162 6.4625C0.769424 6.55361 0.75 6.65126 0.75 6.74988C0.75 6.84849 0.769424 6.94614 0.807162 7.03725C0.844901 7.12836 0.900215 7.21114 0.969947 7.28088C1.03968 7.35061 1.12246 7.40592 1.21357 7.44366C1.30468 7.4814 1.40233 7.50082 1.50095 7.50082C1.59956 7.50082 1.69721 7.4814 1.78832 7.44366C1.87943 7.40592 1.96222 7.35061 2.03195 7.28088L4.50095 4.81038L6.96995 7.28088C7.03962 7.35072 7.12238 7.40614 7.2135 7.44394C7.30461 7.48175 7.4023 7.50122 7.50095 7.50122C7.5996 7.50122 7.69728 7.48175 7.7884 7.44394C7.87952 7.40614 7.96228 7.35072 8.03195 7.28088ZM10.5009 14.2499C10.5009 14.051 10.58 13.8602 10.7206 13.7195C10.8613 13.5789 11.052 13.4999 11.2509 13.4999H15.7509C15.9499 13.4999 16.1406 13.5789 16.2813 13.7195C16.4219 13.8602 16.5009 14.051 16.5009 14.2499C16.5009 14.4488 16.4219 14.6396 16.2813 14.7802C16.1406 14.9209 15.9499 14.9999 15.7509 14.9999H11.2509C11.052 14.9999 10.8613 14.9209 10.7206 14.7802C10.58 14.6396 10.5009 14.4488 10.5009 14.2499ZM10.5009 9.74988C10.5009 9.55096 10.58 9.3602 10.7206 9.21955C10.8613 9.07889 11.052 8.99988 11.2509 8.99988H18.7509C18.9499 8.99988 19.1406 9.07889 19.2813 9.21955C19.4219 9.3602 19.5009 9.55096 19.5009 9.74988C19.5009 9.94879 19.4219 10.1396 19.2813 10.2802C19.1406 10.4209 18.9499 10.4999 18.7509 10.4999H11.2509C11.052 10.4999 10.8613 10.4209 10.7206 10.2802C10.58 10.1396 10.5009 9.94879 10.5009 9.74988ZM10.5009 5.24988C10.5009 5.05096 10.58 4.8602 10.7206 4.71955C10.8613 4.57889 11.052 4.49988 11.2509 4.49988H21.7509C21.9499 4.49988 22.1406 4.57889 22.2813 4.71955C22.4219 4.8602 22.5009 5.05096 22.5009 5.24988C22.5009 5.44879 22.4219 5.63955 22.2813 5.78021C22.1406 5.92086 21.9499 5.99988 21.7509 5.99988H11.2509C11.052 5.99988 10.8613 5.92086 10.7206 5.78021C10.58 5.63955 10.5009 5.44879 10.5009 5.24988ZM10.5009 18.7499C10.5009 18.551 10.58 18.3602 10.7206 18.2195C10.8613 18.0789 11.052 17.9999 11.2509 17.9999H12.7509C12.9499 17.9999 13.1406 18.0789 13.2813 18.2195C13.4219 18.3602 13.5009 18.551 13.5009 18.7499C13.5009 18.9488 13.4219 19.1396 13.2813 19.2802C13.1406 19.4209 12.9499 19.4999 12.7509 19.4999H11.2509C11.052 19.4999 10.8613 19.4209 10.7206 19.2802C10.58 19.1396 10.5009 18.9488 10.5009 18.7499Z" fill="black"/>
</svg>
