<svg width="24" height="24" viewBox="0 0 24 24" fill="none" xmlns="http://www.w3.org/2000/svg">
<path fill-rule="evenodd" clip-rule="evenodd" d="M6 21C6.19891 21 6.38968 20.921 6.53033 20.7803C6.67098 20.6397 6.75 20.4489 6.75 20.25V3.75C6.75 3.55109 6.67098 3.36032 6.53033 3.21967C6.38968 3.07902 6.19891 3 6 3C5.80109 3 5.61032 3.07902 5.46967 3.21967C5.32902 3.36032 5.25 3.55109 5.25 3.75V20.25C5.25 20.4489 5.32902 20.6397 5.46967 20.7803C5.61032 20.921 5.80109 21 6 21Z" fill="black"/>
<path fill-rule="evenodd" clip-rule="evenodd" d="M9.53195 7.28088C9.60179 7.21121 9.65721 7.12844 9.69502 7.03733C9.73283 6.94621 9.75229 6.84853 9.75229 6.74988C9.75229 6.65122 9.73283 6.55354 9.69502 6.46242C9.65721 6.37131 9.60179 6.28854 9.53195 6.21888L6.53195 3.21888C6.46228 3.14903 6.37952 3.09362 6.2884 3.05581C6.19728 3.018 6.0996 2.99854 6.00095 2.99854C5.9023 2.99854 5.80461 3.018 5.7135 3.05581C5.62238 3.09362 5.53962 3.14903 5.46995 3.21888L2.46995 6.21888C2.40022 6.28861 2.3449 6.37139 2.30716 6.4625C2.26942 6.55361 2.25 6.65126 2.25 6.74988C2.25 6.84849 2.26942 6.94614 2.30716 7.03725C2.3449 7.12836 2.40022 7.21114 2.46995 7.28088C2.53968 7.35061 2.62246 7.40592 2.71357 7.44366C2.80468 7.4814 2.90233 7.50082 3.00095 7.50082C3.09956 7.50082 3.19721 7.4814 3.28832 7.44366C3.37943 7.40592 3.46222 7.35061 3.53195 7.28088L6.00095 4.81038L8.46995 7.28088C8.53962 7.35072 8.62238 7.40614 8.7135 7.44394C8.80462 7.48175 8.9023 7.50122 9.00095 7.50122C9.0996 7.50122 9.19728 7.48175 9.2884 7.44394C9.37952 7.40614 9.46228 7.35072 9.53195 7.28088Z" fill="black"/>
<path d="M14.3966 8.73002C14.4776 9.66152 15.3341 10.647 17.0381 10.647C19.1711 10.647 20.2556 9.17702 20.2556 6.37502C20.2556 3.30002 18.7961 2.34302 17.1611 2.34302C15.4736 2.34302 14.2031 3.37502 14.2031 5.09702C14.2031 6.81452 15.4151 7.73402 16.7816 7.73402C17.8166 7.73402 18.4511 7.20752 18.6731 6.62102H18.7616C18.8081 8.16152 18.2981 9.40502 17.0621 9.40502C16.4171 9.40502 15.9896 9.06452 15.9026 8.73002H14.3966ZM18.5321 5.08502C18.5321 6.04052 17.8871 6.54452 17.1326 6.54452C16.3586 6.54452 15.7316 6.03452 15.7316 5.07452C15.7316 4.13702 16.3421 3.57452 17.1206 3.57452C17.9351 3.57452 18.5321 4.13702 18.5321 5.08652V5.08502ZM18.6566 21V13.002H17.0846L15.1916 14.361V15.8145L17.0066 14.5245H17.0846V21H18.6536H18.6566Z" fill="black"/>
</svg>
