<svg width="24" height="24" viewBox="0 0 24 24" fill="none" xmlns="http://www.w3.org/2000/svg">
<path fill-rule="evenodd" clip-rule="evenodd" d="M4.5 21C4.69891 21 4.88968 20.921 5.03033 20.7803C5.17098 20.6397 5.25 20.4489 5.25 20.25V5.25C5.25 5.05109 5.17098 4.86032 5.03033 4.71967C4.88968 4.57902 4.69891 4.5 4.5 4.5C4.30109 4.5 4.11032 4.57902 3.96967 4.71967C3.82902 4.86032 3.75 5.05109 3.75 5.25V20.25C3.75 20.4489 3.82902 20.6397 3.96967 20.7803C4.11032 20.921 4.30109 21 4.5 21Z" fill="black"/>
<path fill-rule="evenodd" clip-rule="evenodd" d="M8.03195 8.78088C8.10179 8.71121 8.15721 8.62844 8.19502 8.53733C8.23283 8.44621 8.25229 8.34853 8.25229 8.24988C8.25229 8.15122 8.23283 8.05354 8.19502 7.96243C8.15721 7.87131 8.10179 7.78854 8.03195 7.71888L5.03195 4.71888C4.96228 4.64903 4.87952 4.59362 4.7884 4.55581C4.69728 4.518 4.5996 4.49854 4.50095 4.49854C4.4023 4.49854 4.30461 4.518 4.2135 4.55581C4.12238 4.59362 4.03962 4.64903 3.96995 4.71888L0.969947 7.71888C0.829117 7.85971 0.75 8.05071 0.75 8.24988C0.75 8.44904 0.829117 8.64005 0.969947 8.78088C1.11078 8.92171 1.30178 9.00082 1.50095 9.00082C1.70011 9.00082 1.89112 8.92171 2.03195 8.78088L4.50095 6.31038L6.96995 8.78088C7.03962 8.85072 7.12238 8.90614 7.2135 8.94394C7.30461 8.98175 7.4023 9.00122 7.50095 9.00122C7.5996 9.00122 7.69728 8.98175 7.7884 8.94394C7.87952 8.90614 7.96228 8.85072 8.03195 8.78088ZM10.5009 9.74988C10.5009 9.94879 10.58 10.1396 10.7206 10.2802C10.8613 10.4209 11.052 10.4999 11.2509 10.4999H15.7509C15.9499 10.4999 16.1406 10.4209 16.2813 10.2802C16.4219 10.1396 16.5009 9.94879 16.5009 9.74988C16.5009 9.55096 16.4219 9.3602 16.2813 9.21955C16.1406 9.07889 15.9499 8.99988 15.7509 8.99988H11.2509C11.052 8.99988 10.8613 9.07889 10.7206 9.21955C10.58 9.3602 10.5009 9.55096 10.5009 9.74988ZM10.5009 14.2499C10.5009 14.4488 10.58 14.6396 10.7206 14.7802C10.8613 14.9209 11.052 14.9999 11.2509 14.9999H18.7509C18.9499 14.9999 19.1406 14.9209 19.2813 14.7802C19.4219 14.6396 19.5009 14.4488 19.5009 14.2499C19.5009 14.051 19.4219 13.8602 19.2813 13.7195C19.1406 13.5789 18.9499 13.4999 18.7509 13.4999H11.2509C11.052 13.4999 10.8613 13.5789 10.7206 13.7195C10.58 13.8602 10.5009 14.051 10.5009 14.2499ZM10.5009 18.7499C10.5009 18.9488 10.58 19.1396 10.7206 19.2802C10.8613 19.4209 11.052 19.4999 11.2509 19.4999H21.7509C21.9499 19.4999 22.1406 19.4209 22.2813 19.2802C22.4219 19.1396 22.5009 18.9488 22.5009 18.7499C22.5009 18.551 22.4219 18.3602 22.2813 18.2195C22.1406 18.0789 21.9499 17.9999 21.7509 17.9999H11.2509C11.052 17.9999 10.8613 18.0789 10.7206 18.2195C10.58 18.3602 10.5009 18.551 10.5009 18.7499ZM10.5009 5.24988C10.5009 5.44879 10.58 5.63955 10.7206 5.78021C10.8613 5.92086 11.052 5.99988 11.2509 5.99988H12.7509C12.9499 5.99988 13.1406 5.92086 13.2813 5.78021C13.4219 5.63955 13.5009 5.44879 13.5009 5.24988C13.5009 5.05096 13.4219 4.8602 13.2813 4.71955C13.1406 4.57889 12.9499 4.49988 12.7509 4.49988H11.2509C11.052 4.49988 10.8613 4.57889 10.7206 4.71955C10.58 4.8602 10.5009 5.05096 10.5009 5.24988Z" fill="black"/>
</svg>
