<svg width="24" height="24" viewBox="0 0 24 24" fill="none" xmlns="http://www.w3.org/2000/svg">
<path fill-rule="evenodd" clip-rule="evenodd" d="M6 21C6.19891 21 6.38968 20.921 6.53033 20.7803C6.67098 20.6397 6.75 20.4489 6.75 20.25V3.75C6.75 3.55109 6.67098 3.36032 6.53033 3.21967C6.38968 3.07902 6.19891 3 6 3C5.80109 3 5.61032 3.07902 5.46967 3.21967C5.32902 3.36032 5.25 3.55109 5.25 3.75V20.25C5.25 20.4489 5.32902 20.6397 5.46967 20.7803C5.61032 20.921 5.80109 21 6 21Z" fill="black"/>
<path fill-rule="evenodd" clip-rule="evenodd" d="M9.53195 7.28088C9.60179 7.21121 9.65721 7.12844 9.69502 7.03733C9.73283 6.94621 9.75229 6.84853 9.75229 6.74988C9.75229 6.65122 9.73283 6.55354 9.69502 6.46242C9.65721 6.37131 9.60179 6.28854 9.53195 6.21888L6.53195 3.21888C6.46228 3.14903 6.37952 3.09362 6.2884 3.05581C6.19728 3.018 6.0996 2.99854 6.00095 2.99854C5.9023 2.99854 5.80461 3.018 5.7135 3.05581C5.62238 3.09362 5.53962 3.14903 5.46995 3.21888L2.46995 6.21888C2.40022 6.28861 2.3449 6.37139 2.30716 6.4625C2.26942 6.55361 2.25 6.65126 2.25 6.74988C2.25 6.84849 2.26942 6.94614 2.30716 7.03725C2.3449 7.12836 2.40022 7.21114 2.46995 7.28088C2.53968 7.35061 2.62246 7.40592 2.71357 7.44366C2.80468 7.4814 2.90233 7.50082 3.00095 7.50082C3.09956 7.50082 3.19721 7.4814 3.28832 7.44366C3.37943 7.40592 3.46222 7.35061 3.53195 7.28088L6.00095 4.81038L8.46995 7.28088C8.53962 7.35072 8.62238 7.40614 8.7135 7.44394C8.80462 7.48175 8.9023 7.50122 9.00095 7.50122C9.0996 7.50122 9.19728 7.48175 9.2884 7.44394C9.37952 7.40614 9.46228 7.35072 9.53195 7.28088Z" fill="black"/>
<path d="M18.6566 10.5V2.50195H17.0846L15.1916 3.86095V5.31445L17.0066 4.02445H17.0846V10.5H18.6536H18.6566ZM14.3966 19.23C14.4776 20.1615 15.3341 21.147 17.0381 21.147C19.1711 21.147 20.2556 19.677 20.2556 16.875C20.2556 13.8 18.7961 12.843 17.1611 12.843C15.4736 12.843 14.2031 13.875 14.2031 15.597C14.2031 17.3145 15.4151 18.234 16.7816 18.234C17.8166 18.234 18.4511 17.7075 18.6731 17.121H18.7616C18.8081 18.6615 18.2981 19.905 17.0621 19.905C16.4171 19.905 15.9896 19.5645 15.9026 19.23H14.3966ZM18.5321 15.585C18.5321 16.5405 17.8871 17.0445 17.1326 17.0445C16.3586 17.0445 15.7316 16.5345 15.7316 15.5745C15.7316 14.637 16.3421 14.0745 17.1206 14.0745C17.9351 14.0745 18.5321 14.637 18.5321 15.5865V15.585Z" fill="black"/>
</svg>
