<svg width="24" height="24" viewBox="0 0 24 24" fill="none" xmlns="http://www.w3.org/2000/svg">
<path fill-rule="evenodd" clip-rule="evenodd" d="M0 2.25C0 1.65326 0.237053 1.08097 0.65901 0.65901C1.08097 0.237053 1.65326 0 2.25 0L19.5 0C19.8978 0 20.2794 0.158035 20.5607 0.43934C20.842 0.720644 21 1.10218 21 1.5H2.25C2.05109 1.5 1.86032 1.57902 1.71967 1.71967C1.57902 1.86032 1.5 2.05109 1.5 2.25V21C1.10218 21 0.720644 20.842 0.43934 20.5607C0.158035 20.2794 0 19.8978 0 19.5V2.25Z" fill="black"/>
<path fill-rule="evenodd" clip-rule="evenodd" d="M5.25 3C4.65326 3 4.08097 3.23705 3.65901 3.65901C3.23705 4.08097 3 4.65326 3 5.25V21.75C3 22.3467 3.23705 22.919 3.65901 23.341C4.08097 23.7629 4.65326 24 5.25 24H14.379C14.9755 23.9995 15.5474 23.7621 15.969 23.34L23.3415 15.969C23.763 15.5472 23.9999 14.9753 24 14.379V5.25C24 4.65326 23.7629 4.08097 23.341 3.65901C22.919 3.23705 22.3467 3 21.75 3H5.25ZM14.25 15.75V22.344C14.25 22.6785 14.655 22.8465 14.8905 22.6095L22.6095 14.8905C22.6621 14.8381 22.6979 14.7712 22.7124 14.6983C22.727 14.6255 22.7195 14.55 22.6911 14.4814C22.6626 14.4128 22.6145 14.3542 22.5527 14.313C22.4909 14.2718 22.4183 14.2499 22.344 14.25H15.75C15.3522 14.25 14.9706 14.408 14.6893 14.6893C14.408 14.9706 14.25 15.3522 14.25 15.75Z" fill="black"/>
</svg>
