<svg width="24" height="24" viewBox="0 0 24 24" fill="none" xmlns="http://www.w3.org/2000/svg">
<path fill-rule="evenodd" clip-rule="evenodd" d="M0 2.25C0 1.65326 0.237053 1.08097 0.65901 0.65901C1.08097 0.237053 1.65326 0 2.25 0L19.5 0C19.8978 0 20.2794 0.158035 20.5607 0.43934C20.842 0.720644 21 1.10218 21 1.5H2.25C2.05109 1.5 1.86032 1.57902 1.71967 1.71967C1.57902 1.86032 1.5 2.05109 1.5 2.25V21C1.10218 21 0.720644 20.842 0.43934 20.5607C0.158035 20.2794 0 19.8978 0 19.5V2.25Z" fill="black"/>
<path fill-rule="evenodd" clip-rule="evenodd" d="M3 5.25C3 4.65326 3.23705 4.08097 3.65901 3.65901C4.08097 3.23705 4.65326 3 5.25 3H21.75C22.3467 3 22.919 3.23705 23.341 3.65901C23.7629 4.08097 24 4.65326 24 5.25V14.379C23.9995 14.9755 23.7621 15.5474 23.34 15.969L15.969 23.3415C15.5472 23.763 14.9753 23.9999 14.379 24H5.25C4.65326 24 4.08097 23.7629 3.65901 23.341C3.23705 22.919 3 22.3467 3 21.75V5.25ZM5.25 4.5C5.05109 4.5 4.86032 4.57902 4.71967 4.71967C4.57902 4.86032 4.5 5.05109 4.5 5.25V21.75C4.5 21.9489 4.57902 22.1397 4.71967 22.2803C4.86032 22.421 5.05109 22.5 5.25 22.5H14.379C14.5775 22.5 14.7679 22.4212 14.9085 22.281L22.281 14.9085C22.4212 14.7679 22.5 14.5775 22.5 14.379V5.25C22.5 5.05109 22.421 4.86032 22.2803 4.71967C22.1397 4.57902 21.9489 4.5 21.75 4.5H5.25Z" fill="black"/>
<path fill-rule="evenodd" clip-rule="evenodd" d="M15.75 15C15.5511 15 15.3603 15.079 15.2197 15.2197C15.079 15.3603 15 15.5511 15 15.75V23.25H13.5V15.75C13.5 15.1533 13.7371 14.581 14.159 14.159C14.581 13.7371 15.1533 13.5 15.75 13.5H23.25V15H15.75Z" fill="black"/>
</svg>
