<svg width="24" height="24" viewBox="0 0 24 24" fill="none" xmlns="http://www.w3.org/2000/svg">
<g clip-path="url(#clip0_1315_2575)">
<path fill-rule="evenodd" clip-rule="evenodd" d="M9.7493 0C9.55039 0 9.35962 0.0790176 9.21897 0.21967C9.07832 0.360322 8.9993 0.551088 8.9993 0.75C8.9993 0.948912 9.07832 1.13968 9.21897 1.28033C9.35962 1.42098 9.55039 1.5 9.7493 1.5H10.4993V3.105C7.87198 3.48474 5.48596 4.84541 3.8213 6.91325C2.15665 8.98108 1.33689 11.6026 1.52697 14.2504C1.71705 16.8983 2.90286 19.3758 4.84581 21.1847C6.78877 22.9935 9.34468 23.9994 11.9993 24C14.6572 24.0048 17.218 23.0014 19.1652 21.1923C21.1123 19.3832 22.3009 16.9029 22.4913 14.2519C22.6816 11.6008 21.8594 8.97618 20.1906 6.90748C18.5218 4.83877 16.1306 3.47991 13.4993 3.105V1.5H14.2493C14.4482 1.5 14.639 1.42098 14.7796 1.28033C14.9203 1.13968 14.9993 0.948912 14.9993 0.75C14.9993 0.551088 14.9203 0.360322 14.7796 0.21967C14.639 0.0790176 14.4482 0 14.2493 0L9.7493 0ZM12.7493 8.4C12.7493 8.20109 12.6703 8.01032 12.5296 7.86967C12.389 7.72902 12.1982 7.65 11.9993 7.65C11.8004 7.65 11.6096 7.72902 11.469 7.86967C11.3283 8.01032 11.2493 8.20109 11.2493 8.4V12.75H6.7493C6.55039 12.75 6.35962 12.829 6.21897 12.9697C6.07832 13.1103 5.9993 13.3011 5.9993 13.5C5.9993 13.6989 6.07832 13.8897 6.21897 14.0303C6.35962 14.171 6.55039 14.25 6.7493 14.25H11.9993C12.1982 14.25 12.389 14.171 12.5296 14.0303C12.6703 13.8897 12.7493 13.6989 12.7493 13.5V8.4Z" fill="black"/>
</g>
<defs>
<clipPath id="clip0_1315_2575">
<rect width="24" height="24" fill="white"/>
</clipPath>
</defs>
</svg>
