<svg width="24" height="24" viewBox="0 0 24 24" fill="none" xmlns="http://www.w3.org/2000/svg">
<g clip-path="url(#clip0_1315_2571)">
<path d="M14.25 5.25C14.25 5.84674 14.0129 6.41903 13.591 6.84099C13.169 7.26295 12.5967 7.5 12 7.5C11.4033 7.5 10.831 7.26295 10.409 6.84099C9.98705 6.41903 9.75 5.84674 9.75 5.25C9.75 4.65326 9.98705 4.08097 10.409 3.65901C10.831 3.23705 11.4033 3 12 3C12.5967 3 13.169 3.23705 13.591 3.65901C14.0129 4.08097 14.25 4.65326 14.25 5.25ZM14.25 11.25C14.25 11.8467 14.0129 12.419 13.591 12.841C13.169 13.2629 12.5967 13.5 12 13.5C11.4033 13.5 10.831 13.2629 10.409 12.841C9.98705 12.419 9.75 11.8467 9.75 11.25C9.75 10.6533 9.98705 10.081 10.409 9.65901C10.831 9.23705 11.4033 9 12 9C12.5967 9 13.169 9.23705 13.591 9.65901C14.0129 10.081 14.25 10.6533 14.25 11.25ZM14.25 17.25C14.25 17.8467 14.0129 18.419 13.591 18.841C13.169 19.2629 12.5967 19.5 12 19.5C11.4033 19.5 10.831 19.2629 10.409 18.841C9.98705 18.419 9.75 17.8467 9.75 17.25C9.75 16.6533 9.98705 16.081 10.409 15.659C10.831 15.2371 11.4033 15 12 15C12.5967 15 13.169 15.2371 13.591 15.659C14.0129 16.081 14.25 16.6533 14.25 17.25Z" fill="black"/>
<path fill-rule="evenodd" clip-rule="evenodd" d="M15 1.5H9C8.60218 1.5 8.22064 1.65804 7.93934 1.93934C7.65804 2.22064 7.5 2.60218 7.5 3V19.5C7.5 19.8978 7.65804 20.2794 7.93934 20.5607C8.22064 20.842 8.60218 21 9 21H15C15.3978 21 15.7794 20.842 16.0607 20.5607C16.342 20.2794 16.5 19.8978 16.5 19.5V3C16.5 2.60218 16.342 2.22064 16.0607 1.93934C15.7794 1.65804 15.3978 1.5 15 1.5ZM9 0C8.20435 0 7.44129 0.316071 6.87868 0.87868C6.31607 1.44129 6 2.20435 6 3V19.5C6 20.2956 6.31607 21.0587 6.87868 21.6213C7.44129 22.1839 8.20435 22.5 9 22.5H15C15.7956 22.5 16.5587 22.1839 17.1213 21.6213C17.6839 21.0587 18 20.2956 18 19.5V3C18 2.20435 17.6839 1.44129 17.1213 0.87868C16.5587 0.316071 15.7956 0 15 0L9 0Z" fill="black"/>
<path d="M21 3H18V6C19.8 5.4 20.7495 3.75 21 3ZM3 3H6V6C4.2 5.4 3.2505 3.75 3 3ZM21 9H18V12C19.8 11.4 20.7495 9.75 21 9ZM3 9H6V12C4.2 11.4 3.2505 9.75 3 9ZM21 15H18V18C19.8 17.4 20.7495 15.75 21 15ZM3 15H6V18C4.2 17.4 3.2505 15.75 3 15Z" fill="black"/>
</g>
<defs>
<clipPath id="clip0_1315_2571">
<rect width="24" height="24" fill="white"/>
</clipPath>
</defs>
</svg>
