<svg width="24" height="24" viewBox="0 0 24 24" fill="none" xmlns="http://www.w3.org/2000/svg">
<path fill-rule="evenodd" clip-rule="evenodd" d="M12.5761 1.83888C12.5125 1.74453 12.4268 1.66723 12.3263 1.61379C12.2259 1.56035 12.1139 1.5324 12.0001 1.5324C11.8863 1.5324 11.7743 1.56035 11.6739 1.61379C11.5734 1.66723 11.4876 1.74453 11.4241 1.83888L4.58408 11.5409C4.4906 11.6757 4.44051 11.8358 4.44051 11.9999C4.44051 12.1639 4.4906 12.3241 4.58408 12.4589L11.4241 22.1624C11.4876 22.2567 11.5734 22.334 11.6739 22.3875C11.7743 22.4409 11.8863 22.4689 12.0001 22.4689C12.1139 22.4689 12.2259 22.4409 12.3263 22.3875C12.4268 22.334 12.5125 22.2567 12.5761 22.1624L19.4161 12.4589C19.5096 12.3241 19.5597 12.1639 19.5597 11.9999C19.5597 11.8358 19.5096 11.6757 19.4161 11.5409L12.5761 1.83888ZM10.2721 0.919384C10.463 0.636624 10.7204 0.405035 11.0217 0.244933C11.3229 0.08483 11.6589 0.00110626 12.0001 0.00110626C12.3413 0.00110626 12.6772 0.08483 12.9785 0.244933C13.2798 0.405035 13.5372 0.636624 13.7281 0.919384L20.5681 10.6214C20.8494 11.026 21.0002 11.5071 21.0002 11.9999C21.0002 12.4927 20.8494 12.9737 20.5681 13.3784L13.7281 23.0804C13.5372 23.3631 13.2798 23.5947 12.9785 23.7548C12.6772 23.9149 12.3413 23.9987 12.0001 23.9987C11.6589 23.9987 11.3229 23.9149 11.0217 23.7548C10.7204 23.5947 10.463 23.3631 10.2721 23.0804L3.43208 13.3799C3.15078 12.9752 3 12.4942 3 12.0014C3 11.5086 3.15078 11.0275 3.43208 10.6229L10.2721 0.919384Z" fill="black"/>
</svg>
