<svg width="24" height="24" viewBox="0 0 24 24" fill="none" xmlns="http://www.w3.org/2000/svg">
<path d="M17.25 6.75C17.25 8.14239 16.6969 9.47774 15.7123 10.4623C14.7277 11.4469 13.3924 12 12 12C10.6076 12 9.27226 11.4469 8.28769 10.4623C7.30312 9.47774 6.75 8.14239 6.75 6.75C6.75 5.35761 7.30312 4.02226 8.28769 3.03769C9.27226 2.05312 10.6076 1.5 12 1.5C13.3924 1.5 14.7277 2.05312 15.7123 3.03769C16.6969 4.02226 17.25 5.35761 17.25 6.75Z" fill="black"/>
<path d="M12 13.5C12 14.8924 11.4469 16.2277 10.4623 17.2123C9.47774 18.1969 8.14239 18.75 6.75 18.75C5.35761 18.75 4.02226 18.1969 3.03769 17.2123C2.05312 16.2277 1.5 14.8924 1.5 13.5C1.5 12.1076 2.05312 10.7723 3.03769 9.78769C4.02226 8.80312 5.35761 8.25 6.75 8.25C8.14239 8.25 9.47774 8.80312 10.4623 9.78769C11.4469 10.7723 12 12.1076 12 13.5ZM22.5 13.5C22.5 14.8924 21.9469 16.2277 20.9623 17.2123C19.9777 18.1969 18.6424 18.75 17.25 18.75C15.8576 18.75 14.5223 18.1969 13.5377 17.2123C12.5531 16.2277 12 14.8924 12 13.5C12 12.1076 12.5531 10.7723 13.5377 9.78769C14.5223 8.80312 15.8576 8.25 17.25 8.25C18.6424 8.25 19.9777 8.80312 20.9623 9.78769C21.9469 10.7723 22.5 12.1076 22.5 13.5Z" fill="black"/>
<path d="M8.40041 21.2294C9.15041 20.0924 10.2364 18.2594 11.1454 15.9824C11.4259 15.2819 12.5689 15.2819 12.8494 15.9824C13.5875 17.8184 14.507 19.5761 15.5944 21.2294C15.9409 21.7544 15.5644 22.4999 14.9374 22.4999H9.05741C8.42891 22.4999 8.05241 21.7544 8.40041 21.2294Z" fill="black"/>
<path d="M10.5 10.5H13.5V16.5H10.5V10.5Z" fill="black"/>
</svg>
