<svg width="24" height="24" viewBox="0 0 24 24" fill="none" xmlns="http://www.w3.org/2000/svg">
<path d="M8.40041 21.2295C9.40541 19.704 11.0194 16.92 11.9974 13.5C12.9754 16.92 14.5879 19.704 15.5944 21.2295C15.9409 21.7545 15.5644 22.5 14.9374 22.5H9.05741C8.42891 22.5 8.05241 21.7545 8.40041 21.2295Z" fill="black"/>
<path d="M6.75 18.75C8.14239 18.75 9.47774 18.1969 10.4623 17.2123C11.4469 16.2277 12 14.8924 12 13.5C12 14.8924 12.5531 16.2277 13.5377 17.2123C14.5223 18.1969 15.8576 18.75 17.25 18.75C18.6424 18.75 19.9777 18.1969 20.9623 17.2123C21.9469 16.2277 22.5 14.8924 22.5 13.5C22.5 9 16.5 7.5 12 0C7.5 7.5 1.5 9 1.5 13.5C1.5 14.8924 2.05312 16.2277 3.03769 17.2123C4.02226 18.1969 5.35761 18.75 6.75 18.75Z" fill="black"/>
</svg>
