<svg width="24" height="24" viewBox="0 0 24 24" fill="none" xmlns="http://www.w3.org/2000/svg">
<path fill-rule="evenodd" clip-rule="evenodd" d="M4.5 1.5C4.10218 1.5 3.72064 1.65804 3.43934 1.93934C3.15804 2.22064 3 2.60218 3 3V9.879C3.00008 10.2768 3.15818 10.6583 3.4395 10.9395L13.9395 21.4395C14.2208 21.7207 14.6023 21.8787 15 21.8787C15.3977 21.8787 15.7792 21.7207 16.0605 21.4395L22.9395 14.5605C23.2207 14.2792 23.3787 13.8977 23.3787 13.5C23.3787 13.1023 23.2207 12.7208 22.9395 12.4395L12.4395 1.9395C12.1583 1.65818 11.7768 1.50008 11.379 1.5H4.5ZM10.5 6.75C10.5 7.04547 10.4418 7.33806 10.3287 7.61104C10.2157 7.88402 10.0499 8.13206 9.84099 8.34099C9.63206 8.54992 9.38402 8.71566 9.11104 8.82873C8.83806 8.9418 8.54547 9 8.25 9C7.95453 9 7.66195 8.9418 7.38896 8.82873C7.11598 8.71566 6.86794 8.54992 6.65901 8.34099C6.45008 8.13206 6.28434 7.88402 6.17127 7.61104C6.0582 7.33806 6 7.04547 6 6.75C6 6.15326 6.23705 5.58097 6.65901 5.15901C7.08097 4.73705 7.65326 4.5 8.25 4.5C8.84674 4.5 9.41903 4.73705 9.84099 5.15901C10.2629 5.58097 10.5 6.15326 10.5 6.75Z" fill="black"/>
<path d="M1.5 10.629C1.50008 11.0268 1.65818 11.4083 1.9395 11.6895L13.125 22.875L13.0605 22.9395C12.7792 23.2207 12.3977 23.3787 12 23.3787C11.6023 23.3787 11.2208 23.2207 10.9395 22.9395L0.4395 12.4395C0.158176 12.1583 8.49561e-05 11.7768 0 11.379L0 4.5C0 4.10218 0.158035 3.72064 0.43934 3.43934C0.720644 3.15804 1.10218 3 1.5 3V10.629Z" fill="black"/>
</svg>
