<svg width="24" height="24" viewBox="0 0 24 24" fill="none" xmlns="http://www.w3.org/2000/svg">
<g clip-path="url(#clip0_1315_2644)">
<path fill-rule="evenodd" clip-rule="evenodd" d="M2.81649 0.7665C3.07895 0.504433 3.39411 0.301137 3.74108 0.170085C4.08806 0.0390325 4.45892 -0.016784 4.8291 0.00633436C5.19927 0.0294527 5.56031 0.130978 5.88828 0.304182C6.21625 0.477386 6.50367 0.718314 6.73149 1.011L9.42399 4.47C9.91749 5.1045 10.0915 5.931 9.89649 6.711L9.07599 9.996C9.03357 10.1661 9.03586 10.3444 9.08264 10.5134C9.12942 10.6824 9.21911 10.8364 9.34299 10.9605L13.0285 14.646C13.1527 14.7701 13.307 14.86 13.4763 14.9068C13.6456 14.9535 13.8241 14.9557 13.9945 14.913L17.278 14.0925C17.6629 13.9963 18.0647 13.9888 18.4529 14.0706C18.8411 14.1525 19.2057 14.3215 19.519 14.565L22.978 17.256C24.2215 18.2235 24.3355 20.061 23.2225 21.1725L21.6715 22.7235C20.5615 23.8335 18.9025 24.321 17.356 23.7765C13.3978 22.3838 9.8039 20.1178 6.84099 17.1465C3.86992 14.184 1.6039 10.5907 0.210988 6.633C-0.332012 5.088 0.155488 3.4275 1.26549 2.3175L2.81649 0.7665ZM16.489 0.75C16.489 0.551088 16.568 0.360322 16.7087 0.21967C16.8493 0.0790176 17.0401 0 17.239 0L23.239 0C23.4379 0 23.6287 0.0790176 23.7693 0.21967C23.91 0.360322 23.989 0.551088 23.989 0.75V6.75C23.989 6.94891 23.91 7.13968 23.7693 7.28033C23.6287 7.42098 23.4379 7.5 23.239 7.5C23.0401 7.5 22.8493 7.42098 22.7087 7.28033C22.568 7.13968 22.489 6.94891 22.489 6.75V2.5605L16.27 8.781C16.1292 8.92183 15.9382 9.00095 15.739 9.00095C15.5398 9.00095 15.3488 8.92183 15.208 8.781C15.0672 8.64017 14.988 8.44916 14.988 8.25C14.988 8.05084 15.0672 7.85983 15.208 7.719L21.4285 1.5H17.239C17.0401 1.5 16.8493 1.42098 16.7087 1.28033C16.568 1.13968 16.489 0.948912 16.489 0.75Z" fill="black"/>
</g>
<defs>
<clipPath id="clip0_1315_2644">
<rect width="24" height="24" fill="white"/>
</clipPath>
</defs>
</svg>
