<svg width="24" height="24" viewBox="0 0 24 24" fill="none" xmlns="http://www.w3.org/2000/svg">
<g clip-path="url(#clip0_1315_2636)">
<path fill-rule="evenodd" clip-rule="evenodd" d="M2.81649 0.746416C3.07895 0.484349 3.39411 0.281054 3.74108 0.150001C4.08806 0.0189489 4.45892 -0.0368676 4.8291 -0.0137493C5.19927 0.00936906 5.56031 0.110894 5.88828 0.284098C6.21625 0.457303 6.50367 0.698231 6.73149 0.990916L9.42399 4.44992C9.91749 5.08442 10.0915 5.91092 9.89649 6.69092L9.07599 9.97592C9.03357 10.1461 9.03586 10.3243 9.08264 10.4933C9.12942 10.6623 9.21911 10.8163 9.34299 10.9404L13.0285 14.6259C13.1527 14.75 13.307 14.8399 13.4763 14.8867C13.6456 14.9335 13.8241 14.9356 13.9945 14.8929L17.278 14.0724C17.6629 13.9762 18.0647 13.9687 18.4529 14.0506C18.8411 14.1324 19.2057 14.3015 19.519 14.5449L22.978 17.2359C24.2215 18.2034 24.3355 20.0409 23.2225 21.1524L21.6715 22.7034C20.5615 23.8134 18.9025 24.3009 17.356 23.7564C13.3978 22.3637 9.8039 20.0977 6.84099 17.1264C3.86992 14.1639 1.6039 10.5706 0.210988 6.61292C-0.332012 5.06792 0.155488 3.40742 1.26549 2.29742L2.81649 0.746416ZM23.77 0.198916C23.8398 0.268585 23.8952 0.351348 23.9331 0.442466C23.9709 0.533584 23.9903 0.631265 23.9903 0.729916C23.9903 0.828567 23.9709 0.926249 23.9331 1.01737C23.8952 1.10848 23.8398 1.19125 23.77 1.26092L17.5495 7.47992H21.739C21.9379 7.47992 22.1287 7.55893 22.2693 7.69959C22.41 7.84024 22.489 8.031 22.489 8.22992C22.489 8.42883 22.41 8.61959 22.2693 8.76025C22.1287 8.9009 21.9379 8.97992 21.739 8.97992H15.739C15.5401 8.97992 15.3493 8.9009 15.2087 8.76025C15.068 8.61959 14.989 8.42883 14.989 8.22992V2.22992C14.989 2.031 15.068 1.84024 15.2087 1.69959C15.3493 1.55893 15.5401 1.47992 15.739 1.47992C15.9379 1.47992 16.1287 1.55893 16.2693 1.69959C16.41 1.84024 16.489 2.031 16.489 2.22992V6.41942L22.708 0.198916C22.7777 0.129072 22.8604 0.0736573 22.9515 0.0358476C23.0427 -0.00196209 23.1403 -0.0214243 23.239 -0.0214243C23.3376 -0.0214243 23.4353 -0.00196209 23.5264 0.0358476C23.6176 0.0736573 23.7003 0.129072 23.77 0.198916Z" fill="black"/>
</g>
<defs>
<clipPath id="clip0_1315_2636">
<rect width="24" height="24" fill="white"/>
</clipPath>
</defs>
</svg>
