<svg width="24" height="24" viewBox="0 0 24 24" fill="none" xmlns="http://www.w3.org/2000/svg">
<g clip-path="url(#clip0_1315_2652)">
<path fill-rule="evenodd" clip-rule="evenodd" d="M2.81649 0.785212C3.07895 0.523145 3.39411 0.319849 3.74108 0.188797C4.08806 0.0577446 4.45892 0.00192809 4.8291 0.0250464C5.19927 0.0481647 5.56031 0.14969 5.88828 0.322894C6.21625 0.496098 6.50367 0.737026 6.73149 1.02971L9.42399 4.48871C9.91749 5.12321 10.0915 5.94971 9.89649 6.72971L9.07599 10.0147C9.03357 10.1849 9.03586 10.3631 9.08264 10.5321C9.12942 10.7011 9.21911 10.8551 9.34299 10.9792L13.0285 14.6647C13.1527 14.7888 13.307 14.8787 13.4763 14.9255C13.6456 14.9723 13.8241 14.9744 13.9945 14.9317L17.278 14.1112C17.6629 14.015 18.0647 14.0075 18.4529 14.0894C18.8411 14.1712 19.2057 14.3403 19.519 14.5837L22.978 17.2747C24.2215 18.2422 24.3355 20.0797 23.2225 21.1912L21.6715 22.7422C20.5615 23.8522 18.9025 24.3397 17.356 23.7952C13.3978 22.4025 9.8039 20.1365 6.84099 17.1652C3.86992 14.2027 1.6039 10.6094 0.210988 6.65171C-0.332012 5.10671 0.155488 3.44621 1.26549 2.33621L2.81649 0.785212ZM16.708 2.48771C16.7777 2.41787 16.8604 2.36245 16.9515 2.32464C17.0427 2.28683 17.1403 2.26737 17.239 2.26737C17.3376 2.26737 17.4353 2.28683 17.5264 2.32464C17.6176 2.36245 17.7003 2.41787 17.77 2.48771L19.489 4.20821L21.208 2.48771C21.3488 2.34688 21.5398 2.26776 21.739 2.26776C21.9382 2.26776 22.1292 2.34688 22.27 2.48771C22.4108 2.62854 22.4899 2.81955 22.4899 3.01871C22.4899 3.21788 22.4108 3.40888 22.27 3.54971L20.5495 5.26871L22.27 6.98771C22.4108 7.12854 22.4899 7.31955 22.4899 7.51871C22.4899 7.71788 22.4108 7.90888 22.27 8.04971C22.1292 8.19054 21.9382 8.26966 21.739 8.26966C21.5398 8.26966 21.3488 8.19054 21.208 8.04971L19.489 6.32921L17.77 8.04971C17.7003 8.11944 17.6175 8.17476 17.5264 8.2125C17.4353 8.25024 17.3376 8.26966 17.239 8.26966C17.1404 8.26966 17.0427 8.25024 16.9516 8.2125C16.8605 8.17476 16.7777 8.11944 16.708 8.04971C16.6383 7.97998 16.5829 7.8972 16.5452 7.80609C16.5075 7.71498 16.488 7.61733 16.488 7.51871C16.488 7.4201 16.5075 7.32245 16.5452 7.23134C16.5829 7.14023 16.6383 7.05744 16.708 6.98771L18.4285 5.26871L16.708 3.54971C16.6381 3.48004 16.5827 3.39728 16.5449 3.30616C16.5071 3.21505 16.4876 3.11736 16.4876 3.01871C16.4876 2.92006 16.5071 2.82238 16.5449 2.73126C16.5827 2.64014 16.6381 2.55738 16.708 2.48771Z" fill="black"/>
</g>
<defs>
<clipPath id="clip0_1315_2652">
<rect width="24" height="24" fill="white"/>
</clipPath>
</defs>
</svg>
