<svg width="24" height="24" viewBox="0 0 24 24" fill="none" xmlns="http://www.w3.org/2000/svg">
<g clip-path="url(#clip0_1315_2675)">
<path fill-rule="evenodd" clip-rule="evenodd" d="M0 5.25C0 4.25544 0.395088 3.30161 1.09835 2.59835C1.80161 1.89509 2.75544 1.5 3.75 1.5H20.25C21.2446 1.5 22.1984 1.89509 22.9016 2.59835C23.6049 3.30161 24 4.25544 24 5.25V18.531C24 19.5256 23.6049 20.4794 22.9016 21.1827C22.1984 21.8859 21.2446 22.281 20.25 22.281H3.75C2.75544 22.281 1.80161 21.8859 1.09835 21.1827C0.395088 20.4794 0 19.5256 0 18.531L0 5.25ZM3.75 3C3.15326 3 2.58097 3.23705 2.15901 3.65901C1.73705 4.08097 1.5 4.65326 1.5 5.25V18.531C1.5 19.1277 1.73705 19.7 2.15901 20.122C2.58097 20.5439 3.15326 20.781 3.75 20.781H20.25C20.8467 20.781 21.419 20.5439 21.841 20.122C22.2629 19.7 22.5 19.1277 22.5 18.531V5.25C22.5 4.65326 22.2629 4.08097 21.841 3.65901C21.419 3.23705 20.8467 3 20.25 3H3.75ZM20.031 12.75C20.1716 12.8906 20.2506 13.0814 20.2506 13.2803C20.2506 13.4791 20.1716 13.6699 20.031 13.8105L15.531 18.3105C15.3904 18.4513 15.1996 18.5305 15.0005 18.5307C14.8015 18.5308 14.6106 18.4519 14.4697 18.3113C14.3289 18.1706 14.2497 17.9798 14.2496 17.7808C14.2494 17.5818 14.3284 17.3908 14.469 17.25L18.969 12.75C19.0387 12.6802 19.1214 12.6247 19.2126 12.5869C19.3037 12.5491 19.4013 12.5297 19.5 12.5297C19.5987 12.5297 19.6963 12.5491 19.7874 12.5869C19.8786 12.6247 19.9613 12.6802 20.031 12.75ZM20.031 16.5C20.1716 16.6406 20.2506 16.8314 20.2506 17.0303C20.2506 17.2291 20.1716 17.4199 20.031 17.5605L19.281 18.3105C19.1404 18.4513 18.9496 18.5305 18.7505 18.5307C18.5515 18.5308 18.3606 18.4519 18.2197 18.3113C18.0789 18.1706 17.9997 17.9798 17.9996 17.7808C17.9994 17.5818 18.0784 17.3908 18.219 17.25L18.969 16.5C19.0387 16.4302 19.1214 16.3747 19.2126 16.3369C19.3037 16.2991 19.4013 16.2797 19.5 16.2797C19.5987 16.2797 19.6963 16.2991 19.7874 16.3369C19.8786 16.3747 19.9613 16.4302 20.031 16.5Z" fill="black"/>
</g>
<defs>
<clipPath id="clip0_1315_2675">
<rect width="24" height="24" fill="white"/>
</clipPath>
</defs>
</svg>
