<svg width="24" height="24" viewBox="0 0 24 24" fill="none" xmlns="http://www.w3.org/2000/svg">
<path fill-rule="evenodd" clip-rule="evenodd" d="M9 3C9 2.20435 9.31607 1.44129 9.87868 0.87868C10.4413 0.316071 11.2044 0 12 0C12.7956 0 13.5587 0.316071 14.1213 0.87868C14.6839 1.44129 15 2.20435 15 3V14.4405C15.9172 15.0792 16.6067 15.9939 16.9681 17.0516C17.3294 18.1093 17.3438 19.2547 17.0091 20.3211C16.6744 21.3875 16.0081 22.3192 15.1071 22.9807C14.2062 23.6422 13.1177 23.9989 12 23.9989C10.8823 23.9989 9.79378 23.6422 8.89285 22.9807C7.99193 22.3192 7.32562 21.3875 6.99092 20.3211C6.65622 19.2547 6.67059 18.1093 7.03194 17.0516C7.39329 15.9939 8.08276 15.0792 9 14.4405V3ZM12 1.5C11.6022 1.5 11.2206 1.65804 10.9393 1.93934C10.658 2.22064 10.5 2.60217 10.5 3V14.8515C10.5 14.9831 10.4653 15.1125 10.3995 15.2265C10.3337 15.3405 10.239 15.4352 10.125 15.501C9.40823 15.9127 8.84763 16.5497 8.53043 17.313C8.21323 18.0763 8.15722 18.9231 8.37111 19.7215C8.58501 20.5199 9.05682 21.2253 9.71312 21.7278C10.3694 22.2303 11.1734 22.5018 12 22.5C12.826 22.5005 13.629 22.2284 14.2844 21.7258C14.9398 21.2231 15.411 20.5182 15.6247 19.7204C15.8384 18.9226 15.7828 18.0765 15.4664 17.3136C15.15 16.5506 14.5906 15.9134 13.875 15.501C13.761 15.4352 13.6663 15.3405 13.6005 15.2265C13.5347 15.1125 13.5 14.9831 13.5 14.8515V3C13.5 2.60217 13.342 2.22064 13.0607 1.93934C12.7794 1.65804 12.3978 1.5 12 1.5Z" fill="black"/>
<path d="M12.375 3C12.375 2.90054 12.3355 2.80516 12.2652 2.73484C12.1948 2.66451 12.0995 2.625 12 2.625C11.9005 2.625 11.8052 2.66451 11.7348 2.73484C11.6645 2.80516 11.625 2.90054 11.625 3V16.53C11.8733 16.4884 12.1267 16.4884 12.375 16.53V3Z" fill="black"/>
<path d="M14.25 18.75C14.25 19.3467 14.0129 19.919 13.591 20.341C13.169 20.7629 12.5967 21 12 21C11.4033 21 10.831 20.7629 10.409 20.341C9.98705 19.919 9.75 19.3467 9.75 18.75C9.75 18.1533 9.98705 17.581 10.409 17.159C10.831 16.7371 11.4033 16.5 12 16.5C12.5967 16.5 13.169 16.7371 13.591 17.159C14.0129 17.581 14.25 18.1533 14.25 18.75Z" fill="black"/>
</svg>
