<svg width="24" height="24" viewBox="0 0 24 24" fill="none" xmlns="http://www.w3.org/2000/svg">
<path fill-rule="evenodd" clip-rule="evenodd" d="M3 6C3 5.20435 3.31607 4.44129 3.87868 3.87868C4.44129 3.31607 5.20435 3 6 3H18C18.7956 3 19.5587 3.31607 20.1213 3.87868C20.6839 4.44129 21 5.20435 21 6C21 6.79565 20.6839 7.55871 20.1213 8.12132C19.5587 8.68393 18.7956 9 18 9H6C5.20435 9 4.44129 8.68393 3.87868 8.12132C3.31607 7.55871 3 6.79565 3 6ZM6 4.5C5.60218 4.5 5.22064 4.65804 4.93934 4.93934C4.65804 5.22064 4.5 5.60218 4.5 6C4.5 6.39782 4.65804 6.77936 4.93934 7.06066C5.22064 7.34196 5.60218 7.5 6 7.5H18C18.3978 7.5 18.7794 7.34196 19.0607 7.06066C19.342 6.77936 19.5 6.39782 19.5 6C19.5 5.60218 19.342 5.22064 19.0607 4.93934C18.7794 4.65804 18.3978 4.5 18 4.5H6Z" fill="black"/>
<path d="M21 6C21 7.5913 20.3679 9.11742 19.2426 10.2426C18.1174 11.3679 16.5913 12 15 12C13.4087 12 11.8826 11.3679 10.7574 10.2426C9.63214 9.11742 9 7.5913 9 6C9 4.4087 9.63214 2.88258 10.7574 1.75736C11.8826 0.632141 13.4087 0 15 0C16.5913 0 18.1174 0.632141 19.2426 1.75736C20.3679 2.88258 21 4.4087 21 6Z" fill="black"/>
<path fill-rule="evenodd" clip-rule="evenodd" d="M14.1973 15H17.9998C18.7954 15 19.5585 15.3161 20.1211 15.8787C20.6837 16.4413 20.9998 17.2044 20.9998 18C20.9998 18.7956 20.6837 19.5587 20.1211 20.1213C19.5585 20.6839 18.7954 21 17.9998 21H14.1973C14.7073 20.118 14.9998 19.0935 14.9998 18C14.9998 16.9065 14.7073 15.882 14.1973 15Z" fill="black"/>
<path fill-rule="evenodd" clip-rule="evenodd" d="M9 22.5C7.80653 22.5 6.66193 22.0259 5.81802 21.182C4.97411 20.3381 4.5 19.1935 4.5 18C4.5 16.8065 4.97411 15.6619 5.81802 14.818C6.66193 13.9741 7.80653 13.5 9 13.5C10.1935 13.5 11.3381 13.9741 12.182 14.818C13.0259 15.6619 13.5 16.8065 13.5 18C13.5 19.1935 13.0259 20.3381 12.182 21.182C11.3381 22.0259 10.1935 22.5 9 22.5ZM9 24C7.4087 24 5.88258 23.3679 4.75736 22.2426C3.63214 21.1174 3 19.5913 3 18C3 16.4087 3.63214 14.8826 4.75736 13.7574C5.88258 12.6321 7.4087 12 9 12C10.5913 12 12.1174 12.6321 13.2426 13.7574C14.3679 14.8826 15 16.4087 15 18C15 19.5913 14.3679 21.1174 13.2426 22.2426C12.1174 23.3679 10.5913 24 9 24Z" fill="black"/>
</svg>
