<svg width="24" height="24" viewBox="0 0 24 24" fill="none" xmlns="http://www.w3.org/2000/svg">
<g clip-path="url(#clip0_1315_2733)">
<path fill-rule="evenodd" clip-rule="evenodd" d="M12.0986 3.02393C12.1329 3.0445 12.1609 3.07407 12.1796 3.10943L22.4651 20.6099C22.5191 20.6999 22.5176 20.7959 22.4681 20.8844C22.4491 20.9208 22.4212 20.9517 22.3871 20.9744C22.3574 20.9927 22.3229 21.0016 22.2881 20.9999L12.0041 20.9744V2.99993C12.0371 2.9998 12.0696 3.00805 12.0986 3.02393ZM10.5341 2.34893C10.6825 2.09027 10.8966 1.87538 11.1547 1.72594C11.4128 1.5765 11.7058 1.4978 12.0041 1.4978C12.3023 1.4978 12.5953 1.5765 12.8534 1.72594C13.1115 1.87538 13.3256 2.09027 13.4741 2.34893L23.7596 19.8494C24.4451 21.0164 23.6216 22.4999 22.2896 22.4999H1.71705C0.383553 22.4999 -0.438447 21.0149 0.247053 19.8494L10.5341 2.34893Z" fill="black"/>
</g>
<defs>
<clipPath id="clip0_1315_2733">
<rect width="24" height="24" fill="white"/>
</clipPath>
</defs>
</svg>
