<svg width="24" height="24" viewBox="0 0 24 24" fill="none" xmlns="http://www.w3.org/2000/svg">
<path d="M12.788 19.7462C9.55847 19.7462 7.40447 18.0857 7.23047 15.5312H9.07547C9.29147 17.1212 10.769 18.0857 12.8915 18.0857C14.9015 18.0857 16.3565 17.0282 16.3565 15.5732C16.3565 14.3327 15.536 13.5122 13.4855 13.0607L12.0665 12.7502H17.2415C17.9435 13.4057 18.254 14.2412 18.254 15.2957C18.254 18.0347 16.1 19.7462 12.788 19.7462ZM9.90047 9.75024H7.74797C7.646 9.37893 7.59602 8.99527 7.59947 8.61024C7.59947 6.16974 9.75347 4.45824 12.8195 4.45824C15.773 4.45824 17.9045 6.22074 17.987 8.73324H16.142C15.977 7.11324 14.696 6.11874 12.767 6.11874C10.922 6.11874 9.49697 7.02174 9.49697 8.52924C9.49697 8.99424 9.62147 9.40074 9.90197 9.75024H9.90047Z" fill="black"/>
<path fill-rule="evenodd" clip-rule="evenodd" d="M22.5 12.75H1.5V11.25H22.5V12.75Z" fill="black"/>
</svg>
