<svg width="24" height="24" viewBox="0 0 24 24" fill="none" xmlns="http://www.w3.org/2000/svg">
<path fill-rule="evenodd" clip-rule="evenodd" d="M15.9689 0.968876C16.0385 0.899031 16.1213 0.843617 16.2124 0.805807C16.3035 0.767997 16.4012 0.748535 16.4999 0.748535C16.5985 0.748535 16.6962 0.767997 16.7873 0.805807C16.8784 0.843617 16.9612 0.899031 17.0309 0.968876L23.0309 6.96888C23.1007 7.03854 23.1561 7.12131 23.1939 7.21243C23.2317 7.30354 23.2512 7.40122 23.2512 7.49988C23.2512 7.59853 23.2317 7.69621 23.1939 7.78733C23.1561 7.87844 23.1007 7.96121 23.0309 8.03088L20.1779 10.8839L18.9344 15.8534C18.8398 16.2318 18.6485 16.5791 18.3792 16.8613C18.1099 17.1434 17.7719 17.3507 17.3984 17.4629L1.88086 22.1189L6.53686 6.59988C6.64909 6.22677 6.85628 5.88919 7.13815 5.62021C7.42002 5.35122 7.76691 5.16004 8.14486 5.06538L13.1144 3.82338L15.9689 0.968876ZM13.2689 5.33088L8.50936 6.52038C8.38302 6.55191 8.26706 6.61579 8.17291 6.70574C8.07875 6.79569 8.00963 6.90861 7.97236 7.03338L4.11736 19.8809L16.9679 16.0259C17.0919 15.9883 17.2041 15.9192 17.2934 15.8254C17.3828 15.7315 17.4464 15.6161 17.4779 15.4904L18.6689 10.7294L13.2689 5.32938V5.33088Z" fill="black"/>
<path fill-rule="evenodd" clip-rule="evenodd" d="M4.24814 19.842L12.0001 13.5C12.2968 13.5 12.5868 13.412 12.8335 13.2472C13.0802 13.0824 13.2724 12.8481 13.386 12.574C13.4995 12.2999 13.5292 11.9983 13.4713 11.7074C13.4134 11.4164 13.2706 11.1491 13.0608 10.9393C12.851 10.7296 12.5837 10.5867 12.2928 10.5288C12.0018 10.4709 11.7002 10.5006 11.4261 10.6142C11.152 10.7277 10.9178 10.92 10.7529 11.1666C10.5881 11.4133 10.5001 11.7033 10.5001 12L4.15814 19.752L4.11914 19.881L4.24814 19.842Z" fill="black"/>
</svg>
