<svg width="24" height="24" viewBox="0 0 24 24" fill="none" xmlns="http://www.w3.org/2000/svg">
<path fill-rule="evenodd" clip-rule="evenodd" d="M13.0755 5.3249C13.2026 5.38612 13.3098 5.48192 13.3849 5.60132C13.46 5.72071 13.4999 5.85886 13.5 5.9999V17.9999C13.4998 18.141 13.4598 18.2792 13.3846 18.3986C13.3093 18.518 13.2019 18.6138 13.0747 18.6749C12.9475 18.736 12.8056 18.76 12.6654 18.744C12.5252 18.7281 12.3923 18.673 12.282 18.5849L8.7375 15.7499H5.25C5.05109 15.7499 4.86032 15.6709 4.71967 15.5302C4.57902 15.3896 4.5 15.1988 4.5 14.9999V8.9999C4.5 8.80099 4.57902 8.61023 4.71967 8.46957C4.86032 8.32892 5.05109 8.2499 5.25 8.2499H8.7375L12.282 5.4149C12.3924 5.32669 12.5254 5.27143 12.6658 5.25551C12.8062 5.23959 12.9482 5.26364 13.0755 5.3249ZM12 7.5599L9.468 9.5849C9.33524 9.69141 9.1702 9.7496 9 9.7499H6V14.2499H9C9.1702 14.2502 9.33524 14.3084 9.468 14.4149L12 16.4399V7.5599Z" fill="black"/>
<path d="M16.0605 16.7728C16.6882 16.1467 17.186 15.4027 17.5253 14.5836C17.8646 13.7645 18.0387 12.8864 18.0375 11.9998C18.0387 11.1132 17.8646 10.2351 17.5253 9.41602C17.186 8.59691 16.6882 7.85292 16.0605 7.22681L15 8.28731C15.4882 8.77431 15.8754 9.353 16.1393 9.99012C16.4031 10.6272 16.5385 11.3102 16.5375 11.9998C16.5375 13.4488 15.9495 14.7613 15 15.7123L16.0605 16.7728Z" fill="black"/>
</svg>
