<svg width="24" height="24" viewBox="0 0 24 24" fill="none" xmlns="http://www.w3.org/2000/svg">
<path d="M19.8414 12.4065C20.1654 12.0825 20.1324 11.5395 19.7469 11.289C17.4404 9.79088 14.7482 8.99561 11.9979 9.00002C9.14037 9.00002 6.47787 9.84002 4.24887 11.289C4.1597 11.3492 4.08515 11.4286 4.03069 11.5214C3.97624 11.6142 3.94327 11.718 3.9342 11.8252C3.92514 11.9324 3.94021 12.0402 3.97831 12.1408C4.01641 12.2414 4.07657 12.3322 4.15437 12.4065C4.28218 12.5313 4.44859 12.6089 4.62629 12.6266C4.804 12.6443 4.98245 12.6011 5.13237 12.504C7.18141 11.1916 9.56457 10.496 11.9979 10.5C14.4312 10.496 16.8143 11.1916 18.8634 12.504C19.1709 12.702 19.5834 12.666 19.8414 12.4065ZM16.5669 15.681C16.9059 15.342 16.8444 14.7735 16.4169 14.556C15.0481 13.8595 13.5337 13.4976 11.9979 13.5C10.4079 13.5 8.90487 13.881 7.57887 14.556C7.15137 14.7735 7.08987 15.342 7.42887 15.681L7.45137 15.7035C7.69137 15.9435 8.06337 15.9885 8.36787 15.8385C9.49771 15.2848 10.7396 14.9979 11.9979 15C13.2999 15 14.5329 15.3015 15.6279 15.84C15.9324 15.99 16.3029 15.945 16.5444 15.7035L16.5669 15.681ZM13.5879 18.66C13.8819 18.366 13.8849 17.88 13.5279 17.67C13.0651 17.3946 12.5364 17.2494 11.9979 17.25C11.4593 17.2494 10.9306 17.3946 10.4679 17.67C10.1109 17.88 10.1139 18.366 10.4079 18.66L11.4669 19.719C11.5365 19.7889 11.6193 19.8443 11.7104 19.8821C11.8015 19.9199 11.8992 19.9394 11.9979 19.9394C12.0965 19.9394 12.1942 19.9199 12.2853 19.8821C12.3764 19.8443 12.4592 19.7889 12.5289 19.719L13.5894 18.6585L13.5879 18.66Z" fill="black"/>
</svg>
