<svg width="24" height="24" viewBox="0 0 24 24" fill="none" xmlns="http://www.w3.org/2000/svg">
<path d="M16.5688 15.681C16.9078 15.342 16.8463 14.7735 16.4188 14.556C15.05 13.8595 13.5356 13.4976 11.9998 13.5C10.4098 13.5 8.90679 13.881 7.58079 14.556C7.15329 14.7735 7.09179 15.342 7.43079 15.681L7.45329 15.7035C7.69329 15.9435 8.06379 15.9885 8.36979 15.8385C9.49963 15.2848 10.7415 14.9979 11.9998 15C13.3018 15 14.5348 15.3015 15.6298 15.84C15.9343 15.99 16.3048 15.945 16.5463 15.7035L16.5688 15.681ZM13.5898 18.66C13.8838 18.366 13.8868 17.88 13.5298 17.67C13.067 17.3946 12.5383 17.2494 11.9998 17.25C11.4612 17.2494 10.9326 17.3946 10.4698 17.67C10.1128 17.88 10.1158 18.366 10.4098 18.66L11.4688 19.719C11.6094 19.8596 11.8002 19.9386 11.999 19.9386C12.1979 19.9386 12.3886 19.8596 12.5293 19.719L13.5913 18.6585L13.5898 18.66Z" fill="black"/>
</svg>
