<svg width="75" height="70" viewBox="0 0 75 70" fill="none" xmlns="http://www.w3.org/2000/svg">
<path d="M62.5061 28.7473C66.0392 28.7457 69.4061 27.249 71.7746 24.6271C74.1436 22.0059 75.2921 18.5047 74.9367 14.9899C74.5817 11.4748 72.7557 8.27417 69.9106 6.17978C67.0656 4.08539 63.4666 3.29235 60.0048 3.99781C56.7094 3.32647 53.2822 4.01121 50.4974 5.89748C47.7132 7.78372 45.8057 10.7124 45.2069 14.0217C41.6654 12.1964 37.7388 11.2443 33.7541 11.2465C19.9681 11.2465 8.75244 22.4619 8.75244 36.2477C8.75244 50.0336 19.9681 61.249 33.7541 61.249C47.5402 61.249 58.7558 50.0336 58.7558 36.2477C58.7592 33.703 58.3724 31.1728 57.6101 28.7445C58.4137 28.7389 59.2157 28.6558 60.0037 28.4961C60.8274 28.663 61.6657 28.7473 62.5062 28.7473L62.5061 28.7473ZM72.5068 16.2467C72.504 18.3551 71.836 20.4082 70.5982 22.1147C69.3604 23.8212 67.6159 25.0937 65.6129 25.7505C68.4005 23.3804 70.0066 19.9059 70.0066 16.2467C70.0066 12.5875 68.4005 9.11293 65.6129 6.74295C67.6159 7.3998 69.3603 8.67219 70.5982 10.3787C71.836 12.0852 72.5041 14.1383 72.5068 16.2467ZM57.5058 6.24621C60.1582 6.24621 62.702 7.29984 64.5771 9.1755C66.4528 11.0506 67.5064 13.5943 67.5064 16.2467C67.5064 18.8991 66.4528 21.4428 64.5771 23.3179C62.702 25.1936 60.1582 26.2472 57.5058 26.2472C54.8533 26.2472 52.3095 25.1936 50.4344 23.3179C48.5587 21.4428 47.5051 18.8991 47.5051 16.2467C47.5079 13.5953 48.5626 11.0533 50.4377 9.17879C52.3123 7.3037 54.8543 6.24893 57.5058 6.24621ZM46.236 34.9977C45.9982 26.3137 43.3139 20.4941 41.0442 17.0953C40.4019 16.1304 39.692 15.2124 38.9208 14.3475C41.0609 14.8497 43.1152 15.6645 45.0183 16.7662C45.1366 19.5313 46.1685 22.1794 47.9515 24.2961C49.7345 26.4128 52.169 27.8794 54.8739 28.466C55.6474 30.5639 56.1011 32.7654 56.2205 34.9977H46.236ZM32.5041 14.048V34.9977H23.7736C24.0052 27.023 26.4189 21.7074 28.4614 18.6068C30.0417 16.2083 31.6373 14.7439 32.5041 14.0475V14.048ZM32.5041 37.4978V58.4246C30.9398 57.0824 29.5803 55.5181 28.4698 53.782C24.9043 48.3208 23.9159 42.1163 23.7736 37.4984L32.5041 37.4978ZM35.0042 58.4246V37.4978H43.7341C43.4986 45.3308 41.0826 50.6502 39.0385 53.7815C37.9279 55.5176 36.5685 57.0819 35.0042 58.4246ZM35.0042 34.9977V14.048C35.8709 14.7445 37.4664 16.2089 39.0469 18.6074C42.6119 24.0178 43.5958 30.3006 43.7358 34.9982L35.0042 34.9977ZM28.5892 14.3466C27.8169 15.2122 27.107 16.1307 26.4641 17.0968C24.1943 20.4954 21.5106 26.3144 21.2723 34.9991H11.2872C11.8425 24.9239 19.0544 16.5953 28.5898 14.3466H28.5892ZM11.288 37.4978H21.2732C21.5148 46.0284 24.1952 51.8485 26.4609 55.2773C27.1306 56.2929 27.8712 57.2595 28.6777 58.1703C19.0994 55.9536 11.8451 47.6033 11.2879 37.4978H11.288ZM38.8313 58.1703C39.6378 57.2595 40.3783 56.2923 41.0481 55.2767C43.3138 51.8474 45.9943 46.0274 46.2358 37.4972H56.221C55.6646 47.6037 48.4096 55.9539 38.8312 58.1711L38.8313 58.1703Z" fill="#4F4F4F"/>
<path d="M33.754 69.9995C39.6786 69.9995 45.4992 68.4397 50.6295 65.4776C55.7597 62.5154 60.0212 58.2545 62.9836 53.1237C65.9459 47.9928 67.5056 42.1723 67.5056 36.2485C67.5056 35.5582 66.9458 34.9985 66.2555 34.9985C65.5652 34.9985 65.0054 35.5582 65.0054 36.2485C65.0054 53.4808 50.9855 67.5001 33.7533 67.5001C16.5211 67.5001 2.50118 53.4804 2.50118 36.2485C2.50118 20.0663 14.8653 6.71705 30.6431 5.15126L30.5599 5.2065C30.282 5.38954 30.0889 5.67584 30.0225 6.0023C29.9567 6.3282 30.0231 6.66695 30.2078 6.94375C30.392 7.22055 30.6794 7.41252 31.0058 7.4767C31.3323 7.54144 31.6711 7.4728 31.9467 7.28697L35.697 4.78684C36.0447 4.55469 36.2534 4.16459 36.2534 3.74662C36.2534 3.32864 36.0447 2.93855 35.697 2.70639L31.9467 0.206266C31.3725 -0.172096 30.6001 -0.0152879 30.2189 0.556727C29.8372 1.12874 29.9895 1.90222 30.5599 2.28667L31.0382 2.60533C22.4276 3.30012 14.4113 7.26956 8.6395 13.6963C2.86797 20.1235 -0.219956 28.5185 0.0122027 37.1546C0.243804 45.7895 3.77803 54.0069 9.88616 60.1144C13.0131 63.2585 16.7326 65.7508 20.8295 67.4479C24.9258 69.1444 29.3183 70.0122 33.7528 69.9999L33.754 69.9995Z" fill="#4F4F4F"/>
<path d="M57.5056 19.9971H55.0055C54.3151 19.9971 53.7554 20.5569 53.7554 21.2472C53.7554 21.9375 54.3151 22.4973 55.0055 22.4973H56.2555C56.2555 23.1876 56.8153 23.7473 57.5056 23.7473C58.196 23.7473 58.7557 23.1876 58.7557 22.4973V22.2824C59.8763 21.8856 60.7424 20.981 61.0902 19.8443C61.4378 18.7075 61.2263 17.473 60.5192 16.5171C59.8127 15.5617 58.6944 14.9975 57.5056 14.9969C56.8153 14.9969 56.2555 14.4372 56.2555 13.7468C56.2555 13.0565 56.8153 12.4968 57.5056 12.4968H60.0058C60.6961 12.4968 61.2559 11.937 61.2559 11.2467C61.2559 10.5564 60.6961 9.99665 60.0058 9.99665H58.7557C58.7557 9.30632 58.1959 8.74658 57.5056 8.74658C56.8153 8.74658 56.2555 9.30632 56.2555 9.99665V10.2115C55.1349 10.6083 54.2688 11.5129 53.9211 12.6496C53.5734 13.7864 53.7849 15.0209 54.492 15.9768C55.1985 16.9322 56.3168 17.4964 57.5056 17.497C58.196 17.497 58.7557 18.0568 58.7557 18.7471C58.7557 19.4374 58.196 19.9971 57.5056 19.9971Z" fill="#4F4F4F"/>
</svg>
