<svg width="24" height="24" viewBox="0 0 24 24" fill="none" xmlns="http://www.w3.org/2000/svg">
<g clip-path="url(#clip0_1315_2865)">
<path fill-rule="evenodd" clip-rule="evenodd" d="M10.4193 0.6525C11.2893 -0.2175 12.6993 -0.2175 13.5693 0.6525L23.3418 10.4265C24.2118 11.2965 24.2118 12.705 23.3418 13.5735L13.5693 23.3475C12.6993 24.2175 11.2908 24.2175 10.4223 23.3475L0.646846 13.575C0.439941 13.3685 0.27579 13.1233 0.16379 12.8533C0.0517905 12.5832 -0.00585938 12.2938 -0.00585938 12.0015C-0.00585938 11.7092 0.0517905 11.4198 0.16379 11.1497C0.27579 10.8797 0.439941 10.6345 0.646846 10.428L10.4193 0.6525ZM12.5193 1.7025C12.3801 1.56327 12.1913 1.48505 11.9943 1.48505C11.7974 1.48505 11.6086 1.56327 11.4693 1.7025L1.69535 11.475C1.55612 11.6142 1.4779 11.8031 1.4779 12C1.4779 12.1969 1.55612 12.3858 1.69535 12.525L11.4693 22.299C11.6086 22.4382 11.7974 22.5164 11.9943 22.5164C12.1913 22.5164 12.3801 22.4382 12.5193 22.299L22.2933 12.525C22.4326 12.3858 22.5108 12.1969 22.5108 12C22.5108 11.8031 22.4326 11.6142 22.2933 11.475L12.5193 1.701V1.7025Z" fill="black"/>
<path fill-rule="evenodd" clip-rule="evenodd" d="M12.539 1.75472C12.468 1.68352 12.3835 1.62703 12.2906 1.58848C12.1977 1.54994 12.0981 1.5301 11.9975 1.5301C11.8969 1.5301 11.7973 1.54994 11.7044 1.58848C11.6115 1.62703 11.5271 1.68352 11.456 1.75472L7.14651 6.06572L11.9975 10.9167L16.8485 6.06572L12.539 1.75472ZM17.9315 7.14872L13.0805 11.9997L17.9315 16.8507L22.241 12.5412C22.541 12.2412 22.541 11.7567 22.241 11.4582L17.9315 7.14872ZM16.8485 17.9337L11.9975 13.0827L7.14651 17.9337L11.456 22.2432C11.756 22.5432 12.2405 22.5432 12.539 22.2432L16.8485 17.9337ZM6.06351 16.8507L10.9145 11.9997L6.06351 7.14872L1.75251 11.4582C1.60907 11.6019 1.5285 11.7967 1.5285 11.9997C1.5285 12.2028 1.60907 12.3975 1.75251 12.5412L6.06351 16.8507ZM10.373 0.674724C10.5863 0.461285 10.8395 0.291967 11.1183 0.176446C11.397 0.0609246 11.6958 0.00146484 11.9975 0.00146484C12.2992 0.00146484 12.598 0.0609246 12.8768 0.176446C13.1555 0.291967 13.4087 0.461285 13.622 0.674724L23.3255 10.3767C23.7562 10.8076 23.9981 11.392 23.9981 12.0012C23.9981 12.6105 23.7562 13.1948 23.3255 13.6257L13.6205 23.3292C13.1896 23.7595 12.6056 24.0011 11.9968 24.0011C11.3879 24.0011 10.8039 23.7595 10.373 23.3292L0.672509 13.6227C0.241905 13.1921 0 12.608 0 11.999C0 11.39 0.241905 10.8059 0.672509 10.3752L10.373 0.674724Z" fill="black"/>
</g>
<defs>
<clipPath id="clip0_1315_2865">
<rect width="24" height="24" fill="white"/>
</clipPath>
</defs>
</svg>
