<svg width="31" height="31" viewBox="0 0 31 31" fill="none" xmlns="http://www.w3.org/2000/svg">
<path fill-rule="evenodd" clip-rule="evenodd" d="M21.3535 14.0261H6.88033C6.1904 14.0261 5.6311 14.597 5.6311 15.3012C5.6311 16.0054 6.1904 16.5763 6.88033 16.5763H21.3535L14.7415 23.3253C14.2537 23.8233 14.2537 24.6306 14.7415 25.1286C15.2294 25.6265 16.0204 25.6265 16.5082 25.1286L25.2517 16.2039C25.2548 16.2008 25.2578 16.1976 25.2609 16.1945C25.3766 16.0742 25.4643 15.9363 25.5239 15.7893C25.5849 15.6389 25.6187 15.4741 25.6187 15.3012C25.6187 15.1283 25.5849 14.9634 25.5239 14.8131C25.4629 14.6627 25.3725 14.5218 25.2528 14.3996L16.5082 5.47381C16.0204 4.97585 15.2294 4.97585 14.7415 5.47381C14.2537 5.97177 14.2537 6.77912 14.7415 7.27708L21.3535 14.0261Z" fill="#47b24d"/>
</svg>
