<?xml version="1.0" encoding="utf-8"?>
<!-- Generator: Adobe Illustrator 26.5.0, SVG Export Plug-In . SVG Version: 6.00 Build 0)  -->
<svg width="24" height="24" version="1.1" id="Layer_1" xmlns="http://www.w3.org/2000/svg" xmlns:xlink="http://www.w3.org/1999/xlink" x="0px" y="0px"
	 viewBox="0 0 20 20" style="enable-background:new 0 0 20 20;" xml:space="preserve">
<style type="text/css">
	.st0{fill-rule:evenodd;clip-rule:evenodd;fill:#b76a2e;}
</style>
<path class="st0" d="M19.1,10V9.2c0-0.5-0.3-0.8-0.8-0.8c-0.5,0-0.8,0.3-0.8,0.8V10c0,4.3-3.5,7.7-7.8,7.7S1.8,14.3,1.8,10
	s3.5-7.8,7.8-7.8c1.2,0,2.2,0.2,3.2,0.7c0.4,0.2,0.9,0,1.2-0.4c0.2-0.4,0-0.9-0.4-1.1C12.3,0.8,11,0.6,9.7,0.6C4.2,0.5,0,4.7,0,10
	s4.2,9.5,9.6,9.5C14.8,19.5,19.1,15.2,19.1,10z M18.5,1.7c0.3-0.3,0.8-0.3,1.2,0c0.3,0.3,0.3,0.8,0,1.2l-9.6,9.5
	c-0.2,0.2-0.4,0.2-0.6,0.2c-0.2,0-0.4-0.1-0.6-0.2L6.4,9.8c-0.3-0.3-0.3-0.8,0-1.2c0.3-0.3,0.8-0.3,1.2,0l2,2L18.5,1.7z"/>
</svg>
