<svg width="40" height="41" viewBox="0 0 40 41" fill="none" xmlns="http://www.w3.org/2000/svg">
<rect y="0.933594" width="40" height="40" rx="20" fill="url(#paint0_linear_53455_31437)"/>
<path d="M20.0027 14.7803C16.5974 14.7803 13.8508 17.5276 13.8508 20.9336C13.8508 24.3396 16.5974 27.0869 20.0027 27.0869C23.4079 27.0869 26.1546 24.3396 26.1546 20.9336C26.1546 17.5276 23.4079 14.7803 20.0027 14.7803ZM20.0027 24.934C17.8021 24.934 16.0031 23.14 16.0031 20.9336C16.0031 18.7272 17.7968 16.9331 20.0027 16.9331C22.2086 16.9331 24.0022 18.7272 24.0022 20.9336C24.0022 23.14 22.2032 24.934 20.0027 24.934ZM27.8412 14.5286C27.8412 15.3265 27.1987 15.9638 26.4062 15.9638C25.6085 15.9638 24.9713 15.3212 24.9713 14.5286C24.9713 13.736 25.6138 13.0934 26.4062 13.0934C27.1987 13.0934 27.8412 13.736 27.8412 14.5286ZM31.9157 15.9853C31.8247 14.0627 31.3856 12.3597 29.9775 10.9566C28.5747 9.55348 26.8721 9.11434 24.9499 9.01794C22.9689 8.90548 17.0311 8.90548 15.0501 9.01794C13.1333 9.10898 11.4307 9.54812 10.0225 10.9512C8.61439 12.3543 8.1807 14.0573 8.08433 15.9799C7.97189 17.9614 7.97189 23.9005 8.08433 25.8819C8.17535 27.8045 8.61439 29.5075 10.0225 30.9106C11.4307 32.3137 13.1279 32.7528 15.0501 32.8492C17.0311 32.9617 22.9689 32.9617 24.9499 32.8492C26.8721 32.7582 28.5747 32.3191 29.9775 30.9106C31.3803 29.5075 31.8193 27.8045 31.9157 25.8819C32.0281 23.9005 32.0281 17.9667 31.9157 15.9853ZM29.3564 28.008C28.9388 29.0577 28.1303 29.8663 27.0755 30.2894C25.496 30.916 21.7481 30.7714 20.0027 30.7714C18.2572 30.7714 14.504 30.9106 12.9298 30.2894C11.8804 29.8717 11.0719 29.063 10.649 28.008C10.0225 26.4282 10.1671 22.6794 10.1671 20.9336C10.1671 19.1877 10.0279 15.4336 10.649 13.8592C11.0666 12.8095 11.8751 12.0009 12.9298 11.5778C14.5093 10.9512 18.2572 11.0958 20.0027 11.0958C21.7481 11.0958 25.5014 10.9566 27.0755 11.5778C28.1249 11.9955 28.9334 12.8042 29.3564 13.8592C29.9828 15.439 29.8383 19.1877 29.8383 20.9336C29.8383 22.6794 29.9828 26.4335 29.3564 28.008Z" fill="white"/>
<defs>
<linearGradient id="paint0_linear_53455_31437" x1="-7.80329e-07" y1="46.8159" x2="44.1176" y2="0.933595" gradientUnits="userSpaceOnUse">
<stop stop-color="#FFD54F"/>
<stop offset="0.2136" stop-color="#FF6F00"/>
<stop offset="0.495" stop-color="#FF1744"/>
<stop offset="0.7462" stop-color="#8E24AA"/>
<stop offset="1" stop-color="#889AFF"/>
</linearGradient>
</defs>
</svg>
