<svg width="40" height="41" viewBox="0 0 40 41" fill="none" xmlns="http://www.w3.org/2000/svg">
<rect y="0.933594" width="40" height="40" rx="20" fill="#007AB9"/>
<path d="M31.9499 22.5421V30.7877H27.1694V23.0947C27.1694 21.1631 26.4792 19.8439 24.7483 19.8439C23.4274 19.8439 22.6427 20.732 22.2961 21.592C22.1703 21.8993 22.1378 22.326 22.1378 22.7571V30.7873H17.3569C17.3569 30.7873 17.4211 17.758 17.3569 16.4092H22.1382V18.4468C22.1286 18.4628 22.115 18.4785 22.1064 18.4938H22.1382V18.4468C22.7735 17.4692 23.9065 16.0716 26.4467 16.0716C29.5919 16.0716 31.9499 18.1266 31.9499 22.5421ZM12.3557 9.47852C10.7203 9.47852 9.65039 10.552 9.65039 11.9624C9.65039 13.3428 10.6893 14.4473 12.2929 14.4473H12.3239C13.9914 14.4473 15.0281 13.3428 15.0281 11.9624C14.9964 10.552 13.9914 9.47852 12.3557 9.47852ZM9.93454 30.7877H14.7137V16.4092H9.93454V30.7877Z" fill="#F1F2F2"/>
</svg>
