<svg width="40" height="41" viewBox="0 0 40 41" fill="none" xmlns="http://www.w3.org/2000/svg">
<rect y="0.933594" width="40" height="40" rx="20" fill="black"/>
<path d="M30.8834 15.3968L30.8587 19.4942C30.0603 19.4844 29.266 19.3778 28.4932 19.1768C27.3009 18.8653 26.1765 18.3364 25.1764 17.6165C25.1764 18.0354 25.1823 18.6603 25.1823 19.4202C25.1823 20.4315 25.1823 21.0062 25.1764 21.6163C25.1587 25.3855 25.2523 26.1148 24.9211 27.6052C24.8522 27.9646 24.758 28.3186 24.6392 28.6647C24.0025 30.4389 22.6147 31.8602 21.2003 32.6162C20.8056 32.8261 20.3913 32.9968 19.9633 33.1258C17.2902 33.936 14.0779 33.2244 12.42 31.2531L12.4092 31.2413L12.3964 31.2245C10.9879 29.5252 10.6803 26.8758 10.6508 26.1976C10.6508 26.1109 10.6449 26.0261 10.6449 26.0261C10.6232 25.0998 10.7564 24.1763 11.0391 23.2939C11.325 22.3812 12.2663 20.4759 14.3805 19.3187C15.6991 18.6084 17.2041 18.3204 18.6918 18.4937L18.6435 22.6404C18.5597 22.6187 16.5342 22.1387 15.2045 23.5186C14 24.7684 14.0779 26.7821 14.9325 27.9225C14.9778 27.9837 15.0261 28.0428 15.0764 28.098C15.5544 28.6312 16.1606 28.8313 16.5697 28.9713C17.112 29.15 17.6813 29.2334 18.2522 29.2177C18.8637 29.2082 19.4586 29.0171 19.9613 28.6687C21.3511 27.7244 21.5384 26.0429 21.5453 25.9473C21.5282 20.534 21.5121 15.1208 21.497 9.70757V9.70264L24.1021 9.65631H24.1444L24.5219 9.64941C24.8003 10.6512 25.2721 11.5888 25.9107 12.4093C26.112 12.6659 26.3292 12.9095 26.5613 13.1386C27.438 13.9919 28.4911 14.6426 29.6464 15.0449H29.6543C30.0551 15.1914 30.4658 15.309 30.8834 15.3968Z" fill="#FD2854"/>
<path d="M29.705 17.2513H29.6971C28.2942 17.4761 26.858 17.367 25.5051 16.933C24.5604 16.6258 23.6736 16.1631 22.8813 15.5639C23.3564 18.4356 23.3564 21.3659 22.8813 24.2377C22.3185 27.6126 21.9656 29.7278 20.082 31.0811C20.0426 31.1097 20.0022 31.1383 19.9618 31.1649C17.3606 32.9263 13.7265 32.052 12.3949 31.2231L12.3752 31.2112L12.3377 31.1876C11.8988 30.8968 11.4871 30.5669 11.1076 30.2019C10.4274 29.5421 9.88461 28.754 9.51056 27.8833C9.13652 27.0125 8.93864 26.0763 8.92834 25.1287C8.90302 24.1472 9.06597 23.1699 9.40835 22.2496C9.63013 21.6582 10.4541 19.5548 12.7497 18.2745C14.2197 17.4685 15.9183 17.181 17.5716 17.4583C17.565 17.7869 17.5588 18.1154 17.5529 18.444V18.4509L17.5144 20.5306C16.7949 20.3611 16.0512 20.3197 15.3174 20.4084C14.726 20.4813 14.1464 20.5494 13.5304 20.9367C12.7414 21.4446 12.183 22.2415 11.975 23.1564C11.8434 23.5996 11.8164 24.0672 11.8962 24.5225C11.9198 24.6526 12.0933 25.5565 12.8227 26.2051C13.0681 26.4229 13.1726 26.4318 13.5304 26.7659C13.8458 27.0616 13.9246 27.2035 14.2134 27.449C14.2134 27.449 14.2844 27.5091 14.4007 27.5939C14.4082 27.6003 14.4161 27.6062 14.4244 27.6116C14.5834 27.7279 14.7504 27.833 14.9241 27.926C15.6466 28.3045 16.9398 28.3449 17.888 27.8846C19.1999 27.2469 19.9155 25.7802 19.9125 24.9089C19.8967 19.4937 19.8806 14.0788 19.8642 8.66428H19.9549L23.9784 8.64062C23.9755 8.95447 24.019 9.26701 24.1075 9.56813C24.1173 9.60066 24.1272 9.63121 24.138 9.6667C24.1489 9.70218 24.1558 9.71894 24.1646 9.74358C24.2271 9.90738 24.2992 10.0673 24.3805 10.2226L24.4367 10.336V10.3448C24.4358 10.3474 24.4358 10.3502 24.4367 10.3527L24.4456 10.3714L24.4544 10.3892C24.4598 10.4006 24.4657 10.4118 24.4722 10.4227C24.4781 10.4355 24.485 10.4483 24.4919 10.4611C24.5293 10.5331 24.5806 10.6277 24.6388 10.7342C24.6752 10.8002 24.7137 10.8662 24.7531 10.9313L24.7955 11.0013C24.8162 11.0368 24.8379 11.0722 24.8595 11.1067L24.9384 11.2319C25.2449 11.7159 25.7831 12.531 26.546 13.1471C27.6184 14.0125 28.8505 14.2569 29.6232 14.3298C29.6282 14.5723 29.6341 14.8148 29.639 15.0573C29.6679 15.7893 29.6899 16.5206 29.705 17.2513Z" fill="#24F6FA"/>
<path d="M29.7184 18.4088C27.6875 18.4834 25.6934 17.8519 24.0755 16.6218V25.2956C24.0558 25.6278 23.7651 29.2915 20.4552 31.3082C20.2916 31.4067 20.127 31.4984 19.9624 31.5832C16.8487 33.172 13.806 31.9272 13.5053 31.798C13.2064 31.7003 12.9199 31.568 12.6518 31.4038C12.568 31.3515 12.4862 31.2973 12.4083 31.2411L12.3383 31.1889C10.3079 29.6473 10.2241 26.507 10.2113 26.0438C10.1896 25.1174 10.3228 24.1939 10.6055 23.3115C10.9407 22.2421 11.9411 20.4393 13.9469 19.3363C15.0537 18.734 16.2975 18.4284 17.5574 18.4493V18.4562C17.541 19.4977 17.5245 20.5395 17.5081 21.5817C17.2962 21.5245 15.9971 21.1973 14.7276 21.9966C13.9386 22.5045 13.3802 23.3014 13.1722 24.2163C13.0477 24.6604 13.0208 25.1261 13.0933 25.5815C13.2059 26.1438 13.4712 26.6642 13.8602 27.0856C14.0237 27.2739 14.2064 27.4447 14.4052 27.5952C14.4127 27.6016 14.4206 27.6076 14.4289 27.6129C14.5851 27.7334 14.7524 27.8387 14.9286 27.9273L14.9345 27.9323C15.2868 28.4641 15.7948 28.8741 16.3891 29.106C16.9834 29.3378 17.6349 29.3802 18.2542 29.2274C18.5428 29.1672 18.8231 29.0726 19.0891 28.9455C19.4113 28.7923 19.7065 28.5879 19.9634 28.3403C20.9609 27.3813 21.1067 26.0546 21.1136 25.9748L21.0703 9.72223L21.504 9.71336L24.1091 9.66211H24.1465C24.1564 9.68774 24.1672 9.71336 24.178 9.73899C24.2382 9.88388 24.3101 10.0445 24.3939 10.218L24.4501 10.3314V10.3402C24.4492 10.3428 24.4492 10.3456 24.4501 10.3481L24.459 10.3669L24.4678 10.3846C24.4732 10.3961 24.4791 10.4072 24.4856 10.4181C24.4915 10.4309 24.4984 10.4437 24.5053 10.4566C24.5506 10.5453 24.6039 10.6369 24.6521 10.7296C24.6886 10.7956 24.7271 10.8617 24.7665 10.9267L24.8089 10.9967L24.8729 11.1022L24.9518 11.2273C25.4027 11.9325 25.943 12.5762 26.5594 13.1425C27.4589 13.966 28.5055 14.6127 29.6445 15.0487H29.6524C29.6652 15.7791 29.678 16.5115 29.6899 17.2418L29.7184 18.4088Z" fill="white"/>
</svg>
