<svg width="40" height="41" viewBox="0 0 40 41" fill="none" xmlns="http://www.w3.org/2000/svg">
<rect y="0.933594" width="40" height="40" rx="20" fill="#FF0000"/>
<path d="M26.5457 13.4102H13.4562C12.9331 13.4102 12.4151 13.5132 11.9319 13.7135C11.4487 13.9137 11.0096 14.2073 10.6399 14.5773C10.2701 14.9473 9.97687 15.3865 9.77693 15.8699C9.577 16.3532 9.47426 16.8713 9.47461 17.3944V24.4733C9.47426 24.9964 9.577 25.5144 9.77693 25.9978C9.97687 26.4812 10.2701 26.9204 10.6399 27.2904C11.0096 27.6604 11.4487 27.9539 11.9319 28.1542C12.4151 28.3544 12.9331 28.4575 13.4562 28.4575H26.5457C27.0688 28.4575 27.5867 28.3544 28.07 28.1542C28.5532 27.9539 28.9922 27.6604 29.362 27.2904C29.7318 26.9204 30.025 26.4812 30.2249 25.9978C30.4249 25.5144 30.5276 24.9964 30.5272 24.4733V17.3944C30.5276 16.8713 30.4249 16.3532 30.2249 15.8699C30.025 15.3865 29.7318 14.9473 29.362 14.5773C28.9922 14.2073 28.5532 13.9137 28.07 13.7135C27.5867 13.5132 27.0688 13.4102 26.5457 13.4102ZM17.2272 24.1602V17.7075L22.7746 20.9338L17.2272 24.1602Z" fill="white"/>
</svg>
