<svg width="64" height="46" viewBox="0 0 64 46" fill="none" xmlns="http://www.w3.org/2000/svg">
<g clip-path="url(#clip0_58209_95027)">
<path d="M62.6618 7.18345C61.9243 4.35443 59.7588 2.13123 57.0035 1.37394C52.0145 4.11272e-07 31.9999 0 31.9999 0C31.9999 0 11.9855 4.11272e-07 6.99636 1.37394C4.24103 2.13123 2.07573 4.35443 1.33816 7.18345C4.00562e-07 12.306 0 23 0 23C0 23 4.00562e-07 33.6941 1.33816 38.8166C2.07573 41.6456 4.24103 43.8688 6.99636 44.626C11.9855 46 31.9999 46 31.9999 46C31.9999 46 52.0145 46 57.0035 44.626C59.7588 43.8688 61.9243 41.6456 62.6618 38.8166C64 33.6941 64 23 64 23C64 23 63.9946 12.306 62.6618 7.18345Z" fill="#FF0000"/>
<path d="M26.1152 32.8567L43.0807 23.0012L26.1152 13.1455V32.8567Z" fill="white"/>
</g>
<defs>
<clipPath id="clip0_58209_95027">
<rect width="64" height="46" fill="white"/>
</clipPath>
</defs>
</svg>
