<?xml version="1.0" encoding="utf-8"?>
<!-- Generator: Adobe Illustrator 27.4.1, SVG Export Plug-In . SVG Version: 6.00 Build 0)  -->
<svg version="1.1" id="Layer_1" xmlns="http://www.w3.org/2000/svg" xmlns:xlink="http://www.w3.org/1999/xlink" x="0px" y="0px"
	 width="20px" height="20px" viewBox="0 0 20 20" style="enable-background:new 0 0 20 20;" xml:space="preserve">
<style type="text/css">
	.st0{fill:#FFFFFF;}
</style>
<g>
	<path class="st0" d="M19.4,16.8l-4.6-4.6c-0.6,1-1.6,2-2.6,2.6l4.6,4.6c0.8,0.8,2,0.8,2.6,0C20.2,18.8,20.2,17.6,19.4,16.8
		L19.4,16.8z"/>
	<path class="st0" d="M15,7.6C15,3.4,11.6,0,7.6,0C3.4,0,0,3.4,0,7.6c0,4,3.4,7.4,7.6,7.4C11.6,15,15,11.6,15,7.6z M7.6,13.2
		c-3.2,0-5.8-2.6-5.8-5.6c0-3.2,2.6-5.8,5.8-5.8c3,0,5.6,2.6,5.6,5.8C13.2,10.6,10.6,13.2,7.6,13.2z"/>
	<path class="st0" d="M3.2,7.6h1.2c0-1.8,1.4-3.2,3.2-3.2V3.2C5,3.2,3.2,5,3.2,7.6L3.2,7.6z"/>
</g>
</svg>
