<?xml version="1.0" encoding="utf-8"?>
<!-- Generator: Adobe Illustrator 27.4.1, SVG Export Plug-In . SVG Version: 6.00 Build 0)  -->
<svg version="1.1" id="Layer_1" xmlns="http://www.w3.org/2000/svg" xmlns:xlink="http://www.w3.org/1999/xlink" x="0px" y="0px"
	 width="296px" height="73.8px" viewBox="0 0 296 73.8" style="enable-background:new 0 0 296 73.8;" xml:space="preserve">
<style type="text/css">
	.st0{fill:#B76A2E;}
	.st1{fill:#606060;}
</style>
<g>
	<g>
		<path class="st0" d="M264.5,73.8l-1.2,0c-1.7,0-3-1.4-3-3.1c0-1.7,1.4-3,3-3c0,0,0,0,0,0l1.1,0c1.7,0,3,1.4,3,3
			S266.2,73.8,264.5,73.8z M252.1,72.9c-0.1,0-0.3,0-0.4,0l-1.2-0.2c-1.6-0.3-2.8-1.8-2.5-3.4c0.3-1.6,1.8-2.7,3.4-2.5l1.1,0.2
			c1.7,0.2,2.8,1.7,2.6,3.4C254.9,71.8,253.6,72.9,252.1,72.9z M287.8,68.4c-1.2,0-2.4-0.7-2.9-1.9c-0.6-1.6,0-3.2,1.5-3.9l1-0.4
			c1.6-0.6,3.3,0.1,3.9,1.7c0.6,1.5-0.1,3.3-1.7,3.9l-0.8,0.3C288.6,68.3,288.2,68.4,287.8,68.4z M293,59.8c-1.6,0-2.9-1.3-3-2.9
			l-0.1-1.1c-0.1-1.7,1.2-3.1,2.9-3.2c1.7-0.1,3.1,1.2,3.2,2.9l0.1,1.1c0.1,1.7-1.2,3.1-2.9,3.2C293.1,59.8,293,59.8,293,59.8z
			 M291.7,47.4c-1.4,0-2.7-1-3-2.4c-0.1-0.3-0.1-0.7-0.2-1c-0.4-1.6,0.6-3.3,2.2-3.7c1.6-0.4,3.3,0.6,3.7,2.2
			c0.1,0.4,0.2,0.8,0.3,1.2c0.3,1.6-0.7,3.2-2.4,3.6C292.1,47.4,291.9,47.4,291.7,47.4z M286.8,35.9c-1.1,0-2.1-0.6-2.7-1.6l-0.5-1
			c-0.8-1.5-0.2-3.3,1.3-4.1c1.5-0.8,3.3-0.2,4.1,1.3l0.5,1c0.8,1.5,0.2,3.3-1.3,4.1C287.8,35.8,287.3,35.9,286.8,35.9z M280.9,25
			c-1.1,0-2.1-0.6-2.6-1.5l-0.5-1c-0.8-1.4-0.3-3.3,1.1-4.1c1.4-0.8,3.3-0.3,4.1,1.1l0.6,1c0.8,1.5,0.3,3.3-1.2,4.1
			C281.9,24.8,281.4,25,280.9,25z"/>
	</g>
	<g>
		<g>
			<path class="st0" d="M280,56c-0.7,0-1.4-0.2-1.9-0.7l-0.9-0.7c-1.3-1.1-1.5-3-0.4-4.2c1.1-1.3,3-1.5,4.2-0.4l0.9,0.7
				c1.3,1.1,1.5,3,0.4,4.2C281.7,55.6,280.8,56,280,56z M3,54.8c-0.9,0-1.8-0.4-2.4-1.1c-1-1.3-0.8-3.2,0.5-4.2L2,48.8
				c1.3-1,3.2-0.8,4.2,0.5c1,1.3,0.8,3.2-0.5,4.2l-0.9,0.7C4.4,54.6,3.7,54.8,3,54.8z M270.1,48.4c-0.6,0-1.2-0.2-1.8-0.6l-0.9-0.7
				c-1.4-1-1.7-2.9-0.7-4.2c1-1.3,2.9-1.7,4.2-0.7l0.9,0.7c1.3,1,1.6,2.9,0.7,4.2C272,47.9,271.1,48.4,270.1,48.4z M12.9,47.3
				c-0.9,0-1.9-0.4-2.4-1.3c-1-1.4-0.7-3.2,0.7-4.2l0.9-0.7c1.4-1,3.2-0.7,4.2,0.7c1,1.4,0.7,3.2-0.7,4.2l-0.9,0.6
				C14.1,47.1,13.5,47.3,12.9,47.3z M259.9,41.3c-0.6,0-1.1-0.2-1.6-0.5l-1-0.6c-1.4-0.9-1.8-2.8-0.9-4.2c0.9-1.4,2.8-1.8,4.2-0.9
				l1,0.6c1.4,0.9,1.8,2.8,0.9,4.2C261.9,40.8,260.9,41.3,259.9,41.3z M23.2,40.3c-1,0-2-0.5-2.5-1.4c-0.9-1.4-0.5-3.3,0.9-4.2
				l1-0.6c1.4-0.9,3.3-0.5,4.2,0.9c0.9,1.4,0.5,3.3-0.9,4.2l-0.9,0.6C24.3,40.1,23.8,40.3,23.2,40.3z M249.3,34.8
				c-0.5,0-1-0.1-1.5-0.4l-1-0.6c-1.5-0.8-2-2.7-1.1-4.1c0.8-1.4,2.7-2,4.1-1.1l1,0.6c1.5,0.8,2,2.7,1.1,4.1
				C251.3,34.2,250.3,34.8,249.3,34.8z M33.9,33.9c-1.1,0-2.1-0.6-2.6-1.5c-0.8-1.5-0.3-3.3,1.2-4.1l1-0.6c1.4-0.8,3.3-0.3,4.1,1.2
				c0.8,1.5,0.3,3.3-1.2,4.1l-1,0.5C34.9,33.8,34.4,33.9,33.9,33.9z M238.3,28.9c-0.4,0-0.9-0.1-1.3-0.3l-1-0.5
				c-1.5-0.7-2.1-2.5-1.4-4c0.7-1.5,2.5-2.1,4-1.4l1,0.5c1.5,0.7,2.1,2.5,1.4,4C240.5,28.3,239.4,28.9,238.3,28.9z M44.9,28.1
				c-1.1,0-2.2-0.6-2.7-1.7c-0.7-1.5-0.1-3.3,1.4-4l1-0.5c1.5-0.7,3.3-0.1,4,1.4c0.7,1.5,0.1,3.3-1.4,4l-1,0.5
				C45.8,28,45.3,28.1,44.9,28.1z M227,23.7c-0.4,0-0.8-0.1-1.2-0.2l-1-0.4c-1.5-0.7-2.2-2.4-1.6-4c0.7-1.5,2.4-2.2,4-1.6l1,0.4
				c1.5,0.7,2.2,2.4,1.6,4C229.3,23,228.2,23.7,227,23.7z M56.2,23c-1.2,0-2.3-0.7-2.8-1.8c-0.6-1.5,0.1-3.3,1.6-4l1.1-0.4
				c1.5-0.6,3.3,0.1,3.9,1.6c0.6,1.5-0.1,3.3-1.6,3.9l-1,0.4C57,22.9,56.6,23,56.2,23z M215.4,19.1c-0.3,0-0.7-0.1-1-0.2l-1-0.4
				c-1.6-0.6-2.4-2.3-1.8-3.9c0.6-1.6,2.3-2.4,3.9-1.8l1.1,0.4c1.6,0.6,2.4,2.3,1.8,3.9C217.8,18.3,216.7,19.1,215.4,19.1z
				 M67.8,18.5c-1.2,0-2.4-0.8-2.8-2c-0.6-1.6,0.3-3.3,1.8-3.8l1.1-0.4c1.6-0.6,3.3,0.3,3.8,1.9s-0.3,3.3-1.9,3.8l-1.1,0.4
				C68.5,18.4,68.2,18.5,67.8,18.5z M203.6,15.2c-0.3,0-0.6,0-0.9-0.1l-1.1-0.3c-1.6-0.5-2.5-2.2-2-3.8c0.5-1.6,2.2-2.5,3.8-2
				l1.1,0.3c1.6,0.5,2.5,2.2,2,3.8C206.1,14.3,204.9,15.2,203.6,15.2z M79.7,14.7c-1.3,0-2.5-0.9-2.9-2.2c-0.5-1.6,0.5-3.3,2.1-3.7
				l1.1-0.3c1.6-0.5,3.3,0.5,3.7,2.1c0.5,1.6-0.5,3.3-2.1,3.7l-1.1,0.3C80.2,14.6,80,14.7,79.7,14.7z M191.6,12
				c-0.2,0-0.5,0-0.7-0.1l-1.1-0.3c-1.6-0.4-2.6-2-2.3-3.6c0.4-1.6,2-2.6,3.6-2.3l1.1,0.3c1.6,0.4,2.6,2,2.2,3.6
				C194.2,11,192.9,12,191.6,12z M91.7,11.6c-1.4,0-2.6-0.9-2.9-2.3C88.4,7.6,89.4,6,91,5.6l1.1-0.3C93.8,5,95.4,6,95.8,7.6
				c0.4,1.6-0.7,3.2-2.3,3.6l-1.1,0.2C92.2,11.5,91.9,11.6,91.7,11.6z M179.4,9.4c-0.2,0-0.4,0-0.5,0l-1.1-0.2
				c-1.6-0.3-2.7-1.8-2.5-3.5c0.3-1.6,1.9-2.7,3.5-2.5l1.1,0.2c1.6,0.3,2.7,1.9,2.4,3.5C182.1,8.4,180.8,9.4,179.4,9.4z M103.9,9.1
				c-1.4,0-2.7-1-3-2.5c-0.3-1.6,0.8-3.2,2.5-3.5l1.1-0.2c1.6-0.3,3.2,0.9,3.5,2.5c0.3,1.6-0.9,3.2-2.5,3.5l-1.1,0.2
				C104.2,9.1,104.1,9.1,103.9,9.1z M167.1,7.6c-0.1,0-0.2,0-0.4,0l-1.1-0.1c-1.7-0.2-2.8-1.7-2.7-3.3c0.2-1.7,1.7-2.8,3.3-2.7
				l1.2,0.1c1.7,0.2,2.8,1.7,2.6,3.4C169.9,6.5,168.6,7.6,167.1,7.6z M116.2,7.4c-1.5,0-2.8-1.1-3-2.7c-0.2-1.7,1-3.1,2.7-3.3
				l1.1-0.1c1.6-0.2,3.1,1,3.3,2.7c0.2,1.7-1,3.1-2.7,3.3l-1.1,0.1C116.5,7.4,116.3,7.4,116.2,7.4z M154.7,6.5c-0.1,0-0.1,0-0.2,0
				l-1.1-0.1c-1.7-0.1-2.9-1.5-2.8-3.2c0.1-1.7,1.4-3,3.2-2.8l1.1,0.1c1.7,0.1,2.9,1.5,2.8,3.2C157.6,5.2,156.2,6.5,154.7,6.5z
				 M128.6,6.4c-1.6,0-2.9-1.2-3-2.9c-0.1-1.7,1.2-3.1,2.9-3.2l1.2-0.1c1.7,0,3.1,1.2,3.1,2.9c0.1,1.7-1.2,3.1-2.9,3.1l-1.1,0.1
				C128.7,6.4,128.7,6.4,128.6,6.4z M142.2,6C142.2,6,142.2,6,142.2,6l-1.1,0c-1.7,0-3-1.4-3-3s1.4-3,3-3l1.2,0c1.7,0,3,1.4,3,3
				C145.2,4.7,143.9,6,142.2,6z"/>
		</g>
	</g>
</g>
<path class="st0" d="M278.2,72.2l-1.1,0.3c-1.6,0.4-3.3-0.6-3.7-2.2c-0.4-1.6,0.5-3.2,2.1-3.7c0,0,0,0,0,0l1-0.3
	c1.6-0.4,3.3,0.5,3.7,2.1C280.7,70.1,279.8,71.8,278.2,72.2z"/>
</svg>
