<?xml version="1.0" encoding="utf-8"?>
<!-- Generator: Adobe Illustrator 26.0.3, SVG Export Plug-In . SVG Version: 6.00 Build 0)  -->
<svg version="1.1" id="Layer_1" xmlns="http://www.w3.org/2000/svg" xmlns:xlink="http://www.w3.org/1999/xlink" x="0px" y="0px"
	 viewBox="0 0 558.9 394.7" style="enable-background:new 0 0 558.9 394.7;" xml:space="preserve">
<path d="M376.2,7.1c-3.6-4.3-8.8-6.9-14.4-7.1c-5.6-0.3-11,1.9-15,5.8c-3.9,3.9-6.1,9.4-5.8,15c0.3,5.6,2.8,10.8,7.1,14.4l142.9,143
	H18.9c-6.9,0.4-13.1,4.2-16.4,10.2c-3.3,6-3.3,13.3,0,19.3c3.3,6,9.5,9.9,16.4,10.2h472.2L348,360.8c-3.6,3.8-5.6,8.8-5.6,14
	s2,10.2,5.6,14c3.7,3.7,8.7,5.8,14,5.8s10.3-2.1,14-5.8l177-177v0c3.8-3.7,6-8.7,6-14c0-5.3-2.2-10.3-6-14L376.2,7.1z"/>
</svg>
