<?xml version="1.0" encoding="UTF-8"?>
<svg xmlns="http://www.w3.org/2000/svg" width="101" height="96" viewBox="0 0 101 96" fill="none">
  <g clip-path="url(#clip0_850_18)">
    <path d="M19.8414 58.3918H57.2536V54.2159H19.8414V58.3918ZM19.8414 41.4805H79.3009V37.3045H19.8414V41.4805ZM19.8414 24.5677H79.3009V20.3918H19.8414V24.5677ZM0.922485 94.0643V8.87645C0.922485 6.79098 1.65041 5.01674 3.10627 3.55374C4.56303 2.09164 6.32969 1.3606 8.40627 1.3606H90.736C92.8126 1.3606 94.5792 2.09164 96.036 3.55374C97.4919 5.01674 98.2198 6.79098 98.2198 8.87645V69.8447C98.2198 71.9302 97.4919 73.7045 96.036 75.1675C94.5792 76.6295 92.8126 77.3606 90.736 77.3606H17.5549L0.922485 94.0643ZM15.7036 73.1847H90.736C91.5675 73.1847 92.3297 72.8368 93.0225 72.141C93.7153 71.4453 94.0617 70.6798 94.0617 69.8447V8.87645C94.0617 8.04136 93.7153 7.27593 93.0225 6.58017C92.3297 5.88441 91.5675 5.53653 90.736 5.53653H8.40627C7.57474 5.53653 6.81258 5.88441 6.11978 6.58017C5.42699 7.27593 5.08059 8.04136 5.08059 8.87645V84.2508L15.7036 73.1847Z" fill="#0163B6"></path>
  </g>
  <defs>
    <clipPath id="clip0_850_18">
      <rect width="100" height="95" fill="white" transform="translate(0.249146 0.731689)"></rect>
    </clipPath>
  </defs>
</svg>
