<?xml version="1.0" encoding="UTF-8"?>
<svg xmlns="http://www.w3.org/2000/svg" width="69" height="63" viewBox="0 0 69 63" fill="none">
  <path d="M65.6737 21.7594L45.0525 9.84784C43.8671 9.25611 42.4264 9.73723 41.8346 10.9226C41.6685 11.2553 41.582 11.6222 41.582 11.994V59.9726C41.582 61.2974 42.6561 62.3715 43.981 62.3715H59.9738C64.8303 62.368 68.7664 58.4319 68.7699 53.5754V26.7651C68.7775 24.6424 67.5763 22.7005 65.6737 21.7594ZM56.7752 52.7759H50.3781C49.0532 52.7759 47.9792 51.7019 47.9792 50.377C47.9792 49.0521 49.0532 47.9781 50.3781 47.9781H56.7752C58.1001 47.9781 59.1742 49.0521 59.1742 50.377C59.1742 51.7019 58.1001 52.7759 56.7752 52.7759ZM56.7752 43.1802H50.3781C49.0532 43.1802 47.9792 42.1061 47.9792 40.7813C47.9792 39.4564 49.0532 38.3824 50.3781 38.3824H56.7752C58.1001 38.3824 59.1742 39.4564 59.1742 40.7813C59.1742 42.1061 58.1001 43.1802 56.7752 43.1802ZM56.7752 33.5845H50.3781C49.0532 33.5845 47.9792 32.5104 47.9792 31.1856C47.9792 29.8607 49.0532 28.7866 50.3781 28.7866H56.7752C58.1001 28.7866 59.1742 29.8607 59.1742 31.1856C59.1742 32.5104 58.1001 33.5845 56.7752 33.5845Z" fill="white"></path>
  <path d="M34.3846 0H5.5975C2.50761 0.00351358 0.00351358 2.50761 0 5.5975V56.7746C0.00351358 59.8645 2.50761 62.3686 5.5975 62.3721H9.59571V48.7782C9.59922 46.5715 11.3873 44.7835 13.5939 44.78H26.3882C28.5948 44.7835 30.3829 46.5715 30.3864 48.7782V62.3721H37.5832C38.908 62.3721 39.9821 61.298 39.9821 59.9732V5.5975C39.9786 2.50761 37.4745 0.00351358 34.3846 0ZM15.1932 35.1843H11.9946C10.6698 35.1843 9.59571 34.1102 9.59571 32.7853C9.59571 31.4605 10.6698 30.3864 11.9946 30.3864H15.1932C16.5181 30.3864 17.5921 31.4605 17.5921 32.7853C17.5921 34.1102 16.5181 35.1843 15.1932 35.1843ZM15.1932 25.5886H11.9946C10.6698 25.5886 9.59571 24.5145 9.59571 23.1896C9.59571 21.8648 10.6698 20.7907 11.9946 20.7907H15.1932C16.5181 20.7907 17.5921 21.8648 17.5921 23.1896C17.5921 24.5145 16.5181 25.5886 15.1932 25.5886ZM15.1932 15.9928H11.9946C10.6698 15.9928 9.59571 14.9188 9.59571 13.5939C9.59571 12.2691 10.6698 11.195 11.9946 11.195H15.1932C16.5181 11.195 17.5921 12.2691 17.5921 13.5939C17.5921 14.9188 16.5181 15.9928 15.1932 15.9928ZM27.9875 35.1843H24.7889C23.464 35.1843 22.39 34.1102 22.39 32.7853C22.39 31.4605 23.464 30.3864 24.7889 30.3864H27.9875C29.3123 30.3864 30.3864 31.4605 30.3864 32.7853C30.3864 34.1102 29.3123 35.1843 27.9875 35.1843ZM27.9875 25.5886H24.7889C23.464 25.5886 22.39 24.5145 22.39 23.1896C22.39 21.8648 23.464 20.7907 24.7889 20.7907H27.9875C29.3123 20.7907 30.3864 21.8648 30.3864 23.1896C30.3864 24.5145 29.3123 25.5886 27.9875 25.5886ZM27.9875 15.9928H24.7889C23.464 15.9928 22.39 14.9188 22.39 13.5939C22.39 12.2691 23.464 11.195 24.7889 11.195H27.9875C29.3123 11.195 30.3864 12.2691 30.3864 13.5939C30.3864 14.9188 29.3123 15.9928 27.9875 15.9928Z" fill="white"></path>
  <path d="M14.3926 49.5781H25.5876V62.3724H14.3926V49.5781Z" fill="white"></path>
</svg>
