<?xml version="1.0" encoding="UTF-8"?>
<svg xmlns="http://www.w3.org/2000/svg" width="100" height="100" viewBox="0 0 100 100" fill="none">
  <path d="M76.473 76.9541C78.8658 76.9541 80.8901 76.123 82.546 74.4608C84.2027 72.7986 85.0311 70.7802 85.0311 68.4054C85.0311 66.0315 84.2014 64.0234 82.5419 62.3811C80.8824 60.7378 78.8676 59.9162 76.4973 59.9162C74.0892 59.9162 72.0698 60.7455 70.4392 62.4041C68.8086 64.0617 67.9932 66.0748 67.9932 68.4432C67.9932 70.8117 68.8176 72.8225 70.4662 74.4757C72.1149 76.1279 74.1171 76.9541 76.473 76.9541ZM76.4446 93.9919C79.2446 93.9919 81.8815 93.3284 84.3554 92.0014C86.8293 90.6743 88.877 88.864 90.4987 86.5703C88.2951 85.3775 86.0383 84.4504 83.7284 83.7892C81.4194 83.127 79.009 82.7959 76.4973 82.7959C73.9856 82.7959 71.5748 83.127 69.2649 83.7892C66.955 84.4504 64.6982 85.3775 62.4946 86.5703C64.0469 88.864 66.0599 90.6743 68.5338 92.0014C71.0086 93.3284 73.6455 93.9919 76.4446 93.9919ZM7.48379 86.4865C5.46216 86.4865 3.70946 85.7446 2.22568 84.2608C0.741892 82.777 0 81.0243 0 79.0027V7.48378C0 5.46216 0.741892 3.70946 2.22568 2.22567C3.70946 0.741888 5.46216 0 7.48379 0H79.0027C81.0243 0 82.777 0.741888 84.2608 2.22567C85.7446 3.70946 86.4865 5.46216 86.4865 7.48378V43.4203C85.7793 43.1842 85.0743 42.9797 84.3716 42.8068C83.668 42.6338 82.9869 42.4468 82.3284 42.2459V7.48378C82.3284 6.65225 81.982 5.89009 81.2892 5.1973C80.5964 4.50451 79.8342 4.15811 79.0027 4.15811H7.48379C6.65225 4.15811 5.89009 4.50451 5.1973 5.1973C4.50451 5.89009 4.15811 6.65225 4.15811 7.48378V79.0027C4.15811 79.8342 4.50451 80.5964 5.1973 81.2892C5.89009 81.982 6.65225 82.3284 7.48379 82.3284H42.277C42.4293 83.077 42.5757 83.8054 42.7162 84.5135C42.8568 85.2225 43.0671 85.8802 43.3473 86.4865H7.48379ZM4.15811 76.4973V82.3284V4.15811V42.2459V41.8081V76.4973ZM18.9189 66.3203H43.2743C43.5653 65.641 43.8496 64.955 44.127 64.2622C44.4045 63.5694 44.7302 62.8694 45.1041 62.1622H18.9189V66.3203ZM18.9189 45.3216H60.727C61.7117 45.0378 62.5297 44.7797 63.1811 44.5473C63.8324 44.3158 64.5324 44.0198 65.2811 43.6595V41.1649H18.9189V45.3216ZM18.9189 24.3243H67.5676V20.1662H18.9189V24.3243ZM76.4797 97.8892C70.7086 97.8892 65.7968 95.8333 61.7446 91.7216C57.6914 87.6099 55.6649 82.7261 55.6649 77.0703C55.6649 71.1946 57.691 66.2347 61.7433 62.1905C65.7946 58.1455 70.7293 56.123 76.5473 56.123C82.2725 56.123 87.1676 58.1455 91.2324 62.1905C95.2964 66.2347 97.3284 71.1946 97.3284 77.0703C97.3284 82.7261 95.2964 87.6099 91.2324 91.7216C87.1676 95.8333 82.25 97.8892 76.4797 97.8892Z" fill="#0163B6"></path>
</svg>
