<?xml version="1.0" encoding="UTF-8"?>
<svg xmlns="http://www.w3.org/2000/svg" width="100" height="100" viewBox="0 0 100 100" fill="none">
  <path d="M50 97.1721C49.1167 97.1721 48.2315 96.9853 47.3444 96.6118C46.4583 96.2382 45.6982 95.6784 45.0639 94.9323L9.97917 57.6353C6.73843 54.2039 4.26481 50.3392 2.55833 46.0412C0.852778 41.7421 0 37.3417 0 32.8397C0 24.4005 2.4963 17.2323 7.48889 11.3353C12.4824 5.43724 18.6116 2.48822 25.8764 2.48822C29.6792 2.48822 33.3347 3.32548 36.8431 4.99999C40.3505 6.6745 43.4898 9.02744 46.2611 12.0588L50 16.2441L53.525 12.2853C56.3463 9.10293 59.5287 6.6745 63.0722 4.99999C66.6148 3.32548 70.2523 2.48822 73.9847 2.48822C81.2495 2.48822 87.4019 5.43724 92.4417 11.3353C97.4806 17.2323 100 24.3515 100 32.6926C100 37.2701 99.1417 41.7083 97.425 46.0073C95.7083 50.3054 93.2403 54.1701 90.0208 57.6015L54.7972 94.9323C54.0917 95.6784 53.3366 96.2382 52.5319 96.6118C51.7273 96.9853 50.8833 97.1721 50 97.1721ZM55.5958 30.0912C55.9532 30.0912 56.2852 30.174 56.5917 30.3397C56.8982 30.5054 57.1759 30.7691 57.425 31.1309L67.8208 47.7382H91.8139C93.1176 45.3049 94.0958 42.825 94.7486 40.2985C95.4005 37.7721 95.7264 35.2368 95.7264 32.6926C95.6551 25.5201 93.5389 19.4284 89.3778 14.4176C85.2157 9.40587 80.0935 6.89999 74.0111 6.89999C70.7528 6.89999 67.637 7.61077 64.6639 9.03234C61.6898 10.4539 59.0917 12.4769 56.8694 15.1015L51.8375 20.8368C51.4884 21.1309 51.175 21.3573 50.8972 21.5162C50.6194 21.674 50.3204 21.7529 50 21.7529C49.6083 21.7529 49.244 21.6794 48.9069 21.5323C48.5708 21.3853 48.312 21.1534 48.1306 20.8368L43.0986 15.1015C40.7801 12.4956 38.1222 10.4961 35.125 9.10293C32.1287 7.70979 29.0458 7.01322 25.8764 7.01322C19.8264 7.01322 14.7134 9.51616 10.5375 14.522C6.36157 19.5279 4.27361 25.5848 4.27361 32.6926C4.27361 35.327 4.60139 37.8951 5.25695 40.397C5.91158 42.9 6.87824 45.347 8.15694 47.7382H33.3333C33.6787 47.7382 34.0069 47.8206 34.3181 47.9853C34.6282 48.151 34.8875 48.3662 35.0958 48.6309L43.8361 62.6588L53.5583 31.7088C53.7009 31.2029 53.9509 30.8068 54.3083 30.5206C54.6667 30.2343 55.0958 30.0912 55.5958 30.0912ZM56.1639 37.3412L46.4097 68.2912C46.2773 68.7971 46.0102 69.1931 45.6083 69.4794C45.2074 69.7657 44.7732 69.9088 44.3056 69.9088C43.9213 69.9088 43.6116 69.826 43.3764 69.6603C43.1412 69.4946 42.9097 69.2309 42.6819 68.8691L32.1792 52.2618H11.0472L48.1514 91.6632C48.4005 92.0024 48.6764 92.2323 48.9792 92.3529C49.281 92.4735 49.6213 92.5338 50 92.5338C50.3787 92.5338 50.719 92.4735 51.0208 92.3529C51.3236 92.2323 51.5995 92.0024 51.8486 91.6632L88.9208 52.2618H66.6667C66.2824 52.2618 65.9546 52.1603 65.6833 51.9573C65.413 51.7534 65.1532 51.4706 64.9042 51.1088L56.1639 37.3412Z" fill="#0163B6"></path>
</svg>
