<?xml version="1.0" encoding="UTF-8"?>
<svg xmlns="http://www.w3.org/2000/svg" width="75" height="62" viewBox="0 0 75 62" fill="none">
  <path d="M0.247418 8.10645C0.0873239 8.8487 0 9.62006 0 10.3914V51.6229C0 52.336 0.07277 53.0492 0.21831 53.7623L27.9437 30.9271L0.247418 8.10645Z" fill="white"></path>
  <path d="M74.3127 8.31055L46.6602 31.0875L74.2836 53.8354C74.4437 53.1077 74.5165 52.3655 74.5165 51.6232V10.3918C74.5165 9.69318 74.4437 8.99458 74.3127 8.31055Z" fill="white"></path>
  <path d="M42.9203 34.1584C39.7185 36.7926 35.0903 36.7926 31.8884 34.1584L29.9091 32.5283L1.15039 56.2077C2.89687 59.7588 6.50626 62.0002 10.4649 62.0002H64.2128C68.0988 62.0002 71.6645 59.8316 73.4546 56.3678L44.6959 32.6884L42.9203 34.1584Z" fill="white"></path>
  <path d="M41.3485 32.2371L73.4546 5.79249C71.7081 2.24132 68.0988 0 64.1401 0H10.3776C6.49171 0 2.92598 2.16854 1.15039 5.63239L33.4603 32.2371C35.7452 34.1291 39.049 34.1291 41.3485 32.2371Z" fill="white"></path>
</svg>
