<?xml version="1.0" encoding="UTF-8"?>
<svg xmlns="http://www.w3.org/2000/svg" width="43" height="44" viewBox="0 0 43 44" fill="none">
  <g clip-path="url(#clip0_978_100)">
    <path d="M43 21.833C43 9.95762 33.3754 0.333008 21.5 0.333008C9.62461 0.333008 0 9.95762 0 21.833C0 33.7084 9.62461 43.333 21.5 43.333C21.626 43.333 21.752 43.333 21.8779 43.3246V26.5949H17.2588V21.2115H21.8779V17.2475C21.8779 12.6535 24.683 10.1508 28.7814 10.1508C30.7467 10.1508 32.4348 10.2936 32.9219 10.3607V15.1646H30.1C27.8744 15.1646 27.4377 16.2229 27.4377 17.7766V21.2031H32.7707L32.0736 26.5865H27.4377V42.5016C36.424 39.9232 43 31.6508 43 21.833Z" fill="white"></path>
  </g>
  <defs>
    <clipPath id="clip0_978_100">
      <rect width="43" height="43" fill="white" transform="translate(0 0.333008)"></rect>
    </clipPath>
  </defs>
</svg>
