<?xml version="1.0" encoding="UTF-8"?>
<svg xmlns="http://www.w3.org/2000/svg" width="100" height="100" viewBox="0 0 100 100" fill="none">
  <g clip-path="url(#clip0_850_30)">
    <path d="M49.925 13.01C59.7314 13.01 68.9977 14.9104 77.7236 18.7113C86.4495 22.5129 93.7291 27.965 99.5625 35.0675C99.8402 35.4842 99.9203 35.8496 99.8027 36.1637C99.6852 36.4779 99.4518 36.76 99.1027 37.01C98.825 37.1958 98.4615 37.2763 98.0125 37.2513C97.5634 37.2262 97.1861 36.9983 96.8805 36.5675C91.4889 29.7983 84.6472 24.6283 76.3555 21.0575C68.0639 17.4875 59.2537 15.7025 49.925 15.7025C40.6731 15.7025 31.9694 17.5246 23.8139 21.1687C15.6583 24.8129 8.87403 29.9458 3.46107 36.5675C3.0194 37.0483 2.60089 37.2983 2.20552 37.3175C1.81107 37.3367 1.42866 37.2308 1.05829 37C0.794404 36.8333 0.653663 36.5783 0.63607 36.235C0.617552 35.8925 0.700884 35.5867 0.88607 35.3175C6.62681 28.2792 13.7916 22.8017 22.3805 18.885C30.9694 14.9683 40.1509 13.01 49.925 13.01ZM49.9305 24.8175C62.3055 24.8175 72.9537 28.5375 81.875 35.9775C90.7963 43.4175 95.2569 52.5692 95.2569 63.4325C95.2569 67.2575 93.6916 70.5054 90.5611 73.1763C87.4296 75.8471 83.6602 77.1825 79.2527 77.1825C74.8574 77.1825 71.0574 75.8471 67.8527 73.1763C64.6472 70.5054 63.0444 67.2575 63.0444 63.4325C63.0444 60.3108 61.7796 57.6825 59.25 55.5475C56.7194 53.4133 53.6824 52.3462 50.1389 52.3462C46.537 52.3462 43.4444 53.405 40.8611 55.5225C38.2787 57.64 36.9875 60.2767 36.9875 63.4325C36.9875 71.9708 39.8328 79.0879 45.5236 84.7838C51.2143 90.4796 58.3402 94.4621 66.9014 96.7312C67.4245 96.9012 67.7815 97.1213 67.9722 97.3913C68.1629 97.6621 68.212 97.98 68.1194 98.345C67.9555 98.75 67.7171 99.0675 67.4041 99.2975C67.0902 99.5283 66.6662 99.5604 66.1319 99.3938C56.8801 97.2271 49.2111 92.9663 43.125 86.6113C37.0389 80.2554 33.9958 72.5292 33.9958 63.4325C33.9958 59.5158 35.575 56.2404 38.7333 53.6063C41.8926 50.9713 45.6967 49.6538 50.1458 49.6538C54.5245 49.6538 58.2727 50.9713 61.3902 53.6063C64.5088 56.2404 66.068 59.5158 66.068 63.4325C66.068 66.57 67.3875 69.1813 70.0264 71.2663C72.6643 73.3512 75.7287 74.3938 79.2194 74.3938C82.7602 74.3938 85.7963 73.3425 88.3278 71.24C90.8602 69.1375 92.1264 66.535 92.1264 63.4325C92.1264 53.34 87.9861 44.8604 79.7055 37.9938C71.4259 31.1263 61.506 27.6925 49.9458 27.6925C38.3865 27.6925 28.4777 31.1196 20.2194 37.9737C11.9601 44.8279 7.83052 53.3142 7.83052 63.4325C7.83052 65.465 8.12079 68.045 8.70135 71.1725C9.2819 74.3008 10.3342 77.9067 11.8583 81.99C12.0435 82.4067 12.0615 82.7354 11.9125 82.9762C11.7625 83.2162 11.4777 83.4517 11.0583 83.6825C10.6166 83.8492 10.2051 83.8729 9.82357 83.7538C9.44302 83.6338 9.16014 83.3696 8.97496 82.9613C7.62866 79.5387 6.60829 76.2454 5.91385 73.0813C5.2194 69.9179 4.87218 66.7017 4.87218 63.4325C4.87218 52.6267 9.32126 43.4892 18.2194 36.02C27.1185 28.5517 37.6889 24.8175 49.9305 24.8175ZM50.1389 0.577499C55.9926 0.577499 61.7324 1.21208 67.3583 2.48125C72.9852 3.75041 78.3958 5.62541 83.5902 8.10625C84.1245 8.33708 84.45 8.635 84.5666 9C84.6842 9.365 84.6504 9.70459 84.4652 10.0188C84.2801 10.2688 84.0078 10.4771 83.6486 10.6438C83.2884 10.8104 82.9125 10.8104 82.5208 10.6438C77.5708 8.13792 72.3546 6.28708 66.8722 5.09125C61.3898 3.89541 55.7949 3.2975 50.0875 3.2975C44.4523 3.2975 38.9389 3.93375 33.5472 5.20625C28.1555 6.47875 22.924 8.29125 17.8527 10.6438C17.6037 10.6829 17.3097 10.6558 16.9708 10.5625C16.6328 10.4692 16.4069 10.2975 16.293 10.0475C16.1791 9.8175 16.1222 9.51958 16.1222 9.15375C16.1222 8.78875 16.2611 8.52291 16.5388 8.35625C21.674 5.77291 27.0995 3.83041 32.8152 2.52875C38.531 1.22791 44.3055 0.577499 50.1389 0.577499ZM50.1444 37.25C58.5166 37.25 65.7102 39.7758 71.725 44.8275C77.7398 49.8783 80.7472 56.08 80.7472 63.4325C80.7472 63.8683 80.6194 64.2017 80.3639 64.4325C80.1074 64.6633 79.737 64.7787 79.2527 64.7787C78.9314 64.7787 78.5963 64.6633 78.2472 64.4325C77.899 64.2017 77.725 63.8683 77.725 63.4325C77.725 56.8108 75.0139 51.2404 69.5916 46.7212C64.1694 42.2021 57.6861 39.9425 50.1416 39.9425C42.5972 39.9425 36.1236 42.2021 30.7208 46.7212C25.3189 51.2404 22.618 56.8083 22.618 63.425C22.618 70.4492 23.9838 76.3971 26.7152 81.2688C29.4467 86.1413 33.3907 91.0712 38.5472 96.0587C38.9889 96.4679 39.1509 96.8504 39.0333 97.2063C38.9157 97.5621 38.7537 97.8329 38.5472 98.0188C38.2907 98.2496 37.9541 98.3954 37.5375 98.4563C37.1208 98.5171 36.7273 98.3713 36.3569 98.0188C31.1291 93.0188 27.0282 87.785 24.0541 82.3175C21.081 76.8492 19.5944 70.5533 19.5944 63.43C19.5944 56.0792 22.5926 49.8783 28.5889 44.8275C34.5861 39.7758 41.7713 37.25 50.1444 37.25ZM49.8708 62.0575C50.3486 62.0575 50.7213 62.1892 50.9889 62.4525C51.2555 62.715 51.3889 63.0417 51.3889 63.4325C51.3889 70.1233 54.0546 75.6071 59.3861 79.8838C64.7166 84.1596 70.9574 86.2975 78.1083 86.2975C79.0629 86.2975 80.0676 86.2558 81.1222 86.1725C82.1759 86.0892 83.2333 85.9642 84.2944 85.7975C84.6148 85.7783 84.9139 85.8408 85.1916 85.985C85.4694 86.13 85.6546 86.3979 85.7472 86.7887C85.9111 87.1554 85.8703 87.4683 85.625 87.7275C85.3796 87.9858 85.0254 88.1567 84.5625 88.24C83.5365 88.5283 82.4342 88.7254 81.2555 88.8313C80.0768 88.9371 79.0277 88.99 78.1083 88.99C70.1027 88.99 63.1495 86.5663 57.2486 81.7188C51.3477 76.8704 48.3972 70.775 48.3972 63.4325C48.3972 63.0417 48.5236 62.715 48.7764 62.4525C49.0282 62.1892 49.393 62.0575 49.8708 62.0575Z" fill="#0163B6"></path>
  </g>
  <defs>
    <clipPath id="clip0_850_30">
      <rect width="100" height="100" fill="white"></rect>
    </clipPath>
  </defs>
</svg>
