<?xml version="1.0" encoding="UTF-8"?>
<svg xmlns="http://www.w3.org/2000/svg" width="100" height="100" viewBox="0 0 100 100" fill="none">
  <path d="M97.8639 98.8L80.8014 80.1864H26.4958C24.4977 80.1864 22.7875 79.4106 21.3653 77.8591C19.9421 76.3066 19.2306 74.4404 19.2306 72.2606V68.0651H79.0597C81.1199 68.0651 82.9171 67.2283 84.4514 65.5545C85.9856 63.8818 86.7528 61.9217 86.7528 59.6742V18.1818H90.5986C92.5958 18.1818 94.306 18.9581 95.7292 20.5106C97.1523 22.0621 97.8639 23.9278 97.8639 26.1076V98.8ZM6.40972 64.6273L17.3611 52.6803H69.2306C70.2278 52.6803 71.0468 52.3308 71.6875 51.6318C72.3292 50.9328 72.65 50.0394 72.65 48.9515V8.39091C72.65 7.30404 72.3292 6.41061 71.6875 5.71061C71.0468 5.01162 70.2278 4.66212 69.2306 4.66212H9.82916C8.83194 4.66212 8.01296 5.01162 7.37222 5.71061C6.73055 6.41061 6.40972 7.30404 6.40972 8.39091V64.6273ZM2.13611 75.9909V8.39091C2.13611 6.14343 2.90324 4.18333 4.4375 2.51061C5.97176 0.83687 7.76898 0 9.82916 0H69.2306C71.2907 0 73.088 0.83687 74.6222 2.51061C76.1565 4.18333 76.9236 6.14343 76.9236 8.39091V48.9515C76.9236 51.199 76.1565 53.1591 74.6222 54.8318C73.088 56.5056 71.2907 57.3424 69.2306 57.3424H19.2306L2.13611 75.9909Z" fill="#0163B6"></path>
</svg>
