<?xml version="1.0" encoding="UTF-8"?>
<svg xmlns="http://www.w3.org/2000/svg" width="100" height="100" viewBox="0 0 100 100" fill="none">
  <g clip-path="url(#clip0_850_28)">
    <path d="M63.2472 52.4732H84.6153V46.9786H63.2472V52.4732ZM63.2472 32.6929H84.6153V27.1982H63.2472V32.6929ZM15.3847 73.6268H56.1361V72.7054C56.1361 68.7137 54.5426 65.575 51.3556 63.2893C48.1685 61.0048 41.637 59.8625 35.7611 59.8625C29.8852 59.8625 23.3532 61.0048 20.1653 63.2893C16.9782 65.575 15.3847 68.7137 15.3847 72.7054V73.6268ZM35.7444 46.675C37.963 46.675 41.8361 45.7 43.3639 43.75C44.8917 41.7988 45.6556 39.397 45.6556 36.5446C45.6556 33.6923 44.8972 31.2839 43.3806 29.3196C41.863 27.3554 37.9949 26.3732 35.7764 26.3732C33.5579 26.3732 29.6847 27.3488 28.1569 29.3C26.6292 31.25 25.8653 33.6512 25.8653 36.5036C25.8653 39.356 26.6241 41.7643 28.1417 43.7286C29.6583 45.6929 33.5259 46.675 35.7444 46.675ZM7.69167 100C5.55741 100 3.74167 99.0381 2.24444 97.1143C0.748149 95.1893 0 92.8548 0 90.1107V9.88929C0 7.14524 0.748149 4.81071 2.24444 2.88571C3.74167 0.9619 5.55741 0 7.69167 0H92.3083C94.4426 0 96.2583 0.9619 97.7556 2.88571C99.2519 4.81071 100 7.14524 100 9.88929V90.1107C100 92.8548 99.2519 95.1893 97.7556 97.1143C96.2583 99.0381 94.4426 100 92.3083 100H7.69167ZM7.69167 94.5054H92.3083C93.163 94.5054 93.9463 94.0476 94.6583 93.1321C95.3704 92.2167 95.7264 91.2095 95.7264 90.1107V9.88929C95.7264 8.79048 95.3704 7.78334 94.6583 6.86786C93.9463 5.95238 93.163 5.49465 92.3083 5.49465H7.69167C6.83704 5.49465 6.0537 5.95238 5.34167 6.86786C4.62963 7.78334 4.27361 8.79048 4.27361 9.88929V90.1107C4.27361 91.2095 4.62963 92.2167 5.34167 93.1321C6.0537 94.0476 6.83704 94.5054 7.69167 94.5054Z" fill="#0163B6"></path>
  </g>
  <defs>
    <clipPath id="clip0_850_28">
      <rect width="100" height="100" fill="white"></rect>
    </clipPath>
  </defs>
</svg>
