<?xml version="1.0" encoding="UTF-8"?>
<svg xmlns="http://www.w3.org/2000/svg" width="60" height="60" viewBox="0 0 60 60" fill="none">
  <path d="M15.0066 46.3125C15.6897 46.3125 16.25 46.0916 16.6875 45.6497C17.125 45.2078 17.3438 44.6453 17.3438 43.9622C17.3438 43.2791 17.1228 42.7188 16.6809 42.2812C16.2391 41.8438 15.6766 41.625 14.9934 41.625C14.3103 41.625 13.75 41.8459 13.3125 42.2878C12.875 42.7297 12.6562 43.2922 12.6562 43.9753C12.6562 44.6584 12.8772 45.2188 13.3191 45.6562C13.7609 46.0938 14.3234 46.3125 15.0066 46.3125ZM15.0066 32.3438C15.6897 32.3438 16.25 32.1228 16.6875 31.6809C17.125 31.2391 17.3438 30.6766 17.3438 29.9934C17.3438 29.3103 17.1228 28.75 16.6809 28.3125C16.2391 27.875 15.6766 27.6562 14.9934 27.6562C14.3103 27.6562 13.75 27.8772 13.3125 28.3191C12.875 28.7609 12.6562 29.3234 12.6562 30.0066C12.6562 30.6897 12.8772 31.25 13.3191 31.6875C13.7609 32.125 14.3234 32.3438 15.0066 32.3438ZM15.0066 18.375C15.6897 18.375 16.25 18.1541 16.6875 17.7122C17.125 17.2703 17.3438 16.7078 17.3438 16.0247C17.3438 15.3416 17.1228 14.7812 16.6809 14.3438C16.2391 13.9062 15.6766 13.6875 14.9934 13.6875C14.3103 13.6875 13.75 13.9084 13.3125 14.3503C12.875 14.7922 12.6562 15.3547 12.6562 16.0378C12.6562 16.7209 12.8772 17.2812 13.3191 17.7188C13.7609 18.1562 14.3234 18.375 15.0066 18.375ZM27 45H46.5938V42.9375H27V45ZM27 31.0312H46.5938V28.9688H27V31.0312ZM27 17.0625H46.5938V15H27V17.0625ZM6.1875 58.875C4.76437 58.875 3.56469 58.3872 2.58844 57.4116C1.61281 56.4353 1.125 55.2356 1.125 53.8125V6.1875C1.125 4.76375 1.61281 3.56406 2.58844 2.58844C3.56469 1.61281 4.76437 1.125 6.1875 1.125H53.8125C55.2363 1.125 56.4359 1.61281 57.4116 2.58844C58.3872 3.56406 58.875 4.76375 58.875 6.1875V53.8125C58.875 55.2356 58.3872 56.4353 57.4116 57.4116C56.4359 58.3872 55.2363 58.875 53.8125 58.875H6.1875ZM6.1875 56.8125H53.8125C54.5625 56.8125 55.25 56.5 55.875 55.875C56.5 55.25 56.8125 54.5625 56.8125 53.8125V6.1875C56.8125 5.4375 56.5 4.75 55.875 4.125C55.25 3.5 54.5625 3.1875 53.8125 3.1875H6.1875C5.4375 3.1875 4.75 3.5 4.125 4.125C3.5 4.75 3.1875 5.4375 3.1875 6.1875V53.8125C3.1875 54.5625 3.5 55.25 4.125 55.875C4.75 56.5 5.4375 56.8125 6.1875 56.8125Z" fill="#1C619A"></path>
</svg>
