<?xml version="1.0" encoding="UTF-8"?>
<svg xmlns="http://www.w3.org/2000/svg" width="44" height="62" viewBox="0 0 44 62" fill="none">
  <path d="M22 62C24.1068 62 26.0204 60.9201 27.1194 59.1112C34.8204 46.4366 44 29.7323 44 22.1312C44 9.92802 34.1309 0 22 0C9.86908 0 0 9.92802 0 22.1312C0 29.7323 9.17976 46.4366 16.8806 59.1112C17.9796 60.9201 19.8934 62 22 62ZM13.1572 20.6117C13.1572 15.7069 17.1242 11.7164 22 11.7164C26.8758 11.7164 30.8428 15.7069 30.8428 20.6117C30.8428 25.5167 26.8758 29.5071 22 29.5071C17.1242 29.5071 13.1572 25.5168 13.1572 20.6117Z" fill="white"></path>
</svg>
