<?xml version="1.0" encoding="UTF-8"?>
<svg xmlns="http://www.w3.org/2000/svg" width="60" height="60" viewBox="0 0 60 60" fill="none">
  <g clip-path="url(#clip0_783_47)">
    <path d="M21.7932 33.0501H9.16497C9.03647 33.0568 8.9079 33.0383 8.78711 32.9956C8.66632 32.953 8.55584 32.8871 8.46242 32.802C8.36899 32.717 8.29458 32.6145 8.24373 32.5008C8.19288 32.3872 8.16666 32.2648 8.16666 32.1411C8.16666 32.0174 8.19288 31.895 8.24373 31.7814C8.29458 31.6678 8.36899 31.5653 8.46242 31.4802C8.55584 31.3951 8.66632 31.3293 8.78711 31.2866C8.9079 31.244 9.03647 31.2254 9.16497 31.2321H21.7932C22.0351 31.2447 22.2628 31.346 22.4295 31.5151C22.5961 31.6842 22.689 31.9082 22.689 32.1411C22.689 32.374 22.5961 32.5981 22.4295 32.7672C22.2628 32.9362 22.0351 33.0375 21.7932 33.0501ZM22.7402 39.4199C22.7402 39.1784 22.6405 38.9469 22.4628 38.7762C22.2852 38.6054 22.0444 38.5095 21.7932 38.5095H9.16497C8.9138 38.5095 8.67291 38.6054 8.49531 38.7762C8.3177 38.9469 8.21792 39.1784 8.21792 39.4199C8.21792 39.6613 8.3177 39.8929 8.49531 40.0636C8.67291 40.2343 8.9138 40.3302 9.16497 40.3302H21.7932C22.0444 40.3302 22.2852 40.2343 22.4628 40.0636C22.6405 39.8929 22.7402 39.6613 22.7402 39.4199ZM9.16497 45.7896C8.92303 45.8022 8.69531 45.9035 8.52869 46.0726C8.36206 46.2417 8.26919 46.4657 8.26919 46.6986C8.26919 46.9315 8.36206 47.1556 8.52869 47.3247C8.69531 47.4938 8.92303 47.595 9.16497 47.6076H15.4944C15.7363 47.595 15.964 47.4938 16.1306 47.3247C16.2973 47.1556 16.3901 46.9315 16.3901 46.6986C16.3901 46.4657 16.2973 46.2417 16.1306 46.0726C15.964 45.9035 15.7363 45.8022 15.4944 45.7896H9.16497ZM23.7012 60.0001H5.99333C4.40425 59.9987 2.88068 59.3912 1.75703 58.3111C0.633382 57.231 0.00147069 55.7665 0 54.239L0 11.7758C0.00220419 10.2485 0.634351 8.78442 1.75784 7.70447C2.88133 6.62452 4.40448 6.01688 5.99333 6.01476H11.7923C13.7641 -1.94876 22.1542 -2.06088 24.1761 6.01476H35.0491C35.3002 6.01476 35.5411 6.11067 35.7187 6.28139C35.8963 6.45211 35.9961 6.68366 35.9961 6.9251C35.9961 7.16654 35.8963 7.39809 35.7187 7.56881C35.5411 7.73953 35.3002 7.83545 35.0491 7.83545H13.3642C13.0414 10.1267 13.4634 12.4578 14.5723 14.5095C15.5954 13.6897 16.8997 13.2658 18.2304 13.3206C19.5612 13.3755 20.8229 13.9052 21.7692 14.8062C22.7156 15.7073 23.2785 16.915 23.3482 18.1936C23.4179 19.4722 22.9894 20.7299 22.1462 21.7211C21.303 22.7123 20.1058 23.3658 18.7883 23.5541C17.4708 23.7423 16.1276 23.4518 15.0209 22.7392C13.9143 22.0266 13.1237 20.9431 12.8035 19.7003C12.4833 18.4575 12.6564 17.1445 13.2892 16.0179C11.7306 13.5653 11.0862 10.676 11.4618 7.82477H5.99333C5.45428 7.82547 4.92066 7.92822 4.42292 8.12716C3.92518 8.3261 3.47308 8.61733 3.09243 8.98421C2.71178 9.3511 2.41004 9.78647 2.20443 10.2655C1.99881 10.7444 1.89336 11.2577 1.89409 11.7758V54.239C1.89483 55.2841 2.32686 56.2862 3.09538 57.0254C3.86389 57.7647 4.90612 58.1806 5.99333 58.182H23.7095C23.9514 58.1947 24.1792 58.2959 24.3458 58.465C24.5124 58.6341 24.6053 58.8582 24.6053 59.0911C24.6053 59.324 24.5124 59.548 24.3458 59.7171C24.1792 59.8862 23.9514 59.9875 23.7095 60.0001H23.7012ZM15.7165 15.9565C16.0091 16.2568 16.3626 16.4963 16.7553 16.6599C17.148 16.8236 17.5714 16.9081 17.9994 16.9081C18.4275 16.9081 18.8509 16.8236 19.2436 16.6599C19.6363 16.4963 19.9898 16.2568 20.2824 15.9565C19.6556 15.4145 18.8425 15.1146 17.9994 15.1146C17.1564 15.1146 16.3432 15.4145 15.7165 15.9565ZM21.3099 17.5129C20.4015 18.3028 19.2203 18.7402 17.9953 18.7402C16.7703 18.7402 15.589 18.3028 14.6806 17.5129C14.5345 18.0058 14.5094 18.5247 14.6072 19.0286C14.705 19.5324 14.9232 20.0076 15.2445 20.4167C15.5657 20.8259 15.9814 21.1577 16.4587 21.3862C16.936 21.6148 17.462 21.7337 17.9953 21.7337C18.5285 21.7337 19.0545 21.6148 19.5318 21.3862C20.0092 21.1577 20.4248 20.8259 20.7461 20.4167C21.0674 20.0076 21.2855 19.5324 21.3834 19.0286C21.4812 18.5247 21.4561 18.0058 21.3099 17.5129ZM13.7697 6.01476H22.2348C21.4377 3.4706 19.788 1.76737 17.9967 1.76737C16.2053 1.76737 14.5556 3.52399 13.7697 6.01476ZM59.9889 22.7213V49.3883C59.9887 49.6296 59.8888 49.8611 59.7112 50.0317L49.613 59.7384C49.4352 59.9087 49.1947 60.0046 48.9437 60.0054H31.2387C29.6486 60.004 28.1242 59.3958 27.0004 58.3146C25.8766 57.2333 25.2453 55.7674 25.2453 54.239V22.7213C25.2425 22.0219 25.3839 21.329 25.6614 20.6824C25.9388 20.0359 26.3468 19.4486 26.8617 18.9545L38.7123 7.56314C39.7499 6.56822 41.1557 6.00948 42.6213 6.00948C44.0869 6.00948 45.4926 6.56822 46.5303 7.56314L58.3809 18.9545C58.8946 19.449 59.3013 20.0365 59.5773 20.6831C59.8533 21.3297 59.9932 22.0224 59.9889 22.7213ZM56.7673 50.296H49.9019V56.8953L56.7673 50.296ZM58.1059 22.7213C58.1076 22.2621 58.0144 21.8071 57.8318 21.3828C57.6492 20.9585 57.3808 20.5732 57.0422 20.2492L45.1916 8.85791C44.5092 8.20403 43.5849 7.83686 42.6213 7.83686C41.6577 7.83686 40.7334 8.20403 40.0509 8.85791L28.2003 20.2492C27.8617 20.5732 27.5933 20.9585 27.4107 21.3828C27.2281 21.8071 27.135 22.2621 27.1366 22.7213V54.239C27.1381 55.2843 27.5708 56.2864 28.3397 57.0256C29.1087 57.7648 30.1512 58.1806 31.2387 58.182H48.0106V49.3883C48.0106 49.1473 48.1099 48.9162 48.287 48.7455C48.464 48.5749 48.7041 48.4786 48.9548 48.4779H58.1198L58.1059 22.7213ZM42.6227 23.605C41.2003 23.605 39.8363 23.0618 38.8305 22.0951C37.8248 21.1283 37.2598 19.8171 37.2598 18.4499C37.2598 17.0827 37.8248 15.7715 38.8305 14.8047C39.8363 13.838 41.2003 13.2948 42.6227 13.2948C44.045 13.2948 45.4091 13.838 46.4148 14.8047C47.4205 15.7715 47.9856 17.0827 47.9856 18.4499C47.9856 19.8171 47.4205 21.1283 46.4148 22.0951C45.4091 23.0618 44.045 23.605 42.6227 23.605ZM42.6227 15.1155C41.7019 15.1155 40.8189 15.4671 40.1679 16.0929C39.5168 16.7187 39.1511 17.5675 39.1511 18.4526C39.1511 19.3376 39.5168 20.1864 40.1679 20.8122C40.8189 21.438 41.7019 21.7896 42.6227 21.7896C43.5434 21.7896 44.4264 21.438 45.0774 20.8122C45.7285 20.1864 46.0942 19.3376 46.0942 18.4526C46.0942 17.5675 45.7285 16.7187 45.0774 16.0929C44.4264 15.4671 43.5434 15.1155 42.6227 15.1155ZM42.6227 38.5095C37.4903 38.5095 38.6012 32.6577 42.6227 32.7191C43.2892 32.7017 43.9467 32.8711 44.5148 33.2067C45.0829 33.5424 45.5371 34.0297 45.8221 34.6092C45.9195 34.8313 46.1047 35.0072 46.3369 35.0983C46.5691 35.1894 46.8294 35.1882 47.0607 35.0951C49.0798 33.811 45.1361 30.9785 43.5697 30.9785C43.5503 30.231 43.8113 28.8027 42.6227 28.8054C41.434 28.8081 41.6923 30.2363 41.6756 30.9838C40.4141 31.137 39.2644 31.7569 38.4708 32.7118C37.6772 33.6668 37.3022 34.8816 37.4255 36.0981C37.5488 37.3146 38.1606 38.4369 39.1311 39.2267C40.1016 40.0164 41.3541 40.4114 42.6227 40.3275C45.4555 40.3275 46.0498 41.9026 46.0498 43.2214C45.9934 44.0394 45.603 44.8028 44.9637 45.3453C44.3243 45.8878 43.4879 46.1656 42.6365 46.118C41.97 46.135 41.3127 45.9655 40.7447 45.6299C40.1766 45.2943 39.7223 44.8072 39.4371 44.2279C39.3892 44.1177 39.3191 44.0176 39.2308 43.9335C39.1425 43.8494 39.0378 43.7829 38.9228 43.7377C38.8077 43.6926 38.6845 43.6697 38.5602 43.6705C38.4359 43.6712 38.313 43.6955 38.1985 43.742C36.1822 45.0261 40.112 47.8452 41.6756 47.8532C41.6923 48.6034 41.4312 50.0343 42.6227 50.0317C43.8141 50.029 43.5503 48.6007 43.5697 47.8559C44.8504 47.7238 46.0251 47.1109 46.838 46.1505C47.6509 45.19 48.0364 43.9599 47.9104 42.7276C47.7844 41.4954 47.1573 40.3609 46.1654 39.5709C45.1736 38.7809 43.8973 38.3995 42.6143 38.5095H42.6227Z" fill="#1C619A"></path>
  </g>
  <defs>
    <clipPath id="clip0_783_47">
      <rect width="60" height="60" fill="white"></rect>
    </clipPath>
  </defs>
</svg>
