<?xml version="1.0" encoding="UTF-8"?>
<svg xmlns="http://www.w3.org/2000/svg" width="65" height="60" viewBox="0 0 65 60" fill="none">
  <g clip-path="url(#clip0_783_51)">
    <path fill-rule="evenodd" clip-rule="evenodd" d="M53.0704 0.273438C56.1186 0.273438 58.8798 1.51309 60.8797 3.5197C62.8765 5.52318 64.1152 8.29361 64.1152 11.3552C64.1152 14.4136 62.8797 17.184 60.8797 19.1907C58.8829 21.1941 56.1217 22.4369 53.0704 22.4369C50.0221 22.4369 47.2609 21.1973 45.261 19.1907C43.2611 17.184 42.0256 14.4167 42.0256 11.3552C42.0256 8.29674 43.2611 5.52631 45.261 3.5197C47.2609 1.51309 50.0221 0.273438 53.0704 0.273438ZM5.55589 7.43587C5.05981 7.43587 4.65421 7.03205 4.65421 6.53118C4.65421 6.03344 5.05669 5.62648 5.55589 5.62648H17.1155C17.6116 5.62648 18.0172 6.03031 18.0172 6.53118C18.0172 7.02892 17.6147 7.43587 17.1155 7.43587H5.55589ZM5.55589 17.0807C5.05981 17.0807 4.65421 16.6769 4.65421 16.176C4.65421 15.6783 5.05669 15.2714 5.55589 15.2714H17.1155C17.6116 15.2714 18.0172 15.6752 18.0172 16.176C18.0172 16.6738 17.6147 17.0807 17.1155 17.0807H5.55589ZM5.55589 13.8658C5.05981 13.8658 4.65421 13.462 4.65421 12.9611C4.65421 12.4634 5.05669 12.0564 5.55589 12.0564H17.1155C17.6116 12.0564 18.0172 12.4602 18.0172 12.9611C18.0172 13.4588 17.6147 13.8658 17.1155 13.8658H5.55589ZM5.55589 10.6508C5.05981 10.6508 4.65421 10.247 4.65421 9.74613C4.65421 9.24839 5.05669 8.84144 5.55589 8.84144H17.1155C17.6116 8.84144 18.0172 9.24526 18.0172 9.74613C18.0172 10.2439 17.6147 10.6508 17.1155 10.6508H5.55589ZM32.5002 42.2338C34.1039 42.2338 35.5734 42.6001 36.6561 43.1917C37.9009 43.871 38.6716 44.8696 38.6716 46.0185C38.6716 47.1705 37.9009 48.166 36.6561 48.8453C35.5765 49.4369 34.1039 49.8032 32.5002 49.8032C30.8965 49.8032 29.427 49.4369 28.3444 48.8453C27.0995 48.166 26.3289 47.1674 26.3289 46.0185C26.3289 44.8665 27.0995 43.871 28.3444 43.1917C29.427 42.6001 30.8965 42.2338 32.5002 42.2338ZM35.7949 44.7726C34.9681 44.3218 33.8044 44.0432 32.4971 44.0432C31.1898 44.0432 30.0261 44.3218 29.2024 44.7726C28.5409 45.1357 28.1322 45.5771 28.1322 46.0185C28.1322 46.4599 28.5409 46.9013 29.2024 47.2644C30.0292 47.7152 31.1929 47.9938 32.4971 47.9938C33.8044 47.9938 34.9681 47.7152 35.7949 47.2644C36.4564 46.9013 36.8651 46.4599 36.8651 46.0185C36.8651 45.5771 36.4595 45.1357 35.7949 44.7726ZM3.92413 0.273438C3.08797 0.273438 2.32981 0.614655 1.77757 1.16874C1.22845 1.7197 0.885254 2.48352 0.885254 3.32248V19.3847C0.885254 20.2237 1.22533 20.9844 1.77757 21.5385C2.32669 22.0894 3.08797 22.4338 3.92413 22.4338H8.73518L15.1031 28.823C15.2653 28.9889 15.4931 29.0922 15.7427 29.0922C16.2388 29.0922 16.6444 28.6884 16.6444 28.1875V22.4338H18.7473C19.5834 22.4338 20.3416 22.0926 20.8938 21.5385C21.4429 20.9875 21.7861 20.2237 21.7861 19.3847V3.32248C21.7861 2.48352 21.4461 1.72283 20.8938 1.16874C20.3447 0.617786 19.5834 0.273438 18.7473 0.273438H3.92413ZM18.7473 2.08283H3.92413C3.58405 2.08283 3.27517 2.2237 3.05365 2.44909C2.82901 2.67448 2.68861 2.98439 2.68861 3.32248V19.3847C2.68861 19.726 2.82901 20.0359 3.05365 20.2581C3.27829 20.4835 3.58717 20.6244 3.92413 20.6244H9.10645C9.33733 20.6244 9.56821 20.712 9.74293 20.8905L14.841 26.0056V21.5291C14.841 21.0314 15.2435 20.6244 15.7427 20.6244H18.7473C19.0873 20.6244 19.3962 20.4835 19.6177 20.2581C19.8424 20.0327 19.9828 19.7228 19.9828 19.3847V3.32248C19.9828 2.98126 19.8424 2.67135 19.6177 2.44909C19.3962 2.22057 19.0873 2.08283 18.7473 2.08283ZM39.1427 37.0373H25.8577V32.2947C25.8577 31.7969 25.4553 31.39 24.9561 31.39C24.4569 31.39 24.0544 31.7938 24.0544 32.2947V37.0373H19.7956V30.4289C19.7956 29.5618 20.1481 28.7761 20.7191 28.2032C21.2901 27.6303 22.0732 27.2766 22.9374 27.2766H27.3585C28.7125 28.535 30.5221 29.3051 32.5002 29.3051C34.4814 29.3051 36.2879 28.535 37.642 27.2766H42.063C42.9273 27.2766 43.7104 27.6303 44.2813 28.2032C44.8523 28.7761 45.2049 29.5618 45.2049 30.4289V37.0373H40.9429V32.2947C40.9429 31.7969 40.5405 31.39 40.0413 31.39C39.5452 31.39 39.1396 31.7938 39.1396 32.2947V37.0373H39.1427ZM38.2847 15.5218V13.5872C38.2847 13.0018 38.0445 12.4665 37.6576 12.0783C37.2707 11.6901 36.7372 11.4491 36.1537 11.4491H28.8498C28.2664 11.4491 27.7329 11.6901 27.346 12.0783C26.9591 12.4665 26.7189 13.0018 26.7189 13.5872V15.4028C27.9419 16.0947 29.2055 16.4421 30.4504 16.4421C31.8232 16.4421 33.1835 16.0195 34.4533 15.1649C34.9213 14.8519 35.2989 15.0366 35.6701 15.3527C36.0477 15.6752 36.603 15.8317 37.149 15.8286C37.5827 15.8223 37.9914 15.719 38.2847 15.5218ZM40.0849 13.5872C40.0849 12.5009 39.6419 11.5148 38.9305 10.8011C38.2192 10.0874 37.2333 9.64283 36.1537 9.64283H28.8498C27.7672 9.64283 26.7844 10.0874 26.073 10.8011C25.3617 11.5148 24.9186 12.5009 24.9186 13.5872V21.695C24.9186 23.0661 25.2837 24.3559 25.9233 25.4703H22.9405C21.5802 25.4703 20.3447 26.0275 19.4493 26.926C18.5538 27.8244 17.9985 29.064 17.9985 30.4289V37.0373H16.5258C15.7989 37.0373 15.0781 37.3378 14.5602 37.8481C14.0205 38.3802 13.7365 39.0971 13.8301 39.8547L15.6179 54.1514V57.0157C15.6179 58.5058 16.8347 59.7267 18.3198 59.7267H46.69C48.172 59.7267 49.3919 58.5027 49.3919 57.0157V54.1514L51.1797 39.8547C51.2733 39.1127 50.9831 38.374 50.4496 37.8481C49.9317 37.3378 49.2109 37.0373 48.484 37.0373H47.0113V30.4289C47.0113 29.064 46.456 27.8244 45.5605 26.926C44.6651 26.0275 43.4296 25.4703 42.0693 25.4703H39.0865C39.7261 24.3559 40.0912 23.0661 40.0912 21.695V13.5872H40.0849ZM38.2847 17.4689C37.9228 17.5722 37.5421 17.6223 37.1584 17.6254C36.3721 17.6317 35.5578 17.4282 34.8964 17.0087C33.4768 17.8383 31.9729 18.2484 30.4504 18.2484C29.1993 18.2484 27.945 17.9698 26.7189 17.4188V21.6919C26.7189 24.8818 29.3209 27.4957 32.5033 27.4957C34.0914 27.4957 35.5391 26.8414 36.5874 25.7896C37.6357 24.7378 38.2878 23.2853 38.2878 21.6919V17.4689H38.2847ZM16.5227 38.8435C16.2637 38.8435 16.0017 38.95 15.8176 39.1315C15.6834 39.2661 15.5929 39.4414 15.6148 39.6355L17.3089 53.1934H47.6884L49.3825 39.6355C49.4075 39.4383 49.3264 39.2755 49.1797 39.1315C48.9957 38.95 48.7336 38.8435 48.4746 38.8435C37.8261 38.8435 27.1744 38.8435 16.5227 38.8435ZM18.3167 57.9173C17.8237 57.9173 17.4181 57.5103 17.4181 57.0157V55.0028H22.9125H47.5854V57.0157C47.5854 57.5134 47.1829 57.9173 46.6869 57.9173H18.3167ZM52.1687 6.143V11.3552C52.1687 11.8529 52.5712 12.2599 53.0704 12.2599H56.8362C57.3323 12.2599 57.7379 11.856 57.7379 11.3552C57.7379 10.8574 57.3354 10.4505 56.8362 10.4505H53.9689V6.143C53.9689 5.64526 53.5665 5.23831 53.0673 5.23831C52.5712 5.23831 52.1687 5.64213 52.1687 6.143ZM53.9721 2.12665V2.71831C53.9721 3.21605 53.5696 3.623 53.0704 3.623C52.5743 3.623 52.1687 3.21918 52.1687 2.71831V2.12665C51.136 2.22683 50.1532 2.49605 49.2484 2.90926L49.5448 3.42265C49.7944 3.85465 49.6477 4.40561 49.2172 4.65605C48.7866 4.90648 48.2375 4.75935 47.9879 4.32735L47.6915 3.81396C47.2797 4.11135 46.8928 4.44005 46.534 4.80005C46.1752 5.16005 45.8476 5.54822 45.5512 5.96144L46.0629 6.25883C46.4934 6.50926 46.6401 7.06022 46.3905 7.49222C46.1409 7.92422 45.5917 8.07135 45.1612 7.82092L44.6495 7.52353C44.2377 8.43135 43.9693 9.41744 43.8695 10.4536H44.4592C44.9553 10.4536 45.3609 10.8574 45.3609 11.3583C45.3609 11.856 44.9584 12.263 44.4592 12.263H43.8695C43.9693 13.2992 44.2377 14.2853 44.6495 15.1931L45.1612 14.8957C45.5917 14.6453 46.1409 14.7924 46.3905 15.2244C46.6401 15.6564 46.4934 16.2074 46.0629 16.4578L45.5512 16.7552C45.8476 17.1684 46.1752 17.5566 46.534 17.9166C46.8928 18.2766 47.2797 18.6053 47.6915 18.9027L47.9879 18.3893C48.2375 17.9573 48.7866 17.8101 49.2172 18.0606C49.6477 18.311 49.7944 18.862 49.5448 19.294L49.2484 19.8074C50.1532 20.2206 51.136 20.4898 52.1687 20.59V19.9983C52.1687 19.5006 52.5712 19.0936 53.0704 19.0936C53.5665 19.0936 53.9721 19.4974 53.9721 19.9983V20.59C55.0048 20.4898 55.9876 20.2206 56.8924 19.8074L56.596 19.294C56.3464 18.862 56.493 18.311 56.9236 18.0606C57.3541 17.8101 57.9033 17.9573 58.1529 18.3893L58.4493 18.9027C58.8611 18.6053 59.248 18.2766 59.6068 17.9166C59.9656 17.5566 60.2932 17.1684 60.5896 16.7552L60.0779 16.4578C59.6473 16.2074 59.5007 15.6564 59.7503 15.2244C59.9999 14.7924 60.549 14.6453 60.9796 14.8957L61.4913 15.1931C61.9031 14.2853 62.1714 13.2992 62.2713 12.263H61.6816C61.1855 12.263 60.7799 11.8592 60.7799 11.3583C60.7799 10.8606 61.1824 10.4536 61.6816 10.4536H62.2713C62.1714 9.41744 61.9031 8.43135 61.4913 7.52353L60.9796 7.82092C60.549 8.07135 59.9999 7.92422 59.7503 7.49222C59.5007 7.06022 59.6473 6.50926 60.0779 6.25883L60.5896 5.96144C60.2932 5.54822 59.9656 5.16005 59.6068 4.80005C59.248 4.44005 58.8611 4.11135 58.4493 3.81396L58.1529 4.32735C57.9033 4.75935 57.3541 4.90648 56.9236 4.65605C56.493 4.40561 56.3464 3.85465 56.596 3.42265L56.8924 2.90926C55.9876 2.49605 55.0048 2.22683 53.9721 2.12665Z" fill="#0E5794"></path>
  </g>
  <defs>
    <clipPath id="clip0_783_51">
      <rect width="65" height="60" fill="white"></rect>
    </clipPath>
  </defs>
</svg>
