<?xml version="1.0" encoding="UTF-8"?>
<svg xmlns="http://www.w3.org/2000/svg" width="179" height="69" viewBox="0 0 179 69" fill="none">
  <path d="M122.43 38.7983L124.213 39.3331C124.094 39.8382 123.916 40.2541 123.648 40.5809C123.381 40.9078 123.084 41.1752 122.697 41.3237C122.311 41.502 121.836 41.5911 121.241 41.5911C120.528 41.5911 119.964 41.502 119.489 41.294C119.043 41.086 118.657 40.7295 118.33 40.1947C118.003 39.6896 117.825 39.0063 117.825 38.2041C117.825 37.1344 118.122 36.3025 118.686 35.7083C119.251 35.1141 120.083 34.8467 121.123 34.8467C121.955 34.8467 122.579 35.025 123.054 35.3518C123.529 35.6786 123.886 36.1837 124.094 36.8968L122.311 37.283C122.252 37.075 122.192 36.9265 122.103 36.8373C121.984 36.6888 121.865 36.5699 121.687 36.4808C121.509 36.3917 121.331 36.362 121.152 36.362C120.707 36.362 120.35 36.5402 120.112 36.9265C119.934 37.1939 119.845 37.6395 119.845 38.2041C119.845 38.9171 119.964 39.4222 120.172 39.6896C120.38 39.957 120.707 40.1056 121.093 40.1056C121.479 40.1056 121.776 39.9867 121.955 39.7787C122.192 39.5113 122.341 39.2142 122.43 38.7983Z" fill="white"></path>
  <path d="M124.926 38.2045C124.926 37.1349 125.223 36.3029 125.817 35.7087C126.411 35.1145 127.243 34.8174 128.313 34.8174C129.412 34.8174 130.244 35.1145 130.838 35.679C131.433 36.2732 131.73 37.0754 131.73 38.145C131.73 38.9175 131.611 39.5415 131.343 40.0168C131.076 40.4922 130.719 40.8785 130.214 41.1459C129.739 41.4133 129.115 41.5618 128.402 41.5618C127.659 41.5618 127.065 41.443 126.56 41.2053C126.085 40.9676 125.698 40.6111 125.371 40.0763C125.045 39.5415 124.926 38.977 124.926 38.2045ZM126.946 38.2045C126.946 38.8581 127.065 39.3335 127.303 39.6306C127.54 39.9277 127.867 40.0763 128.313 40.0763C128.759 40.0763 129.085 39.9277 129.323 39.6603C129.561 39.3632 129.68 38.8581 129.68 38.145C129.68 37.5211 129.561 37.0754 129.293 36.808C129.056 36.5109 128.699 36.3921 128.283 36.3921C127.867 36.3921 127.54 36.5406 127.303 36.8378C127.065 37.0754 126.946 37.5508 126.946 38.2045Z" fill="white"></path>
  <path d="M132.769 34.9365H135.414L136.424 38.9178L137.434 34.9365H140.078V41.473H138.414V36.4815L137.137 41.473H135.651L134.374 36.4815V41.473H132.71V34.9365H132.769Z" fill="white"></path>
  <path d="M141.386 34.9365H144.743C145.486 34.9365 146.021 35.1148 146.377 35.4713C146.734 35.8279 146.912 36.3032 146.912 36.9569C146.912 37.6105 146.704 38.1453 146.318 38.5019C145.931 38.8881 145.307 39.0664 144.505 39.0664H143.406V41.5027H141.386V34.9365ZM143.406 37.7294H143.911C144.297 37.7294 144.565 37.67 144.743 37.5214C144.891 37.3728 144.981 37.2243 144.981 37.0163C144.981 36.8083 144.921 36.6301 144.773 36.4815C144.624 36.3329 144.386 36.2735 144 36.2735H143.436V37.7294H143.406Z" fill="white"></path>
  <path d="M147.982 34.9365H150.002V39.8686H153.151V41.473H147.982V34.9365Z" fill="white"></path>
  <path d="M154.162 34.9365H156.182V41.473H154.162V34.9365Z" fill="white"></path>
  <path d="M161.649 40.3731H159.361L159.034 41.4427H156.984L159.45 34.9062H161.649L164.115 41.4427H162.005L161.649 40.3731ZM161.233 38.9767L160.52 36.6295L159.807 38.9767H161.233Z" fill="white"></path>
  <path d="M164.739 34.9365H166.611L169.077 38.5613V34.9365H170.978V41.473H169.077L166.64 37.8779V41.473H164.739V34.9365Z" fill="white"></path>
  <path d="M171.869 34.9365H178.02V36.5409H175.97V41.473H173.949V36.5409H171.899V34.9365H171.869Z" fill="white"></path>
  <path d="M98.1262 44.8899L103.979 43.0478L102.078 38.8288C100.681 40.5818 99.285 42.8398 98.1262 44.8899ZM96.1356 25.6073L84.667 0.0556641L0.703125 4.80946L23.967 68.2726L68.7418 54.1598C65.8895 50.0596 64.8496 45.187 68.1476 42.8101C71.8318 40.1361 77.3878 43.2261 80.9234 47.5936C84.3402 41.8891 93.9369 28.6081 96.1356 25.6073Z" fill="#225E63"></path>
  <path d="M82.0512 18.5209C85.5571 18.5209 88.4094 15.8469 88.4094 12.5192C88.4094 9.19159 85.5571 6.51758 82.0512 6.51758C78.5453 6.51758 75.693 9.19159 75.693 12.5192C75.693 15.8172 78.5453 18.5209 82.0512 18.5209ZM76.8517 21.1058H87.2507V48.2915H76.8517V21.1058Z" fill="#FEFEFE"></path>
  <path d="M71.7118 29.0383C71.8009 29.068 71.8604 29.0383 71.8604 28.9492V22.0562C71.8604 21.967 71.8009 21.8779 71.7118 21.8185C71.7118 21.8185 70.3451 20.9271 66.1855 20.6895C65.9775 20.5706 62.3231 20.5409 61.3426 20.6895C46.1899 21.9076 45.6254 32.8711 45.6254 33.3464V36.0204C45.6254 36.3473 45.6254 47.5484 61.3426 48.5289C62.8876 48.6477 65.8884 48.5289 66.1855 48.5289C69.8103 48.5289 72.306 47.4295 72.306 47.4295C72.3952 47.3998 72.4546 47.3107 72.4546 47.2216V40.7742C72.4546 40.6851 72.3952 40.6554 72.3357 40.7148C72.3357 40.7148 71.2067 41.6061 66.2747 42.1112C64.8782 42.2598 64.1949 42.2004 63.6898 42.1112C56.6779 40.9228 56.3511 35.8125 56.3511 35.8125C56.3511 35.7233 56.3214 35.5748 56.3214 35.5153V33.5544C56.3214 33.4653 56.3214 33.3167 56.3511 33.2573C56.3511 33.2573 56.8265 27.7607 63.6898 27.1665H66.2747C69.2755 27.5527 71.7118 29.0383 71.7118 29.0383Z" fill="#FEFEFE"></path>
  <path d="M16.746 48.2022C16.746 48.2913 16.8054 48.3508 16.8945 48.3508H27.0261C27.1152 48.3508 27.1746 48.2913 27.1746 48.2022V40.299C27.1746 40.2099 27.234 40.1505 27.3232 40.1505C27.3232 40.1505 43.5158 41.3092 43.5158 30.4646C43.5158 21.8781 33.3545 20.957 30.0269 21.1056C29.9675 21.1056 16.8945 21.1056 16.8945 21.1056C16.8054 21.1056 16.746 21.165 16.746 21.2541V48.2022ZM26.9963 34.1191V27.0181H29.4921C29.4921 27.0181 33.0871 27.1667 33.3843 29.6327C33.4437 29.811 33.4437 31.0291 33.3843 31.0885C32.9089 33.9705 29.7892 34.1191 29.7892 34.1191H26.9963Z" fill="#FEFEFE"></path>
  <path d="M82.3494 61.4092C83.1813 61.4092 83.835 61.4093 84.9046 60.9339C88.5888 59.0026 101.038 28.6081 114.17 19.249C114.259 19.1896 114.348 19.1005 114.408 19.0113C114.497 18.8925 114.497 18.7736 114.497 18.7736C114.497 18.7736 114.497 18.1497 112.566 18.1497C100.889 17.8229 88.7373 42.3347 82.3494 52.0205C82.2603 52.1394 81.8443 52.0205 81.8443 52.0205C81.8443 52.0205 77.5659 46.9696 73.852 45.0384C73.7629 45.0087 73.3469 44.8601 72.9012 44.8898C72.6041 44.8898 70.8809 45.2464 70.0787 46.0783C69.1279 47.0884 69.1576 47.653 69.1576 48.8711C69.1576 48.9603 69.2171 49.3762 69.3359 49.5842C70.257 51.1886 74.3868 56.8932 77.8036 60.0425C78.3087 60.4288 79.1109 61.4092 82.3494 61.4092Z" fill="#2BBC5D"></path>
  <path d="M117.617 10.0684H127.332C129.264 10.0684 130.808 10.3358 131.967 10.8409C133.156 11.3757 134.136 12.1184 134.879 13.0692C135.651 14.0497 136.216 15.1787 136.543 16.4563C136.899 17.7339 137.078 19.1006 137.078 20.5564C137.078 22.8145 136.81 24.5674 136.305 25.8153C135.8 27.0632 135.087 28.1031 134.166 28.9647C133.245 29.7966 132.264 30.3611 131.224 30.6582C129.798 31.0445 128.491 31.2228 127.332 31.2228H117.617V10.0684ZM124.153 14.8519V26.4095H125.758C127.124 26.4095 128.105 26.261 128.669 25.9639C129.234 25.6667 129.709 25.132 130.036 24.3892C130.363 23.6464 130.541 22.3985 130.541 20.705C130.541 18.4469 130.185 16.9316 129.442 16.0997C128.699 15.2678 127.511 14.8519 125.787 14.8519H124.153Z" fill="white"></path>
  <path d="M138.89 24.2401L145.129 23.8539C145.278 24.8641 145.545 25.6366 145.961 26.1714C146.645 27.033 147.595 27.4489 148.843 27.4489C149.764 27.4489 150.507 27.241 151.012 26.7953C151.517 26.3496 151.785 25.8445 151.785 25.28C151.785 24.7452 151.547 24.2401 151.072 23.7945C150.596 23.3488 149.467 22.9626 147.714 22.5763C144.832 21.9227 142.812 21.061 141.564 19.9914C140.316 18.9218 139.722 17.5551 139.722 15.8913C139.722 14.792 140.049 13.7818 140.673 12.8013C141.297 11.8209 142.247 11.0781 143.525 10.5136C144.803 9.94904 146.526 9.68164 148.724 9.68164C151.428 9.68164 153.508 10.1867 154.904 11.1969C156.331 12.2071 157.162 13.8115 157.43 16.0101L151.25 16.3667C151.072 15.4159 150.745 14.7326 150.21 14.2869C149.675 13.8412 148.962 13.6332 148.041 13.6332C147.269 13.6332 146.704 13.7818 146.318 14.1086C145.932 14.4354 145.753 14.8217 145.753 15.2971C145.753 15.6239 145.902 15.9507 146.229 16.2181C146.526 16.4855 147.269 16.7529 148.427 16.9906C151.28 17.6145 153.33 18.2385 154.578 18.8624C155.825 19.4863 156.717 20.2885 157.281 21.2096C157.846 22.1306 158.113 23.2002 158.113 24.359C158.113 25.7257 157.727 26.9736 156.984 28.1026C156.241 29.2613 155.172 30.123 153.835 30.7172C152.498 31.3114 150.775 31.6085 148.724 31.6085C145.129 31.6085 142.634 30.9252 141.237 29.5287C139.871 28.1323 139.098 26.3793 138.89 24.2401Z" fill="white"></path>
  <path d="M159.777 24.2401L166.016 23.8539C166.165 24.8641 166.432 25.6366 166.848 26.1714C167.531 27.033 168.482 27.4489 169.73 27.4489C170.651 27.4489 171.394 27.241 171.899 26.7953C172.404 26.3496 172.671 25.8445 172.671 25.28C172.671 24.7452 172.434 24.2401 171.958 23.7945C171.483 23.3488 170.354 22.9626 168.601 22.5763C165.719 21.9227 163.699 21.061 162.451 19.9914C161.233 18.9218 160.609 17.5551 160.609 15.8913C160.609 14.792 160.935 13.7818 161.559 12.8013C162.183 11.8209 163.134 11.0781 164.412 10.5136C165.689 9.94904 167.413 9.68164 169.611 9.68164C172.315 9.68164 174.395 10.1867 175.791 11.1969C177.217 12.2071 178.049 13.8115 178.317 16.0101L172.137 16.3667C171.958 15.4159 171.632 14.7326 171.097 14.2869C170.562 13.8412 169.849 13.6332 168.928 13.6332C168.155 13.6332 167.591 13.7818 167.205 14.1086C166.818 14.4354 166.64 14.8217 166.64 15.2971C166.64 15.6239 166.789 15.9507 167.115 16.2181C167.413 16.4855 168.155 16.7529 169.314 16.9906C172.166 17.6145 174.216 18.2385 175.464 18.8624C176.712 19.4863 177.603 20.2885 178.168 21.2096C178.732 22.1306 179 23.2002 179 24.359C179 25.7257 178.614 26.9736 177.871 28.1026C177.128 29.2613 176.058 30.123 174.721 30.7172C173.384 31.3114 171.661 31.6085 169.611 31.6085C166.016 31.6085 163.52 30.9252 162.124 29.5287C160.727 28.1323 159.955 26.3793 159.777 24.2401Z" fill="white"></path>
</svg>
