<?xml version="1.0" encoding="UTF-8"?>
<svg xmlns="http://www.w3.org/2000/svg" width="62" height="62" viewBox="0 0 62 62" fill="none">
  <path d="M47.5556 62C47.4213 62 34.1238 61.7727 17.024 44.9741C0.227306 27.8793 0 14.5734 0 14.4391C0 12.7823 10.3322 0 12.6156 0C13.4077 0 14.0242 0.537333 14.6993 1.34333C16.3248 3.27911 23.5126 14.6251 23.182 16.5161C23.0235 17.4048 22.2693 18.0799 20.1064 19.8951C19.0407 20.733 18.0434 21.6544 17.1239 22.6507C17.5642 24.4735 18.2185 26.2378 19.0732 27.9069C22.2574 34.4546 27.5478 39.7432 34.0962 42.9247C35.7651 43.7794 37.5293 44.4338 39.3519 44.8742C40.348 43.9546 41.2693 42.9572 42.1071 41.8913C43.9221 39.7282 44.5972 38.9739 45.4857 38.8154C47.3765 38.471 58.7212 45.6733 60.6568 47.2991C61.4627 47.988 62 48.5908 62 49.383C61.9931 51.6667 49.2122 62 47.5556 62Z" fill="white"></path>
</svg>
