<?xml version="1.0" encoding="UTF-8"?>
<svg xmlns="http://www.w3.org/2000/svg" width="60" height="60" viewBox="0 0 60 60" fill="none">
  <g clip-path="url(#clip0_783_20)">
    <mask id="mask0_783_20" style="mask-type:luminance" maskUnits="userSpaceOnUse" x="0" y="0" width="60" height="60">
      <path d="M0 0H60V59.9064H0V0Z" fill="white"></path>
    </mask>
    <g mask="url(#mask0_783_20)">
      <path d="M8.4375 13.1981H20.625V11.3261H8.4375C6.84375 11.3261 5.625 12.5429 5.625 14.1342V57.1919C5.625 58.7832 6.84375 60 8.4375 60H41.25V50.7332H54.375V14.1342C54.375 13.3853 54.0938 12.7301 53.625 12.2621C54.0938 11.7941 54.375 11.1388 54.375 10.39V0H22.4062V10.39C22.4062 11.9813 23.625 13.1981 25.2188 13.1981H26.0625V11.3261H25.2188C24.6562 11.3261 24.2812 10.9516 24.2812 10.39V1.87207H52.5V10.39C52.5 10.9516 52.125 11.3261 51.5625 11.3261H50.5312V13.1981H51.5625C51.8438 13.1981 52.0312 13.2917 52.2188 13.4789C52.4062 13.6661 52.5 13.8534 52.5 14.1342V48.8612H41.25V15.0702H40.3125H8.4375C7.875 15.0702 7.5 14.6958 7.5 14.1342C7.5 13.5725 7.875 13.1981 8.4375 13.1981ZM7.875 16.8487C8.0625 16.8487 8.25 16.9423 8.4375 16.9423H39.375V58.1279H8.4375C7.875 58.1279 7.5 57.7535 7.5 57.1919V16.7551C7.59375 16.7551 7.6875 16.7551 7.78125 16.8487H7.875Z" fill="#155C97"></path>
      <path d="M23.4375 43.0577C29.1562 43.0577 33.75 38.4711 33.75 32.7613C33.75 27.0514 29.1562 22.4648 23.4375 22.4648C17.7188 22.4648 13.125 27.0514 13.125 32.7613C13.125 38.4711 17.7188 43.0577 23.4375 43.0577ZM19.6875 33.6973H27.0938C26.9062 38.0967 25.0312 41.1856 23.3438 41.1856C21.6562 41.1856 19.875 38.1903 19.6875 33.6973ZM23.4375 24.4305C25.125 24.4305 26.9062 27.4258 27.1875 31.9188H19.6875C19.875 27.4258 21.75 24.4305 23.4375 24.4305ZM27.2812 40.2496C28.2188 38.5647 28.875 36.3182 28.9688 33.7909H31.7813C31.4063 36.599 29.7188 38.9391 27.2812 40.2496ZM31.7813 31.8252H28.9688C28.875 29.2979 28.2188 26.9578 27.2812 25.3666C29.7188 26.677 31.4063 29.0171 31.7813 31.8252ZM19.5 25.3666C18.5625 27.0514 17.9062 29.2979 17.8125 31.8252H15C15.375 29.0171 17.0625 26.677 19.5 25.3666ZM17.8125 33.6973C17.9062 36.2246 18.5625 38.5647 19.5 40.156C17.0625 38.8455 15.375 36.5054 15 33.6973H17.8125Z" fill="#155C97"></path>
      <path d="M16.7812 50.5459H30V52.418H16.7812V50.5459Z" fill="#155C97"></path>
      <path d="M13.0312 46.8018H33.75V48.6738H13.0312V46.8018Z" fill="#155C97"></path>
      <path d="M46.875 11.3262H48.75V13.1982H46.875V11.3262Z" fill="#155C97"></path>
      <path d="M35.625 11.3262H37.5V13.1982H35.625V11.3262Z" fill="#155C97"></path>
      <path d="M31.875 11.3262H33.75V13.1982H31.875V11.3262Z" fill="#155C97"></path>
      <path d="M28.125 11.3262H30V13.1982H28.125V11.3262Z" fill="#155C97"></path>
      <path d="M43.125 11.3262H45V13.1982H43.125V11.3262Z" fill="#155C97"></path>
      <path d="M39.375 11.3262H41.25V13.1982H39.375V11.3262Z" fill="#155C97"></path>
      <path d="M31.875 3.83765H33.75V7.6754H31.875V3.83765Z" fill="#155C97"></path>
      <path d="M35.625 3.83765H37.5V7.6754H35.625V3.83765Z" fill="#155C97"></path>
      <path d="M43.125 3.83765H45V7.6754H43.125V3.83765Z" fill="#155C97"></path>
      <path d="M46.875 3.83765H48.75V7.6754H46.875V3.83765Z" fill="#155C97"></path>
      <path d="M28.125 3.83765H30V7.6754H28.125V3.83765Z" fill="#155C97"></path>
      <path d="M39.375 3.83765H41.25V7.6754H39.375V3.83765Z" fill="#155C97"></path>
      <path d="M46.875 15.0703H48.75V32.0126H46.875V15.0703Z" fill="#155C97"></path>
      <path d="M43.125 15.0703H45V35.7567H43.125V15.0703Z" fill="#155C97"></path>
      <path d="M43.125 46.8955H48.75V37.5352H43.125V46.8955ZM45 39.4072H46.875V45.0235H45V39.4072Z" fill="#155C97"></path>
    </g>
  </g>
  <defs>
    <clipPath id="clip0_783_20">
      <rect width="60" height="60" fill="white"></rect>
    </clipPath>
  </defs>
</svg>
