<?xml version="1.0" encoding="UTF-8"?>
<svg xmlns="http://www.w3.org/2000/svg" width="60" height="60" viewBox="0 0 60 60" fill="none">
  <g clip-path="url(#clip0_783_45)">
    <path fill-rule="evenodd" clip-rule="evenodd" d="M24.7384 11.3394C24.7383 11.2163 24.7624 11.0944 24.8094 10.9806C24.8564 10.8669 24.9254 10.7635 25.0124 10.6764C25.0994 10.5894 25.2028 10.5203 25.3165 10.4732C25.4302 10.4261 25.5521 10.4019 25.6752 10.4019H25.7364C25.8598 10.4005 25.9824 10.4237 26.0968 10.4699C26.2113 10.5162 26.3154 10.5848 26.4032 10.6716C26.491 10.7584 26.5607 10.8618 26.6083 10.9757C26.6559 11.0897 26.6804 11.2119 26.6804 11.3354C26.6804 11.4588 26.6559 11.5811 26.6083 11.695C26.5607 11.809 26.491 11.9123 26.4032 11.9992C26.3154 12.086 26.2113 12.1545 26.0968 12.2008C25.9824 12.2471 25.8598 12.2702 25.7364 12.2688H25.6752C25.4279 12.2694 25.1904 12.1719 25.0148 11.9977C24.8392 11.8235 24.7398 11.5867 24.7384 11.3394ZM21.7384 11.3394C21.7384 11.0908 21.8372 10.8523 22.013 10.6765C22.1888 10.5007 22.4273 10.4019 22.6759 10.4019H22.7371C22.8605 10.4005 22.9831 10.4237 23.0975 10.4699C23.212 10.5162 23.3161 10.5848 23.4039 10.6716C23.4917 10.7584 23.5614 10.8618 23.609 10.9757C23.6566 11.0897 23.6811 11.2119 23.6811 11.3354C23.6811 11.4588 23.6566 11.5811 23.609 11.695C23.5614 11.809 23.4917 11.9123 23.4039 11.9992C23.3161 12.086 23.212 12.1545 23.0975 12.2008C22.9831 12.2471 22.8605 12.2702 22.7371 12.2688H22.6759C22.4285 12.2694 22.191 12.1719 22.0153 11.9978C21.8396 11.8236 21.74 11.5868 21.7384 11.3394ZM18.7397 11.3394C18.7396 11.2163 18.7637 11.0943 18.8108 10.9805C18.8579 10.8667 18.9269 10.7633 19.014 10.6762C19.1011 10.5891 19.2045 10.5201 19.3183 10.473C19.4321 10.426 19.5541 10.4018 19.6772 10.4019H19.7384C19.8618 10.4005 19.9843 10.4237 20.0988 10.4699C20.2133 10.5162 20.3174 10.5848 20.4052 10.6716C20.493 10.7584 20.5627 10.8618 20.6103 10.9757C20.6579 11.0897 20.6823 11.2119 20.6823 11.3354C20.6823 11.4588 20.6579 11.5811 20.6103 11.695C20.5627 11.809 20.493 11.9123 20.4052 11.9992C20.3174 12.086 20.2133 12.1545 20.0988 12.2008C19.9843 12.2471 19.8618 12.2702 19.7384 12.2688H19.6772C19.4298 12.2695 19.1922 12.1721 19.0164 11.9979C18.8407 11.8237 18.7412 11.5868 18.7397 11.3394ZM34.7681 30.8788C34.7681 31.1274 34.6694 31.3659 34.4935 31.5417C34.3177 31.7175 34.0793 31.8163 33.8306 31.8163H33.7696C33.5209 31.8163 33.2825 31.7175 33.1067 31.5417C32.9309 31.3659 32.8321 31.1274 32.8321 30.8788C32.8321 30.6301 32.9309 30.3917 33.1067 30.2159C33.2825 30.0401 33.5209 29.9413 33.7696 29.9413H33.8306C34.0793 29.9413 34.3177 30.0401 34.4935 30.2159C34.6694 30.3917 34.7681 30.6301 34.7681 30.8788ZM31.7694 30.8788C31.7694 31.1274 31.6707 31.3659 31.4948 31.5417C31.319 31.7175 31.0806 31.8163 30.8319 31.8163H30.7691C30.5205 31.8163 30.282 31.7175 30.1062 31.5417C29.9304 31.3659 29.8316 31.1274 29.8316 30.8788C29.8316 30.6301 29.9304 30.3917 30.1062 30.2159C30.282 30.0401 30.5205 29.9413 30.7691 29.9413H30.8319C31.0806 29.9413 31.319 30.0401 31.4948 30.2159C31.6707 30.3917 31.7694 30.6301 31.7694 30.8788ZM28.7694 30.8788C28.7696 31.0019 28.7454 31.1239 28.6983 31.2377C28.6512 31.3515 28.5822 31.4549 28.4951 31.542C28.408 31.6291 28.3046 31.6981 28.1908 31.7452C28.077 31.7922 27.9551 31.8164 27.8319 31.8163H27.7708C27.5221 31.8163 27.2837 31.7175 27.1078 31.5417C26.932 31.3659 26.8333 31.1274 26.8333 30.8788C26.8333 30.6301 26.932 30.3917 27.1078 30.2159C27.2837 30.0401 27.5221 29.9413 27.7708 29.9413H27.8319C27.9551 29.9412 28.077 29.9653 28.1908 30.0124C28.3046 30.0595 28.408 30.1285 28.4951 30.2156C28.5822 30.3027 28.6512 30.4061 28.6983 30.5199C28.7454 30.6337 28.7696 30.7556 28.7694 30.8788ZM39.3467 50.4268C39.3467 50.6755 39.2479 50.9139 39.0721 51.0897C38.8962 51.2656 38.6578 51.3643 38.4092 51.3643H38.3472C38.0985 51.3643 37.8601 51.2656 37.6842 51.0897C37.5084 50.9139 37.4097 50.6755 37.4097 50.4268C37.4097 50.1782 37.5084 49.9397 37.6842 49.7639C37.8601 49.5881 38.0985 49.4893 38.3472 49.4893H38.4092C38.6578 49.4893 38.8962 49.5881 39.0721 49.7639C39.2479 49.9397 39.3467 50.1782 39.3467 50.4268ZM36.3467 50.4268C36.3468 50.55 36.3226 50.6719 36.2755 50.7857C36.2284 50.8995 36.1594 51.0029 36.0723 51.09C35.9852 51.1771 35.8818 51.2461 35.768 51.2932C35.6543 51.3403 35.5323 51.3644 35.4092 51.3643H35.3489C35.1003 51.3643 34.8618 51.2656 34.686 51.0897C34.5102 50.9139 34.4114 50.6755 34.4114 50.4268C34.4114 50.1782 34.5102 49.9397 34.686 49.7639C34.8618 49.5881 35.1003 49.4893 35.3489 49.4893H35.4092C35.5323 49.4892 35.6543 49.5134 35.768 49.5605C35.8818 49.6076 35.9852 49.6766 36.0723 49.7637C36.1594 49.8508 36.2284 49.9542 36.2755 50.0679C36.3226 50.1817 36.3468 50.3037 36.3467 50.4268ZM33.3478 50.4268C33.3479 50.55 33.3238 50.6719 33.2767 50.7857C33.2296 50.8995 33.1606 51.0029 33.0735 51.09C32.9864 51.1771 32.883 51.2462 32.7692 51.2932C32.6554 51.3403 32.5335 51.3645 32.4103 51.3643H32.3493C32.1006 51.3643 31.8622 51.2656 31.6864 51.0897C31.5105 50.9139 31.4118 50.6755 31.4118 50.4268C31.4118 50.1782 31.5105 49.9397 31.6864 49.7639C31.8622 49.5881 32.1006 49.4893 32.3493 49.4893H32.4103C32.5335 49.4892 32.6554 49.5134 32.7692 49.5604C32.883 49.6075 32.9864 49.6766 33.0735 49.7636C33.1606 49.8507 33.2296 49.9541 33.2767 50.0679C33.3238 50.1817 33.3479 50.3037 33.3478 50.4268ZM45.6056 7.64754C46.3334 7.64677 47.0451 7.86184 47.6506 8.26553C48.2562 8.66922 48.7284 9.24342 49.0076 9.9155C49.2868 10.5876 49.3605 11.3274 49.2192 12.0413C49.078 12.7552 48.7282 13.4113 48.2142 13.9264C47.7001 14.4416 47.0448 14.7927 46.3312 14.9355C45.6175 15.0782 44.8776 15.0061 44.2049 14.7283C43.5323 14.4505 42.9571 13.9795 42.5521 13.3748C42.1471 12.7701 41.9306 12.0589 41.9298 11.3311C41.9293 10.3554 42.3161 9.41936 43.0052 8.72867C43.6944 8.03798 44.6296 7.64912 45.6053 7.64754H45.6056ZM45.6056 16.8819C46.7047 16.8829 47.7793 16.5579 48.6935 15.948C49.6077 15.3381 50.3205 14.4706 50.7416 13.4555C51.1627 12.4403 51.2732 11.3231 51.0591 10.2451C50.845 9.16717 50.3159 8.17694 49.5388 7.39976C48.7618 6.62258 47.7716 6.09338 46.6937 5.87912C45.6158 5.66486 44.4985 5.77518 43.4833 6.19612C42.4681 6.61705 41.6006 7.32968 40.9905 8.24383C40.3804 9.15797 40.0552 10.2325 40.0561 11.3316C40.0588 12.8026 40.6443 14.2127 41.6844 15.253C42.7246 16.2933 44.1346 16.879 45.6056 16.8819ZM17.5142 48.3255L12.7867 53.7755C12.7041 53.8711 12.6026 53.9488 12.4887 54.0035C12.3748 54.0583 12.2508 54.0889 12.1245 54.0936H12.0793C11.8405 54.0931 11.6103 54.0035 11.4339 53.8425L8.0706 50.6445C7.89075 50.4734 7.78623 50.2379 7.78002 49.9898C7.77695 49.8669 7.7981 49.7446 7.84228 49.6299C7.88646 49.5153 7.95279 49.4104 8.03749 49.3213C8.1222 49.2323 8.22361 49.1608 8.33594 49.1109C8.44827 49.0611 8.56933 49.0338 8.69219 49.0308C8.94032 49.0246 9.18075 49.1172 9.3606 49.2882L12.0144 51.7998L16.0982 47.0948C16.2623 46.9105 16.4925 46.7983 16.7388 46.7825C16.9852 46.7667 17.2278 46.8486 17.4141 47.0105C17.6005 47.1724 17.7155 47.4012 17.7343 47.6473C17.7531 47.8934 17.6742 48.137 17.5146 48.3253L17.5142 48.3255ZM37.5559 30.971V30.7869C37.5545 30.0655 37.2672 29.374 36.7569 28.8641C36.2466 28.3541 35.555 28.0672 34.8335 28.0663H26.7666C26.045 28.0671 25.3533 28.3539 24.8429 28.864C24.3326 29.374 24.0453 30.0656 24.0441 30.7871V30.9712C24.0441 31.3287 24.1145 31.6826 24.2513 32.0128C24.3882 32.3429 24.5887 32.6429 24.8416 32.8955C25.0944 33.1481 25.3946 33.3484 25.7249 33.485C26.0552 33.6215 26.4092 33.6916 26.7666 33.6913H34.8335C35.191 33.6915 35.545 33.6213 35.8753 33.4847C36.2056 33.3481 36.5057 33.1477 36.7585 32.8951C37.0113 32.6424 37.2119 32.3424 37.3487 32.0121C37.4855 31.6819 37.5559 31.328 37.5559 30.9705V30.971ZM15.9512 11.239V11.4315C15.9524 12.153 16.2397 12.8446 16.75 13.3547C17.2603 13.8647 17.9521 14.1516 18.6736 14.1524H26.7406C27.4621 14.1515 28.1538 13.8646 28.6641 13.3546C29.1744 12.8446 29.4617 12.153 29.4631 11.4315V11.239C29.4617 10.5175 29.1744 9.82601 28.664 9.31601C28.1537 8.80602 27.462 8.51914 26.7406 8.51824H18.6736C17.9521 8.51902 17.2604 8.80586 16.75 9.31589C16.2397 9.82591 15.9524 10.5175 15.9512 11.239ZM36.1821 10.1591V12.4948L37.7242 12.7877C37.8933 12.8199 38.0504 12.8977 38.1783 13.0128C38.3063 13.128 38.4003 13.2759 38.4501 13.4407C38.5985 13.9434 38.8 14.4289 39.0511 14.889C39.1341 15.0395 39.1734 15.21 39.1647 15.3816C39.156 15.5532 39.0995 15.7189 39.0018 15.8602L38.1143 17.1661L39.7703 18.8154L41.072 17.9279C41.2142 17.8301 41.3807 17.7736 41.553 17.7648C41.7253 17.7559 41.8967 17.795 42.0482 17.8778C42.5048 18.1286 42.9878 18.3279 43.4884 18.4721C43.6537 18.522 43.8022 18.6163 43.9176 18.7447C44.0331 18.8732 44.1111 19.0308 44.1431 19.2005L44.4345 20.7492H46.776L47.0683 19.2005C47.1003 19.0307 47.1784 18.8729 47.294 18.7445C47.4095 18.6161 47.5582 18.5218 47.7237 18.4721C48.2238 18.3285 48.7063 18.1291 49.1619 17.8778C49.3136 17.795 49.4853 17.7559 49.6579 17.7647C49.8305 17.7736 49.9973 17.8301 50.1397 17.9279L51.4399 18.8154L53.0966 17.1661L52.2093 15.8602C52.1119 15.7188 52.0557 15.5531 52.0469 15.3816C52.0382 15.2101 52.0773 15.0396 52.1598 14.889C52.4107 14.4289 52.6119 13.9434 52.7601 13.4407C52.8101 13.276 52.9043 13.1281 53.0324 13.013C53.1604 12.8979 53.3175 12.82 53.4866 12.7877L55.0287 12.4948V10.1591L53.4925 9.86613C53.3232 9.83417 53.166 9.75638 53.0379 9.64125C52.9098 9.52612 52.8157 9.37805 52.7659 9.21316C52.6177 8.70781 52.4165 8.21955 52.1656 7.75652C52.0832 7.6059 52.0443 7.4354 52.053 7.26397C52.0617 7.09253 52.1178 6.92688 52.215 6.78539L53.0965 5.49633L51.4396 3.83848L50.1537 4.71738C50.0111 4.81519 49.8442 4.87165 49.6714 4.8805C49.4987 4.88935 49.3269 4.85026 49.1751 4.76754C48.714 4.51097 48.2261 4.30605 47.7201 4.15652C47.5545 4.1097 47.4053 4.01745 47.2894 3.89022C47.1736 3.76299 47.0957 3.60587 47.0645 3.43664L46.7756 1.90453H44.4341L44.1461 3.43664C44.1151 3.60581 44.0374 3.76292 43.9217 3.89016C43.806 4.01739 43.6569 4.10967 43.4915 4.15652C42.9851 4.30602 42.4967 4.51097 42.0353 4.76766C41.8834 4.85037 41.7116 4.88947 41.5389 4.88062C41.3662 4.87177 41.1993 4.81531 41.0567 4.7175L39.7699 3.83859L38.1143 5.49598L38.9959 6.78504C39.0935 6.92637 39.1498 7.09208 39.1585 7.2636C39.1672 7.43512 39.128 7.60568 39.0452 7.75617C38.794 8.21902 38.5928 8.70732 38.445 9.21281C38.3953 9.37777 38.3013 9.52591 38.1732 9.64106C38.0451 9.75622 37.8878 9.83395 37.7185 9.86578L36.1822 10.1588L36.1821 10.1591ZM42.1344 50.5185V50.3343C42.1345 49.9768 42.064 49.6228 41.9272 49.2926C41.7904 48.9624 41.5898 48.6624 41.337 48.4097C41.0842 48.157 40.784 47.9566 40.4537 47.82C40.1234 47.6833 39.7694 47.6132 39.4119 47.6134H31.345C30.9875 47.6132 30.6335 47.6833 30.3032 47.82C29.9729 47.9566 29.6728 48.157 29.4199 48.4097C29.1671 48.6624 28.9666 48.9624 28.8298 49.2926C28.6929 49.6229 28.6225 49.9768 28.6226 50.3343V50.5194C28.6239 51.2409 28.9112 51.9324 29.4215 52.4424C29.9318 52.9524 30.6235 53.2393 31.345 53.2402H39.4119C40.1334 53.2393 40.8251 52.9524 41.3354 52.4424C41.8457 51.9324 42.1331 51.2409 42.1344 50.5194V50.5185ZM12.7599 58.1538C14.2864 58.1534 15.7785 57.7004 17.0476 56.852C18.3166 56.0037 19.3057 54.798 19.8896 53.3876C20.4735 51.9771 20.626 50.4252 20.328 48.9281C20.0299 47.431 19.2946 46.0558 18.2151 44.9765C17.1355 43.8972 15.7602 43.1623 14.263 42.8647C12.7657 42.567 11.2139 42.72 9.8036 43.3042C8.39331 43.8885 7.18794 44.8778 6.33988 46.1471C5.49183 47.4164 5.03919 48.9086 5.03919 50.4352C5.04229 52.4816 5.85673 54.4433 7.30394 55.8902C8.75116 57.3371 10.7131 58.1512 12.7595 58.1538H12.7599ZM46.1935 49.4892H43.931C43.7328 48.4354 43.1727 47.4839 42.3476 46.7991C41.5226 46.1142 40.4842 45.739 39.4119 45.7382H31.345C30.2728 45.7387 29.2345 46.1138 28.4095 46.7987C27.5845 47.4835 27.0247 48.435 26.8268 49.4887H22.3086C22.0669 47.0364 20.8911 44.7711 19.0249 43.1618C17.1587 41.5526 14.745 40.7229 12.2838 40.8445C9.82258 40.966 7.50243 42.0296 5.80389 43.8149C4.10535 45.6002 3.15856 47.9704 3.15964 50.4346C3.16072 52.8988 4.10958 55.2682 5.80968 57.052C7.50978 58.8358 9.83087 59.8974 12.2922 60.0168C14.7535 60.1362 17.1664 59.3044 19.0312 57.6935C20.8961 56.0827 22.0698 53.8163 22.3095 51.3637H26.8268C27.0248 52.4174 27.5847 53.3688 28.4097 54.0535C29.2346 54.7382 30.2729 55.1132 31.345 55.1137H39.4119C40.4841 55.113 41.5223 54.7379 42.3474 54.0533C43.1724 53.3686 43.7326 52.4174 43.931 51.3637H46.1938C49.0286 51.3544 51.744 50.2217 53.7452 48.2139C55.7463 46.2061 56.87 43.4869 56.87 40.6522C56.87 37.8174 55.7463 35.0982 53.7452 33.0904C51.744 31.0826 49.0286 29.95 46.1938 29.9406H39.3525C39.1542 28.8869 38.5941 27.9356 37.7691 27.2509C36.944 26.5662 35.9057 26.1912 34.8335 26.1906H26.7666C25.6945 26.1914 24.6564 26.5665 23.8315 27.2511C23.0066 27.9358 22.4467 28.887 22.2484 29.9406H13.8742C11.5307 29.9406 9.28312 29.0096 7.62599 27.3525C5.96887 25.6954 5.0379 23.4478 5.0379 21.1043C5.0379 18.7608 5.96887 16.5132 7.62599 14.8561C9.28312 13.199 11.5307 12.268 13.8742 12.268H14.1554C14.3529 13.3227 14.9124 14.2753 15.7372 14.9615C16.5621 15.6478 17.6006 16.0246 18.6736 16.0269H26.7406C27.8135 16.0242 28.852 15.6473 29.6769 14.9612C30.5018 14.275 31.0615 13.3226 31.2595 12.268H34.3077V13.0048C34.3084 13.2992 34.412 13.5842 34.6005 13.8104C34.789 14.0366 35.0505 14.1899 35.34 14.2438L36.836 14.5283C36.9272 14.7796 37.0294 15.0223 37.1407 15.2651L36.2817 16.5209C36.1153 16.7642 36.0391 17.058 36.0665 17.3516C36.0939 17.6451 36.223 17.9199 36.4316 18.1282L38.8016 20.4974C39.0098 20.7071 39.285 20.8371 39.5792 20.8647C39.8735 20.8922 40.1681 20.8156 40.4115 20.6481L41.6732 19.7858C41.9126 19.8946 42.1562 19.995 42.4023 20.0871L42.6852 21.594C42.7407 21.8834 42.8952 22.1445 43.1222 22.3324C43.3492 22.5203 43.6346 22.6233 43.9293 22.6238H47.2808C47.5756 22.6236 47.8611 22.5207 48.0882 22.3328C48.3153 22.1448 48.4697 21.8836 48.5249 21.594L48.8079 20.0871C49.0556 19.9991 49.2987 19.8985 49.5362 19.7858L50.7987 20.6481C51.0421 20.8156 51.3367 20.8923 51.6309 20.8647C51.9251 20.8372 52.2003 20.7072 52.4085 20.4974L54.779 18.1288C54.9878 17.9206 55.1173 17.6459 55.1448 17.3524C55.1723 17.0588 55.0962 16.7648 54.9297 16.5214L54.0704 15.2658C54.1819 15.023 54.284 14.7803 54.3751 14.529L55.8711 14.2445C56.1608 14.1909 56.4227 14.0377 56.6113 13.8115C56.8 13.5852 56.9036 13.3001 56.9042 13.0055V9.6484C56.9033 9.35388 56.7996 9.06891 56.611 8.84269C56.4224 8.61648 56.1607 8.46322 55.8711 8.40938L54.3835 8.12473C54.2905 7.87359 54.1884 7.62246 54.0745 7.37965L54.9293 6.13231C55.0962 5.88912 55.1725 5.59516 55.1452 5.30152C55.1178 5.00787 54.9884 4.7331 54.7794 4.52496L52.409 2.15613C52.2008 1.94636 51.9256 1.81635 51.6314 1.78881C51.3372 1.76126 51.0426 1.83793 50.7992 2.00543L49.5533 2.85926C49.3081 2.74207 49.0577 2.63332 48.8042 2.54121L48.5254 1.05902C48.4702 0.769471 48.3157 0.508227 48.0886 0.320275C47.8616 0.132323 47.5761 0.0294243 47.2813 0.0292969H43.9297C43.635 0.0297168 43.3497 0.132721 43.1227 0.320624C42.8957 0.508526 42.7412 0.769602 42.6857 1.05902L42.4062 2.54086C42.1533 2.63297 41.9038 2.74172 41.6585 2.85891L40.412 2.00508C40.1684 1.83754 39.8737 1.76088 39.5794 1.78849C39.2851 1.8161 39.0098 1.94622 38.8016 2.15613L36.4316 4.52496C36.223 4.73327 36.0938 5.00797 36.0663 5.30151C36.0389 5.59505 36.115 5.88894 36.2814 6.13231L37.1368 7.37965C37.0231 7.63078 36.9209 7.87359 36.8296 8.12473L35.3404 8.40938C35.0509 8.46323 34.7893 8.61652 34.6008 8.84275C34.4123 9.06898 34.3088 9.35394 34.3081 9.6484V10.4018H31.2595C31.0615 9.34725 30.5018 8.39483 29.6769 7.70868C28.852 7.02254 27.8135 6.64566 26.7406 6.64301H18.6736C17.6006 6.64531 16.5621 7.02208 15.7372 7.7083C14.9124 8.39452 14.3529 9.34715 14.1554 10.4018H13.8742C12.4651 10.3971 11.0689 10.6706 9.76577 11.2067C8.4626 11.7427 7.27804 12.5306 6.28001 13.5254C5.28198 14.5201 4.49011 15.702 3.94979 17.0034C3.40948 18.3048 3.13135 19.7001 3.13135 21.1092C3.13135 22.5183 3.40948 23.9135 3.94979 25.2149C4.49011 26.5163 5.28198 27.6982 6.28001 28.693C7.27804 29.6877 8.4626 30.4757 9.76577 31.0117C11.0689 31.5477 12.4651 31.8212 13.8742 31.8165H22.2484C22.4467 32.8701 23.0066 33.8213 23.8315 34.506C24.6564 35.1907 25.6945 35.5658 26.7666 35.5665H34.8335C35.9057 35.5659 36.944 35.1909 37.7691 34.5062C38.5941 33.8215 39.1542 32.8702 39.3525 31.8165H46.1938C48.5373 31.8165 50.7849 32.7475 52.442 34.4046C54.0992 36.0618 55.0302 38.3093 55.0302 40.6529C55.0302 42.9964 54.0992 45.244 52.442 46.9011C50.7849 48.5582 48.5373 49.4892 46.1938 49.4892H46.1935Z" fill="#1C619A"></path>
  </g>
  <defs>
    <clipPath id="clip0_783_45">
      <rect width="60" height="60" fill="white"></rect>
    </clipPath>
  </defs>
</svg>
