<?xml version="1.0" encoding="UTF-8"?>
<svg xmlns="http://www.w3.org/2000/svg" width="60" height="60" viewBox="0 0 60 60" fill="none">
  <g clip-path="url(#clip0_783_54)">
    <path d="M51.2478 10.0209H47.3407V8.30755C47.3407 3.72674 43.6139 0 39.0331 0H14.5382C14.0528 0 13.6593 0.393522 13.6593 0.87892C13.6593 1.36432 14.0528 1.75784 14.5382 1.75784H39.0331C42.6447 1.75784 45.5828 4.69601 45.5828 8.30755V33.9134C45.5828 37.525 42.6447 40.4631 39.0331 40.4631H25.281C25.1119 40.4631 24.9464 40.5119 24.8043 40.6035L13.4419 47.9371C12.8611 48.3119 12.1635 48.3181 11.5757 47.954C10.9884 47.5901 10.6836 46.9629 10.7605 46.276L11.3007 41.4396C11.3285 41.191 11.2491 40.9424 11.0823 40.756C10.9155 40.5695 10.6773 40.463 10.4272 40.463H8.7514C5.13986 40.463 2.20169 37.5248 2.20169 33.9133V8.30755C2.20169 4.69601 5.13986 1.75784 8.7514 1.75784H10.4366C10.922 1.75784 11.3155 1.36432 11.3155 0.87892C11.3155 0.393522 10.922 0 10.4366 0H8.7514C4.17059 0 0.443848 3.72674 0.443848 8.30755V33.9134C0.443848 38.4942 4.17059 42.221 8.7514 42.221H9.44469L9.01355 46.0807C8.86167 47.4385 9.48864 48.7288 10.6499 49.4483C11.2213 49.8023 11.8589 49.979 12.4961 49.979C13.154 49.979 13.8114 49.7905 14.3949 49.4142L14.6074 49.2771C16.1775 51.1469 18.4969 52.2417 20.9672 52.2417H34.4604L38.6913 54.9725C38.8386 55.0676 39.0038 55.113 39.1671 55.113C39.4556 55.113 39.7383 54.9711 39.9063 54.7105C40.1696 54.3027 40.0523 53.7587 39.6445 53.4954L35.196 50.6243C35.054 50.5326 34.8885 50.4839 34.7194 50.4839H20.9672C19.0951 50.4839 17.3338 49.685 16.1002 48.3134L25.5399 42.2209H39.0331C43.6139 42.2209 47.3407 38.4941 47.3407 33.9133V11.7787H51.2478C54.8599 11.7787 57.7986 14.7175 57.7986 18.3296V43.9343C57.7986 47.5458 54.8599 50.484 51.2478 50.484H49.5731C49.323 50.484 49.0848 50.5905 48.918 50.777C48.7513 50.9633 48.6718 51.212 48.6996 51.4605L49.2398 56.2983C49.3167 56.9844 49.012 57.6111 48.425 57.9749C47.8372 58.3392 47.1395 58.3327 46.5587 57.9582L43.0817 55.714C42.674 55.4508 42.1298 55.568 41.8665 55.9758C41.6032 56.3837 41.7205 56.9276 42.1283 57.191L45.6056 59.4353C46.1891 59.8116 46.8463 60.0001 47.5043 60C48.1414 60 48.7793 59.8232 49.3508 59.469C50.5118 58.7497 51.1387 57.4597 50.9868 56.1029L50.5556 52.2418H51.2478C55.8292 52.2418 59.5565 48.5151 59.5565 43.9343V18.3296C59.5565 13.7482 55.8292 10.0209 51.2478 10.0209Z" fill="#0E5794"></path>
    <path d="M16.3815 18.4305C18.4337 18.4305 20.1034 16.7608 20.1034 14.7085C20.1034 14.5297 20.1158 14.3507 20.1407 14.1749C20.4127 12.224 22.1759 10.7976 24.1544 10.9285C26.0222 11.0511 27.5332 12.551 27.669 14.4176C27.7937 16.1252 26.7592 17.7147 25.1531 18.2827C22.1726 19.336 20.1701 22.1791 20.1701 25.3575V26.5634C20.1701 28.6156 21.8398 30.2854 23.892 30.2854C25.9444 30.2854 27.614 28.6156 27.614 26.5634V25.3575C27.614 25.3218 27.6313 25.3035 27.6353 25.3014C28.3901 25.0342 29.1134 24.6873 29.785 24.2703C30.1974 24.0142 30.3241 23.4723 30.068 23.0599C29.8118 22.6475 29.2701 22.5207 28.8577 22.7769C28.2933 23.1274 27.6846 23.4192 27.0505 23.6436C26.3361 23.8949 25.8561 24.5836 25.8561 25.3575V26.5634C25.8561 27.6464 24.975 28.5275 23.892 28.5275C22.8091 28.5275 21.9279 27.6464 21.9279 26.5634V25.3575C21.9279 22.9227 23.4594 20.7456 25.7391 19.94C28.09 19.1085 29.6045 16.7849 29.4222 14.2897C29.223 11.5533 27.0079 9.35428 24.2697 9.17452C21.3768 8.98432 18.7982 11.0737 18.3998 13.9306C18.3637 14.1861 18.3455 14.4478 18.3455 14.7085C18.3455 15.7915 17.4643 16.6726 16.3814 16.6726C15.2983 16.6726 14.4173 15.7915 14.4173 14.7085C14.4173 14.2711 14.448 13.8269 14.5084 13.3898C15.1906 8.50396 19.5911 4.9305 24.526 5.25418C29.2104 5.56087 33.0001 9.32229 33.3411 14.0038C33.5037 16.2292 32.8685 18.4546 31.5525 20.2701C31.2676 20.6632 31.3552 21.2127 31.7483 21.4976C32.1415 21.7824 32.6908 21.6948 32.9758 21.3017C34.5347 19.1511 35.2871 16.5138 35.0944 13.8758C34.6901 8.32431 30.1961 3.86373 24.6412 3.49997C18.7927 3.11606 13.5764 7.35339 12.7676 13.1477C12.696 13.6654 12.6597 14.1906 12.6597 14.7083C12.6596 16.7608 14.3291 18.4305 16.3815 18.4305Z" fill="#0E5794"></path>
    <path d="M23.8919 31.2776C21.8396 31.2776 20.1699 32.9473 20.1699 34.9996V35.0231C20.1699 37.0754 21.8396 38.7451 23.8919 38.7451C25.9442 38.7451 27.6139 37.0754 27.6139 35.0231V34.9996C27.6139 32.9473 25.9442 31.2776 23.8919 31.2776ZM25.8561 35.0231C25.8561 36.1062 24.975 36.9873 23.8919 36.9873C22.8089 36.9873 21.9277 36.1062 21.9277 35.0231V34.9996C21.9277 33.9165 22.8089 33.0354 23.8919 33.0354C24.975 33.0354 25.8561 33.9165 25.8561 34.9996V35.0231Z" fill="#0E5794"></path>
  </g>
  <defs>
    <clipPath id="clip0_783_54">
      <rect width="60" height="60" fill="white"></rect>
    </clipPath>
  </defs>
</svg>
