<?xml version="1.0" encoding="UTF-8"?>
<svg xmlns="http://www.w3.org/2000/svg" width="71" height="71" viewBox="0 0 71 71" fill="none">
  <path fill-rule="evenodd" clip-rule="evenodd" d="M61.0927 18.1895H64.4798C67.5926 18.1895 70.125 20.7219 70.125 23.8347V55.4476C70.125 58.5603 67.5926 61.0927 64.4798 61.0927H46.4153V63.3508C48.906 63.3508 50.9314 65.3763 50.9314 67.8669C50.9314 69.1123 49.9187 70.125 48.6734 70.125H21.5766C20.3313 70.125 19.3185 69.1123 19.3185 67.8669C19.3185 65.3763 21.344 63.3508 23.8347 63.3508V61.0927H5.77016C2.65742 61.0927 0.125 58.5603 0.125 55.4476V23.8347C0.125 20.7219 2.65742 18.1895 5.77016 18.1895H9.15726V5.77016C9.15726 2.65742 11.6897 0.125 14.8024 0.125H55.4476C58.5603 0.125 61.0927 2.65742 61.0927 5.77016V18.1895ZM67.8669 23.8347C67.8669 21.9673 66.3473 20.4476 64.4798 20.4476H61.0927V52.0605H67.8669V23.8347ZM45.7537 52.0605H58.8347V11.4153H11.4153V52.0605H24.4963L26.7544 49.8024H43.4956L45.7537 52.0605ZM55.4476 2.38306H14.8024C12.935 2.38306 11.4153 3.90274 11.4153 5.77016V9.15726H58.8347V5.77016C58.8347 3.90274 57.315 2.38306 55.4476 2.38306ZM9.15726 20.4476H5.77016C3.90274 20.4476 2.38306 21.9673 2.38306 23.8347V52.0605H9.15726V20.4476ZM21.5766 67.8669H48.6745C48.6734 66.6216 47.6606 65.6089 46.4153 65.6089H23.8347C22.5894 65.6089 21.5766 66.6216 21.5766 67.8669ZM26.0927 63.3508H44.1573V61.0927H26.0927V63.3508ZM5.77016 58.8347H64.4798C66.3473 58.8347 67.8669 57.315 67.8669 55.4476V54.3186H44.8189L42.5608 52.0605H27.6892L25.4311 54.3186H2.38306V55.4476C2.38306 57.315 3.90274 58.8347 5.77016 58.8347ZM40.7702 54.3186H38.5121V56.5766H40.7702V54.3186ZM36.254 54.3186H33.996V56.5766H36.254V54.3186ZM20.4476 4.64113H18.1895V6.89919H20.4476V4.64113ZM22.7056 4.64113H24.9637V6.89919H22.7056V4.64113ZM36.254 24.9637C36.254 31.1892 31.1892 36.254 24.9637 36.254C18.7382 36.254 13.6734 31.1892 13.6734 24.9637C13.6734 18.7382 18.7382 13.6734 24.9637 13.6734C31.1892 13.6734 36.254 18.7382 36.254 24.9637ZM24.9637 29.4798C22.8219 29.4798 20.8235 30.4948 19.5534 32.1794C21.064 33.314 22.9337 33.996 24.9637 33.996C26.9937 33.996 28.8634 33.314 30.374 32.1794C29.1039 30.496 27.1055 29.4798 24.9637 29.4798ZM24.9637 20.4476C23.0963 20.4476 21.5766 21.9673 21.5766 23.8347C21.5766 25.7021 23.0963 27.2218 24.9637 27.2218C26.8311 27.2218 28.3508 25.7021 28.3508 23.8347C28.3508 21.9673 26.8311 20.4476 24.9637 20.4476ZM33.996 24.9637C33.996 19.9835 29.9439 15.9315 24.9637 15.9315C19.9835 15.9315 15.9315 19.9835 15.9315 24.9637C15.9315 27.101 16.6811 29.0655 17.9276 30.6134C18.8218 29.5013 19.9553 28.624 21.2368 28.0415C20.0694 27.0061 19.3185 25.5135 19.3185 23.8347C19.3185 20.7219 21.851 18.1895 24.9637 18.1895C28.0765 18.1895 30.6089 20.7219 30.6089 23.8347C30.6089 25.5135 29.8581 27.0061 28.6906 28.0415C29.9721 28.6229 31.1056 29.5002 31.9998 30.6134C33.2463 29.0655 33.996 27.101 33.996 24.9637ZM40.7702 20.4476H54.3185C55.5639 20.4476 56.5766 19.4348 56.5766 18.1895V15.9315C56.5766 14.6861 55.5639 13.6734 54.3185 13.6734H40.7702C39.5248 13.6734 38.5121 14.6861 38.5121 15.9315V18.1895C38.5121 19.4348 39.5248 20.4476 40.7702 20.4476ZM40.7702 15.9315H54.3185L54.3197 18.1895H40.7702V15.9315ZM56.5766 22.7056H38.5121V24.9637H56.5766V22.7056ZM38.5121 27.2218H56.5766V29.4798H38.5121V27.2218ZM56.5766 31.7379H38.5121V33.996H56.5766V31.7379ZM20.4476 45.2863C21.6929 45.2863 22.7056 44.2735 22.7056 43.0282V40.7702C22.7056 39.5248 21.6929 38.5121 20.4476 38.5121H15.9315C14.6861 38.5121 13.6734 39.5248 13.6734 40.7702V43.0282C13.6734 44.2735 14.6861 45.2863 15.9315 45.2863H20.4476ZM20.4476 40.7702L20.4487 43.0282H15.9315V40.7702H20.4476ZM27.2218 38.5121H31.7379C32.9832 38.5121 33.996 39.5248 33.996 40.7702V43.0282C33.996 44.2735 32.9832 45.2863 31.7379 45.2863H27.2218C25.9764 45.2863 24.9637 44.2735 24.9637 43.0282V40.7702C24.9637 39.5248 25.9764 38.5121 27.2218 38.5121ZM27.2218 40.7702V43.0282H31.739L31.7379 40.7702H27.2218ZM36.254 43.0282C36.254 44.2735 37.2668 45.2863 38.5121 45.2863H43.0282C44.2735 45.2863 45.2863 44.2735 45.2863 43.0282V40.7702C45.2863 39.5248 44.2735 38.5121 43.0282 38.5121H38.5121C37.2668 38.5121 36.254 39.5248 36.254 40.7702V43.0282ZM38.5121 40.7702H43.0282L43.0294 43.0282H38.5121V40.7702ZM49.8024 38.5121H54.3185C55.5639 38.5121 56.5766 39.5248 56.5766 40.7702V43.0282C56.5766 44.2735 55.5639 45.2863 54.3185 45.2863H49.8024C48.5571 45.2863 47.5444 44.2735 47.5444 43.0282V40.7702C47.5444 39.5248 48.5571 38.5121 49.8024 38.5121ZM49.8024 40.7702V43.0282H54.3197L54.3185 40.7702H49.8024ZM6.89919 29.4798V27.2218H4.64113V29.4798H6.89919ZM6.89919 31.7379V33.996H4.64113V31.7379H6.89919ZM65.6089 49.8024V47.5444H63.3508V49.8024H65.6089ZM65.6089 43.0282V45.2863H63.3508V43.0282H65.6089ZM65.6089 40.7702V38.5121H63.3508V40.7702H65.6089ZM29.4798 54.3186H31.7379V56.5766H29.4798V54.3186ZM13.6734 4.64113H15.9315V6.89919H13.6734V4.64113ZM4.64113 22.7056H6.89919V24.9637H4.64113V22.7056Z" fill="white"></path>
</svg>
