<?xml version="1.0" encoding="UTF-8"?>
<svg xmlns="http://www.w3.org/2000/svg" width="63" height="70" viewBox="0 0 63 70" fill="none">
  <path d="M12.4854 50.4109H50.5145C50.9747 50.4109 51.3487 50.0202 51.3487 49.5395V37.0511C51.3487 29.6851 45.6111 23.6914 38.5597 23.6914H24.4402C17.3888 23.6914 11.6512 29.6851 11.6512 37.0511V49.5395C11.6512 50.0202 12.0252 50.4109 12.4854 50.4109ZM39.633 25.4894L34.4278 36.1957V29.0518L35.5025 25.4342H38.5583C38.9212 25.4342 39.2799 25.4545 39.633 25.4894ZM32.9792 28.0483H30.0193L29.2422 25.4342H33.755L32.9792 28.0483ZM30.2404 29.7911H32.7609V39.6261L31.5 42.2184L30.2404 39.6275V29.7911ZM27.4974 25.4342L28.5721 29.0518V36.1957L23.3669 25.4894C23.7201 25.4545 24.0788 25.4342 24.4402 25.4342H27.4974ZM13.3195 37.0511C13.3195 31.6529 16.8633 27.1029 21.6486 25.8045L30.7562 44.5363C30.898 44.8282 31.1858 45.0127 31.5 45.0127C31.8142 45.0127 32.1019 44.8282 32.2437 44.5363L41.3513 25.8045C46.1366 27.1014 49.6804 31.6515 49.6804 37.0511V48.6681H43.1948V40.1605C43.1948 39.6798 42.8208 39.2891 42.3607 39.2891C41.9005 39.2891 41.5265 39.6798 41.5265 40.1605V48.6681H21.4734V40.1605C21.4734 39.6798 21.0994 39.2891 20.6393 39.2891C20.1791 39.2891 19.8051 39.6798 19.8051 40.1605V48.6681H13.3195V37.0511ZM31.5 21.6393C37.2111 21.6393 41.8574 16.7857 41.8574 10.8197C41.8574 4.85359 37.2111 9.53674e-07 31.5 9.53674e-07C25.7888 9.53674e-07 21.1425 4.85359 21.1425 10.8197C21.1425 16.7857 25.7888 21.6393 31.5 21.6393ZM31.5 1.74422C36.2908 1.74422 40.1891 5.81647 40.1891 10.8211C40.1891 15.8257 36.2908 19.898 31.5 19.898C26.7091 19.898 22.8108 15.8257 22.8108 10.8211C22.8108 5.81647 26.7091 1.74422 31.5 1.74422ZM38.8155 60.8515C38.714 60.5276 38.4415 60.2938 38.1176 60.2546L33.9871 59.7579L32.259 55.8076C32.1228 55.4968 31.8267 55.2979 31.5 55.2979C31.1732 55.2979 30.8771 55.4968 30.7409 55.8076L29.0128 59.7579L24.8823 60.2546C24.5584 60.2938 24.2859 60.5261 24.1844 60.8515C24.0829 61.1768 24.1733 61.5326 24.4138 61.7621L27.4765 64.7001L26.6521 68.9568C26.5868 69.2908 26.7147 69.6335 26.9788 69.8339C27.243 70.0344 27.5947 70.0547 27.8797 69.8877L31.5013 67.7528L35.123 69.8877C35.2509 69.9632 35.3927 69.9995 35.5331 69.9995C35.7055 69.9995 35.8779 69.9429 36.0239 69.8325C36.288 69.6321 36.4159 69.2893 36.3506 68.9553L35.5261 64.6986L38.5889 61.7606C38.8266 61.5326 38.917 61.1768 38.8155 60.8515ZM34.0483 63.7503C33.8328 63.9565 33.7369 64.2658 33.7953 64.565L34.3514 67.4362L31.9101 65.997C31.7822 65.9214 31.6418 65.8851 31.5 65.8851C31.3582 65.8851 31.2177 65.9229 31.0898 65.997L28.6485 67.4362L29.2046 64.565C29.263 64.2658 29.1671 63.9565 28.9516 63.7503L26.8871 61.7693L29.6718 61.4353C29.9623 61.4004 30.214 61.2087 30.3349 60.9313L31.5 58.2678L32.665 60.9313C32.7859 61.2087 33.0376 61.4004 33.3281 61.4353L36.1128 61.7693L34.0483 63.7503ZM23.3864 60.5203L26.4491 57.5823C26.6897 57.3514 26.7786 56.9956 26.6785 56.6717C26.5784 56.3479 26.3046 56.114 25.9806 56.0748L21.8502 55.5781L20.1221 51.6279C19.9858 51.3171 19.6897 51.1181 19.363 51.1181C19.0363 51.1181 18.7402 51.3171 18.6039 51.6279L16.8758 55.5781L12.7454 56.0748C12.4214 56.114 12.1489 56.3464 12.0475 56.6717C11.946 56.997 12.0363 57.3529 12.2768 57.5823L15.3396 60.5203L14.5152 64.777C14.4498 65.1111 14.5777 65.4538 14.8419 65.6542C15.106 65.8546 15.4578 65.8764 15.7428 65.708L19.3644 63.5731L22.986 65.708C23.1139 65.7835 23.2557 65.8198 23.3961 65.8198C23.5685 65.8198 23.7409 65.7631 23.8869 65.6528C24.151 65.4523 24.279 65.1096 24.2136 64.7756L23.3864 60.5203ZM21.6583 60.3838L22.2144 63.255L19.7731 61.8158C19.6452 61.7403 19.5048 61.704 19.363 61.704C19.2212 61.704 19.0808 61.7417 18.9529 61.8158L16.5116 63.255L17.0677 60.3838C17.1261 60.0846 17.0301 59.7753 16.8146 59.5691L14.7501 57.5881L17.5348 57.2541C17.8254 57.2193 18.077 57.0275 18.198 56.7502L19.363 54.0866L20.528 56.7502C20.649 57.0275 20.9006 57.2193 21.1912 57.2541L23.9759 57.5881L21.9113 59.5691C21.6958 59.7753 21.5999 60.0846 21.6583 60.3838ZM11.3801 56.3406L14.4429 53.4026C14.6834 53.1717 14.7724 52.8159 14.6723 52.492C14.5722 52.1681 14.2983 51.9343 13.9743 51.8951L9.84389 51.3984L8.1158 47.4482C7.97955 47.1374 7.68343 46.9384 7.35672 46.9384C7.03 46.9384 6.73388 47.1374 6.59763 47.4482L4.86954 51.3984L0.739082 51.8951C0.415151 51.9343 0.14266 52.1667 0.0411713 52.492C-0.0603176 52.8173 0.0300494 53.1731 0.270564 53.4026L3.33331 56.3406L2.50888 60.5973C2.44354 60.9313 2.57144 61.2741 2.83559 61.4745C3.09974 61.6749 3.45148 61.6952 3.73648 61.5282L7.35811 59.3933L10.9797 61.5282C11.1076 61.6037 11.2494 61.6401 11.3899 61.6401C11.5622 61.6401 11.7346 61.5834 11.8806 61.473C12.1448 61.2726 12.2727 60.9299 12.2073 60.5959L11.3801 56.3406ZM9.65203 56.2041L10.2081 59.0753L7.76684 57.6361C7.63894 57.5605 7.49852 57.5242 7.35672 57.5242C7.21491 57.5242 7.07449 57.562 6.94659 57.6361L4.50529 59.0753L5.0614 56.2041C5.11979 55.9049 5.02386 55.5956 4.80837 55.3894L2.74384 53.4084L5.52852 53.0744C5.81909 53.0395 6.07073 52.8478 6.19168 52.5704L7.35672 49.9069L8.52175 52.5704C8.64271 52.8478 8.89434 53.0395 9.18491 53.0744L11.9696 53.4084L9.90506 55.3894C9.69096 55.5956 9.59364 55.9049 9.65203 56.2041ZM50.9539 56.6717C50.8524 56.3479 50.5799 56.114 50.2559 56.0748L46.1255 55.5781L44.3974 51.6279C44.2611 51.3171 43.965 51.1181 43.6383 51.1181C43.3116 51.1181 43.0155 51.3171 42.8792 51.6279L41.1511 55.5781L37.0207 56.0748C36.6967 56.114 36.4243 56.3464 36.3228 56.6717C36.2213 56.997 36.3116 57.3529 36.5522 57.5823L39.6149 60.5203L38.7905 64.777C38.7251 65.1111 38.853 65.4538 39.1172 65.6542C39.3813 65.8546 39.7331 65.8764 40.0181 65.708L43.6397 63.5731L47.2613 65.708C47.3892 65.7835 47.531 65.8198 47.6715 65.8198C47.8438 65.8198 48.0162 65.7631 48.1622 65.6528C48.4264 65.4523 48.5543 65.1096 48.4889 64.7756L47.6645 60.5189L50.7272 57.5809C50.965 57.3514 51.0553 56.9956 50.9539 56.6717ZM46.1867 59.5691C45.9712 59.7753 45.8752 60.0846 45.9336 60.3838L46.4897 63.255L44.0484 61.8158C43.9205 61.7403 43.7801 61.704 43.6383 61.704C43.4965 61.704 43.3561 61.7417 43.2282 61.8158L40.7869 63.255L41.343 60.3838C41.4014 60.0846 41.3055 59.7753 41.09 59.5691L39.0254 57.5881L41.8101 57.2541C42.1007 57.2193 42.3523 57.0275 42.4733 56.7502L43.6383 54.0866L44.8034 56.7502C44.9243 57.0275 45.1759 57.2193 45.4665 57.2541L48.2512 57.5881L46.1867 59.5691ZM62.9587 52.4906C62.8573 52.1667 62.5848 51.9329 62.2608 51.8937L58.1304 51.397L56.4023 47.4467C56.266 47.1359 55.9699 46.937 55.6432 46.937C55.3165 46.937 55.0204 47.1359 54.8841 47.4467L53.156 51.397L49.0256 51.8937C48.7016 51.9329 48.4291 52.1652 48.3277 52.4906C48.2262 52.8159 48.3165 53.1717 48.5571 53.4011L51.6198 56.3392L50.7954 60.5959C50.73 60.9299 50.8579 61.2726 51.1221 61.473C51.3862 61.6735 51.738 61.6938 52.023 61.5268L55.6446 59.3919L59.2662 61.5268C59.3941 61.6023 59.5359 61.6386 59.6763 61.6386C59.8487 61.6386 60.0211 61.582 60.1671 61.4716C60.4313 61.2712 60.5592 60.9284 60.4938 60.5944L59.6694 56.3377L62.7321 53.3997C62.9713 53.1717 63.0602 52.8159 62.9587 52.4906ZM58.1929 55.3894C57.9774 55.5956 57.8815 55.9049 57.9399 56.2041L58.496 59.0753L56.0547 57.6361C55.9268 57.5605 55.7864 57.5242 55.6446 57.5242C55.5028 57.5242 55.3624 57.562 55.2345 57.6361L52.7932 59.0753L53.3493 56.2041C53.4077 55.9049 53.3117 55.5956 53.0962 55.3894L51.0317 53.4084L53.8164 53.0744C54.107 53.0395 54.3586 52.8478 54.4796 52.5704L55.6446 49.9069L56.8096 52.5704C56.9306 52.8478 57.1822 53.0395 57.4728 53.0744L60.2575 53.4084L58.1929 55.3894Z" fill="white"></path>
</svg>
