<?xml version="1.0" encoding="UTF-8"?>
<svg xmlns="http://www.w3.org/2000/svg" width="65" height="70" viewBox="0 0 65 70" fill="none">
  <path d="M23.675 22.7926H57.123C57.5179 22.7926 57.8375 22.4661 57.8375 22.0634C57.8375 21.6607 57.5179 21.3343 57.123 21.3343H23.675C23.2805 21.3343 22.9606 21.6607 22.9606 22.0634C22.9606 22.4661 23.2805 22.7926 23.675 22.7926Z" fill="white"></path>
  <path d="M23.6741 27.0504H57.1228C57.5177 27.0504 57.8372 26.7239 57.8372 26.3212C57.8372 25.9185 57.5177 25.5921 57.1228 25.5921H23.6741C23.2795 25.5921 22.9597 25.9185 22.9597 26.3212C22.9597 26.7239 23.2795 27.0504 23.6741 27.0504Z" fill="white"></path>
  <path d="M23.6741 31.3082H57.1228C57.5177 31.3082 57.8372 30.9817 57.8372 30.579C57.8372 30.1763 57.5177 29.8499 57.1228 29.8499H23.6741C23.2795 29.8499 22.9597 30.1763 22.9597 30.579C22.9597 30.9817 23.2795 31.3082 23.6741 31.3082Z" fill="white"></path>
  <path d="M17.7256 49.5853H22.7302C23.1247 49.5853 23.4446 49.2588 23.4446 48.8561C23.4446 48.4535 23.1247 48.127 22.7302 48.127H17.7256C17.331 48.127 17.0111 48.4535 17.0111 48.8561C17.0111 49.2588 17.331 49.5853 17.7256 49.5853Z" fill="white"></path>
  <path d="M14.9525 49.5853H15.3383C15.7329 49.5853 16.0528 49.2588 16.0528 48.8561C16.0528 48.4535 15.7329 48.127 15.3383 48.127H14.9525C14.5579 48.127 14.238 48.4535 14.238 48.8561C14.238 49.2588 14.5579 49.5853 14.9525 49.5853Z" fill="white"></path>
  <path d="M30.225 11.2973H34.723C35.1176 11.2973 35.4375 10.9708 35.4375 10.5682C35.4375 10.1655 35.1176 9.83899 34.723 9.83899H30.225C29.8304 9.83899 29.5105 10.1655 29.5105 10.5682C29.5105 10.9708 29.8304 11.2973 30.225 11.2973Z" fill="white"></path>
  <path d="M27.1984 11.2973H27.5839C27.9784 11.2973 28.2983 10.9708 28.2983 10.5682C28.2983 10.1655 27.9784 9.83899 27.5839 9.83899H27.1984C26.8038 9.83899 26.4839 10.1655 26.4839 10.5682C26.4839 10.9708 26.8038 11.2973 27.1984 11.2973Z" fill="white"></path>
  <path d="M54.3155 70C56.2571 70 57.8374 68.3875 57.8374 66.4058V58.0998H60.9631C63.1888 58.0998 65 56.2516 65 53.9801V14.9336C65 14.0294 64.6372 13.08 63.9723 12.4015C62.8662 11.2726 53.9776 2.20088 52.8524 1.05244L52.8505 1.05084L52.8489 1.04924C52.2341 0.421092 51.304 0 50.3679 0H19.8328C17.6071 0 15.7962 1.84819 15.7962 4.12006V8.74283H9.92371C7.96179 8.74283 6.3658 10.3685 6.3658 12.3669V27.3628H3.52163C1.57994 27.3628 0 28.9753 0 30.957V66.4058C0 68.3875 1.57994 70 3.52163 70H54.3155ZM52.2398 2.48976C53.2749 3.54626 61.5455 11.9875 62.5605 13.0235H53.624C52.8607 13.0235 52.2398 12.3897 52.2398 11.6104V2.48976ZM17.2251 4.12006C17.2251 2.65247 18.3948 1.45833 19.8328 1.45833H50.3679C50.5176 1.45833 50.6656 1.47862 50.8109 1.51147V11.6104C50.8109 13.1937 52.073 14.4818 53.624 14.4818H63.5207C63.5521 14.629 63.5711 14.7796 63.5711 14.9336V53.9801C63.5711 55.4477 62.4011 56.6415 60.9631 56.6415H57.8374V38.5143C57.8374 36.5326 56.2572 34.9201 54.3155 34.9201H22.3972L18.1988 28.8778C17.9342 28.4971 17.6007 28.1816 17.2251 27.9359L17.2251 4.12006ZM7.79469 12.3669C7.79469 11.1728 8.74983 10.2012 9.92371 10.2012H15.7962V27.3977C15.6413 27.3763 15.4848 27.3628 15.3263 27.3628H7.79469V12.3669ZM1.42889 66.4058V30.957C1.42889 29.7793 2.36764 28.8212 3.52163 28.8212H15.3263C16.0034 28.8212 16.6415 29.1576 17.0333 29.7216L21.4451 36.0711C21.5791 36.2638 21.7964 36.3784 22.0281 36.3784H54.3155C55.4694 36.3784 56.4085 37.3365 56.4085 38.5143V66.4058C56.4085 67.5836 55.4694 68.5417 54.3155 68.5417H3.52163C2.36764 68.5417 1.42889 67.5836 1.42889 66.4058Z" fill="white"></path>
  <path d="M11.6532 61.9886H46.1837C47.5079 61.9886 48.5859 60.8892 48.5859 59.5376V46.5715C48.5859 45.22 47.5079 44.1202 46.1837 44.1202H11.6532C10.329 44.1202 9.2514 45.22 9.2514 46.5715V59.5376C9.25141 60.8892 10.329 61.9886 11.6532 61.9886ZM10.6803 46.5715C10.6803 46.0239 11.1167 45.5785 11.6532 45.5785H46.1837C46.7202 45.5785 47.157 46.0239 47.157 46.5715V59.5376C47.157 60.0849 46.7202 60.5303 46.1837 60.5303H11.6532C11.1167 60.5303 10.6803 60.0849 10.6803 59.5376L10.6803 46.5715Z" fill="white"></path>
  <path d="M24.7425 16.7643H44.2289C45.2112 16.7643 46.0108 15.9486 46.0108 14.946V8.32836C46.0108 7.3254 45.2112 6.50972 44.2289 6.50972H24.7425C23.7598 6.50972 22.9606 7.3254 22.9606 8.32836V14.946C22.9606 15.9486 23.7598 16.7643 24.7425 16.7643ZM24.3895 8.32835C24.3895 8.12968 24.5479 7.96804 24.7425 7.96804H44.2289C44.4235 7.96804 44.5819 8.12968 44.5819 8.32835V14.946C44.5819 15.1443 44.4235 15.306 44.2289 15.306H24.7425C24.5479 15.306 24.3895 15.1443 24.3895 14.946V8.32835Z" fill="white"></path>
</svg>
