<?xml version="1.0" encoding="UTF-8"?>
<svg xmlns="http://www.w3.org/2000/svg" width="43" height="44" viewBox="0 0 43 44" fill="none">
  <g clip-path="url(#clip0_978_110)">
    <path d="M12.2925 11.3682L28.1953 32.1605H30.632L14.9101 11.3682H12.2925Z" fill="white"></path>
    <path d="M21.5 0.333008C9.62663 0.333008 0 9.95963 0 21.833C0 33.7064 9.62663 43.333 21.5 43.333C33.3734 43.333 43 33.7064 43 21.833C43 9.95963 33.3734 0.333008 21.5 0.333008ZM26.9879 34.7903L20.0541 25.7335L12.1314 34.7903H7.72746L17.9991 23.0478L7.16667 8.87567H16.2361L22.4962 17.155L29.7399 8.87567H34.1384L24.5333 19.8514L35.8333 34.7886L26.9879 34.7903Z" fill="white"></path>
  </g>
  <defs>
    <clipPath id="clip0_978_110">
      <rect width="43" height="43" fill="white" transform="translate(0 0.333008)"></rect>
    </clipPath>
  </defs>
</svg>
