<?xml version="1.0" encoding="UTF-8"?>
<svg xmlns="http://www.w3.org/2000/svg" width="101" height="101" viewBox="0 0 101 101" fill="none">
  <path d="M49.7065 98.8647C42.9852 98.8647 36.6797 97.5809 30.7898 95.0132C24.9009 92.4445 19.7479 88.9768 15.3307 84.6102C10.9135 80.2435 7.42059 75.096 4.8519 69.1677C2.28423 63.2395 1.00039 56.9147 1.00039 50.1935C1.00039 43.5501 2.28423 37.295 4.8519 31.4284C7.42059 25.5627 10.9135 20.4329 15.3307 16.039C19.7479 11.645 24.9009 8.18896 30.7898 5.67077C36.6797 3.1536 42.9852 1.89502 49.7065 1.89502C56.5438 1.89502 63.0686 3.3324 69.2807 6.20714C75.4928 9.08189 80.9534 13.0172 85.6625 18.0132V2.6526H90.3246V25.6602H67.3989V20.9981H82.0261C77.7373 16.5455 72.8206 13.0253 67.2761 10.4374C61.7327 7.85058 55.8762 6.55714 49.7065 6.55714C37.4691 6.55714 27.0691 10.7587 18.5064 19.1617C9.94382 27.5647 5.66251 37.8349 5.66251 49.9723C5.66251 62.2561 9.93221 72.6991 18.4716 81.3011C27.011 89.9021 37.4226 94.2026 49.7065 94.2026C61.2448 94.2026 71.1246 90.2829 79.3458 82.4435C87.566 74.6031 92.1423 64.9915 93.0746 53.6087H97.7367C96.96 66.4289 91.96 77.1768 82.7367 85.8526C73.5135 94.5273 62.5034 98.8647 49.7065 98.8647ZM69.4731 73.3284L47.1898 51.2314V19.8556H51.8504V49.3071L72.8413 69.9602L69.4731 73.3284Z" fill="#0163B6"></path>
</svg>
