<?xml version="1.0" encoding="UTF-8"?>
<svg xmlns="http://www.w3.org/2000/svg" id="Layer_2" version="1.1" viewBox="0 0 124 148">
  <defs>
    <style>
      .st0 {
        fill: #ffde00;
      }
    </style>
  </defs>
  <path class="st0" d="M122.6,5.1c0-1.9-1.5-3.4-3.4-3.4s-2.1.5-2.7,1.4h0s0,0-.2.2L48.4,102.5l-1.8,2.6-1.5-2.4L6.9,38.1h0c-.5-.9-1.5-1.5-2.6-1.5-1.7,0-3,1.3-3,3s0,.7.2,1h0l.3.9,30.9,94.4c1,4.1,4.1,7.5,8.2,8.8,0,0,.6.2,1,.3.9.2,1.9.3,2.9.3,4.9,0,9-2.8,11.1-6.8h0c.2-.3.4-.7.4-.7L122.1,6.9h0c.3-.5.5-1.1.5-1.8Z"></path>
</svg>
