<?xml version="1.0" encoding="UTF-8"?>
<svg xmlns="http://www.w3.org/2000/svg" width="43" height="44" viewBox="0 0 43 44" fill="none">
  <g clip-path="url(#clip0_978_102)">
    <path d="M21.5 43.333C9.6277 43.333 0 33.7053 0 21.833C0 9.96071 9.6277 0.333008 21.5 0.333008C33.3723 0.333008 43 9.96071 43 21.833C43 33.7053 33.3723 43.333 21.5 43.333Z" fill="white"></path>
    <path d="M35.1827 14.9148C34.8559 13.6764 33.8884 12.7046 32.6586 12.3735C30.4312 11.7715 21.5044 11.7715 21.5044 11.7715C21.5044 11.7715 12.5733 11.7715 10.3502 12.3735C9.12042 12.7046 8.15292 13.6764 7.82612 14.9148C7.22412 17.1551 7.22412 21.8335 7.22412 21.8335C7.22412 21.8335 7.22412 26.5119 7.82182 28.7522C8.14862 29.9906 9.11612 30.9624 10.3459 31.2935C12.5733 31.8955 21.5001 31.8955 21.5001 31.8955C21.5001 31.8955 30.4312 31.8955 32.6543 31.2935C33.8841 30.9624 34.8516 29.9906 35.1784 28.7522C35.7761 26.5119 35.7761 21.8335 35.7761 21.8335C35.7761 21.8335 35.7761 17.1551 35.1827 14.9148ZM18.5804 26.0776V17.5894L26.0409 21.8335L18.5804 26.0776Z" fill="#061B36"></path>
  </g>
  <defs>
    <clipPath id="clip0_978_102">
      <rect width="43" height="43" fill="white" transform="translate(0 0.333008)"></rect>
    </clipPath>
  </defs>
</svg>
