<svg width="24" height="24" viewBox="0 0 24 24" fill="none" xmlns="http://www.w3.org/2000/svg">
<path d="M9 3C9 2.60218 9.15804 2.22064 9.43934 1.93934C9.72064 1.65804 10.1022 1.5 10.5 1.5H13.5C13.8978 1.5 14.2794 1.65804 14.5607 1.93934C14.842 2.22064 15 2.60218 15 3V18C15 18.3978 14.842 18.7794 14.5607 19.0607C14.2794 19.342 13.8978 19.5 13.5 19.5H10.5C10.1022 19.5 9.72064 19.342 9.43934 19.0607C9.15804 18.7794 9 18.3978 9 18V3Z" fill="black"/>
<path fill-rule="evenodd" clip-rule="evenodd" d="M1.5 21.75C1.5 21.5511 1.57902 21.3603 1.71967 21.2197C1.86032 21.079 2.05109 21 2.25 21H21.75C21.9489 21 22.1397 21.079 22.2803 21.2197C22.421 21.3603 22.5 21.5511 22.5 21.75C22.5 21.9489 22.421 22.1397 22.2803 22.2803C22.1397 22.421 21.9489 22.5 21.75 22.5H2.25C2.05109 22.5 1.86032 22.421 1.71967 22.2803C1.57902 22.1397 1.5 21.9489 1.5 21.75Z" fill="black"/>
</svg>
