<svg width="24" height="24" viewBox="0 0 24 24" fill="none" xmlns="http://www.w3.org/2000/svg">
<path fill-rule="evenodd" clip-rule="evenodd" d="M24 12C24 15.1826 22.7357 18.2348 20.4853 20.4853C18.2348 22.7357 15.1826 24 12 24C8.8174 24 5.76516 22.7357 3.51472 20.4853C1.26428 18.2348 0 15.1826 0 12C0 8.8174 1.26428 5.76516 3.51472 3.51472C5.76516 1.26428 8.8174 0 12 0C15.1826 0 18.2348 1.26428 20.4853 3.51472C22.7357 5.76516 24 8.8174 24 12ZM8.8185 7.758C8.67705 7.62138 8.4876 7.54579 8.29095 7.54749C8.0943 7.5492 7.90619 7.62808 7.76714 7.76714C7.62808 7.90619 7.5492 8.0943 7.54749 8.29095C7.54579 8.4876 7.62138 8.67705 7.758 8.8185L13.902 14.9625H9.75C9.55109 14.9625 9.36032 15.0415 9.21967 15.1822C9.07902 15.3228 9 15.5136 9 15.7125C9 15.9114 9.07902 16.1022 9.21967 16.2428C9.36032 16.3835 9.55109 16.4625 9.75 16.4625H15.7125C15.9114 16.4625 16.1022 16.3835 16.2428 16.2428C16.3835 16.1022 16.4625 15.9114 16.4625 15.7125V9.75C16.4625 9.55109 16.3835 9.36032 16.2428 9.21967C16.1022 9.07902 15.9114 9 15.7125 9C15.5136 9 15.3228 9.07902 15.1822 9.21967C15.0415 9.36032 14.9625 9.55109 14.9625 9.75V13.902L8.8185 7.758Z" fill="black"/>
</svg>
