<svg width="24" height="24" viewBox="0 0 24 24" fill="none" xmlns="http://www.w3.org/2000/svg">
<path fill-rule="evenodd" clip-rule="evenodd" d="M3 20.2498C3 20.4488 3.07902 20.6395 3.21967 20.7802C3.36032 20.9208 3.55109 20.9998 3.75 20.9998H12.75C12.9489 20.9998 13.1397 20.9208 13.2803 20.7802C13.421 20.6395 13.5 20.4488 13.5 20.2498C13.5 20.0509 13.421 19.8602 13.2803 19.7195C13.1397 19.5789 12.9489 19.4998 12.75 19.4998H5.5605L20.781 4.28085C20.9218 4.14002 21.0009 3.94901 21.0009 3.74985C21.0009 3.55069 20.9218 3.35968 20.781 3.21885C20.6402 3.07802 20.4492 2.9989 20.25 2.9989C20.0508 2.9989 19.8598 3.07802 19.719 3.21885L4.5 18.4393V11.2498C4.5 11.0509 4.42098 10.8602 4.28033 10.7195C4.13968 10.5789 3.94891 10.4998 3.75 10.4998C3.55109 10.4998 3.36032 10.5789 3.21967 10.7195C3.07902 10.8602 3 11.0509 3 11.2498V20.2498Z" fill="black"/>
</svg>
