<svg width="24" height="24" viewBox="0 0 24 24" fill="none" xmlns="http://www.w3.org/2000/svg">
<g clip-path="url(#clip0_1315_72)">
<path fill-rule="evenodd" clip-rule="evenodd" d="M12 22.5C14.7848 22.5 17.4555 21.3938 19.4246 19.4246C21.3938 17.4555 22.5 14.7848 22.5 12C22.5 9.21523 21.3938 6.54451 19.4246 4.57538C17.4555 2.60625 14.7848 1.5 12 1.5C9.21523 1.5 6.54451 2.60625 4.57538 4.57538C2.60625 6.54451 1.5 9.21523 1.5 12C1.5 14.7848 2.60625 17.4555 4.57538 19.4246C6.54451 21.3938 9.21523 22.5 12 22.5ZM12 24C15.1826 24 18.2348 22.7357 20.4853 20.4853C22.7357 18.2348 24 15.1826 24 12C24 8.8174 22.7357 5.76516 20.4853 3.51472C18.2348 1.26428 15.1826 0 12 0C8.8174 0 5.76516 1.26428 3.51472 3.51472C1.26428 5.76516 0 8.8174 0 12C0 15.1826 1.26428 18.2348 3.51472 20.4853C5.76516 22.7357 8.8174 24 12 24Z" fill="black"/>
<path fill-rule="evenodd" clip-rule="evenodd" d="M7.75768 7.75804C7.89832 7.61744 8.08905 7.53845 8.28793 7.53845C8.4868 7.53845 8.67753 7.61744 8.81818 7.75804L14.9622 13.902V9.75004C14.9622 9.55113 15.0412 9.36036 15.1818 9.21971C15.3225 9.07906 15.5133 9.00004 15.7122 9.00004C15.9111 9.00004 16.1019 9.07906 16.2425 9.21971C16.3832 9.36036 16.4622 9.55113 16.4622 9.75004V15.7125C16.4622 15.9115 16.3832 16.1022 16.2425 16.2429C16.1019 16.3835 15.9111 16.4625 15.7122 16.4625H9.74968C9.55076 16.4625 9.36 16.3835 9.21935 16.2429C9.07869 16.1022 8.99968 15.9115 8.99968 15.7125C8.99968 15.5136 9.07869 15.3229 9.21935 15.1822C9.36 15.0416 9.55076 14.9625 9.74968 14.9625H13.9017L7.75768 8.81854C7.61707 8.6779 7.53809 8.48717 7.53809 8.28829C7.53809 8.08942 7.61707 7.89869 7.75768 7.75804Z" fill="black"/>
</g>
<defs>
<clipPath id="clip0_1315_72">
<rect width="24" height="24" fill="white"/>
</clipPath>
</defs>
</svg>
