<svg width="24" height="24" viewBox="0 0 24 24" fill="none" xmlns="http://www.w3.org/2000/svg">
<g clip-path="url(#clip0_1315_63)">
<path fill-rule="evenodd" clip-rule="evenodd" d="M3 0C2.20435 0 1.44129 0.316071 0.87868 0.87868C0.316071 1.44129 0 2.20435 0 3L0 21C0 21.7956 0.316071 22.5587 0.87868 23.1213C1.44129 23.6839 2.20435 24 3 24H21C21.7956 24 22.5587 23.6839 23.1213 23.1213C23.6839 22.5587 24 21.7956 24 21V3C24 2.20435 23.6839 1.44129 23.1213 0.87868C22.5587 0.316071 21.7956 0 21 0L3 0ZM15.1815 7.758C15.2507 7.68637 15.3334 7.62923 15.4249 7.58992C15.5164 7.55062 15.6149 7.52993 15.7144 7.52906C15.814 7.5282 15.9128 7.54717 16.005 7.58488C16.0971 7.62259 16.1809 7.67828 16.2513 7.7487C16.3217 7.81912 16.3774 7.90286 16.4151 7.99503C16.4528 8.08721 16.4718 8.18597 16.4709 8.28555C16.4701 8.38514 16.4494 8.48355 16.4101 8.57505C16.3708 8.66656 16.3136 8.74932 16.242 8.8185L10.098 14.9625H14.25C14.4489 14.9625 14.6397 15.0415 14.7803 15.1822C14.921 15.3228 15 15.5136 15 15.7125C15 15.9114 14.921 16.1022 14.7803 16.2428C14.6397 16.3835 14.4489 16.4625 14.25 16.4625H8.2875C8.08859 16.4625 7.89782 16.3835 7.75717 16.2428C7.61652 16.1022 7.5375 15.9114 7.5375 15.7125V9.75C7.5375 9.55109 7.61652 9.36032 7.75717 9.21967C7.89782 9.07902 8.08859 9 8.2875 9C8.48641 9 8.67718 9.07902 8.81783 9.21967C8.95848 9.36032 9.0375 9.55109 9.0375 9.75V13.902L15.1815 7.758Z" fill="black"/>
</g>
<defs>
<clipPath id="clip0_1315_63">
<rect width="24" height="24" fill="white"/>
</clipPath>
</defs>
</svg>
