<svg width="24" height="24" viewBox="0 0 24 24" fill="none" xmlns="http://www.w3.org/2000/svg">
<g clip-path="url(#clip0_1315_152)">
<path fill-rule="evenodd" clip-rule="evenodd" d="M3 0C2.20435 0 1.44129 0.316071 0.87868 0.87868C0.316071 1.44129 0 2.20435 0 3L0 21C0 21.7956 0.316071 22.5587 0.87868 23.1213C1.44129 23.6839 2.20435 24 3 24H21C21.7956 24 22.5587 23.6839 23.1213 23.1213C23.6839 22.5587 24 21.7956 24 21V3C24 2.20435 23.6839 1.44129 23.1213 0.87868C22.5587 0.316071 21.7956 0 21 0L3 0ZM8.8185 16.242C8.74932 16.3136 8.66656 16.3708 8.57505 16.4101C8.48355 16.4494 8.38514 16.4701 8.28555 16.4709C8.18597 16.4718 8.08721 16.4528 7.99503 16.4151C7.90286 16.3774 7.81912 16.3217 7.7487 16.2513C7.67828 16.1809 7.62259 16.0971 7.58488 16.005C7.54717 15.9128 7.5282 15.814 7.52906 15.7144C7.52993 15.6149 7.55062 15.5164 7.58992 15.4249C7.62923 15.3334 7.68637 15.2507 7.758 15.1815L13.902 9.0375H9.75C9.55109 9.0375 9.36032 8.95848 9.21967 8.81783C9.07902 8.67718 9 8.48641 9 8.2875C9 8.08859 9.07902 7.89782 9.21967 7.75717C9.36032 7.61652 9.55109 7.5375 9.75 7.5375H15.7125C15.9114 7.5375 16.1022 7.61652 16.2428 7.75717C16.3835 7.89782 16.4625 8.08859 16.4625 8.2875V14.25C16.4625 14.4489 16.3835 14.6397 16.2428 14.7803C16.1022 14.921 15.9114 15 15.7125 15C15.5136 15 15.3228 14.921 15.1822 14.7803C15.0415 14.6397 14.9625 14.4489 14.9625 14.25V10.098L8.8185 16.242Z" fill="black"/>
</g>
<defs>
<clipPath id="clip0_1315_152">
<rect width="24" height="24" fill="white"/>
</clipPath>
</defs>
</svg>
