<svg width="24" height="24" viewBox="0 0 24 24" fill="none" xmlns="http://www.w3.org/2000/svg">
<g clip-path="url(#clip0_1315_65)">
<path fill-rule="evenodd" clip-rule="evenodd" d="M21 1.5H3C2.60218 1.5 2.22064 1.65804 1.93934 1.93934C1.65804 2.22064 1.5 2.60218 1.5 3V21C1.5 21.3978 1.65804 21.7794 1.93934 22.0607C2.22064 22.342 2.60218 22.5 3 22.5H21C21.3978 22.5 21.7794 22.342 22.0607 22.0607C22.342 21.7794 22.5 21.3978 22.5 21V3C22.5 2.60218 22.342 2.22064 22.0607 1.93934C21.7794 1.65804 21.3978 1.5 21 1.5ZM3 0C2.20435 0 1.44129 0.316071 0.87868 0.87868C0.316071 1.44129 0 2.20435 0 3L0 21C0 21.7956 0.316071 22.5587 0.87868 23.1213C1.44129 23.6839 2.20435 24 3 24H21C21.7956 24 22.5587 23.6839 23.1213 23.1213C23.6839 22.5587 24 21.7956 24 21V3C24 2.20435 23.6839 1.44129 23.1213 0.87868C22.5587 0.316071 21.7956 0 21 0L3 0Z" fill="black"/>
<path fill-rule="evenodd" clip-rule="evenodd" d="M16.2419 7.75804C16.1012 7.61744 15.9105 7.53845 15.7116 7.53845C15.5127 7.53845 15.322 7.61744 15.1814 7.75804L9.03735 13.902V9.75004C9.03735 9.55113 8.95834 9.36036 8.81768 9.21971C8.67703 9.07906 8.48627 9.00004 8.28735 9.00004C8.08844 9.00004 7.89768 9.07906 7.75702 9.21971C7.61637 9.36036 7.53735 9.55113 7.53735 9.75004V15.7125C7.53735 15.9115 7.61637 16.1022 7.75702 16.2429C7.89768 16.3835 8.08844 16.4625 8.28735 16.4625H14.2499C14.4488 16.4625 14.6395 16.3835 14.7802 16.2429C14.9208 16.1022 14.9999 15.9115 14.9999 15.7125C14.9999 15.5136 14.9208 15.3229 14.7802 15.1822C14.6395 15.0416 14.4488 14.9625 14.2499 14.9625H10.0979L16.2419 8.81854C16.3825 8.6779 16.4614 8.48717 16.4614 8.28829C16.4614 8.08942 16.3825 7.89869 16.2419 7.75804Z" fill="black"/>
</g>
<defs>
<clipPath id="clip0_1315_65">
<rect width="24" height="24" fill="white"/>
</clipPath>
</defs>
</svg>
