<svg width="24" height="24" viewBox="0 0 24 24" fill="none" xmlns="http://www.w3.org/2000/svg">
<g clip-path="url(#clip0_1315_174)">
<path fill-rule="evenodd" clip-rule="evenodd" d="M1.5 11.9999C1.5 11.801 1.57902 11.6102 1.71967 11.4696C1.86032 11.3289 2.05109 11.2499 2.25 11.2499H21.75C21.9489 11.2499 22.1397 11.3289 22.2803 11.4696C22.421 11.6102 22.5 11.801 22.5 11.9999C22.5 12.1988 22.421 12.3896 22.2803 12.5302C22.1397 12.6709 21.9489 12.7499 21.75 12.7499H2.25C2.05109 12.7499 1.86032 12.6709 1.71967 12.5302C1.57902 12.3896 1.5 12.1988 1.5 11.9999ZM11.469 0.218883C11.5387 0.149039 11.6214 0.0936243 11.7125 0.0558147C11.8037 0.018005 11.9013 -0.00145721 12 -0.00145721C12.0987 -0.00145721 12.1963 0.018005 12.2874 0.0558147C12.3786 0.0936243 12.4613 0.149039 12.531 0.218883L15.531 3.21888C15.6007 3.28862 15.656 3.3714 15.6938 3.46251C15.7315 3.55362 15.7509 3.65127 15.7509 3.74988C15.7509 3.8485 15.7315 3.94615 15.6938 4.03726C15.656 4.12837 15.6007 4.21115 15.531 4.28088C15.4613 4.35062 15.3785 4.40593 15.2874 4.44367C15.1963 4.48141 15.0986 4.50083 15 4.50083C14.9014 4.50083 14.8037 4.48141 14.7126 4.44367C14.6215 4.40593 14.5387 4.35062 14.469 4.28088L12.75 2.56038V8.24988C12.75 8.4488 12.671 8.63956 12.5303 8.78021C12.3897 8.92087 12.1989 8.99988 12 8.99988C11.8011 8.99988 11.6103 8.92087 11.4697 8.78021C11.329 8.63956 11.25 8.4488 11.25 8.24988V2.56038L9.531 4.28088C9.39017 4.42171 9.19916 4.50083 9 4.50083C8.80084 4.50083 8.60983 4.42171 8.469 4.28088C8.32817 4.14005 8.24905 3.94905 8.24905 3.74988C8.24905 3.55072 8.32817 3.35971 8.469 3.21888L11.469 0.218883ZM12 14.9999C12.1989 14.9999 12.3897 15.0789 12.5303 15.2196C12.671 15.3602 12.75 15.551 12.75 15.7499V21.4394L14.469 19.7189C14.6098 19.5781 14.8008 19.4989 15 19.4989C15.1992 19.4989 15.3902 19.5781 15.531 19.7189C15.6718 19.8597 15.7509 20.0507 15.7509 20.2499C15.7509 20.449 15.6718 20.6401 15.531 20.7809L12.531 23.7809C12.4613 23.8507 12.3786 23.9061 12.2874 23.944C12.1963 23.9818 12.0987 24.0012 12 24.0012C11.9013 24.0012 11.8037 23.9818 11.7125 23.944C11.6214 23.9061 11.5387 23.8507 11.469 23.7809L8.469 20.7809C8.39927 20.7112 8.34395 20.6284 8.30621 20.5373C8.26848 20.4461 8.24905 20.3485 8.24905 20.2499C8.24905 20.1513 8.26848 20.0536 8.30621 19.9625C8.34395 19.8714 8.39927 19.7886 8.469 19.7189C8.60983 19.5781 8.80084 19.4989 9 19.4989C9.09862 19.4989 9.19627 19.5184 9.28738 19.5561C9.37848 19.5938 9.46127 19.6492 9.531 19.7189L11.25 21.4394V15.7499C11.25 15.551 11.329 15.3602 11.4697 15.2196C11.6103 15.0789 11.8011 14.9999 12 14.9999Z" fill="black"/>
</g>
<defs>
<clipPath id="clip0_1315_174">
<rect width="24" height="24" fill="white"/>
</clipPath>
</defs>
</svg>
