<svg width="24" height="24" viewBox="0 0 24 24" fill="none" xmlns="http://www.w3.org/2000/svg">
<path fill-rule="evenodd" clip-rule="evenodd" d="M12.0002 6C12.1991 6 12.3899 6.07902 12.5305 6.21967C12.6712 6.36032 12.7502 6.55109 12.7502 6.75V15.4395L15.9692 12.219C16.0389 12.1493 16.1217 12.094 16.2128 12.0562C16.3039 12.0185 16.4016 11.9991 16.5002 11.9991C16.5988 11.9991 16.6965 12.0185 16.7876 12.0562C16.8787 12.094 16.9615 12.1493 17.0312 12.219C17.1009 12.2887 17.1563 12.3715 17.194 12.4626C17.2317 12.5537 17.2512 12.6514 17.2512 12.75C17.2512 12.8486 17.2317 12.9463 17.194 13.0374C17.1563 13.1285 17.1009 13.2113 17.0312 13.281L12.5312 17.781C12.4615 17.8508 12.3788 17.9063 12.2877 17.9441C12.1965 17.9819 12.0989 18.0013 12.0002 18.0013C11.9016 18.0013 11.8039 17.9819 11.7128 17.9441C11.6216 17.9063 11.5389 17.8508 11.4692 17.781L6.96922 13.281C6.89948 13.2113 6.84417 13.1285 6.80643 13.0374C6.76869 12.9463 6.74927 12.8486 6.74927 12.75C6.74927 12.6514 6.76869 12.5537 6.80643 12.4626C6.84417 12.3715 6.89948 12.2887 6.96922 12.219C7.11005 12.0782 7.30105 11.9991 7.50022 11.9991C7.59883 11.9991 7.69648 12.0185 7.78759 12.0562C7.8787 12.094 7.96148 12.1493 8.03122 12.219L11.2502 15.4395V6.75C11.2502 6.55109 11.3292 6.36032 11.4699 6.21967C11.6105 6.07902 11.8013 6 12.0002 6Z" fill="black"/>
</svg>
