<svg width="24" height="24" viewBox="0 0 24 24" fill="none" xmlns="http://www.w3.org/2000/svg">
<g clip-path="url(#clip0_1315_104)">
<path fill-rule="evenodd" clip-rule="evenodd" d="M21 1.5H3C2.60218 1.5 2.22064 1.65804 1.93934 1.93934C1.65804 2.22064 1.5 2.60218 1.5 3V21C1.5 21.3978 1.65804 21.7794 1.93934 22.0607C2.22064 22.342 2.60218 22.5 3 22.5H21C21.3978 22.5 21.7794 22.342 22.0607 22.0607C22.342 21.7794 22.5 21.3978 22.5 21V3C22.5 2.60218 22.342 2.22064 22.0607 1.93934C21.7794 1.65804 21.3978 1.5 21 1.5ZM3 0C2.20435 0 1.44129 0.316071 0.87868 0.87868C0.316071 1.44129 0 2.20435 0 3L0 21C0 21.7956 0.316071 22.5587 0.87868 23.1213C1.44129 23.6839 2.20435 24 3 24H21C21.7956 24 22.5587 23.6839 23.1213 23.1213C23.6839 22.5587 24 21.7956 24 21V3C24 2.20435 23.6839 1.44129 23.1213 0.87868C22.5587 0.316071 21.7956 0 21 0L3 0Z" fill="black"/>
<path fill-rule="evenodd" clip-rule="evenodd" d="M17.9999 12.0002C17.9999 12.1991 17.9209 12.3899 17.7802 12.5305C17.6396 12.6712 17.4488 12.7502 17.2499 12.7502H8.56038L11.7809 15.9692C11.8506 16.0389 11.9059 16.1217 11.9437 16.2128C11.9814 16.3039 12.0008 16.4016 12.0008 16.5002C12.0008 16.5988 11.9814 16.6965 11.9437 16.7876C11.9059 16.8787 11.8506 16.9615 11.7809 17.0312C11.7111 17.1009 11.6284 17.1562 11.5373 17.194C11.4461 17.2317 11.3485 17.2511 11.2499 17.2511C11.1513 17.2511 11.0536 17.2317 10.9625 17.194C10.8714 17.1562 10.7886 17.1009 10.7189 17.0312L6.21888 12.5312C6.14903 12.4615 6.09362 12.3788 6.05581 12.2876C6.018 12.1965 5.99854 12.0989 5.99854 12.0002C5.99854 11.9015 6.018 11.8039 6.05581 11.7127C6.09362 11.6216 6.14903 11.5389 6.21888 11.4692L10.7189 6.9692C10.8597 6.82837 11.0507 6.74925 11.2499 6.74925C11.449 6.74925 11.64 6.82837 11.7809 6.9692C11.9217 7.11003 12.0008 7.30104 12.0008 7.5002C12.0008 7.69936 11.9217 7.89037 11.7809 8.0312L8.56038 11.2502H17.2499C17.4488 11.2502 17.6396 11.3292 17.7802 11.4699C17.9209 11.6105 17.9999 11.8013 17.9999 12.0002Z" fill="black"/>
</g>
<defs>
<clipPath id="clip0_1315_104">
<rect width="24" height="24" fill="white"/>
</clipPath>
</defs>
</svg>
