<svg width="24" height="24" viewBox="0 0 24 24" fill="none" xmlns="http://www.w3.org/2000/svg">
<path fill-rule="evenodd" clip-rule="evenodd" d="M24 12C24 15.1826 22.7357 18.2348 20.4853 20.4853C18.2348 22.7357 15.1826 24 12 24C8.8174 24 5.76516 22.7357 3.51472 20.4853C1.26428 18.2348 0 15.1826 0 12C0 8.8174 1.26428 5.76516 3.51472 3.51472C5.76516 1.26428 8.8174 0 12 0C15.1826 0 18.2348 1.26428 20.4853 3.51472C22.7357 5.76516 24 8.8174 24 12ZM15.1815 16.242C15.2507 16.3136 15.3334 16.3708 15.4249 16.4101C15.5164 16.4494 15.6149 16.4701 15.7144 16.4709C15.814 16.4718 15.9128 16.4528 16.005 16.4151C16.0971 16.3774 16.1809 16.3217 16.2513 16.2513C16.3217 16.1809 16.3774 16.0971 16.4151 16.005C16.4528 15.9128 16.4718 15.814 16.4709 15.7144C16.4701 15.6149 16.4494 15.5164 16.4101 15.4249C16.3708 15.3334 16.3136 15.2507 16.242 15.1815L10.098 9.0375H14.25C14.4489 9.0375 14.6397 8.95848 14.7803 8.81783C14.921 8.67718 15 8.48641 15 8.2875C15 8.08859 14.921 7.89782 14.7803 7.75717C14.6397 7.61652 14.4489 7.5375 14.25 7.5375H8.2875C8.08859 7.5375 7.89782 7.61652 7.75717 7.75717C7.61652 7.89782 7.5375 8.08859 7.5375 8.2875V14.25C7.5375 14.4489 7.61652 14.6397 7.75717 14.7803C7.89782 14.921 8.08859 15 8.2875 15C8.48641 15 8.67718 14.921 8.81783 14.7803C8.95848 14.6397 9.0375 14.4489 9.0375 14.25V10.098L15.1815 16.242Z" fill="black"/>
</svg>
