<svg width="24" height="24" viewBox="0 0 24 24" fill="none" xmlns="http://www.w3.org/2000/svg">
<path fill-rule="evenodd" clip-rule="evenodd" d="M21.0002 3.75C21.0002 3.55109 20.9212 3.36032 20.7805 3.21967C20.6399 3.07902 20.4491 3 20.2502 3H11.2502C11.0513 3 10.8605 3.07902 10.7199 3.21967C10.5792 3.36032 10.5002 3.55109 10.5002 3.75C10.5002 3.94891 10.5792 4.13968 10.7199 4.28033C10.8605 4.42098 11.0513 4.5 11.2502 4.5H18.4397L3.2192 19.719C3.14947 19.7887 3.09415 19.8715 3.05641 19.9626C3.01868 20.0537 2.99925 20.1514 2.99925 20.25C2.99925 20.3486 3.01868 20.4463 3.05641 20.5374C3.09415 20.6285 3.14947 20.7113 3.2192 20.781C3.28893 20.8507 3.37172 20.906 3.46282 20.9438C3.55393 20.9815 3.65158 21.0009 3.7502 21.0009C3.84882 21.0009 3.94647 20.9815 4.03757 20.9438C4.12868 20.906 4.21147 20.8507 4.2812 20.781L19.5002 5.5605V12.75C19.5002 12.9489 19.5792 13.1397 19.7199 13.2803C19.8605 13.421 20.0513 13.5 20.2502 13.5C20.4491 13.5 20.6399 13.421 20.7805 13.2803C20.9212 13.1397 21.0002 12.9489 21.0002 12.75V3.75Z" fill="#3365FB"/>
</svg>
