<svg width="24" height="24" viewBox="0 0 24 24" fill="none" xmlns="http://www.w3.org/2000/svg">
<path fill-rule="evenodd" clip-rule="evenodd" d="M1.5 12.0002C1.5 11.8013 1.57902 11.6105 1.71967 11.4699C1.86032 11.3292 2.05109 11.2502 2.25 11.2502H19.9395L15.219 6.5312C15.0782 6.39037 14.9991 6.19936 14.9991 6.0002C14.9991 5.80104 15.0782 5.61003 15.219 5.4692C15.3598 5.32837 15.5508 5.24925 15.75 5.24925C15.9492 5.24925 16.1402 5.32837 16.281 5.4692L22.281 11.4692C22.3508 11.5389 22.4063 11.6216 22.4441 11.7127C22.4819 11.8039 22.5013 11.9015 22.5013 12.0002C22.5013 12.0989 22.4819 12.1965 22.4441 12.2876C22.4063 12.3788 22.3508 12.4615 22.281 12.5312L16.281 18.5312C16.1402 18.672 15.9492 18.7511 15.75 18.7511C15.5508 18.7511 15.3598 18.672 15.219 18.5312C15.0782 18.3904 14.9991 18.1994 14.9991 18.0002C14.9991 17.801 15.0782 17.61 15.219 17.4692L19.9395 12.7502H2.25C2.05109 12.7502 1.86032 12.6712 1.71967 12.5305C1.57902 12.3899 1.5 12.1991 1.5 12.0002Z" fill="black"/>
</svg>
