<svg width="24" height="24" viewBox="0 0 24 24" fill="none" xmlns="http://www.w3.org/2000/svg">
<g clip-path="url(#clip0_1315_77)">
<path fill-rule="evenodd" clip-rule="evenodd" d="M21 1.5H3C2.60218 1.5 2.22064 1.65804 1.93934 1.93934C1.65804 2.22064 1.5 2.60218 1.5 3V21C1.5 21.3978 1.65804 21.7794 1.93934 22.0607C2.22064 22.342 2.60218 22.5 3 22.5H21C21.3978 22.5 21.7794 22.342 22.0607 22.0607C22.342 21.7794 22.5 21.3978 22.5 21V3C22.5 2.60218 22.342 2.22064 22.0607 1.93934C21.7794 1.65804 21.3978 1.5 21 1.5ZM3 0C2.20435 0 1.44129 0.316071 0.87868 0.87868C0.316071 1.44129 0 2.20435 0 3L0 21C0 21.7956 0.316071 22.5587 0.87868 23.1213C1.44129 23.6839 2.20435 24 3 24H21C21.7956 24 22.5587 23.6839 23.1213 23.1213C23.6839 22.5587 24 21.7956 24 21V3C24 2.20435 23.6839 1.44129 23.1213 0.87868C22.5587 0.316071 21.7956 0 21 0L3 0Z" fill="black"/>
<path fill-rule="evenodd" clip-rule="evenodd" d="M7.75768 7.75804C7.89832 7.61744 8.08905 7.53845 8.28793 7.53845C8.4868 7.53845 8.67753 7.61744 8.81818 7.75804L14.9622 13.902V9.75004C14.9622 9.55113 15.0412 9.36036 15.1818 9.21971C15.3225 9.07906 15.5133 9.00004 15.7122 9.00004C15.9111 9.00004 16.1019 9.07906 16.2425 9.21971C16.3832 9.36036 16.4622 9.55113 16.4622 9.75004V15.7125C16.4622 15.9115 16.3832 16.1022 16.2425 16.2429C16.1019 16.3835 15.9111 16.4625 15.7122 16.4625H9.74968C9.55076 16.4625 9.36 16.3835 9.21935 16.2429C9.07869 16.1022 8.99968 15.9115 8.99968 15.7125C8.99968 15.5136 9.07869 15.3229 9.21935 15.1822C9.36 15.0416 9.55076 14.9625 9.74968 14.9625H13.9017L7.75768 8.81854C7.61707 8.6779 7.53809 8.48717 7.53809 8.28829C7.53809 8.08942 7.61707 7.89869 7.75768 7.75804Z" fill="black"/>
</g>
<defs>
<clipPath id="clip0_1315_77">
<rect width="24" height="24" fill="white"/>
</clipPath>
</defs>
</svg>
