<svg width="24" height="24" viewBox="0 0 24 24" fill="none" xmlns="http://www.w3.org/2000/svg">
<path fill-rule="evenodd" clip-rule="evenodd" d="M24 12C24 15.1826 22.7357 18.2348 20.4853 20.4853C18.2348 22.7357 15.1826 24 12 24C8.8174 24 5.76516 22.7357 3.51472 20.4853C1.26428 18.2348 0 15.1826 0 12C0 8.8174 1.26428 5.76516 3.51472 3.51472C5.76516 1.26428 8.8174 0 12 0C15.1826 0 18.2348 1.26428 20.4853 3.51472C22.7357 5.76516 24 8.8174 24 12ZM8.8185 16.242C8.74932 16.3136 8.66656 16.3708 8.57505 16.4101C8.48355 16.4494 8.38514 16.4701 8.28555 16.4709C8.18597 16.4718 8.08721 16.4528 7.99503 16.4151C7.90286 16.3774 7.81912 16.3217 7.7487 16.2513C7.67828 16.1809 7.62259 16.0971 7.58488 16.005C7.54717 15.9128 7.5282 15.814 7.52906 15.7144C7.52993 15.6149 7.55062 15.5164 7.58992 15.4249C7.62923 15.3334 7.68637 15.2507 7.758 15.1815L13.902 9.0375H9.75C9.55109 9.0375 9.36032 8.95848 9.21967 8.81783C9.07902 8.67718 9 8.48641 9 8.2875C9 8.08859 9.07902 7.89782 9.21967 7.75717C9.36032 7.61652 9.55109 7.5375 9.75 7.5375H15.7125C15.9114 7.5375 16.1022 7.61652 16.2428 7.75717C16.3835 7.89782 16.4625 8.08859 16.4625 8.2875V14.25C16.4625 14.4489 16.3835 14.6397 16.2428 14.7803C16.1022 14.921 15.9114 15 15.7125 15C15.5136 15 15.3228 14.921 15.1822 14.7803C15.0415 14.6397 14.9625 14.4489 14.9625 14.25V10.098L8.8185 16.242Z" fill="black"/>
</svg>
