<svg width="24" height="24" viewBox="0 0 24 24" fill="none" xmlns="http://www.w3.org/2000/svg">
<g clip-path="url(#clip0_1315_31)">
<path fill-rule="evenodd" clip-rule="evenodd" d="M7.28121 22.281C7.21155 22.3508 7.12878 22.4063 7.03767 22.4441C6.94655 22.4819 6.84887 22.5013 6.75021 22.5013C6.65156 22.5013 6.55388 22.4819 6.46276 22.4441C6.37165 22.4063 6.28888 22.3508 6.21921 22.281L0.219215 16.281C0.078385 16.1402 -0.000732427 15.9492 -0.000732422 15.75C-0.000732417 15.5508 0.078385 15.3598 0.219215 15.219C0.360045 15.0782 0.551051 14.9991 0.750215 14.9991C0.949378 14.9991 1.14038 15.0782 1.28121 15.219L6.00021 19.9395V5.25C6.00021 4.25544 6.3953 3.30161 7.09856 2.59835C7.80183 1.89509 8.75565 1.5 9.75021 1.5H21.7502C21.9491 1.5 22.1399 1.57902 22.2805 1.71967C22.4212 1.86032 22.5002 2.05109 22.5002 2.25C22.5002 2.44891 22.4212 2.63968 22.2805 2.78033C22.1399 2.92098 21.9491 3 21.7502 3H9.75021C9.15348 3 8.58118 3.23705 8.15922 3.65901C7.73727 4.08097 7.50021 4.65326 7.50021 5.25V19.9395L12.2192 15.219C12.36 15.0782 12.5511 14.9991 12.7502 14.9991C12.9494 14.9991 13.1404 15.0782 13.2812 15.219C13.422 15.3598 13.5012 15.5508 13.5012 15.75C13.5012 15.9492 13.422 16.1402 13.2812 16.281L7.28121 22.281Z" fill="black"/>
</g>
<defs>
<clipPath id="clip0_1315_31">
<rect width="24" height="24" fill="white"/>
</clipPath>
</defs>
</svg>
