<svg width="24" height="24" viewBox="0 0 24 24" fill="none" xmlns="http://www.w3.org/2000/svg">
<g clip-path="url(#clip0_1315_149)">
<path fill-rule="evenodd" clip-rule="evenodd" d="M12 22.5C14.7848 22.5 17.4555 21.3938 19.4246 19.4246C21.3938 17.4555 22.5 14.7848 22.5 12C22.5 9.21523 21.3938 6.54451 19.4246 4.57538C17.4555 2.60625 14.7848 1.5 12 1.5C9.21523 1.5 6.54451 2.60625 4.57538 4.57538C2.60625 6.54451 1.5 9.21523 1.5 12C1.5 14.7848 2.60625 17.4555 4.57538 19.4246C6.54451 21.3938 9.21523 22.5 12 22.5ZM12 24C15.1826 24 18.2348 22.7357 20.4853 20.4853C22.7357 18.2348 24 15.1826 24 12C24 8.8174 22.7357 5.76516 20.4853 3.51472C18.2348 1.26428 15.1826 0 12 0C8.8174 0 5.76516 1.26428 3.51472 3.51472C1.26428 5.76516 0 8.8174 0 12C0 15.1826 1.26428 18.2348 3.51472 20.4853C5.76516 22.7357 8.8174 24 12 24Z" fill="black"/>
<path fill-rule="evenodd" clip-rule="evenodd" d="M7.75768 16.2419C7.89832 16.3825 8.08905 16.4614 8.28793 16.4614C8.4868 16.4614 8.67753 16.3825 8.81818 16.2419L14.9622 10.0979V14.2499C14.9622 14.4488 15.0412 14.6395 15.1818 14.7802C15.3225 14.9208 15.5133 14.9999 15.7122 14.9999C15.9111 14.9999 16.1019 14.9208 16.2425 14.7802C16.3832 14.6395 16.4622 14.4488 16.4622 14.2499V8.28735C16.4622 8.08844 16.3832 7.89768 16.2425 7.75702C16.1019 7.61637 15.9111 7.53735 15.7122 7.53735H9.74968C9.55076 7.53735 9.36 7.61637 9.21935 7.75702C9.07869 7.89768 8.99968 8.08844 8.99968 8.28735C8.99968 8.48627 9.07869 8.67703 9.21935 8.81768C9.36 8.95834 9.55076 9.03735 9.74968 9.03735H13.9017L7.75768 15.1814C7.61707 15.322 7.53809 15.5127 7.53809 15.7116C7.53809 15.9105 7.61707 16.1012 7.75768 16.2419Z" fill="black"/>
</g>
<defs>
<clipPath id="clip0_1315_149">
<rect width="24" height="24" fill="white"/>
</clipPath>
</defs>
</svg>
