<svg width="24" height="24" viewBox="0 0 24 24" fill="none" xmlns="http://www.w3.org/2000/svg">
<path fill-rule="evenodd" clip-rule="evenodd" d="M12.0002 1.5C12.1991 1.5 12.3899 1.57902 12.5305 1.71967C12.6712 1.86032 12.7502 2.05109 12.7502 2.25V19.9395L17.4692 15.219C17.61 15.0782 17.801 14.9991 18.0002 14.9991C18.1994 14.9991 18.3904 15.0782 18.5312 15.219C18.672 15.3598 18.7512 15.5508 18.7512 15.75C18.7512 15.9492 18.672 16.1402 18.5312 16.281L12.5312 22.281C12.4615 22.3508 12.3788 22.4063 12.2877 22.4441C12.1965 22.4819 12.0989 22.5013 12.0002 22.5013C11.9016 22.5013 11.8039 22.4819 11.7128 22.4441C11.6216 22.4063 11.5389 22.3508 11.4692 22.281L5.46921 16.281C5.32838 16.1402 5.24926 15.9492 5.24926 15.75C5.24926 15.5508 5.32838 15.3598 5.46921 15.219C5.61004 15.0782 5.80104 14.9991 6.00021 14.9991C6.19937 14.9991 6.39038 15.0782 6.53121 15.219L11.2502 19.9395V2.25C11.2502 2.05109 11.3292 1.86032 11.4699 1.71967C11.6105 1.57902 11.8013 1.5 12.0002 1.5Z" fill="black"/>
</svg>
