<svg width="24" height="24" viewBox="0 0 24 24" fill="none" xmlns="http://www.w3.org/2000/svg">
<g clip-path="url(#clip0_1315_163)">
<path fill-rule="evenodd" clip-rule="evenodd" d="M21 1.5H3C2.60218 1.5 2.22064 1.65804 1.93934 1.93934C1.65804 2.22064 1.5 2.60218 1.5 3V21C1.5 21.3978 1.65804 21.7794 1.93934 22.0607C2.22064 22.342 2.60218 22.5 3 22.5H21C21.3978 22.5 21.7794 22.342 22.0607 22.0607C22.342 21.7794 22.5 21.3978 22.5 21V3C22.5 2.60218 22.342 2.22064 22.0607 1.93934C21.7794 1.65804 21.3978 1.5 21 1.5ZM3 0C2.20435 0 1.44129 0.316071 0.87868 0.87868C0.316071 1.44129 0 2.20435 0 3L0 21C0 21.7956 0.316071 22.5587 0.87868 23.1213C1.44129 23.6839 2.20435 24 3 24H21C21.7956 24 22.5587 23.6839 23.1213 23.1213C23.6839 22.5587 24 21.7956 24 21V3C24 2.20435 23.6839 1.44129 23.1213 0.87868C22.5587 0.316071 21.7956 0 21 0L3 0Z" fill="black"/>
<path fill-rule="evenodd" clip-rule="evenodd" d="M12.0002 17.9999C12.1991 17.9999 12.3899 17.9209 12.5305 17.7802C12.6712 17.6396 12.7502 17.4488 12.7502 17.2499V8.56038L15.9692 11.7809C16.0389 11.8506 16.1217 11.9059 16.2128 11.9437C16.3039 11.9814 16.4016 12.0008 16.5002 12.0008C16.5988 12.0008 16.6965 11.9814 16.7876 11.9437C16.8787 11.9059 16.9615 11.8506 17.0312 11.7809C17.1009 11.7112 17.1563 11.6284 17.194 11.5373C17.2317 11.4461 17.2512 11.3485 17.2512 11.2499C17.2512 11.1513 17.2317 11.0536 17.194 10.9625C17.1563 10.8714 17.1009 10.7886 17.0312 10.7189L12.5312 6.21888C12.4615 6.14904 12.3788 6.09362 12.2877 6.05581C12.1965 6.018 12.0989 5.99854 12.0002 5.99854C11.9016 5.99854 11.8039 6.018 11.7128 6.05581C11.6216 6.09362 11.5389 6.14904 11.4692 6.21888L6.96922 10.7189C6.82839 10.8597 6.74927 11.0507 6.74927 11.2499C6.74927 11.449 6.82839 11.6401 6.96922 11.7809C7.11005 11.9217 7.30105 12.0008 7.50022 12.0008C7.69938 12.0008 7.89039 11.9217 8.03122 11.7809L11.2502 8.56038V17.2499C11.2502 17.4488 11.3292 17.6396 11.4699 17.7802C11.6105 17.9209 11.8013 17.9999 12.0002 17.9999Z" fill="black"/>
</g>
<defs>
<clipPath id="clip0_1315_163">
<rect width="24" height="24" fill="white"/>
</clipPath>
</defs>
</svg>
