<svg width="24" height="24" viewBox="0 0 24 24" fill="none" xmlns="http://www.w3.org/2000/svg">
<g clip-path="url(#clip0_1315_125)">
<path fill-rule="evenodd" clip-rule="evenodd" d="M21 1.5H3C2.60218 1.5 2.22064 1.65804 1.93934 1.93934C1.65804 2.22064 1.5 2.60218 1.5 3V21C1.5 21.3978 1.65804 21.7794 1.93934 22.0607C2.22064 22.342 2.60218 22.5 3 22.5H21C21.3978 22.5 21.7794 22.342 22.0607 22.0607C22.342 21.7794 22.5 21.3978 22.5 21V3C22.5 2.60218 22.342 2.22064 22.0607 1.93934C21.7794 1.65804 21.3978 1.5 21 1.5ZM3 0C2.20435 0 1.44129 0.316071 0.87868 0.87868C0.316071 1.44129 0 2.20435 0 3L0 21C0 21.7956 0.316071 22.5587 0.87868 23.1213C1.44129 23.6839 2.20435 24 3 24H21C21.7956 24 22.5587 23.6839 23.1213 23.1213C23.6839 22.5587 24 21.7956 24 21V3C24 2.20435 23.6839 1.44129 23.1213 0.87868C22.5587 0.316071 21.7956 0 21 0L3 0Z" fill="black"/>
<path fill-rule="evenodd" clip-rule="evenodd" d="M6 12.0002C6 12.1991 6.07902 12.3899 6.21967 12.5305C6.36032 12.6712 6.55109 12.7502 6.75 12.7502H15.4395L12.219 15.9692C12.1493 16.0389 12.094 16.1217 12.0562 16.2128C12.0185 16.3039 11.9991 16.4016 11.9991 16.5002C11.9991 16.5988 12.0185 16.6965 12.0562 16.7876C12.094 16.8787 12.1493 16.9615 12.219 17.0312C12.2887 17.1009 12.3715 17.1562 12.4626 17.194C12.5537 17.2317 12.6514 17.2511 12.75 17.2511C12.8486 17.2511 12.9463 17.2317 13.0374 17.194C13.1285 17.1562 13.2113 17.1009 13.281 17.0312L17.781 12.5312C17.8508 12.4615 17.9063 12.3788 17.9441 12.2876C17.9819 12.1965 18.0013 12.0989 18.0013 12.0002C18.0013 11.9015 17.9819 11.8039 17.9441 11.7127C17.9063 11.6216 17.8508 11.5389 17.781 11.4692L13.281 6.9692C13.2113 6.89947 13.1285 6.84415 13.0374 6.80641C12.9463 6.76868 12.8486 6.74925 12.75 6.74925C12.6514 6.74925 12.5537 6.76868 12.4626 6.80641C12.3715 6.84415 12.2887 6.89947 12.219 6.9692C12.1493 7.03893 12.094 7.12172 12.0562 7.21282C12.0185 7.30393 11.9991 7.40158 11.9991 7.5002C11.9991 7.59882 12.0185 7.69647 12.0562 7.78758C12.094 7.87868 12.1493 7.96147 12.219 8.0312L15.4395 11.2502H6.75C6.55109 11.2502 6.36032 11.3292 6.21967 11.4699C6.07902 11.6105 6 11.8013 6 12.0002Z" fill="black"/>
</g>
<defs>
<clipPath id="clip0_1315_125">
<rect width="24" height="24" fill="white"/>
</clipPath>
</defs>
</svg>
