<svg width="24" height="24" viewBox="0 0 24 24" fill="none" xmlns="http://www.w3.org/2000/svg">
<g clip-path="url(#clip0_1315_98)">
<path fill-rule="evenodd" clip-rule="evenodd" d="M1.49988 17.2502C1.49988 17.4491 1.57889 17.6399 1.71955 17.7805C1.8602 17.9212 2.05096 18.0002 2.24988 18.0002H19.9394L15.2189 22.7192C15.078 22.86 14.9989 23.051 14.9989 23.2502C14.9989 23.4494 15.078 23.6404 15.2189 23.7812C15.3597 23.922 15.5507 24.0011 15.7499 24.0011C15.949 24.0011 16.14 23.922 16.2809 23.7812L22.2809 17.7812C22.3507 17.7115 22.4061 17.6288 22.4439 17.5376C22.4818 17.4465 22.5012 17.3489 22.5012 17.2502C22.5012 17.1515 22.4818 17.0539 22.4439 16.9627C22.4061 16.8716 22.3507 16.7889 22.2809 16.7192L16.2809 10.7192C16.14 10.5784 15.949 10.4993 15.7499 10.4993C15.5507 10.4993 15.3597 10.5784 15.2189 10.7192C15.078 10.86 14.9989 11.051 14.9989 11.2502C14.9989 11.4494 15.078 11.6404 15.2189 11.7812L19.9394 16.5002H2.24988C2.05096 16.5002 1.8602 16.5792 1.71955 16.7199C1.57889 16.8605 1.49988 17.0513 1.49988 17.2502ZM22.4999 6.7502C22.4999 6.94911 22.4209 7.13988 22.2802 7.28053C22.1396 7.42118 21.9488 7.5002 21.7499 7.5002H4.06038L8.78088 12.2192C8.85061 12.2889 8.90592 12.3717 8.94366 12.4628C8.9814 12.5539 9.00082 12.6516 9.00082 12.7502C9.00082 12.8488 8.9814 12.9465 8.94366 13.0376C8.90592 13.1287 8.85061 13.2115 8.78088 13.2812C8.71114 13.3509 8.62836 13.4062 8.53725 13.444C8.44614 13.4817 8.34849 13.5011 8.24988 13.5011C8.15126 13.5011 8.05361 13.4817 7.9625 13.444C7.87139 13.4062 7.78861 13.3509 7.71888 13.2812L1.71888 7.2812C1.64903 7.21153 1.59362 7.12877 1.55581 7.03765C1.518 6.94653 1.49854 6.84885 1.49854 6.7502C1.49854 6.65155 1.518 6.55387 1.55581 6.46275C1.59362 6.37163 1.64903 6.28887 1.71888 6.2192L7.71888 0.2192C7.85971 0.0783698 8.05071 -0.000747681 8.24988 -0.000747681C8.44904 -0.000747681 8.64005 0.0783698 8.78088 0.2192C8.92171 0.36003 9.00082 0.551036 9.00082 0.7502C9.00082 0.949363 8.92171 1.14037 8.78088 1.2812L4.06038 6.0002H21.7499C21.9488 6.0002 22.1396 6.07922 22.2802 6.21987C22.4209 6.36052 22.4999 6.55129 22.4999 6.7502Z" fill="black"/>
</g>
<defs>
<clipPath id="clip0_1315_98">
<rect width="24" height="24" fill="white"/>
</clipPath>
</defs>
</svg>
