<svg width="24" height="24" viewBox="0 0 24 24" fill="none" xmlns="http://www.w3.org/2000/svg">
<g clip-path="url(#clip0_1315_142)">
<path fill-rule="evenodd" clip-rule="evenodd" d="M21 1.5H3C2.60218 1.5 2.22064 1.65804 1.93934 1.93934C1.65804 2.22064 1.5 2.60218 1.5 3V21C1.5 21.3978 1.65804 21.7794 1.93934 22.0607C2.22064 22.342 2.60218 22.5 3 22.5H21C21.3978 22.5 21.7794 22.342 22.0607 22.0607C22.342 21.7794 22.5 21.3978 22.5 21V3C22.5 2.60218 22.342 2.22064 22.0607 1.93934C21.7794 1.65804 21.3978 1.5 21 1.5ZM3 0C2.20435 0 1.44129 0.316071 0.87868 0.87868C0.316071 1.44129 0 2.20435 0 3L0 21C0 21.7956 0.316071 22.5587 0.87868 23.1213C1.44129 23.6839 2.20435 24 3 24H21C21.7956 24 22.5587 23.6839 23.1213 23.1213C23.6839 22.5587 24 21.7956 24 21V3C24 2.20435 23.6839 1.44129 23.1213 0.87868C22.5587 0.316071 21.7956 0 21 0L3 0Z" fill="black"/>
<path fill-rule="evenodd" clip-rule="evenodd" d="M16.2419 16.2419C16.1012 16.3825 15.9105 16.4614 15.7116 16.4614C15.5127 16.4614 15.322 16.3825 15.1814 16.2419L9.03735 10.0979V14.2499C9.03735 14.4488 8.95834 14.6395 8.81768 14.7802C8.67703 14.9208 8.48627 14.9999 8.28735 14.9999C8.08844 14.9999 7.89768 14.9208 7.75702 14.7802C7.61637 14.6395 7.53735 14.4488 7.53735 14.2499V8.28735C7.53735 8.08844 7.61637 7.89768 7.75702 7.75702C7.89768 7.61637 8.08844 7.53735 8.28735 7.53735H14.2499C14.4488 7.53735 14.6395 7.61637 14.7802 7.75702C14.9208 7.89768 14.9999 8.08844 14.9999 8.28735C14.9999 8.48627 14.9208 8.67703 14.7802 8.81768C14.6395 8.95834 14.4488 9.03735 14.2499 9.03735H10.0979L16.2419 15.1814C16.3825 15.322 16.4614 15.5127 16.4614 15.7116C16.4614 15.9105 16.3825 16.1012 16.2419 16.2419Z" fill="black"/>
</g>
<defs>
<clipPath id="clip0_1315_142">
<rect width="24" height="24" fill="white"/>
</clipPath>
</defs>
</svg>
