<svg width="24" height="24" viewBox="0 0 24 24" fill="none" xmlns="http://www.w3.org/2000/svg">
<path fill-rule="evenodd" clip-rule="evenodd" d="M12 14.9999C12.1989 14.9999 12.3897 14.9209 12.5303 14.7802C12.671 14.6396 12.75 14.4488 12.75 14.2499V5.56038L15.969 8.78088C16.0387 8.85061 16.1215 8.90592 16.2126 8.94366C16.3037 8.9814 16.4014 9.00082 16.5 9.00082C16.5986 9.00082 16.6963 8.9814 16.7874 8.94366C16.8785 8.90592 16.9613 8.85061 17.031 8.78088C17.1007 8.71114 17.156 8.62836 17.1938 8.53725C17.2315 8.44614 17.2509 8.34849 17.2509 8.24988C17.2509 8.15126 17.2315 8.05361 17.1938 7.9625C17.156 7.87139 17.1007 7.78861 17.031 7.71888L12.531 3.21888C12.4613 3.14903 12.3786 3.09362 12.2874 3.05581C12.1963 3.018 12.0987 2.99854 12 2.99854C11.9013 2.99854 11.8037 3.018 11.7125 3.05581C11.6214 3.09362 11.5387 3.14903 11.469 3.21888L6.969 7.71888C6.82817 7.85971 6.74905 8.05071 6.74905 8.24988C6.74905 8.44904 6.82817 8.64005 6.969 8.78088C7.10983 8.92171 7.30084 9.00082 7.5 9.00082C7.69916 9.00082 7.89017 8.92171 8.031 8.78088L11.25 5.56038V14.2499C11.25 14.4488 11.329 14.6396 11.4697 14.7802C11.6103 14.9209 11.8011 14.9999 12 14.9999ZM1.5 18.7499C1.5 18.551 1.57902 18.3602 1.71967 18.2195C1.86032 18.0789 2.05109 17.9999 2.25 17.9999H21.75C21.9489 17.9999 22.1397 18.0789 22.2803 18.2195C22.421 18.3602 22.5 18.551 22.5 18.7499C22.5 18.9488 22.421 19.1396 22.2803 19.2802C22.1397 19.4209 21.9489 19.4999 21.75 19.4999H2.25C2.05109 19.4999 1.86032 19.4209 1.71967 19.2802C1.57902 19.1396 1.5 18.9488 1.5 18.7499Z" fill="black"/>
</svg>
