<svg width="24" height="24" viewBox="0 0 24 24" fill="none" xmlns="http://www.w3.org/2000/svg">
<path fill-rule="evenodd" clip-rule="evenodd" d="M21.0002 20.2498C21.0002 20.4488 20.9212 20.6395 20.7805 20.7802C20.6399 20.9208 20.4491 20.9998 20.2502 20.9998H11.2502C11.0513 20.9998 10.8605 20.9208 10.7199 20.7802C10.5792 20.6395 10.5002 20.4488 10.5002 20.2498C10.5002 20.0509 10.5792 19.8602 10.7199 19.7195C10.8605 19.5789 11.0513 19.4998 11.2502 19.4998H18.4397L3.21921 4.28085C3.14948 4.21112 3.09417 4.12833 3.05643 4.03722C3.01869 3.94611 2.99927 3.84846 2.99927 3.74985C2.99927 3.65123 3.01869 3.55358 3.05643 3.46247C3.09417 3.37136 3.14948 3.28858 3.21921 3.21885C3.28895 3.14912 3.37173 3.0938 3.46284 3.05606C3.55395 3.01833 3.6516 2.9989 3.75021 2.9989C3.84883 2.9989 3.94648 3.01833 4.03759 3.05606C4.1287 3.0938 4.21148 3.14912 4.28121 3.21885L19.5002 18.4393V11.2498C19.5002 11.0509 19.5792 10.8602 19.7199 10.7195C19.8605 10.5789 20.0513 10.4998 20.2502 10.4998C20.4491 10.4998 20.6399 10.5789 20.7805 10.7195C20.9212 10.8602 21.0002 11.0509 21.0002 11.2498V20.2498Z" fill="black"/>
</svg>
