<svg width="24" height="24" viewBox="0 0 24 24" fill="none" xmlns="http://www.w3.org/2000/svg">
<path fill-rule="evenodd" clip-rule="evenodd" d="M6 12.0002C6 11.8013 6.07902 11.6105 6.21967 11.4699C6.36032 11.3292 6.55109 11.2502 6.75 11.2502H15.4395L12.219 8.0312C12.0782 7.89037 11.9991 7.69936 11.9991 7.5002C11.9991 7.30104 12.0782 7.11003 12.219 6.9692C12.3598 6.82837 12.5508 6.74925 12.75 6.74925C12.9492 6.74925 13.1402 6.82837 13.281 6.9692L17.781 11.4692C17.8508 11.5389 17.9063 11.6216 17.9441 11.7127C17.9819 11.8039 18.0013 11.9015 18.0013 12.0002C18.0013 12.0989 17.9819 12.1965 17.9441 12.2876C17.9063 12.3788 17.8508 12.4615 17.781 12.5312L13.281 17.0312C13.1402 17.172 12.9492 17.2511 12.75 17.2511C12.5508 17.2511 12.3598 17.172 12.219 17.0312C12.0782 16.8904 11.9991 16.6994 11.9991 16.5002C11.9991 16.301 12.0782 16.11 12.219 15.9692L15.4395 12.7502H6.75C6.55109 12.7502 6.36032 12.6712 6.21967 12.5305C6.07902 12.3899 6 12.1991 6 12.0002Z" fill="#fff"/>
</svg>
