<svg width="24" height="24" viewBox="0 0 24 24" fill="none" xmlns="http://www.w3.org/2000/svg">
<path fill-rule="evenodd" clip-rule="evenodd" d="M8.74185 15.2579C8.60121 15.1173 8.41048 15.0383 8.2116 15.0383C8.01273 15.0383 7.822 15.1173 7.68135 15.2579L1.53735 21.4019V17.2499C1.53735 17.0509 1.45834 16.8602 1.31768 16.7195C1.17703 16.5789 0.986266 16.4999 0.787353 16.4999C0.588441 16.4999 0.397676 16.5789 0.257023 16.7195C0.116371 16.8602 0.0373535 17.0509 0.0373535 17.2499V23.2124C0.0373535 23.4113 0.116371 23.602 0.257023 23.7427C0.397676 23.8833 0.588441 23.9624 0.787353 23.9624H6.74985C6.94877 23.9624 7.13953 23.8833 7.28018 23.7427C7.42084 23.602 7.49985 23.4113 7.49985 23.2124C7.49985 23.0135 7.42084 22.8227 7.28018 22.682C7.13953 22.5414 6.94877 22.4624 6.74985 22.4624H2.59785L8.74185 16.3184C8.88246 16.1777 8.96144 15.987 8.96144 15.7881C8.96144 15.5892 8.88246 15.3985 8.74185 15.2579ZM15.2579 15.2579C15.3985 15.1173 15.5892 15.0383 15.7881 15.0383C15.987 15.0383 16.1777 15.1173 16.3184 15.2579L22.4624 21.4019V17.2499C22.4624 17.0509 22.5414 16.8602 22.682 16.7195C22.8227 16.5789 23.0134 16.4999 23.2124 16.4999C23.4113 16.4999 23.602 16.5789 23.7427 16.7195C23.8833 16.8602 23.9624 17.0509 23.9624 17.2499V23.2124C23.9624 23.4113 23.8833 23.602 23.7427 23.7427C23.602 23.8833 23.4113 23.9624 23.2124 23.9624H17.2499C17.0509 23.9624 16.8602 23.8833 16.7195 23.7427C16.5789 23.602 16.4999 23.4113 16.4999 23.2124C16.4999 23.0135 16.5789 22.8227 16.7195 22.682C16.8602 22.5414 17.0509 22.4624 17.2499 22.4624H21.4019L15.2579 16.3184C15.1173 16.1777 15.0383 15.987 15.0383 15.7881C15.0383 15.5892 15.1173 15.3985 15.2579 15.2579ZM15.2579 8.74186C15.3985 8.88246 15.5892 8.96145 15.7881 8.96145C15.987 8.96145 16.1777 8.88246 16.3184 8.74186L22.4624 2.59786V6.74986C22.4624 6.94877 22.5414 7.13954 22.682 7.28019C22.8227 7.42084 23.0134 7.49986 23.2124 7.49986C23.4113 7.49986 23.602 7.42084 23.7427 7.28019C23.8833 7.13954 23.9624 6.94877 23.9624 6.74986V0.787361C23.9624 0.588449 23.8833 0.397683 23.7427 0.257031C23.602 0.116379 23.4113 0.0373611 23.2124 0.0373611H17.2499C17.0509 0.0373611 16.8602 0.116379 16.7195 0.257031C16.5789 0.397683 16.4999 0.588449 16.4999 0.787361C16.4999 0.986273 16.5789 1.17704 16.7195 1.31769C16.8602 1.45834 17.0509 1.53736 17.2499 1.53736H21.4019L15.2579 7.68136C15.1173 7.82201 15.0383 8.01274 15.0383 8.21161C15.0383 8.41048 15.1173 8.60122 15.2579 8.74186ZM8.74185 8.74186C8.60121 8.88246 8.41048 8.96145 8.2116 8.96145C8.01273 8.96145 7.822 8.88246 7.68135 8.74186L1.53735 2.59786V6.74986C1.53735 6.94877 1.45834 7.13954 1.31768 7.28019C1.17703 7.42084 0.986266 7.49986 0.787353 7.49986C0.588441 7.49986 0.397676 7.42084 0.257023 7.28019C0.116371 7.13954 0.0373535 6.94877 0.0373535 6.74986V0.787361C0.0373535 0.588449 0.116371 0.397683 0.257023 0.257031C0.397676 0.116379 0.588441 0.0373611 0.787353 0.0373611H6.74985C6.94877 0.0373611 7.13953 0.116379 7.28018 0.257031C7.42084 0.397683 7.49985 0.588449 7.49985 0.787361C7.49985 0.986273 7.42084 1.17704 7.28018 1.31769C7.13953 1.45834 6.94877 1.53736 6.74985 1.53736H2.59785L8.74185 7.68136C8.88246 7.82201 8.96144 8.01274 8.96144 8.21161C8.96144 8.41048 8.88246 8.60122 8.74185 8.74186Z" fill="black"/>
</svg>
