<svg width="24" height="24" viewBox="0 0 24 24" fill="none" xmlns="http://www.w3.org/2000/svg">
<path fill-rule="evenodd" clip-rule="evenodd" d="M11.9998 0C12.3976 0 12.7792 0.158035 13.0605 0.43934C13.3418 0.720644 13.4998 1.10218 13.4998 1.5V9.402L20.3428 5.451C20.5135 5.35095 20.7022 5.28565 20.8982 5.25885C21.0942 5.23205 21.2936 5.24429 21.4848 5.29485C21.6761 5.34541 21.8554 5.43331 22.0126 5.55347C22.1697 5.67363 22.3015 5.82369 22.4005 5.99501C22.4994 6.16632 22.5634 6.35551 22.5889 6.55168C22.6144 6.74785 22.6009 6.94713 22.549 7.13804C22.4972 7.32895 22.4081 7.50772 22.2869 7.66406C22.1657 7.8204 22.0148 7.95123 21.8428 8.049L14.9998 12L21.8428 15.951C22.0148 16.0488 22.1657 16.1796 22.2869 16.3359C22.4081 16.4923 22.4972 16.6711 22.549 16.862C22.6009 17.0529 22.6144 17.2521 22.5889 17.4483C22.5634 17.6445 22.4994 17.8337 22.4005 18.005C22.3015 18.1763 22.1697 18.3264 22.0126 18.4465C21.8554 18.5667 21.6761 18.6546 21.4848 18.7051C21.2936 18.7557 21.0942 18.7679 20.8982 18.7411C20.7022 18.7143 20.5135 18.649 20.3428 18.549L13.4998 14.598V22.5C13.4998 22.8978 13.3418 23.2794 13.0605 23.5607C12.7792 23.842 12.3976 24 11.9998 24C11.602 24 11.2205 23.842 10.9391 23.5607C10.6578 23.2794 10.4998 22.8978 10.4998 22.5V14.598L3.65681 18.549C3.48615 18.649 3.29739 18.7143 3.1014 18.7411C2.9054 18.7679 2.70604 18.7557 2.51479 18.7051C2.32354 18.6546 2.14418 18.5667 1.98704 18.4465C1.8299 18.3264 1.69808 18.1763 1.59916 18.005C1.50025 17.8337 1.4362 17.6445 1.41071 17.4483C1.38521 17.2521 1.39876 17.0529 1.4506 16.862C1.50243 16.6711 1.59151 16.4923 1.71271 16.3359C1.83391 16.1796 1.98484 16.0488 2.15681 15.951L8.99981 12L2.15681 8.049C1.8151 7.84867 1.5665 7.52132 1.46525 7.13838C1.36401 6.75543 1.41834 6.34799 1.6164 6.00496C1.81445 5.66193 2.14015 5.41116 2.52241 5.30738C2.90468 5.20359 3.31247 5.25523 3.65681 5.451L10.4998 9.402V1.5C10.4998 1.10218 10.6578 0.720644 10.9391 0.43934C11.2205 0.158035 11.602 0 11.9998 0V0Z" fill="black"/>
</svg>
