<svg width="24" height="24" viewBox="0 0 24 24" fill="none" xmlns="http://www.w3.org/2000/svg">
<path d="M11.9999 0L14.5034 1.296L17.2904 1.719L18.5534 4.239L20.5589 6.219L20.0999 9L20.5589 11.781L18.5534 13.761L17.2904 16.281L14.5034 16.704L11.9999 18L9.49642 16.704L6.70942 16.281L5.44642 13.761L3.44092 11.781L3.89992 9L3.44092 6.219L5.44642 4.239L6.70942 1.719L9.49642 1.296L11.9999 0Z" fill="black"/>
<path d="M6 17.6909V23.9999L12 22.4999L18 23.9999V17.6909L14.973 18.1499L12 19.6889L9.027 18.1499L6 17.6909Z" fill="black"/>
</svg>
