<svg width="24" height="24" viewBox="0 0 24 24" fill="none" xmlns="http://www.w3.org/2000/svg">
<path fill-rule="evenodd" clip-rule="evenodd" d="M23.5244 4.5C23.5244 3.70435 23.2083 2.94129 22.6457 2.37868C22.0831 1.81607 21.32 1.5 20.5244 1.5H9.90438C9.47155 1.49982 9.0438 1.5933 8.6505 1.77402C8.2572 1.95475 7.90766 2.21844 7.62588 2.547L0.361383 11.025C0.12819 11.2969 0 11.6433 0 12.0015C0 12.3597 0.12819 12.7061 0.361383 12.978L7.62588 21.453C7.90766 21.7816 8.2572 22.0452 8.6505 22.226C9.0438 22.4067 9.47155 22.5002 9.90438 22.5H20.5244C21.32 22.5 22.0831 22.1839 22.6457 21.6213C23.2083 21.0587 23.5244 20.2956 23.5244 19.5V4.5ZM8.74338 8.781C8.67365 8.71137 8.61832 8.62868 8.58054 8.53766C8.54276 8.44664 8.52329 8.34908 8.52322 8.25053C8.52315 8.15198 8.54249 8.05439 8.58014 7.96332C8.61778 7.87225 8.673 7.78948 8.74263 7.71975C8.81227 7.65002 8.89495 7.59468 8.98597 7.55691C9.07699 7.51913 9.17456 7.49965 9.2731 7.49958C9.37165 7.49951 9.46924 7.51885 9.56032 7.5565C9.65139 7.59415 9.73415 7.64937 9.80388 7.719L13.0244 10.9395L16.2434 7.719C16.3131 7.64937 16.3959 7.59415 16.4869 7.5565C16.578 7.51885 16.6756 7.49951 16.7742 7.49958C16.8727 7.49965 16.9703 7.51913 17.0613 7.55691C17.1523 7.59468 17.235 7.65002 17.3046 7.71975C17.3743 7.78948 17.4295 7.87225 17.4671 7.96332C17.5048 8.05439 17.5241 8.15198 17.524 8.25053C17.524 8.34908 17.5045 8.44664 17.4667 8.53766C17.4289 8.62868 17.3736 8.71137 17.3039 8.781L14.0849 12L17.3039 15.219C17.4447 15.3596 17.5239 15.5504 17.524 15.7495C17.5242 15.9485 17.4453 16.1394 17.3046 16.2803C17.164 16.4211 16.9732 16.5003 16.7742 16.5004C16.5751 16.5006 16.3842 16.4216 16.2434 16.281L13.0244 13.0605L9.80388 16.281C9.73415 16.3506 9.65139 16.4059 9.56032 16.4435C9.46924 16.4811 9.37165 16.5005 9.2731 16.5004C9.17456 16.5003 9.07699 16.4809 8.98597 16.4431C8.89495 16.4053 8.81227 16.35 8.74263 16.2803C8.673 16.2105 8.61778 16.1278 8.58014 16.0367C8.54249 15.9456 8.52315 15.848 8.52322 15.7495C8.52336 15.5504 8.60255 15.3596 8.74338 15.219L11.9639 12L8.74338 8.781Z" fill="black"/>
</svg>
