<svg width="24" height="24" viewBox="0 0 24 24" fill="none" xmlns="http://www.w3.org/2000/svg">
<g clip-path="url(#clip0_1315_201)">
<path fill-rule="evenodd" clip-rule="evenodd" d="M13.62 3H3C2.60218 3 2.22064 3.15804 1.93934 3.43934C1.65804 3.72064 1.5 4.10218 1.5 4.5V19.5C1.5 19.8978 1.65804 20.2794 1.93934 20.5607C2.22064 20.842 2.60218 21 3 21H13.62C13.8367 21 14.0508 20.9531 14.2475 20.8625C14.4443 20.7718 14.6192 20.6396 14.76 20.475L22.023 12L14.7585 3.525C14.6178 3.36054 14.4432 3.22847 14.2467 3.13785C14.0502 3.04723 13.8364 3.0002 13.62 3ZM3 1.5C2.20435 1.5 1.44129 1.81607 0.87868 2.37868C0.316071 2.94129 0 3.70435 0 4.5L0 19.5C0 20.2956 0.316071 21.0587 0.87868 21.6213C1.44129 22.1839 2.20435 22.5 3 22.5H13.62C14.0528 22.5002 14.4806 22.4067 14.8739 22.226C15.2672 22.0452 15.6167 21.7816 15.8985 21.453L23.163 12.9765C23.3962 12.7046 23.5244 12.3582 23.5244 12C23.5244 11.6418 23.3962 11.2954 23.163 11.0235L15.9 2.55C15.6183 2.2207 15.2687 1.95633 14.8751 1.77507C14.4815 1.59381 14.0533 1.49997 13.62 1.5H3ZM14.781 7.719C14.8508 7.78867 14.9063 7.87143 14.9441 7.96255C14.9819 8.05367 15.0013 8.15135 15.0013 8.25C15.0013 8.34865 14.9819 8.44633 14.9441 8.53745C14.9063 8.62857 14.8508 8.71133 14.781 8.781L11.5605 12L14.781 15.219C14.9218 15.3598 15.0009 15.5508 15.0009 15.75C15.0009 15.9492 14.9218 16.1402 14.781 16.281C14.6402 16.4218 14.4492 16.5009 14.25 16.5009C14.0508 16.5009 13.8598 16.4218 13.719 16.281L10.5 13.0605L7.281 16.281C7.14017 16.4218 6.94916 16.5009 6.75 16.5009C6.55084 16.5009 6.35983 16.4218 6.219 16.281C6.07817 16.1402 5.99905 15.9492 5.99905 15.75C5.99905 15.5508 6.07817 15.3598 6.219 15.219L9.4395 12L6.219 8.781C6.14927 8.71127 6.09395 8.62848 6.05621 8.53738C6.01848 8.44627 5.99905 8.34862 5.99905 8.25C5.99905 8.15138 6.01848 8.05373 6.05621 7.96262C6.09395 7.87152 6.14927 7.78873 6.219 7.719C6.28873 7.64927 6.37152 7.59395 6.46262 7.55621C6.55373 7.51848 6.65138 7.49905 6.75 7.49905C6.84862 7.49905 6.94627 7.51848 7.03738 7.55621C7.12848 7.59395 7.21127 7.64927 7.281 7.719L10.5 10.9395L13.719 7.719C13.7887 7.64916 13.8714 7.59374 13.9626 7.55593C14.0537 7.51812 14.1513 7.49866 14.25 7.49866C14.3487 7.49866 14.4463 7.51812 14.5374 7.55593C14.6286 7.59374 14.7113 7.64916 14.781 7.719Z" fill="black"/>
</g>
<defs>
<clipPath id="clip0_1315_201">
<rect width="24" height="24" fill="white"/>
</clipPath>
</defs>
</svg>
