<svg width="24" height="24" viewBox="0 0 24 24" fill="none" xmlns="http://www.w3.org/2000/svg">
<path fill-rule="evenodd" clip-rule="evenodd" d="M12 1.5C11.0054 1.5 10.0516 1.89509 9.34835 2.59835C8.64509 3.30161 8.25 4.25544 8.25 5.25V6H15.75V5.25C15.75 4.25544 15.3549 3.30161 14.6517 2.59835C13.9484 1.89509 12.9946 1.5 12 1.5ZM17.25 6V5.25C17.25 3.85761 16.6969 2.52226 15.7123 1.53769C14.7277 0.553123 13.3924 0 12 0C10.6076 0 9.27226 0.553123 8.28769 1.53769C7.30312 2.52226 6.75 3.85761 6.75 5.25V6H1.5V21C1.5 21.7956 1.81607 22.5587 2.37868 23.1213C2.94129 23.6839 3.70435 24 4.5 24H19.5C20.2956 24 21.0587 23.6839 21.6213 23.1213C22.1839 22.5587 22.5 21.7956 22.5 21V6H17.25ZM3 7.5V21C3 21.3978 3.15804 21.7794 3.43934 22.0607C3.72064 22.342 4.10218 22.5 4.5 22.5H19.5C19.8978 22.5 20.2794 22.342 20.5607 22.0607C20.842 21.7794 21 21.3978 21 21V7.5H3Z" fill="black"/>
<path fill-rule="evenodd" clip-rule="evenodd" d="M9.21888 12.2189C9.28854 12.149 9.37131 12.0936 9.46242 12.0558C9.55354 12.018 9.65122 11.9985 9.74988 11.9985C9.84853 11.9985 9.94621 12.018 10.0373 12.0558C10.1284 12.0936 10.2112 12.149 10.2809 12.2189L11.9999 13.9394L13.7189 12.2189C13.8597 12.0781 14.0507 11.9989 14.2499 11.9989C14.449 11.9989 14.64 12.0781 14.7809 12.2189C14.9217 12.3597 15.0008 12.5507 15.0008 12.7499C15.0008 12.949 14.9217 13.1401 14.7809 13.2809L13.0604 14.9999L14.7809 16.7189C14.9217 16.8597 15.0008 17.0507 15.0008 17.2499C15.0008 17.449 14.9217 17.6401 14.7809 17.7809C14.64 17.9217 14.449 18.0008 14.2499 18.0008C14.0507 18.0008 13.8597 17.9217 13.7189 17.7809L11.9999 16.0604L10.2809 17.7809C10.14 17.9217 9.94904 18.0008 9.74988 18.0008C9.55071 18.0008 9.35971 17.9217 9.21888 17.7809C9.07805 17.6401 8.99893 17.449 8.99893 17.2499C8.99893 17.0507 9.07805 16.8597 9.21888 16.7189L10.9394 14.9999L9.21888 13.2809C9.14903 13.2112 9.09362 13.1285 9.05581 13.0373C9.018 12.9462 8.99854 12.8485 8.99854 12.7499C8.99854 12.6512 9.018 12.5536 9.05581 12.4624C9.09362 12.3713 9.14903 12.2886 9.21888 12.2189Z" fill="black"/>
</svg>
