<svg width="24" height="24" viewBox="0 0 24 24" fill="none" xmlns="http://www.w3.org/2000/svg">
<g clip-path="url(#clip0_1315_283)">
<path fill-rule="evenodd" clip-rule="evenodd" d="M7.6065 1.86463C7.70874 1.69396 7.87459 1.5709 8.06757 1.52252C8.26054 1.47413 8.46483 1.50439 8.6355 1.60663C8.80617 1.70887 8.92923 1.87472 8.97761 2.0677C9.026 2.26067 8.99574 2.46496 8.8935 2.63563L5.0745 9.00013H18.9255L15.105 2.63563C15.0028 2.46496 14.9725 2.26067 15.0209 2.0677C15.0693 1.87472 15.1923 1.70887 15.363 1.60663C15.5337 1.50439 15.738 1.47413 15.9309 1.52252C16.1239 1.5709 16.2898 1.69396 16.392 1.86463L20.6745 9.00013H23.25C23.4489 9.00013 23.6397 9.07915 23.7803 9.2198C23.921 9.36045 24 9.55122 24 9.75013V12.7501C24 12.949 23.921 13.1398 23.7803 13.2805C23.6397 13.4211 23.4489 13.5001 23.25 13.5001H22.5V21.0001C22.5 21.7958 22.1839 22.5588 21.6213 23.1214C21.0587 23.6841 20.2956 24.0001 19.5 24.0001H4.5C3.70435 24.0001 2.94129 23.6841 2.37868 23.1214C1.81607 22.5588 1.5 21.7958 1.5 21.0001V13.5001H0.75C0.551088 13.5001 0.360322 13.4211 0.21967 13.2805C0.0790176 13.1398 0 12.949 0 12.7501V9.75013C0 9.55122 0.0790176 9.36045 0.21967 9.2198C0.360322 9.07915 0.551088 9.00013 0.75 9.00013H3.3255L7.605 1.86463H7.6065ZM5.25 15.7501C5.25 15.5512 5.17098 15.3605 5.03033 15.2198C4.88968 15.0791 4.69891 15.0001 4.5 15.0001C4.30109 15.0001 4.11032 15.0791 3.96967 15.2198C3.82902 15.3605 3.75 15.5512 3.75 15.7501V20.2501C3.75 20.449 3.82902 20.6398 3.96967 20.7805C4.11032 20.9211 4.30109 21.0001 4.5 21.0001C4.69891 21.0001 4.88968 20.9211 5.03033 20.7805C5.17098 20.6398 5.25 20.449 5.25 20.2501V15.7501ZM9 15.7501C9 15.5512 8.92098 15.3605 8.78033 15.2198C8.63968 15.0791 8.44891 15.0001 8.25 15.0001C8.05109 15.0001 7.86032 15.0791 7.71967 15.2198C7.57902 15.3605 7.5 15.5512 7.5 15.7501V20.2501C7.5 20.449 7.57902 20.6398 7.71967 20.7805C7.86032 20.9211 8.05109 21.0001 8.25 21.0001C8.44891 21.0001 8.63968 20.9211 8.78033 20.7805C8.92098 20.6398 9 20.449 9 20.2501V15.7501ZM12.75 15.7501C12.75 15.5512 12.671 15.3605 12.5303 15.2198C12.3897 15.0791 12.1989 15.0001 12 15.0001C11.8011 15.0001 11.6103 15.0791 11.4697 15.2198C11.329 15.3605 11.25 15.5512 11.25 15.7501V20.2501C11.25 20.449 11.329 20.6398 11.4697 20.7805C11.6103 20.9211 11.8011 21.0001 12 21.0001C12.1989 21.0001 12.3897 20.9211 12.5303 20.7805C12.671 20.6398 12.75 20.449 12.75 20.2501V15.7501ZM16.5 15.7501C16.5 15.5512 16.421 15.3605 16.2803 15.2198C16.1397 15.0791 15.9489 15.0001 15.75 15.0001C15.5511 15.0001 15.3603 15.0791 15.2197 15.2198C15.079 15.3605 15 15.5512 15 15.7501V20.2501C15 20.449 15.079 20.6398 15.2197 20.7805C15.3603 20.9211 15.5511 21.0001 15.75 21.0001C15.9489 21.0001 16.1397 20.9211 16.2803 20.7805C16.421 20.6398 16.5 20.449 16.5 20.2501V15.7501ZM20.25 15.7501C20.25 15.5512 20.171 15.3605 20.0303 15.2198C19.8897 15.0791 19.6989 15.0001 19.5 15.0001C19.3011 15.0001 19.1103 15.0791 18.9697 15.2198C18.829 15.3605 18.75 15.5512 18.75 15.7501V20.2501C18.75 20.449 18.829 20.6398 18.9697 20.7805C19.1103 20.9211 19.3011 21.0001 19.5 21.0001C19.6989 21.0001 19.8897 20.9211 20.0303 20.7805C20.171 20.6398 20.25 20.449 20.25 20.2501V15.7501Z" fill="black"/>
</g>
<defs>
<clipPath id="clip0_1315_283">
<rect width="24" height="24" fill="white"/>
</clipPath>
</defs>
</svg>
