<svg width="24" height="24" viewBox="0 0 24 24" fill="none" xmlns="http://www.w3.org/2000/svg">
<path fill-rule="evenodd" clip-rule="evenodd" d="M8.6355 1.60667C8.72002 1.65728 8.79374 1.72405 8.85245 1.80316C8.91116 1.88227 8.95371 1.97217 8.97767 2.06772C9.00163 2.16328 9.00652 2.26262 8.99208 2.36007C8.97764 2.45752 8.94414 2.55117 8.8935 2.63567L5.0745 9.00017H18.9255L15.105 2.63567C15.0028 2.465 14.9725 2.26071 15.0209 2.06774C15.0693 1.87476 15.1923 1.70891 15.363 1.60667C15.5337 1.50443 15.738 1.47417 15.9309 1.52256C16.1239 1.57094 16.2898 1.694 16.392 1.86467L20.6745 9.00017H23.25C23.4489 9.00017 23.6397 9.07919 23.7803 9.21984C23.921 9.36049 24 9.55126 24 9.75017V11.2502C24 11.4491 23.921 11.6398 23.7803 11.7805C23.6397 11.9212 23.4489 12.0002 23.25 12.0002H0.75C0.551088 12.0002 0.360322 11.9212 0.21967 11.7805C0.0790176 11.6398 0 11.4491 0 11.2502V9.75017C0 9.55126 0.0790176 9.36049 0.21967 9.21984C0.360322 9.07919 0.551088 9.00017 0.75 9.00017H3.3255L7.605 1.86467C7.65561 1.78015 7.72238 1.70643 7.80149 1.64772C7.8806 1.58901 7.9705 1.54646 8.06605 1.5225C8.16161 1.49854 8.26095 1.49365 8.3584 1.50809C8.45585 1.52253 8.5495 1.55603 8.634 1.60667H8.6355Z" fill="black"/>
<path d="M3.70181 23.139L1.41431 13.5H22.5853L20.2978 23.139C20.2386 23.3844 20.0985 23.6027 19.9002 23.7589C19.7018 23.9151 19.4567 24 19.2043 24H4.79531C4.54261 24.0003 4.29717 23.9155 4.09852 23.7594C3.89988 23.6032 3.75961 23.3846 3.70031 23.139H3.70181Z" fill="black"/>
</svg>
