<svg width="24" height="24" viewBox="0 0 24 24" fill="none" xmlns="http://www.w3.org/2000/svg">
<path fill-rule="evenodd" clip-rule="evenodd" d="M3 5.25C3 5.05109 3.07902 4.86032 3.21967 4.71967C3.36032 4.57902 3.55109 4.5 3.75 4.5H20.25C20.4489 4.5 20.6397 4.57902 20.7803 4.71967C20.921 4.86032 21 5.05109 21 5.25C21 5.44891 20.921 5.63968 20.7803 5.78033C20.6397 5.92098 20.4489 6 20.25 6H3.75C3.55109 6 3.36032 5.92098 3.21967 5.78033C3.07902 5.63968 3 5.44891 3 5.25ZM3 9.75C3 9.55109 3.07902 9.36032 3.21967 9.21967C3.36032 9.07902 3.55109 9 3.75 9H12.75C12.9489 9 13.1397 9.07902 13.2803 9.21967C13.421 9.36032 13.5 9.55109 13.5 9.75C13.5 9.94891 13.421 10.1397 13.2803 10.2803C13.1397 10.421 12.9489 10.5 12.75 10.5H3.75C3.55109 10.5 3.36032 10.421 3.21967 10.2803C3.07902 10.1397 3 9.94891 3 9.75ZM3 14.25C3 14.0511 3.07902 13.8603 3.21967 13.7197C3.36032 13.579 3.55109 13.5 3.75 13.5H12.75C12.9489 13.5 13.1397 13.579 13.2803 13.7197C13.421 13.8603 13.5 14.0511 13.5 14.25C13.5 14.4489 13.421 14.6397 13.2803 14.7803C13.1397 14.921 12.9489 15 12.75 15H3.75C3.55109 15 3.36032 14.921 3.21967 14.7803C3.07902 14.6397 3 14.4489 3 14.25ZM3 18.75C3 18.5511 3.07902 18.3603 3.21967 18.2197C3.36032 18.079 3.55109 18 3.75 18H20.25C20.4489 18 20.6397 18.079 20.7803 18.2197C20.921 18.3603 21 18.5511 21 18.75C21 18.9489 20.921 19.1397 20.7803 19.2803C20.6397 19.421 20.4489 19.5 20.25 19.5H3.75C3.55109 19.5 3.36032 19.421 3.21967 19.2803C3.07902 19.1397 3 18.9489 3 18.75Z" fill="black"/>
<path d="M18.252 9.528C18.528 9.6855 18.75 9.8235 18.9195 9.9405C19.0905 10.0515 19.263 10.2015 19.4385 10.389C19.6035 10.5645 19.728 10.749 19.8165 10.9425C19.905 11.136 19.9665 11.385 20.001 11.6895H19.5795C19.215 11.6895 18.9315 11.7795 18.726 11.9625C18.516 12.138 18.411 12.3975 18.411 12.744C18.411 12.99 18.504 13.221 18.6915 13.4385C18.873 13.6485 19.125 13.7535 19.4475 13.7535C19.9515 13.7535 20.3115 13.5915 20.5275 13.263C20.745 12.9285 20.853 12.492 20.853 11.9535C20.853 11.5725 20.772 11.226 20.607 10.9155C20.4489 10.6076 20.2479 10.3238 20.01 10.0725C19.77 9.8205 19.515 9.6075 19.245 9.4305C18.975 9.255 18.75 9.111 18.5685 9L18.252 9.528ZM15 9.528C15.276 9.6855 15.498 9.8235 15.6675 9.9405C15.8385 10.0515 16.011 10.2015 16.1865 10.389C16.356 10.569 16.4865 10.758 16.5735 10.9515C16.656 11.139 16.7145 11.385 16.749 11.6895H16.3275C15.9645 11.6895 15.6795 11.7795 15.474 11.9625C15.264 12.138 15.159 12.3975 15.159 12.744C15.159 12.99 15.252 13.221 15.4395 13.4385C15.621 13.6485 15.873 13.7535 16.1955 13.7535C16.6995 13.7535 17.0595 13.5915 17.2755 13.263C17.493 12.9285 17.601 12.492 17.601 11.9535C17.601 11.5725 17.52 11.226 17.355 10.9155C17.1969 10.6077 16.9959 10.3238 16.758 10.0725C16.518 9.8205 16.263 9.6075 15.993 9.4305C15.723 9.255 15.498 9.111 15.3165 9L15 9.528Z" fill="black"/>
</svg>
