<svg width="24" height="24" viewBox="0 0 24 24" fill="none" xmlns="http://www.w3.org/2000/svg">
<path fill-rule="evenodd" clip-rule="evenodd" d="M3 3C3 2.20435 3.31607 1.44129 3.87868 0.87868C4.44129 0.316071 5.20435 0 6 0L18 0C18.7956 0 19.5587 0.316071 20.1213 0.87868C20.6839 1.44129 21 2.20435 21 3V23.25C20.9999 23.3857 20.9631 23.5188 20.8933 23.6351C20.8236 23.7515 20.7236 23.8468 20.604 23.9108C20.4844 23.9748 20.3497 24.0052 20.2142 23.9988C20.0787 23.9923 19.9474 23.9492 19.8345 23.874L12 19.6515L4.1655 23.874C4.05256 23.9492 3.92135 23.9923 3.78584 23.9988C3.65033 24.0052 3.5156 23.9748 3.396 23.9108C3.2764 23.8468 3.17641 23.7515 3.10667 23.6351C3.03694 23.5188 3.00007 23.3857 3 23.25V3ZM6 1.5C5.60218 1.5 5.22064 1.65804 4.93934 1.93934C4.65804 2.22064 4.5 2.60218 4.5 3V21.849L11.5845 18.126C11.7076 18.0441 11.8521 18.0004 12 18.0004C12.1479 18.0004 12.2924 18.0441 12.4155 18.126L19.5 21.849V3C19.5 2.60218 19.342 2.22064 19.0607 1.93934C18.7794 1.65804 18.3978 1.5 18 1.5H6Z" fill="black"/>
<path fill-rule="evenodd" clip-rule="evenodd" d="M16.2812 7.71888C16.3511 7.78854 16.4065 7.87131 16.4443 7.96242C16.4821 8.05354 16.5016 8.15122 16.5016 8.24988C16.5016 8.34853 16.4821 8.44621 16.4443 8.53733C16.4065 8.62844 16.3511 8.71121 16.2812 8.78088L11.7812 13.2809C11.7115 13.3507 11.6288 13.4061 11.5377 13.4439C11.4465 13.4818 11.3489 13.5012 11.2502 13.5012C11.1516 13.5012 11.0539 13.4818 10.9628 13.4439C10.8716 13.4061 10.7889 13.3507 10.7192 13.2809L8.46922 11.0309C8.39948 10.9611 8.34417 10.8784 8.30643 10.7873C8.26869 10.6961 8.24927 10.5985 8.24927 10.4999C8.24927 10.4013 8.26869 10.3036 8.30643 10.2125C8.34417 10.1214 8.39948 10.0386 8.46922 9.96888C8.53895 9.89914 8.62173 9.84383 8.71284 9.80609C8.80395 9.76835 8.9016 9.74893 9.00022 9.74893C9.09883 9.74893 9.19648 9.76835 9.28759 9.80609C9.3787 9.84383 9.46148 9.89914 9.53122 9.96888L11.2502 11.6894L15.2192 7.71888C15.2889 7.64903 15.3716 7.59362 15.4628 7.55581C15.5539 7.518 15.6516 7.49854 15.7502 7.49854C15.8489 7.49854 15.9465 7.518 16.0377 7.55581C16.1288 7.59362 16.2115 7.64903 16.2812 7.71888Z" fill="black"/>
</svg>
