<svg width="24" height="24" viewBox="0 0 24 24" fill="none" xmlns="http://www.w3.org/2000/svg">
<path fill-rule="evenodd" clip-rule="evenodd" d="M3 3C3 2.20435 3.31607 1.44129 3.87868 0.87868C4.44129 0.316071 5.20435 0 6 0L18 0C18.7956 0 19.5587 0.316071 20.1213 0.87868C20.6839 1.44129 21 2.20435 21 3V23.25C20.9999 23.3857 20.9631 23.5188 20.8933 23.6351C20.8236 23.7515 20.7236 23.8468 20.604 23.9108C20.4844 23.9748 20.3497 24.0052 20.2142 23.9988C20.0787 23.9923 19.9474 23.9492 19.8345 23.874L12 19.6515L4.1655 23.874C4.05256 23.9492 3.92135 23.9923 3.78584 23.9988C3.65033 24.0052 3.5156 23.9748 3.396 23.9108C3.2764 23.8468 3.17641 23.7515 3.10667 23.6351C3.03694 23.5188 3.00007 23.3857 3 23.25V3ZM6 1.5C5.60218 1.5 5.22064 1.65804 4.93934 1.93934C4.65804 2.22064 4.5 2.60218 4.5 3V21.849L11.5845 18.126C11.7076 18.0441 11.8521 18.0004 12 18.0004C12.1479 18.0004 12.2924 18.0441 12.4155 18.126L19.5 21.849V3C19.5 2.60218 19.342 2.22064 19.0607 1.93934C18.7794 1.65804 18.3978 1.5 18 1.5H6Z" fill="black"/>
<path fill-rule="evenodd" clip-rule="evenodd" d="M9.21888 7.71888C9.28854 7.64903 9.37131 7.59362 9.46242 7.55581C9.55354 7.518 9.65122 7.49854 9.74988 7.49854C9.84853 7.49854 9.94621 7.518 10.0373 7.55581C10.1284 7.59362 10.2112 7.64903 10.2809 7.71888L11.9999 9.43938L13.7189 7.71888C13.8597 7.57805 14.0507 7.49893 14.2499 7.49893C14.449 7.49893 14.64 7.57805 14.7809 7.71888C14.9217 7.85971 15.0008 8.05071 15.0008 8.24988C15.0008 8.44904 14.9217 8.64005 14.7809 8.78088L13.0604 10.4999L14.7809 12.2189C14.9217 12.3597 15.0008 12.5507 15.0008 12.7499C15.0008 12.949 14.9217 13.14 14.7809 13.2809C14.64 13.4217 14.449 13.5008 14.2499 13.5008C14.0507 13.5008 13.8597 13.4217 13.7189 13.2809L11.9999 11.5604L10.2809 13.2809C10.2111 13.3506 10.1284 13.4059 10.0373 13.4437C9.94614 13.4814 9.84849 13.5008 9.74988 13.5008C9.65126 13.5008 9.55361 13.4814 9.4625 13.4437C9.37139 13.4059 9.28861 13.3506 9.21888 13.2809C9.14914 13.2111 9.09383 13.1284 9.05609 13.0372C9.01835 12.9461 8.99893 12.8485 8.99893 12.7499C8.99893 12.6513 9.01835 12.5536 9.05609 12.4625C9.09383 12.3714 9.14914 12.2886 9.21888 12.2189L10.9394 10.4999L9.21888 8.78088C9.14903 8.71121 9.09362 8.62844 9.05581 8.53733C9.018 8.44621 8.99854 8.34853 8.99854 8.24988C8.99854 8.15122 9.018 8.05354 9.05581 7.96242C9.09362 7.87131 9.14903 7.78854 9.21888 7.71888Z" fill="black"/>
</svg>
