<svg width="24" height="24" viewBox="0 0 24 24" fill="none" xmlns="http://www.w3.org/2000/svg">
<g clip-path="url(#clip0_1315_375)">
<path fill-rule="evenodd" clip-rule="evenodd" d="M3 6C3 5.20435 3.31607 4.44129 3.87868 3.87868C4.44129 3.31607 5.20435 3 6 3H15C15.7956 3 16.5587 3.31607 17.1213 3.87868C17.6839 4.44129 18 5.20435 18 6V23.25C17.9999 23.3857 17.9631 23.5188 17.8933 23.6351C17.8236 23.7515 17.7236 23.8468 17.604 23.9108C17.4844 23.9748 17.3497 24.0052 17.2142 23.9988C17.0787 23.9923 16.9474 23.9492 16.8345 23.874L10.5 19.6515L4.1655 23.874C4.05256 23.9492 3.92135 23.9923 3.78584 23.9988C3.65033 24.0052 3.5156 23.9748 3.396 23.9108C3.2764 23.8468 3.17641 23.7515 3.10667 23.6351C3.03694 23.5188 3.00007 23.3857 3 23.25V6ZM6 4.5C5.60218 4.5 5.22064 4.65804 4.93934 4.93934C4.65804 5.22064 4.5 5.60218 4.5 6V21.849L10.0845 18.126C10.2076 18.0441 10.3521 18.0004 10.5 18.0004C10.6479 18.0004 10.7924 18.0441 10.9155 18.126L16.5 21.849V6C16.5 5.60218 16.342 5.22064 16.0607 4.93934C15.7794 4.65804 15.3978 4.5 15 4.5H6Z" fill="black"/>
<path fill-rule="evenodd" clip-rule="evenodd" d="M6.4021 1.5H18.0001C18.3979 1.5 18.7795 1.65804 19.0608 1.93934C19.3421 2.22064 19.5001 2.60218 19.5001 3V20.652L19.8346 20.874C19.9475 20.9492 20.0788 20.9923 20.2143 20.9988C20.3498 21.0052 20.4845 20.9748 20.6041 20.9108C20.7237 20.8468 20.8237 20.7515 20.8934 20.6351C20.9632 20.5188 21 20.3857 21.0001 20.25V3C21.0001 2.20435 20.684 1.44129 20.1214 0.87868C19.5588 0.316071 18.7957 0 18.0001 0L9.0001 0C8.4735 1.33777e-05 7.95619 0.138639 7.50014 0.401943C7.0441 0.665247 6.6654 1.04395 6.4021 1.5Z" fill="black"/>
</g>
<defs>
<clipPath id="clip0_1315_375">
<rect width="24" height="24" fill="white"/>
</clipPath>
</defs>
</svg>
