<svg width="24" height="24" viewBox="0 0 24 24" fill="none" xmlns="http://www.w3.org/2000/svg">
<path fill-rule="evenodd" clip-rule="evenodd" d="M3 3C3 2.20435 3.31607 1.44129 3.87868 0.87868C4.44129 0.316071 5.20435 0 6 0L18 0C18.7956 0 19.5587 0.316071 20.1213 0.87868C20.6839 1.44129 21 2.20435 21 3V23.25C20.9999 23.3857 20.9631 23.5188 20.8933 23.6351C20.8236 23.7515 20.7236 23.8468 20.604 23.9108C20.4844 23.9748 20.3497 24.0052 20.2142 23.9988C20.0787 23.9923 19.9474 23.9492 19.8345 23.874L12 19.6515L4.1655 23.874C4.05256 23.9492 3.92135 23.9923 3.78584 23.9988C3.65033 24.0052 3.5156 23.9748 3.396 23.9108C3.2764 23.8468 3.17641 23.7515 3.10667 23.6351C3.03694 23.5188 3.00007 23.3857 3 23.25V3ZM6 1.5C5.60218 1.5 5.22064 1.65804 4.93934 1.93934C4.65804 2.22064 4.5 2.60218 4.5 3V21.849L11.5845 18.126C11.7076 18.0441 11.8521 18.0004 12 18.0004C12.1479 18.0004 12.2924 18.0441 12.4155 18.126L19.5 21.849V3C19.5 2.60218 19.342 2.22064 19.0607 1.93934C18.7794 1.65804 18.3978 1.5 18 1.5H6Z" fill="black"/>
<path d="M11.7601 6.15C11.782 6.10502 11.8161 6.06711 11.8586 6.04058C11.901 6.01406 11.95 6 12.0001 6C12.0501 6 12.0992 6.01406 12.1416 6.04058C12.184 6.06711 12.2181 6.10502 12.2401 6.15L13.1911 8.0775C13.2101 8.11649 13.2384 8.15025 13.2734 8.17587C13.3084 8.20148 13.3492 8.21817 13.3921 8.2245L15.5221 8.5335C15.7396 8.565 15.8281 8.8335 15.6691 8.988L14.1301 10.4895C14.099 10.5198 14.0758 10.5572 14.0625 10.5985C14.0492 10.6398 14.0461 10.6838 14.0536 10.7265L14.4166 12.8475C14.4247 12.8965 14.4191 12.9468 14.4002 12.9927C14.3814 13.0386 14.3501 13.0784 14.3099 13.1075C14.2697 13.1367 14.2222 13.154 14.1726 13.1576C14.1231 13.1613 14.0736 13.151 14.0296 13.128L12.1246 12.126C12.0864 12.106 12.0439 12.0956 12.0008 12.0956C11.9577 12.0956 11.9153 12.106 11.8771 12.126L9.97208 13.128C9.92812 13.1506 9.87875 13.1605 9.82948 13.1567C9.78021 13.1529 9.73296 13.1355 9.693 13.1064C9.65304 13.0773 9.62193 13.0377 9.60314 12.992C9.58435 12.9463 9.57862 12.8963 9.58658 12.8475L9.94958 10.7265C9.95723 10.6839 9.95441 10.64 9.94134 10.5987C9.92827 10.5575 9.90536 10.52 9.87458 10.4895L8.32958 8.988C8.29419 8.95325 8.26917 8.90934 8.25734 8.86117C8.24551 8.81301 8.24733 8.7625 8.26259 8.71531C8.27785 8.66812 8.30596 8.62612 8.34375 8.59401C8.38155 8.56189 8.42754 8.54094 8.47658 8.5335L10.6066 8.2245C10.6495 8.21817 10.6902 8.20148 10.7253 8.17587C10.7603 8.15025 10.7885 8.11649 10.8076 8.0775L11.7601 6.15Z" fill="black"/>
</svg>
