<svg width="24" height="24" viewBox="0 0 24 24" fill="none" xmlns="http://www.w3.org/2000/svg">
<g clip-path="url(#clip0_1315_380)">
<path fill-rule="evenodd" clip-rule="evenodd" d="M6.00293 0C4.41163 0 2.88551 0.632141 1.76029 1.75736C0.635071 2.88258 0.00292969 4.4087 0.00292969 6V18C0.00292969 19.5913 0.635071 21.1174 1.76029 22.2426C2.88551 23.3679 4.41163 24 6.00293 24H18.0029C19.5942 24 21.1204 23.3679 22.2456 22.2426C23.3708 21.1174 24.0029 19.5913 24.0029 18V6C24.0029 4.4087 23.3708 2.88258 22.2456 1.75736C21.1204 0.632141 19.5942 0 18.0029 0L6.00293 0ZM7.59293 18H12.8054C15.5114 18 17.1374 16.638 17.1374 14.406C17.1374 12.753 15.9959 11.532 14.2814 11.355V11.205C15.5294 10.995 16.5044 9.81 16.5044 8.481C16.5044 6.531 15.0719 5.316 12.6914 5.316H7.59293V18ZM9.56243 10.6875V6.987H12.2324C13.6919 6.987 14.5454 7.6725 14.5454 8.8425C14.5454 10.0455 13.6394 10.6875 11.8994 10.6875H9.56243ZM9.56243 16.3305H12.4094C14.1854 16.3305 15.1244 15.6105 15.1244 14.265C15.1244 12.9375 14.1494 12.243 12.2954 12.243H9.56243V16.3305Z" fill="black"/>
</g>
<defs>
<clipPath id="clip0_1315_380">
<rect width="24" height="24" fill="white"/>
</clipPath>
</defs>
</svg>
