<svg width="24" height="24" viewBox="0 0 24 24" fill="none" xmlns="http://www.w3.org/2000/svg">
<g clip-path="url(#clip0_1315_428)">
<path fill-rule="evenodd" clip-rule="evenodd" d="M9 18.75C9 18.9489 9.07902 19.1397 9.21967 19.2803C9.36032 19.421 9.55109 19.5 9.75 19.5H21.75C21.9489 19.5 22.1397 19.421 22.2803 19.2803C22.421 19.1397 22.5 18.9489 22.5 18.75V5.25C22.5 5.05109 22.421 4.86032 22.2803 4.71967C22.1397 4.57902 21.9489 4.5 21.75 4.5H9.75C9.55109 4.5 9.36032 4.57902 9.21967 4.71967C9.07902 4.86032 9 5.05109 9 5.25V8.25C9 8.44891 8.92098 8.63968 8.78033 8.78033C8.63968 8.92098 8.44891 9 8.25 9C8.05109 9 7.86032 8.92098 7.71967 8.78033C7.57902 8.63968 7.5 8.44891 7.5 8.25V5.25C7.5 4.65326 7.73705 4.08097 8.15901 3.65901C8.58097 3.23705 9.15326 3 9.75 3H21.75C22.3467 3 22.919 3.23705 23.341 3.65901C23.7629 4.08097 24 4.65326 24 5.25V18.75C24 19.3467 23.7629 19.919 23.341 20.341C22.919 20.7629 22.3467 21 21.75 21H9.75C9.15326 21 8.58097 20.7629 8.15901 20.341C7.73705 19.919 7.5 19.3467 7.5 18.75V15.75C7.5 15.5511 7.57902 15.3603 7.71967 15.2197C7.86032 15.079 8.05109 15 8.25 15C8.44891 15 8.63968 15.079 8.78033 15.2197C8.92098 15.3603 9 15.5511 9 15.75V18.75Z" fill="black"/>
<path fill-rule="evenodd" clip-rule="evenodd" d="M0.218876 12.5308C0.149031 12.4612 0.0936167 12.3784 0.055807 12.2873C0.0179974 12.1962 -0.00146484 12.0985 -0.00146484 11.9998C-0.00146484 11.9012 0.0179974 11.8035 0.055807 11.7124C0.0936167 11.6213 0.149031 11.5385 0.218876 11.4688L4.71888 6.96885C4.78861 6.89912 4.87139 6.8438 4.9625 6.80606C5.05361 6.76833 5.15126 6.7489 5.24988 6.7489C5.34849 6.7489 5.44614 6.76833 5.53725 6.80606C5.62836 6.8438 5.71114 6.89912 5.78088 6.96885C5.85061 7.03858 5.90592 7.12136 5.94366 7.21247C5.9814 7.30358 6.00082 7.40123 6.00082 7.49985C6.00082 7.59846 5.9814 7.69612 5.94366 7.78722C5.90592 7.87833 5.85061 7.96112 5.78088 8.03085L2.56038 11.2498H15.7499C15.9488 11.2498 16.1396 11.3289 16.2802 11.4695C16.4209 11.6102 16.4999 11.8009 16.4999 11.9998C16.4999 12.1988 16.4209 12.3895 16.2802 12.5302C16.1396 12.6708 15.9488 12.7498 15.7499 12.7498H2.56038L5.78088 15.9688C5.85061 16.0386 5.90592 16.1214 5.94366 16.2125C5.9814 16.3036 6.00082 16.4012 6.00082 16.4998C6.00082 16.5985 5.9814 16.6961 5.94366 16.7872C5.90592 16.8783 5.85061 16.9611 5.78088 17.0308C5.71114 17.1006 5.62836 17.1559 5.53725 17.1936C5.44614 17.2314 5.34849 17.2508 5.24988 17.2508C5.15126 17.2508 5.05361 17.2314 4.9625 17.1936C4.87139 17.1559 4.78861 17.1006 4.71888 17.0308L0.218876 12.5308Z" fill="black"/>
</g>
<defs>
<clipPath id="clip0_1315_428">
<rect width="24" height="24" fill="white"/>
</clipPath>
</defs>
</svg>
