<svg width="24" height="24" viewBox="0 0 24 24" fill="none" xmlns="http://www.w3.org/2000/svg">
<path fill-rule="evenodd" clip-rule="evenodd" d="M15 5.25C15 5.05109 14.921 4.86032 14.7803 4.71967C14.6397 4.57902 14.4489 4.5 14.25 4.5H2.25C2.05109 4.5 1.86032 4.57902 1.71967 4.71967C1.57902 4.86032 1.5 5.05109 1.5 5.25V18.75C1.5 18.9489 1.57902 19.1397 1.71967 19.2803C1.86032 19.421 2.05109 19.5 2.25 19.5H14.25C14.4489 19.5 14.6397 19.421 14.7803 19.2803C14.921 19.1397 15 18.9489 15 18.75V15.75C15 15.5511 15.079 15.3603 15.2197 15.2197C15.3603 15.079 15.5511 15 15.75 15C15.9489 15 16.1397 15.079 16.2803 15.2197C16.421 15.3603 16.5 15.5511 16.5 15.75V18.75C16.5 19.3467 16.2629 19.919 15.841 20.341C15.419 20.7629 14.8467 21 14.25 21H2.25C1.65326 21 1.08097 20.7629 0.65901 20.341C0.237053 19.919 0 19.3467 0 18.75L0 5.25C0 4.65326 0.237053 4.08097 0.65901 3.65901C1.08097 3.23705 1.65326 3 2.25 3H14.25C14.8467 3 15.419 3.23705 15.841 3.65901C16.2629 4.08097 16.5 4.65326 16.5 5.25V8.25C16.5 8.44891 16.421 8.63968 16.2803 8.78033C16.1397 8.92098 15.9489 9 15.75 9C15.5511 9 15.3603 8.92098 15.2197 8.78033C15.079 8.63968 15 8.44891 15 8.25V5.25Z" fill="black"/>
<path fill-rule="evenodd" clip-rule="evenodd" d="M6.21888 12.5308C6.14903 12.4612 6.09362 12.3784 6.05581 12.2873C6.018 12.1962 5.99854 12.0985 5.99854 11.9998C5.99854 11.9012 6.018 11.8035 6.05581 11.7124C6.09362 11.6213 6.14903 11.5385 6.21888 11.4688L10.7189 6.96885C10.8597 6.82802 11.0507 6.7489 11.2499 6.7489C11.449 6.7489 11.64 6.82802 11.7809 6.96885C11.9217 7.10968 12.0008 7.30069 12.0008 7.49985C12.0008 7.69901 11.9217 7.89002 11.7809 8.03085L8.56038 11.2498H21.7499C21.9488 11.2498 22.1396 11.3289 22.2802 11.4695C22.4209 11.6102 22.4999 11.8009 22.4999 11.9998C22.4999 12.1988 22.4209 12.3895 22.2802 12.5302C22.1396 12.6708 21.9488 12.7498 21.7499 12.7498H8.56038L11.7809 15.9688C11.8506 16.0386 11.9059 16.1214 11.9437 16.2125C11.9814 16.3036 12.0008 16.4012 12.0008 16.4998C12.0008 16.5985 11.9814 16.6961 11.9437 16.7872C11.9059 16.8783 11.8506 16.9611 11.7809 17.0308C11.7111 17.1006 11.6284 17.1559 11.5373 17.1936C11.4461 17.2314 11.3485 17.2508 11.2499 17.2508C11.1513 17.2508 11.0536 17.2314 10.9625 17.1936C10.8714 17.1559 10.7886 17.1006 10.7189 17.0308L6.21888 12.5308Z" fill="black"/>
</svg>
