<svg width="24" height="24" viewBox="0 0 24 24" fill="none" xmlns="http://www.w3.org/2000/svg">
<g clip-path="url(#clip0_1315_440)">
<path fill-rule="evenodd" clip-rule="evenodd" d="M5.25 9C5.05109 9 4.86032 9.07902 4.71967 9.21967C4.57902 9.36032 4.5 9.55109 4.5 9.75V21.75C4.5 21.9489 4.57902 22.1397 4.71967 22.2803C4.86032 22.421 5.05109 22.5 5.25 22.5H18.75C18.9489 22.5 19.1397 22.421 19.2803 22.2803C19.421 22.1397 19.5 21.9489 19.5 21.75V9.75C19.5 9.55109 19.421 9.36032 19.2803 9.21967C19.1397 9.07902 18.9489 9 18.75 9H15.75C15.5511 9 15.3603 8.92098 15.2197 8.78033C15.079 8.63968 15 8.44891 15 8.25C15 8.05109 15.079 7.86032 15.2197 7.71967C15.3603 7.57902 15.5511 7.5 15.75 7.5H18.75C19.3467 7.5 19.919 7.73705 20.341 8.15901C20.7629 8.58097 21 9.15326 21 9.75V21.75C21 22.3467 20.7629 22.919 20.341 23.341C19.919 23.7629 19.3467 24 18.75 24H5.25C4.65326 24 4.08097 23.7629 3.65901 23.341C3.23705 22.919 3 22.3467 3 21.75V9.75C3 9.15326 3.23705 8.58097 3.65901 8.15901C4.08097 7.73705 4.65326 7.5 5.25 7.5H8.25C8.44891 7.5 8.63968 7.57902 8.78033 7.71967C8.92098 7.86032 9 8.05109 9 8.25C9 8.44891 8.92098 8.63968 8.78033 8.78033C8.63968 8.92098 8.44891 9 8.25 9H5.25Z" fill="black"/>
<path fill-rule="evenodd" clip-rule="evenodd" d="M11.4692 0.218876C11.5389 0.149031 11.6216 0.0936167 11.7128 0.055807C11.8039 0.0179974 11.9016 -0.00146484 12.0002 -0.00146484C12.0989 -0.00146484 12.1965 0.0179974 12.2877 0.055807C12.3788 0.0936167 12.4615 0.149031 12.5312 0.218876L17.0312 4.71888C17.172 4.85971 17.2512 5.05071 17.2512 5.24988C17.2512 5.44904 17.172 5.64005 17.0312 5.78088C16.8904 5.92171 16.6994 6.00082 16.5002 6.00082C16.3011 6.00082 16.11 5.92171 15.9692 5.78088L12.7502 2.56038V15.7499C12.7502 15.9488 12.6712 16.1396 12.5305 16.2802C12.3899 16.4209 12.1991 16.4999 12.0002 16.4999C11.8013 16.4999 11.6105 16.4209 11.4699 16.2802C11.3292 16.1396 11.2502 15.9488 11.2502 15.7499V2.56038L8.03122 5.78088C7.96148 5.85061 7.8787 5.90592 7.78759 5.94366C7.69648 5.9814 7.59883 6.00082 7.50022 6.00082C7.30105 6.00082 7.11005 5.92171 6.96922 5.78088C6.89948 5.71114 6.84417 5.62836 6.80643 5.53725C6.76869 5.44614 6.74927 5.34849 6.74927 5.24988C6.74927 5.05071 6.82839 4.85971 6.96922 4.71888L11.4692 0.218876Z" fill="black"/>
</g>
<defs>
<clipPath id="clip0_1315_440">
<rect width="24" height="24" fill="white"/>
</clipPath>
</defs>
</svg>
