<svg width="24" height="24" viewBox="0 0 24 24" fill="none" xmlns="http://www.w3.org/2000/svg">
<g clip-path="url(#clip0_1315_445)">
<path fill-rule="evenodd" clip-rule="evenodd" d="M12.279 1.66937C12.0999 1.5976 11.9001 1.5976 11.721 1.66937L2.769 5.24987L12 8.94137L21.231 5.24987L12.279 1.66937ZM22.5 6.35837L12.75 10.2584V22.1414L22.5 18.2414V6.35987V6.35837ZM11.25 22.1429V10.2569L1.5 6.35837V18.2429L11.25 22.1429ZM11.1645 0.275866C11.7008 0.061365 12.2992 0.061365 12.8355 0.275866L23.529 4.55387C23.668 4.60958 23.7872 4.70565 23.8711 4.8297C23.9551 4.95375 24 5.10009 24 5.24987V18.2429C23.9998 18.5426 23.9098 18.8354 23.7417 19.0835C23.5735 19.3316 23.3348 19.5237 23.0565 19.6349L12.279 23.9459C12.0999 24.0176 11.9001 24.0176 11.721 23.9459L0.945 19.6349C0.666377 19.5239 0.427414 19.332 0.258963 19.0838C0.0905126 18.8357 0.000309494 18.5428 0 18.2429L0 5.24987C3.48599e-05 5.10009 0.0449156 4.95375 0.128861 4.8297C0.212805 4.70565 0.331969 4.60958 0.471 4.55387L11.1645 0.275866Z" fill="black"/>
</g>
<defs>
<clipPath id="clip0_1315_445">
<rect width="24" height="24" fill="white"/>
</clipPath>
</defs>
</svg>
