<svg width="24" height="24" viewBox="0 0 24 24" fill="none" xmlns="http://www.w3.org/2000/svg">
<path fill-rule="evenodd" clip-rule="evenodd" d="M0 18.75C0 19.3467 0.237053 19.919 0.65901 20.341C1.08097 20.7629 1.65326 21 2.25 21H21.75C22.3467 21 22.919 20.7629 23.341 20.341C23.7629 19.919 24 19.3467 24 18.75V9.75H22.5V18.75C22.5 18.9489 22.421 19.1397 22.2803 19.2803C22.1397 19.421 21.9489 19.5 21.75 19.5H2.25C2.05109 19.5 1.86032 19.421 1.71967 19.2803C1.57902 19.1397 1.5 18.9489 1.5 18.75V9.75H0V18.75Z" fill="black"/>
<path fill-rule="evenodd" clip-rule="evenodd" d="M0 6.75C0 6.15326 0.237053 5.58097 0.65901 5.15901C1.08097 4.73705 1.65326 4.5 2.25 4.5H21.75C22.3467 4.5 22.919 4.73705 23.341 5.15901C23.7629 5.58097 24 6.15326 24 6.75V10.326L12.579 13.371C12.1996 13.472 11.8004 13.472 11.421 13.371L0 10.326V6.75ZM2.25 6C2.05109 6 1.86032 6.07902 1.71967 6.21967C1.57902 6.36032 1.5 6.55109 1.5 6.75V9.174L11.8065 11.922C11.9333 11.9559 12.0667 11.9559 12.1935 11.922L22.5 9.174V6.75C22.5 6.55109 22.421 6.36032 22.2803 6.21967C22.1397 6.07902 21.9489 6 21.75 6H2.25ZM7.5 3.75C7.5 3.15326 7.73705 2.58097 8.15901 2.15901C8.58097 1.73705 9.15326 1.5 9.75 1.5H14.25C14.8467 1.5 15.419 1.73705 15.841 2.15901C16.2629 2.58097 16.5 3.15326 16.5 3.75V4.5H15V3.75C15 3.55109 14.921 3.36032 14.7803 3.21967C14.6397 3.07902 14.4489 3 14.25 3H9.75C9.55109 3 9.36032 3.07902 9.21967 3.21967C9.07902 3.36032 9 3.55109 9 3.75V4.5H7.5V3.75Z" fill="black"/>
</svg>
