<svg width="24" height="24" viewBox="0 0 24 24" fill="none" xmlns="http://www.w3.org/2000/svg">
<path d="M12.75 8.25C12.75 8.44891 12.671 8.63968 12.5303 8.78033C12.3897 8.92098 12.1989 9 12 9C11.8011 9 11.6103 8.92098 11.4697 8.78033C11.329 8.63968 11.25 8.44891 11.25 8.25C11.25 8.05109 11.329 7.86032 11.4697 7.71967C11.6103 7.57902 11.8011 7.5 12 7.5C12.1989 7.5 12.3897 7.57902 12.5303 7.71967C12.671 7.86032 12.75 8.05109 12.75 8.25ZM20.25 17.25C20.0511 17.25 19.8603 17.171 19.7197 17.0303C19.579 16.8897 19.5 16.6989 19.5 16.5C19.5 16.3011 19.579 16.1103 19.7197 15.9697C19.8603 15.829 20.0511 15.75 20.25 15.75C20.4489 15.75 20.6397 15.829 20.7803 15.9697C20.921 16.1103 21 16.3011 21 16.5C21 16.6989 20.921 16.8897 20.7803 17.0303C20.6397 17.171 20.4489 17.25 20.25 17.25ZM3.75 17.25C3.55109 17.25 3.36032 17.171 3.21967 17.0303C3.07902 16.8897 3 16.6989 3 16.5C3 16.3011 3.07902 16.1103 3.21967 15.9697C3.36032 15.829 3.55109 15.75 3.75 15.75C3.94891 15.75 4.13968 15.829 4.28033 15.9697C4.42098 16.1103 4.5 16.3011 4.5 16.5C4.5 16.6989 4.42098 16.8897 4.28033 17.0303C4.13968 17.171 3.94891 17.25 3.75 17.25ZM18.3645 11.196C18.2953 11.2676 18.2126 11.3248 18.1211 11.3641C18.0295 11.4034 17.9311 11.4241 17.8316 11.4249C17.732 11.4258 17.6332 11.4068 17.541 11.3691C17.4489 11.3314 17.3651 11.2757 17.2947 11.2053C17.2243 11.1349 17.1686 11.0511 17.1309 10.959C17.0932 10.8668 17.0742 10.768 17.0751 10.6684C17.0759 10.5689 17.0966 10.4704 17.1359 10.3789C17.1752 10.2874 17.2324 10.2047 17.304 10.1355C17.4455 9.99888 17.6349 9.92329 17.8316 9.92499C18.0282 9.9267 18.2163 10.0056 18.3554 10.1446C18.4944 10.2837 18.5733 10.4718 18.575 10.6684C18.5767 10.8651 18.5011 11.0545 18.3645 11.196ZM5.6355 11.196C5.56387 11.1268 5.50673 11.0441 5.46742 10.9526C5.42812 10.8611 5.40743 10.7626 5.40656 10.6631C5.4057 10.5635 5.42467 10.4647 5.46238 10.3725C5.50009 10.2804 5.55578 10.1966 5.6262 10.1262C5.69662 10.0558 5.78036 10.0001 5.87253 9.96238C5.96471 9.92467 6.06347 9.9057 6.16305 9.90656C6.26264 9.90743 6.36105 9.92812 6.45255 9.96742C6.54406 10.0067 6.62682 10.0639 6.696 10.1355C6.83262 10.277 6.90821 10.4664 6.90651 10.6631C6.9048 10.8597 6.82592 11.0478 6.68686 11.1869C6.54781 11.3259 6.3597 11.4048 6.16305 11.4065C5.9664 11.4082 5.77695 11.3326 5.6355 11.196Z" fill="black"/>
<path fill-rule="evenodd" clip-rule="evenodd" d="M6 16.5C6 14.9087 6.63214 13.3826 7.75736 12.2574C8.88258 11.1321 10.4087 10.5 12 10.5C13.5913 10.5 15.1174 11.1321 16.2426 12.2574C17.3679 13.3826 18 14.9087 18 16.5C18 16.6989 17.921 16.8897 17.7803 17.0303C17.6397 17.171 17.4489 17.25 17.25 17.25H6.75C6.55109 17.25 6.36032 17.171 6.21967 17.0303C6.07902 16.8897 6 16.6989 6 16.5Z" fill="black"/>
</svg>
