<svg width="24" height="24" viewBox="0 0 24 24" fill="none" xmlns="http://www.w3.org/2000/svg">
<g clip-path="url(#clip0_1315_479)">
<path fill-rule="evenodd" clip-rule="evenodd" d="M4.57507 4.57485C3.59994 5.54988 2.82642 6.70744 2.29868 7.98143C1.77094 9.25542 1.49931 10.6209 1.49931 11.9999C1.49931 13.3788 1.77094 14.7443 2.29868 16.0183C2.82642 17.2923 3.59994 18.4498 4.57507 19.4249C4.71169 19.5663 4.78729 19.7558 4.78558 19.9524C4.78387 20.1491 4.70499 20.3372 4.56594 20.4762C4.42688 20.6153 4.23877 20.6942 4.04212 20.6959C3.84547 20.6976 3.65602 20.622 3.51457 20.4854C2.4002 19.371 1.51623 18.0481 0.913139 16.5922C0.310043 15.1363 -0.000366211 13.5758 -0.000366211 11.9999C-0.000366211 10.4239 0.310043 8.86346 0.913139 7.40751C1.51623 5.95156 2.4002 4.62867 3.51457 3.51435C3.65602 3.37774 3.84547 3.30214 4.04212 3.30385C4.23877 3.30556 4.42688 3.38443 4.56594 3.52349C4.70499 3.66255 4.78387 3.85066 4.78558 4.0473C4.78729 4.24395 4.71169 4.4334 4.57507 4.57485ZM7.75807 7.75785C6.63324 8.88302 6.00135 10.4089 6.00135 11.9999C6.00135 13.5908 6.63324 15.1167 7.75807 16.2419C7.8989 16.3827 7.97802 16.5737 7.97802 16.7729C7.97802 16.972 7.8989 17.163 7.75807 17.3039C7.61724 17.4447 7.42623 17.5238 7.22707 17.5238C7.02791 17.5238 6.8369 17.4447 6.69607 17.3039C5.99942 16.6074 5.4468 15.7805 5.06977 14.8704C4.69273 13.9604 4.49867 12.9849 4.49867 11.9999C4.49867 11.0148 4.69273 10.0393 5.06977 9.12927C5.4468 8.2192 5.99942 7.39232 6.69607 6.69586C6.8369 6.55503 7.02791 6.47591 7.22707 6.47591C7.42623 6.47591 7.61724 6.55503 7.75807 6.69586C7.8989 6.83668 7.97802 7.02769 7.97802 7.22685C7.97802 7.42602 7.8989 7.61702 7.75807 7.75785ZM16.2421 6.69586C16.3117 6.62601 16.3945 6.5706 16.4856 6.53279C16.5767 6.49498 16.6744 6.47551 16.7731 6.47551C16.8717 6.47551 16.9694 6.49498 17.0605 6.53279C17.1516 6.5706 17.2344 6.62601 17.3041 6.69586C18.0007 7.39232 18.5533 8.2192 18.9304 9.12927C19.3074 10.0393 19.5015 11.0148 19.5015 11.9999C19.5015 12.9849 19.3074 13.9604 18.9304 14.8704C18.5533 15.7805 18.0007 16.6074 17.3041 17.3039C17.2343 17.3736 17.1516 17.4289 17.0604 17.4666C16.9693 17.5044 16.8717 17.5238 16.7731 17.5238C16.6745 17.5238 16.5768 17.5044 16.4857 17.4666C16.3946 17.4289 16.3118 17.3736 16.2421 17.3039C16.1723 17.2341 16.117 17.1513 16.0793 17.0602C16.0415 16.9691 16.0221 16.8715 16.0221 16.7729C16.0221 16.6742 16.0415 16.5766 16.0793 16.4855C16.117 16.3944 16.1723 16.3116 16.2421 16.2419C17.3669 15.1167 17.9988 13.5908 17.9988 11.9999C17.9988 10.4089 17.3669 8.88302 16.2421 7.75785C16.1722 7.68819 16.1168 7.60542 16.079 7.51431C16.0412 7.42319 16.0217 7.32551 16.0217 7.22685C16.0217 7.1282 16.0412 7.03052 16.079 6.9394C16.1168 6.84829 16.1722 6.76552 16.2421 6.69586ZM19.4251 3.51585C19.5657 3.37525 19.7564 3.29626 19.9553 3.29626C20.1542 3.29626 20.3449 3.37525 20.4856 3.51585C22.7357 5.76625 23.9998 8.81827 23.9998 12.0006C23.9998 15.1829 22.7357 18.235 20.4856 20.4854C20.3441 20.622 20.1547 20.6976 19.958 20.6959C19.7614 20.6942 19.5733 20.6153 19.4342 20.4762C19.2952 20.3372 19.2163 20.1491 19.2146 19.9524C19.2129 19.7558 19.2885 19.5663 19.4251 19.4249C20.4002 18.4498 21.1737 17.2923 21.7015 16.0183C22.2292 14.7443 22.5008 13.3788 22.5008 11.9999C22.5008 10.6209 22.2292 9.25542 21.7015 7.98143C21.1737 6.70744 20.4002 5.54988 19.4251 4.57485C19.2845 4.43421 19.2055 4.24348 19.2055 4.0446C19.2055 3.84573 19.2845 3.655 19.4251 3.51435V3.51585Z" fill="black"/>
<path d="M15 12C15 12.7956 14.6839 13.5587 14.1213 14.1213C13.5587 14.6839 12.7956 15 12 15C11.2044 15 10.4413 14.6839 9.87868 14.1213C9.31607 13.5587 9 12.7956 9 12C9 11.2044 9.31607 10.4413 9.87868 9.87868C10.4413 9.31607 11.2044 9 12 9C12.7956 9 13.5587 9.31607 14.1213 9.87868C14.6839 10.4413 15 11.2044 15 12Z" fill="black"/>
</g>
<defs>
<clipPath id="clip0_1315_479">
<rect width="24" height="24" fill="white"/>
</clipPath>
</defs>
</svg>
