<svg width="24" height="24" viewBox="0 0 24 24" fill="none" xmlns="http://www.w3.org/2000/svg">
<g clip-path="url(#clip0_1315_482)">
<path fill-rule="evenodd" clip-rule="evenodd" d="M23.7375 0.17986C23.8606 0.284954 23.9465 0.427059 23.9821 0.584947C24.0178 0.742835 24.0015 0.908032 23.9355 1.05586C21.6405 6.20086 16.821 13.3109 13.293 17.0159C12.3042 18.0523 11.0846 18.8407 9.73353 19.3169C9.70653 19.6574 9.64353 20.1239 9.49353 20.6189C9.19203 21.6074 8.49303 22.8374 6.93153 23.2289C5.41928 23.589 3.85206 23.6562 2.31453 23.4269C2.02812 23.3818 1.74574 23.3141 1.47003 23.2244C1.21593 23.1467 0.979137 23.0209 0.772529 22.8539C0.635986 22.7377 0.530772 22.5892 0.466529 22.4219C0.386907 22.2071 0.389042 21.9706 0.472529 21.7574C0.615029 21.3899 0.94653 21.1874 1.16403 21.0794C1.75353 20.7839 2.10153 20.3999 2.46453 19.8404C2.60553 19.6244 2.74053 19.3949 2.89503 19.1324L3.07053 18.8354C3.29703 18.4529 3.55953 18.0254 3.88953 17.5634C4.68153 16.4549 5.68953 16.1759 6.50853 16.2194C6.69753 16.2299 6.87303 16.2569 7.03053 16.2914C7.12353 16.0334 7.24353 15.7214 7.38753 15.3794C7.77903 14.4509 8.37453 13.2509 9.16803 12.2759C12.4305 8.27086 18.438 2.96686 22.8435 0.11986C22.9792 0.0323193 23.1394 -0.00912566 23.3005 0.00168398C23.4615 0.0124936 23.6148 0.0749809 23.7375 0.17986Z" fill="black"/>
</g>
<defs>
<clipPath id="clip0_1315_482">
<rect width="24" height="24" fill="white"/>
</clipPath>
</defs>
</svg>
