<svg width="24" height="24" viewBox="0 0 24 24" fill="none" xmlns="http://www.w3.org/2000/svg">
<path fill-rule="evenodd" clip-rule="evenodd" d="M5.25 0C5.44891 0 5.63968 0.0790176 5.78033 0.21967C5.92098 0.360322 6 0.551088 6 0.75V1.5H18V0.75C18 0.551088 18.079 0.360322 18.2197 0.21967C18.3603 0.0790176 18.5511 0 18.75 0C18.9489 0 19.1397 0.0790176 19.2803 0.21967C19.421 0.360322 19.5 0.551088 19.5 0.75V1.5H21C21.7956 1.5 22.5587 1.81607 23.1213 2.37868C23.6839 2.94129 24 3.70435 24 4.5V21C24 21.7956 23.6839 22.5587 23.1213 23.1213C22.5587 23.6839 21.7956 24 21 24H3C2.20435 24 1.44129 23.6839 0.87868 23.1213C0.316071 22.5587 0 21.7956 0 21V4.5C0 3.70435 0.316071 2.94129 0.87868 2.37868C1.44129 1.81607 2.20435 1.5 3 1.5H4.5V0.75C4.5 0.551088 4.57902 0.360322 4.71967 0.21967C4.86032 0.0790176 5.05109 0 5.25 0V0ZM1.5 6V21C1.5 21.3978 1.65804 21.7794 1.93934 22.0607C2.22064 22.342 2.60218 22.5 3 22.5H21C21.3978 22.5 21.7794 22.342 22.0607 22.0607C22.342 21.7794 22.5 21.3978 22.5 21V6H1.5Z" fill="black"/>
<path d="M3.84015 16.998L4.65015 14.595H7.62615L8.43615 16.998H9.51315L6.66615 9H5.62215L2.77515 16.998H3.84015ZM6.15615 10.2075L7.35015 13.77H4.92615L6.12615 10.2075H6.15615ZM14.7751 10.8405H13.7611V14.655C13.7611 15.633 13.1401 16.1895 12.2551 16.1895C11.4466 16.1895 10.7851 15.8205 10.7851 14.6715V10.8405H9.77115V14.9595C9.77115 16.371 10.6801 17.097 11.9506 17.097C12.9346 17.097 13.5151 16.677 13.7326 16.1895H13.7731V16.998H14.7751V10.8405ZM18.1621 18.4095C17.3176 18.4095 16.7971 17.9535 16.6846 17.4555H15.6541C15.7951 18.48 16.5916 19.254 18.1561 19.254C19.5511 19.254 20.7751 18.4635 20.7751 16.887V10.8405H19.8016V11.7075H19.7731C19.4866 11.1855 18.8176 10.7475 17.9806 10.7475C16.5331 10.7475 15.5206 11.766 15.5206 13.5765V14.0865C15.5206 15.9315 16.5451 16.9395 17.9806 16.9395C18.8176 16.9395 19.4926 16.5 19.7386 15.9675H19.7686V16.875C19.7686 17.8425 19.1341 18.4095 18.1621 18.4095ZM18.1741 11.6145C19.1461 11.6145 19.7671 12.405 19.7671 13.653V14.0325C19.7671 15.3045 19.1821 16.0785 18.1741 16.0785C17.1361 16.0785 16.5271 15.3105 16.5271 14.0325V13.653C16.5271 12.351 17.1361 11.613 18.1741 11.613V11.6145Z" fill="black"/>
</svg>
