<svg width="24" height="24" viewBox="0 0 24 24" fill="none" xmlns="http://www.w3.org/2000/svg">
<path fill-rule="evenodd" clip-rule="evenodd" d="M5.25 0C5.44891 0 5.63968 0.0790176 5.78033 0.21967C5.92098 0.360322 6 0.551088 6 0.75V1.5H18V0.75C18 0.551088 18.079 0.360322 18.2197 0.21967C18.3603 0.0790176 18.5511 0 18.75 0C18.9489 0 19.1397 0.0790176 19.2803 0.21967C19.421 0.360322 19.5 0.551088 19.5 0.75V1.5H21C21.7956 1.5 22.5587 1.81607 23.1213 2.37868C23.6839 2.94129 24 3.70435 24 4.5V21C24 21.7956 23.6839 22.5587 23.1213 23.1213C22.5587 23.6839 21.7956 24 21 24H3C2.20435 24 1.44129 23.6839 0.87868 23.1213C0.316071 22.5587 0 21.7956 0 21V4.5C0 3.70435 0.316071 2.94129 0.87868 2.37868C1.44129 1.81607 2.20435 1.5 3 1.5H4.5V0.75C4.5 0.551088 4.57902 0.360322 4.71967 0.21967C4.86032 0.0790176 5.05109 0 5.25 0V0ZM1.5 6V21C1.5 21.3978 1.65804 21.7794 1.93934 22.0607C2.22064 22.342 2.60218 22.5 3 22.5H21C21.3978 22.5 21.7794 22.342 22.0607 22.0607C22.342 21.7794 22.5 21.3978 22.5 21V6H1.5Z" fill="black"/>
<path fill-rule="evenodd" clip-rule="evenodd" d="M16.2808 10.7189C16.3507 10.7885 16.4061 10.8713 16.4439 10.9624C16.4817 11.0535 16.5012 11.1512 16.5012 11.2499C16.5012 11.3485 16.4817 11.4462 16.4439 11.5373C16.4061 11.6284 16.3507 11.7112 16.2808 11.7809L11.7808 16.2809C11.7112 16.3507 11.6284 16.4061 11.5373 16.4439C11.4462 16.4818 11.3485 16.5012 11.2498 16.5012C11.1512 16.5012 11.0535 16.4818 10.9624 16.4439C10.8713 16.4061 10.7885 16.3507 10.7188 16.2809L8.46885 14.0309C8.39912 13.9611 8.3438 13.8784 8.30606 13.7873C8.26833 13.6961 8.2489 13.5985 8.2489 13.4999C8.2489 13.4013 8.26833 13.3036 8.30606 13.2125C8.3438 13.1214 8.39912 13.0386 8.46885 12.9689C8.60968 12.828 8.80069 12.7489 8.99985 12.7489C9.09846 12.7489 9.19612 12.7684 9.28722 12.8061C9.37833 12.8438 9.46112 12.8991 9.53085 12.9689L11.2498 14.6894L15.2188 10.7189C15.2885 10.649 15.3713 10.5936 15.4624 10.5558C15.5535 10.518 15.6512 10.4985 15.7498 10.4985C15.8485 10.4985 15.9462 10.518 16.0373 10.5558C16.1284 10.5936 16.2112 10.649 16.2808 10.7189Z" fill="black"/>
</svg>
