<svg width="24" height="24" viewBox="0 0 24 24" fill="none" xmlns="http://www.w3.org/2000/svg">
<g clip-path="url(#clip0_1315_620)">
<path fill-rule="evenodd" clip-rule="evenodd" d="M3 0C2.20435 0 1.44129 0.316071 0.87868 0.87868C0.316071 1.44129 0 2.20435 0 3H24C24 2.20435 23.6839 1.44129 23.1213 0.87868C22.5587 0.316071 21.7956 0 21 0L3 0ZM24 4.5H0V21C0 21.7956 0.316071 22.5587 0.87868 23.1213C1.44129 23.6839 2.20435 24 3 24H21C21.7956 24 22.5587 23.6839 23.1213 23.1213C23.6839 22.5587 24 21.7956 24 21V4.5ZM21 9C21 9.39782 20.842 9.77936 20.5607 10.0607C20.2794 10.342 19.8978 10.5 19.5 10.5C19.1022 10.5 18.7206 10.342 18.4393 10.0607C18.158 9.77936 18 9.39782 18 9C18 8.60218 18.158 8.22064 18.4393 7.93934C18.7206 7.65804 19.1022 7.5 19.5 7.5C19.8978 7.5 20.2794 7.65804 20.5607 7.93934C20.842 8.22064 21 8.60218 21 9Z" fill="black"/>
</g>
<defs>
<clipPath id="clip0_1315_620">
<rect width="24" height="24" fill="white"/>
</clipPath>
</defs>
</svg>
