<svg width="24" height="24" viewBox="0 0 24 24" fill="none" xmlns="http://www.w3.org/2000/svg">
<path fill-rule="evenodd" clip-rule="evenodd" d="M10.9051 1.57053C11.0454 1.42067 11.215 1.3012 11.4033 1.21952C11.5917 1.13785 11.7948 1.0957 12.0001 1.0957C12.2054 1.0957 12.4085 1.13785 12.5968 1.21952C12.7852 1.3012 12.9548 1.42067 13.0951 1.57053L22.6126 11.7255C23.5126 12.6825 22.8316 14.25 21.5176 14.25H17.2501V15.75C17.2501 16.1479 17.0921 16.5294 16.8107 16.8107C16.5294 17.092 16.1479 17.25 15.7501 17.25H8.25009C7.85226 17.25 7.47073 17.092 7.18943 16.8107C6.90812 16.5294 6.75009 16.1479 6.75009 15.75V14.25H2.48109C1.17009 14.25 0.489086 12.6825 1.38609 11.724L10.9051 1.57053ZM21.5191 12.75L12.0001 2.59653L2.48109 12.75H6.75009C7.14791 12.75 7.52944 12.9081 7.81075 13.1894C8.09205 13.4707 8.25009 13.8522 8.25009 14.25V15.75H15.7501V14.25C15.7501 13.8522 15.9081 13.4707 16.1894 13.1894C16.4707 12.9081 16.8523 12.75 17.2501 12.75H21.5191ZM6.75009 20.25C6.75009 19.8522 6.90812 19.4707 7.18943 19.1894C7.47073 18.9081 7.85226 18.75 8.25009 18.75H15.7501C16.1479 18.75 16.5294 18.9081 16.8107 19.1894C17.0921 19.4707 17.2501 19.8522 17.2501 20.25V21.75C17.2501 22.1479 17.0921 22.5294 16.8107 22.8107C16.5294 23.092 16.1479 23.25 15.7501 23.25H8.25009C7.85226 23.25 7.47073 23.092 7.18943 22.8107C6.90812 22.5294 6.75009 22.1479 6.75009 21.75V20.25ZM15.7501 20.25H8.25009V21.75H15.7501V20.25Z" fill="black"/>
</svg>
