<svg width="24" height="24" viewBox="0 0 24 24" fill="none" xmlns="http://www.w3.org/2000/svg">
<path fill-rule="evenodd" clip-rule="evenodd" d="M0 3C0 2.20435 0.316071 1.44129 0.87868 0.87868C1.44129 0.316071 2.20435 0 3 0L21 0C21.7956 0 22.5587 0.316071 23.1213 0.87868C23.6839 1.44129 24 2.20435 24 3V21C24 21.7956 23.6839 22.5587 23.1213 23.1213C22.5587 23.6839 21.7956 24 21 24H3C2.20435 24 1.44129 23.6839 0.87868 23.1213C0.316071 22.5587 0 21.7956 0 21V3ZM15.75 18C15.75 18.1446 15.7083 18.2861 15.6298 18.4075C15.5513 18.5289 15.4394 18.625 15.3075 18.6843C15.1756 18.7435 15.0295 18.7634 14.8865 18.7416C14.7436 18.7197 14.6101 18.657 14.502 18.561L7.752 12.561C7.67269 12.4906 7.60921 12.4042 7.56573 12.3075C7.52225 12.2108 7.49977 12.106 7.49977 12C7.49977 11.894 7.52225 11.7892 7.56573 11.6925C7.60921 11.5958 7.67269 11.5094 7.752 11.439L14.502 5.439C14.6101 5.343 14.7436 5.2803 14.8865 5.25843C15.0295 5.23656 15.1756 5.25646 15.3075 5.31574C15.4394 5.37501 15.5513 5.47113 15.6298 5.59253C15.7083 5.71393 15.75 5.85543 15.75 6V18Z" fill="black"/>
</svg>
