<svg width="24" height="24" viewBox="0 0 24 24" fill="none" xmlns="http://www.w3.org/2000/svg">
<g clip-path="url(#clip0_1315_714)">
<path fill-rule="evenodd" clip-rule="evenodd" d="M21 1.5H3C2.60218 1.5 2.22064 1.65804 1.93934 1.93934C1.65804 2.22064 1.5 2.60218 1.5 3V21C1.5 21.3978 1.65804 21.7794 1.93934 22.0607C2.22064 22.342 2.60218 22.5 3 22.5H21C21.3978 22.5 21.7794 22.342 22.0607 22.0607C22.342 21.7794 22.5 21.3978 22.5 21V3C22.5 2.60218 22.342 2.22064 22.0607 1.93934C21.7794 1.65804 21.3978 1.5 21 1.5ZM3 0C2.20435 0 1.44129 0.316071 0.87868 0.87868C0.316071 1.44129 0 2.20435 0 3L0 21C0 21.7956 0.316071 22.5587 0.87868 23.1213C1.44129 23.6839 2.20435 24 3 24H21C21.7956 24 22.5587 23.6839 23.1213 23.1213C23.6839 22.5587 24 21.7956 24 21V3C24 2.20435 23.6839 1.44129 23.1213 0.87868C22.5587 0.316071 21.7956 0 21 0L3 0Z" fill="black"/>
<path fill-rule="evenodd" clip-rule="evenodd" d="M15.3074 18.6838C15.4392 18.6246 15.5511 18.5285 15.6296 18.4072C15.7081 18.2858 15.7498 18.1444 15.7499 17.9998V5.99983C15.7499 5.85526 15.7082 5.71376 15.6296 5.59236C15.5511 5.47097 15.4392 5.37484 15.3074 5.31557C15.1755 5.2563 15.0293 5.2364 14.8864 5.25826C14.7435 5.28013 14.61 5.34284 14.5019 5.43883L7.75186 11.4388C7.67255 11.5092 7.60907 11.5956 7.56559 11.6923C7.52211 11.789 7.49963 11.8938 7.49963 11.9998C7.49963 12.1059 7.52211 12.2107 7.56559 12.3074C7.60907 12.4041 7.67255 12.4905 7.75186 12.5608L14.5019 18.5608C14.61 18.6568 14.7435 18.7194 14.8864 18.7413C15.0294 18.7631 15.1755 18.7431 15.3074 18.6838Z" fill="black"/>
</g>
<defs>
<clipPath id="clip0_1315_714">
<rect width="24" height="24" fill="white"/>
</clipPath>
</defs>
</svg>
