<svg width="24" height="24" viewBox="0 0 24 24" fill="none" xmlns="http://www.w3.org/2000/svg">
<g clip-path="url(#clip0_1315_771)">
<path fill-rule="evenodd" clip-rule="evenodd" d="M22.5 6H1.5V18H22.5V6ZM1.5 4.5C1.10218 4.5 0.720644 4.65804 0.43934 4.93934C0.158035 5.22064 0 5.60218 0 6L0 18C0 18.3978 0.158035 18.7794 0.43934 19.0607C0.720644 19.342 1.10218 19.5 1.5 19.5H22.5C22.8978 19.5 23.2794 19.342 23.5607 19.0607C23.842 18.7794 24 18.3978 24 18V6C24 5.60218 23.842 5.22064 23.5607 4.93934C23.2794 4.65804 22.8978 4.5 22.5 4.5H1.5Z" fill="black"/>
<path d="M19.5 6C19.5 6.79565 19.8161 7.55871 20.3787 8.12132C20.9413 8.68393 21.7044 9 22.5 9V6H19.5ZM4.5 6C4.5 6.79565 4.18393 7.55871 3.62132 8.12132C3.05871 8.68393 2.29565 9 1.5 9V6H4.5ZM19.5 18C19.5 17.2044 19.8161 16.4413 20.3787 15.8787C20.9413 15.3161 21.7044 15 22.5 15V18H19.5ZM4.5 18C4.5 17.2044 4.18393 16.4413 3.62132 15.8787C3.05871 15.3161 2.29565 15 1.5 15V18H4.5ZM15 12C15 12.7956 14.6839 13.5587 14.1213 14.1213C13.5587 14.6839 12.7956 15 12 15C11.2044 15 10.4413 14.6839 9.87868 14.1213C9.31607 13.5587 9 12.7956 9 12C9 11.2044 9.31607 10.4413 9.87868 9.87868C10.4413 9.31607 11.2044 9 12 9C12.7956 9 13.5587 9.31607 14.1213 9.87868C14.6839 10.4413 15 11.2044 15 12Z" fill="black"/>
</g>
<defs>
<clipPath id="clip0_1315_771">
<rect width="24" height="24" fill="white"/>
</clipPath>
</defs>
</svg>
