<svg width="24" height="24" viewBox="0 0 24 24" fill="none" xmlns="http://www.w3.org/2000/svg">
<path fill-rule="evenodd" clip-rule="evenodd" d="M5.469 15.2189C5.53867 15.149 5.62143 15.0936 5.71255 15.0558C5.80367 15.018 5.90135 14.9985 6 14.9985C6.09865 14.9985 6.19633 15.018 6.28745 15.0558C6.37857 15.0936 6.46133 15.149 6.531 15.2189L12 20.6894L17.469 15.2189C17.6098 15.078 17.8008 14.9989 18 14.9989C18.1992 14.9989 18.3902 15.078 18.531 15.2189C18.6718 15.3597 18.7509 15.5507 18.7509 15.7499C18.7509 15.949 18.6718 16.14 18.531 16.2809L12.531 22.2809C12.4613 22.3507 12.3786 22.4061 12.2874 22.4439C12.1963 22.4818 12.0987 22.5012 12 22.5012C11.9013 22.5012 11.8037 22.4818 11.7125 22.4439C11.6214 22.4061 11.5387 22.3507 11.469 22.2809L5.469 16.2809C5.39915 16.2112 5.34374 16.1284 5.30593 16.0373C5.26812 15.9462 5.24866 15.8485 5.24866 15.7499C5.24866 15.6512 5.26812 15.5535 5.30593 15.4624C5.34374 15.3713 5.39915 15.2885 5.469 15.2189ZM5.469 8.78088C5.53867 8.85072 5.62143 8.90614 5.71255 8.94395C5.80367 8.98175 5.90135 9.00122 6 9.00122C6.09865 9.00122 6.19633 8.98175 6.28745 8.94395C6.37857 8.90614 6.46133 8.85072 6.531 8.78088L12 3.31038L17.469 8.78088C17.6098 8.92171 17.8008 9.00082 18 9.00082C18.1992 9.00082 18.3902 8.92171 18.531 8.78088C18.6718 8.64005 18.7509 8.44904 18.7509 8.24988C18.7509 8.05071 18.6718 7.85971 18.531 7.71888L12.531 1.71888C12.4613 1.64903 12.3786 1.59362 12.2874 1.55581C12.1963 1.518 12.0987 1.49854 12 1.49854C11.9013 1.49854 11.8037 1.518 11.7125 1.55581C11.6214 1.59362 11.5387 1.64903 11.469 1.71888L5.469 7.71888C5.39915 7.78854 5.34374 7.87131 5.30593 7.96243C5.26812 8.05354 5.24866 8.15123 5.24866 8.24988C5.24866 8.34853 5.26812 8.44621 5.30593 8.53733C5.34374 8.62844 5.39915 8.71121 5.469 8.78088ZM1.5 11.9999C1.5 11.801 1.57902 11.6102 1.71967 11.4695C1.86032 11.3289 2.05109 11.2499 2.25 11.2499H21.75C21.9489 11.2499 22.1397 11.3289 22.2803 11.4695C22.421 11.6102 22.5 11.801 22.5 11.9999C22.5 12.1988 22.421 12.3896 22.2803 12.5302C22.1397 12.6709 21.9489 12.7499 21.75 12.7499H2.25C2.05109 12.7499 1.86032 12.6709 1.71967 12.5302C1.57902 12.3896 1.5 12.1988 1.5 11.9999Z" fill="black"/>
</svg>
