<svg width="24" height="24" viewBox="0 0 24 24" fill="none" xmlns="http://www.w3.org/2000/svg">
<path fill-rule="evenodd" clip-rule="evenodd" d="M11.6633 8.32947C11.7676 8.27721 11.8827 8.25 11.9993 8.25C12.116 8.25 12.231 8.27721 12.3353 8.32947L21.3353 12.8295C21.4242 12.8731 21.5035 12.9339 21.5687 13.0084C21.6339 13.0829 21.6838 13.1695 21.7153 13.2633C21.7469 13.3571 21.7596 13.4562 21.7527 13.555C21.7458 13.6537 21.7194 13.7501 21.675 13.8386C21.6307 13.9271 21.5693 14.0059 21.4943 14.0706C21.4194 14.1352 21.3324 14.1844 21.2383 14.2152C21.1443 14.2461 21.045 14.258 20.9463 14.2503C20.8477 14.2426 20.7515 14.2155 20.6633 14.1705L11.9993 9.83997L3.33533 14.1705C3.24719 14.2155 3.151 14.2426 3.05232 14.2503C2.95364 14.258 2.85441 14.2461 2.76036 14.2152C2.66632 14.1844 2.5793 14.1352 2.50435 14.0706C2.42939 14.0059 2.36797 13.9271 2.32362 13.8386C2.27928 13.7501 2.25289 13.6537 2.24597 13.555C2.23906 13.4562 2.25176 13.3571 2.28334 13.2633C2.31492 13.1695 2.36475 13.0829 2.42997 13.0084C2.49519 12.9339 2.5745 12.8731 2.66333 12.8295L11.6633 8.32947Z" fill="black"/>
</svg>
