<svg width="24" height="24" viewBox="0 0 24 24" fill="none" xmlns="http://www.w3.org/2000/svg">
<path fill-rule="evenodd" clip-rule="evenodd" d="M2.32887 10.1641C2.41799 9.98664 2.57383 9.85179 2.76223 9.78909C2.95062 9.72638 3.1562 9.74094 3.33387 9.82957L11.9994 14.1601L20.6634 9.82807C20.7515 9.78305 20.8477 9.75591 20.9464 9.74823C21.0451 9.74055 21.1443 9.75248 21.2383 9.78334C21.3324 9.81419 21.4194 9.86335 21.4944 9.92799C21.5693 9.99263 21.6307 10.0715 21.6751 10.16C21.7194 10.2485 21.7458 10.3448 21.7527 10.4436C21.7596 10.5423 21.7469 10.6415 21.7154 10.7353C21.6838 10.8291 21.634 10.9157 21.5687 10.9902C21.5035 11.0646 21.4242 11.1254 21.3354 11.1691L12.3354 15.6691C12.2311 15.7213 12.116 15.7485 11.9994 15.7485C11.8827 15.7485 11.7677 15.7213 11.6634 15.6691L2.66337 11.1691C2.48594 11.08 2.35109 10.9241 2.28838 10.7357C2.22568 10.5473 2.24024 10.3418 2.32887 10.1641Z" fill="black"/>
</svg>
