<svg width="24" height="24" viewBox="0 0 24 24" fill="none" xmlns="http://www.w3.org/2000/svg">
<path fill-rule="evenodd" clip-rule="evenodd" d="M5.469 6.21888C5.53867 6.14903 5.62143 6.09362 5.71255 6.05581C5.80367 6.018 5.90135 5.99854 6 5.99854C6.09865 5.99854 6.19633 6.018 6.28745 6.05581C6.37857 6.09362 6.46133 6.14903 6.531 6.21888L12 11.6894L17.469 6.21888C17.6098 6.07805 17.8008 5.99893 18 5.99893C18.1992 5.99893 18.3902 6.07805 18.531 6.21888C18.6718 6.35971 18.7509 6.55071 18.7509 6.74988C18.7509 6.94904 18.6718 7.14005 18.531 7.28088L12.531 13.2809C12.4613 13.3507 12.3786 13.4061 12.2874 13.4439C12.1963 13.4818 12.0987 13.5012 12 13.5012C11.9013 13.5012 11.8037 13.4818 11.7125 13.4439C11.6214 13.4061 11.5387 13.3507 11.469 13.2809L5.469 7.28088C5.39915 7.21121 5.34374 7.12844 5.30593 7.03733C5.26812 6.94621 5.24866 6.84853 5.24866 6.74988C5.24866 6.65122 5.26812 6.55354 5.30593 6.46243C5.34374 6.37131 5.39915 6.28854 5.469 6.21888ZM1.5 17.2499C1.5 17.051 1.57902 16.8602 1.71967 16.7195C1.86032 16.5789 2.05109 16.4999 2.25 16.4999H21.75C21.9489 16.4999 22.1397 16.5789 22.2803 16.7195C22.421 16.8602 22.5 17.051 22.5 17.2499C22.5 17.4488 22.421 17.6396 22.2803 17.7802C22.1397 17.9209 21.9489 17.9999 21.75 17.9999H2.25C2.05109 17.9999 1.86032 17.9209 1.71967 17.7802C1.57902 17.6396 1.5 17.4488 1.5 17.2499Z" fill="black"/>
</svg>
