<svg width="24" height="24" viewBox="0 0 24 24" fill="none" xmlns="http://www.w3.org/2000/svg">
<path fill-rule="evenodd" clip-rule="evenodd" d="M11.4685 3.96888C11.5382 3.89903 11.6209 3.84362 11.712 3.80581C11.8032 3.768 11.9008 3.74854 11.9995 3.74854C12.0981 3.74854 12.1958 3.768 12.2869 3.80581C12.378 3.84362 12.4608 3.89903 12.5305 3.96888L21.5305 12.9689C21.6713 13.1097 21.7504 13.3007 21.7504 13.4999C21.7504 13.699 21.6713 13.89 21.5305 14.0309C21.3897 14.1717 21.1986 14.2508 20.9995 14.2508C20.8003 14.2508 20.6093 14.1717 20.4685 14.0309L11.9995 5.56038L3.53048 14.0309C3.38965 14.1717 3.19865 14.2508 2.99948 14.2508C2.80032 14.2508 2.60931 14.1717 2.46848 14.0309C2.32765 13.89 2.24854 13.699 2.24854 13.4999C2.24854 13.3007 2.32765 13.1097 2.46848 12.9689L11.4685 3.96888Z" fill="black"/>
<path fill-rule="evenodd" clip-rule="evenodd" d="M11.4685 9.96888C11.5382 9.89903 11.6209 9.84362 11.712 9.80581C11.8032 9.768 11.9008 9.74854 11.9995 9.74854C12.0981 9.74854 12.1958 9.768 12.2869 9.80581C12.378 9.84362 12.4608 9.89903 12.5305 9.96888L21.5305 18.9689C21.6713 19.1097 21.7504 19.3007 21.7504 19.4999C21.7504 19.699 21.6713 19.89 21.5305 20.0309C21.3897 20.1717 21.1986 20.2508 20.9995 20.2508C20.8003 20.2508 20.6093 20.1717 20.4685 20.0309L11.9995 11.5604L3.53048 20.0309C3.38965 20.1717 3.19865 20.2508 2.99948 20.2508C2.80032 20.2508 2.60931 20.1717 2.46848 20.0309C2.32765 19.89 2.24854 19.699 2.24854 19.4999C2.24854 19.3007 2.32765 19.1097 2.46848 18.9689L11.4685 9.96888Z" fill="black"/>
</svg>
