<svg width="24" height="24" viewBox="0 0 24 24" fill="none" xmlns="http://www.w3.org/2000/svg">
<path fill-rule="evenodd" clip-rule="evenodd" d="M5.46888 13.7189C5.53854 13.649 5.62131 13.5936 5.71243 13.5558C5.80354 13.518 5.90122 13.4985 5.99988 13.4985C6.09853 13.4985 6.19621 13.518 6.28733 13.5558C6.37844 13.5936 6.46121 13.649 6.53088 13.7189L11.9999 19.1894L17.4689 13.7189C17.6097 13.578 17.8007 13.4989 17.9999 13.4989C18.199 13.4989 18.39 13.578 18.5309 13.7189C18.6717 13.8597 18.7508 14.0507 18.7508 14.2499C18.7508 14.449 18.6717 14.64 18.5309 14.7809L12.5309 20.7809C12.4612 20.8507 12.3784 20.9061 12.2873 20.9439C12.1962 20.9818 12.0985 21.0012 11.9999 21.0012C11.9012 21.0012 11.8035 20.9818 11.7124 20.9439C11.6213 20.9061 11.5385 20.8507 11.4689 20.7809L5.46888 14.7809C5.39903 14.7112 5.34362 14.6284 5.30581 14.5373C5.268 14.4462 5.24854 14.3485 5.24854 14.2499C5.24854 14.1512 5.268 14.0535 5.30581 13.9624C5.34362 13.8713 5.39903 13.7885 5.46888 13.7189ZM5.46888 10.2809C5.53854 10.3507 5.62131 10.4061 5.71243 10.4439C5.80354 10.4818 5.90122 10.5012 5.99988 10.5012C6.09853 10.5012 6.19621 10.4818 6.28733 10.4439C6.37844 10.4061 6.46121 10.3507 6.53088 10.2809L11.9999 4.81038L17.4689 10.2809C17.6097 10.4217 17.8007 10.5008 17.9999 10.5008C18.199 10.5008 18.39 10.4217 18.5309 10.2809C18.6717 10.14 18.7508 9.94904 18.7508 9.74988C18.7508 9.55071 18.6717 9.35971 18.5309 9.21888L12.5309 3.21888C12.4612 3.14903 12.3784 3.09362 12.2873 3.05581C12.1962 3.018 12.0985 2.99854 11.9999 2.99854C11.9012 2.99854 11.8035 3.018 11.7124 3.05581C11.6213 3.09362 11.5385 3.14903 11.4689 3.21888L5.46888 9.21888C5.39903 9.28854 5.34362 9.37131 5.30581 9.46243C5.268 9.55354 5.24854 9.65123 5.24854 9.74988C5.24854 9.84853 5.268 9.94621 5.30581 10.0373C5.34362 10.1284 5.39903 10.2112 5.46888 10.2809Z" fill="black"/>
</svg>
