<svg width="24" height="24" viewBox="0 0 24 24" fill="none" xmlns="http://www.w3.org/2000/svg">
<g clip-path="url(#clip0_1315_972)">
<path fill-rule="evenodd" clip-rule="evenodd" d="M0 3C-1.97963 3.00621 -3.89178 3.7202 -5.391 5.013C-6.54 6.003 -7.3725 7.293 -7.587 8.5875C-10.101 9.1425 -12 11.3325 -12 13.977C-12 17.049 -9.438 19.5 -6.3285 19.5H7.0305C9.753 19.5 12 17.355 12 14.6595C12 12.2055 10.137 10.206 7.749 9.8685C7.3845 5.9985 4.035 3 0 3ZM3.531 10.281C3.67183 10.1402 3.75095 9.94916 3.75095 9.75C3.75095 9.55084 3.67183 9.35983 3.531 9.219C3.39017 9.07817 3.19916 8.99905 3 8.99905C2.80084 8.99905 2.60983 9.07817 2.469 9.219L-1.5 13.1895L-3.219 11.469C-3.28873 11.3993 -3.37152 11.344 -3.46262 11.3062C-3.55373 11.2685 -3.65138 11.2491 -3.75 11.2491C-3.84862 11.2491 -3.94627 11.2685 -4.03738 11.3062C-4.12848 11.344 -4.21127 11.3993 -4.281 11.469C-4.35073 11.5387 -4.40605 11.6215 -4.44379 11.7126C-4.48152 11.8037 -4.50095 11.9014 -4.50095 12C-4.50095 12.0986 -4.48152 12.1963 -4.44379 12.2874C-4.40605 12.3785 -4.35073 12.4613 -4.281 12.531L-2.031 14.781C-1.96133 14.8508 -1.87857 14.9063 -1.78745 14.9441C-1.69633 14.9819 -1.59865 15.0013 -1.5 15.0013C-1.40135 15.0013 -1.30367 14.9819 -1.21255 14.9441C-1.12143 14.9063 -1.03867 14.8508 -0.969 14.781L3.531 10.281Z" fill="black"/>
</g>
<defs>
<clipPath id="clip0_1315_972">
<rect width="24" height="24" fill="white"/>
</clipPath>
</defs>
</svg>
