<svg width="24" height="24" viewBox="0 0 24 24" fill="none" xmlns="http://www.w3.org/2000/svg">
<g clip-path="url(#clip0_1315_996)">
<path fill-rule="evenodd" clip-rule="evenodd" d="M-7.332 7.66799C-7.44806 7.96502 -7.5335 8.27312 -7.587 8.58749C-10.101 9.14249 -12 11.3325 -12 13.977C-12 17.049 -9.438 19.5 -6.3285 19.5H4.5L3 18H-6.3285C-8.6535 18 -10.5 16.1775 -10.5 13.977C-10.5 11.9295 -8.904 10.2075 -6.81 9.97799L-6.141 9.90299V9.23249C-6.141 9.11999 -6.132 9.00449 -6.114 8.88599L-7.332 7.66799ZM-3.507 5.49299L-4.5945 4.40549C-3.23589 3.49252 -1.63686 3.00336 0 2.99999C4.035 2.99999 7.3845 5.99999 7.749 9.86849C10.137 10.206 12 12.2055 12 14.6595C11.9974 15.4746 11.7873 16.2757 11.3895 16.9872C10.9916 17.6986 10.4191 18.297 9.726 18.726L8.6265 17.6265C9.747 17.067 10.5 15.939 10.5 14.6595C10.5 12.8355 8.97 11.3175 7.0305 11.3175H6.2805V10.5675C6.282 7.23749 3.492 4.49999 0 4.49999C-1.3125 4.49999 -2.517 4.88999 -3.5085 5.49149L-3.507 5.49299ZM8.469 21.531L-9.531 3.53099L-8.469 2.46899L9.531 20.469L8.4705 21.5295L8.469 21.531Z" fill="black"/>
</g>
<defs>
<clipPath id="clip0_1315_996">
<rect width="24" height="24" fill="white"/>
</clipPath>
</defs>
</svg>
