<svg width="24" height="24" viewBox="0 0 24 24" fill="none" xmlns="http://www.w3.org/2000/svg">
<path fill-rule="evenodd" clip-rule="evenodd" d="M8.78088 6.21888C8.85072 6.28855 8.90614 6.37131 8.94395 6.46243C8.98176 6.55355 9.00122 6.65123 9.00122 6.74988C9.00122 6.84853 8.98176 6.94621 8.94395 7.03733C8.90614 7.12845 8.85072 7.21121 8.78088 7.28088L4.06038 11.9999L8.78088 16.7189C8.85061 16.7886 8.90592 16.8714 8.94366 16.9625C8.9814 17.0536 9.00082 17.1513 9.00082 17.2499C9.00082 17.3485 8.9814 17.4461 8.94366 17.5373C8.90592 17.6284 8.85061 17.7111 8.78088 17.7809C8.71114 17.8506 8.62836 17.9059 8.53725 17.9437C8.44614 17.9814 8.34849 18.0008 8.24988 18.0008C8.15126 18.0008 8.05361 17.9814 7.9625 17.9437C7.87139 17.9059 7.78861 17.8506 7.71888 17.7809L2.46888 12.5309C2.39903 12.4612 2.34362 12.3784 2.30581 12.2873C2.268 12.1962 2.24854 12.0985 2.24854 11.9999C2.24854 11.9012 2.268 11.8035 2.30581 11.7124C2.34362 11.6213 2.39903 11.5385 2.46888 11.4689L7.71888 6.21888C7.78854 6.14903 7.87131 6.09362 7.96243 6.05581C8.05354 6.018 8.15123 5.99854 8.24988 5.99854C8.34853 5.99854 8.44621 6.018 8.53733 6.05581C8.62845 6.09362 8.71121 6.14903 8.78088 6.21888ZM15.2189 6.21888C15.149 6.28855 15.0936 6.37131 15.0558 6.46243C15.018 6.55355 14.9985 6.65123 14.9985 6.74988C14.9985 6.84853 15.018 6.94621 15.0558 7.03733C15.0936 7.12845 15.149 7.21121 15.2189 7.28088L19.9394 11.9999L15.2189 16.7189C15.078 16.8597 14.9989 17.0507 14.9989 17.2499C14.9989 17.449 15.078 17.64 15.2189 17.7809C15.3597 17.9217 15.5507 18.0008 15.7499 18.0008C15.949 18.0008 16.14 17.9217 16.2809 17.7809L21.5309 12.5309C21.6007 12.4612 21.6561 12.3784 21.6939 12.2873C21.7318 12.1962 21.7512 12.0985 21.7512 11.9999C21.7512 11.9012 21.7318 11.8035 21.6939 11.7124C21.6561 11.6213 21.6007 11.5385 21.5309 11.4689L16.2809 6.21888C16.2112 6.14903 16.1284 6.09362 16.0373 6.05581C15.9462 6.018 15.8485 5.99854 15.7499 5.99854C15.6512 5.99854 15.5535 6.018 15.4624 6.05581C15.3713 6.09362 15.2885 6.14903 15.2189 6.21888Z" fill="black"/>
</svg>
