<svg width="24" height="24" viewBox="0 0 24 24" fill="none" xmlns="http://www.w3.org/2000/svg">
<path fill-rule="evenodd" clip-rule="evenodd" d="M16.6779 4.03933C18.0339 4.32433 19.3029 4.78183 20.0304 5.50933C20.6409 6.12133 21.1989 7.08433 21.6714 8.16733C22.1514 9.26683 22.5699 10.5538 22.8789 11.8663C23.1879 13.1788 23.3889 14.5363 23.4249 15.7753C23.4609 16.9978 23.3364 18.1783 22.9329 19.0903C22.7489 19.4998 22.4402 19.8406 22.051 20.0642C21.6617 20.2878 21.2118 20.3827 20.7654 20.3353C19.8114 20.2348 19.0929 19.7443 18.4959 19.1758C18.107 18.7895 17.7371 18.3845 17.3874 17.9623C17.1984 17.7418 17.0124 17.5258 16.8354 17.3293C15.7434 16.1233 14.4399 15.0388 11.9994 15.0388C9.55891 15.0388 8.25541 16.1233 7.16341 17.3293C6.98491 17.5258 6.80041 17.7418 6.61141 17.9623C6.24691 18.3868 5.87041 18.8263 5.50291 19.1773C4.90591 19.7443 4.18741 20.2348 3.23341 20.3353C2.78702 20.3827 2.33708 20.2878 1.94783 20.0642C1.55858 19.8406 1.24992 19.4998 1.06591 19.0903C0.660909 18.1783 0.537909 16.9978 0.572409 15.7753C0.608409 14.5363 0.812409 13.1803 1.11991 11.8663C1.42891 10.5538 1.84891 9.26683 2.32741 8.16733C2.79991 7.08433 3.35791 6.12133 3.96841 5.50933C4.69741 4.78183 5.96491 4.32433 7.32091 4.03933C8.71891 3.74533 10.3659 3.60133 11.9994 3.60133C13.6329 3.60133 15.2799 3.74533 16.6779 4.03933ZM7.62991 5.50783C6.31441 5.78533 5.42641 6.17233 5.03041 6.56983C4.61641 6.98383 4.14991 7.74433 3.70291 8.76733C3.2287 9.87971 2.85325 11.0316 2.58091 12.2098C2.2932 13.3932 2.12288 14.602 2.07241 15.8188C2.03941 16.9513 2.16541 17.8708 2.43691 18.4828C2.49251 18.602 2.58402 18.7008 2.69862 18.7654C2.81322 18.83 2.94515 18.857 3.07591 18.8428C3.56641 18.7918 3.99091 18.5443 4.46941 18.0898C4.78741 17.7868 5.06941 17.4553 5.39191 17.0788C5.59141 16.8448 5.80591 16.5943 6.05191 16.3213C7.29091 14.9548 8.96641 13.5388 11.9994 13.5388C15.0324 13.5388 16.7079 14.9533 17.9469 16.3213C18.1929 16.5943 18.4074 16.8463 18.6069 17.0788C18.9279 17.4538 19.2114 17.7868 19.5294 18.0898C20.0064 18.5443 20.4309 18.7918 20.9229 18.8443C21.0538 18.8584 21.1859 18.8311 21.3005 18.7663C21.4151 18.7014 21.5065 18.6023 21.5619 18.4828C21.8319 17.8708 21.9594 16.9528 21.9264 15.8188C21.8759 14.602 21.7056 13.3932 21.4179 12.2098C21.1455 11.0317 20.7701 9.87972 20.2959 8.76733C19.8489 7.74433 19.3809 6.98233 18.9684 6.56983C18.5724 6.17233 17.6844 5.78533 16.3689 5.50783C15.0939 5.23933 13.5534 5.10283 11.9994 5.10283C10.4454 5.10283 8.90491 5.23933 7.62991 5.50783Z" fill="black"/>
<path d="M17.25 9.03883C17.25 9.23774 17.171 9.4285 17.0303 9.56916C16.8897 9.70981 16.6989 9.78883 16.5 9.78883C16.3011 9.78883 16.1103 9.70981 15.9697 9.56916C15.829 9.4285 15.75 9.23774 15.75 9.03883C15.75 8.83991 15.829 8.64915 15.9697 8.5085C16.1103 8.36784 16.3011 8.28883 16.5 8.28883C16.6989 8.28883 16.8897 8.36784 17.0303 8.5085C17.171 8.64915 17.25 8.83991 17.25 9.03883ZM15.75 10.5388C15.75 10.7377 15.671 10.9285 15.5303 11.0692C15.3897 11.2098 15.1989 11.2888 15 11.2888C14.8011 11.2888 14.6103 11.2098 14.4697 11.0692C14.329 10.9285 14.25 10.7377 14.25 10.5388C14.25 10.3399 14.329 10.1491 14.4697 10.0085C14.6103 9.86784 14.8011 9.78883 15 9.78883C15.1989 9.78883 15.3897 9.86784 15.5303 10.0085C15.671 10.1491 15.75 10.3399 15.75 10.5388ZM18.75 10.5388C18.75 10.7377 18.671 10.9285 18.5303 11.0692C18.3897 11.2098 18.1989 11.2888 18 11.2888C17.8011 11.2888 17.6103 11.2098 17.4697 11.0692C17.329 10.9285 17.25 10.7377 17.25 10.5388C17.25 10.3399 17.329 10.1491 17.4697 10.0085C17.6103 9.86784 17.8011 9.78883 18 9.78883C18.1989 9.78883 18.3897 9.86784 18.5303 10.0085C18.671 10.1491 18.75 10.3399 18.75 10.5388ZM17.25 12.0388C17.25 12.2377 17.171 12.4285 17.0303 12.5692C16.8897 12.7098 16.6989 12.7888 16.5 12.7888C16.3011 12.7888 16.1103 12.7098 15.9697 12.5692C15.829 12.4285 15.75 12.2377 15.75 12.0388C15.75 11.8399 15.829 11.6491 15.9697 11.5085C16.1103 11.3678 16.3011 11.2888 16.5 11.2888C16.6989 11.2888 16.8897 11.3678 17.0303 11.5085C17.171 11.6491 17.25 11.8399 17.25 12.0388ZM6.75 8.28883H8.25V12.7888H6.75V8.28883Z" fill="black"/>
<path d="M5.25052 9.78917H9.75052V11.2892H5.25052V9.78917ZM4.57702 4.89017C4.5514 4.79493 4.54481 4.69557 4.55764 4.59778C4.57047 4.49999 4.60247 4.40569 4.65179 4.32028C4.70111 4.23487 4.7668 4.16003 4.84508 4.10004C4.92337 4.04005 5.01272 3.99609 5.10802 3.97067L8.00602 3.19367C8.19691 3.1461 8.39887 3.17543 8.56834 3.27536C8.73781 3.37529 8.86123 3.53781 8.91199 3.72789C8.96276 3.91796 8.9368 4.12037 8.83973 4.29149C8.74265 4.46261 8.58222 4.58873 8.39302 4.64267L5.49502 5.41967C5.30287 5.47096 5.09822 5.44384 4.92606 5.34426C4.75391 5.24468 4.62836 5.08081 4.57702 4.88867V4.89017ZM19.541 4.89017C19.5667 4.79503 19.5733 4.69577 19.5606 4.59805C19.5478 4.50034 19.516 4.40609 19.4668 4.3207C19.4176 4.23531 19.3521 4.16044 19.274 4.10038C19.1959 4.04032 19.1067 3.99625 19.0115 3.97067L16.1135 3.19367C15.9214 3.14216 15.7166 3.16908 15.5443 3.26852C15.372 3.36796 15.2463 3.53177 15.1948 3.72392C15.1432 3.91607 15.1702 4.12082 15.2696 4.29312C15.3691 4.46542 15.5329 4.59116 15.725 4.64267L18.623 5.41967C18.8152 5.47096 19.0198 5.44384 19.192 5.34426C19.3641 5.24468 19.4897 5.08081 19.541 4.88867V4.89017Z" fill="black"/>
</svg>
