<svg width="24" height="24" viewBox="0 0 24 24" fill="none" xmlns="http://www.w3.org/2000/svg">
<g clip-path="url(#clip0_1315_1100)">
<path fill-rule="evenodd" clip-rule="evenodd" d="M13.5969 0.6525C12.7269 -0.2175 11.3169 -0.2175 10.4469 0.6525L0.675938 10.425C-0.194062 11.295 -0.194062 12.7035 0.675938 13.572L10.4499 23.346C11.3199 24.216 12.7284 24.216 13.5969 23.346L23.3709 13.572C24.2409 12.702 24.2409 11.2935 23.3709 10.425L13.5969 0.6525ZM12.0219 1.4835C12.2124 1.4835 12.4014 1.557 12.5469 1.701L22.3209 11.475C22.4602 11.6142 22.5384 11.8031 22.5384 12C22.5384 12.1969 22.4602 12.3858 22.3209 12.525L12.5469 22.299C12.4781 22.3681 12.3963 22.4229 12.3062 22.4602C12.2161 22.4975 12.1195 22.5167 12.0219 22.5165V1.4835Z" fill="black"/>
</g>
<defs>
<clipPath id="clip0_1315_1100">
<rect width="24" height="24" fill="white"/>
</clipPath>
</defs>
</svg>
