<svg width="24" height="24" viewBox="0 0 24 24" fill="none" xmlns="http://www.w3.org/2000/svg">
<path fill-rule="evenodd" clip-rule="evenodd" d="M0 4.5C0 3.30653 0.474106 2.16193 1.31802 1.31802C2.16193 0.474106 3.30653 0 4.5 0L19.5 0C20.6935 0 21.8381 0.474106 22.682 1.31802C23.5259 2.16193 24 3.30653 24 4.5V19.5C24 20.6935 23.5259 21.8381 22.682 22.682C21.8381 23.5259 20.6935 24 19.5 24H4.5C3.30653 24 2.16193 23.5259 1.31802 22.682C0.474106 21.8381 0 20.6935 0 19.5L0 4.5ZM8.25 6C8.25 6.59674 8.01295 7.16903 7.59099 7.59099C7.16903 8.01295 6.59674 8.25 6 8.25C5.40326 8.25 4.83097 8.01295 4.40901 7.59099C3.98705 7.16903 3.75 6.59674 3.75 6C3.75 5.40326 3.98705 4.83097 4.40901 4.40901C4.83097 3.98705 5.40326 3.75 6 3.75C6.59674 3.75 7.16903 3.98705 7.59099 4.40901C8.01295 4.83097 8.25 5.40326 8.25 6ZM18 20.25C18.5967 20.25 19.169 20.0129 19.591 19.591C20.0129 19.169 20.25 18.5967 20.25 18C20.25 17.4033 20.0129 16.831 19.591 16.409C19.169 15.9871 18.5967 15.75 18 15.75C17.4033 15.75 16.831 15.9871 16.409 16.409C15.9871 16.831 15.75 17.4033 15.75 18C15.75 18.5967 15.9871 19.169 16.409 19.591C16.831 20.0129 17.4033 20.25 18 20.25Z" fill="black"/>
</svg>
