<svg width="24" height="24" viewBox="0 0 24 24" fill="none" xmlns="http://www.w3.org/2000/svg">
<path fill-rule="evenodd" clip-rule="evenodd" d="M6 1.5C5.60218 1.5 5.22064 1.65804 4.93934 1.93934C4.65804 2.22064 4.5 2.60218 4.5 3V22.5H2.25C2.05109 22.5 1.86032 22.579 1.71967 22.7197C1.57902 22.8603 1.5 23.0511 1.5 23.25C1.5 23.4489 1.57902 23.6397 1.71967 23.7803C1.86032 23.921 2.05109 24 2.25 24H21.75C21.9489 24 22.1397 23.921 22.2803 23.7803C22.421 23.6397 22.5 23.4489 22.5 23.25C22.5 23.0511 22.421 22.8603 22.2803 22.7197C22.1397 22.579 21.9489 22.5 21.75 22.5H19.5V3C19.5 2.60218 19.342 2.22064 19.0607 1.93934C18.7794 1.65804 18.3978 1.5 18 1.5H6ZM9 15C9.39782 15 9.77936 14.842 10.0607 14.5607C10.342 14.2794 10.5 13.8978 10.5 13.5C10.5 13.1022 10.342 12.7206 10.0607 12.4393C9.77936 12.158 9.39782 12 9 12C8.60218 12 8.22064 12.158 7.93934 12.4393C7.65804 12.7206 7.5 13.1022 7.5 13.5C7.5 13.8978 7.65804 14.2794 7.93934 14.5607C8.22064 14.842 8.60218 15 9 15Z" fill="black"/>
</svg>
