<svg width="24" height="24" viewBox="0 0 24 24" fill="none" xmlns="http://www.w3.org/2000/svg">
<path fill-rule="evenodd" clip-rule="evenodd" d="M0.75 14.8499C0.948912 14.8499 1.13968 14.9289 1.28033 15.0695C1.42098 15.2102 1.5 15.4009 1.5 15.5999V19.3499C1.5 19.7477 1.65804 20.1292 1.93934 20.4105C2.22064 20.6918 2.60218 20.8499 3 20.8499H21C21.3978 20.8499 21.7794 20.6918 22.0607 20.4105C22.342 20.1292 22.5 19.7477 22.5 19.3499V15.5999C22.5 15.4009 22.579 15.2102 22.7197 15.0695C22.8603 14.9289 23.0511 14.8499 23.25 14.8499C23.4489 14.8499 23.6397 14.9289 23.7803 15.0695C23.921 15.2102 24 15.4009 24 15.5999V19.3499C24 20.1455 23.6839 20.9086 23.1213 21.4712C22.5587 22.0338 21.7956 22.3499 21 22.3499H3C2.20435 22.3499 1.44129 22.0338 0.87868 21.4712C0.316071 20.9086 0 20.1455 0 19.3499V15.5999C0 15.4009 0.0790176 15.2102 0.21967 15.0695C0.360322 14.9289 0.551088 14.8499 0.75 14.8499Z" fill="black"/>
<path fill-rule="evenodd" clip-rule="evenodd" d="M11.4699 17.781C11.5396 17.8508 11.6224 17.9063 11.7135 17.9441C11.8046 17.9819 11.9023 18.0013 12.0009 18.0013C12.0996 18.0013 12.1973 17.9819 12.2884 17.9441C12.3795 17.9063 12.4623 17.8508 12.5319 17.781L17.0319 13.281C17.1728 13.1402 17.2519 12.9492 17.2519 12.75C17.2519 12.5508 17.1728 12.3598 17.0319 12.219C16.8911 12.0782 16.7001 11.9991 16.5009 11.9991C16.3018 11.9991 16.1108 12.0782 15.9699 12.219L12.7509 15.4395V2.25C12.7509 2.05109 12.6719 1.86032 12.5313 1.71967C12.3906 1.57902 12.1999 1.5 12.0009 1.5C11.802 1.5 11.6113 1.57902 11.4706 1.71967C11.33 1.86032 11.2509 2.05109 11.2509 2.25V15.4395L8.03195 12.219C7.89112 12.0782 7.70011 11.9991 7.50095 11.9991C7.30178 11.9991 7.11078 12.0782 6.96995 12.219C6.82912 12.3598 6.75 12.5508 6.75 12.75C6.75 12.9492 6.82912 13.1402 6.96995 13.281L11.4699 17.781Z" fill="black"/>
</svg>
