<svg width="24" height="24" viewBox="0 0 24 24" fill="none" xmlns="http://www.w3.org/2000/svg">
<g clip-path="url(#clip0_1315_1184)">
<path fill-rule="evenodd" clip-rule="evenodd" d="M10.2361 6.20713C11.1301 9.41863 9.69608 11.5966 6.65259 12.3826C5.66325 12.6421 4.62738 12.6698 3.62559 12.4636C3.55359 12.4486 4.97559 16.6306 5.90859 19.3786L6.52359 21.1861C6.55573 21.2851 6.56776 21.3894 6.55896 21.4931C6.55016 21.5968 6.52071 21.6976 6.47235 21.7897C6.42399 21.8818 6.35769 21.9633 6.27736 22.0294C6.19703 22.0955 6.10428 22.1449 6.00459 22.1746L5.11509 22.4596C4.91016 22.5276 4.68673 22.5122 4.49307 22.4167C4.29941 22.3213 4.15106 22.1535 4.08009 21.9496L0.274586 10.4851C-0.769414 7.27962 1.26759 4.02163 4.12059 3.28513C7.16409 2.50063 9.22359 3.28513 10.2346 6.20713H10.2361ZM8.93408 9.53863C9.57909 9.37063 9.77559 8.04913 9.37209 6.58513C8.96859 5.12263 8.11808 4.07263 7.47308 4.24063C6.82808 4.40863 6.63159 5.73163 7.03509 7.19413C7.43859 8.65663 8.28908 9.70663 8.93408 9.53863ZM13.7611 6.20713C12.8671 9.41863 14.3011 11.5966 17.3446 12.3826C18.3339 12.642 19.3698 12.6697 20.3716 12.4636C20.4436 12.4486 19.0216 16.6306 18.0886 19.3786L17.4736 21.1861C17.4414 21.2851 17.4294 21.3894 17.4382 21.4931C17.447 21.5968 17.4765 21.6976 17.5248 21.7897C17.5732 21.8818 17.6395 21.9633 17.7198 22.0294C17.8001 22.0955 17.8929 22.1449 17.9926 22.1746L18.8821 22.4596C19.3156 22.5976 19.7821 22.3696 19.9171 21.9496L23.7211 10.4851C24.7651 7.27962 22.7281 4.02163 19.8751 3.28513C16.8316 2.50063 14.7721 3.28513 13.7611 6.20713ZM15.0631 9.53863C14.4181 9.37063 14.2216 8.04913 14.6251 6.58513C15.0286 5.12263 15.8791 4.07263 16.5241 4.24063C17.1691 4.40863 17.3656 5.73163 16.9621 7.19413C16.5586 8.65663 15.7081 9.70663 15.0631 9.53863Z" fill="black"/>
</g>
<defs>
<clipPath id="clip0_1315_1184">
<rect width="24" height="24" fill="white"/>
</clipPath>
</defs>
</svg>
