<svg width="24" height="24" viewBox="0 0 24 24" fill="none" xmlns="http://www.w3.org/2000/svg">
<path fill-rule="evenodd" clip-rule="evenodd" d="M12 22.5C13.9891 22.5 15.8968 21.7098 17.3033 20.3033C18.7098 18.8968 19.5 16.9891 19.5 15C19.5 12.066 18.465 8.571 16.887 5.82C16.101 4.4505 15.219 3.333 14.331 2.574C13.434 1.809 12.642 1.5 12 1.5C11.358 1.5 10.566 1.809 9.669 2.574C8.781 3.333 7.899 4.4505 7.113 5.82C5.535 8.571 4.5 12.066 4.5 15C4.5 16.9891 5.29018 18.8968 6.6967 20.3033C8.10322 21.7098 10.0109 22.5 12 22.5ZM12 24C14.3869 24 16.6761 23.0518 18.364 21.364C20.0518 19.6761 21 17.3869 21 15C21 8.529 16.5 0 12 0C7.5 0 3 8.529 3 15C3 17.3869 3.94821 19.6761 5.63604 21.364C7.32387 23.0518 9.61305 24 12 24Z" fill="black"/>
</svg>
