<svg width="24" height="24" viewBox="0 0 24 24" fill="none" xmlns="http://www.w3.org/2000/svg">
<g clip-path="url(#clip0_1315_1218)">
<path fill-rule="evenodd" clip-rule="evenodd" d="M12 22.5C14.7848 22.5 17.4555 21.3938 19.4246 19.4246C21.3938 17.4555 22.5 14.7848 22.5 12C22.5 9.21523 21.3938 6.54451 19.4246 4.57538C17.4555 2.60625 14.7848 1.5 12 1.5C9.21523 1.5 6.54451 2.60625 4.57538 4.57538C2.60625 6.54451 1.5 9.21523 1.5 12C1.5 14.7848 2.60625 17.4555 4.57538 19.4246C6.54451 21.3938 9.21523 22.5 12 22.5ZM12 24C15.1826 24 18.2348 22.7357 20.4853 20.4853C22.7357 18.2348 24 15.1826 24 12C24 8.8174 22.7357 5.76516 20.4853 3.51472C18.2348 1.26428 15.1826 0 12 0C8.8174 0 5.76516 1.26428 3.51472 3.51472C1.26428 5.76516 0 8.8174 0 12C0 15.1826 1.26428 18.2348 3.51472 20.4853C5.76516 22.7357 8.8174 24 12 24Z" fill="black"/>
<path fill-rule="evenodd" clip-rule="evenodd" d="M18.4952 14.25C18.6269 14.478 18.6962 14.7367 18.6962 15C18.6962 15.2633 18.6269 15.522 18.4952 15.75C17.8371 16.8905 16.8901 17.8376 15.7497 18.4959C14.6092 19.1542 13.3155 19.5005 11.9987 19.5C10.6821 19.5003 9.38873 19.1538 8.24857 18.4955C7.10841 17.8373 6.16171 16.8903 5.5037 15.75C5.37211 15.5221 5.3028 15.2636 5.30273 15.0004C5.30267 14.7372 5.37184 14.4786 5.50331 14.2507C5.63478 14.0227 5.82392 13.8333 6.05174 13.7015C6.27955 13.5698 6.53802 13.5003 6.8012 13.5H17.1962C17.4595 13.5 17.7182 13.5693 17.9462 13.701C18.1742 13.8326 18.3635 14.022 18.4952 14.25Z" fill="black"/>
<path d="M10.5 9.75C10.5 10.992 9.828 9.75 9 9.75C8.172 9.75 7.5 10.992 7.5 9.75C7.5 8.508 8.172 7.5 9 7.5C9.828 7.5 10.5 8.508 10.5 9.75ZM16.5 9.75C16.5 10.992 15.828 9.75 15 9.75C14.172 9.75 13.5 10.992 13.5 9.75C13.5 8.508 14.172 7.5 15 7.5C15.828 7.5 16.5 8.508 16.5 9.75Z" fill="black"/>
</g>
<defs>
<clipPath id="clip0_1315_1218">
<rect width="24" height="24" fill="white"/>
</clipPath>
</defs>
</svg>
