<svg width="24" height="24" viewBox="0 0 24 24" fill="none" xmlns="http://www.w3.org/2000/svg">
<path fill-rule="evenodd" clip-rule="evenodd" d="M12 1.5C14.7848 1.5 17.4555 2.60625 19.4246 4.57538C21.3938 6.54451 22.5 9.21523 22.5 12C22.5 14.7848 21.3938 17.4555 19.4246 19.4246C17.4555 21.3938 14.7848 22.5 12 22.5C9.21523 22.5 6.54451 21.3938 4.57538 19.4246C2.60625 17.4555 1.5 14.7848 1.5 12C1.5 9.21523 2.60625 6.54451 4.57538 4.57538C6.54451 2.60625 9.21523 1.5 12 1.5ZM12 0C15.1826 0 18.2348 1.26428 20.4853 3.51472C22.7357 5.76516 24 8.8174 24 12C24 15.1826 22.7357 18.2348 20.4853 20.4853C18.2348 22.7357 15.1826 24 12 24C8.8174 24 5.76516 22.7357 3.51472 20.4853C1.26428 18.2348 0 15.1826 0 12C0 8.8174 1.26428 5.76516 3.51472 3.51472C5.76516 1.26428 8.8174 0 12 0V0Z" fill="black"/>
<path fill-rule="evenodd" clip-rule="evenodd" d="M6.42771 9.6495C6.59997 9.74895 6.80468 9.7759 6.99681 9.72442C7.18894 9.67295 7.35275 9.54726 7.45221 9.375C7.91288 8.57649 8.57579 7.91345 9.37421 7.45262C10.1726 6.9918 11.0784 6.74946 12.0002 6.75C13.9427 6.75 15.6392 7.8045 16.5482 9.375C16.6484 9.54586 16.8121 9.67016 17.0035 9.72078C17.195 9.7714 17.3987 9.74423 17.5702 9.64521C17.7417 9.54618 17.8671 9.38333 17.919 9.1922C17.9709 9.00107 17.9451 8.79717 17.8472 8.625C17.2549 7.59847 16.4026 6.74607 15.3762 6.15359C14.3498 5.56112 13.1854 5.24946 12.0002 5.25C10.8151 5.24977 9.65084 5.56155 8.62446 6.154C7.59808 6.74644 6.74576 7.59868 6.15321 8.625C6.05376 8.79726 6.02681 9.00197 6.07829 9.1941C6.12977 9.38623 6.25546 9.55004 6.42771 9.6495Z" fill="black"/>
<path d="M10.5 14.25C10.5 13.008 9.828 12 9 12C8.172 12 7.5 13.008 7.5 14.25C7.5 15.492 8.172 16.5 9 16.5C9.828 16.5 10.5 15.492 10.5 14.25ZM16.5 14.25C16.5 13.008 15.828 12 15 12C14.172 12 13.5 13.008 13.5 14.25C13.5 15.492 14.172 16.5 15 16.5C15.828 16.5 16.5 15.492 16.5 14.25Z" fill="black"/>
</svg>
