<svg width="24" height="24" viewBox="0 0 24 24" fill="none" xmlns="http://www.w3.org/2000/svg">
<g clip-path="url(#clip0_1315_1234)">
<path fill-rule="evenodd" clip-rule="evenodd" d="M12 22.5C14.7848 22.5 17.4555 21.3938 19.4246 19.4246C21.3938 17.4555 22.5 14.7848 22.5 12C22.5 9.21523 21.3938 6.54451 19.4246 4.57538C17.4555 2.60625 14.7848 1.5 12 1.5C9.21523 1.5 6.54451 2.60625 4.57538 4.57538C2.60625 6.54451 1.5 9.21523 1.5 12C1.5 14.7848 2.60625 17.4555 4.57538 19.4246C6.54451 21.3938 9.21523 22.5 12 22.5ZM12 24C15.1826 24 18.2348 22.7357 20.4853 20.4853C22.7357 18.2348 24 15.1826 24 12C24 8.8174 22.7357 5.76516 20.4853 3.51472C18.2348 1.26428 15.1826 0 12 0C8.8174 0 5.76516 1.26428 3.51472 3.51472C1.26428 5.76516 0 8.8174 0 12C0 15.1826 1.26428 18.2348 3.51472 20.4853C5.76516 22.7357 8.8174 24 12 24Z" fill="black"/>
<path fill-rule="evenodd" clip-rule="evenodd" d="M6.42771 14.3505C6.59997 14.251 6.80468 14.2241 6.99681 14.2756C7.18894 14.3271 7.35275 14.4527 7.45221 14.625C7.91288 15.4235 8.57579 16.0866 9.37421 16.5474C10.1726 17.0082 11.0784 17.2505 12.0002 17.25C12.9221 17.2505 13.8278 17.0082 14.6262 16.5474C15.4246 16.0866 16.0875 15.4235 16.5482 14.625C16.5971 14.539 16.6625 14.4635 16.7407 14.4029C16.8189 14.3423 16.9082 14.2978 17.0037 14.2719C17.0991 14.246 17.1988 14.2392 17.2969 14.2519C17.395 14.2647 17.4896 14.2967 17.5752 14.3462C17.6609 14.3956 17.7359 14.4615 17.796 14.5401C17.8561 14.6187 17.9 14.7084 17.9253 14.804C17.9506 14.8996 17.9567 14.9993 17.9433 15.0973C17.9299 15.1953 17.8972 15.2897 17.8472 15.375C17.2549 16.4015 16.4026 17.2539 15.3762 17.8464C14.3498 18.4389 13.1854 18.7505 12.0002 18.75C10.8151 18.7505 9.65066 18.4389 8.62423 17.8464C7.59779 17.2539 6.74553 16.4015 6.15321 15.375C6.05376 15.2027 6.02681 14.998 6.07829 14.8059C6.12977 14.6138 6.25546 14.45 6.42771 14.3505ZM9.75021 9.7455V9.75H8.25021C8.25021 8.898 8.92071 8.3295 9.54321 8.019C10.2107 7.6845 11.0807 7.5 12.0002 7.5C12.9197 7.5 13.7897 7.6845 14.4572 8.019C15.0797 8.3295 15.7502 8.898 15.7502 9.75H14.2502V9.7455L14.2457 9.7305C14.2318 9.70143 14.2136 9.67463 14.1917 9.651C14.0769 9.52858 13.9394 9.42973 13.7867 9.36C13.3652 9.15 12.7352 9 12.0002 9C11.2637 9 10.6322 9.15 10.2152 9.36C10.062 9.42956 9.92394 9.52842 9.80871 9.651C9.78668 9.67508 9.76847 9.7024 9.75471 9.732L9.75021 9.747V9.7455Z" fill="black"/>
<path d="M3.46391 7.8645C3.4085 7.64333 3.40424 7.41243 3.45146 7.18937C3.49868 6.9663 3.59613 6.75693 3.7364 6.57718C3.87668 6.39743 4.05608 6.25202 4.26099 6.152C4.46589 6.05199 4.6909 6.00001 4.91891 6H8.99891C9.39673 6 9.77826 6.15804 10.0596 6.43934C10.3409 6.72064 10.4989 7.10218 10.4989 7.5V9C10.4989 9.79565 10.1828 10.5587 9.62023 11.1213C9.05762 11.6839 8.29456 12 7.49891 12H6.84191C6.17292 11.9999 5.52316 11.7762 4.9959 11.3644C4.46864 10.9527 4.09414 10.3765 3.93191 9.7275L3.46391 7.8645ZM13.4989 7.5C13.4989 7.10218 13.6569 6.72064 13.9382 6.43934C14.2195 6.15804 14.6011 6 14.9989 6H19.0789C19.3069 6.00001 19.5319 6.05199 19.7368 6.152C19.9417 6.25202 20.1211 6.39743 20.2614 6.57718C20.4017 6.75693 20.4991 6.9663 20.5463 7.18937C20.5936 7.41243 20.5893 7.64333 20.5339 7.8645L20.0674 9.7275C19.9052 10.3765 19.5307 10.9527 19.0034 11.3644C18.4761 11.7762 17.8264 11.9999 17.1574 12H16.4989C15.7033 12 14.9402 11.6839 14.3776 11.1213C13.815 10.5587 13.4989 9.79565 13.4989 9V7.5Z" fill="black"/>
</g>
<defs>
<clipPath id="clip0_1315_1234">
<rect width="24" height="24" fill="white"/>
</clipPath>
</defs>
</svg>
