<svg width="24" height="24" viewBox="0 0 24 24" fill="none" xmlns="http://www.w3.org/2000/svg">
<g clip-path="url(#clip0_1315_1240)">
<path d="M13.4115 0.652361C12.9771 0.420724 12.4923 0.299561 12 0.299561C11.5077 0.299561 11.0229 0.420724 10.5885 0.652361L1.5885 5.45236C1.10862 5.70823 0.707321 6.08974 0.427521 6.55607C0.147721 7.02241 -5.437e-05 7.55603 1.50058e-08 8.09986V8.56936L10.0635 14.4689L12 13.3919L13.9365 14.4674L24 8.57236V8.09986C24.0001 7.55603 23.8523 7.02241 23.5725 6.55607C23.2927 6.08974 22.8914 5.70823 22.4115 5.45236L13.4115 0.652361ZM24 10.3094L15.4605 15.3149L24 20.0579V10.3079V10.3094ZM23.9115 21.7259L12 15.1079L0.0885 21.7259C0.250505 22.3754 0.625112 22.9521 1.1527 23.3642C1.6803 23.7762 2.33056 24 3 23.9999H21C21.6694 24 22.3197 23.7762 22.8473 23.3642C23.3749 22.9521 23.7495 22.3754 23.9115 21.7259ZM1.50058e-08 20.0594L8.5395 15.3149L1.50058e-08 10.3094V20.0594Z" fill="black"/>
</g>
<defs>
<clipPath id="clip0_1315_1240">
<rect width="24" height="24" fill="white"/>
</clipPath>
</defs>
</svg>
