<svg width="75" height="70" viewBox="0 0 75 70" fill="none" xmlns="http://www.w3.org/2000/svg">
<path d="M6.94615 70H59.7334C61.5747 69.9977 63.3402 69.3142 64.6425 68.0995C65.9442 66.8842 66.6766 65.2367 66.6791 63.5184V57.0369H68.0682C68.4366 57.0369 68.7901 56.9003 69.0506 56.6572C69.311 56.4142 69.4574 56.0843 69.4574 55.7406V40.1848C69.4574 39.8411 69.311 39.5112 69.0506 39.2681C68.7901 39.0251 68.4366 38.8885 68.0682 38.8885H66.6791V32.407C66.6692 31.3653 66.387 30.342 65.8568 29.4254C69.4003 27.7536 72.1873 24.9555 73.716 21.5353C75.2446 18.1157 75.4139 14.299 74.1941 10.7729C72.9749 7.2468 70.4453 4.24276 67.063 2.3023C63.68 0.361829 59.6658 -0.386921 55.7433 0.189382C51.8215 0.766352 48.2488 2.63089 45.669 5.44811C43.0898 8.26533 41.6733 11.8492 41.6746 15.5548H7.15413C5.57832 15.5819 4.05341 16.0773 2.80001 16.9691C1.54661 17.8609 0.631367 19.1022 0.186049 20.5132C0.0651193 21.0132 0.00311167 21.5236 0 22.0363V63.5183C0.0024806 65.2365 0.734879 66.8841 2.03656 68.0994C3.33887 69.3141 5.10441 69.9975 6.94569 69.9998L6.94615 70ZM66.6791 54.4443H54.1769C51.6956 54.4443 49.4023 53.2087 48.162 51.2035C46.921 49.1983 46.921 46.7271 48.162 44.7219C49.4023 42.7167 51.6956 41.4811 54.1769 41.4811H66.6791V54.4443ZM63.9008 32.407V38.8885H54.1769C50.7027 38.8885 47.4928 40.6183 45.7558 43.4256C44.0188 46.2329 44.0188 49.6925 45.7558 52.4998C47.4928 55.3071 50.7027 57.0369 54.1769 57.0369H63.9008V63.5184C63.9008 64.5497 63.4618 65.5394 62.6804 66.2684C61.899 66.9974 60.8384 67.4073 59.7335 67.4073H6.94623C5.84113 67.4073 4.78061 66.9976 3.99935 66.2684C3.2181 65.5392 2.7789 64.5496 2.7789 63.5184V27.1891C3.97579 28.0444 5.43937 28.5109 6.94631 28.5178H49.1491C53.3184 31.1013 58.5116 31.7968 63.291 30.4119C63.6867 31.0121 63.8975 31.7019 63.9006 32.4068L63.9008 32.407ZM58.3443 2.59178C62.0286 2.59178 65.5616 3.95755 68.1668 6.38872C70.7721 8.81989 72.2357 12.1168 72.2357 15.5549C72.2357 18.993 70.7721 22.2899 68.1668 24.7211C65.5616 27.1522 62.0286 28.518 58.3443 28.518C54.66 28.518 51.1269 27.1523 48.5217 24.7211C45.9165 22.2899 44.4529 18.993 44.4529 15.5549C44.4572 12.118 45.922 8.82282 48.526 6.39271C51.13 3.96261 54.6612 2.59578 58.3443 2.59178ZM2.89463 21.0898C3.20346 20.2553 3.77525 19.5272 4.53556 19.0023C5.29587 18.4769 6.20872 18.1788 7.15381 18.147H41.9251C42.4504 21.0441 43.8475 23.7415 45.9536 25.9249H6.94504C5.83932 25.9272 4.77767 25.5181 3.99562 24.7883C3.21358 24.0585 2.77517 23.0678 2.77764 22.036C2.78074 21.7177 2.81981 21.4005 2.89423 21.0898H2.89463Z" fill="#4F4F4F"/>
<path d="M56.9552 44.0737C55.8501 44.0737 54.7896 44.4835 54.0083 45.2126C53.227 45.9418 52.7878 46.9315 52.7878 47.9626C52.7878 48.9937 53.2269 49.9835 54.0083 50.7125C54.7897 51.4416 55.8502 51.8515 56.9552 51.8515C58.0601 51.8515 59.1208 51.4417 59.9021 50.7125C60.6833 49.9834 61.1225 48.9937 61.1225 47.9626C61.1225 46.9315 60.6835 45.9417 59.9021 45.2126C59.1207 44.4836 58.0601 44.0737 56.9552 44.0737ZM56.9552 49.259C56.3933 49.259 55.8867 48.943 55.6721 48.4586C55.4569 47.9742 55.5753 47.417 55.9729 47.046C56.3704 46.675 56.9676 46.5645 57.4867 46.7653C58.0057 46.9656 58.3443 47.4384 58.3443 47.9627C58.3443 48.3064 58.198 48.6363 57.9375 48.8793C57.677 49.1224 57.3235 49.259 56.9552 49.259Z" fill="#4F4F4F"/>
<path d="M51.3987 9.07334C55.0817 9.07739 58.6128 10.4443 61.2169 12.8743C63.821 15.3042 65.2858 18.5995 65.29 22.0365C65.29 22.7523 65.9121 23.3328 66.6792 23.3328C67.4463 23.3328 68.0683 22.7523 68.0683 22.0365C68.0634 17.912 66.3058 13.9583 63.1809 11.0415C60.0553 8.12533 55.8185 6.48531 51.3987 6.48071C50.6315 6.48071 50.0095 7.06116 50.0095 7.77702C50.0095 8.49288 50.6315 9.07334 51.3987 9.07334Z" fill="#4F4F4F"/>
<path d="M51.3987 14.2586C53.6083 14.261 55.7274 15.081 57.29 16.5388C58.8522 17.9972 59.7309 19.9746 59.7335 22.0365C59.7335 22.7524 60.3555 23.3328 61.1226 23.3328C61.8897 23.3328 62.5118 22.7524 62.5118 22.0365C62.5087 19.287 61.3366 16.651 59.2529 14.7071C57.1699 12.7626 54.3451 11.6688 51.3987 11.666C50.6315 11.666 50.0095 12.2465 50.0095 12.9623C50.0095 13.6782 50.6315 14.2586 51.3987 14.2586Z" fill="#4F4F4F"/>
<path d="M51.3987 19.4439C52.1354 19.4439 52.8424 19.7171 53.3633 20.2032C53.8842 20.6893 54.1769 21.3491 54.1769 22.0366C54.1769 22.7524 54.799 23.3329 55.5661 23.3329C56.3332 23.3329 56.9552 22.7524 56.9552 22.0366C56.9552 20.6616 56.3698 19.3426 55.3279 18.3699C54.2855 17.3976 52.8721 16.8513 51.3987 16.8513C50.6315 16.8513 50.0095 17.4318 50.0095 18.1476C50.0095 18.8635 50.6315 19.4439 51.3987 19.4439Z" fill="#4F4F4F"/>
</svg>
