<svg width="25" height="24" viewBox="0 0 25 24" fill="none" xmlns="http://www.w3.org/2000/svg">
<g clip-path="url(#clip0_1315_1273)">
<path fill-rule="evenodd" clip-rule="evenodd" d="M0.5 3C0.5 2.20435 0.816071 1.44129 1.37868 0.87868C1.94129 0.316071 2.70435 0 3.5 0L15.5 0C16.2956 0 17.0587 0.316071 17.6213 0.87868C18.1839 1.44129 18.5 2.20435 18.5 3V6H21.5C22.2956 6 23.0587 6.31607 23.6213 6.87868C24.1839 7.44129 24.5 8.20435 24.5 9V21C24.5 21.7956 24.1839 22.5587 23.6213 23.1213C23.0587 23.6839 22.2956 24 21.5 24H9.5C8.70435 24 7.94129 23.6839 7.37868 23.1213C6.81607 22.5587 6.5 21.7956 6.5 21V18H3.5C2.70435 18 1.94129 17.6839 1.37868 17.1213C0.816071 16.5587 0.5 15.7956 0.5 15V3ZM18.5 6V16.5C18.5 16.8978 18.342 17.2794 18.0607 17.5607C17.7794 17.842 17.3978 18 17 18H6.5V7.5C6.5 7.10218 6.65804 6.72064 6.93934 6.43934C7.22064 6.15804 7.60218 6 8 6H18.5Z" fill="black"/>
</g>
<defs>
<clipPath id="clip0_1315_1273">
<rect width="24" height="24" fill="white" transform="translate(0.5)"/>
</clipPath>
</defs>
</svg>
