<svg width="25" height="24" viewBox="0 0 25 24" fill="none" xmlns="http://www.w3.org/2000/svg">
<path d="M11.0029 16.5002C11.0029 16.3032 11.0417 16.1081 11.1171 15.9262C11.1925 15.7442 11.303 15.5788 11.4423 15.4395C11.5816 15.3002 11.7469 15.1897 11.9289 15.1144C12.1109 15.039 12.3059 15.0002 12.5029 15.0002C12.6999 15.0002 12.895 15.039 13.077 15.1144C13.2589 15.1897 13.4243 15.3002 13.5636 15.4395C13.7029 15.5788 13.8134 15.7442 13.8887 15.9262C13.9641 16.1081 14.0029 16.3032 14.0029 16.5002C14.0029 16.898 13.8449 17.2795 13.5636 17.5608C13.2823 17.8421 12.9008 18.0002 12.5029 18.0002C12.1051 18.0002 11.7236 17.8421 11.4423 17.5608C11.161 17.2795 11.0029 16.898 11.0029 16.5002ZM11.1499 7.49268C11.13 7.30344 11.15 7.11211 11.2087 6.93112C11.2675 6.75012 11.3636 6.5835 11.4909 6.44206C11.6182 6.30062 11.7738 6.18752 11.9476 6.1101C12.1215 6.03268 12.3096 5.99268 12.4999 5.99268C12.6902 5.99268 12.8784 6.03268 13.0522 6.1101C13.226 6.18752 13.3817 6.30062 13.509 6.44206C13.6362 6.5835 13.7324 6.75012 13.7911 6.93112C13.8499 7.11211 13.8699 7.30344 13.8499 7.49268L13.3249 12.7532C13.3073 12.9598 13.2127 13.1523 13.06 13.2926C12.9072 13.4329 12.7073 13.5108 12.4999 13.5108C12.2925 13.5108 12.0927 13.4329 11.9399 13.2926C11.7871 13.1523 11.6926 12.9598 11.6749 12.7532L11.1499 7.49268Z" fill="black"/>
</svg>
