<svg width="24" height="24" viewBox="0 0 24 24" fill="none" xmlns="http://www.w3.org/2000/svg">
<g clip-path="url(#clip0_1315_1263)">
<path fill-rule="evenodd" clip-rule="evenodd" d="M21 1.5H3C2.60218 1.5 2.22064 1.65804 1.93934 1.93934C1.65804 2.22064 1.5 2.60218 1.5 3V21C1.5 21.3978 1.65804 21.7794 1.93934 22.0607C2.22064 22.342 2.60218 22.5 3 22.5H21C21.3978 22.5 21.7794 22.342 22.0607 22.0607C22.342 21.7794 22.5 21.3978 22.5 21V3C22.5 2.60218 22.342 2.22064 22.0607 1.93934C21.7794 1.65804 21.3978 1.5 21 1.5ZM3 0C2.20435 0 1.44129 0.316071 0.87868 0.87868C0.316071 1.44129 0 2.20435 0 3L0 21C0 21.7956 0.316071 22.5587 0.87868 23.1213C1.44129 23.6839 2.20435 24 3 24H21C21.7956 24 22.5587 23.6839 23.1213 23.1213C23.6839 22.5587 24 21.7956 24 21V3C24 2.20435 23.6839 1.44129 23.1213 0.87868C22.5587 0.316071 21.7956 0 21 0L3 0Z" fill="black"/>
<path d="M10.5029 16.5002C10.5029 16.3032 10.5417 16.1081 10.6171 15.9262C10.6925 15.7442 10.803 15.5788 10.9423 15.4395C11.0816 15.3002 11.2469 15.1897 11.4289 15.1144C11.6109 15.039 11.8059 15.0002 12.0029 15.0002C12.1999 15.0002 12.395 15.039 12.577 15.1144C12.7589 15.1897 12.9243 15.3002 13.0636 15.4395C13.2029 15.5788 13.3134 15.7442 13.3887 15.9262C13.4641 16.1081 13.5029 16.3032 13.5029 16.5002C13.5029 16.898 13.3449 17.2795 13.0636 17.5608C12.7823 17.8421 12.4008 18.0002 12.0029 18.0002C11.6051 18.0002 11.2236 17.8421 10.9423 17.5608C10.661 17.2795 10.5029 16.898 10.5029 16.5002ZM10.6499 7.49268C10.63 7.30344 10.65 7.11211 10.7087 6.93112C10.7675 6.75012 10.8636 6.5835 10.9909 6.44206C11.1182 6.30062 11.2738 6.18752 11.4476 6.1101C11.6215 6.03268 11.8096 5.99268 11.9999 5.99268C12.1902 5.99268 12.3784 6.03268 12.5522 6.1101C12.726 6.18752 12.8817 6.30062 13.009 6.44206C13.1362 6.5835 13.2324 6.75012 13.2911 6.93112C13.3499 7.11211 13.3699 7.30344 13.3499 7.49268L12.8249 12.7532C12.8073 12.9598 12.7127 13.1523 12.56 13.2926C12.4072 13.4329 12.2073 13.5108 11.9999 13.5108C11.7925 13.5108 11.5927 13.4329 11.4399 13.2926C11.2871 13.1523 11.1926 12.9598 11.1749 12.7532L10.6499 7.49268Z" fill="black"/>
</g>
<defs>
<clipPath id="clip0_1315_1263">
<rect width="24" height="24" fill="white"/>
</clipPath>
</defs>
</svg>
