<svg width="24" height="24" viewBox="0 0 24 24" fill="none" xmlns="http://www.w3.org/2000/svg">
<g clip-path="url(#clip0_1315_1251)">
<path fill-rule="evenodd" clip-rule="evenodd" d="M13.5969 0.6525C12.7269 -0.2175 11.3169 -0.2175 10.4469 0.6525L0.675938 10.425C-0.194062 11.295 -0.194062 12.7035 0.675938 13.572L10.4499 23.346C11.3199 24.216 12.7284 24.216 13.5969 23.346L23.3709 13.572C24.2409 12.702 24.2409 11.2935 23.3709 10.425L13.5969 0.6525ZM12.0219 6C11.8323 6.00011 11.6449 6.03993 11.4716 6.11689C11.2984 6.19386 11.1431 6.30626 11.016 6.44687C10.8888 6.58747 10.7925 6.75316 10.7332 6.93325C10.674 7.11334 10.6531 7.30385 10.6719 7.4925L11.1969 12.753C11.2146 12.9597 11.3091 13.1522 11.4619 13.2925C11.6147 13.4327 11.8145 13.5106 12.0219 13.5106C12.2293 13.5106 12.4292 13.4327 12.582 13.2925C12.7347 13.1522 12.8293 12.9597 12.8469 12.753L13.3719 7.4925C13.3908 7.30385 13.3699 7.11334 13.3107 6.93325C13.2514 6.75316 13.1551 6.58747 13.0279 6.44687C12.9007 6.30626 12.7455 6.19386 12.5723 6.11689C12.399 6.03993 12.2115 6.00011 12.0219 6ZM12.0249 15C11.6271 15 11.2456 15.158 10.9643 15.4393C10.683 15.7206 10.5249 16.1022 10.5249 16.5C10.5249 16.8978 10.683 17.2794 10.9643 17.5607C11.2456 17.842 11.6271 18 12.0249 18C12.4228 18 12.8043 17.842 13.0856 17.5607C13.3669 17.2794 13.5249 16.8978 13.5249 16.5C13.5249 16.1022 13.3669 15.7206 13.0856 15.4393C12.8043 15.158 12.4228 15 12.0249 15Z" fill="black"/>
</g>
<defs>
<clipPath id="clip0_1315_1251">
<rect width="24" height="24" fill="white"/>
</clipPath>
</defs>
</svg>
