<svg width="24" height="24" viewBox="0 0 24 24" fill="none" xmlns="http://www.w3.org/2000/svg">
<path d="M6 0H14.25V1.5H6C5.60218 1.5 5.22064 1.65804 4.93934 1.93934C4.65804 2.22064 4.5 2.60218 4.5 3V21C4.5 21.3978 4.65804 21.7794 4.93934 22.0607C5.22064 22.342 5.60218 22.5 6 22.5H18C18.3978 22.5 18.7794 22.342 19.0607 22.0607C19.342 21.7794 19.5 21.3978 19.5 21V6.75H21V21C21 21.7956 20.6839 22.5587 20.1213 23.1213C19.5587 23.6839 18.7956 24 18 24H6C5.20435 24 4.44129 23.6839 3.87868 23.1213C3.31607 22.5587 3 21.7956 3 21V3C3 2.20435 3.31607 1.44129 3.87868 0.87868C4.44129 0.316071 5.20435 0 6 0V0Z" fill="black"/>
<path d="M14.25 4.5V0L21 6.75H16.5C15.9033 6.75 15.331 6.51295 14.909 6.09099C14.4871 5.66903 14.25 5.09674 14.25 4.5Z" fill="black"/>
<path fill-rule="evenodd" clip-rule="evenodd" d="M12.0009 9C12.1999 9 12.3906 9.07902 12.5313 9.21967C12.6719 9.36032 12.7509 9.55109 12.7509 9.75V15.4395L14.4699 13.719C14.6108 13.5782 14.8018 13.4991 15.0009 13.4991C15.2001 13.4991 15.3911 13.5782 15.5319 13.719C15.6728 13.8598 15.7519 14.0508 15.7519 14.25C15.7519 14.4492 15.6728 14.6402 15.5319 14.781L12.5319 17.781C12.4623 17.8508 12.3795 17.9063 12.2884 17.9441C12.1973 17.9819 12.0996 18.0013 12.0009 18.0013C11.9023 18.0013 11.8046 17.9819 11.7135 17.9441C11.6224 17.9063 11.5396 17.8508 11.4699 17.781L8.46995 14.781C8.32912 14.6402 8.25 14.4492 8.25 14.25C8.25 14.0508 8.32912 13.8598 8.46995 13.719C8.61078 13.5782 8.80178 13.4991 9.00095 13.4991C9.20011 13.4991 9.39112 13.5782 9.53195 13.719L11.2509 15.4395V9.75C11.2509 9.55109 11.33 9.36032 11.4706 9.21967C11.6113 9.07902 11.802 9 12.0009 9Z" fill="black"/>
</svg>
