<svg width="24" height="24" viewBox="0 0 24 24" fill="none" xmlns="http://www.w3.org/2000/svg">
<path fill-rule="evenodd" clip-rule="evenodd" d="M3 3C3 2.20435 3.31607 1.44129 3.87868 0.87868C4.44129 0.316071 5.20435 0 6 0L13.9395 0C14.3373 8.49561e-05 14.7188 0.158176 15 0.4395L20.5605 6C20.8418 6.28124 20.9999 6.66271 21 7.0605V21C21 21.7956 20.6839 22.5587 20.1213 23.1213C19.5587 23.6839 18.7956 24 18 24H6C5.20435 24 4.44129 23.6839 3.87868 23.1213C3.31607 22.5587 3 21.7956 3 21V3ZM13.5 6L14.25 2.25L18.75 6.75L15 7.5C14.6022 7.5 14.2206 7.34196 13.9393 7.06066C13.658 6.77936 13.5 6.39782 13.5 6ZM12.75 11.25C12.75 11.0511 12.671 10.8603 12.5303 10.7197C12.3897 10.579 12.1989 10.5 12 10.5C11.8011 10.5 11.6103 10.579 11.4697 10.7197C11.329 10.8603 11.25 11.0511 11.25 11.25V16.9395L9.531 15.219C9.39017 15.0782 9.19916 14.9991 9 14.9991C8.80084 14.9991 8.60983 15.0782 8.469 15.219C8.32817 15.3598 8.24905 15.5508 8.24905 15.75C8.24905 15.9492 8.32817 16.1402 8.469 16.281L11.469 19.281C11.5387 19.3508 11.6214 19.4063 11.7125 19.4441C11.8037 19.4819 11.9013 19.5013 12 19.5013C12.0987 19.5013 12.1963 19.4819 12.2874 19.4441C12.3786 19.4063 12.4613 19.3508 12.531 19.281L15.531 16.281C15.6718 16.1402 15.7509 15.9492 15.7509 15.75C15.7509 15.5508 15.6718 15.3598 15.531 15.219C15.3902 15.0782 15.1992 14.9991 15 14.9991C14.8008 14.9991 14.6098 15.0782 14.469 15.219L12.75 16.9395V11.25Z" fill="black"/>
</svg>
