<svg width="24" height="24" viewBox="0 0 24 24" fill="none" xmlns="http://www.w3.org/2000/svg">
<path fill-rule="evenodd" clip-rule="evenodd" d="M3 3C3 2.20435 3.31607 1.44129 3.87868 0.87868C4.44129 0.316071 5.20435 0 6 0L13.9395 0C14.3373 8.49561e-05 14.7188 0.158176 15 0.4395L20.5605 6C20.8418 6.28124 20.9999 6.66271 21 7.0605V21C21 21.7956 20.6839 22.5587 20.1213 23.1213C19.5587 23.6839 18.7956 24 18 24H6C5.20435 24 4.44129 23.6839 3.87868 23.1213C3.31607 22.5587 3 21.7956 3 21V3ZM14.25 5.25V2.25L18.75 6.75H15.75C15.3522 6.75 14.9706 6.59196 14.6893 6.31066C14.408 6.02936 14.25 5.64782 14.25 5.25ZM7.5855 9H16.4145L16.5 12H15.75C15.48 10.356 15.216 10.212 13.209 10.1475L12.762 10.1325V17.7675C12.762 18.4725 12.912 18.6405 14.1165 18.75V19.5H9.885V18.75C11.0835 18.6405 11.232 18.474 11.232 17.769V10.1325L10.7925 10.1475C8.784 10.212 8.52 10.3575 8.25 12H7.5L7.5855 9Z" fill="black"/>
</svg>
