<svg width="24" height="24" viewBox="0 0 24 24" fill="none" xmlns="http://www.w3.org/2000/svg">
<path d="M9 16.6756V10.3246C8.99997 10.1919 9.03515 10.0615 9.10195 9.94687C9.16875 9.83221 9.26477 9.73732 9.38022 9.67189C9.49567 9.60647 9.62641 9.57284 9.7591 9.57445C9.89179 9.57606 10.0217 9.61285 10.1355 9.68106L15.4275 12.8566C15.5387 12.9231 15.6308 13.0174 15.6947 13.1302C15.7587 13.243 15.7923 13.3704 15.7923 13.5001C15.7923 13.6297 15.7587 13.7571 15.6947 13.8699C15.6308 13.9827 15.5387 14.077 15.4275 14.1436L10.1355 17.3191C10.0216 17.3873 9.89154 17.4241 9.75872 17.4257C9.62591 17.4272 9.49506 17.3935 9.37957 17.3279C9.26407 17.2622 9.16807 17.1671 9.10138 17.0523C9.03469 16.9374 8.99971 16.8069 9 16.6741V16.6756Z" fill="black"/>
<path d="M6 0H14.25V1.5H6C5.60218 1.5 5.22064 1.65804 4.93934 1.93934C4.65804 2.22064 4.5 2.60218 4.5 3V21C4.5 21.3978 4.65804 21.7794 4.93934 22.0607C5.22064 22.342 5.60218 22.5 6 22.5H18C18.3978 22.5 18.7794 22.342 19.0607 22.0607C19.342 21.7794 19.5 21.3978 19.5 21V6.75H21V21C21 21.7956 20.6839 22.5587 20.1213 23.1213C19.5587 23.6839 18.7956 24 18 24H6C5.20435 24 4.44129 23.6839 3.87868 23.1213C3.31607 22.5587 3 21.7956 3 21V3C3 2.20435 3.31607 1.44129 3.87868 0.87868C4.44129 0.316071 5.20435 0 6 0V0Z" fill="black"/>
<path d="M14.25 4.5V0L21 6.75H16.5C15.9033 6.75 15.331 6.51295 14.909 6.09099C14.4871 5.66903 14.25 5.09674 14.25 4.5Z" fill="black"/>
</svg>
