<svg width="24" height="24" viewBox="0 0 24 24" fill="none" xmlns="http://www.w3.org/2000/svg">
<path d="M6 0H14.25V1.5H6C5.60218 1.5 5.22064 1.65804 4.93934 1.93934C4.65804 2.22064 4.5 2.60218 4.5 3V21C4.5 21.3978 4.65804 21.7794 4.93934 22.0607C5.22064 22.342 5.60218 22.5 6 22.5H18C18.3978 22.5 18.7794 22.342 19.0607 22.0607C19.342 21.7794 19.5 21.3978 19.5 21V6.75H21V21C21 21.7956 20.6839 22.5587 20.1213 23.1213C19.5587 23.6839 18.7956 24 18 24H6C5.20435 24 4.44129 23.6839 3.87868 23.1213C3.31607 22.5587 3 21.7956 3 21V3C3 2.20435 3.31607 1.44129 3.87868 0.87868C4.44129 0.316071 5.20435 0 6 0V0Z" fill="black"/>
<path d="M14.2502 4.5V0L21.0002 6.75H16.5002C15.9035 6.75 15.3312 6.51295 14.9092 6.09099C14.4873 5.66903 14.2502 5.09674 14.2502 4.5ZM12.7502 9C12.7502 8.80109 12.6712 8.61032 12.5305 8.46967C12.3899 8.32902 12.1991 8.25 12.0002 8.25C11.8013 8.25 11.6105 8.32902 11.4699 8.46967C11.3292 8.61032 11.2502 8.80109 11.2502 9H12.7502ZM15.0407 16.5H13.4597L14.2892 18.987C14.3175 19.0839 14.365 19.174 14.4289 19.2521C14.4928 19.3301 14.5718 19.3945 14.6611 19.4413C14.7505 19.4882 14.8484 19.5165 14.9489 19.5246C15.0495 19.5327 15.1507 19.5204 15.2464 19.4885C15.3421 19.4566 15.4304 19.4057 15.506 19.3389C15.5816 19.2721 15.6429 19.1907 15.6863 19.0996C15.7297 19.0085 15.7542 18.9096 15.7585 18.8089C15.7628 18.7081 15.7467 18.6074 15.7112 18.513L15.0407 16.5ZM12.7502 16.5H11.2502V18C11.2502 18.1989 11.3292 18.3897 11.4699 18.5303C11.6105 18.671 11.8013 18.75 12.0002 18.75C12.1991 18.75 12.3899 18.671 12.5305 18.5303C12.6712 18.3897 12.7502 18.1989 12.7502 18V16.5ZM10.5407 16.5H8.95971L8.28921 18.513C8.2537 18.6074 8.2376 18.7081 8.24189 18.8089C8.24617 18.9096 8.27075 19.0085 8.31415 19.0996C8.35754 19.1907 8.41887 19.2721 8.49446 19.3389C8.57004 19.4057 8.65833 19.4566 8.75404 19.4885C8.84975 19.5204 8.95091 19.5327 9.05147 19.5246C9.15204 19.5165 9.24993 19.4882 9.33929 19.4413C9.42865 19.3945 9.50765 19.3301 9.57156 19.2521C9.63546 19.174 9.68296 19.0839 9.71121 18.987L10.5407 16.5Z" fill="black"/>
<path fill-rule="evenodd" clip-rule="evenodd" d="M6 11.25C6 10.6533 6.23705 10.081 6.65901 9.65901C7.08097 9.23705 7.65326 9 8.25 9H15.75C16.3467 9 16.919 9.23705 17.341 9.65901C17.7629 10.081 18 10.6533 18 11.25V14.25C18 14.8467 17.7629 15.419 17.341 15.841C16.919 16.2629 16.3467 16.5 15.75 16.5H8.25C7.65326 16.5 7.08097 16.2629 6.65901 15.841C6.23705 15.419 6 14.8467 6 14.25V11.25ZM8.25 10.5C8.05109 10.5 7.86032 10.579 7.71967 10.7197C7.57902 10.8603 7.5 11.0511 7.5 11.25V14.25C7.5 14.4489 7.57902 14.6397 7.71967 14.7803C7.86032 14.921 8.05109 15 8.25 15H15.75C15.9489 15 16.1397 14.921 16.2803 14.7803C16.421 14.6397 16.5 14.4489 16.5 14.25V11.25C16.5 11.0511 16.421 10.8603 16.2803 10.7197C16.1397 10.579 15.9489 10.5 15.75 10.5H8.25Z" fill="black"/>
</svg>
