<svg width="24" height="24" viewBox="0 0 24 24" fill="none" xmlns="http://www.w3.org/2000/svg">
<path fill-rule="evenodd" clip-rule="evenodd" d="M3 3C3 2.20435 3.31607 1.44129 3.87868 0.87868C4.44129 0.316071 5.20435 0 6 0L13.9395 0C14.3373 8.49561e-05 14.7188 0.158176 15 0.4395L20.5605 6C20.8418 6.28124 20.9999 6.66271 21 7.0605V21C21 21.7956 20.6839 22.5587 20.1213 23.1213C19.5587 23.6839 18.7956 24 18 24H6C5.20435 24 4.44129 23.6839 3.87868 23.1213C3.31607 22.5587 3 21.7956 3 21V3ZM13.5 6L14.25 2.25L18.75 6.75L15 7.5C14.6022 7.5 14.2206 7.34196 13.9393 7.06066C13.658 6.77936 13.5 6.39782 13.5 6ZM8.25 4.5V3H6.75V1.5H9V3H10.5V4.5H9V6H10.5V7.5H9V9H10.5V10.5H8.25V9H6.75V7.5H8.25V6H6.75V4.5H8.25ZM8.25 11.25C7.85218 11.25 7.47064 11.408 7.18934 11.6893C6.90804 11.9706 6.75 12.3522 6.75 12.75V14.157L6.15 16.5555C6.07525 16.8556 6.09508 17.1715 6.20678 17.4599C6.31849 17.7482 6.5166 17.9951 6.774 18.1665L8.169 19.0965C8.41534 19.2606 8.70474 19.3482 9.00075 19.3482C9.29676 19.3482 9.58616 19.2606 9.8325 19.0965L11.2275 18.1665C11.4846 17.9949 11.6824 17.748 11.7939 17.4596C11.9053 17.1712 11.9249 16.8554 11.85 16.5555L11.25 14.157V12.75C11.25 12.3522 11.092 11.9706 10.8107 11.6893C10.5294 11.408 10.1478 11.25 9.75 11.25H8.25ZM8.25 14.157V12.75H9.75V14.157C9.75001 14.2799 9.76513 14.4023 9.795 14.5215L10.395 16.9185L9 17.8485L7.605 16.9185L8.205 14.5215C8.23487 14.4023 8.24999 14.2799 8.25 14.157Z" fill="black"/>
</svg>
