<svg width="24" height="24" viewBox="0 0 24 24" fill="none" xmlns="http://www.w3.org/2000/svg">
<path fill-rule="evenodd" clip-rule="evenodd" d="M3 3C3 2.20435 3.31607 1.44129 3.87868 0.87868C4.44129 0.316071 5.20435 0 6 0L13.9395 0C14.3373 8.49561e-05 14.7188 0.158176 15 0.4395L20.5605 6C20.8418 6.28124 20.9999 6.66271 21 7.0605V21C21 21.7956 20.6839 22.5587 20.1213 23.1213C19.5587 23.6839 18.7956 24 18 24H6C5.20435 24 4.44129 23.6839 3.87868 23.1213C3.31607 22.5587 3 21.7956 3 21V3ZM13.5 6L14.25 2.25L18.75 6.75L15 7.5C14.6022 7.5 14.2206 7.34196 13.9393 7.06066C13.658 6.77936 13.5 6.39782 13.5 6ZM9.969 11.469C10.0387 11.3993 10.1215 11.344 10.2126 11.3062C10.3037 11.2685 10.4014 11.2491 10.5 11.2491C10.5986 11.2491 10.6963 11.2685 10.7874 11.3062C10.8785 11.344 10.9613 11.3993 11.031 11.469C11.1007 11.5387 11.156 11.6215 11.1938 11.7126C11.2315 11.8037 11.2509 11.9014 11.2509 12C11.2509 12.0986 11.2315 12.1963 11.1938 12.2874C11.156 12.3785 11.1007 12.4613 11.031 12.531L8.5605 15L11.031 17.469C11.1718 17.6098 11.2509 17.8008 11.2509 18C11.2509 18.1992 11.1718 18.3902 11.031 18.531C10.8902 18.6718 10.6992 18.7509 10.5 18.7509C10.3008 18.7509 10.1098 18.6718 9.969 18.531L6.969 15.531C6.89915 15.4613 6.84374 15.3786 6.80593 15.2874C6.76812 15.1963 6.74866 15.0987 6.74866 15C6.74866 14.9013 6.76812 14.8037 6.80593 14.7126C6.84374 14.6214 6.89915 14.5387 6.969 14.469L9.969 11.469ZM17.031 14.469L14.031 11.469C13.9613 11.3993 13.8785 11.344 13.7874 11.3062C13.6963 11.2685 13.5986 11.2491 13.5 11.2491C13.4014 11.2491 13.3037 11.2685 13.2126 11.3062C13.1215 11.344 13.0387 11.3993 12.969 11.469C12.8993 11.5387 12.844 11.6215 12.8062 11.7126C12.7685 11.8037 12.7491 11.9014 12.7491 12C12.7491 12.0986 12.7685 12.1963 12.8062 12.2874C12.844 12.3785 12.8993 12.4613 12.969 12.531L15.4395 15L12.969 17.469C12.8282 17.6098 12.7491 17.8008 12.7491 18C12.7491 18.1992 12.8282 18.3902 12.969 18.531C13.1098 18.6718 13.3008 18.7509 13.5 18.7509C13.6992 18.7509 13.8902 18.6718 14.031 18.531L17.031 15.531C17.1008 15.4613 17.1563 15.3786 17.1941 15.2874C17.2319 15.1963 17.2513 15.0987 17.2513 15C17.2513 14.9013 17.2319 14.8037 17.1941 14.7126C17.1563 14.6214 17.1008 14.5387 17.031 14.469Z" fill="black"/>
</svg>
