<svg width="24" height="24" viewBox="0 0 24 24" fill="none" xmlns="http://www.w3.org/2000/svg">
<path fill-rule="evenodd" clip-rule="evenodd" d="M6 0H18C18.7956 0 19.5587 0.316071 20.1213 0.87868C20.6839 1.44129 21 2.20435 21 3V21C21 21.7956 20.6839 22.5587 20.1213 23.1213C19.5587 23.6839 18.7956 24 18 24H6C5.20435 24 4.44129 23.6839 3.87868 23.1213C3.31607 22.5587 3 21.7956 3 21V3C3 2.20435 3.31607 1.44129 3.87868 0.87868C4.44129 0.316071 5.20435 0 6 0V0ZM6 1.5C5.60218 1.5 5.22064 1.65804 4.93934 1.93934C4.65804 2.22064 4.5 2.60218 4.5 3V21C4.5 21.3978 4.65804 21.7794 4.93934 22.0607C5.22064 22.342 5.60218 22.5 6 22.5H18C18.3978 22.5 18.7794 22.342 19.0607 22.0607C19.342 21.7794 19.5 21.3978 19.5 21V3C19.5 2.60218 19.342 2.22064 19.0607 1.93934C18.7794 1.65804 18.3978 1.5 18 1.5H6Z" fill="black"/>
<path fill-rule="evenodd" clip-rule="evenodd" d="M9.22034 9.21888C9.29001 9.14903 9.37277 9.09362 9.46389 9.05581C9.55501 9.018 9.65269 8.99854 9.75134 8.99854C9.84999 8.99854 9.94767 9.018 10.0388 9.05581C10.1299 9.09362 10.2127 9.14903 10.2823 9.21888L12.0013 10.9394L13.7203 9.21888C13.7901 9.14914 13.8729 9.09383 13.964 9.05609C14.0551 9.01835 14.1527 8.99893 14.2513 8.99893C14.35 8.99893 14.4476 9.01835 14.5387 9.05609C14.6298 9.09383 14.7126 9.14914 14.7823 9.21888C14.8521 9.28861 14.9074 9.37139 14.9451 9.4625C14.9829 9.55361 15.0023 9.65126 15.0023 9.74988C15.0023 9.84849 14.9829 9.94614 14.9451 10.0373C14.9074 10.1284 14.8521 10.2111 14.7823 10.2809L13.0618 11.9999L14.7823 13.7189C14.9232 13.8597 15.0023 14.0507 15.0023 14.2499C15.0023 14.449 14.9232 14.64 14.7823 14.7809C14.6415 14.9217 14.4505 15.0008 14.2513 15.0008C14.0522 15.0008 13.8612 14.9217 13.7203 14.7809L12.0013 13.0604L10.2823 14.7809C10.1415 14.9217 9.9505 15.0008 9.75134 15.0008C9.55218 15.0008 9.36117 14.9217 9.22034 14.7809C9.07951 14.64 9.00039 14.449 9.00039 14.2499C9.00039 14.0507 9.07951 13.8597 9.22034 13.7189L10.9408 11.9999L9.22034 10.2809C9.1505 10.2112 9.09508 10.1284 9.05727 10.0373C9.01946 9.94621 9 9.84853 9 9.74988C9 9.65122 9.01946 9.55354 9.05727 9.46242C9.09508 9.37131 9.1505 9.28854 9.22034 9.21888Z" fill="black"/>
</svg>
