<svg width="24" height="24" viewBox="0 0 24 24" fill="none" xmlns="http://www.w3.org/2000/svg">
<g clip-path="url(#clip0_1315_1302)">
<path fill-rule="evenodd" clip-rule="evenodd" d="M18 0H6C5.20435 0 4.44129 0.316071 3.87868 0.87868C3.31607 1.44129 3 2.20435 3 3V21C3 21.7956 3.31607 22.5587 3.87868 23.1213C4.44129 23.6839 5.20435 24 6 24H18C18.7956 24 19.5587 23.6839 20.1213 23.1213C20.6839 22.5587 21 21.7956 21 21V3C21 2.20435 20.6839 1.44129 20.1213 0.87868C19.5587 0.316071 18.7956 0 18 0V0ZM10.575 16.3275C10.575 18.45 9.753 19.6365 8.289 19.6365C6.822 19.635 6 18.45 6 16.3275C6 14.2095 6.822 13.023 8.289 13.023C9.753 13.023 10.575 14.208 10.575 16.3275ZM8.289 13.9095C7.476 13.9095 7.041 14.754 7.041 16.3275C7.041 16.4595 7.0455 16.587 7.05 16.7055L9.39 14.991C9.201 14.28 8.8275 13.911 8.2905 13.911L8.289 13.9095ZM7.191 17.6715C7.38 18.3795 7.749 18.7485 8.289 18.7485C9.099 18.7485 9.534 17.904 9.534 16.3275C9.534 16.2 9.5295 16.0725 9.525 15.9525L7.191 17.6715ZM16.2825 18.6075V19.5H11.7825V18.6075H13.554V14.25H13.479L11.775 15.3705V14.3385L13.56 13.1595H14.595V18.609H16.2825V18.6075Z" fill="black"/>
</g>
<defs>
<clipPath id="clip0_1315_1302">
<rect width="24" height="24" fill="white"/>
</clipPath>
</defs>
</svg>
