<svg width="24" height="24" viewBox="0 0 24 24" fill="none" xmlns="http://www.w3.org/2000/svg">
<path fill-rule="evenodd" clip-rule="evenodd" d="M6 0H18C18.7956 0 19.5587 0.316071 20.1213 0.87868C20.6839 1.44129 21 2.20435 21 3V21C21 21.7956 20.6839 22.5587 20.1213 23.1213C19.5587 23.6839 18.7956 24 18 24H6C5.20435 24 4.44129 23.6839 3.87868 23.1213C3.31607 22.5587 3 21.7956 3 21V3C3 2.20435 3.31607 1.44129 3.87868 0.87868C4.44129 0.316071 5.20435 0 6 0V0ZM6 1.5C5.60218 1.5 5.22064 1.65804 4.93934 1.93934C4.65804 2.22064 4.5 2.60218 4.5 3V21C4.5 21.3978 4.65804 21.7794 4.93934 22.0607C5.22064 22.342 5.60218 22.5 6 22.5H18C18.3978 22.5 18.7794 22.342 19.0607 22.0607C19.342 21.7794 19.5 21.3978 19.5 21V3C19.5 2.60218 19.342 2.22064 19.0607 1.93934C18.7794 1.65804 18.3978 1.5 18 1.5H6Z" fill="black"/>
<path fill-rule="evenodd" clip-rule="evenodd" d="M9.75016 11.25C9.75016 10.8522 9.9082 10.4706 10.1895 10.1893C10.4708 9.90804 10.8523 9.75 11.2502 9.75H12.7502C13.148 9.75 13.5295 9.90804 13.8108 10.1893C14.0921 10.4706 14.2502 10.8522 14.2502 11.25V12.657L14.8502 15.0555C14.9249 15.3556 14.9051 15.6715 14.7934 15.9599C14.6817 16.2482 14.4836 16.4951 14.2262 16.6665L12.8312 17.5965C12.5848 17.7606 12.2954 17.8482 11.9994 17.8482C11.7034 17.8482 11.414 17.7606 11.1677 17.5965L9.77266 16.6665C9.51553 16.4949 9.31772 16.248 9.20629 15.9596C9.09486 15.6712 9.07526 15.3554 9.15016 15.0555L9.75016 12.657V11.25ZM12.7502 11.25H11.2502V12.657C11.2501 12.7799 11.235 12.9023 11.2052 13.0215L10.6052 15.4185L12.0002 16.3485L13.3952 15.4185L12.7952 13.0215C12.7653 12.9023 12.7502 12.7799 12.7502 12.657V11.25Z" fill="black"/>
<path d="M11.25 1.5H13.5V3H11.25V1.5ZM9.75 3H12V4.5H9.75V3ZM11.25 4.5H13.5V6H11.25V4.5ZM9.75 6H12V7.5H9.75V6ZM11.25 7.5H13.5V9H11.25V7.5Z" fill="black"/>
</svg>
