<svg width="24" height="24" viewBox="0 0 24 24" fill="none" xmlns="http://www.w3.org/2000/svg">
<path fill-rule="evenodd" clip-rule="evenodd" d="M3 3C3 2.20435 3.31607 1.44129 3.87868 0.87868C4.44129 0.316071 5.20435 0 6 0L13.9395 0C14.3373 8.49561e-05 14.7188 0.158176 15 0.4395L20.5605 6C20.8418 6.28124 20.9999 6.66271 21 7.0605V21C21 21.7956 20.6839 22.5587 20.1213 23.1213C19.5587 23.6839 18.7956 24 18 24H6C5.20435 24 4.44129 23.6839 3.87868 23.1213C3.31607 22.5587 3 21.7956 3 21V3ZM13.5 6L14.25 2.25L18.75 6.75L15 7.5C14.6022 7.5 14.2206 7.34196 13.9393 7.06066C13.658 6.77936 13.5 6.39782 13.5 6ZM9.75 8.25C9.75 8.05109 9.67098 7.86032 9.53033 7.71967C9.38968 7.57902 9.19891 7.5 9 7.5C8.80109 7.5 8.61032 7.57902 8.46967 7.71967C8.32902 7.86032 8.25 8.05109 8.25 8.25V9.201L7.4265 8.7255C7.34117 8.67548 7.24679 8.64283 7.14879 8.62943C7.0508 8.61603 6.95111 8.62214 6.85549 8.64743C6.75987 8.67271 6.67019 8.71665 6.59162 8.77674C6.51304 8.83682 6.44713 8.91185 6.39768 8.9975C6.34822 9.08316 6.3162 9.17776 6.30345 9.27584C6.2907 9.37393 6.29748 9.47357 6.32339 9.56902C6.34931 9.66447 6.39385 9.75386 6.45445 9.83203C6.51505 9.9102 6.59052 9.97561 6.6765 10.0245L7.5 10.5L6.6765 10.9755C6.59052 11.0244 6.51505 11.0898 6.45445 11.168C6.39385 11.2461 6.34931 11.3355 6.32339 11.431C6.29748 11.5264 6.2907 11.6261 6.30345 11.7242C6.3162 11.8222 6.34822 11.9168 6.39768 12.0025C6.44713 12.0882 6.51304 12.1632 6.59162 12.2233C6.67019 12.2833 6.75987 12.3273 6.85549 12.3526C6.95111 12.3779 7.0508 12.384 7.14879 12.3706C7.24679 12.3572 7.34117 12.3245 7.4265 12.2745L8.25 11.799V12.75C8.25 12.9489 8.32902 13.1397 8.46967 13.2803C8.61032 13.421 8.80109 13.5 9 13.5C9.19891 13.5 9.38968 13.421 9.53033 13.2803C9.67098 13.1397 9.75 12.9489 9.75 12.75V11.799L10.5735 12.2745C10.6588 12.3245 10.7532 12.3572 10.8512 12.3706C10.9492 12.384 11.0489 12.3779 11.1445 12.3526C11.2401 12.3273 11.3298 12.2833 11.4084 12.2233C11.487 12.1632 11.5529 12.0882 11.6023 12.0025C11.6518 11.9168 11.6838 11.8222 11.6966 11.7242C11.7093 11.6261 11.7025 11.5264 11.6766 11.431C11.6507 11.3355 11.6062 11.2461 11.5456 11.168C11.4849 11.0898 11.4095 11.0244 11.3235 10.9755L10.5 10.5L11.3235 10.0245C11.4095 9.97561 11.4849 9.9102 11.5456 9.83203C11.6062 9.75386 11.6507 9.66447 11.6766 9.56902C11.7025 9.47357 11.7093 9.37393 11.6966 9.27584C11.6838 9.17776 11.6518 9.08316 11.6023 8.9975C11.5529 8.91185 11.487 8.83682 11.4084 8.77674C11.3298 8.71665 11.2401 8.67271 11.1445 8.64743C11.0489 8.62214 10.9492 8.61603 10.8512 8.62943C10.7532 8.64283 10.6588 8.67548 10.5735 8.7255L9.75 9.201V8.25ZM6.75 15C6.55109 15 6.36032 15.079 6.21967 15.2197C6.07902 15.3603 6 15.5511 6 15.75C6 15.9489 6.07902 16.1397 6.21967 16.2803C6.36032 16.421 6.55109 16.5 6.75 16.5H14.25C14.4489 16.5 14.6397 16.421 14.7803 16.2803C14.921 16.1397 15 15.9489 15 15.75C15 15.5511 14.921 15.3603 14.7803 15.2197C14.6397 15.079 14.4489 15 14.25 15H6.75ZM6.75 18C6.55109 18 6.36032 18.079 6.21967 18.2197C6.07902 18.3603 6 18.5511 6 18.75C6 18.9489 6.07902 19.1397 6.21967 19.2803C6.36032 19.421 6.55109 19.5 6.75 19.5H14.25C14.4489 19.5 14.6397 19.421 14.7803 19.2803C14.921 19.1397 15 18.9489 15 18.75C15 18.5511 14.921 18.3603 14.7803 18.2197C14.6397 18.079 14.4489 18 14.25 18H6.75Z" fill="black"/>
</svg>
