<svg width="24" height="24" viewBox="0 0 24 24" fill="none" xmlns="http://www.w3.org/2000/svg">
<path d="M6 0H14.25V1.5H6C5.60218 1.5 5.22064 1.65804 4.93934 1.93934C4.65804 2.22064 4.5 2.60218 4.5 3V21C4.5 21.3978 4.65804 21.7794 4.93934 22.0607C5.22064 22.342 5.60218 22.5 6 22.5H18C18.3978 22.5 18.7794 22.342 19.0607 22.0607C19.342 21.7794 19.5 21.3978 19.5 21V6.75H21V21C21 21.7956 20.6839 22.5587 20.1213 23.1213C19.5587 23.6839 18.7956 24 18 24H6C5.20435 24 4.44129 23.6839 3.87868 23.1213C3.31607 22.5587 3 21.7956 3 21V3C3 2.20435 3.31607 1.44129 3.87868 0.87868C4.44129 0.316071 5.20435 0 6 0V0Z" fill="black"/>
<path d="M14.25 4.5V0L21 6.75H16.5C15.9033 6.75 15.331 6.51295 14.909 6.09099C14.4871 5.66903 14.25 5.09674 14.25 4.5Z" fill="black"/>
<path fill-rule="evenodd" clip-rule="evenodd" d="M12 9C11.6022 9 11.2206 9.15804 10.9393 9.43934C10.658 9.72064 10.5 10.1022 10.5 10.5V12H13.5V10.5C13.5 10.1022 13.342 9.72064 13.0607 9.43934C12.7794 9.15804 12.3978 9 12 9ZM15 12.114V10.5C15 9.70435 14.6839 8.94129 14.1213 8.37868C13.5587 7.81607 12.7956 7.5 12 7.5C11.2044 7.5 10.4413 7.81607 9.87868 8.37868C9.31607 8.94129 9 9.70435 9 10.5V12.114C8.19 12.363 7.5 13.0095 7.5 13.95V17.55C7.5 18.774 8.6715 19.5 9.75 19.5H14.25C15.3285 19.5 16.5 18.774 16.5 17.55V13.95C16.5 13.0095 15.81 12.363 15 12.114ZM9.1575 13.6875C9.03 13.7895 9 13.887 9 13.95V17.55C9 17.613 9.03 17.7105 9.1575 17.8125C9.32859 17.9393 9.53712 18.0053 9.75 18H14.25C14.4628 18.0049 14.6713 17.939 14.8425 17.8125C14.97 17.7105 15 17.613 15 17.55V13.95C15 13.887 14.97 13.7895 14.8425 13.6875C14.6714 13.5607 14.4629 13.4947 14.25 13.5H9.75C9.53712 13.4947 9.32859 13.5607 9.1575 13.6875Z" fill="black"/>
</svg>
