<svg width="24" height="24" viewBox="0 0 24 24" fill="none" xmlns="http://www.w3.org/2000/svg">
<path fill-rule="evenodd" clip-rule="evenodd" d="M6 0H18C18.7956 0 19.5587 0.316071 20.1213 0.87868C20.6839 1.44129 21 2.20435 21 3V21C21 21.7956 20.6839 22.5587 20.1213 23.1213C19.5587 23.6839 18.7956 24 18 24H6C5.20435 24 4.44129 23.6839 3.87868 23.1213C3.31607 22.5587 3 21.7956 3 21V3C3 2.20435 3.31607 1.44129 3.87868 0.87868C4.44129 0.316071 5.20435 0 6 0V0ZM6 1.5C5.60218 1.5 5.22064 1.65804 4.93934 1.93934C4.65804 2.22064 4.5 2.60218 4.5 3V21C4.5 21.3978 4.65804 21.7794 4.93934 22.0607C5.22064 22.342 5.60218 22.5 6 22.5H18C18.3978 22.5 18.7794 22.342 19.0607 22.0607C19.342 21.7794 19.5 21.3978 19.5 21V3C19.5 2.60218 19.342 2.22064 19.0607 1.93934C18.7794 1.65804 18.3978 1.5 18 1.5H6Z" fill="black"/>
<path fill-rule="evenodd" clip-rule="evenodd" d="M12.9703 8.46906C13.04 8.39921 13.1228 8.3438 13.2139 8.30599C13.305 8.26818 13.4027 8.24872 13.5013 8.24872C13.6 8.24872 13.6977 8.26818 13.7888 8.30599C13.8799 8.3438 13.9627 8.39921 14.0323 8.46906L17.0323 11.4691C17.1022 11.5387 17.1576 11.6215 17.1954 11.7126C17.2332 11.8037 17.2527 11.9014 17.2527 12.0001C17.2527 12.0987 17.2332 12.1964 17.1954 12.2875C17.1576 12.3786 17.1022 12.4614 17.0323 12.5311L14.0323 15.5311C13.8915 15.6719 13.7005 15.751 13.5013 15.751C13.3022 15.751 13.1112 15.6719 12.9703 15.5311C12.8295 15.3902 12.7504 15.1992 12.7504 15.0001C12.7504 14.8009 12.8295 14.6099 12.9703 14.4691L15.4408 12.0001L12.9703 9.53106C12.9005 9.46139 12.8451 9.37863 12.8073 9.28751C12.7695 9.19639 12.75 9.09871 12.75 9.00006C12.75 8.90141 12.7695 8.80373 12.8073 8.71261C12.8451 8.62149 12.9005 8.53873 12.9703 8.46906ZM11.0323 8.46906C10.9627 8.39921 10.8799 8.3438 10.7888 8.30599C10.6977 8.26818 10.6 8.24872 10.5013 8.24872C10.4027 8.24872 10.305 8.26818 10.2139 8.30599C10.1228 8.3438 10.04 8.39921 9.97034 8.46906L6.97034 11.4691C6.9005 11.5387 6.84508 11.6215 6.80727 11.7126C6.76946 11.8037 6.75 11.9014 6.75 12.0001C6.75 12.0987 6.76946 12.1964 6.80727 12.2875C6.84508 12.3786 6.9005 12.4614 6.97034 12.5311L9.97034 15.5311C10.1112 15.6719 10.3022 15.751 10.5013 15.751C10.7005 15.751 10.8915 15.6719 11.0323 15.5311C11.1732 15.3902 11.2523 15.1992 11.2523 15.0001C11.2523 14.8009 11.1732 14.6099 11.0323 14.4691L8.56184 12.0001L11.0323 9.53106C11.1022 9.46139 11.1576 9.37863 11.1954 9.28751C11.2332 9.19639 11.2527 9.09871 11.2527 9.00006C11.2527 8.90141 11.2332 8.80373 11.1954 8.71261C11.1576 8.62149 11.1022 8.53873 11.0323 8.46906Z" fill="black"/>
</svg>
