<svg width="25" height="24" viewBox="0 0 25 24" fill="none" xmlns="http://www.w3.org/2000/svg">
<path fill-rule="evenodd" clip-rule="evenodd" d="M6.5 0H18.5C19.2956 0 20.0587 0.316071 20.6213 0.87868C21.1839 1.44129 21.5 2.20435 21.5 3V21C21.5 21.7956 21.1839 22.5587 20.6213 23.1213C20.0587 23.6839 19.2956 24 18.5 24H6.5C5.70435 24 4.94129 23.6839 4.37868 23.1213C3.81607 22.5587 3.5 21.7956 3.5 21V3C3.5 2.20435 3.81607 1.44129 4.37868 0.87868C4.94129 0.316071 5.70435 0 6.5 0V0ZM6.5 1.5C6.10218 1.5 5.72064 1.65804 5.43934 1.93934C5.15804 2.22064 5 2.60218 5 3V21C5 21.3978 5.15804 21.7794 5.43934 22.0607C5.72064 22.342 6.10218 22.5 6.5 22.5H18.5C18.8978 22.5 19.2794 22.342 19.5607 22.0607C19.842 21.7794 20 21.3978 20 21V3C20 2.60218 19.842 2.22064 19.5607 1.93934C19.2794 1.65804 18.8978 1.5 18.5 1.5H6.5Z" fill="black"/>
<path fill-rule="evenodd" clip-rule="evenodd" d="M12.5009 7.5C12.6999 7.5 12.8906 7.57902 13.0313 7.71967C13.1719 7.86032 13.2509 8.05109 13.2509 8.25V13.9395L14.9699 12.219C15.1108 12.0782 15.3018 11.9991 15.5009 11.9991C15.7001 11.9991 15.8911 12.0782 16.0319 12.219C16.1728 12.3598 16.2519 12.5508 16.2519 12.75C16.2519 12.9492 16.1728 13.1402 16.0319 13.281L13.0319 16.281C12.9623 16.3508 12.8795 16.4063 12.7884 16.4441C12.6973 16.4819 12.5996 16.5013 12.5009 16.5013C12.4023 16.5013 12.3046 16.4819 12.2135 16.4441C12.1224 16.4063 12.0396 16.3508 11.9699 16.281L8.96995 13.281C8.90022 13.2113 8.8449 13.1285 8.80716 13.0374C8.76942 12.9463 8.75 12.8486 8.75 12.75C8.75 12.6514 8.76942 12.5537 8.80716 12.4626C8.8449 12.3715 8.90022 12.2887 8.96995 12.219C9.11078 12.0782 9.30178 11.9991 9.50095 11.9991C9.59956 11.9991 9.69721 12.0185 9.78832 12.0562C9.87943 12.094 9.96222 12.1493 10.0319 12.219L11.7509 13.9395V8.25C11.7509 8.05109 11.83 7.86032 11.9706 7.71967C12.1113 7.57902 12.302 7.5 12.5009 7.5Z" fill="black"/>
</svg>
