<svg width="24" height="24" viewBox="0 0 24 24" fill="none" xmlns="http://www.w3.org/2000/svg">
<path fill-rule="evenodd" clip-rule="evenodd" d="M3 3C3 2.20435 3.31607 1.44129 3.87868 0.87868C4.44129 0.316071 5.20435 0 6 0L13.9395 0C14.3373 8.49561e-05 14.7188 0.158176 15 0.4395L20.5605 6C20.8418 6.28124 20.9999 6.66271 21 7.0605V21C21 21.7956 20.6839 22.5587 20.1213 23.1213C19.5587 23.6839 18.7956 24 18 24H6C5.20435 24 4.44129 23.6839 3.87868 23.1213C3.31607 22.5587 3 21.7956 3 21V3ZM14.25 5.25V2.25L18.75 6.75H15.75C15.3522 6.75 14.9706 6.59196 14.6893 6.31066C14.408 6.02936 14.25 5.64782 14.25 5.25ZM10.281 10.719C10.2113 10.6493 10.1285 10.594 10.0374 10.5562C9.94627 10.5185 9.84862 10.4991 9.75 10.4991C9.65138 10.4991 9.55373 10.5185 9.46262 10.5562C9.37152 10.594 9.28873 10.6493 9.219 10.719C9.14927 10.7887 9.09395 10.8715 9.05621 10.9626C9.01848 11.0537 8.99905 11.1514 8.99905 11.25C8.99905 11.3486 9.01848 11.4463 9.05621 11.5374C9.09395 11.6285 9.14927 11.7113 9.219 11.781L10.9395 13.5L9.219 15.219C9.07817 15.3598 8.99905 15.5508 8.99905 15.75C8.99905 15.9492 9.07817 16.1402 9.219 16.281C9.35983 16.4218 9.55084 16.5009 9.75 16.5009C9.94916 16.5009 10.1402 16.4218 10.281 16.281L12 14.5605L13.719 16.281C13.8598 16.4218 14.0508 16.5009 14.25 16.5009C14.4492 16.5009 14.6402 16.4218 14.781 16.281C14.9218 16.1402 15.0009 15.9492 15.0009 15.75C15.0009 15.5508 14.9218 15.3598 14.781 15.219L13.0605 13.5L14.781 11.781C14.9218 11.6402 15.0009 11.4492 15.0009 11.25C15.0009 11.0508 14.9218 10.8598 14.781 10.719C14.6402 10.5782 14.4492 10.4991 14.25 10.4991C14.0508 10.4991 13.8598 10.5782 13.719 10.719L12 12.4395L10.281 10.719Z" fill="black"/>
</svg>
