<svg width="24" height="24" viewBox="0 0 24 24" fill="none" xmlns="http://www.w3.org/2000/svg">
<g clip-path="url(#clip0_1315_1297)">
<path fill-rule="evenodd" clip-rule="evenodd" d="M18 0H6C5.20435 0 4.44129 0.316071 3.87868 0.87868C3.31607 1.44129 3 2.20435 3 3V21C3 21.7956 3.31607 22.5587 3.87868 23.1213C4.44129 23.6839 5.20435 24 6 24H18C18.7956 24 19.5587 23.6839 20.1213 23.1213C20.6839 22.5587 21 21.7956 21 21V3C21 2.20435 20.6839 1.44129 20.1213 0.87868C19.5587 0.316071 18.7956 0 18 0V0ZM11.25 10.0605V15.75C11.25 15.9489 11.329 16.1397 11.4697 16.2803C11.6103 16.421 11.8011 16.5 12 16.5C12.1989 16.5 12.3897 16.421 12.5303 16.2803C12.671 16.1397 12.75 15.9489 12.75 15.75V10.0605L14.469 11.781C14.6098 11.9218 14.8008 12.0009 15 12.0009C15.1992 12.0009 15.3902 11.9218 15.531 11.781C15.6718 11.6402 15.7509 11.4492 15.7509 11.25C15.7509 11.0508 15.6718 10.8598 15.531 10.719L12.531 7.719C12.4613 7.64916 12.3786 7.59374 12.2874 7.55593C12.1963 7.51812 12.0987 7.49866 12 7.49866C11.9013 7.49866 11.8037 7.51812 11.7125 7.55593C11.6214 7.59374 11.5387 7.64916 11.469 7.719L8.469 10.719C8.32817 10.8598 8.24905 11.0508 8.24905 11.25C8.24905 11.4492 8.32817 11.6402 8.469 11.781C8.60983 11.9218 8.80084 12.0009 9 12.0009C9.19916 12.0009 9.39017 11.9218 9.531 11.781L11.25 10.0605Z" fill="black"/>
</g>
<defs>
<clipPath id="clip0_1315_1297">
<rect width="24" height="24" fill="white"/>
</clipPath>
</defs>
</svg>
