<svg width="24" height="24" viewBox="0 0 24 24" fill="none" xmlns="http://www.w3.org/2000/svg">
<g clip-path="url(#clip0_1315_1380)">
<path fill-rule="evenodd" clip-rule="evenodd" d="M6 0C5.20435 0 4.44129 0.316071 3.87868 0.87868C3.31607 1.44129 3 2.20435 3 3V18.4395L7.305 14.1345C7.54165 13.8979 7.85063 13.7472 8.18277 13.7065C8.51491 13.6657 8.85115 13.7372 9.138 13.9095L11.793 15.4995L14.625 11.535C14.7516 11.3579 14.9153 11.2105 15.1046 11.1031C15.2939 10.9956 15.5043 10.9306 15.7212 10.9126C15.9382 10.8946 16.1564 10.9241 16.3609 10.9989C16.5653 11.0738 16.751 11.1922 16.905 11.346L21 15.4395V7.0605C20.9999 6.66271 20.8418 6.28124 20.5605 6L15 0.4395C14.7188 0.158176 14.3373 8.49561e-05 13.9395 0L6 0ZM3 21V20.5605L8.367 15.195L11.6145 17.1435L12.2085 17.499L12.6105 16.9365L15.846 12.4065L21 17.5605V21C21 21.7956 20.6839 22.5587 20.1213 23.1213C19.5587 23.6839 18.7956 24 18 24H6C5.20435 24 4.44129 23.6839 3.87868 23.1213C3.31607 22.5587 3 21.7956 3 21ZM14.25 2.25V5.25C14.25 5.64782 14.408 6.02936 14.6893 6.31066C14.9706 6.59196 15.3522 6.75 15.75 6.75H18.75L14.25 2.25ZM12.003 8.25C12.003 8.84674 11.7659 9.41903 11.344 9.84099C10.922 10.2629 10.3497 10.5 9.753 10.5C9.15626 10.5 8.58397 10.2629 8.16201 9.84099C7.74005 9.41903 7.503 8.84674 7.503 8.25C7.503 7.65326 7.74005 7.08097 8.16201 6.65901C8.58397 6.23705 9.15626 6 9.753 6C10.3497 6 10.922 6.23705 11.344 6.65901C11.7659 7.08097 12.003 7.65326 12.003 8.25Z" fill="black"/>
</g>
<defs>
<clipPath id="clip0_1315_1380">
<rect width="24" height="24" fill="white"/>
</clipPath>
</defs>
</svg>
