<svg width="24" height="24" viewBox="0 0 24 24" fill="none" xmlns="http://www.w3.org/2000/svg">
<path fill-rule="evenodd" clip-rule="evenodd" d="M3 3C3 2.20435 3.31607 1.44129 3.87868 0.87868C4.44129 0.316071 5.20435 0 6 0L13.9395 0C14.3373 8.49561e-05 14.7188 0.158176 15 0.4395L20.5605 6C20.8418 6.28124 20.9999 6.66271 21 7.0605V13.5H3V3ZM3 18V21C3 21.7956 3.31607 22.5587 3.87868 23.1213C4.44129 23.6839 5.20435 24 6 24H18C18.7956 24 19.5587 23.6839 20.1213 23.1213C20.6839 22.5587 21 21.7956 21 21V18H3ZM13.5 6L14.25 2.25L18.75 6.75L15 7.5C14.6022 7.5 14.2206 7.34196 13.9393 7.06066C13.658 6.77936 13.5 6.39782 13.5 6ZM0 15.75C0 15.5511 0.0790176 15.3603 0.21967 15.2197C0.360322 15.079 0.551088 15 0.75 15H23.25C23.4489 15 23.6397 15.079 23.7803 15.2197C23.921 15.3603 24 15.5511 24 15.75C24 15.9489 23.921 16.1397 23.7803 16.2803C23.6397 16.421 23.4489 16.5 23.25 16.5H0.75C0.551088 16.5 0.360322 16.421 0.21967 16.2803C0.0790176 16.1397 0 15.9489 0 15.75Z" fill="black"/>
</svg>
