<svg width="24" height="24" viewBox="0 0 24 24" fill="none" xmlns="http://www.w3.org/2000/svg">
<path fill-rule="evenodd" clip-rule="evenodd" d="M3 3C3 2.20435 3.31607 1.44129 3.87868 0.87868C4.44129 0.316071 5.20435 0 6 0L13.9395 0C14.3373 8.49561e-05 14.7188 0.158176 15 0.4395L20.5605 6C20.8418 6.28124 20.9999 6.66271 21 7.0605V21C21 21.7956 20.6839 22.5587 20.1213 23.1213C19.5587 23.6839 18.7956 24 18 24H6C5.20435 24 4.44129 23.6839 3.87868 23.1213C3.31607 22.5587 3 21.7956 3 21V3ZM13.5 6L14.25 2.25L18.75 6.75L15 7.5C14.6022 7.5 14.2206 7.34196 13.9393 7.06066C13.658 6.77936 13.5 6.39782 13.5 6ZM10.575 17.8275C10.575 19.95 9.753 21.1365 8.289 21.1365C6.822 21.135 6 19.95 6 17.8275C6 15.7095 6.822 14.523 8.289 14.523C9.753 14.523 10.575 15.708 10.575 17.8275ZM8.289 15.4095C7.476 15.4095 7.041 16.254 7.041 17.8275C7.041 17.9595 7.0455 18.087 7.05 18.2055L9.3885 16.491C9.1995 15.78 8.826 15.411 8.289 15.411V15.4095ZM7.191 19.1715C7.38 19.8795 7.749 20.2485 8.289 20.2485C9.099 20.2485 9.534 19.404 9.534 17.8275C9.534 17.7 9.5295 17.5725 9.525 17.4525L7.191 19.1715ZM16.2825 20.1075V21H11.7825V20.1075H13.554V15.75H13.479L11.775 16.8705V15.8385L13.56 14.6595H14.595V20.109H16.2825V20.1075Z" fill="black"/>
</svg>
