<svg width="24" height="24" viewBox="0 0 24 24" fill="none" xmlns="http://www.w3.org/2000/svg">
<path fill-rule="evenodd" clip-rule="evenodd" d="M6 0H18C18.7956 0 19.5587 0.316071 20.1213 0.87868C20.6839 1.44129 21 2.20435 21 3V21C21 21.7956 20.6839 22.5587 20.1213 23.1213C19.5587 23.6839 18.7956 24 18 24H6C5.20435 24 4.44129 23.6839 3.87868 23.1213C3.31607 22.5587 3 21.7956 3 21V3C3 2.20435 3.31607 1.44129 3.87868 0.87868C4.44129 0.316071 5.20435 0 6 0V0ZM6 1.5C5.60218 1.5 5.22064 1.65804 4.93934 1.93934C4.65804 2.22064 4.5 2.60218 4.5 3V21C4.5 21.3978 4.65804 21.7794 4.93934 22.0607C5.22064 22.342 5.60218 22.5 6 22.5H18C18.3978 22.5 18.7794 22.342 19.0607 22.0607C19.342 21.7794 19.5 21.3978 19.5 21V3C19.5 2.60218 19.342 2.22064 19.0607 1.93934C18.7794 1.65804 18.3978 1.5 18 1.5H6Z" fill="black"/>
<path fill-rule="evenodd" clip-rule="evenodd" d="M16.2819 9.21906C16.3518 9.28873 16.4072 9.37149 16.445 9.46261C16.4828 9.55373 16.5023 9.65141 16.5023 9.75006C16.5023 9.84871 16.4828 9.94639 16.445 10.0375C16.4072 10.1286 16.3518 10.2114 16.2819 10.2811L11.7819 14.7811C11.7123 14.8509 11.6295 14.9063 11.5384 14.9441C11.4473 14.9819 11.3496 15.0014 11.2509 15.0014C11.1523 15.0014 11.0546 14.9819 10.9635 14.9441C10.8724 14.9063 10.7896 14.8509 10.7199 14.7811L8.46995 12.5311C8.40022 12.4613 8.3449 12.3785 8.30716 12.2874C8.26942 12.1963 8.25 12.0987 8.25 12.0001C8.25 11.9014 8.26942 11.8038 8.30716 11.7127C8.3449 11.6216 8.40022 11.5388 8.46995 11.4691C8.53968 11.3993 8.62246 11.344 8.71357 11.3063C8.80468 11.2685 8.90233 11.2491 9.00095 11.2491C9.09956 11.2491 9.19721 11.2685 9.28832 11.3063C9.37943 11.344 9.46222 11.3993 9.53195 11.4691L11.2509 13.1896L15.2199 9.21906C15.2896 9.14921 15.3724 9.0938 15.4635 9.05599C15.5546 9.01818 15.6523 8.99872 15.7509 8.99872C15.8496 8.99872 15.9473 9.01818 16.0384 9.05599C16.1295 9.0938 16.2123 9.14921 16.2819 9.21906Z" fill="black"/>
</svg>
