<svg width="24" height="24" viewBox="0 0 24 24" fill="none" xmlns="http://www.w3.org/2000/svg">
<path fill-rule="evenodd" clip-rule="evenodd" d="M6 0H18C18.7956 0 19.5587 0.316071 20.1213 0.87868C20.6839 1.44129 21 2.20435 21 3V21C21 21.7956 20.6839 22.5587 20.1213 23.1213C19.5587 23.6839 18.7956 24 18 24H6C5.20435 24 4.44129 23.6839 3.87868 23.1213C3.31607 22.5587 3 21.7956 3 21V3C3 2.20435 3.31607 1.44129 3.87868 0.87868C4.44129 0.316071 5.20435 0 6 0V0ZM6 1.5C5.60218 1.5 5.22064 1.65804 4.93934 1.93934C4.65804 2.22064 4.5 2.60218 4.5 3V21C4.5 21.3978 4.65804 21.7794 4.93934 22.0607C5.22064 22.342 5.60218 22.5 6 22.5H18C18.3978 22.5 18.7794 22.342 19.0607 22.0607C19.342 21.7794 19.5 21.3978 19.5 21V3C19.5 2.60218 19.342 2.22064 19.0607 1.93934C18.7794 1.65804 18.3978 1.5 18 1.5H6Z" fill="black"/>
<path d="M15 17.25C15 17.664 13.6575 18 12 18C10.3425 18 9 17.664 9 17.25C9 16.836 10.3425 16.5 12 16.5C13.6575 16.5 15 16.836 15 17.25Z" fill="black"/>
<path fill-rule="evenodd" clip-rule="evenodd" d="M6.75579 6.657C6.77845 6.47564 6.86656 6.3088 7.00356 6.18782C7.14056 6.06684 7.31702 6.00005 7.49979 6H16.4998C16.6826 6.00005 16.859 6.06684 16.996 6.18782C17.133 6.3088 17.2211 6.47564 17.2438 6.657L17.9938 12.657C18.007 12.7625 17.9976 12.8696 17.9662 12.9712C17.9349 13.0728 17.8823 13.1666 17.8119 13.2463C17.7415 13.326 17.655 13.3898 17.5581 13.4336C17.4612 13.4773 17.3561 13.5 17.2498 13.5H12.7498V16.524C12.2503 16.4919 11.7493 16.4919 11.2498 16.524V13.5H6.74979C6.64346 13.5 6.53836 13.4773 6.44145 13.4336C6.34454 13.3898 6.25804 13.326 6.18768 13.2463C6.11732 13.1666 6.06472 13.0728 6.03336 12.9712C6.002 12.8696 5.9926 12.7625 6.00579 12.657L6.75579 6.657ZM10.4998 7.8315V11.6685C10.4998 11.814 10.6588 11.904 10.7848 11.829L13.9798 9.9105C14.0074 9.89381 14.0303 9.87026 14.0462 9.84215C14.062 9.81403 14.0704 9.78229 14.0704 9.75C14.0704 9.71771 14.062 9.68597 14.0462 9.65786C14.0303 9.62974 14.0074 9.60619 13.9798 9.5895L10.7848 7.6695C10.7561 7.65204 10.7233 7.64259 10.6897 7.64215C10.6561 7.64171 10.6231 7.6503 10.594 7.667C10.5648 7.68371 10.5407 7.70792 10.5242 7.73712C10.5076 7.76632 10.4992 7.79943 10.4998 7.833V7.8315Z" fill="black"/>
</svg>
