<svg width="24" height="24" viewBox="0 0 24 24" fill="none" xmlns="http://www.w3.org/2000/svg">
<path d="M6 0H14.25V1.5H6C5.60218 1.5 5.22064 1.65804 4.93934 1.93934C4.65804 2.22064 4.5 2.60218 4.5 3V21C4.5 21.3978 4.65804 21.7794 4.93934 22.0607C5.22064 22.342 5.60218 22.5 6 22.5H18C18.3978 22.5 18.7794 22.342 19.0607 22.0607C19.342 21.7794 19.5 21.3978 19.5 21V6.75H21V21C21 21.7956 20.6839 22.5587 20.1213 23.1213C19.5587 23.6839 18.7956 24 18 24H6C5.20435 24 4.44129 23.6839 3.87868 23.1213C3.31607 22.5587 3 21.7956 3 21V3C3 2.20435 3.31607 1.44129 3.87868 0.87868C4.44129 0.316071 5.20435 0 6 0V0Z" fill="black"/>
<path d="M14.25 4.5V0L21 6.75H16.5C15.9033 6.75 15.331 6.51295 14.909 6.09099C14.4871 5.66903 14.25 5.09674 14.25 4.5Z" fill="black"/>
<path fill-rule="evenodd" clip-rule="evenodd" d="M12 16.5C13.1935 16.5 14.3381 16.0259 15.182 15.182C16.0259 14.3381 16.5 13.1935 16.5 12C16.5 10.8065 16.0259 9.66193 15.182 8.81802C14.3381 7.97411 13.1935 7.5 12 7.5C10.8065 7.5 9.66193 7.97411 8.81802 8.81802C7.97411 9.66193 7.5 10.8065 7.5 12C7.5 13.1935 7.97411 14.3381 8.81802 15.182C9.66193 16.0259 10.8065 16.5 12 16.5Z" fill="black"/>
<path d="M12 18C18 18 19.5 20.6325 19.5 20.6325V21C19.5 21.3978 19.342 21.7794 19.0607 22.0607C18.7794 22.342 18.3978 22.5 18 22.5H6C5.60218 22.5 5.22064 22.342 4.93934 22.0607C4.65804 21.7794 4.5 21.3978 4.5 21V20.6325C4.5 20.6325 6 18 12 18Z" fill="black"/>
</svg>
