<svg width="24" height="24" viewBox="0 0 24 24" fill="none" xmlns="http://www.w3.org/2000/svg">
<path fill-rule="evenodd" clip-rule="evenodd" d="M17.1373 12C17.7928 11.922 18.3538 11.796 18.6973 11.598C19.3807 11.1973 19.8779 10.5426 20.0804 9.77676C20.2829 9.01087 20.1743 8.19598 19.7781 7.50992C19.382 6.82385 18.7306 6.32232 17.9661 6.11475C17.2016 5.90719 16.386 6.01045 15.6973 6.402C15.3538 6.6 14.9638 7.023 14.5693 7.5525C14.8303 6.945 15.0013 6.396 15.0013 6C15.0013 5.20435 14.6852 4.44129 14.1226 3.87868C13.56 3.31607 12.797 3 12.0013 3C11.2057 3 10.4426 3.31607 9.88 3.87868C9.31739 4.44129 9.00132 5.20435 9.00132 6C9.00132 6.396 9.17232 6.945 9.43332 7.5525C9.03882 7.023 8.64882 6.6 8.30532 6.402C7.61664 6.01045 6.80105 5.90719 6.03653 6.11475C5.272 6.32232 4.62061 6.82385 4.2245 7.50992C3.82839 8.19598 3.71972 9.01087 3.92221 9.77676C4.12469 10.5426 4.6219 11.1973 5.30532 11.598C5.64882 11.796 6.20982 11.922 6.86532 12C6.20982 12.078 5.64882 12.204 5.30532 12.402C4.96138 12.5975 4.65952 12.8592 4.41712 13.1719C4.17471 13.4846 3.99655 13.8421 3.89289 14.2239C3.78923 14.6057 3.76212 15.0043 3.81311 15.3966C3.86411 15.789 3.9922 16.1674 4.19003 16.51C4.38785 16.8526 4.6515 17.1527 4.96578 17.3931C5.28007 17.6334 5.63878 17.8092 6.02128 17.9103C6.40378 18.0114 6.8025 18.0359 7.19449 17.9823C7.58649 17.9287 7.96401 17.7981 8.30532 17.598C8.64882 17.4 9.03882 16.977 9.43332 16.4475C9.17232 17.055 9.00132 17.604 9.00132 18C9.00132 18.7956 9.31739 19.5587 9.88 20.1213C10.4426 20.6839 11.2057 21 12.0013 21C12.797 21 13.56 20.6839 14.1226 20.1213C14.6852 19.5587 15.0013 18.7956 15.0013 18C15.0013 17.604 14.8303 17.055 14.5693 16.4475C14.9638 16.977 15.3538 17.4 15.6973 17.598C16.0386 17.7981 16.4162 17.9287 16.8081 17.9823C17.2001 18.0359 17.5989 18.0114 17.9814 17.9103C18.3639 17.8092 18.7226 17.6334 19.0369 17.3931C19.3511 17.1527 19.6148 16.8526 19.8126 16.51C20.0104 16.1674 20.1385 15.789 20.1895 15.3966C20.2405 15.0043 20.2134 14.6057 20.1097 14.2239C20.0061 13.8421 19.8279 13.4846 19.5855 13.1719C19.3431 12.8592 19.0413 12.5975 18.6973 12.402C18.3538 12.204 17.7928 12.078 17.1373 12ZM13.5013 6C13.5013 5.60218 13.3433 5.22064 13.062 4.93934C12.7807 4.65804 12.3991 4.5 12.0013 4.5C11.6035 4.5 11.222 4.65804 10.9407 4.93934C10.6594 5.22064 10.5013 5.60218 10.5013 6C10.5164 6.10448 10.539 6.20774 10.5688 6.309C10.6273 6.5055 10.7188 6.75 10.8433 7.0335C11.0923 7.6005 11.4373 8.2455 11.7988 8.868L12.0013 9.213L12.2038 8.868C12.5653 8.2455 12.9088 7.6005 13.1593 7.0335C13.2838 6.7485 13.3753 6.5055 13.4338 6.3075C13.4638 6.21 13.4803 6.1335 13.4908 6.0765C13.5013 6.027 13.5013 6.003 13.5013 6ZM5.50632 8.25C5.30742 8.59452 5.25351 9.00394 5.35647 9.3882C5.45943 9.77246 5.71081 10.1001 6.05532 10.299C6.1529 10.3381 6.25316 10.3702 6.35532 10.395C6.55632 10.443 6.81282 10.485 7.12032 10.5195C7.73682 10.587 8.46732 10.611 9.18882 10.6095C9.32382 10.6095 9.45582 10.6095 9.58782 10.6065C9.52303 10.4901 9.45753 10.3741 9.39132 10.2585C9.05175 9.65754 8.68022 9.0752 8.27832 8.514C8.12724 8.30416 7.96343 8.10378 7.78782 7.914C7.73334 7.85593 7.67575 7.80085 7.61532 7.749C7.57782 7.716 7.55832 7.704 7.55532 7.701C7.2108 7.5021 6.80138 7.44819 6.41712 7.55115C6.03286 7.65411 5.70524 7.90549 5.50632 8.25ZM7.55532 16.299C7.21098 16.4948 6.80319 16.5464 6.42092 16.4426C6.03866 16.3388 5.71296 16.0881 5.51491 15.745C5.31685 15.402 5.26252 14.9946 5.36376 14.6116C5.46501 14.2287 5.71361 13.9013 6.05532 13.701C6.05682 13.701 6.07932 13.689 6.12582 13.671C6.18132 13.6515 6.25632 13.629 6.35532 13.605C6.55632 13.557 6.81282 13.515 7.12032 13.4805C7.80771 13.4136 8.49821 13.3835 9.18882 13.3905C9.32382 13.3905 9.45582 13.3905 9.58782 13.3935C9.52303 13.5099 9.45753 13.6259 9.39132 13.7415C9.03132 14.3655 8.64582 14.9865 8.27832 15.486C8.1276 15.6961 7.96377 15.8965 7.78782 16.086C7.71546 16.1624 7.63776 16.2336 7.55532 16.299ZM13.5013 18C13.5013 18.3978 13.3433 18.7794 13.062 19.0607C12.7807 19.342 12.3991 19.5 12.0013 19.5C11.6035 19.5 11.222 19.342 10.9407 19.0607C10.6594 18.7794 10.5013 18.3978 10.5013 18C10.5164 17.8955 10.539 17.7923 10.5688 17.691C10.6273 17.4945 10.7188 17.25 10.8433 16.9665C11.0923 16.3995 11.4373 15.7545 11.7988 15.132L12.0013 14.787L12.2038 15.132C12.5653 15.7545 12.9088 16.3995 13.1593 16.9665C13.2838 17.2515 13.3753 17.4945 13.4338 17.6925C13.4643 17.7931 13.4869 17.8959 13.5013 18ZM18.4963 8.25C18.6952 8.59452 18.7491 9.00394 18.6462 9.3882C18.5432 9.77246 18.2918 10.1001 17.9473 10.299C17.8497 10.3381 17.7495 10.3702 17.6473 10.395C17.4463 10.443 17.1898 10.485 16.8823 10.5195C16.2643 10.587 15.5353 10.611 14.8138 10.6095C14.6788 10.6095 14.5468 10.6095 14.4148 10.6065L14.6113 10.2585C14.9713 9.6345 15.3568 9.0135 15.7243 8.514C15.875 8.30389 16.0389 8.10349 16.2148 7.914C16.2838 7.839 16.3423 7.785 16.3858 7.749C16.4248 7.716 16.4458 7.704 16.4473 7.701C16.7918 7.5021 17.2013 7.44819 17.5855 7.55115C17.9698 7.65411 18.2974 7.90549 18.4963 8.25ZM16.4473 16.299C16.7917 16.4948 17.1995 16.5464 17.5817 16.4426C17.964 16.3388 18.2897 16.0881 18.4877 15.745C18.6858 15.402 18.7401 14.9946 18.6389 14.6116C18.5376 14.2287 18.289 13.9013 17.9473 13.701C17.9443 13.701 17.9233 13.689 17.8768 13.671C17.8016 13.6449 17.7249 13.6229 17.6473 13.605C17.3951 13.5479 17.1396 13.5063 16.8823 13.4805C16.1949 13.4136 15.5044 13.3835 14.8138 13.3905C14.6788 13.3905 14.5468 13.3905 14.4148 13.3935C14.4796 13.5099 14.5451 13.6259 14.6113 13.7415C14.9713 14.3655 15.3568 14.9865 15.7243 15.486C15.9073 15.7365 16.0723 15.936 16.2148 16.086C16.2872 16.1624 16.3649 16.2335 16.4473 16.299ZM12.0013 13.5C12.3991 13.5 12.7807 13.342 13.062 13.0607C13.3433 12.7794 13.5013 12.3978 13.5013 12C13.5013 11.6022 13.3433 11.2206 13.062 10.9393C12.7807 10.658 12.3991 10.5 12.0013 10.5C11.6035 10.5 11.222 10.658 10.9407 10.9393C10.6594 11.2206 10.5013 11.6022 10.5013 12C10.5013 12.3978 10.6594 12.7794 10.9407 13.0607C11.222 13.342 11.6035 13.5 12.0013 13.5Z" fill="black"/>
</svg>
