<svg width="24" height="24" viewBox="0 0 24 24" fill="none" xmlns="http://www.w3.org/2000/svg">
<g clip-path="url(#clip0_1315_1615)">
<path fill-rule="evenodd" clip-rule="evenodd" d="M9.25819 1.77429C9.49452 1.2454 9.87892 0.796242 10.365 0.481064C10.851 0.165886 11.4179 -0.00183105 11.9972 -0.00183105C12.5765 -0.00183105 13.1434 0.165886 13.6294 0.481064C14.1155 0.796242 14.4999 1.2454 14.7362 1.77429C15.2053 1.43382 15.763 1.23653 16.3418 1.20629C16.9207 1.17604 17.4959 1.31413 17.9979 1.60386C18.4999 1.89359 18.9073 2.32255 19.1707 2.83888C19.4341 3.3552 19.5423 3.93678 19.4822 4.51329C20.0587 4.45318 20.6403 4.56138 21.1566 4.82479C21.6729 5.0882 22.1019 5.49554 22.3916 5.99757C22.6814 6.4996 22.8194 7.07481 22.7892 7.65366C22.7589 8.2325 22.5617 8.79019 22.2212 9.25929C22.7501 9.49562 23.1992 9.88001 23.5144 10.3661C23.8296 10.8521 23.9973 11.419 23.9973 11.9983C23.9973 12.5776 23.8296 13.1445 23.5144 13.6305C23.1992 14.1166 22.7501 14.501 22.2212 14.7373C22.5617 15.2064 22.7589 15.7641 22.7892 16.3429C22.8194 16.9218 22.6814 17.497 22.3916 17.999C22.1019 18.501 21.6729 18.9084 21.1566 19.1718C20.6403 19.4352 20.0587 19.5434 19.4822 19.4833C19.5423 20.0598 19.4341 20.6414 19.1707 21.1577C18.9073 21.674 18.4999 22.103 17.9979 22.3927C17.4959 22.6824 16.9207 22.8205 16.3418 22.7903C15.763 22.76 15.2053 22.5628 14.7362 22.2223C14.4999 22.7512 14.1155 23.2003 13.6294 23.5155C13.1434 23.8307 12.5765 23.9984 11.9972 23.9984C11.4179 23.9984 10.851 23.8307 10.365 23.5155C9.87892 23.2003 9.49452 22.7512 9.25819 22.2223C8.78909 22.5628 8.2314 22.76 7.65256 22.7903C7.07371 22.8205 6.4985 22.6824 5.99647 22.3927C5.49444 22.103 5.0871 21.674 4.82369 21.1577C4.56028 20.6414 4.45209 20.0598 4.51219 19.4833C3.93568 19.5434 3.3541 19.4352 2.83778 19.1718C2.32145 18.9084 1.89249 18.501 1.60276 17.999C1.31303 17.497 1.17494 16.9218 1.20519 16.3429C1.23543 15.7641 1.43272 15.2064 1.77319 14.7373C1.2443 14.501 0.795143 14.1166 0.479965 13.6305C0.164787 13.1445 -0.00292969 12.5776 -0.00292969 11.9983C-0.00292969 11.419 0.164787 10.8521 0.479965 10.3661C0.795143 9.88001 1.2443 9.49562 1.77319 9.25929C1.43272 8.79019 1.23543 8.2325 1.20519 7.65366C1.17494 7.07481 1.31303 6.4996 1.60276 5.99757C1.89249 5.49554 2.32145 5.0882 2.83778 4.82479C3.3541 4.56138 3.93568 4.45318 4.51219 4.51329C4.45209 3.93678 4.56028 3.3552 4.82369 2.83888C5.0871 2.32255 5.49444 1.89359 5.99647 1.60386C6.4985 1.31413 7.07371 1.17604 7.65256 1.20629C8.2314 1.23653 8.78909 1.43382 9.25819 1.77429ZM11.9972 1.49829C12.395 1.49829 12.7765 1.65633 13.0579 1.93763C13.3392 2.21893 13.4972 2.60047 13.4972 2.99829L13.4942 3.04329C13.4698 3.23797 13.4378 3.43162 13.3982 3.62379C13.3247 3.98529 13.2152 4.43679 13.0787 4.95429C12.7637 6.1179 12.4257 7.27513 12.0647 8.42529L11.9972 8.64129L11.9297 8.42529C11.5687 7.27513 11.2306 6.1179 10.9157 4.95429C10.7971 4.51378 10.6906 4.07012 10.5962 3.62379C10.5566 3.43212 10.5246 3.23897 10.5002 3.04479C10.494 2.84418 10.5281 2.64436 10.6005 2.45717C10.6729 2.26998 10.7821 2.09923 10.9217 1.95502C11.0613 1.81081 11.2284 1.69608 11.4131 1.61763C11.5979 1.53918 11.7965 1.4986 11.9972 1.49829ZM2.99719 13.4983C2.79496 13.5038 2.59372 13.4683 2.40556 13.394C2.2174 13.3197 2.04621 13.2081 1.9023 13.0659C1.75839 12.9237 1.64472 12.7539 1.56814 12.5667C1.49156 12.3794 1.45365 12.1786 1.45669 11.9763C1.45973 11.774 1.50365 11.5745 1.58582 11.3896C1.66798 11.2047 1.78669 11.0384 1.93481 10.9006C2.08293 10.7628 2.25739 10.6564 2.44769 10.5878C2.638 10.5192 2.84022 10.4897 3.04219 10.5013L3.17869 10.5163C3.29419 10.5343 3.44269 10.5598 3.62269 10.5973C3.98419 10.6708 4.43569 10.7803 4.95319 10.9168C6.1168 11.2317 7.27403 11.5698 8.42419 11.9308L8.64019 11.9983L8.42419 12.0658C7.22419 12.4378 5.98519 12.8068 4.95319 13.0798C4.43569 13.2163 3.98419 13.3258 3.62269 13.3993C3.43102 13.4388 3.23787 13.4709 3.04369 13.4953L2.99719 13.4983ZM13.4972 20.9983C13.4972 21.3961 13.3392 21.7776 13.0579 22.059C12.7765 22.3403 12.395 22.4983 11.9972 22.4983C11.5994 22.4983 11.2178 22.3403 10.9365 22.059C10.6552 21.7776 10.4972 21.3961 10.4972 20.9983L10.5002 20.9533C10.5246 20.7591 10.5566 20.566 10.5962 20.3743C10.6697 20.0113 10.7792 19.5598 10.9157 19.0423C11.1887 18.0103 11.5577 16.7728 11.9297 15.5713L11.9972 15.3553L12.0647 15.5713C12.4367 16.7713 12.8057 18.0103 13.0787 19.0423C13.2152 19.5598 13.3247 20.0113 13.3982 20.3728C13.4377 20.5645 13.4698 20.7576 13.4942 20.9518L13.4972 20.9983ZM4.95319 17.7973C4.60885 17.9931 4.20106 18.0447 3.81879 17.9409C3.43653 17.8371 3.11083 17.5864 2.91278 17.2433C2.71473 16.9003 2.66039 16.4929 2.76164 16.1099C2.86288 15.727 3.11148 15.3996 3.45319 15.1993L3.49369 15.1783C3.52369 15.1633 3.56569 15.1468 3.61969 15.1243C3.75965 15.0691 3.90122 15.0181 4.04419 14.9713C4.39369 14.8543 4.83919 14.7238 5.35519 14.5843C6.52088 14.275 7.69262 13.9889 8.86969 13.7263L9.09019 13.6768L8.93569 13.8418C8.12082 14.7304 7.28765 15.6021 6.43669 16.4563C6.05719 16.8343 5.72119 17.1538 5.44669 17.3998C5.29962 17.5297 5.1475 17.6538 4.99069 17.7718L4.95319 17.7973ZM6.74719 21.0913C7.09171 21.2902 7.50113 21.3441 7.88539 21.2411C8.26965 21.1382 8.59727 20.8868 8.79619 20.5423L8.81719 20.5018C8.83219 20.4718 8.84869 20.4298 8.87119 20.3758C8.92636 20.2358 8.97739 20.0943 9.02419 19.9513C9.14119 19.6018 9.27169 19.1563 9.41119 18.6403C9.72048 17.4746 10.0065 16.3029 10.2692 15.1258L10.3187 14.9053L10.1537 15.0583C9.26576 15.8744 8.39409 16.7081 7.53919 17.5588C7.21593 17.8803 6.90132 18.2104 6.59569 18.5488C6.46584 18.6959 6.34175 18.848 6.22369 19.0048L6.19819 19.0423C5.99929 19.3868 5.94539 19.7962 6.04834 20.1805C6.1513 20.5647 6.40268 20.8924 6.74719 21.0913ZM20.5412 8.79729C20.8829 8.59696 21.1315 8.26961 21.2327 7.88667C21.334 7.50372 21.2797 7.09628 21.0816 6.75325C20.8835 6.41022 20.5579 6.15945 20.1756 6.05567C19.7933 5.95189 19.3855 6.00352 19.0412 6.19929L19.0037 6.22479C18.8473 6.34275 18.6957 6.46685 18.5492 6.59679C18.2102 6.9022 17.8795 7.21681 17.5577 7.54029C16.707 8.39465 15.8733 9.26583 15.0572 10.1533L14.9042 10.3198L15.1247 10.2703C16.3013 10.0076 17.4725 9.72156 18.6377 9.41229C19.1552 9.27279 19.6007 9.14229 19.9502 9.02529C20.1363 8.96352 20.32 8.89447 20.5007 8.81829C20.5144 8.81168 20.5279 8.80468 20.5412 8.79729ZM17.2472 2.90529C17.5917 3.10421 17.8431 3.43183 17.946 3.81609C18.049 4.20035 17.9951 4.60977 17.7962 4.95429L17.7707 4.99179C17.6527 5.14809 17.5286 5.2997 17.3987 5.44629C17.0931 5.78517 16.7785 6.11579 16.4552 6.43779C15.6009 7.28853 14.7297 8.1222 13.8422 8.93829L13.6757 9.09129L13.7252 8.87079C13.9879 7.69422 14.2739 6.52299 14.5832 5.35779C14.7227 4.84029 14.8532 4.39479 14.9702 4.04529C15.0321 3.85919 15.1011 3.67555 15.1772 3.49479L15.1982 3.45429C15.3971 3.10978 15.7247 2.8584 16.109 2.75544C16.4933 2.65248 16.9027 2.70639 17.2472 2.90529ZM20.9972 13.4983C21.395 13.4983 21.7765 13.3403 22.0579 13.059C22.3392 12.7776 22.4972 12.3961 22.4972 11.9983C22.4972 11.6005 22.3392 11.2189 22.0579 10.9376C21.7765 10.6563 21.395 10.4983 20.9972 10.4983L20.9522 10.5013C20.758 10.5257 20.5649 10.5577 20.3732 10.5973C20.0102 10.6708 19.5587 10.7803 19.0412 10.9168C18.0092 11.1898 16.7717 11.5588 15.5702 11.9308L15.3542 11.9983L15.5702 12.0658C16.7702 12.4378 18.0092 12.8068 19.0412 13.0798C19.5587 13.2163 20.0102 13.3258 20.3717 13.3993C20.5634 13.4388 20.7565 13.4709 20.9507 13.4953L20.9972 13.4983ZM2.90419 6.74829C2.804 6.92219 2.73973 7.11443 2.71518 7.31362C2.69064 7.51281 2.70631 7.71491 2.76128 7.90793C2.81625 8.10095 2.9094 8.28098 3.0352 8.43735C3.16101 8.59373 3.31692 8.72326 3.49369 8.81829L3.61969 8.87079C3.72769 8.91579 3.86869 8.96679 4.04419 9.02529C4.39369 9.14229 4.83919 9.27279 5.35519 9.41229C6.52091 9.72147 7.69264 10.0075 8.86969 10.2703L9.09019 10.3198L8.93569 10.1533C8.1201 9.2658 7.28694 8.39463 6.43669 7.54029C6.11534 7.21684 5.78521 6.90223 5.44669 6.59679C5.29962 6.46687 5.1475 6.34277 4.99069 6.22479L4.95319 6.19929C4.60867 6.00039 4.19925 5.94649 3.81499 6.04944C3.43073 6.1524 3.10311 6.40378 2.90419 6.74829ZM6.19819 4.95429C6.096 4.78199 6.02935 4.59096 6.00218 4.39249C5.97502 4.19401 5.98789 3.9921 6.04003 3.79868C6.09217 3.60525 6.18252 3.42423 6.30576 3.2663C6.429 3.10837 6.58263 2.97672 6.75757 2.87912C6.93252 2.78153 7.12525 2.71997 7.32437 2.69807C7.5235 2.67617 7.725 2.69439 7.91697 2.75163C8.10895 2.80888 8.28751 2.904 8.44212 3.03138C8.59674 3.15876 8.72427 3.31582 8.81719 3.49329C8.83219 3.52329 8.84869 3.56529 8.87119 3.61929C8.91469 3.72729 8.96569 3.86829 9.02419 4.04379C9.14119 4.39329 9.27169 4.83879 9.41119 5.35629C9.69019 6.38679 9.99169 7.64229 10.2692 8.86929L10.3187 9.08979L10.1537 8.93679C9.26569 8.12072 8.39402 7.28705 7.53919 6.43629C7.21575 6.11493 6.90113 5.78481 6.59569 5.44629C6.46577 5.29922 6.34167 5.1471 6.22369 4.99029L6.19819 4.95279V4.95429ZM21.0902 17.2483C20.8913 17.5928 20.5637 17.8442 20.1794 17.9471C19.7951 18.0501 19.3857 17.9962 19.0412 17.7973L19.0037 17.7718C18.8473 17.6538 18.6957 17.5297 18.5492 17.3998C18.2102 17.0944 17.8795 16.7798 17.5577 16.4563C16.707 15.6019 15.8733 14.7308 15.0572 13.8433L14.9042 13.6768L15.1247 13.7263C16.3517 14.0038 17.6072 14.3053 18.6377 14.5843C19.1552 14.7238 19.6007 14.8543 19.9502 14.9713C20.1363 15.0331 20.32 15.1021 20.5007 15.1783C20.6776 15.2732 20.8336 15.4026 20.9596 15.5589C21.0856 15.7153 21.1789 15.8953 21.234 16.0883C21.2891 16.2813 21.3049 16.4835 21.2804 16.6827C21.256 16.882 21.1918 17.0743 21.0917 17.2483H21.0902ZM15.1982 20.5423C15.3985 20.884 15.7259 21.1326 16.1088 21.2338C16.4918 21.3351 16.8992 21.2808 17.2422 21.0827C17.5853 20.8846 17.836 20.559 17.9398 20.1767C18.0436 19.7944 17.992 19.3866 17.7962 19.0423L17.7707 19.0048C17.6526 18.8486 17.5285 18.6969 17.3987 18.5503C17.0933 18.2113 16.7787 17.8806 16.4552 17.5588C15.6009 16.708 14.7297 15.8743 13.8422 15.0583L13.6757 14.9053L13.7252 15.1258C13.9879 16.3024 14.2739 17.4736 14.5832 18.6388C14.7227 19.1563 14.8532 19.6018 14.9702 19.9513C15.0319 20.1374 15.101 20.3211 15.1772 20.5018C15.1838 20.5155 15.1908 20.529 15.1982 20.5423ZM11.9972 14.2483C12.5939 14.2483 13.1662 14.0112 13.5882 13.5893C14.0101 13.1673 14.2472 12.595 14.2472 11.9983C14.2472 11.4016 14.0101 10.8293 13.5882 10.4073C13.1662 9.98534 12.5939 9.74829 11.9972 9.74829C11.4005 9.74829 10.8282 9.98534 10.4062 10.4073C9.98424 10.8293 9.74719 11.4016 9.74719 11.9983C9.74719 12.595 9.98424 13.1673 10.4062 13.5893C10.8282 14.0112 11.4005 14.2483 11.9972 14.2483Z" fill="black"/>
</g>
<defs>
<clipPath id="clip0_1315_1615">
<rect width="24" height="24" fill="white"/>
</clipPath>
</defs>
</svg>
