<svg width="24" height="24" viewBox="0 0 24 24" fill="none" xmlns="http://www.w3.org/2000/svg">
<path fill-rule="evenodd" clip-rule="evenodd" d="M14.7417 4.5H20.7147C21.1316 4.49996 21.5439 4.5868 21.9254 4.75499C22.3068 4.92317 22.649 5.16902 22.9302 5.47683C23.2113 5.78465 23.4252 6.14768 23.5582 6.54276C23.6912 6.93785 23.7405 7.35633 23.7027 7.7715L22.7472 18.2715C22.6795 19.0169 22.3356 19.71 21.783 20.2148C21.2305 20.7197 20.5092 20.9997 19.7607 21H4.23874C3.49029 20.9997 2.76899 20.7197 2.21643 20.2148C1.66387 19.71 1.31997 19.0169 1.25224 18.2715L0.296736 7.7715C0.232815 7.07667 0.414327 6.38141 0.809736 5.8065L0.749736 4.5C0.749736 3.70435 1.06581 2.94129 1.62842 2.37868C2.19102 1.81607 2.95409 1.5 3.74974 1.5H9.25774C10.0533 1.50017 10.8163 1.81635 11.3787 2.379L12.6207 3.621C13.1832 4.18365 13.9462 4.49983 14.7417 4.5ZM2.25874 4.68C2.57974 4.563 2.92474 4.5 3.28474 4.5H11.3787L10.3182 3.4395C10.037 3.15818 9.65553 3.00008 9.25774 3H3.74974C3.3568 2.99993 2.97953 3.15405 2.69903 3.42922C2.41853 3.70439 2.2572 4.07864 2.24974 4.4715L2.25874 4.68Z" fill="black"/>
</svg>
