<svg width="24" height="24" viewBox="0 0 24 24" fill="none" xmlns="http://www.w3.org/2000/svg">
<path d="M14.742 6C13.5491 5.99935 12.4053 5.5251 11.562 4.6815L10.317 3.4395C10.0365 3.15891 9.65625 3.00088 9.2595 3H3.75C3.35706 2.99993 2.97979 3.15405 2.69929 3.42922C2.41879 3.70439 2.25747 4.07864 2.25 4.4715L2.319 6H0.819L0.75 4.5C0.75 3.70435 1.06607 2.94129 1.62868 2.37868C2.19129 1.81607 2.95435 1.5 3.75 1.5H9.258C10.0536 1.50017 10.8165 1.81635 11.379 2.379L12.621 3.621C13.1835 4.18365 13.9464 4.49983 14.742 4.5V6Z" fill="black"/>
<path fill-rule="evenodd" clip-rule="evenodd" d="M20.7145 6H3.28449C3.07612 5.99999 2.87003 6.04339 2.67936 6.12744C2.48869 6.21149 2.31763 6.33434 2.17707 6.48816C2.03651 6.64199 1.92954 6.82341 1.86299 7.02086C1.79643 7.21832 1.77174 7.42747 1.79049 7.635L2.74599 18.135C2.77967 18.5077 2.95144 18.8543 3.22758 19.1069C3.50372 19.3594 3.86428 19.4996 4.23849 19.5H19.7605C20.1347 19.4996 20.4953 19.3594 20.7714 19.1069C21.0475 18.8543 21.2193 18.5077 21.253 18.135L22.2085 7.635C22.2272 7.42747 22.2026 7.21832 22.136 7.02086C22.0694 6.82341 21.9625 6.64199 21.8219 6.48816C21.6814 6.33434 21.5103 6.21149 21.3196 6.12744C21.129 6.04339 20.9229 5.99999 20.7145 6ZM3.28449 4.5C2.86761 4.49996 2.4553 4.5868 2.07385 4.75499C1.6924 4.92317 1.35019 5.16902 1.06905 5.47683C0.787913 5.78465 0.574013 6.14768 0.440995 6.54276C0.307977 6.93785 0.258763 7.35633 0.296491 7.7715L1.25199 18.2715C1.31972 19.0169 1.66363 19.71 2.21619 20.2148C2.76874 20.7197 3.49005 20.9997 4.23849 21H19.7605C20.5089 20.9997 21.2302 20.7197 21.7828 20.2148C22.3354 19.71 22.6793 19.0169 22.747 18.2715L23.7025 7.7715C23.7402 7.35633 23.691 6.93785 23.558 6.54276C23.425 6.14768 23.2111 5.78465 22.9299 5.47683C22.6488 5.16902 22.3066 4.92317 21.9251 4.75499C21.5437 4.5868 21.1314 4.49996 20.7145 4.5H3.28449Z" fill="black"/>
<path d="M12.924 15.3599L17.697 12.4064C17.7895 12.346 17.8656 12.2635 17.9182 12.1663C17.9708 12.0692 17.9984 11.9604 17.9984 11.8499C17.9984 11.7394 17.9708 11.6306 17.9182 11.5335C17.8656 11.4363 17.7895 11.3538 17.697 11.2934L12.924 8.33841C12.519 8.08941 12 8.39241 12 8.89641V10.0499C10.7145 10.0499 6.8565 10.0499 6 17.2499C8.1435 13.1999 12 13.6499 12 13.6499V14.8034C12 15.3074 12.519 15.6104 12.924 15.3599Z" fill="black"/>
</svg>
