<svg width="24" height="24" viewBox="0 0 24 24" fill="none" xmlns="http://www.w3.org/2000/svg">
<path fill-rule="evenodd" clip-rule="evenodd" d="M1.49914 5.25C1.49914 4.65326 1.73619 4.08097 2.15815 3.65901C2.58011 3.23705 3.1524 3 3.74914 3H7.89514C9.33214 3 10.5351 3.84 11.3616 4.776C11.9766 5.472 12.7191 6 13.4991 6H20.2491C20.8459 6 21.4182 6.23705 21.8401 6.65901C22.2621 7.08097 22.4991 7.65326 22.4991 8.25V9.21C23.3541 9.6075 23.9091 10.524 23.7831 11.529L22.8231 19.215C22.7097 20.1226 22.2685 20.9574 21.5826 21.5624C20.8967 22.1674 20.0133 22.5008 19.0986 22.5H4.89814C3.98403 22.5001 3.10137 22.1663 2.41605 21.5614C1.73074 20.9565 1.28999 20.1221 1.17664 19.215L0.21664 11.529C0.1575 11.0565 0.249804 10.5774 0.480268 10.1607C0.710733 9.74394 1.06747 9.41108 1.49914 9.21V5.25ZM2.99914 9H20.9991V8.25C20.9991 8.05109 20.9201 7.86032 20.7795 7.71967C20.6388 7.57902 20.4481 7.5 20.2491 7.5H13.4991C12.0531 7.5 10.9341 6.5565 10.2381 5.769C9.56014 5.001 8.72914 4.5 7.89514 4.5H3.74914C3.55023 4.5 3.35946 4.57902 3.21881 4.71967C3.07816 4.86032 2.99914 5.05109 2.99914 5.25V9ZM2.44864 10.5C2.34231 10.5 2.23721 10.5227 2.1403 10.5664C2.04339 10.6102 1.95689 10.674 1.88653 10.7537C1.81618 10.8334 1.76357 10.9272 1.73221 11.0288C1.70085 11.1304 1.69146 11.2375 1.70464 11.343L2.66464 19.029C2.73266 19.5733 2.9972 20.0741 3.40851 20.437C3.81983 20.8 4.34957 21.0002 4.89814 21H19.1001C19.6487 21.0002 20.1785 20.8 20.5898 20.437C21.0011 20.0741 21.2656 19.5733 21.3336 19.029L22.2936 11.343C22.3068 11.2375 22.2974 11.1304 22.2661 11.0288C22.2347 10.9272 22.1821 10.8334 22.1117 10.7537C22.0414 10.674 21.9549 10.6102 21.858 10.5664C21.7611 10.5227 21.656 10.5 21.5496 10.5H2.44864Z" fill="black"/>
</svg>
