<svg width="24" height="24" viewBox="0 0 24 24" fill="none" xmlns="http://www.w3.org/2000/svg">
<g clip-path="url(#clip0_1315_1678)">
<path fill-rule="evenodd" clip-rule="evenodd" d="M18.249 13.41C19.044 11.8005 19.5 10.293 19.5 9C19.5 7.01088 18.7098 5.10322 17.3033 3.6967C15.8968 2.29018 13.9891 1.5 12 1.5C10.0109 1.5 8.10322 2.29018 6.6967 3.6967C5.29018 5.10322 4.5 7.01088 4.5 9C4.5 10.293 4.9575 11.8005 5.751 13.41C6.537 15.003 7.602 16.59 8.691 18.015C9.72403 19.3584 10.8286 20.6453 12 21.87L12.312 21.54C13.368 20.4147 14.3682 19.2382 15.309 18.015C16.398 16.59 17.463 15.003 18.249 13.41ZM12 24C12 24 21 15.471 21 9C21 6.61305 20.0518 4.32387 18.364 2.63604C16.6761 0.948211 14.3869 0 12 0C9.61305 0 7.32387 0.948211 5.63604 2.63604C3.94821 4.32387 3 6.61305 3 9C3 15.471 12 24 12 24Z" fill="black"/>
<path fill-rule="evenodd" clip-rule="evenodd" d="M12 12C12.7956 12 13.5587 11.6839 14.1213 11.1213C14.6839 10.5587 15 9.79565 15 9C15 8.20435 14.6839 7.44129 14.1213 6.87868C13.5587 6.31607 12.7956 6 12 6C11.2044 6 10.4413 6.31607 9.87868 6.87868C9.31607 7.44129 9 8.20435 9 9C9 9.79565 9.31607 10.5587 9.87868 11.1213C10.4413 11.6839 11.2044 12 12 12ZM12 13.5C13.1935 13.5 14.3381 13.0259 15.182 12.182C16.0259 11.3381 16.5 10.1935 16.5 9C16.5 7.80653 16.0259 6.66193 15.182 5.81802C14.3381 4.97411 13.1935 4.5 12 4.5C10.8065 4.5 9.66193 4.97411 8.81802 5.81802C7.97411 6.66193 7.5 7.80653 7.5 9C7.5 10.1935 7.97411 11.3381 8.81802 12.182C9.66193 13.0259 10.8065 13.5 12 13.5Z" fill="black"/>
</g>
<defs>
<clipPath id="clip0_1315_1678">
<rect width="24" height="24" fill="white"/>
</clipPath>
</defs>
</svg>
