<svg width="24" height="24" viewBox="0 0 24 24" fill="none" xmlns="http://www.w3.org/2000/svg">
<g clip-path="url(#clip0_1315_1683)">
<path fill-rule="evenodd" clip-rule="evenodd" d="M12 1.50018C11.4091 1.50018 10.8239 1.61657 10.2779 1.84272C9.73196 2.06886 9.23588 2.40033 8.81802 2.8182C8.40016 3.23606 8.06869 3.73214 7.84254 4.2781C7.6164 4.82407 7.5 5.40923 7.5 6.00018C7.5 6.59113 7.6164 7.17629 7.84254 7.72225C8.06869 8.26822 8.40016 8.76429 8.81802 9.18216C9.23588 9.60002 9.73196 9.93149 10.2779 10.1576C10.8239 10.3838 11.4091 10.5002 12 10.5002C13.1935 10.5002 14.3381 10.0261 15.182 9.18216C16.0259 8.33824 16.5 7.19365 16.5 6.00018C16.5 4.8067 16.0259 3.66211 15.182 2.8182C14.3381 1.97428 13.1935 1.50018 12 1.50018ZM6 6.00018C6.00011 4.84552 6.33338 3.71541 6.95984 2.74546C7.5863 1.77552 8.47932 1.00693 9.53176 0.531936C10.5842 0.0569387 11.7513 -0.104295 12.8931 0.0675814C14.0349 0.239458 15.1029 0.737144 15.9688 1.50092C16.8348 2.2647 17.462 3.26212 17.7751 4.37351C18.0883 5.48489 18.0741 6.66303 17.7343 7.76656C17.3945 8.87008 16.7434 9.85211 15.8593 10.5948C14.9752 11.3375 13.8956 11.8093 12.75 11.9537V20.2502C12.75 20.4491 12.671 20.6399 12.5303 20.7805C12.3897 20.9212 12.1989 21.0002 12 21.0002C11.8011 21.0002 11.6103 20.9212 11.4697 20.7805C11.329 20.6399 11.25 20.4491 11.25 20.2502V11.9552C9.79945 11.7724 8.46553 11.0663 7.49882 9.96953C6.53211 8.87273 5.99913 7.4607 6 5.99868V6.00018ZM9.7395 18.8612C9.77203 19.0573 9.72536 19.2583 9.60977 19.42C9.49416 19.5818 9.31909 19.691 9.123 19.7237C8.055 19.9007 7.203 20.1662 6.6405 20.4632C6.43387 20.5625 6.24607 20.697 6.0855 20.8607C6.0492 20.9002 6.02025 20.946 6 20.9957V21.0002L6.003 21.0122C6.0089 21.0296 6.01697 21.0462 6.027 21.0617C6.0862 21.1485 6.15975 21.2246 6.2445 21.2867C6.492 21.4817 6.897 21.6917 7.464 21.8792C8.5905 22.2542 10.194 22.5002 12 22.5002C13.806 22.5002 15.4095 22.2557 16.536 21.8792C17.103 21.6902 17.508 21.4817 17.7555 21.2867C17.8407 21.2247 17.9148 21.1486 17.9745 21.0617C17.984 21.0462 17.9916 21.0295 17.997 21.0122L18 21.0002V20.9942C17.9798 20.9445 17.9508 20.8987 17.9145 20.8592C17.7538 20.696 17.566 20.562 17.3595 20.4632C16.7955 20.1662 15.945 19.9007 14.877 19.7237C14.7775 19.7102 14.6817 19.6769 14.5954 19.6257C14.509 19.5745 14.4338 19.5065 14.3742 19.4257C14.3146 19.345 14.2718 19.253 14.2484 19.1554C14.225 19.0578 14.2214 18.9564 14.2379 18.8574C14.2543 18.7584 14.2905 18.6637 14.3443 18.5789C14.398 18.4941 14.4683 18.421 14.5508 18.3638C14.6334 18.3067 14.7265 18.2667 14.8248 18.2462C14.9231 18.2258 15.0245 18.2252 15.123 18.2447C16.278 18.4352 17.301 18.7367 18.0585 19.1357C18.75 19.5002 19.5 20.1002 19.5 21.0002C19.5 21.6392 19.11 22.1282 18.684 22.4657C18.249 22.8077 17.664 23.0852 17.01 23.3027C15.693 23.7422 13.9215 24.0002 12 24.0002C10.0785 24.0002 8.307 23.7422 6.99 23.3027C6.336 23.0852 5.751 22.8077 5.316 22.4657C4.89 22.1282 4.5 21.6392 4.5 21.0002C4.5 20.1017 5.25 19.5002 5.9415 19.1357C6.699 18.7367 7.722 18.4352 8.877 18.2447C9.07312 18.2121 9.27412 18.2588 9.43585 18.3744C9.59758 18.49 9.70679 18.6651 9.7395 18.8612Z" fill="black"/>
</g>
<defs>
<clipPath id="clip0_1315_1683">
<rect width="24" height="24" fill="white"/>
</clipPath>
</defs>
</svg>
