<svg width="24" height="24" viewBox="0 0 24 24" fill="none" xmlns="http://www.w3.org/2000/svg">
<path fill-rule="evenodd" clip-rule="evenodd" d="M0 12C0 8.8174 1.26428 5.76516 3.51472 3.51472C5.76516 1.26428 8.8174 0 12 0C15.1826 0 18.2348 1.26428 20.4853 3.51472C22.7357 5.76516 24 8.8174 24 12C24 15.1826 22.7357 18.2348 20.4853 20.4853C18.2348 22.7357 15.1826 24 12 24C8.8174 24 5.76516 22.7357 3.51472 20.4853C1.26428 18.2348 0 15.1826 0 12ZM11.25 1.6155C10.245 1.9215 9.2475 2.8455 8.4195 4.398C8.1467 4.91414 7.91207 5.44958 7.7175 6H11.25V1.6155ZM6.135 6H3.3825C4.53301 4.34943 6.13201 3.06274 7.9905 2.292C7.65388 2.73298 7.35436 3.20108 7.095 3.6915C6.7245 4.3875 6.402 5.1615 6.135 6ZM5.262 11.25H1.527C1.62 9.915 1.9635 8.6505 2.511 7.5H5.73C5.45875 8.7329 5.30208 9.98825 5.262 11.25ZM7.2705 7.5H11.25V11.25H6.765C6.80612 9.9862 6.97498 8.72981 7.269 7.5H7.2705ZM12.75 7.5V11.25H17.235C17.1934 9.98615 17.0241 8.72975 16.7295 7.5H12.75ZM6.765 12.75H11.25V16.5H7.2705C6.97547 15.2703 6.80561 14.0139 6.7635 12.75H6.765ZM12.75 12.75V16.5H16.7295C17.01 15.3525 17.1885 14.088 17.2365 12.75H12.75ZM7.7175 18H11.25V22.3845C10.245 22.0785 9.2475 21.1545 8.4195 19.602C8.1467 19.0859 7.91207 18.5504 7.7175 18ZM7.9905 21.708C7.65386 21.267 7.35434 20.7989 7.095 20.3085C6.70632 19.5694 6.38502 18.7968 6.135 18H3.3825C4.53295 19.6506 6.13196 20.9373 7.9905 21.708ZM5.73 16.5H2.511C1.95168 15.3224 1.61792 14.0505 1.527 12.75H5.262C5.307 14.0655 5.469 15.327 5.73 16.5ZM16.0095 21.708C17.868 20.9373 19.4671 19.6506 20.6175 18H17.865C17.615 18.7968 17.2937 19.5694 16.905 20.3085C16.6457 20.799 16.3462 21.2671 16.0095 21.708ZM12.75 18H16.2825C16.0879 18.5504 15.8533 19.0859 15.5805 19.602C14.7525 21.1545 13.7535 22.077 12.75 22.3845V18ZM18.27 16.5H21.489C22.0365 15.3495 22.38 14.085 22.473 12.75H18.738C18.6979 14.0118 18.5413 15.2671 18.27 16.5ZM22.473 11.25H18.738C18.6979 9.98825 18.5413 8.7329 18.27 7.5H21.489C22.0365 8.6505 22.38 9.915 22.473 11.25ZM16.905 3.6915C17.2755 4.3875 17.598 5.1615 17.865 6H20.6175C19.4671 4.34937 17.868 3.06267 16.0095 2.292C16.3365 2.718 16.6365 3.189 16.905 3.6915ZM16.2825 6H12.75V1.6155C13.755 1.9215 14.7525 2.8455 15.5805 4.398C15.84 4.884 16.0755 5.421 16.2825 6Z" fill="black"/>
</svg>
