<svg width="24" height="24" viewBox="0 0 24 24" fill="none" xmlns="http://www.w3.org/2000/svg">
<path fill-rule="evenodd" clip-rule="evenodd" d="M10.1238 1.5C9.82541 1.5 9.53926 1.61853 9.32829 1.8295C9.11731 2.04048 8.99878 2.32663 8.99878 2.625V14.25C8.99905 14.3985 8.9552 14.5438 8.87281 14.6674C8.79042 14.791 8.67319 14.8873 8.53598 14.9442C8.39877 15.0011 8.24776 15.0159 8.10209 14.9869C7.95643 14.9578 7.82267 14.8862 7.71778 14.781L4.10278 11.1645C3.96893 11.0311 3.79097 10.9511 3.60234 10.9397C3.4137 10.9282 3.22737 10.986 3.07836 11.1023C2.92934 11.2185 2.8279 11.3851 2.79308 11.5709C2.75826 11.7566 2.79247 11.9487 2.88928 12.111L6.65728 18.3885L8.50528 22.086C8.56763 22.2104 8.66336 22.315 8.78178 22.3882C8.90019 22.4613 9.03661 22.5 9.17578 22.5H18.6288C18.761 22.5 18.8908 22.465 19.0051 22.3986C19.1195 22.3322 19.2142 22.2368 19.2798 22.122L21.3723 18.459C21.6333 18.0023 21.7953 17.4959 21.8478 16.9725L22.2558 12.9C22.2767 12.6914 22.2538 12.4808 22.1883 12.2816C22.1228 12.0824 22.0163 11.8992 21.8757 11.7438C21.7351 11.5883 21.5634 11.464 21.3718 11.379C21.1802 11.2939 20.9729 11.25 20.7633 11.25H20.2488V12.75C20.2488 12.9489 20.1698 13.1397 20.0291 13.2803C19.8885 13.421 19.6977 13.5 19.4988 13.5C19.2999 13.5 19.1091 13.421 18.9684 13.2803C18.8278 13.1397 18.7488 12.9489 18.7488 12.75V10.731C18.6539 10.5971 18.5538 10.4671 18.4488 10.341C18.1683 10.008 17.8968 9.7665 17.7198 9.696C17.5338 9.621 17.1318 9.6015 16.6578 9.6375C16.6047 9.64192 16.5517 9.64692 16.4988 9.6525V12C16.4988 12.1989 16.4198 12.3897 16.2791 12.5303C16.1385 12.671 15.9477 12.75 15.7488 12.75C15.5499 12.75 15.3591 12.671 15.2184 12.5303C15.0778 12.3897 14.9988 12.1989 14.9988 12V8.979C14.9988 8.7285 14.8893 8.571 14.7738 8.508C14.5643 8.38463 14.3379 8.29265 14.1018 8.235C13.8333 8.1825 13.3518 8.175 12.8778 8.1945L12.7488 8.2005V12C12.7488 12.1989 12.6698 12.3897 12.5291 12.5303C12.3885 12.671 12.1977 12.75 11.9988 12.75C11.7999 12.75 11.6091 12.671 11.4685 12.5303C11.3278 12.3897 11.2488 12.1989 11.2488 12V2.625C11.2488 2.32663 11.1303 2.04048 10.9193 1.8295C10.7083 1.61853 10.4221 1.5 10.1238 1.5ZM12.7488 6.699V2.625C12.7488 1.92881 12.4722 1.26113 11.9799 0.768845C11.4877 0.276562 10.82 0 10.1238 0C9.42759 0 8.75991 0.276562 8.26763 0.768845C7.77534 1.26113 7.49878 1.92881 7.49878 2.625V12.4395L5.16328 10.104C4.77033 9.71321 4.24827 9.47926 3.69508 9.44605C3.14189 9.41284 2.59559 9.58265 2.15871 9.92361C1.72182 10.2646 1.42438 10.7533 1.32221 11.2979C1.22004 11.8426 1.32016 12.4059 1.60378 12.882L5.34028 19.1115L7.16278 22.7565C7.34973 23.1303 7.63708 23.4446 7.99263 23.6642C8.34817 23.8839 8.75787 24.0001 9.17578 24H18.6288C19.0254 23.9999 19.4149 23.8949 19.7579 23.6958C20.1008 23.4966 20.3851 23.2104 20.5818 22.866L22.6743 19.2045C23.0401 18.5645 23.267 17.8546 23.3403 17.121L23.7483 13.0485C23.79 12.6315 23.7438 12.2103 23.6128 11.8122C23.4818 11.414 23.2688 11.0478 22.9876 10.737C22.7063 10.4263 22.3631 10.1779 21.98 10.0079C21.5969 9.83786 21.1824 9.75002 20.7633 9.75H19.8903C19.7966 9.62302 19.6991 9.49896 19.5978 9.378C19.3113 9.0345 18.8328 8.526 18.2778 8.304C17.7318 8.085 17.0088 8.106 16.5408 8.142L16.3428 8.16C16.1831 7.75121 15.8861 7.41074 15.5028 7.197C15.1577 6.99802 14.7844 6.85237 14.3958 6.765C13.9308 6.672 13.2873 6.678 12.8208 6.696L12.7488 6.699Z" fill="black"/>
</svg>
