<svg width="24" height="24" viewBox="0 0 24 24" fill="none" xmlns="http://www.w3.org/2000/svg">
<path d="M11.9997 1.5C11.204 1.5 10.441 1.81607 9.87838 2.37868C9.31577 2.94129 8.9997 3.70435 8.9997 4.5V7.5H7.4997V4.5C7.4997 3.30653 7.9738 2.16193 8.81772 1.31802C9.66163 0.474106 10.8062 0 11.9997 0C13.1932 0 14.3378 0.474106 15.1817 1.31802C16.0256 2.16193 16.4997 3.30653 16.4997 4.5V7.5H14.9997V4.5C14.9997 3.70435 14.6836 2.94129 14.121 2.37868C13.5584 1.81607 12.7953 1.5 11.9997 1.5ZM7.4997 7.5H5.0412C4.50251 7.50012 3.98174 7.6935 3.57353 8.045C3.16533 8.39651 2.89678 8.8828 2.8167 9.4155L1.2747 19.695C1.19488 20.2284 1.23105 20.7727 1.38073 21.2908C1.53042 21.8089 1.7901 22.2887 2.14206 22.6973C2.49403 23.1059 2.92999 23.4338 3.42021 23.6587C3.91044 23.8835 4.44338 23.9999 4.9827 24H19.0167C19.556 23.9999 20.089 23.8835 20.5792 23.6587C21.0694 23.4338 21.5054 23.1059 21.8573 22.6973C22.2093 22.2887 22.469 21.8089 22.6187 21.2908C22.7683 20.7727 22.8045 20.2284 22.7247 19.695L21.1827 9.4155C21.1026 8.88305 20.8343 8.39696 20.4264 8.04549C20.0185 7.69402 19.4981 7.50048 18.9597 7.5H16.4997V9.75C16.4997 9.94891 16.4207 10.1397 16.28 10.2803C16.1394 10.421 15.9486 10.5 15.7497 10.5C15.5508 10.5 15.36 10.421 15.2194 10.2803C15.0787 10.1397 14.9997 9.94891 14.9997 9.75V7.5H8.9997V9.75C8.9997 9.94891 8.92068 10.1397 8.78003 10.2803C8.63937 10.421 8.44861 10.5 8.2497 10.5C8.05078 10.5 7.86002 10.421 7.71937 10.2803C7.57871 10.1397 7.4997 9.94891 7.4997 9.75V7.5Z" fill="black"/>
</svg>
