<svg width="24" height="24" viewBox="0 0 24 24" fill="none" xmlns="http://www.w3.org/2000/svg">
<path d="M12.585 18.972C12.5713 19.0614 12.5638 19.1516 12.5625 19.242C12.5625 19.6995 12.8775 20.004 13.3125 20.004C13.7115 20.004 14.0505 19.746 14.145 19.2885L14.976 15.234H16.782C17.4135 15.234 17.7075 14.883 17.7075 14.4135C17.7075 13.9455 17.4255 13.6185 16.782 13.6185H15.3045L16.0785 9.83249H17.976C18.621 9.83249 18.903 9.49199 18.903 9.01199C18.903 8.54249 18.621 8.22599 17.976 8.22599H16.407L17.121 4.76999C17.1354 4.68874 17.1434 4.60649 17.145 4.52399C17.1462 4.42202 17.127 4.32083 17.0885 4.22638C17.0501 4.13192 16.9931 4.04612 16.921 3.974C16.8489 3.90189 16.7631 3.84492 16.6686 3.80645C16.5742 3.76798 16.473 3.74879 16.371 3.74999C16.1822 3.74639 15.998 3.80888 15.8504 3.92666C15.7028 4.04443 15.6009 4.21009 15.5625 4.39499L14.778 8.22599H11.4255L12.141 4.76999C12.153 4.70999 12.1635 4.59299 12.1635 4.52399C12.1643 4.42123 12.1445 4.31935 12.1053 4.22438C12.066 4.12941 12.0081 4.04329 11.9349 3.97111C11.8618 3.89894 11.7749 3.84218 11.6794 3.8042C11.5839 3.76621 11.4817 3.74778 11.379 3.74999C11.1922 3.74891 11.0107 3.81257 10.8655 3.93016C10.7203 4.04775 10.6203 4.212 10.5825 4.39499L9.795 8.22599H8.121C7.476 8.22599 7.1955 8.55599 7.1955 9.02399C7.1955 9.49199 7.476 9.83249 8.121 9.83249H9.48L8.7075 13.617H6.9135C6.282 13.617 6 13.9455 6 14.4135C6 14.883 6.282 15.234 6.915 15.234H8.379L7.605 18.972C7.593 19.032 7.5825 19.1595 7.5825 19.242C7.5825 19.6995 7.8975 20.004 8.3325 20.004C8.73 20.004 9.0705 19.746 9.1635 19.2885L9.996 15.234H13.359L12.5865 18.972H12.585ZM11.085 9.80849H14.484L13.7115 13.653H10.2885L11.0865 9.80849H11.085Z" fill="black"/>
</svg>
