<svg width="24" height="24" viewBox="0 0 24 24" fill="none" xmlns="http://www.w3.org/2000/svg">
<g clip-path="url(#clip0_1315_1782)">
<path fill-rule="evenodd" clip-rule="evenodd" d="M11.6713 0.0893275C11.7744 0.0385155 11.8879 0.0120888 12.0028 0.0120888C12.1178 0.0120888 12.2312 0.0385155 12.3343 0.0893275L21.3568 4.54433C21.4575 4.59395 21.5457 4.66554 21.615 4.75381C21.6843 4.84207 21.733 4.94477 21.7573 5.05433L23.9848 15.0683C24.0088 15.176 24.0087 15.2876 23.9845 15.3951C23.9604 15.5027 23.9129 15.6037 23.8453 15.6908L17.6023 23.7218C17.5321 23.812 17.4423 23.885 17.3396 23.9352C17.2369 23.9854 17.1241 24.0114 17.0098 24.0113H6.99582C6.88153 24.0114 6.76873 23.9854 6.66604 23.9352C6.56335 23.885 6.47349 23.812 6.40332 23.7218L0.160316 15.6908C0.0927331 15.6037 0.045193 15.5027 0.021081 15.3951C-0.00303095 15.2876 -0.0031215 15.176 0.0208158 15.0683L2.24832 5.05433C2.27266 4.94477 2.32128 4.84207 2.3906 4.75381C2.45991 4.66554 2.54815 4.59395 2.64882 4.54433L11.6713 0.0908275V0.0893275Z" fill="black"/>
</g>
<defs>
<clipPath id="clip0_1315_1782">
<rect width="24" height="24" fill="white"/>
</clipPath>
</defs>
</svg>
