<svg width="25" height="24" viewBox="0 0 25 24" fill="none" xmlns="http://www.w3.org/2000/svg">
<g clip-path="url(#clip0_1315_1827)">
<path fill-rule="evenodd" clip-rule="evenodd" d="M7.96967 6C7.85726 6.00016 7.74633 6.02559 7.64507 6.0744C7.54381 6.12321 7.45482 6.19416 7.38467 6.282L2.80967 12H9.49967C9.69859 12 9.88935 12.079 10.03 12.2197C10.1707 12.3603 10.2497 12.5511 10.2497 12.75C10.2497 13.3467 10.4867 13.919 10.9087 14.341C11.3306 14.7629 11.9029 15 12.4997 15C13.0964 15 13.6687 14.7629 14.0907 14.341C14.5126 13.919 14.7497 13.3467 14.7497 12.75C14.7497 12.5511 14.8287 12.3603 14.9693 12.2197C15.11 12.079 15.3008 12 15.4997 12H22.1897L17.6147 6.282C17.5445 6.19416 17.4555 6.12321 17.3543 6.0744C17.253 6.02559 17.1421 6.00016 17.0297 6H7.96967ZM6.21467 5.3445C6.42525 5.08125 6.69229 4.86869 6.99606 4.72252C7.29983 4.57635 7.63257 4.5003 7.96967 4.5H17.0297C17.3668 4.5003 17.6995 4.57635 18.0033 4.72252C18.3071 4.86869 18.5741 5.08125 18.7847 5.3445L24.3347 12.282C24.3973 12.3602 24.4436 12.4501 24.4709 12.5464C24.4982 12.6428 24.506 12.7436 24.4937 12.843L23.9087 17.529C23.8407 18.0733 23.5761 18.5741 23.1648 18.937C22.7535 19.3 22.2237 19.5002 21.6752 19.5H3.32417C2.77561 19.5002 2.24586 19.3 1.83455 18.937C1.42323 18.5741 1.1587 18.0733 1.09067 17.529L0.505673 12.843C0.493379 12.7436 0.501114 12.6428 0.528422 12.5464C0.55573 12.4501 0.602058 12.3602 0.664673 12.282L6.21467 5.3445Z" fill="black"/>
</g>
<defs>
<clipPath id="clip0_1315_1827">
<rect width="24" height="24" fill="white" transform="translate(0.5)"/>
</clipPath>
</defs>
</svg>
