<svg width="25" height="24" viewBox="0 0 25 24" fill="none" xmlns="http://www.w3.org/2000/svg">
<g clip-path="url(#clip0_1315_1829)">
<path fill-rule="evenodd" clip-rule="evenodd" d="M7.96967 6C7.85726 6.00016 7.74633 6.02559 7.64507 6.0744C7.54381 6.12321 7.45482 6.19416 7.38467 6.282L2.80967 12H9.49967C9.69859 12 9.88935 12.079 10.03 12.2197C10.1707 12.3603 10.2497 12.5511 10.2497 12.75C10.2497 13.3467 10.4867 13.919 10.9087 14.341C11.3306 14.7629 11.9029 15 12.4997 15C13.0964 15 13.6687 14.7629 14.0907 14.341C14.5126 13.919 14.7497 13.3467 14.7497 12.75C14.7497 12.5511 14.8287 12.3603 14.9693 12.2197C15.11 12.079 15.3008 12 15.4997 12H22.1897L17.6147 6.282C17.5445 6.19416 17.4555 6.12321 17.3543 6.0744C17.253 6.02559 17.1421 6.00016 17.0297 6H7.96967ZM22.9007 13.5H16.1747C16.0025 14.3477 15.5426 15.1099 14.8729 15.6573C14.2031 16.2047 13.3647 16.5038 12.4997 16.5038C11.6347 16.5038 10.7962 16.2047 10.1265 15.6573C9.45672 15.1099 8.99681 14.3477 8.82467 13.5H2.09867L2.57867 17.343C2.60137 17.5246 2.68969 17.6917 2.82701 17.8127C2.96432 17.9337 3.14115 18.0003 3.32417 18H21.6752C21.8579 17.9999 22.0344 17.9332 22.1714 17.8122C22.3084 17.6912 22.3965 17.5244 22.4192 17.343L22.8992 13.5H22.9007ZM6.21317 5.3445C6.42407 5.08086 6.69159 4.86806 6.99592 4.72187C7.30024 4.57568 7.63356 4.49985 7.97117 4.5H17.0282C17.3658 4.49985 17.6991 4.57568 18.0034 4.72187C18.3078 4.86806 18.5753 5.08086 18.7862 5.3445L24.3362 12.282C24.3985 12.3603 24.4446 12.4502 24.4716 12.5466C24.4987 12.6429 24.5062 12.7437 24.4937 12.843L23.9087 17.529C23.8407 18.0733 23.5761 18.5741 23.1648 18.937C22.7535 19.3 22.2237 19.5002 21.6752 19.5H3.32417C2.77561 19.5002 2.24586 19.3 1.83455 18.937C1.42323 18.5741 1.1587 18.0733 1.09067 17.529L0.505673 12.843C0.493379 12.7436 0.501114 12.6428 0.528422 12.5464C0.55573 12.4501 0.602058 12.3602 0.664673 12.282L6.21467 5.3445H6.21317Z" fill="black"/>
</g>
<defs>
<clipPath id="clip0_1315_1829">
<rect width="24" height="24" fill="white" transform="translate(0.5)"/>
</clipPath>
</defs>
</svg>
