<svg width="24" height="24" viewBox="0 0 24 24" fill="none" xmlns="http://www.w3.org/2000/svg">
<path d="M10.659 23.3296L0.8295 18.4141C0.580379 18.2896 0.370832 18.0982 0.224328 17.8614C0.0778246 17.6245 0.000148723 17.3516 0 17.0731V14.2066C0.00838332 13.9205 0.0984201 13.6428 0.259485 13.4063C0.42055 13.1697 0.64592 12.9842 0.909 12.8716L9 9.40356V11.0356L1.5 14.2501L9.987 18.4951C10.612 18.8077 11.3012 18.9704 12 18.9704C12.6988 18.9704 13.388 18.8077 14.013 18.4951L22.5 14.2501L15 11.0356V9.40506L23.091 12.8731C23.3541 12.9857 23.5795 13.1712 23.7405 13.4078C23.9016 13.6443 23.9916 13.922 24 14.2081V17.0746C23.9999 17.3531 23.9222 17.626 23.7757 17.8629C23.6292 18.0997 23.4196 18.2911 23.1705 18.4156L13.341 23.3311C12.9246 23.5391 12.4655 23.6475 12 23.6475C11.5345 23.6475 11.0754 23.5391 10.659 23.3311V23.3296Z" fill="black"/>
<path fill-rule="evenodd" clip-rule="evenodd" d="M11.25 14.25V5.25H12.75V14.25H11.25Z" fill="black"/>
<path d="M15 14.625C15 15.246 13.6575 15.75 12 15.75C10.3425 15.75 9 15.246 9 14.625C9 14.004 10.3425 13.5 12 13.5C13.6575 13.5 15 14.004 15 14.625ZM15 3C15 3.79565 14.6839 4.55871 14.1213 5.12132C13.5587 5.68393 12.7956 6 12 6C11.2044 6 10.4413 5.68393 9.87868 5.12132C9.31607 4.55871 9 3.79565 9 3C9 2.20435 9.31607 1.44129 9.87868 0.87868C10.4413 0.316071 11.2044 0 12 0C12.7956 0 13.5587 0.316071 14.1213 0.87868C14.6839 1.44129 15 2.20435 15 3Z" fill="black"/>
</svg>
