<svg width="24" height="24" viewBox="0 0 24 24" fill="none" xmlns="http://www.w3.org/2000/svg">
<path fill-rule="evenodd" clip-rule="evenodd" d="M5.24892 17.25C4.30943 17.2498 3.38721 16.9975 2.57846 16.5194C1.76971 16.0414 1.10406 15.355 0.650952 14.532C0.197845 13.7091 -0.0261194 12.7795 0.00242417 11.8405C0.0309678 10.9014 0.310973 9.98726 0.81323 9.1933C1.31549 8.39934 2.02159 7.75471 2.85789 7.32664C3.69418 6.89857 4.63002 6.70276 5.56778 6.75963C6.50555 6.8165 7.41087 7.12396 8.18931 7.64995C8.96775 8.17593 9.59078 8.90117 9.99342 9.75H20.9989L23.2489 12L20.9989 14.25L19.4989 12.75L17.9989 14.25L16.4989 12.75L14.9989 14.25L13.4989 12.75L11.9989 14.25H9.99342C9.56756 15.1478 8.89565 15.9063 8.05579 16.4374C7.21592 16.9684 6.24259 17.2502 5.24892 17.25ZM3.74892 13.5C4.14674 13.5 4.52827 13.342 4.80958 13.0607C5.09088 12.7794 5.24892 12.3978 5.24892 12C5.24892 11.6022 5.09088 11.2206 4.80958 10.9393C4.52827 10.658 4.14674 10.5 3.74892 10.5C3.35109 10.5 2.96956 10.658 2.68826 10.9393C2.40695 11.2206 2.24892 11.6022 2.24892 12C2.24892 12.3978 2.40695 12.7794 2.68826 13.0607C2.96956 13.342 3.35109 13.5 3.74892 13.5Z" fill="black"/>
</svg>
