<svg width="24" height="24" viewBox="0 0 24 24" fill="none" xmlns="http://www.w3.org/2000/svg">
<g clip-path="url(#clip0_1315_1926)">
<path fill-rule="evenodd" clip-rule="evenodd" d="M4.55089e-07 12.0001C-0.000513962 10.6789 0.435095 9.39444 1.23922 8.34609C2.04335 7.29774 3.17103 6.54413 4.44726 6.2022C5.72349 5.86028 7.07689 5.94917 8.29743 6.45508C9.51797 6.96099 10.5374 7.85562 11.1975 9.00014H21C21.0986 8.99996 21.1962 9.01922 21.2873 9.05679C21.3784 9.09437 21.4612 9.14954 21.531 9.21914L23.781 11.4691C23.8508 11.5388 23.9063 11.6216 23.9441 11.7127C23.9819 11.8038 24.0013 11.9015 24.0013 12.0001C24.0013 12.0988 23.9819 12.1965 23.9441 12.2876C23.9063 12.3787 23.8508 12.4615 23.781 12.5311L21.531 14.7811C21.4613 14.851 21.3786 14.9064 21.2874 14.9442C21.1963 14.982 21.0987 15.0015 21 15.0015C20.9013 15.0015 20.8037 14.982 20.7126 14.9442C20.6214 14.9064 20.5387 14.851 20.469 14.7811L19.5 13.8106L18.531 14.7811C18.4613 14.851 18.3786 14.9064 18.2874 14.9442C18.1963 14.982 18.0987 15.0015 18 15.0015C17.9013 15.0015 17.8037 14.982 17.7126 14.9442C17.6214 14.9064 17.5387 14.851 17.469 14.7811L16.5 13.8106L15.531 14.7811C15.4613 14.851 15.3786 14.9064 15.2874 14.9442C15.1963 14.982 15.0987 15.0015 15 15.0015C14.9013 15.0015 14.8037 14.982 14.7126 14.9442C14.6214 14.9064 14.5387 14.851 14.469 14.7811L13.5 13.8106L12.531 14.7811C12.4612 14.8507 12.3784 14.9059 12.2873 14.9435C12.1962 14.9811 12.0986 15.0003 12 15.0001H11.1975C10.5374 16.1447 9.51797 17.0393 8.29743 17.5452C7.07689 18.0511 5.72349 18.14 4.44726 17.7981C3.17103 17.4562 2.04335 16.7025 1.23922 15.6542C0.435095 14.6058 -0.000513962 13.3214 4.55089e-07 12.0001ZM6 7.50014C5.19471 7.50045 4.40426 7.71684 3.7111 8.12675C3.01795 8.53666 2.44749 9.12507 2.05924 9.83059C1.67099 10.5361 1.47918 11.3329 1.50381 12.1378C1.52845 12.9427 1.76862 13.7263 2.19929 14.4067C2.62995 15.0872 3.23532 15.6396 3.95224 16.0063C4.66917 16.3731 5.47137 16.5408 6.27518 16.4918C7.07898 16.4429 7.85492 16.1791 8.52205 15.7281C9.18919 15.2771 9.72307 14.6553 10.068 13.9276C10.1289 13.7998 10.2247 13.6918 10.3445 13.6161C10.4642 13.5405 10.6029 13.5003 10.7445 13.5001H11.6895L12.969 12.2191C13.0387 12.1493 13.1214 12.0939 13.2126 12.0561C13.3037 12.0183 13.4013 11.9988 13.5 11.9988C13.5987 11.9988 13.6963 12.0183 13.7874 12.0561C13.8786 12.0939 13.9613 12.1493 14.031 12.2191L15 13.1896L15.969 12.2191C16.0387 12.1493 16.1214 12.0939 16.2126 12.0561C16.3037 12.0183 16.4013 11.9988 16.5 11.9988C16.5987 11.9988 16.6963 12.0183 16.7874 12.0561C16.8786 12.0939 16.9613 12.1493 17.031 12.2191L18 13.1896L18.969 12.2191C19.0387 12.1493 19.1214 12.0939 19.2126 12.0561C19.3037 12.0183 19.4013 11.9988 19.5 11.9988C19.5987 11.9988 19.6963 12.0183 19.7874 12.0561C19.8786 12.0939 19.9613 12.1493 20.031 12.2191L21 13.1896L22.1895 12.0001L20.6895 10.5001H10.7445C10.6029 10.5 10.4642 10.4598 10.3445 10.3842C10.2247 10.3085 10.1289 10.2005 10.068 10.0726C9.70304 9.30271 9.12698 8.65221 8.40684 8.19681C7.68669 7.74141 6.85206 7.49982 6 7.50014Z" fill="black"/>
<path d="M6 12C6 12.3978 5.84196 12.7794 5.56066 13.0607C5.27936 13.342 4.89782 13.5 4.5 13.5C4.10218 13.5 3.72064 13.342 3.43934 13.0607C3.15804 12.7794 3 12.3978 3 12C3 11.6022 3.15804 11.2206 3.43934 10.9393C3.72064 10.658 4.10218 10.5 4.5 10.5C4.89782 10.5 5.27936 10.658 5.56066 10.9393C5.84196 11.2206 6 11.6022 6 12Z" fill="black"/>
</g>
<defs>
<clipPath id="clip0_1315_1926">
<rect width="24" height="24" fill="white"/>
</clipPath>
</defs>
</svg>
