<svg width="24" height="24" viewBox="0 0 24 24" fill="none" xmlns="http://www.w3.org/2000/svg">
<g clip-path="url(#clip0_1315_1950)">
<path fill-rule="evenodd" clip-rule="evenodd" d="M4.78256 12L0.396563 14.3385C0.276754 14.4025 0.17658 14.4979 0.106736 14.6144C0.0368916 14.7309 0 14.8642 0 15C0 15.1358 0.0368916 15.2691 0.106736 15.3856C0.17658 15.5021 0.276754 15.5975 0.396563 15.6615L11.6466 21.6615C11.7551 21.7193 11.8761 21.7495 11.9991 21.7495C12.122 21.7495 12.2431 21.7193 12.3516 21.6615L23.6016 15.6615C23.7214 15.5975 23.8215 15.5021 23.8914 15.3856C23.9612 15.2691 23.9981 15.1358 23.9981 15C23.9981 14.8642 23.9612 14.7309 23.8914 14.6144C23.8215 14.4979 23.7214 14.4025 23.6016 14.3385L19.2201 12L12.3531 15.6615C12.2446 15.7193 12.1235 15.7495 12.0006 15.7495C11.8776 15.7495 11.7566 15.7193 11.6481 15.6615L4.78256 12Z" fill="black"/>
<path fill-rule="evenodd" clip-rule="evenodd" d="M11.6466 2.33872C11.7551 2.28094 11.8761 2.25072 11.9991 2.25072C12.122 2.25072 12.2431 2.28094 12.3516 2.33872L23.6016 8.33872C23.7214 8.40273 23.8215 8.49808 23.8914 8.61459C23.9612 8.73109 23.9981 8.86438 23.9981 9.00022C23.9981 9.13605 23.9612 9.26934 23.8914 9.38585C23.8215 9.50235 23.7214 9.5977 23.6016 9.66172L12.3516 15.6617C12.2431 15.7195 12.122 15.7497 11.9991 15.7497C11.8761 15.7497 11.7551 15.7195 11.6466 15.6617L0.396563 9.66172C0.276754 9.5977 0.17658 9.50235 0.106736 9.38585C0.0368916 9.26934 0 9.13605 0 9.00022C0 8.86438 0.0368916 8.73109 0.106736 8.61459C0.17658 8.49808 0.276754 8.40273 0.396563 8.33872L11.6466 2.33872ZM2.34356 9.00022L11.9991 14.1497L21.6561 9.00022L11.9991 3.85072L2.34206 9.00022H2.34356Z" fill="black"/>
</g>
<defs>
<clipPath id="clip0_1315_1950">
<rect width="24" height="24" fill="white"/>
</clipPath>
</defs>
</svg>
