<svg width="24" height="24" viewBox="0 0 24 24" fill="none" xmlns="http://www.w3.org/2000/svg">
<g clip-path="url(#clip0_1315_1988)">
<path fill-rule="evenodd" clip-rule="evenodd" d="M21.645 16.158L17.463 14.4855C16.8611 15.8039 15.8039 16.8611 14.4855 17.463L16.158 21.645C18.6184 20.5805 20.5805 18.6184 21.645 16.158ZM7.842 21.645L9.5145 17.463C8.19606 16.8611 7.1389 15.8039 6.537 14.4855L2.355 16.158C3.41946 18.6184 5.38163 20.5805 7.842 21.645ZM21.645 7.842C20.5805 5.38163 18.6184 3.41946 16.158 2.355L14.4855 6.537C15.8039 7.1389 16.8611 8.19606 17.463 9.5145L21.645 7.842ZM9.5145 6.537L7.842 2.355C5.38163 3.41946 3.41946 5.38163 2.355 7.842L6.537 9.5145C7.1389 8.19606 8.19606 7.1389 9.5145 6.537ZM12 24C15.1826 24 18.2348 22.7357 20.4853 20.4853C22.7357 18.2348 24 15.1826 24 12C24 8.8174 22.7357 5.76516 20.4853 3.51472C18.2348 1.26428 15.1826 0 12 0C8.8174 0 5.76516 1.26428 3.51472 3.51472C1.26428 5.76516 0 8.8174 0 12C0 15.1826 1.26428 18.2348 3.51472 20.4853C5.76516 22.7357 8.8174 24 12 24ZM12 16.5C13.1935 16.5 14.3381 16.0259 15.182 15.182C16.0259 14.3381 16.5 13.1935 16.5 12C16.5 10.8065 16.0259 9.66193 15.182 8.81802C14.3381 7.97411 13.1935 7.5 12 7.5C10.8065 7.5 9.66193 7.97411 8.81802 8.81802C7.97411 9.66193 7.5 10.8065 7.5 12C7.5 13.1935 7.97411 14.3381 8.81802 15.182C9.66193 16.0259 10.8065 16.5 12 16.5Z" fill="black"/>
</g>
<defs>
<clipPath id="clip0_1315_1988">
<rect width="24" height="24" fill="white"/>
</clipPath>
</defs>
</svg>
