<svg width="24" height="24" viewBox="0 0 24 24" fill="none" xmlns="http://www.w3.org/2000/svg">
<g clip-path="url(#clip0_1315_1990)">
<path fill-rule="evenodd" clip-rule="evenodd" d="M16.8768 0.10193C17.0236 0.187038 17.1372 0.319415 17.1991 0.477437C17.2609 0.635458 17.2673 0.809782 17.2173 0.97193L14.5158 9.74993H19.5003C19.6468 9.74987 19.7901 9.79271 19.9125 9.87316C20.0349 9.9536 20.1311 10.0681 20.1892 10.2026C20.2472 10.3371 20.2646 10.4856 20.2393 10.6299C20.2139 10.7742 20.1468 10.9078 20.0463 11.0144L8.0463 23.7644C7.93019 23.8879 7.77568 23.9684 7.60796 23.9928C7.44024 24.0172 7.26919 23.9841 7.1227 23.8989C6.97622 23.8136 6.86292 23.6813 6.80129 23.5234C6.73965 23.3655 6.73331 23.1914 6.7833 23.0294L9.4848 14.2499H4.5003C4.35382 14.25 4.21052 14.2071 4.08811 14.1267C3.96569 14.0463 3.86951 13.9317 3.81145 13.7972C3.75338 13.6628 3.73596 13.5142 3.76135 13.37C3.78674 13.2257 3.85381 13.092 3.9543 12.9854L15.9543 0.23543C16.0703 0.112129 16.2245 0.0316831 16.392 0.00717301C16.5595 -0.0173371 16.7304 0.01553 16.8768 0.10043V0.10193Z" fill="black"/>
</g>
<defs>
<clipPath id="clip0_1315_1990">
<rect width="24" height="24" fill="white"/>
</clipPath>
</defs>
</svg>
