<svg width="24" height="24" viewBox="0 0 24 24" fill="none" xmlns="http://www.w3.org/2000/svg">
<path d="M9.531 8.25H6C4.80653 8.25 3.66193 8.72411 2.81802 9.56802C1.97411 10.4119 1.5 11.5565 1.5 12.75C1.5 13.9435 1.97411 15.0881 2.81802 15.932C3.66193 16.7759 4.80653 17.25 6 17.25H10.5C11.2201 17.2504 11.9298 17.0779 12.5694 16.7471C13.2091 16.4164 13.76 15.9369 14.1759 15.349C14.5918 14.7612 14.8606 14.0821 14.9596 13.3688C15.0586 12.6555 14.985 11.9289 14.745 11.25H13.5C13.371 11.25 13.245 11.265 13.125 11.2965C13.378 11.7533 13.5074 12.2681 13.5004 12.7902C13.4934 13.3123 13.3502 13.8235 13.0851 14.2733C12.82 14.7232 12.442 15.096 11.9886 15.355C11.5353 15.6139 11.0221 15.7501 10.5 15.75H6C5.20435 15.75 4.44129 15.4339 3.87868 14.8713C3.31607 14.3087 3 13.5456 3 12.75C3 11.9544 3.31607 11.1913 3.87868 10.6287C4.44129 10.0661 5.20435 9.75 6 9.75H8.3025C8.6295 9.186 9.045 8.679 9.5325 8.25H9.531Z" fill="black"/>
<path d="M13.4994 8.25C12.7793 8.24962 12.0696 8.42207 11.43 8.75285C10.7903 9.08364 10.2394 9.5631 9.82352 10.151C9.40761 10.7388 9.13885 11.4179 9.03982 12.1312C8.9408 12.8445 9.01439 13.5711 9.25443 14.25H10.9014C10.6381 13.7939 10.4995 13.2766 10.4995 12.75C10.4995 12.2234 10.6381 11.7061 10.9014 11.25C11.1647 10.794 11.5434 10.4153 11.9995 10.152C12.4555 9.88864 12.9728 9.75001 13.4994 9.75H17.9994C18.7951 9.75 19.5581 10.0661 20.1208 10.6287C20.6834 11.1913 20.9994 11.9544 20.9994 12.75C20.9994 13.5457 20.6834 14.3087 20.1208 14.8713C19.5581 15.4339 18.7951 15.75 17.9994 15.75H15.6969C15.3706 16.3131 14.9552 16.8197 14.4669 17.25H17.9994C18.5904 17.25 19.1755 17.1336 19.7215 16.9075C20.2675 16.6813 20.7635 16.3498 21.1814 15.932C21.5993 15.5141 21.9307 15.018 22.1569 14.4721C22.383 13.9261 22.4994 13.3409 22.4994 12.75C22.4994 12.1591 22.383 11.5739 22.1569 11.0279C21.9307 10.482 21.5993 9.98588 21.1814 9.56802C20.7635 9.15016 20.2675 8.81869 19.7215 8.59254C19.1755 8.3664 18.5904 8.25 17.9994 8.25H13.4994Z" fill="black"/>
</svg>
