<svg width="24" height="24" viewBox="0 0 24 24" fill="none" xmlns="http://www.w3.org/2000/svg">
<path fill-rule="evenodd" clip-rule="evenodd" d="M7.50095 17.2499C7.50095 17.051 7.57997 16.8602 7.72062 16.7195C7.86127 16.5789 8.05203 16.4999 8.25095 16.4999H21.7509C21.9499 16.4999 22.1406 16.5789 22.2813 16.7195C22.4219 16.8602 22.5009 17.051 22.5009 17.2499C22.5009 17.4488 22.4219 17.6396 22.2813 17.7802C22.1406 17.9209 21.9499 17.9999 21.7509 17.9999H8.25095C8.05203 17.9999 7.86127 17.9209 7.72062 17.7802C7.57997 17.6396 7.50095 17.4488 7.50095 17.2499ZM7.50095 11.2499C7.50095 11.051 7.57997 10.8602 7.72062 10.7195C7.86127 10.5789 8.05203 10.4999 8.25095 10.4999H21.7509C21.9499 10.4999 22.1406 10.5789 22.2813 10.7195C22.4219 10.8602 22.5009 11.051 22.5009 11.2499C22.5009 11.4488 22.4219 11.6396 22.2813 11.7802C22.1406 11.9209 21.9499 11.9999 21.7509 11.9999H8.25095C8.05203 11.9999 7.86127 11.9209 7.72062 11.7802C7.57997 11.6396 7.50095 11.4488 7.50095 11.2499ZM7.50095 5.24988C7.50095 5.05096 7.57997 4.8602 7.72062 4.71955C7.86127 4.57889 8.05203 4.49988 8.25095 4.49988H21.7509C21.9499 4.49988 22.1406 4.57889 22.2813 4.71955C22.4219 4.8602 22.5009 5.05096 22.5009 5.24988C22.5009 5.44879 22.4219 5.63955 22.2813 5.78021C22.1406 5.92086 21.9499 5.99988 21.7509 5.99988H8.25095C8.05203 5.99988 7.86127 5.92086 7.72062 5.78021C7.57997 5.63955 7.50095 5.44879 7.50095 5.24988ZM5.78195 3.21888C5.85179 3.28854 5.90721 3.37131 5.94502 3.46243C5.98283 3.55354 6.00229 3.65123 6.00229 3.74988C6.00229 3.84853 5.98283 3.94621 5.94502 4.03733C5.90721 4.12844 5.85179 4.21121 5.78195 4.28088L3.53195 6.53088C3.46228 6.60072 3.37952 6.65614 3.2884 6.69395C3.19728 6.73176 3.0996 6.75122 3.00095 6.75122C2.9023 6.75122 2.80461 6.73176 2.7135 6.69395C2.62238 6.65614 2.53962 6.60072 2.46995 6.53088L1.71995 5.78088C1.65022 5.71114 1.5949 5.62836 1.55716 5.53725C1.51942 5.44614 1.5 5.34849 1.5 5.24988C1.5 5.15126 1.51942 5.05361 1.55716 4.9625C1.5949 4.87139 1.65022 4.78861 1.71995 4.71888C1.78968 4.64914 1.87246 4.59383 1.96357 4.55609C2.05468 4.51835 2.15233 4.49893 2.25095 4.49893C2.34956 4.49893 2.44721 4.51835 2.53832 4.55609C2.62943 4.59383 2.71222 4.64914 2.78195 4.71888L3.00095 4.93938L4.71995 3.21888C4.78962 3.14903 4.87238 3.09362 4.9635 3.05581C5.05461 3.018 5.1523 2.99854 5.25095 2.99854C5.3496 2.99854 5.44728 3.018 5.5384 3.05581C5.62952 3.09362 5.71228 3.14903 5.78195 3.21888ZM5.78195 9.21888C5.85179 9.28854 5.90721 9.37131 5.94502 9.46243C5.98283 9.55354 6.00229 9.65123 6.00229 9.74988C6.00229 9.84853 5.98283 9.94621 5.94502 10.0373C5.90721 10.1284 5.85179 10.2112 5.78195 10.2809L3.53195 12.5309C3.46228 12.6007 3.37952 12.6561 3.2884 12.6939C3.19728 12.7318 3.0996 12.7512 3.00095 12.7512C2.9023 12.7512 2.80461 12.7318 2.7135 12.6939C2.62238 12.6561 2.53962 12.6007 2.46995 12.5309L1.71995 11.7809C1.57912 11.64 1.5 11.449 1.5 11.2499C1.5 11.0507 1.57912 10.8597 1.71995 10.7189C1.86078 10.578 2.05178 10.4989 2.25095 10.4989C2.45011 10.4989 2.64112 10.578 2.78195 10.7189L3.00095 10.9394L4.71995 9.21888C4.78962 9.14903 4.87238 9.09362 4.9635 9.05581C5.05461 9.018 5.1523 8.99854 5.25095 8.99854C5.3496 8.99854 5.44728 9.018 5.5384 9.05581C5.62952 9.09362 5.71228 9.14903 5.78195 9.21888ZM5.78195 15.2189C5.85179 15.2885 5.90721 15.3713 5.94502 15.4624C5.98283 15.5535 6.00229 15.6512 6.00229 15.7499C6.00229 15.8485 5.98283 15.9462 5.94502 16.0373C5.90721 16.1284 5.85179 16.2112 5.78195 16.2809L3.53195 18.5309C3.46228 18.6007 3.37952 18.6561 3.2884 18.6939C3.19728 18.7318 3.0996 18.7512 3.00095 18.7512C2.9023 18.7512 2.80461 18.7318 2.7135 18.6939C2.62238 18.6561 2.53962 18.6007 2.46995 18.5309L1.71995 17.7809C1.57912 17.64 1.5 17.449 1.5 17.2499C1.5 17.0507 1.57912 16.8597 1.71995 16.7189C1.86078 16.578 2.05178 16.4989 2.25095 16.4989C2.45011 16.4989 2.64112 16.578 2.78195 16.7189L3.00095 16.9394L4.71995 15.2189C4.78962 15.149 4.87238 15.0936 4.9635 15.0558C5.05461 15.018 5.1523 14.9985 5.25095 14.9985C5.3496 14.9985 5.44728 15.018 5.5384 15.0558C5.62952 15.0936 5.71228 15.149 5.78195 15.2189Z" fill="black"/>
</svg>
