<svg width="24" height="24" viewBox="0 0 24 24" fill="none" xmlns="http://www.w3.org/2000/svg">
<g clip-path="url(#clip0_1315_2029)">
<path fill-rule="evenodd" clip-rule="evenodd" d="M24 0.756871C23.9999 0.645953 23.9753 0.53643 23.9278 0.436194C23.8803 0.335957 23.8111 0.247502 23.7253 0.177202C23.6396 0.106902 23.5392 0.0565066 23.4316 0.0296467C23.324 0.00278688 23.2118 0.000131303 23.103 0.0218713L15.75 1.49187L8.397 0.0218713C8.29996 0.00247523 8.20004 0.00247523 8.103 0.0218713L0.603 1.52187C0.433042 1.55584 0.280096 1.64763 0.170165 1.78162C0.0602342 1.91562 0.000104673 2.08355 0 2.25687L0 23.2569C6.69791e-05 23.3678 0.0247353 23.4773 0.0722277 23.5776C0.11972 23.6778 0.188854 23.7662 0.274649 23.8365C0.360444 23.9068 0.460764 23.9572 0.568381 23.9841C0.675998 24.011 0.788233 24.0136 0.897 23.9919L8.25 22.5219L15.603 23.9919C15.7 24.0112 15.8 24.0112 15.897 23.9919L23.397 22.4919C23.567 22.4579 23.7199 22.3661 23.8298 22.2321C23.9398 22.0981 23.9999 21.9302 24 21.7569V0.756871ZM7.5 21.1419V1.67187L8.25 1.52187L9 1.67187V21.1419L8.397 21.0219C8.29997 21.0024 8.20003 21.0024 8.103 21.0219L7.5 21.1419ZM15 22.3419V2.87187L15.603 2.99187C15.7 3.01127 15.8 3.01127 15.897 2.99187L16.5 2.87187V22.3419L15.75 22.4919L15 22.3419Z" fill="black"/>
</g>
<defs>
<clipPath id="clip0_1315_2029">
<rect width="24" height="24" fill="white"/>
</clipPath>
</defs>
</svg>
