<svg width="24" height="24" viewBox="0 0 24 24" fill="none" xmlns="http://www.w3.org/2000/svg">
<g clip-path="url(#clip0_1315_2056)">
<path fill-rule="evenodd" clip-rule="evenodd" d="M0 2.25C0 1.65326 0.237053 1.08097 0.65901 0.65901C1.08097 0.237053 1.65326 0 2.25 0L14.25 0C14.8467 0 15.419 0.237053 15.841 0.65901C16.2629 1.08097 16.5 1.65326 16.5 2.25V5.25C16.5 5.84674 16.2629 6.41903 15.841 6.84099C15.419 7.26295 14.8467 7.5 14.25 7.5H2.25C1.65326 7.5 1.08097 7.26295 0.65901 6.84099C0.237053 6.41903 0 5.84674 0 5.25L0 2.25ZM2.25 1.5C2.05109 1.5 1.86032 1.57902 1.71967 1.71967C1.57902 1.86032 1.5 2.05109 1.5 2.25V5.25C1.5 5.44891 1.57902 5.63968 1.71967 5.78033C1.86032 5.92098 2.05109 6 2.25 6H14.25C14.4489 6 14.6397 5.92098 14.7803 5.78033C14.921 5.63968 15 5.44891 15 5.25V2.25C15 2.05109 14.921 1.86032 14.7803 1.71967C14.6397 1.57902 14.4489 1.5 14.25 1.5H2.25ZM21 10.5H3C2.60218 10.5 2.22064 10.658 1.93934 10.9393C1.65804 11.2206 1.5 11.6022 1.5 12V19.5C1.5 19.8978 1.65804 20.2794 1.93934 20.5607C2.22064 20.842 2.60218 21 3 21H21C21.3978 21 21.7794 20.842 22.0607 20.5607C22.342 20.2794 22.5 19.8978 22.5 19.5V12C22.5 11.6022 22.342 11.2206 22.0607 10.9393C21.7794 10.658 21.3978 10.5 21 10.5ZM3 9C2.20435 9 1.44129 9.31607 0.87868 9.87868C0.316071 10.4413 0 11.2044 0 12L0 19.5C0 20.2956 0.316071 21.0587 0.87868 21.6213C1.44129 22.1839 2.20435 22.5 3 22.5H21C21.7956 22.5 22.5587 22.1839 23.1213 21.6213C23.6839 21.0587 24 20.2956 24 19.5V12C24 11.2044 23.6839 10.4413 23.1213 9.87868C22.5587 9.31607 21.7956 9 21 9H3Z" fill="black"/>
<path fill-rule="evenodd" clip-rule="evenodd" d="M22.5 16.5H1.5V15H22.5V16.5ZM3 18.75C3 18.5511 3.07902 18.3603 3.21967 18.2197C3.36032 18.079 3.55109 18 3.75 18H12.75C12.9489 18 13.1397 18.079 13.2803 18.2197C13.421 18.3603 13.5 18.5511 13.5 18.75C13.5 18.9489 13.421 19.1397 13.2803 19.2803C13.1397 19.421 12.9489 19.5 12.75 19.5H3.75C3.55109 19.5 3.36032 19.421 3.21967 19.2803C3.07902 19.1397 3 18.9489 3 18.75ZM3 12.75C3 12.5511 3.07902 12.3603 3.21967 12.2197C3.36032 12.079 3.55109 12 3.75 12H17.25C17.4489 12 17.6397 12.079 17.7803 12.2197C17.921 12.3603 18 12.5511 18 12.75C18 12.9489 17.921 13.1397 17.7803 13.2803C17.6397 13.421 17.4489 13.5 17.25 13.5H3.75C3.55109 13.5 3.36032 13.421 3.21967 13.2803C3.07902 13.1397 3 12.9489 3 12.75Z" fill="black"/>
<path d="M11.7374 4.2345L11.1434 3.6405C11.0908 3.58805 11.055 3.52118 11.0404 3.44834C11.0259 3.37551 11.0333 3.30001 11.0618 3.2314C11.0902 3.1628 11.1384 3.10418 11.2002 3.06299C11.262 3.02179 11.3346 2.99987 11.4089 3H12.5969C12.6711 2.99987 12.7438 3.02179 12.8056 3.06299C12.8674 3.10418 12.9155 3.1628 12.944 3.2314C12.9724 3.30001 12.9798 3.37551 12.9653 3.44834C12.9508 3.52118 12.915 3.58805 12.8624 3.6405L12.2684 4.2345C12.2335 4.26942 12.1922 4.29713 12.1466 4.31604C12.101 4.33494 12.0522 4.34467 12.0029 4.34467C11.9535 4.34467 11.9047 4.33494 11.8591 4.31604C11.8136 4.29713 11.7722 4.26942 11.7374 4.2345Z" fill="black"/>
</g>
<defs>
<clipPath id="clip0_1315_2056">
<rect width="24" height="24" fill="white"/>
</clipPath>
</defs>
</svg>
