<svg width="24" height="24" viewBox="0 0 24 24" fill="none" xmlns="http://www.w3.org/2000/svg">
<g clip-path="url(#clip0_1315_2060)">
<path fill-rule="evenodd" clip-rule="evenodd" d="M22.5 19.4999V5.99989C22.5 5.60206 22.342 5.22053 22.0607 4.93923C21.7794 4.65792 21.3978 4.49989 21 4.49989H15.621C14.8254 4.49972 14.0625 4.18354 13.5 3.62089L12 2.12089L10.5 3.62089C9.93752 4.18354 9.17458 4.49972 8.379 4.49989H3C2.60218 4.49989 2.22064 4.65792 1.93934 4.93923C1.65804 5.22053 1.5 5.60206 1.5 5.99989V19.4999C1.5 19.8977 1.65804 20.2792 1.93934 20.5605C2.22064 20.8419 2.60218 20.9999 3 20.9999H21C21.3978 20.9999 21.7794 20.8419 22.0607 20.5605C22.342 20.2792 22.5 19.8977 22.5 19.4999ZM3 2.99989C2.20435 2.99989 1.44129 3.31596 0.87868 3.87857C0.316071 4.44118 0 5.20424 0 5.99989L0 19.4999C0 20.2955 0.316071 21.0586 0.87868 21.6212C1.44129 22.1838 2.20435 22.4999 3 22.4999H21C21.7956 22.4999 22.5587 22.1838 23.1213 21.6212C23.6839 21.0586 24 20.2955 24 19.4999V5.99989C24 5.20424 23.6839 4.44118 23.1213 3.87857C22.5587 3.31596 21.7956 2.99989 21 2.99989H15.621C15.2232 2.9998 14.8417 2.84171 14.5605 2.56039L12.531 0.530888C12.4613 0.461043 12.3786 0.405628 12.2874 0.367819C12.1963 0.330009 12.0987 0.310547 12 0.310547C11.9013 0.310547 11.8037 0.330009 11.7125 0.367819C11.6214 0.405628 11.5387 0.461043 11.469 0.530888L9.4395 2.56039C9.15826 2.84171 8.77679 2.9998 8.379 2.99989H3Z" fill="black"/>
<path fill-rule="evenodd" clip-rule="evenodd" d="M22.5 16.5H1.5V15H22.5V16.5ZM22.5 10.5H1.5V9H22.5V10.5ZM3 18.75C3 18.5511 3.07902 18.3603 3.21967 18.2197C3.36032 18.079 3.55109 18 3.75 18H12.75C12.9489 18 13.1397 18.079 13.2803 18.2197C13.421 18.3603 13.5 18.5511 13.5 18.75C13.5 18.9489 13.421 19.1397 13.2803 19.2803C13.1397 19.421 12.9489 19.5 12.75 19.5H3.75C3.55109 19.5 3.36032 19.421 3.21967 19.2803C3.07902 19.1397 3 18.9489 3 18.75ZM3 12.75C3 12.5511 3.07902 12.3603 3.21967 12.2197C3.36032 12.079 3.55109 12 3.75 12H20.25C20.4489 12 20.6397 12.079 20.7803 12.2197C20.921 12.3603 21 12.5511 21 12.75C21 12.9489 20.921 13.1397 20.7803 13.2803C20.6397 13.421 20.4489 13.5 20.25 13.5H3.75C3.55109 13.5 3.36032 13.421 3.21967 13.2803C3.07902 13.1397 3 12.9489 3 12.75ZM3 6.75C3 6.55109 3.07902 6.36032 3.21967 6.21967C3.36032 6.07902 3.55109 6 3.75 6H15.75C15.9489 6 16.1397 6.07902 16.2803 6.21967C16.421 6.36032 16.5 6.55109 16.5 6.75C16.5 6.94891 16.421 7.13968 16.2803 7.28033C16.1397 7.42098 15.9489 7.5 15.75 7.5H3.75C3.55109 7.5 3.36032 7.42098 3.21967 7.28033C3.07902 7.13968 3 6.94891 3 6.75Z" fill="black"/>
</g>
<defs>
<clipPath id="clip0_1315_2060">
<rect width="24" height="24" fill="white"/>
</clipPath>
</defs>
</svg>
