<svg width="24" height="24" viewBox="0 0 24 24" fill="none" xmlns="http://www.w3.org/2000/svg">
<g clip-path="url(#clip0_1315_2071)">
<path fill-rule="evenodd" clip-rule="evenodd" d="M19.0988 14.4196C19.3638 13.6405 19.4986 12.823 19.4978 12.0001V10.5001C19.4978 10.3012 19.4188 10.1104 19.2781 9.96977C19.1375 9.82911 18.9467 9.7501 18.7478 9.7501C18.5489 9.7501 18.3581 9.82911 18.2175 9.96977C18.0768 10.1104 17.9978 10.3012 17.9978 10.5001V12.0001C17.9978 12.4111 17.9573 12.8101 17.8778 13.1986L19.0988 14.4196ZM15.3158 16.9996C14.4118 17.5996 13.362 17.9432 12.2782 17.994C11.1944 18.0447 10.1171 17.8005 9.16107 17.2876C8.205 16.7746 7.40592 16.012 6.84889 15.0809C6.29186 14.1498 5.99772 13.0851 5.9978 12.0001V10.5001C5.9978 10.3012 5.91878 10.1104 5.77813 9.96977C5.63747 9.82911 5.44671 9.7501 5.2478 9.7501C5.04888 9.7501 4.85812 9.82911 4.71747 9.96977C4.57681 10.1104 4.4978 10.3012 4.4978 10.5001V12.0001C4.49777 13.8594 5.18837 15.6524 6.43562 17.0313C7.68286 18.4102 9.39782 19.2767 11.2478 19.4626V22.5001H6.7478C6.54888 22.5001 6.35812 22.5791 6.21747 22.7198C6.07681 22.8604 5.9978 23.0512 5.9978 23.2501C5.9978 23.449 6.07681 23.6398 6.21747 23.7804C6.35812 23.9211 6.54888 24.0001 6.7478 24.0001H17.2478C17.4467 24.0001 17.6375 23.9211 17.7781 23.7804C17.9188 23.6398 17.9978 23.449 17.9978 23.2501C17.9978 23.0512 17.9188 22.8604 17.7781 22.7198C17.6375 22.5791 17.4467 22.5001 17.2478 22.5001H12.7478V19.4626C14.0641 19.3324 15.322 18.8546 16.3928 18.0781L15.3158 16.9996ZM16.4978 11.8201V4.5001C16.4986 3.43292 16.1201 2.40019 15.4299 1.58627C14.7397 0.772343 13.7827 0.230205 12.7297 0.0566336C11.6767 -0.116938 10.5964 0.0893539 9.68142 0.638684C8.76649 1.18801 8.07656 2.04462 7.7348 3.0556L9.0023 4.3231C9.04501 3.54164 9.3914 2.80782 9.96757 2.27818C10.5437 1.74854 11.3041 1.46503 12.0864 1.48812C12.8686 1.51122 13.6109 1.83909 14.1548 2.4018C14.6988 2.9645 15.0013 3.71749 14.9978 4.5001V10.3186L16.4978 11.8186V11.8201ZM13.1048 14.7901L14.2268 15.9121C13.5422 16.3025 12.767 16.5062 11.9789 16.5029C11.1908 16.4996 10.4174 16.2894 9.73609 15.8933C9.05476 15.4972 8.48941 14.9291 8.0966 14.2458C7.70379 13.5626 7.4973 12.7882 7.4978 12.0001V9.1816L8.9978 10.6816V12.0001C8.99752 12.4898 9.11714 12.9722 9.34623 13.4051C9.57531 13.838 9.90689 14.2082 10.312 14.4834C10.7171 14.7586 11.1835 14.9304 11.6703 14.9839C12.1571 15.0373 12.6496 14.9708 13.1048 14.7901ZM20.4668 20.0311L2.4668 2.0311L3.5288 0.969096L21.5288 18.9691L20.4668 20.0296V20.0311Z" fill="black"/>
</g>
<defs>
<clipPath id="clip0_1315_2071">
<rect width="24" height="24" fill="white"/>
</clipPath>
</defs>
</svg>
