<svg width="24" height="24" viewBox="0 0 24 24" fill="none" xmlns="http://www.w3.org/2000/svg">
<path fill-rule="evenodd" clip-rule="evenodd" d="M21.7948 15.7949C19.8964 16.5314 17.8247 16.7001 15.8322 16.2803C13.8396 15.8605 12.0121 14.8703 10.5722 13.4305C9.13235 11.9906 8.14221 10.1631 7.72241 8.17051C7.30261 6.17795 7.47125 4.10631 8.2078 2.20789C5.92746 3.09656 4.02898 4.75356 2.84016 6.89281C1.65133 9.03206 1.24678 11.5193 1.69634 13.925C2.14591 16.3307 3.42137 18.504 5.30252 20.0696C7.18367 21.6351 9.55242 22.4947 11.9998 22.4999C14.1182 22.5004 16.1873 21.8604 17.9353 20.6638C19.6834 19.4672 21.0288 17.7699 21.7948 15.7949Z" fill="black"/>
</svg>
