<svg width="24" height="24" viewBox="0 0 24 24" fill="none" xmlns="http://www.w3.org/2000/svg">
<path fill-rule="evenodd" clip-rule="evenodd" d="M8.2095 0.6945C8.844 0.2355 9.6105 0 10.5 0C12.39 0 14.9715 0.1845 17.1045 1.2375C18.1845 1.77 19.167 2.5335 19.8795 3.6225C20.592 4.7145 21 6.0855 21 7.7805V16.218C21 20.4885 17.67 24 13.5 24H10.5C6.33 24 3 20.487 3 16.218V12.354C3.00002 11.6576 3.19397 10.9749 3.56011 10.3826C3.92625 9.79017 4.45011 9.31143 5.073 9L6 8.5365V7.782C6 5.817 6.186 3.9285 6.8145 2.5065C7.134 1.7835 7.5825 1.1475 8.2095 0.6945ZM6.0255 10.2015L5.7435 10.341C5.36973 10.5279 5.05541 10.8153 4.83578 11.1708C4.61615 11.5264 4.49987 11.9361 4.5 12.354V16.218C4.5 19.719 7.215 22.5 10.5 22.5H13.5C16.785 22.5 19.5 19.7175 19.5 16.218V7.7835C19.5 6.3375 19.155 5.259 18.6225 4.4445C18.0885 3.6255 17.3325 3.024 16.4415 2.5845C14.631 1.6905 12.339 1.5 10.5 1.5C9.8895 1.5 9.438 1.6575 9.0885 1.911C8.73 2.169 8.4285 2.5635 8.1855 3.1125C7.6905 4.2345 7.5 5.8605 7.5 7.7805V9.0465C7.501 9.27054 7.505 9.49456 7.512 9.7185C7.5225 10.1685 7.5465 10.791 7.5915 11.481C7.686 12.8865 7.8705 14.4885 8.211 15.513C8.24651 15.6074 8.26261 15.7081 8.25832 15.8089C8.25404 15.9096 8.22946 16.0085 8.18606 16.0996C8.14267 16.1907 8.08134 16.2721 8.00576 16.3389C7.93017 16.4057 7.84188 16.4566 7.74617 16.4885C7.65046 16.5204 7.5493 16.5327 7.44874 16.5246C7.34818 16.5165 7.25028 16.4882 7.16092 16.4413C7.07156 16.3945 6.99256 16.3301 6.92865 16.2521C6.86475 16.174 6.81725 16.0839 6.789 15.987C6.3795 14.7615 6.189 12.987 6.096 11.5815C6.06487 11.1219 6.04136 10.6619 6.0255 10.2015Z" fill="black"/>
<path fill-rule="evenodd" clip-rule="evenodd" d="M13.5027 0.75C13.7016 0.75 13.8924 0.829018 14.033 0.96967C14.1737 1.11032 14.2527 1.30109 14.2527 1.5V9.1485L20.4147 10.518C20.6042 10.5655 20.7676 10.685 20.8703 10.8511C20.9731 11.0172 21.0069 11.2169 20.9647 11.4076C20.9225 11.5983 20.8076 11.765 20.6444 11.8723C20.4811 11.9795 20.2825 12.0189 20.0907 11.982L6.59072 8.982C6.49228 8.96306 6.39864 8.92458 6.31533 8.86883C6.23202 8.81309 6.16073 8.74121 6.10567 8.65744C6.05062 8.57367 6.01291 8.47972 5.99479 8.38113C5.97666 8.28254 5.97848 8.18132 6.00014 8.08345C6.0218 7.98557 6.06286 7.89304 6.12089 7.8113C6.17893 7.72957 6.25276 7.6603 6.33802 7.60759C6.42328 7.55487 6.51824 7.51978 6.6173 7.5044C6.71635 7.48901 6.81748 7.49364 6.91472 7.518L12.7527 8.8155V1.5C12.7527 1.30109 12.8317 1.11032 12.9724 0.96967C13.113 0.829018 13.3038 0.75 13.5027 0.75Z" fill="black"/>
</svg>
