<svg width="24" height="24" viewBox="0 0 24 24" fill="none" xmlns="http://www.w3.org/2000/svg">
<g clip-path="url(#clip0_1315_2106)">
<path fill-rule="evenodd" clip-rule="evenodd" d="M18 1.5H6C5.60218 1.5 5.22064 1.65804 4.93934 1.93934C4.65804 2.22064 4.5 2.60218 4.5 3V21C4.5 21.3978 4.65804 21.7794 4.93934 22.0607C5.22064 22.342 5.60218 22.5 6 22.5H18C18.3978 22.5 18.7794 22.342 19.0607 22.0607C19.342 21.7794 19.5 21.3978 19.5 21V3C19.5 2.60218 19.342 2.22064 19.0607 1.93934C18.7794 1.65804 18.3978 1.5 18 1.5ZM6 0C5.20435 0 4.44129 0.316071 3.87868 0.87868C3.31607 1.44129 3 2.20435 3 3V21C3 21.7956 3.31607 22.5587 3.87868 23.1213C4.44129 23.6839 5.20435 24 6 24H18C18.7956 24 19.5587 23.6839 20.1213 23.1213C20.6839 22.5587 21 21.7956 21 21V3C21 2.20435 20.6839 1.44129 20.1213 0.87868C19.5587 0.316071 18.7956 0 18 0L6 0Z" fill="black"/>
<path fill-rule="evenodd" clip-rule="evenodd" d="M16.5 4.5H7.5V9H16.5V4.5ZM7.5 3C7.10218 3 6.72064 3.15804 6.43934 3.43934C6.15804 3.72064 6 4.10218 6 4.5V9C6 9.39782 6.15804 9.77936 6.43934 10.0607C6.72064 10.342 7.10218 10.5 7.5 10.5H16.5C16.8978 10.5 17.2794 10.342 17.5607 10.0607C17.842 9.77936 18 9.39782 18 9V4.5C18 4.10218 17.842 3.72064 17.5607 3.43934C17.2794 3.15804 16.8978 3 16.5 3H7.5ZM12 19.5C12.7956 19.5 13.5587 19.1839 14.1213 18.6213C14.6839 18.0587 15 17.2956 15 16.5C15 15.7044 14.6839 14.9413 14.1213 14.3787C13.5587 13.8161 12.7956 13.5 12 13.5C11.2044 13.5 10.4413 13.8161 9.87868 14.3787C9.31607 14.9413 9 15.7044 9 16.5C9 17.2956 9.31607 18.0587 9.87868 18.6213C10.4413 19.1839 11.2044 19.5 12 19.5ZM16.5 16.5C16.5 17.6935 16.0259 18.8381 15.182 19.682C14.3381 20.5259 13.1935 21 12 21C10.8065 21 9.66193 20.5259 8.81802 19.682C7.97411 18.8381 7.5 17.6935 7.5 16.5C7.5 15.3065 7.97411 14.1619 8.81802 13.318C9.66193 12.4741 10.8065 12 12 12C13.1935 12 14.3381 12.4741 15.182 13.318C16.0259 14.1619 16.5 15.3065 16.5 16.5Z" fill="black"/>
<path d="M12 18C12.8284 18 13.5 17.3284 13.5 16.5C13.5 15.6716 12.8284 15 12 15C11.1716 15 10.5 15.6716 10.5 16.5C10.5 17.3284 11.1716 18 12 18Z" fill="black"/>
</g>
<defs>
<clipPath id="clip0_1315_2106">
<rect width="24" height="24" fill="white"/>
</clipPath>
</defs>
</svg>
