<svg width="24" height="24" viewBox="0 0 24 24" fill="none" xmlns="http://www.w3.org/2000/svg">
<path fill-rule="evenodd" clip-rule="evenodd" d="M24 11.9998C24.0002 13.9241 23.2608 15.7749 21.9348 17.1693C20.6087 18.5637 18.7973 19.395 16.8755 19.4914C14.9536 19.5877 13.0682 18.9417 11.6093 17.6869C10.1505 16.4321 9.22969 14.6645 9.0375 12.7498H6C6 13.3466 5.76295 13.9189 5.34099 14.3408C4.91903 14.7628 4.34674 14.9998 3.75 14.9998H2.25C1.65326 14.9998 1.08097 14.7628 0.65901 14.3408C0.237053 13.9189 0 13.3466 0 12.7498L0 11.2498C0 10.6531 0.237053 10.0808 0.65901 9.65886C1.08097 9.2369 1.65326 8.99985 2.25 8.99985H3.75C4.34674 8.99985 4.91903 9.2369 5.34099 9.65886C5.76295 10.0808 6 10.6531 6 11.2498H9.0375C9.22969 9.33518 10.1505 7.56764 11.6093 6.31284C13.0682 5.05803 14.9536 4.41198 16.8755 4.50831C18.7973 4.60465 20.6087 5.436 21.9348 6.8304C23.2608 8.2248 24.0002 10.0756 24 11.9998ZM21 11.9998C21 11.8009 20.921 11.6102 20.7803 11.4695C20.6397 11.3289 20.4489 11.2498 20.25 11.2498H12.75C12.5511 11.2498 12.3603 11.3289 12.2197 11.4695C12.079 11.6102 12 11.8009 12 11.9998C12 12.1988 12.079 12.3895 12.2197 12.5302C12.3603 12.6708 12.5511 12.7498 12.75 12.7498H20.25C20.4489 12.7498 20.6397 12.6708 20.7803 12.5302C20.921 12.3895 21 12.1988 21 11.9998Z" fill="black"/>
</svg>
