<svg width="24" height="24" viewBox="0 0 24 24" fill="none" xmlns="http://www.w3.org/2000/svg">
<path fill-rule="evenodd" clip-rule="evenodd" d="M6.87153 1.5C6.60714 1.50009 6.34746 1.57005 6.11881 1.70282C5.89017 1.83558 5.70067 2.02642 5.56953 2.256L0.426032 11.256C0.296596 11.4826 0.228516 11.739 0.228516 12C0.228516 12.261 0.296596 12.5174 0.426032 12.744L5.56953 21.744C5.70067 21.9736 5.89017 22.1644 6.11881 22.2972C6.34746 22.4299 6.60714 22.4999 6.87153 22.5H17.1315C17.3959 22.4999 17.6556 22.4299 17.8843 22.2972C18.1129 22.1644 18.3024 21.9736 18.4335 21.744L23.5755 12.744C23.705 12.5174 23.773 12.261 23.773 12C23.773 11.739 23.705 11.4826 23.5755 11.256L18.4335 2.256C18.3024 2.02642 18.1129 1.83558 17.8843 1.70282C17.6556 1.57005 17.3959 1.50009 17.1315 1.5H6.87153ZM14.3985 16.044C14.9144 15.7507 15.3672 15.3582 15.7308 14.8892C16.0944 14.4202 16.3617 13.8838 16.5172 13.3111C16.6727 12.7384 16.7133 12.1406 16.6368 11.552C16.5604 10.9635 16.3682 10.396 16.0715 9.88203C15.7747 9.36808 15.3793 8.9179 14.9078 8.55741C14.4364 8.19692 13.8983 7.93324 13.3246 7.78156C12.7508 7.62987 12.1528 7.59316 11.5648 7.67356C10.9768 7.75395 10.4105 7.94986 9.89853 8.25C8.8734 8.85098 8.12759 9.83304 7.82386 10.9819C7.52013 12.1307 7.68313 13.353 8.2773 14.3821C8.87146 15.4112 9.84855 16.1635 10.9953 16.4749C12.1421 16.7862 13.3655 16.6313 14.3985 16.044Z" fill="black"/>
</svg>
