<svg width="24" height="24" viewBox="0 0 24 24" fill="none" xmlns="http://www.w3.org/2000/svg">
<path fill-rule="evenodd" clip-rule="evenodd" d="M17.1315 3H6.87153L1.72953 12L6.87153 21H17.1315L22.2735 12L17.1315 3ZM6.87153 1.5C6.60714 1.50009 6.34746 1.57005 6.11881 1.70282C5.89017 1.83558 5.70067 2.02642 5.56953 2.256L0.426032 11.256C0.296596 11.4826 0.228516 11.739 0.228516 12C0.228516 12.261 0.296596 12.5174 0.426032 12.744L5.56953 21.744C5.70067 21.9736 5.89017 22.1644 6.11881 22.2972C6.34746 22.4299 6.60714 22.4999 6.87153 22.5H17.1315C17.3959 22.4999 17.6556 22.4299 17.8843 22.2972C18.1129 22.1644 18.3024 21.9736 18.4335 21.744L23.5755 12.744C23.705 12.5174 23.773 12.261 23.773 12C23.773 11.739 23.705 11.4826 23.5755 11.256L18.4335 2.256C18.3024 2.02642 18.1129 1.83558 17.8843 1.70282C17.6556 1.57005 17.3959 1.50009 17.1315 1.5H6.87153Z" fill="black"/>
<path fill-rule="evenodd" clip-rule="evenodd" d="M10.2713 8.89948C9.8414 9.14391 9.46407 9.47097 9.16107 9.86183C8.85806 10.2527 8.63536 10.6996 8.50578 11.1769C8.37621 11.6542 8.34231 12.1523 8.40606 12.6428C8.4698 13.1332 8.62993 13.6062 8.87721 14.0345C9.12449 14.4627 9.45404 14.8379 9.8469 15.1383C10.2398 15.4387 10.6881 15.6584 11.1663 15.7849C11.6444 15.9113 12.1428 15.9418 12.6328 15.8748C13.1228 15.8079 13.5947 15.6446 14.0213 15.3945C14.8756 14.8937 15.4971 14.0753 15.7502 13.1179C16.0033 12.1606 15.8675 11.142 15.3723 10.2844C14.8772 9.4268 14.063 8.79988 13.1073 8.54042C12.1517 8.28097 11.1322 8.41004 10.2713 8.89948ZM7.59982 14.772C7.24966 14.1747 7.0211 13.514 6.9273 12.828C6.83351 12.142 6.87633 11.4443 7.0533 10.7749C7.23027 10.1055 7.5379 9.47779 7.95847 8.92779C8.37904 8.37779 8.90424 7.91641 9.50385 7.57022C10.1035 7.22403 10.7656 6.99986 11.4522 6.91062C12.1388 6.82137 12.8363 6.86882 13.5045 7.05023C14.1726 7.23164 14.7983 7.54342 15.3455 7.96763C15.8927 8.39184 16.3506 8.92009 16.6928 9.52198C17.378 10.7272 17.5587 12.1544 17.1955 13.4924C16.8323 14.8303 15.9546 15.9702 14.754 16.6634C13.5534 17.3566 12.1273 17.5468 10.787 17.1924C9.4467 16.8381 8.30096 15.968 7.59982 14.772Z" fill="black"/>
</svg>
