<svg width="24" height="24" viewBox="0 0 24 24" fill="none" xmlns="http://www.w3.org/2000/svg">
<g clip-path="url(#clip0_1315_2164)">
<path fill-rule="evenodd" clip-rule="evenodd" d="M8.91587 1.30062C9.31963 0.887434 9.8019 0.559115 10.3343 0.334958C10.8668 0.110802 11.4387 -0.00466919 12.0164 -0.00466919C12.5941 -0.00466919 13.166 0.110802 13.6984 0.334958C14.2308 0.559115 14.7131 0.887434 15.1169 1.30062L16.0499 2.25762L17.3849 2.24112C17.9627 2.23428 18.5362 2.34306 19.0714 2.56106C19.6066 2.77905 20.0928 3.10186 20.5015 3.51051C20.9101 3.91916 21.2329 4.40539 21.4509 4.94062C21.6689 5.47584 21.7777 6.04925 21.7709 6.62712L21.7559 7.96212L22.7099 8.89512C23.1231 9.29888 23.4514 9.78115 23.6755 10.3136C23.8997 10.846 24.0152 11.4179 24.0152 11.9956C24.0152 12.5733 23.8997 13.1452 23.6755 13.6777C23.4514 14.2101 23.1231 14.6924 22.7099 15.0961L21.7544 16.0291L21.7709 17.3641C21.7777 17.942 21.6689 18.5154 21.4509 19.0506C21.2329 19.5859 20.9101 20.0721 20.5015 20.4807C20.0928 20.8894 19.6066 21.2122 19.0714 21.4302C18.5362 21.6482 17.9627 21.757 17.3849 21.7501L16.0499 21.7351L15.1169 22.6891C14.7131 23.1023 14.2308 23.4306 13.6984 23.6548C13.166 23.8789 12.5941 23.9944 12.0164 23.9944C11.4387 23.9944 10.8668 23.8789 10.3343 23.6548C9.8019 23.4306 9.31963 23.1023 8.91587 22.6891L7.98287 21.7336L6.64787 21.7501C6.07 21.757 5.49659 21.6482 4.96136 21.4302C4.42614 21.2122 3.93991 20.8894 3.53126 20.4807C3.12261 20.0721 2.7998 19.5859 2.5818 19.0506C2.36381 18.5154 2.25503 17.942 2.26187 17.3641L2.27687 16.0291L1.32287 15.0961C0.909682 14.6924 0.581362 14.2101 0.357205 13.6777C0.133049 13.1452 0.0175781 12.5733 0.0175781 11.9956C0.0175781 11.4179 0.133049 10.846 0.357205 10.3136C0.581362 9.78115 0.909682 9.29888 1.32287 8.89512L2.27837 7.96212L2.26187 6.62712C2.25503 6.04925 2.36381 5.47584 2.5818 4.94062C2.7998 4.40539 3.12261 3.91916 3.53126 3.51051C3.93991 3.10186 4.42614 2.77905 4.96136 2.56106C5.49659 2.34306 6.07 2.23428 6.64787 2.24112L7.98287 2.25612L8.91587 1.30212V1.30062ZM10.5194 16.4956C10.5194 16.2986 10.5582 16.1036 10.6336 15.9216C10.7089 15.7396 10.8194 15.5743 10.9587 15.435C11.098 15.2957 11.2634 15.1852 11.4453 15.1098C11.6273 15.0344 11.8224 14.9956 12.0194 14.9956C12.2164 14.9956 12.4114 15.0344 12.5934 15.1098C12.7754 15.1852 12.9407 15.2957 13.08 15.435C13.2193 15.5743 13.3298 15.7396 13.4052 15.9216C13.4806 16.1036 13.5194 16.2986 13.5194 16.4956C13.5194 16.8934 13.3613 17.275 13.08 17.5563C12.7987 17.8376 12.4172 17.9956 12.0194 17.9956C11.6215 17.9956 11.24 17.8376 10.9587 17.5563C10.6774 17.275 10.5194 16.8934 10.5194 16.4956ZM12.9224 13.4551C12.8474 14.0341 12.5954 14.3956 12.0914 14.3956C11.5259 14.3956 11.2139 13.9201 11.2139 13.2781V13.1131C11.2139 12.0226 11.6744 11.3011 12.6029 10.6516C13.5239 9.99162 13.8359 9.50862 13.8359 8.66412C13.8359 7.70712 13.2059 7.03812 12.2909 7.03812C11.4659 7.03812 10.9169 7.52262 10.6799 8.40912C10.5164 8.95512 10.2419 9.17412 9.83387 9.17412C9.32087 9.17562 9.01637 8.80512 9.01637 8.21562C9.01637 7.83912 9.08387 7.51362 9.22487 7.18062C9.68537 5.98362 10.8434 5.24562 12.3734 5.24562C14.3849 5.24562 15.7664 6.59862 15.7664 8.58612C15.7664 9.93012 15.2024 10.8526 14.1914 11.5651C13.2194 12.2326 12.9824 12.6541 12.9224 13.4551Z" fill="black"/>
</g>
<defs>
<clipPath id="clip0_1315_2164">
<rect width="24" height="24" fill="white"/>
</clipPath>
</defs>
</svg>
