<svg width="24" height="24" viewBox="0 0 24 24" fill="none" xmlns="http://www.w3.org/2000/svg">
<g clip-path="url(#clip0_1315_2143)">
<path fill-rule="evenodd" clip-rule="evenodd" d="M15.1169 1.30053C14.7131 0.887343 14.2308 0.559023 13.6984 0.334867C13.166 0.11071 12.5941 -0.00476074 12.0164 -0.00476074C11.4387 -0.00476074 10.8668 0.11071 10.3343 0.334867C9.8019 0.559023 9.31963 0.887343 8.91587 1.30053L7.98287 2.25753L6.64787 2.24103C6.07 2.23419 5.49659 2.34297 4.96136 2.56096C4.42614 2.77896 3.93991 3.10177 3.53126 3.51042C3.12261 3.91907 2.7998 4.4053 2.5818 4.94052C2.36381 5.47575 2.25503 6.04916 2.26187 6.62703L2.27687 7.96203L1.32287 8.89503C0.909682 9.29879 0.581362 9.78106 0.357205 10.3135C0.133049 10.8459 0.0175781 11.4178 0.0175781 11.9955C0.0175781 12.5732 0.133049 13.1451 0.357205 13.6776C0.581362 14.21 0.909682 14.6923 1.32287 15.096L2.27837 16.029L2.26187 17.364C2.25503 17.9419 2.36381 18.5153 2.5818 19.0505C2.7998 19.5858 3.12261 20.072 3.53126 20.4806C3.93991 20.8893 4.42614 21.2121 4.96136 21.4301C5.49659 21.6481 6.07 21.7569 6.64787 21.75L7.98287 21.735L8.91587 22.689C9.31963 23.1022 9.8019 23.4305 10.3343 23.6547C10.8668 23.8789 11.4387 23.9943 12.0164 23.9943C12.5941 23.9943 13.166 23.8789 13.6984 23.6547C14.2308 23.4305 14.7131 23.1022 15.1169 22.689L16.0499 21.7335L17.3849 21.75C17.9627 21.7569 18.5362 21.6481 19.0714 21.4301C19.6066 21.2121 20.0928 20.8893 20.5015 20.4806C20.9101 20.072 21.2329 19.5858 21.4509 19.0505C21.6689 18.5153 21.7777 17.9419 21.7709 17.364L21.7559 16.029L22.7099 15.096C23.1231 14.6923 23.4514 14.21 23.6755 13.6776C23.8997 13.1451 24.0152 12.5732 24.0152 11.9955C24.0152 11.4178 23.8997 10.8459 23.6755 10.3135C23.4514 9.78106 23.1231 9.29879 22.7099 8.89503L21.7544 7.96203L21.7709 6.62703C21.7777 6.04916 21.6689 5.47575 21.4509 4.94052C21.2329 4.4053 20.9101 3.91907 20.5015 3.51042C20.0928 3.10177 19.6066 2.77896 19.0714 2.56096C18.5362 2.34297 17.9627 2.23419 17.3849 2.24103L16.0499 2.25603L15.1169 1.30203V1.30053ZM15.5474 10.2765C15.6882 10.1357 15.7673 9.9447 15.7673 9.74553C15.7673 9.54637 15.6882 9.35536 15.5474 9.21453C15.4065 9.0737 15.2155 8.99459 15.0164 8.99459C14.8172 8.99459 14.6262 9.0737 14.4854 9.21453L10.5164 13.185L8.79737 11.4645C8.72764 11.3948 8.64486 11.3395 8.55375 11.3017C8.46264 11.264 8.36499 11.2446 8.26637 11.2446C8.16776 11.2446 8.0701 11.264 7.979 11.3017C7.88789 11.3395 7.8051 11.3948 7.73537 11.4645C7.66564 11.5343 7.61032 11.617 7.57259 11.7082C7.53485 11.7993 7.51542 11.8969 7.51542 11.9955C7.51542 12.0941 7.53485 12.1918 7.57259 12.2829C7.61032 12.374 7.66564 12.4568 7.73537 12.5265L9.98537 14.7765C10.055 14.8464 10.1378 14.9018 10.2289 14.9396C10.32 14.9774 10.4177 14.9969 10.5164 14.9969C10.615 14.9969 10.7127 14.9774 10.8038 14.9396C10.8949 14.9018 10.9777 14.8464 11.0474 14.7765L15.5474 10.2765Z" fill="black"/>
</g>
<defs>
<clipPath id="clip0_1315_2143">
<rect width="24" height="24" fill="white"/>
</clipPath>
</defs>
</svg>
