<svg width="24" height="24" viewBox="0 0 24 24" fill="none" xmlns="http://www.w3.org/2000/svg">
<g clip-path="url(#clip0_1315_2173)">
<path d="M21.0014 19.938C22.4872 18.2539 23.4706 16.1866 23.8397 13.9713C24.2088 11.7559 23.9488 9.48149 23.0893 7.4066C22.2297 5.33172 20.8052 3.53968 18.9777 2.23431C17.1501 0.928936 14.9929 0.162622 12.7514 0.022522V11.6895L21.0014 19.9395V19.938ZM19.9394 21L12.7514 13.809V23.976C15.4127 23.8127 17.9428 22.7641 19.9394 20.997V21ZM11.2514 23.9775V13.8105L4.06343 21C6.06023 22.7665 8.59038 23.8146 11.2514 23.9775ZM3.00143 19.938C1.51563 18.2539 0.532258 16.1866 0.163166 13.9713C-0.205926 11.7559 0.0540735 9.48149 0.913594 7.4066C1.77312 5.33172 3.19766 3.53968 5.0252 2.23431C6.85275 0.928936 9.00994 0.162622 11.2514 0.022522V11.6895L3.00143 19.9395V19.938Z" fill="black"/>
</g>
<defs>
<clipPath id="clip0_1315_2173">
<rect width="24" height="24" fill="white"/>
</clipPath>
</defs>
</svg>
