<svg width="24" height="24" viewBox="0 0 24 24" fill="none" xmlns="http://www.w3.org/2000/svg">
<path fill-rule="evenodd" clip-rule="evenodd" d="M20.2467 1.19266L20.4702 0.969157C20.6384 0.801032 20.8381 0.667687 21.0579 0.576736C21.2776 0.485786 21.5132 0.43901 21.751 0.439079C21.9888 0.439149 22.2243 0.486063 22.444 0.577142C22.6637 0.668222 22.8633 0.801683 23.0315 0.969907C23.1996 1.13813 23.3329 1.33782 23.4239 1.55758C23.5148 1.77733 23.5616 2.01285 23.5616 2.25069C23.5615 2.48852 23.5146 2.72401 23.4235 2.94372C23.3324 3.16342 23.1989 3.36303 23.0307 3.53116L22.8072 3.75316C23.1896 4.18195 23.3934 4.74075 23.3769 5.315C23.3605 5.88925 23.125 6.43546 22.7187 6.84166L7.28072 22.2812C7.18422 22.3772 7.0634 22.4451 6.93122 22.4777L0.931224 23.9777C0.805663 24.0089 0.674148 24.0072 0.549463 23.9726C0.424779 23.938 0.311166 23.8717 0.21967 23.7802C0.128173 23.6887 0.0619052 23.5751 0.0273071 23.4504C-0.00729101 23.3257 -0.0090421 23.1942 0.022224 23.0687L1.52222 17.0687C1.55504 16.937 1.62295 16.8168 1.71872 16.7207L16.1817 2.25766C16.0371 2.15585 15.8611 2.10845 15.6849 2.12382C15.5087 2.13919 15.3436 2.21634 15.2187 2.34166L10.2807 7.28116C10.211 7.35089 10.1282 7.4062 10.0371 7.44394C9.94599 7.48168 9.84834 7.50111 9.74972 7.50111C9.65111 7.50111 9.55346 7.48168 9.46235 7.44394C9.37124 7.4062 9.28846 7.35089 9.21872 7.28116C9.14899 7.21143 9.09368 7.12864 9.05594 7.03753C9.0182 6.94642 8.99878 6.84877 8.99878 6.75016C8.99878 6.65154 9.0182 6.55389 9.05594 6.46278C9.09368 6.37167 9.14899 6.28889 9.21872 6.21916L14.1597 1.28116C14.5662 0.874679 15.1128 0.639188 15.6874 0.62301C16.262 0.606831 16.821 0.811193 17.2497 1.19416C17.6619 0.825815 18.1952 0.622075 18.7479 0.621798C19.3007 0.621521 19.8342 0.824728 20.2467 1.19266Z" fill="black"/>
</svg>
