<svg width="24" height="24" viewBox="0 0 24 24" fill="none" xmlns="http://www.w3.org/2000/svg">
<g clip-path="url(#clip0_1315_2181)">
<path fill-rule="evenodd" clip-rule="evenodd" d="M19.2866 0.210068C19.1459 0.0694651 18.9552 -0.00952148 18.7563 -0.00952148C18.5574 -0.00952148 18.3667 0.0694651 18.2261 0.210068L15.7556 2.68057L21.3161 8.24107L23.7866 5.77207C23.8564 5.7024 23.9118 5.61964 23.9496 5.52852C23.9874 5.4374 24.0069 5.33972 24.0069 5.24107C24.0069 5.14242 23.9874 5.04474 23.9496 4.95362C23.9118 4.8625 23.8564 4.77974 23.7866 4.71007L19.2866 0.210068ZM20.2556 9.30157L14.6951 3.74107L4.94507 13.4911H5.25557C5.45448 13.4911 5.64525 13.5701 5.7859 13.7107C5.92655 13.8514 6.00557 14.0422 6.00557 14.2411V14.9911H6.75557C6.95448 14.9911 7.14525 15.0701 7.2859 15.2107C7.42655 15.3514 7.50557 15.5422 7.50557 15.7411V16.4911H8.25557C8.45448 16.4911 8.64525 16.5701 8.7859 16.7107C8.92655 16.8514 9.00557 17.0422 9.00557 17.2411V17.9911H9.75557C9.95448 17.9911 10.1452 18.0701 10.2859 18.2107C10.4266 18.3514 10.5056 18.5422 10.5056 18.7411V19.0516L20.2556 9.30157ZM9.05357 20.5036C9.02201 20.4196 9.00575 20.3307 9.00557 20.2411V19.4911H8.25557C8.05666 19.4911 7.86589 19.4121 7.72524 19.2714C7.58459 19.1307 7.50557 18.94 7.50557 18.7411V17.9911H6.75557C6.55666 17.9911 6.36589 17.9121 6.22524 17.7714C6.08459 17.6307 6.00557 17.44 6.00557 17.2411V16.4911H5.25557C5.05666 16.4911 4.86589 16.4121 4.72524 16.2714C4.58459 16.1307 4.50557 15.94 4.50557 15.7411V14.9911H3.75557C3.6659 14.9909 3.57699 14.9747 3.49307 14.9431L3.22457 15.2101C3.15309 15.282 3.09696 15.3678 3.05957 15.4621L0.0595685 22.9621C0.00501248 23.0984 -0.00834277 23.2477 0.0211584 23.3915C0.0506596 23.5353 0.12172 23.6673 0.22553 23.7711C0.329339 23.8749 0.461333 23.946 0.605148 23.9755C0.748962 24.005 0.898273 23.9916 1.03457 23.9371L8.53457 20.9371C8.62886 20.8997 8.71459 20.8435 8.78657 20.7721L9.05357 20.5051V20.5036Z" fill="black"/>
</g>
<defs>
<clipPath id="clip0_1315_2181">
<rect width="24" height="24" fill="white"/>
</clipPath>
</defs>
</svg>
