<svg width="24" height="24" viewBox="0 0 24 24" fill="none" xmlns="http://www.w3.org/2000/svg">
<path fill-rule="evenodd" clip-rule="evenodd" d="M1.5 21C1.5 21 0 21 0 19.5C0 18 1.5 13.5 9 13.5C16.5 13.5 18 18 18 19.5C18 21 16.5 21 16.5 21H1.5ZM9 12C10.1935 12 11.3381 11.5259 12.182 10.682C13.0259 9.83807 13.5 8.69347 13.5 7.5C13.5 6.30653 13.0259 5.16193 12.182 4.31802C11.3381 3.47411 10.1935 3 9 3C7.80653 3 6.66193 3.47411 5.81802 4.31802C4.97411 5.16193 4.5 6.30653 4.5 7.5C4.5 8.69347 4.97411 9.83807 5.81802 10.682C6.66193 11.5259 7.80653 12 9 12ZM19.5 14.25C19.5 14.0511 19.579 13.8603 19.7197 13.7197C19.8603 13.579 20.0511 13.5 20.25 13.5H23.25C23.4489 13.5 23.6397 13.579 23.7803 13.7197C23.921 13.8603 24 14.0511 24 14.25C24 14.4489 23.921 14.6397 23.7803 14.7803C23.6397 14.921 23.4489 15 23.25 15H20.25C20.0511 15 19.8603 14.921 19.7197 14.7803C19.579 14.6397 19.5 14.4489 19.5 14.25ZM16.5 9.75C16.5 9.55109 16.579 9.36032 16.7197 9.21967C16.8603 9.07902 17.0511 9 17.25 9H23.25C23.4489 9 23.6397 9.07902 23.7803 9.21967C23.921 9.36032 24 9.55109 24 9.75C24 9.94891 23.921 10.1397 23.7803 10.2803C23.6397 10.421 23.4489 10.5 23.25 10.5H17.25C17.0511 10.5 16.8603 10.421 16.7197 10.2803C16.579 10.1397 16.5 9.94891 16.5 9.75ZM16.5 5.25C16.5 5.05109 16.579 4.86032 16.7197 4.71967C16.8603 4.57902 17.0511 4.5 17.25 4.5H23.25C23.4489 4.5 23.6397 4.57902 23.7803 4.71967C23.921 4.86032 24 5.05109 24 5.25C24 5.44891 23.921 5.63968 23.7803 5.78033C23.6397 5.92098 23.4489 6 23.25 6H17.25C17.0511 6 16.8603 5.92098 16.7197 5.78033C16.579 5.63968 16.5 5.44891 16.5 5.25ZM19.5 18.75C19.5 18.5511 19.579 18.3603 19.7197 18.2197C19.8603 18.079 20.0511 18 20.25 18H23.25C23.4489 18 23.6397 18.079 23.7803 18.2197C23.921 18.3603 24 18.5511 24 18.75C24 18.9489 23.921 19.1397 23.7803 19.2803C23.6397 19.421 23.4489 19.5 23.25 19.5H20.25C20.0511 19.5 19.8603 19.421 19.7197 19.2803C19.579 19.1397 19.5 18.9489 19.5 18.75Z" fill="black"/>
</svg>
