<svg width="24" height="24" viewBox="0 0 24 24" fill="none" xmlns="http://www.w3.org/2000/svg">
<g clip-path="url(#clip0_1315_2208)">
<path fill-rule="evenodd" clip-rule="evenodd" d="M1.5 21C1.5 21 0 21 0 19.5C0 18 1.5 13.5 9 13.5C16.5 13.5 18 18 18 19.5C18 21 16.5 21 16.5 21H1.5ZM9 12C10.1935 12 11.3381 11.5259 12.182 10.682C13.0259 9.83807 13.5 8.69347 13.5 7.5C13.5 6.30653 13.0259 5.16193 12.182 4.31802C11.3381 3.47411 10.1935 3 9 3C7.80653 3 6.66193 3.47411 5.81802 4.31802C4.97411 5.16193 4.5 6.30653 4.5 7.5C4.5 8.69347 4.97411 9.83807 5.81802 10.682C6.66193 11.5259 7.80653 12 9 12ZM23.781 7.719C23.8508 7.78867 23.9063 7.87143 23.9441 7.96255C23.9819 8.05367 24.0013 8.15135 24.0013 8.25C24.0013 8.34865 23.9819 8.44633 23.9441 8.53745C23.9063 8.62857 23.8508 8.71133 23.781 8.781L19.281 13.281C19.2113 13.3508 19.1286 13.4063 19.0374 13.4441C18.9463 13.4819 18.8487 13.5013 18.75 13.5013C18.6513 13.5013 18.5537 13.4819 18.4626 13.4441C18.3714 13.4063 18.2887 13.3508 18.219 13.281L15.969 11.031C15.8282 10.8902 15.7491 10.6992 15.7491 10.5C15.7491 10.3008 15.8282 10.1098 15.969 9.969C16.1098 9.82817 16.3008 9.74905 16.5 9.74905C16.6992 9.74905 16.8902 9.82817 17.031 9.969L18.75 11.6895L22.719 7.719C22.7887 7.64916 22.8714 7.59374 22.9626 7.55593C23.0537 7.51812 23.1513 7.49866 23.25 7.49866C23.3487 7.49866 23.4463 7.51812 23.5374 7.55593C23.6286 7.59374 23.7113 7.64916 23.781 7.719Z" fill="black"/>
</g>
<defs>
<clipPath id="clip0_1315_2208">
<rect width="24" height="24" fill="white"/>
</clipPath>
</defs>
</svg>
