<svg width="24" height="24" viewBox="0 0 24 24" fill="none" xmlns="http://www.w3.org/2000/svg">
<path d="M6.9075 3.75V3V3.75ZM5.415 5.4L6.162 5.3355V5.325L5.415 5.4ZM10.5 3.75H11.25C11.25 3.55109 11.171 3.36032 11.0303 3.21967C10.8897 3.07902 10.6989 3 10.5 3V3.75ZM9.486 5.931L9.942 6.5265L9.486 5.931ZM14.514 5.931L14.058 6.5265L14.514 5.931ZM13.5 3.75V3C13.3011 3 13.1103 3.07902 12.9697 3.21967C12.829 3.36032 12.75 3.55109 12.75 3.75H13.5ZM18.585 5.4L17.838 5.325V5.3355L18.585 5.4ZM18.15 10.5L17.403 10.4355C17.3941 10.539 17.4067 10.6433 17.4402 10.7416C17.4737 10.84 17.5272 10.9304 17.5975 11.0069C17.6677 11.0835 17.7531 11.1447 17.8482 11.1865C17.9433 11.2283 18.0461 11.25 18.15 11.25V10.5ZM20.931 9.486L21.5265 9.942L20.931 9.486ZM20.931 14.514L21.5265 14.058L20.931 14.514ZM18.15 13.5V12.75C18.0462 12.75 17.9436 12.7716 17.8486 12.8134C17.7536 12.8551 17.6683 12.9161 17.5981 12.9926C17.5279 13.069 17.4743 13.1591 17.4407 13.2573C17.4071 13.3555 17.3943 13.4596 17.403 13.563L18.15 13.5ZM18.585 18.6L17.838 18.6645V18.675L18.585 18.6ZM13.5 20.25H12.75C12.75 20.4489 12.829 20.6397 12.9697 20.7803C13.1103 20.921 13.3011 21 13.5 21V20.25ZM14.514 18.069L14.058 17.4735L14.514 18.069ZM9.486 18.069L9.942 17.4735L9.486 18.069ZM10.5 20.25V21C10.6989 21 10.8897 20.921 11.0303 20.7803C11.171 20.6397 11.25 20.4489 11.25 20.25H10.5ZM6.9075 20.25V19.5V20.25ZM5.415 18.6L6.162 18.675V18.6645L5.415 18.6ZM5.85 13.5L6.597 13.563C6.60572 13.4596 6.59288 13.3555 6.5593 13.2573C6.52572 13.1591 6.47213 13.069 6.40192 12.9926C6.33171 12.9161 6.24641 12.8551 6.15141 12.8134C6.0564 12.7716 5.95377 12.75 5.85 12.75V13.5ZM3.069 14.514L2.4735 14.058L3.069 14.514ZM3.069 9.486L2.4735 9.942L3.069 9.486ZM5.85 10.5V11.25C5.95391 11.25 6.05668 11.2283 6.15179 11.1865C6.2469 11.1447 6.33228 11.0835 6.40252 11.0069C6.47275 10.9304 6.52631 10.84 6.55978 10.7416C6.59326 10.6433 6.60594 10.539 6.597 10.4355L5.85 10.5ZM6.9075 3C6.59298 2.99989 6.28194 3.06572 5.99444 3.19325C5.70694 3.32077 5.44936 3.50715 5.23834 3.74037C5.02731 3.97358 4.86753 4.24845 4.76929 4.54722C4.67105 4.846 4.63655 5.16206 4.668 5.475L6.1605 5.325C6.15001 5.22065 6.16153 5.11525 6.1943 5.01562C6.22708 4.916 6.28038 4.82435 6.35078 4.7466C6.42118 4.66886 6.50709 4.60674 6.60299 4.56426C6.69888 4.52179 6.80262 4.49989 6.9075 4.5V3ZM10.5 3H6.9075V4.5H10.5V3ZM11.25 4.323V3.75H9.75V4.323H11.25ZM9.942 6.5265C10.5045 6.096 11.25 5.367 11.25 4.323H9.75C9.75 4.6155 9.5295 4.953 9.03 5.3355L9.942 6.5265ZM9.75 6.75L9.7515 6.741C9.75594 6.72781 9.76198 6.71521 9.7695 6.7035C9.81585 6.63458 9.87429 6.57461 9.942 6.5265L9.03 5.3355C8.619 5.6505 8.25 6.1275 8.25 6.75H9.75ZM12 7.5C11.2635 7.5 10.632 7.35 10.215 7.14C10.0618 7.07044 9.92373 6.97158 9.8085 6.849C9.78363 6.82116 9.76383 6.78918 9.75 6.7545V6.75H8.25C8.25 7.602 8.9205 8.1705 9.543 8.481C10.2105 8.8155 11.0805 9 12 9V7.5ZM14.25 6.75V6.7545C14.2363 6.78971 14.2165 6.82221 14.1915 6.8505C14.0766 6.97238 13.939 7.07071 13.7865 7.14C13.365 7.35 12.735 7.5 12 7.5V9C12.9195 9 13.7895 8.8155 14.457 8.481C15.0795 8.1705 15.75 7.602 15.75 6.75H14.25ZM14.058 6.525C14.1555 6.6 14.2065 6.663 14.2305 6.7035C14.2425 6.723 14.2455 6.735 14.2485 6.741L14.25 6.75H15.75C15.75 6.1275 15.381 5.6505 14.97 5.3355L14.058 6.5265V6.525ZM12.75 4.3245C12.75 5.3685 13.4955 6.0975 14.058 6.528L14.97 5.337C14.4705 4.9545 14.25 4.617 14.25 4.3245H12.75ZM12.75 3.7515V4.3245H14.25V3.75H12.75V3.7515ZM17.0925 3.0015H13.5V4.5015H17.0925V3V3.0015ZM19.332 5.4765C19.3637 5.16344 19.3293 4.84722 19.2312 4.54826C19.1331 4.2493 18.9733 3.97425 18.7623 3.74087C18.5512 3.50749 18.2936 3.32097 18.006 3.19335C17.7183 3.06574 17.4072 2.99987 17.0925 3V4.5C17.1974 4.49989 17.3011 4.52179 17.397 4.56426C17.4929 4.60674 17.5788 4.66886 17.6492 4.7466C17.7196 4.82435 17.7729 4.916 17.8057 5.01562C17.8385 5.11525 17.85 5.22065 17.8395 5.325L19.332 5.475V5.4765ZM18.897 10.5645L19.332 5.4645L17.838 5.337L17.403 10.437L18.897 10.5645ZM19.323 9.7515H18.15V11.2515H19.323V9.7515ZM20.3355 9.0315C19.953 9.531 19.6155 9.7515 19.323 9.7515V11.2515C20.367 11.2515 21.096 10.506 21.5265 9.9435L20.3355 9.0315ZM21.75 8.2515C21.1275 8.2515 20.6505 8.6205 20.3355 9.0315L21.5265 9.9435C21.5746 9.87579 21.6346 9.81735 21.7035 9.771C21.7152 9.76348 21.7278 9.75744 21.741 9.753L21.75 9.75V8.25V8.2515ZM24 12C24 11.0805 23.8155 10.2105 23.481 9.543C23.1705 8.9205 22.602 8.25 21.75 8.25V9.75H21.7545L21.7695 9.7545C21.7983 9.76882 21.8251 9.78698 21.849 9.8085C21.9714 9.92329 22.0703 10.0609 22.14 10.2135C22.35 10.6335 22.5 11.2635 22.5 12H24ZM21.75 15.75C22.602 15.75 23.1705 15.0795 23.481 14.457C23.8155 13.7895 24 12.9195 24 12H22.5C22.5 12.7365 22.35 13.368 22.14 13.785C22.0704 13.9382 21.9716 14.0763 21.849 14.1915C21.8211 14.2163 21.7892 14.2361 21.7545 14.25H21.75V15.75ZM20.3355 14.97C20.6505 15.381 21.1275 15.75 21.75 15.75V14.25L21.741 14.2485C21.7278 14.2441 21.7152 14.238 21.7035 14.2305C21.6346 14.1842 21.5746 14.1257 21.5265 14.058L20.3355 14.97ZM19.323 14.25C19.6155 14.25 19.953 14.4705 20.3355 14.97L21.5265 14.058C21.096 13.4955 20.367 12.75 19.323 12.75V14.25ZM18.15 14.25H19.323V12.75H18.15V14.25ZM19.332 18.537L18.897 13.437L17.403 13.563L17.838 18.6645L19.332 18.537ZM17.0925 21C17.407 21.0001 17.7181 20.9343 18.0056 20.8068C18.2931 20.6792 18.5506 20.4928 18.7617 20.2596C18.9727 20.0264 19.1325 19.7516 19.2307 19.4528C19.3289 19.154 19.3635 18.8379 19.332 18.525L17.8395 18.675C17.85 18.7794 17.8385 18.8848 17.8057 18.9844C17.7729 19.084 17.7196 19.1757 17.6492 19.2534C17.5788 19.3311 17.4929 19.3933 17.397 19.4357C17.3011 19.4782 17.1974 19.5001 17.0925 19.5V21ZM13.5 21H17.0925V19.5H13.5V21ZM14.25 20.25V19.677H12.75V20.25H14.25ZM14.25 19.677C14.25 19.3845 14.4705 19.047 14.97 18.6645L14.058 17.4735C13.4955 17.904 12.75 18.633 12.75 19.677H14.25ZM14.97 18.6645C15.381 18.3495 15.75 17.8725 15.75 17.25H14.25L14.2485 17.259C14.2441 17.2722 14.238 17.2848 14.2305 17.2965C14.1841 17.3654 14.1257 17.4254 14.058 17.4735L14.97 18.6645ZM15.75 17.25C15.75 16.398 15.0795 15.8295 14.457 15.519C13.7895 15.1845 12.9195 15 12 15V16.5C12.738 16.5 13.368 16.65 13.785 16.86C13.995 16.965 14.124 17.07 14.1915 17.151C14.2163 17.1789 14.2361 17.2108 14.25 17.2455V17.25H15.75ZM12 15C11.0805 15 10.2105 15.1845 9.543 15.519C8.9205 15.8295 8.25 16.398 8.25 17.25H9.75V17.2455L9.7545 17.2305C9.76841 17.2014 9.78661 17.1746 9.8085 17.151C9.92326 17.0286 10.0608 16.9297 10.2135 16.86C10.635 16.65 11.265 16.5 12 16.5V15ZM8.25 17.25C8.25 17.8725 8.619 18.3495 9.03 18.6645L9.942 17.4735C9.87429 17.4254 9.81585 17.3654 9.7695 17.2965C9.76198 17.2848 9.75594 17.2722 9.7515 17.259L9.75 17.25H8.25ZM9.03 18.6645C9.5295 19.047 9.75 19.3845 9.75 19.677H11.25C11.25 18.633 10.5045 17.904 9.942 17.4735L9.03 18.6645ZM9.75 19.677V20.25H11.25V19.677H9.75ZM6.9075 21H10.5V19.5H6.9075V21ZM4.668 18.525C4.63655 18.8379 4.67105 19.154 4.76929 19.4528C4.86753 19.7516 5.02731 20.0264 5.23834 20.2596C5.44936 20.4928 5.70694 20.6792 5.99444 20.8068C6.28194 20.9343 6.59298 21.0001 6.9075 21V19.5C6.80262 19.5001 6.69888 19.4782 6.60299 19.4357C6.50709 19.3933 6.42118 19.3311 6.35078 19.2534C6.28038 19.1757 6.22708 19.084 6.1943 18.9844C6.16153 18.8848 6.15001 18.7794 6.1605 18.675L4.668 18.525ZM5.103 13.4355L4.668 18.537L6.162 18.6645L6.597 13.5645L5.103 13.4355ZM4.677 14.25H5.85V12.75H4.677V14.25ZM3.6645 14.97C4.047 14.4705 4.3845 14.25 4.677 14.25V12.75C3.633 12.75 2.904 13.4955 2.4735 14.058L3.6645 14.97ZM2.25 15.75C2.8725 15.75 3.3495 15.381 3.6645 14.97L2.4735 14.058C2.42539 14.1257 2.36542 14.1841 2.2965 14.2305C2.28479 14.238 2.2722 14.2441 2.259 14.2485L2.25 14.25V15.75ZM0 12C0 12.9195 0.1845 13.7895 0.519 14.457C0.8295 15.0795 1.398 15.75 2.25 15.75V14.25H2.2455C2.21029 14.2363 2.17779 14.2165 2.1495 14.1915C2.02762 14.0766 1.92929 13.939 1.86 13.7865C1.65 13.365 1.5 12.735 1.5 12H0ZM2.25 8.25C1.398 8.25 0.8295 8.9205 0.519 9.543C0.1845 10.2105 0 11.0805 0 12H1.5C1.5 11.262 1.65 10.632 1.86 10.215C1.92957 10.0618 2.02842 9.92373 2.151 9.8085C2.17884 9.78363 2.21082 9.76383 2.2455 9.75H2.25V8.25ZM3.6645 9.03C3.3495 8.619 2.8725 8.25 2.25 8.25V9.75L2.259 9.7515C2.2722 9.75592 2.28479 9.76197 2.2965 9.7695C2.337 9.7935 2.3985 9.8445 2.4735 9.942L3.6645 9.03ZM4.677 9.75C4.3845 9.75 4.047 9.5295 3.6645 9.03L2.4735 9.942C2.904 10.5045 3.633 11.25 4.677 11.25V9.75ZM5.85 9.75H4.677V11.25H5.85V9.75ZM4.668 5.463L5.103 10.563L6.597 10.4355L6.162 5.3355L4.668 5.463Z" fill="black"/>
</svg>
