<svg width="24" height="24" viewBox="0 0 24 24" fill="none" xmlns="http://www.w3.org/2000/svg">
<g clip-path="url(#clip0_1315_2300)">
<path fill-rule="evenodd" clip-rule="evenodd" d="M10.4193 0.6525C11.2893 -0.2175 12.6993 -0.2175 13.5693 0.6525L23.3418 10.4265C24.2118 11.2965 24.2118 12.705 23.3418 13.5735L13.5693 23.3475C12.6993 24.2175 11.2908 24.2175 10.4223 23.3475L0.646846 13.575C0.439941 13.3685 0.27579 13.1233 0.16379 12.8533C0.0517905 12.5832 -0.00585938 12.2938 -0.00585938 12.0015C-0.00585938 11.7092 0.0517905 11.4198 0.16379 11.1497C0.27579 10.8797 0.439941 10.6345 0.646846 10.428L10.4193 0.6525ZM12.5193 1.7025C12.3801 1.56327 12.1913 1.48505 11.9943 1.48505C11.7974 1.48505 11.6086 1.56327 11.4693 1.7025L1.69535 11.475C1.55612 11.6142 1.4779 11.8031 1.4779 12C1.4779 12.1969 1.55612 12.3858 1.69535 12.525L11.4693 22.299C11.6086 22.4382 11.7974 22.5164 11.9943 22.5164C12.1913 22.5164 12.3801 22.4382 12.5193 22.299L22.2933 12.525C22.4326 12.3858 22.5108 12.1969 22.5108 12C22.5108 11.8031 22.4326 11.6142 22.2933 11.475L12.5193 1.701V1.7025Z" fill="black"/>
<path d="M7.88118 8.679C7.87912 8.72744 7.887 8.77579 7.90433 8.82107C7.92165 8.86636 7.94805 8.90762 7.98191 8.94232C8.01577 8.97703 8.05637 9.00444 8.10122 9.02287C8.14606 9.0413 8.1942 9.05036 8.24268 9.0495H9.48018C9.68718 9.0495 9.85218 8.88 9.87918 8.6745C10.0142 7.6905 10.6892 6.9735 11.8922 6.9735C12.9212 6.9735 13.8632 7.488 13.8632 8.7255C13.8632 9.678 13.3022 10.116 12.4157 10.782C11.4062 11.5155 10.6067 12.372 10.6637 13.7625L10.6682 14.088C10.6698 14.1864 10.71 14.2803 10.7801 14.3493C10.8503 14.4183 10.9448 14.457 11.0432 14.457H12.2597C12.3591 14.457 12.4545 14.4175 12.5248 14.3472C12.5952 14.2768 12.6347 14.1815 12.6347 14.082V13.9245C12.6347 12.8475 13.0442 12.534 14.1497 11.6955C15.0632 11.001 16.0157 10.23 16.0157 8.6115C16.0157 6.345 14.1017 5.25 12.0062 5.25C10.1057 5.25 8.02368 6.135 7.88118 8.679ZM10.2167 17.3235C10.2167 18.123 10.8542 18.714 11.7317 18.714C12.6452 18.714 13.2737 18.123 13.2737 17.3235C13.2737 16.4955 12.6437 15.9135 11.7302 15.9135C10.8542 15.9135 10.2167 16.4955 10.2167 17.3235Z" fill="black"/>
</g>
<defs>
<clipPath id="clip0_1315_2300">
<rect width="24" height="24" fill="white"/>
</clipPath>
</defs>
</svg>
