<svg width="24" height="24" viewBox="0 0 24 24" fill="none" xmlns="http://www.w3.org/2000/svg">
<g clip-path="url(#clip0_1315_2312)">
<path fill-rule="evenodd" clip-rule="evenodd" d="M21 1.5H3C2.60218 1.5 2.22064 1.65804 1.93934 1.93934C1.65804 2.22064 1.5 2.60218 1.5 3V21C1.5 21.3978 1.65804 21.7794 1.93934 22.0607C2.22064 22.342 2.60218 22.5 3 22.5H21C21.3978 22.5 21.7794 22.342 22.0607 22.0607C22.342 21.7794 22.5 21.3978 22.5 21V3C22.5 2.60218 22.342 2.22064 22.0607 1.93934C21.7794 1.65804 21.3978 1.5 21 1.5ZM3 0C2.20435 0 1.44129 0.316071 0.87868 0.87868C0.316071 1.44129 0 2.20435 0 3L0 21C0 21.7956 0.316071 22.5587 0.87868 23.1213C1.44129 23.6839 2.20435 24 3 24H21C21.7956 24 22.5587 23.6839 23.1213 23.1213C23.6839 22.5587 24 21.7956 24 21V3C24 2.20435 23.6839 1.44129 23.1213 0.87868C22.5587 0.316071 21.7956 0 21 0L3 0Z" fill="black"/>
<path d="M7.88118 8.679C7.87912 8.72744 7.887 8.77579 7.90433 8.82107C7.92165 8.86636 7.94805 8.90762 7.98191 8.94232C8.01577 8.97703 8.05637 9.00444 8.10122 9.02287C8.14606 9.0413 8.1942 9.05036 8.24268 9.0495H9.48018C9.68718 9.0495 9.85218 8.88 9.87918 8.6745C10.0142 7.6905 10.6892 6.9735 11.8922 6.9735C12.9212 6.9735 13.8632 7.488 13.8632 8.7255C13.8632 9.678 13.3022 10.116 12.4157 10.782C11.4062 11.5155 10.6067 12.372 10.6637 13.7625L10.6682 14.088C10.6698 14.1864 10.71 14.2803 10.7801 14.3493C10.8503 14.4183 10.9448 14.457 11.0432 14.457H12.2597C12.3591 14.457 12.4545 14.4175 12.5248 14.3472C12.5952 14.2768 12.6347 14.1815 12.6347 14.082V13.9245C12.6347 12.8475 13.0442 12.534 14.1497 11.6955C15.0632 11.001 16.0157 10.23 16.0157 8.6115C16.0157 6.345 14.1017 5.25 12.0062 5.25C10.1057 5.25 8.02368 6.135 7.88118 8.679ZM10.2167 17.3235C10.2167 18.123 10.8542 18.714 11.7317 18.714C12.6452 18.714 13.2737 18.123 13.2737 17.3235C13.2737 16.4955 12.6437 15.9135 11.7302 15.9135C10.8542 15.9135 10.2167 16.4955 10.2167 17.3235Z" fill="black"/>
</g>
<defs>
<clipPath id="clip0_1315_2312">
<rect width="24" height="24" fill="white"/>
</clipPath>
</defs>
</svg>
