<svg width="24" height="24" viewBox="0 0 24 24" fill="none" xmlns="http://www.w3.org/2000/svg">
<g clip-path="url(#clip0_1315_2295)">
<path fill-rule="evenodd" clip-rule="evenodd" d="M12 22.5C14.7848 22.5 17.4555 21.3938 19.4246 19.4246C21.3938 17.4555 22.5 14.7848 22.5 12C22.5 9.21523 21.3938 6.54451 19.4246 4.57538C17.4555 2.60625 14.7848 1.5 12 1.5C9.21523 1.5 6.54451 2.60625 4.57538 4.57538C2.60625 6.54451 1.5 9.21523 1.5 12C1.5 14.7848 2.60625 17.4555 4.57538 19.4246C6.54451 21.3938 9.21523 22.5 12 22.5ZM12 24C15.1826 24 18.2348 22.7357 20.4853 20.4853C22.7357 18.2348 24 15.1826 24 12C24 8.8174 22.7357 5.76516 20.4853 3.51472C18.2348 1.26428 15.1826 0 12 0C8.8174 0 5.76516 1.26428 3.51472 3.51472C1.26428 5.76516 0 8.8174 0 12C0 15.1826 1.26428 18.2348 3.51472 20.4853C5.76516 22.7357 8.8174 24 12 24Z" fill="black"/>
<path d="M7.88118 8.679C7.87912 8.72744 7.887 8.77579 7.90433 8.82107C7.92165 8.86636 7.94805 8.90762 7.98191 8.94232C8.01577 8.97703 8.05637 9.00444 8.10122 9.02287C8.14606 9.0413 8.1942 9.05036 8.24268 9.0495H9.48018C9.68718 9.0495 9.85218 8.88 9.87918 8.6745C10.0142 7.6905 10.6892 6.9735 11.8922 6.9735C12.9212 6.9735 13.8632 7.488 13.8632 8.7255C13.8632 9.678 13.3022 10.116 12.4157 10.782C11.4062 11.5155 10.6067 12.372 10.6637 13.7625L10.6682 14.088C10.6698 14.1864 10.71 14.2803 10.7801 14.3493C10.8503 14.4183 10.9448 14.457 11.0432 14.457H12.2597C12.3591 14.457 12.4545 14.4175 12.5248 14.3472C12.5952 14.2768 12.6347 14.1815 12.6347 14.082V13.9245C12.6347 12.8475 13.0442 12.534 14.1497 11.6955C15.0632 11.001 16.0157 10.23 16.0157 8.6115C16.0157 6.345 14.1017 5.25 12.0062 5.25C10.1057 5.25 8.02368 6.135 7.88118 8.679ZM10.2167 17.3235C10.2167 18.123 10.8542 18.714 11.7317 18.714C12.6452 18.714 13.2737 18.123 13.2737 17.3235C13.2737 16.4955 12.6437 15.9135 11.7302 15.9135C10.8542 15.9135 10.2167 16.4955 10.2167 17.3235Z" fill="black"/>
</g>
<defs>
<clipPath id="clip0_1315_2295">
<rect width="24" height="24" fill="white"/>
</clipPath>
</defs>
</svg>
