<svg width="77" height="63" viewBox="0 0 77 63" fill="none" xmlns="http://www.w3.org/2000/svg">
<path d="M76.1779 59.0564L71.4734 55.2073C71.5443 54.9989 71.5824 54.7814 71.5857 54.5624V20.8126C71.5841 19.6193 71.0765 18.4757 70.1747 17.632C69.2723 16.7888 68.0493 16.3142 66.7732 16.3126H63.2348L61.6471 18.5626H66.7732C67.4113 18.5626 68.0236 18.7997 68.4747 19.2215C68.9259 19.6434 69.1794 20.216 69.1794 20.8126V54.5624H7.82048V20.8126C7.82048 20.216 8.074 19.6434 8.52516 19.2215C8.97632 18.7997 9.58863 18.5626 10.2267 18.5626H15.3528L13.7651 16.3126H10.2267C8.95055 16.3141 7.72753 16.7887 6.82526 17.632C5.92346 18.4758 5.41589 19.6193 5.41424 20.8126V54.5624C5.41746 54.7814 5.4556 54.9989 5.5265 55.2073L0.821967 59.0564C0.327823 59.4612 0.0318836 60.0368 0.00234879 60.6501C-0.0266553 61.2638 0.213974 61.8614 0.667818 62.3054C1.12167 62.7489 1.74955 63 2.40649 63H74.5935C75.2504 63 75.8783 62.7489 76.3322 62.3054C76.786 61.8614 77.0267 61.2638 76.9977 60.6501C76.9681 60.0368 76.6722 59.4613 76.178 59.0564H76.1779ZM2.40694 60.75L7.21941 56.8125H69.7815L74.594 60.75H2.40694Z" fill="#4F4F4F"/>
<path d="M36.1779 13.4396C36.1817 13.0212 35.8223 12.6787 35.3744 12.6742C35.2014 12.6757 35.0322 12.7249 34.8894 12.8158C34.0805 13.4567 33.5874 14.3787 33.5246 15.3682H32.6454C32.4568 15.3662 32.2753 15.435 32.1415 15.5591C32.0078 15.6826 31.9326 15.8514 31.9326 16.0276C31.9326 16.2039 32.0078 16.3727 32.1415 16.4962C32.2753 16.6203 32.4568 16.6891 32.6454 16.6871H33.5096C33.7223 18.5021 34.8894 19.2956 36.2396 19.2956C39.8935 19.2956 38.8779 14.1202 41.0918 14.1202C42.0317 14.1202 42.4867 14.7444 42.4867 16.0347H42.4862C42.4588 16.9247 42.0426 17.7654 41.3336 18.36C41.13 18.5122 41.0081 18.7402 41.0006 18.9843C41.0049 19.2585 41.166 19.5096 41.4233 19.6417C41.6805 19.7733 41.9937 19.7663 42.2434 19.6221C43.2725 18.9356 43.9315 17.8643 44.0481 16.6871H44.8973C45.0858 16.6891 45.2668 16.6203 45.4011 16.4968C45.5348 16.3727 45.6105 16.204 45.6105 16.0277C45.6105 15.8514 45.5348 15.6827 45.4011 15.5586C45.2668 15.4351 45.0858 15.3663 44.8973 15.3683H44.0481C43.851 13.4684 42.7591 12.476 41.0913 12.476C37.2999 12.476 38.2253 17.6514 36.2391 17.6514C35.6322 17.6514 35.0408 17.212 35.0408 16.0353V16.0348C35.0339 15.3026 35.3207 14.5944 35.8444 14.0495C36.034 13.8928 36.1532 13.6754 36.1779 13.4398V13.4396Z" fill="#4F4F4F"/>
<path d="M57.4493 30.3749C57.4493 29.7536 56.9105 29.2499 56.2461 29.2499H20.7549C20.0905 29.2499 19.5518 29.7536 19.5518 30.3749C19.5518 30.9961 20.0905 31.4999 20.7549 31.4999H56.2461C56.9105 31.4999 57.4493 30.9961 57.4493 30.3749Z" fill="#4F4F4F"/>
<path d="M24.1908 26.9999H28.876V3.37506C28.8765 2.75381 29.4147 2.25057 30.0791 2.25007H46.9227C47.5871 2.25057 48.1253 2.75381 48.1258 3.37506V26.9999H52.811L61.6368 14.493C62.1647 13.7441 62.3522 12.8295 62.1583 11.9511C61.9639 11.0727 61.4037 10.3028 60.6013 9.81106L57.1799 7.71574V7.71524C57.2948 6.90263 57.0896 6.07891 56.6036 5.39698C56.1169 4.71495 55.3816 4.22176 54.5352 4.0088L50.5096 3.00534C50.4113 2.17967 49.9913 1.41685 49.3296 0.862324C48.6679 0.308364 47.8112 0.00100285 46.9228 0H30.0792C29.1908 0.00100439 28.3342 0.308364 27.6724 0.862324C27.0107 1.41679 26.5906 2.17966 26.4924 3.00534L22.4668 4.0088C21.6203 4.22174 20.885 4.71493 20.3984 5.39698C19.9123 6.079 19.7072 6.90267 19.8221 7.71575L16.4007 9.81107C15.5983 10.3027 15.0381 11.0727 14.8437 11.9511C14.6498 12.8295 14.8372 13.7446 15.3657 14.4934L24.1908 26.9999ZM56.5567 10.0235L59.2825 11.6928H59.282C59.5494 11.857 59.7364 12.1137 59.8008 12.4065C59.8658 12.6993 59.8035 13.0041 59.6279 13.2537L52.9527 22.7132L56.5567 10.0235ZM50.5315 5.33962L53.9143 6.18287C54.555 6.34358 54.9369 6.95882 54.7677 7.55896L50.5315 22.4732V5.33962ZM23.0867 6.18287L26.4695 5.33962V22.4742L22.2332 7.56004C22.0641 6.95987 22.4459 6.34465 23.0867 6.18395V6.18287ZM17.2001 12.4059C17.264 12.1132 17.4509 11.856 17.7184 11.6928L20.4442 10.0234L24.0482 22.7127L17.3735 13.2543C17.1968 13.0047 17.134 12.6993 17.2001 12.406L17.2001 12.4059Z" fill="#4F4F4F"/>
<path d="M25.8672 33.7499C24.591 33.7514 23.368 34.226 22.4657 35.0693C21.5639 35.913 21.0563 37.0566 21.0547 38.2499V47.8123C21.0563 49.0056 21.5639 50.1492 22.4657 50.9929C23.368 51.8361 24.591 52.3107 25.8672 52.3123H51.1326C52.4088 52.3108 53.6318 51.8362 54.5341 50.9929C55.4359 50.1491 55.9434 49.0056 55.9451 47.8123V38.2499C55.9435 37.0566 55.4359 35.913 54.5341 35.0693C53.6317 34.226 52.4087 33.7514 51.1326 33.7499H25.8672ZM53.5388 38.2499V47.8123C53.5388 48.4089 53.2853 48.9815 52.8342 49.4034C52.383 49.8252 51.7707 50.0623 51.1326 50.0623H25.8672C25.2291 50.0623 24.6168 49.8252 24.1656 49.4034C23.7144 48.9815 23.4609 48.4089 23.4609 47.8123V38.2499C23.4609 37.6532 23.7144 37.0807 24.1656 36.6588C24.6168 36.2369 25.2291 35.9999 25.8672 35.9999H51.1326C51.7707 35.9999 52.383 36.2369 52.8342 36.6588C53.2853 37.0807 53.5388 37.6532 53.5388 38.2499Z" fill="#4F4F4F"/>
<path d="M41.9835 40.7377L37.171 38.4877C36.425 38.1391 35.5393 38.1763 34.8298 38.5861C34.1203 38.9959 33.6885 39.7202 33.6885 40.5002V45.0001C33.6885 45.7801 34.1203 46.5043 34.8298 46.9142C35.5394 47.324 36.4251 47.3611 37.171 47.0126L41.9835 44.7626C42.519 44.512 42.9353 44.0841 43.1512 43.5618C43.3676 43.0395 43.3676 42.4609 43.1512 41.9386C42.9353 41.4163 42.519 40.9884 41.9835 40.7378V40.7377ZM36.0947 45V40.5001L40.9072 42.7501L36.0947 45Z" fill="#4F4F4F"/>
</svg>
