<svg width="24" height="24" viewBox="0 0 24 24" fill="none" xmlns="http://www.w3.org/2000/svg">
<path d="M13.6185 17.8497L20.4705 12.9282C20.6319 12.8329 20.7656 12.6971 20.8585 12.5343C20.9515 12.3714 21.0003 12.1872 21.0003 11.9997C21.0003 11.8123 20.9515 11.628 20.8585 11.4652C20.7656 11.3024 20.6319 11.1666 20.4705 11.0712L13.6185 6.14974C13.4552 6.05367 13.2693 6.00252 13.0798 6.0015C12.8903 6.00047 12.7039 6.0496 12.5396 6.14389C12.3752 6.23819 12.2387 6.37429 12.1439 6.53839C12.0492 6.70249 11.9995 6.88875 12 7.07824V8.99974C9.75 8.99974 3 8.99974 1.5 20.9997C5.25 14.2497 12 14.9997 12 14.9997V16.9212C12 17.7612 12.909 18.2682 13.6185 17.8512V17.8497Z" fill="black"/>
</svg>
