<svg width="24" height="24" viewBox="0 0 24 24" fill="none" xmlns="http://www.w3.org/2000/svg">
<g clip-path="url(#clip0_1315_2343)">
<path fill-rule="evenodd" clip-rule="evenodd" d="M3 0C2.20435 0 1.44129 0.316071 0.87868 0.87868C0.316071 1.44129 0 2.20435 0 3L0 21C0 21.7956 0.316071 22.5587 0.87868 23.1213C1.44129 23.6839 2.20435 24 3 24H21C21.7956 24 22.5587 23.6839 23.1213 23.1213C23.6839 22.5587 24 21.7956 24 21V3C24 2.20435 23.6839 1.44129 23.1213 0.87868C22.5587 0.316071 21.7956 0 21 0L3 0ZM5.25 3.75C4.85218 3.75 4.47064 3.90804 4.18934 4.18934C3.90804 4.47064 3.75 4.85218 3.75 5.25C3.75 5.64782 3.90804 6.02936 4.18934 6.31066C4.47064 6.59196 4.85218 6.75 5.25 6.75C8.4326 6.75 11.4848 8.01428 13.7353 10.2647C15.9857 12.5152 17.25 15.5674 17.25 18.75C17.25 19.1478 17.408 19.5294 17.6893 19.8107C17.9706 20.092 18.3522 20.25 18.75 20.25C19.1478 20.25 19.5294 20.092 19.8107 19.8107C20.092 19.5294 20.25 19.1478 20.25 18.75C20.25 10.4655 13.5345 3.75 5.25 3.75ZM5.25 9.75C4.85218 9.75 4.47064 9.90804 4.18934 10.1893C3.90804 10.4706 3.75 10.8522 3.75 11.25C3.75 11.6478 3.90804 12.0294 4.18934 12.3107C4.47064 12.592 4.85218 12.75 5.25 12.75C6.8413 12.75 8.36742 13.3821 9.49264 14.5074C10.6179 15.6326 11.25 17.1587 11.25 18.75C11.25 19.1478 11.408 19.5294 11.6893 19.8107C11.9706 20.092 12.3522 20.25 12.75 20.25C13.1478 20.25 13.5294 20.092 13.8107 19.8107C14.092 19.5294 14.25 19.1478 14.25 18.75C14.25 16.3631 13.3018 14.0739 11.614 12.386C9.92613 10.6982 7.63695 9.75 5.25 9.75ZM6 20.25C6.59674 20.25 7.16903 20.0129 7.59099 19.591C8.01295 19.169 8.25 18.5967 8.25 18C8.25 17.4033 8.01295 16.831 7.59099 16.409C7.16903 15.9871 6.59674 15.75 6 15.75C5.40326 15.75 4.83097 15.9871 4.40901 16.409C3.98705 16.831 3.75 17.4033 3.75 18C3.75 18.5967 3.98705 19.169 4.40901 19.591C4.83097 20.0129 5.40326 20.25 6 20.25Z" fill="black"/>
</g>
<defs>
<clipPath id="clip0_1315_2343">
<rect width="24" height="24" fill="white"/>
</clipPath>
</defs>
</svg>
