<svg width="24" height="24" viewBox="0 0 24 24" fill="none" xmlns="http://www.w3.org/2000/svg">
<path fill-rule="evenodd" clip-rule="evenodd" d="M5.25101 5.25C4.33001 3.924 5.14001 2.307 6.53801 1.5L12.001 10.839L17.464 1.5C18.862 2.307 19.672 3.924 18.751 5.25L13.216 12.915L15.55 16.9065C16.377 16.4853 17.3309 16.3857 18.2271 16.627C19.1233 16.8683 19.8981 17.4334 20.4018 18.213C20.9055 18.9926 21.1021 19.9312 20.9538 20.8474C20.8054 21.7636 20.3226 22.5922 19.5987 23.173C18.8747 23.7538 17.9611 24.0455 17.0346 23.9917C16.108 23.9379 15.2343 23.5424 14.5825 22.8817C13.9307 22.221 13.547 21.342 13.5057 20.4148C13.4644 19.4876 13.7685 18.578 14.359 17.862L12.001 14.595L9.64301 17.8605C10.2335 18.5765 10.5376 19.4861 10.4963 20.4133C10.455 21.3405 10.0714 22.2195 9.41954 22.8802C8.76771 23.5409 7.89403 23.9364 6.96747 23.9902C6.04091 24.044 5.1273 23.7523 4.40336 23.1715C3.67942 22.5907 3.19658 21.7621 3.04823 20.8459C2.89987 19.9297 3.09655 18.9911 3.60021 18.2115C4.10387 17.4319 4.87874 16.8668 5.77494 16.6255C6.67114 16.3842 7.62499 16.4838 8.45201 16.905L10.786 12.915L5.25101 5.25ZM9.00101 20.25C9.00101 20.8467 8.76396 21.419 8.342 21.841C7.92004 22.2629 7.34775 22.5 6.75101 22.5C6.15427 22.5 5.58198 22.2629 5.16002 21.841C4.73806 21.419 4.50101 20.8467 4.50101 20.25C4.50101 19.6533 4.73806 19.081 5.16002 18.659C5.58198 18.2371 6.15427 18 6.75101 18C7.34775 18 7.92004 18.2371 8.342 18.659C8.76396 19.081 9.00101 19.6533 9.00101 20.25ZM19.501 20.25C19.501 20.8467 19.264 21.419 18.842 21.841C18.42 22.2629 17.8477 22.5 17.251 22.5C16.6543 22.5 16.082 22.2629 15.66 21.841C15.2381 21.419 15.001 20.8467 15.001 20.25C15.001 19.6533 15.2381 19.081 15.66 18.659C16.082 18.2371 16.6543 18 17.251 18C17.8477 18 18.42 18.2371 18.842 18.659C19.264 19.081 19.501 19.6533 19.501 20.25Z" fill="black"/>
</svg>
