<svg width="24" height="24" viewBox="0 0 24 24" fill="none" xmlns="http://www.w3.org/2000/svg">
<path d="M2.03644 5.217C1.40644 11.1705 3.34144 15.609 5.67094 18.5835C6.70027 19.9082 7.92235 21.0711 9.29644 22.0335C9.85294 22.4175 10.3689 22.71 10.8069 22.9125C11.2119 23.0985 11.6439 23.25 12.0009 23.25C12.3579 23.25 12.7914 23.0985 13.1949 22.9125C13.6329 22.71 14.1489 22.4175 14.7054 22.0335C15.4044 21.5535 16.1799 20.9235 16.9584 20.139L15.8979 19.0785C15.2712 19.7135 14.5873 20.2894 13.8549 20.799C13.4481 21.0844 13.0181 21.3353 12.5694 21.549C12.3954 21.6285 12.2544 21.6825 12.1464 21.714C12.0988 21.7293 12.0502 21.7413 12.0009 21.75C11.9904 21.7485 11.9439 21.7425 11.8554 21.7155C11.7109 21.6695 11.5696 21.6138 11.4324 21.549C10.9838 21.3353 10.5538 21.0844 10.1469 20.799C8.89801 19.9227 7.78721 18.8645 6.85144 17.6595C4.89394 15.1605 3.21844 11.508 3.43444 6.615L2.03644 5.217ZM18.6159 15.432C20.0724 12.7545 21.0069 9.207 20.3964 4.7385C20.3773 4.61181 20.3228 4.49308 20.2392 4.39597C20.1557 4.29886 20.0464 4.22729 19.9239 4.1895C18.9849 3.8895 17.4009 3.4005 15.8364 2.9865C14.2374 2.565 12.7659 2.25 12.0009 2.25C11.2359 2.25 9.76594 2.565 8.16544 2.9865C7.64323 3.1253 7.12269 3.27031 6.60394 3.4215L5.39494 2.2125C6.18686 1.97504 6.98246 1.75001 7.78144 1.5375C9.34594 1.1235 11.0064 0.75 12.0009 0.75C12.9939 0.75 14.6559 1.1235 16.2204 1.5375C17.6159 1.91216 19.0023 2.31978 20.3784 2.76C21.1704 3.012 21.7674 3.6945 21.8829 4.536C22.5699 9.5685 21.4344 13.5585 19.7169 16.5345L18.6144 15.432H18.6159Z" fill="black"/>
<path fill-rule="evenodd" clip-rule="evenodd" d="M21.9668 23.031L0.966797 2.03099L2.0288 0.968994L23.0288 21.969L21.9683 23.0295L21.9668 23.031Z" fill="black"/>
</svg>
