<svg width="24" height="24" viewBox="0 0 24 24" fill="none" xmlns="http://www.w3.org/2000/svg">
<path fill-rule="evenodd" clip-rule="evenodd" d="M12.0014 0.75C11.0084 0.75 9.34644 1.1235 7.78194 1.5375C6.38649 1.91217 5.00011 2.31979 3.62394 2.76C3.23104 2.88374 2.88122 3.11622 2.61496 3.43052C2.34871 3.74483 2.1769 4.12811 2.11944 4.536C1.25994 10.8315 3.25344 15.4965 5.67144 18.5835C6.70077 19.9082 7.92285 21.0711 9.29694 22.0335C9.85344 22.4175 10.3694 22.71 10.8074 22.9125C11.2124 23.0985 11.6444 23.25 12.0014 23.25C12.3584 23.25 12.7919 23.0985 13.1954 22.9125C13.6334 22.71 14.1494 22.4175 14.7059 22.0335C16.0806 21.0712 17.3032 19.9083 18.3329 18.5835C20.7494 15.4965 22.7429 10.8315 21.8834 4.536C21.826 4.12811 21.6542 3.74483 21.3879 3.43052C21.1217 3.11622 20.7718 2.88374 20.3789 2.76C19.0028 2.31978 17.6164 1.91216 16.2209 1.5375C14.6564 1.1235 12.9959 0.75 12.0014 0.75ZM12.7514 11.8725C13.2518 11.6956 13.6736 11.3474 13.9422 10.8896C14.2107 10.4318 14.3088 9.89382 14.219 9.3707C14.1293 8.84758 13.8575 8.37303 13.4517 8.03092C13.0459 7.68882 12.5322 7.50118 12.0014 7.50118C11.4707 7.50118 10.957 7.68882 10.5512 8.03092C10.1454 8.37303 9.87359 8.84758 9.78384 9.3707C9.69409 9.89382 9.79215 10.4318 10.0607 10.8896C10.3293 11.3474 10.751 11.6956 11.2514 11.8725L10.6739 14.8575C10.6529 14.9661 10.6562 15.0779 10.6835 15.1851C10.7108 15.2923 10.7614 15.3921 10.8318 15.4774C10.9022 15.5627 10.9906 15.6313 11.0906 15.6785C11.1906 15.7256 11.2999 15.75 11.4104 15.75H12.5924C12.7029 15.7498 12.8119 15.7252 12.9118 15.678C13.0116 15.6307 13.0998 15.562 13.17 15.4768C13.2403 15.3915 13.2908 15.2918 13.318 15.1847C13.3452 15.0777 13.3484 14.9659 13.3274 14.8575L12.7514 11.8725Z" fill="black"/>
</svg>
