<svg width="24" height="24" viewBox="0 0 24 24" fill="none" xmlns="http://www.w3.org/2000/svg">
<path fill-rule="evenodd" clip-rule="evenodd" d="M7.78203 1.5375C9.34653 1.1235 11.007 0.75 12.0015 0.75C12.9945 0.75 14.6565 1.1235 16.221 1.5375C17.6165 1.91216 19.0029 2.31978 20.379 2.76C21.171 3.012 21.768 3.6945 21.8835 4.536C22.743 10.8315 20.7495 15.4965 18.333 18.5835C17.3033 19.9083 16.0807 21.0712 14.706 22.0335C14.2281 22.3683 13.7228 22.6623 13.1955 22.9125C12.7905 23.0985 12.3585 23.25 12.0015 23.25C11.6445 23.25 11.2125 23.0985 10.8075 22.9125C10.2802 22.6626 9.77488 22.3685 9.29703 22.0335C7.92295 21.0711 6.70087 19.9082 5.67153 18.5835C3.25203 15.4965 1.26003 10.8315 2.11953 4.536C2.177 4.12811 2.3488 3.74483 2.61506 3.43052C2.88132 3.11622 3.23114 2.88374 3.62403 2.76C5.00021 2.31979 6.38659 1.91217 7.78203 1.5375Z" fill="black"/>
</svg>
