<svg width="24" height="24" viewBox="0 0 24 24" fill="none" xmlns="http://www.w3.org/2000/svg">
<path fill-rule="evenodd" clip-rule="evenodd" d="M18 5.25C18.1989 5.25 18.3897 5.32902 18.5303 5.46967C18.671 5.61032 18.75 5.80109 18.75 6V18C18.75 18.1989 18.671 18.3897 18.5303 18.5303C18.3897 18.671 18.1989 18.75 18 18.75C17.8011 18.75 17.6103 18.671 17.4697 18.5303C17.329 18.3897 17.25 18.1989 17.25 18V6C17.25 5.80109 17.329 5.61032 17.4697 5.46967C17.6103 5.32902 17.8011 5.25 18 5.25Z" fill="black"/>
<path d="M17.394 13.0457L7.8495 18.5837C7.0395 19.0532 6 18.4847 6 17.5382V6.46216C6 5.51716 7.038 4.94716 7.8495 5.41816L17.394 10.9562C17.5783 11.0613 17.7314 11.2134 17.8379 11.3969C17.9445 11.5803 18.0006 11.7887 18.0006 12.0009C18.0006 12.2131 17.9445 12.4215 17.8379 12.6049C17.7314 12.7884 17.5783 12.9405 17.394 13.0457Z" fill="black"/>
</svg>
