<svg width="24" height="24" viewBox="0 0 24 24" fill="none" xmlns="http://www.w3.org/2000/svg">
<path fill-rule="evenodd" clip-rule="evenodd" d="M17.0319 6.96888C17.1018 7.03854 17.1572 7.12131 17.195 7.21242C17.2328 7.30354 17.2523 7.40122 17.2523 7.49988C17.2523 7.59853 17.2328 7.69621 17.195 7.78733C17.1572 7.87844 17.1018 7.96121 17.0319 8.03088L8.03195 17.0309C7.89112 17.1717 7.70011 17.2508 7.50095 17.2508C7.30178 17.2508 7.11078 17.1717 6.96995 17.0309C6.82912 16.89 6.75 16.699 6.75 16.4999C6.75 16.3007 6.82912 16.1097 6.96995 15.9689L15.9699 6.96888C16.0396 6.89903 16.1224 6.84362 16.2135 6.80581C16.3046 6.768 16.4023 6.74854 16.5009 6.74854C16.5996 6.74854 16.6973 6.768 16.7884 6.80581C16.8795 6.84362 16.9623 6.89903 17.0319 6.96888Z" fill="black"/>
</svg>
