<svg width="24" height="24" viewBox="0 0 24 24" fill="none" xmlns="http://www.w3.org/2000/svg">
<g clip-path="url(#clip0_1315_2478)">
<path fill-rule="evenodd" clip-rule="evenodd" d="M17.25 3.0001C16.9545 3.0001 16.6619 3.0583 16.389 3.17137C16.116 3.28444 15.8679 3.45018 15.659 3.65911C15.4501 3.86804 15.2843 4.11608 15.1713 4.38906C15.0582 4.66204 15 4.95462 15 5.2501C15 5.54557 15.0582 5.83815 15.1713 6.11114C15.2843 6.38412 15.4501 6.63216 15.659 6.84109C15.8679 7.05002 16.116 7.21575 16.389 7.32883C16.6619 7.4419 16.9545 7.5001 17.25 7.5001C17.8467 7.5001 18.419 7.26304 18.841 6.84109C19.2629 6.41913 19.5 5.84683 19.5 5.2501C19.5 4.65336 19.2629 4.08106 18.841 3.65911C18.419 3.23715 17.8467 3.0001 17.25 3.0001ZM13.575 4.5001C13.7471 3.65238 14.207 2.89024 14.8768 2.34281C15.5466 1.79539 16.385 1.49634 17.25 1.49634C18.115 1.49634 18.9534 1.79539 19.6232 2.34281C20.293 2.89024 20.7529 3.65238 20.925 4.5001H24V6.0001H20.925C20.7529 6.84781 20.293 7.60995 19.6232 8.15738C18.9534 8.70481 18.115 9.00386 17.25 9.00386C16.385 9.00386 15.5466 8.70481 14.8768 8.15738C14.207 7.60995 13.7471 6.84781 13.575 6.0001H0V4.5001H13.575ZM6.75 10.5001C6.15326 10.5001 5.58097 10.7372 5.15901 11.1591C4.73705 11.5811 4.5 12.1534 4.5 12.7501C4.5 13.3468 4.73705 13.9191 5.15901 14.3411C5.58097 14.763 6.15326 15.0001 6.75 15.0001C7.34674 15.0001 7.91903 14.763 8.34099 14.3411C8.76295 13.9191 9 13.3468 9 12.7501C9 12.1534 8.76295 11.5811 8.34099 11.1591C7.91903 10.7372 7.34674 10.5001 6.75 10.5001ZM3.075 12.0001C3.24714 11.1524 3.70705 10.3902 4.37681 9.84281C5.04657 9.29539 5.88498 8.99634 6.75 8.99634C7.61502 8.99634 8.45343 9.29539 9.12319 9.84281C9.79295 10.3902 10.2529 11.1524 10.425 12.0001H24V13.5001H10.425C10.2529 14.3478 9.79295 15.11 9.12319 15.6574C8.45343 16.2048 7.61502 16.5039 6.75 16.5039C5.88498 16.5039 5.04657 16.2048 4.37681 15.6574C3.70705 15.11 3.24714 14.3478 3.075 13.5001H0V12.0001H3.075ZM17.25 18.0001C16.6533 18.0001 16.081 18.2372 15.659 18.6591C15.2371 19.0811 15 19.6534 15 20.2501C15 20.8468 15.2371 21.4191 15.659 21.8411C16.081 22.263 16.6533 22.5001 17.25 22.5001C17.8467 22.5001 18.419 22.263 18.841 21.8411C19.2629 21.4191 19.5 20.8468 19.5 20.2501C19.5 19.6534 19.2629 19.0811 18.841 18.6591C18.419 18.2372 17.8467 18.0001 17.25 18.0001ZM13.575 19.5001C13.7471 18.6524 14.207 17.8902 14.8768 17.3428C15.5466 16.7954 16.385 16.4963 17.25 16.4963C18.115 16.4963 18.9534 16.7954 19.6232 17.3428C20.293 17.8902 20.7529 18.6524 20.925 19.5001H24V21.0001H20.925C20.7529 21.8478 20.293 22.61 19.6232 23.1574C18.9534 23.7048 18.115 24.0039 17.25 24.0039C16.385 24.0039 15.5466 23.7048 14.8768 23.1574C14.207 22.61 13.7471 21.8478 13.575 21.0001H0V19.5001H13.575Z" fill="black"/>
</g>
<defs>
<clipPath id="clip0_1315_2478">
<rect width="24" height="24" fill="white"/>
</clipPath>
</defs>
</svg>
