<svg width="24" height="24" viewBox="0 0 24 24" fill="none" xmlns="http://www.w3.org/2000/svg">
<path d="M21 7.5H21.75C21.9489 7.5 22.1397 7.57902 22.2803 7.71967C22.421 7.86032 22.5 8.05109 22.5 8.25V11.25C22.5 11.4489 22.421 11.6397 22.2803 11.7803C22.1397 11.921 21.9489 12 21.75 12H21V7.5Z" fill="black"/>
<path fill-rule="evenodd" clip-rule="evenodd" d="M12.75 6.75C12.9489 6.75 13.1397 6.82902 13.2803 6.96967C13.421 7.11032 13.5 7.30109 13.5 7.5V12.75C13.5 12.9489 13.421 13.1397 13.2803 13.2803C13.1397 13.421 12.9489 13.5 12.75 13.5H9C8.80109 13.5 8.61032 13.421 8.46967 13.2803C8.32902 13.1397 8.25 12.9489 8.25 12.75C8.25 12.5511 8.32902 12.3603 8.46967 12.2197C8.61032 12.079 8.80109 12 9 12H12V7.5C12 7.30109 12.079 7.11032 12.2197 6.96967C12.3603 6.82902 12.5511 6.75 12.75 6.75Z" fill="black"/>
<path fill-rule="evenodd" clip-rule="evenodd" d="M6.75 3H17.25C18.2446 3 19.1984 3.39509 19.9016 4.09835C20.6049 4.80161 21 5.75544 21 6.75V17.25C21 18.2446 20.6049 19.1984 19.9016 19.9016C19.1984 20.6049 18.2446 21 17.25 21H6.75C5.75544 21 4.80161 20.6049 4.09835 19.9016C3.39509 19.1984 3 18.2446 3 17.25V6.75C3 5.75544 3.39509 4.80161 4.09835 4.09835C4.80161 3.39509 5.75544 3 6.75 3ZM6.75 4.5C6.15326 4.5 5.58097 4.73705 5.15901 5.15901C4.73705 5.58097 4.5 6.15326 4.5 6.75V17.25C4.5 17.8467 4.73705 18.419 5.15901 18.841C5.58097 19.2629 6.15326 19.5 6.75 19.5H17.25C17.8467 19.5 18.419 19.2629 18.841 18.841C19.2629 18.419 19.5 17.8467 19.5 17.25V6.75C19.5 6.15326 19.2629 5.58097 18.841 5.15901C18.419 4.73705 17.8467 4.5 17.25 4.5H6.75Z" fill="black"/>
<path d="M6 3.075V2.5005C6 1.1205 7.119 0 8.5005 0H15.4995C16.8795 0 18 1.119 18 2.5005V3.075C17.7531 3.025 17.5019 2.99987 17.25 3H6.75C6.4935 3 6.243 3.0255 6 3.075ZM6 20.925C6.243 20.9745 6.4935 21 6.75 21H17.25C17.5065 21 17.757 20.9745 18 20.925V21.4995C18 22.8795 16.881 24 15.4995 24H8.5005C7.1205 24 6 22.881 6 21.4995V20.925Z" fill="black"/>
</svg>
