<svg width="24" height="24" viewBox="0 0 24 24" fill="none" xmlns="http://www.w3.org/2000/svg">
<path fill-rule="evenodd" clip-rule="evenodd" d="M4.5 4.5C4.69891 4.5 4.88968 4.57902 5.03033 4.71967C5.17098 4.86032 5.25 5.05109 5.25 5.25V20.25C5.25 20.4489 5.17098 20.6397 5.03033 20.7803C4.88968 20.921 4.69891 21 4.5 21C4.30109 21 4.11032 20.921 3.96967 20.7803C3.82902 20.6397 3.75 20.4489 3.75 20.25V5.25C3.75 5.05109 3.82902 4.86032 3.96967 4.71967C4.11032 4.57902 4.30109 4.5 4.5 4.5Z" fill="black"/>
<path fill-rule="evenodd" clip-rule="evenodd" d="M8.03195 16.719C8.10179 16.7887 8.15721 16.8714 8.19502 16.9626C8.23283 17.0537 8.25229 17.1513 8.25229 17.25C8.25229 17.3487 8.23283 17.4463 8.19502 17.5374C8.15721 17.6286 8.10179 17.7113 8.03195 17.781L5.03195 20.781C4.96228 20.8508 4.87952 20.9063 4.7884 20.9441C4.69728 20.9819 4.5996 21.0013 4.50095 21.0013C4.4023 21.0013 4.30461 20.9819 4.2135 20.9441C4.12238 20.9063 4.03962 20.8508 3.96995 20.781L0.969947 17.781C0.829117 17.6402 0.75 17.4492 0.75 17.25C0.75 17.0508 0.829117 16.8598 0.969947 16.719C1.11078 16.5782 1.30178 16.4991 1.50095 16.4991C1.70011 16.4991 1.89112 16.5782 2.03195 16.719L4.50095 19.1895L6.96995 16.719C7.03962 16.6492 7.12238 16.5937 7.2135 16.5559C7.30461 16.5181 7.4023 16.4987 7.50095 16.4987C7.5996 16.4987 7.69728 16.5181 7.7884 16.5559C7.87952 16.5937 7.96228 16.6492 8.03195 16.719ZM10.5009 9.75C10.5009 9.94891 10.58 10.1397 10.7206 10.2803C10.8613 10.421 11.052 10.5 11.2509 10.5H15.7509C15.9499 10.5 16.1406 10.421 16.2813 10.2803C16.4219 10.1397 16.5009 9.94891 16.5009 9.75C16.5009 9.55109 16.4219 9.36032 16.2813 9.21967C16.1406 9.07902 15.9499 9 15.7509 9H11.2509C11.052 9 10.8613 9.07902 10.7206 9.21967C10.58 9.36032 10.5009 9.55109 10.5009 9.75ZM10.5009 14.25C10.5009 14.4489 10.58 14.6397 10.7206 14.7803C10.8613 14.921 11.052 15 11.2509 15H18.7509C18.9499 15 19.1406 14.921 19.2813 14.7803C19.4219 14.6397 19.5009 14.4489 19.5009 14.25C19.5009 14.0511 19.4219 13.8603 19.2813 13.7197C19.1406 13.579 18.9499 13.5 18.7509 13.5H11.2509C11.052 13.5 10.8613 13.579 10.7206 13.7197C10.58 13.8603 10.5009 14.0511 10.5009 14.25ZM10.5009 18.75C10.5009 18.9489 10.58 19.1397 10.7206 19.2803C10.8613 19.421 11.052 19.5 11.2509 19.5H21.7509C21.9499 19.5 22.1406 19.421 22.2813 19.2803C22.4219 19.1397 22.5009 18.9489 22.5009 18.75C22.5009 18.5511 22.4219 18.3603 22.2813 18.2197C22.1406 18.079 21.9499 18 21.7509 18H11.2509C11.052 18 10.8613 18.079 10.7206 18.2197C10.58 18.3603 10.5009 18.5511 10.5009 18.75ZM10.5009 5.25C10.5009 5.44891 10.58 5.63968 10.7206 5.78033C10.8613 5.92098 11.052 6 11.2509 6H12.7509C12.9499 6 13.1406 5.92098 13.2813 5.78033C13.4219 5.63968 13.5009 5.44891 13.5009 5.25C13.5009 5.05109 13.4219 4.86032 13.2813 4.71967C13.1406 4.57902 12.9499 4.5 12.7509 4.5H11.2509C11.052 4.5 10.8613 4.57902 10.7206 4.71967C10.58 4.86032 10.5009 5.05109 10.5009 5.25Z" fill="black"/>
</svg>
