<svg width="24" height="24" viewBox="0 0 24 24" fill="none" xmlns="http://www.w3.org/2000/svg">
<path fill-rule="evenodd" clip-rule="evenodd" d="M6 3C6.19891 3 6.38968 3.07902 6.53033 3.21967C6.67098 3.36032 6.75 3.55109 6.75 3.75V20.25C6.75 20.4489 6.67098 20.6397 6.53033 20.7803C6.38968 20.921 6.19891 21 6 21C5.80109 21 5.61032 20.921 5.46967 20.7803C5.32902 20.6397 5.25 20.4489 5.25 20.25V3.75C5.25 3.55109 5.32902 3.36032 5.46967 3.21967C5.61032 3.07902 5.80109 3 6 3Z" fill="black"/>
<path fill-rule="evenodd" clip-rule="evenodd" d="M9.53195 16.7189C9.60179 16.7885 9.65721 16.8713 9.69502 16.9624C9.73283 17.0535 9.75229 17.1512 9.75229 17.2499C9.75229 17.3485 9.73283 17.4462 9.69502 17.5373C9.65721 17.6284 9.60179 17.7112 9.53195 17.7809L6.53195 20.7809C6.46228 20.8507 6.37952 20.9061 6.2884 20.9439C6.19728 20.9818 6.0996 21.0012 6.00095 21.0012C5.9023 21.0012 5.80461 20.9818 5.7135 20.9439C5.62238 20.9061 5.53962 20.8507 5.46995 20.7809L2.46995 17.7809C2.32912 17.64 2.25 17.449 2.25 17.2499C2.25 17.0507 2.32912 16.8597 2.46995 16.7189C2.61078 16.578 2.80178 16.4989 3.00095 16.4989C3.20011 16.4989 3.39112 16.578 3.53195 16.7189L6.00095 19.1894L8.46995 16.7189C8.53962 16.649 8.62238 16.5936 8.7135 16.5558C8.80462 16.518 8.9023 16.4985 9.00095 16.4985C9.0996 16.4985 9.19728 16.518 9.2884 16.5558C9.37952 16.5936 9.46228 16.649 9.53195 16.7189Z" fill="black"/>
<path d="M14.3966 8.73002C14.4776 9.66152 15.3341 10.647 17.0381 10.647C19.1711 10.647 20.2556 9.17702 20.2556 6.37502C20.2556 3.30002 18.7961 2.34302 17.1611 2.34302C15.4736 2.34302 14.2031 3.37502 14.2031 5.09702C14.2031 6.81452 15.4151 7.73402 16.7816 7.73402C17.8166 7.73402 18.4511 7.20752 18.6731 6.62102H18.7616C18.8081 8.16152 18.2981 9.40502 17.0621 9.40502C16.4171 9.40502 15.9896 9.06452 15.9026 8.73002H14.3966ZM18.5321 5.08502C18.5321 6.04052 17.8871 6.54452 17.1326 6.54452C16.3586 6.54452 15.7316 6.03452 15.7316 5.07452C15.7316 4.13702 16.3421 3.57452 17.1206 3.57452C17.9351 3.57452 18.5321 4.13702 18.5321 5.08652V5.08502ZM18.6566 21V13.002H17.0846L15.1916 14.361V15.8145L17.0066 14.5245H17.0846V21H18.6536H18.6566Z" fill="black"/>
</svg>
