<svg width="24" height="24" viewBox="0 0 24 24" fill="none" xmlns="http://www.w3.org/2000/svg">
<path fill-rule="evenodd" clip-rule="evenodd" d="M6 3C6.19891 3 6.38968 3.07902 6.53033 3.21967C6.67098 3.36032 6.75 3.55109 6.75 3.75V20.25C6.75 20.4489 6.67098 20.6397 6.53033 20.7803C6.38968 20.921 6.19891 21 6 21C5.80109 21 5.61032 20.921 5.46967 20.7803C5.32902 20.6397 5.25 20.4489 5.25 20.25V3.75C5.25 3.55109 5.32902 3.36032 5.46967 3.21967C5.61032 3.07902 5.80109 3 6 3Z" fill="black"/>
<path fill-rule="evenodd" clip-rule="evenodd" d="M9.53195 16.7189C9.60179 16.7885 9.65721 16.8713 9.69502 16.9624C9.73283 17.0535 9.75229 17.1512 9.75229 17.2499C9.75229 17.3485 9.73283 17.4462 9.69502 17.5373C9.65721 17.6284 9.60179 17.7112 9.53195 17.7809L6.53195 20.7809C6.46228 20.8507 6.37952 20.9061 6.2884 20.9439C6.19728 20.9818 6.0996 21.0012 6.00095 21.0012C5.9023 21.0012 5.80461 20.9818 5.7135 20.9439C5.62238 20.9061 5.53962 20.8507 5.46995 20.7809L2.46995 17.7809C2.32912 17.64 2.25 17.449 2.25 17.2499C2.25 17.0507 2.32912 16.8597 2.46995 16.7189C2.61078 16.578 2.80178 16.4989 3.00095 16.4989C3.20011 16.4989 3.39112 16.578 3.53195 16.7189L6.00095 19.1894L8.46995 16.7189C8.53962 16.649 8.62238 16.5936 8.7135 16.5558C8.80462 16.518 8.9023 16.4985 9.00095 16.4985C9.0996 16.4985 9.19728 16.518 9.2884 16.5558C9.37952 16.5936 9.46228 16.649 9.53195 16.7189Z" fill="black"/>
<path d="M13.5415 10.5H19.4425V9.19945H15.475V9.11695L19.3255 3.53845V2.50195H13.648V3.80245H17.4085V3.88495L13.5415 9.46345V10.5ZM14.497 21L15.124 18.9435H17.7955L18.4225 21H20.104L17.434 13.002H15.5815L12.8965 21H14.497ZM16.501 14.5305L17.479 17.766H15.4525L16.4305 14.532H16.501V14.5305Z" fill="black"/>
</svg>
