<svg width="24" height="24" viewBox="0 0 24 24" fill="none" xmlns="http://www.w3.org/2000/svg">
<path fill-rule="evenodd" clip-rule="evenodd" d="M12.3255 16.6019C14.1495 16.6019 15.2475 15.2984 15.2475 13.1369V12.0839C15.2475 9.92386 14.157 8.62636 12.354 8.62636C11.241 8.62636 10.362 9.14686 10.1055 9.95986H10.011V5.97437H8.076V16.4999H9.981V15.3134H10.077C10.392 16.1114 11.241 16.6034 12.3255 16.6034V16.6019ZM11.6805 15.0644C10.6905 15.0644 10.011 14.2874 10.011 13.1444V12.1799C10.011 10.9424 10.641 10.1654 11.658 10.1654C12.684 10.1654 13.2705 10.9424 13.2705 12.2894V12.9644C13.2705 14.2964 12.6915 15.0659 11.6805 15.0659V15.0644ZM3.306 16.6169C4.4565 16.6169 5.1075 16.0829 5.415 15.5114H5.5035V16.4999H7.3275V11.2784C7.3275 9.30736 5.907 8.60387 4.1625 8.60387C2.0325 8.60387 1.125 9.62986 1.035 10.9049H2.859C2.955 10.4204 3.3285 10.0769 4.119 10.0769C4.9095 10.0769 5.415 10.4504 5.415 11.2334V11.9294H3.519C1.7175 11.9294 0.75 12.8519 0.75 14.2439C0.75 15.7094 1.7895 16.6169 3.306 16.6169ZM3.936 15.1964C3.276 15.1964 2.6685 14.8439 2.6685 14.1194C2.6685 13.5269 3.072 13.0934 3.9285 13.0934H5.415V13.9004C5.415 14.6549 4.749 15.1964 3.936 15.1964ZM17.2815 16.0469C16.416 15.4469 15.9315 14.4149 15.9315 13.0724V12.0974C15.9315 9.96736 17.2725 8.59037 19.389 8.59037C21.417 8.59037 22.5675 9.82036 22.5975 11.2994H20.817C20.757 10.7729 20.3925 10.1354 19.44 10.1354C18.429 10.1354 17.8725 10.9109 17.8725 12.1274V13.0649C17.8725 13.7669 18.054 14.3159 18.387 14.6654L17.2815 16.0454V16.0469Z" fill="black"/>
<path fill-rule="evenodd" clip-rule="evenodd" d="M21.7023 14.1211C21.8178 14.2134 21.914 14.3276 21.9853 14.4571C22.0567 14.5867 22.1018 14.729 22.1181 14.876C22.1344 15.0229 22.1216 15.1717 22.0803 15.3137C22.0391 15.4557 21.9703 15.5882 21.8778 15.7036L15.8778 23.2036C15.7788 23.3271 15.655 23.4283 15.5143 23.5006C15.3736 23.573 15.2192 23.6149 15.0612 23.6235C14.9032 23.6321 14.7452 23.6073 14.5975 23.5508C14.4497 23.4942 14.3156 23.4071 14.2038 23.2951L10.4538 19.5451C10.3432 19.4421 10.2546 19.3179 10.1931 19.1799C10.1316 19.0419 10.0985 18.8929 10.0959 18.7419C10.0932 18.5908 10.121 18.4408 10.1776 18.3007C10.2342 18.1606 10.3184 18.0334 10.4252 17.9265C10.532 17.8197 10.6593 17.7355 10.7994 17.6789C10.9395 17.6223 11.0895 17.5946 11.2405 17.5972C11.3916 17.5999 11.5406 17.6329 11.6786 17.6944C11.8166 17.7559 11.9408 17.8446 12.0438 17.9551L14.9058 20.8156L20.1198 14.2966C20.2121 14.1811 20.3263 14.0849 20.4558 14.0135C20.5853 13.9422 20.7276 13.8971 20.8746 13.8808C21.0216 13.8645 21.1704 13.8773 21.3124 13.9185C21.4544 13.9598 21.5869 14.0286 21.7023 14.1211Z" fill="black"/>
</svg>
