<svg width="24" height="24" viewBox="0 0 24 24" fill="none" xmlns="http://www.w3.org/2000/svg">
<g clip-path="url(#clip0_1315_2548)">
<path fill-rule="evenodd" clip-rule="evenodd" d="M8.03389 7.6785L11.3099 1.188C11.3728 1.05743 11.4711 0.94715 11.5936 0.869714C11.7162 0.792279 11.858 0.7508 12.0029 0.75C12.2774 0.75 12.5519 0.8955 12.7004 1.188L15.9764 7.6785L23.3234 8.7225C23.5065 8.75129 23.6741 8.84237 23.7979 8.98036C23.9217 9.11836 23.9941 9.29483 24.0029 9.48C24.0131 9.60326 23.9955 9.72725 23.9514 9.84279C23.9073 9.95833 23.8377 10.0625 23.7479 10.1475L18.4634 15.1815L19.7084 22.2765C19.8254 22.941 19.1684 23.4615 18.5894 23.1645L12.0029 19.7805L5.41939 23.1645C5.35053 23.2003 5.27672 23.2256 5.20039 23.2395C4.68889 23.3295 4.19839 22.8585 4.30039 22.2765L5.54539 15.1815L0.262386 10.1475C0.180526 10.0697 0.115522 9.97585 0.0713999 9.87187C0.0272784 9.76789 0.00497981 9.65595 0.00588592 9.543C0.00627095 9.3834 0.0498076 9.22688 0.131886 9.09C0.190984 8.9911 0.271534 8.90674 0.367593 8.84313C0.463651 8.77953 0.572766 8.7383 0.686886 8.7225L8.03389 7.6785ZM12.0029 18.0405C12.1229 18.0405 12.2429 18.0675 12.3509 18.1245L17.8799 20.9655L16.8389 15.03C16.8144 14.8934 16.8238 14.7528 16.8665 14.6207C16.9091 14.4886 16.9836 14.369 17.0834 14.2725L21.4424 10.1175L15.3644 9.2535C15.2385 9.23449 15.1192 9.18526 15.0165 9.11003C14.9138 9.03479 14.8309 8.93579 14.7749 8.8215L12.0059 3.3345L12.0029 3.339V18.039V18.0405Z" fill="black"/>
</g>
<defs>
<clipPath id="clip0_1315_2548">
<rect width="24" height="24" fill="white"/>
</clipPath>
</defs>
</svg>
