<svg width="24" height="24" viewBox="0 0 24 24" fill="none" xmlns="http://www.w3.org/2000/svg">
<g clip-path="url(#clip0_1315_2550)">
<path fill-rule="evenodd" clip-rule="evenodd" d="M4.29698 22.2749C4.17998 22.9409 4.83698 23.4614 5.41598 23.1644L12.001 19.7804L18.5845 23.1644C19.1635 23.4614 19.8205 22.9409 19.7035 22.2764L18.4585 15.1814L23.743 10.1474C24.2365 9.67638 23.98 8.81538 23.3185 8.72238L15.9715 7.67838L12.6955 1.18788C12.6331 1.05632 12.5346 0.945159 12.4115 0.867323C12.2885 0.789487 12.1458 0.748169 12.0002 0.748169C11.8546 0.748169 11.712 0.789487 11.5889 0.867323C11.4658 0.945159 11.3674 1.05632 11.305 1.18788L8.02898 7.67988L0.68198 8.72388C0.0204801 8.81688 -0.23602 9.67788 0.25748 10.1489L5.54198 15.1829L4.29698 22.2779V22.2749ZM11.6545 18.1244L6.12548 20.9654L7.16648 15.0299C7.19087 14.8933 7.18133 14.7527 7.13869 14.6206C7.09606 14.4886 7.02164 14.369 6.92198 14.2724L2.56298 10.1174L8.64098 9.25338C8.76684 9.23438 8.88621 9.18515 8.98888 9.10991C9.09155 9.03467 9.17445 8.93567 9.23048 8.82138L12.001 3.33438L14.77 8.82138C14.826 8.93567 14.9089 9.03467 15.0116 9.10991C15.1142 9.18515 15.2336 9.23438 15.3595 9.25338L21.4375 10.1159L17.0785 14.2709C16.9785 14.3675 16.9038 14.4874 16.8612 14.6198C16.8186 14.7522 16.8092 14.893 16.834 15.0299L17.875 20.9654L12.346 18.1244C12.2391 18.0693 12.1205 18.0405 12.0002 18.0405C11.8799 18.0405 11.7614 18.0693 11.6545 18.1244Z" fill="black"/>
</g>
<defs>
<clipPath id="clip0_1315_2550">
<rect width="24" height="24" fill="white"/>
</clipPath>
</defs>
</svg>
