<svg width="24" height="24" viewBox="0 0 24 24" fill="none" xmlns="http://www.w3.org/2000/svg">
<path fill-rule="evenodd" clip-rule="evenodd" d="M1.5 3.75C1.5 3.15326 1.73705 2.58097 2.15901 2.15901C2.58097 1.73705 3.15326 1.5 3.75 1.5H20.25C20.8467 1.5 21.419 1.73705 21.841 2.15901C22.2629 2.58097 22.5 3.15326 22.5 3.75V12.879C22.4995 13.4755 22.2621 14.0474 21.84 14.469L14.469 21.8415C14.0472 22.263 13.4753 22.4999 12.879 22.5H3.75C3.15326 22.5 2.58097 22.2629 2.15901 21.841C1.73705 21.419 1.5 20.8467 1.5 20.25V3.75ZM3.75 3C3.55109 3 3.36032 3.07902 3.21967 3.21967C3.07902 3.36032 3 3.55109 3 3.75V20.25C3 20.4489 3.07902 20.6397 3.21967 20.7803C3.36032 20.921 3.55109 21 3.75 21H12.879C13.0775 21 13.2679 20.9212 13.4085 20.781L20.781 13.4085C20.9212 13.2679 21 13.0775 21 12.879V3.75C21 3.55109 20.921 3.36032 20.7803 3.21967C20.6397 3.07902 20.4489 3 20.25 3H3.75Z" fill="black"/>
<path fill-rule="evenodd" clip-rule="evenodd" d="M14.25 13.5C14.0511 13.5 13.8603 13.579 13.7197 13.7197C13.579 13.8603 13.5 14.0511 13.5 14.25V21.75H12V14.25C12 13.6533 12.2371 13.081 12.659 12.659C13.081 12.2371 13.6533 12 14.25 12H21.75V13.5H14.25Z" fill="black"/>
</svg>
