<svg width="24" height="24" viewBox="0 0 24 24" fill="none" xmlns="http://www.w3.org/2000/svg">
<g clip-path="url(#clip0_1315_2586)">
<path fill-rule="evenodd" clip-rule="evenodd" d="M11.9989 1.5C10.706 1.5 9.46599 2.01361 8.55175 2.92785C7.63751 3.84209 7.1239 5.08207 7.1239 6.375C7.1239 6.654 7.1239 6.81 7.1479 6.99C7.1689 7.17 7.2154 7.395 7.3279 7.7805L7.6129 8.778L6.5749 8.736C5.74717 8.7017 4.92436 8.87891 4.18413 9.25089C3.4439 9.62286 2.81068 10.1773 2.34423 10.862C1.87779 11.5466 1.59351 12.3388 1.51824 13.1639C1.44296 13.9889 1.57917 14.8194 1.91401 15.5772C2.24885 16.335 2.77127 16.9949 3.43195 17.4947C4.09264 17.9945 4.86979 18.3177 5.69006 18.4337C6.51032 18.5498 7.34663 18.4549 8.12005 18.1581C8.89346 17.8612 9.57847 17.3721 10.1104 16.737C10.2255 16.5975 10.3871 16.5043 10.5655 16.4746C10.7439 16.4449 10.927 16.4806 11.0812 16.5752C11.2353 16.6698 11.35 16.8169 11.4043 16.9894C11.4585 17.1619 11.4486 17.3482 11.3764 17.514L11.3719 17.5215L11.3629 17.544L11.3269 17.6265C11.1186 18.0915 10.8996 18.5517 10.6699 19.0065C10.0997 20.14 9.46567 21.2403 8.7709 22.302C8.7514 22.329 8.7409 22.377 8.7724 22.437C8.7874 22.467 8.8039 22.482 8.8174 22.491C8.82671 22.4972 8.83772 22.5003 8.8489 22.5H15.1489C15.1639 22.5 15.1729 22.497 15.1819 22.491C15.2006 22.4774 15.2155 22.4594 15.2254 22.4385C15.2554 22.3785 15.2464 22.329 15.2269 22.302C14.255 20.8121 13.4004 19.2489 12.6709 17.6265L12.6349 17.5455L12.6259 17.523L12.6229 17.517C12.5522 17.3524 12.5427 17.168 12.5961 16.997C12.6496 16.8261 12.7624 16.6799 12.9143 16.5849C13.0662 16.4899 13.247 16.4525 13.4241 16.4793C13.6012 16.5061 13.7629 16.5954 13.8799 16.731C14.7814 17.781 16.1539 18.483 17.6239 18.483C18.2692 18.4773 18.907 18.3435 19.5002 18.0895C20.0935 17.8354 20.6303 17.4661 21.0797 17.0029C21.5291 16.5397 21.8821 15.9919 22.1181 15.3913C22.3542 14.7907 22.4686 14.1491 22.4548 13.5039C22.441 12.8587 22.2992 12.2227 22.0377 11.6327C21.7762 11.0427 21.4001 10.5105 20.9314 10.067C20.4626 9.62345 19.9104 9.27741 19.3068 9.04894C18.7033 8.82046 18.0604 8.71409 17.4154 8.736L16.3669 8.781L16.6654 7.7745C16.8754 7.0695 16.8754 6.657 16.8739 6.384V6.375C16.8739 5.08207 16.3603 3.84209 15.446 2.92785C14.5318 2.01361 13.2918 1.5 11.9989 1.5ZM15.3094 19.536C15.6469 20.1435 16.0399 20.808 16.4794 21.477C17.1544 22.5 16.4614 24 15.1489 24H8.8489C7.5349 24 6.8419 22.5 7.5184 21.4755C7.9549 20.8125 8.3464 20.1555 8.6824 19.551C7.83712 19.8782 6.93178 20.0215 6.02676 19.9711C5.12175 19.9208 4.23788 19.678 3.43412 19.259C2.63035 18.8401 1.92517 18.2545 1.36562 17.5414C0.806064 16.8284 0.405004 16.0042 0.189192 15.1238C-0.0266192 14.2435 -0.0522201 13.3272 0.114098 12.4362C0.280415 11.5452 0.634827 10.6999 1.15369 9.95666C1.67255 9.21346 2.34394 8.58944 3.12306 8.12624C3.90217 7.66303 4.77111 7.3713 5.6719 7.2705C5.66703 7.23855 5.66253 7.20655 5.6584 7.1745C5.6239 6.894 5.6239 6.6525 5.6239 6.3945V6.375C5.6239 4.68425 6.29555 3.06274 7.49109 1.86719C8.68663 0.67165 10.3081 0 11.9989 0C13.6897 0 15.3112 0.67165 16.5067 1.86719C17.7022 3.06274 18.3739 4.68425 18.3739 6.375C18.3739 6.585 18.3739 6.8745 18.3139 7.269C19.938 7.4423 21.4336 8.23234 22.4922 9.47613C23.5508 10.7199 24.0916 12.3226 24.0031 13.9535C23.9146 15.5844 23.2035 17.1191 22.0165 18.241C20.8295 19.3629 19.2572 19.9865 17.6239 19.983C16.8311 19.9815 16.0458 19.8298 15.3094 19.536Z" fill="black"/>
</g>
<defs>
<clipPath id="clip0_1315_2586">
<rect width="24" height="24" fill="white"/>
</clipPath>
</defs>
</svg>
