<svg width="24" height="24" viewBox="0 0 24 24" fill="none" xmlns="http://www.w3.org/2000/svg">
<path d="M5.25 12C5.25 10.2098 5.96116 8.4929 7.22703 7.22703C8.4929 5.96116 10.2098 5.25 12 5.25C13.7902 5.25 15.5071 5.96116 16.773 7.22703C18.0388 8.4929 18.75 10.2098 18.75 12C18.75 13.7902 18.0388 15.5071 16.773 16.773C15.5071 18.0388 13.7902 18.75 12 18.75C10.2098 18.75 8.4929 18.0388 7.22703 16.773C5.96116 15.5071 5.25 13.7902 5.25 12Z" fill="black"/>
<path fill-rule="evenodd" clip-rule="evenodd" d="M12.3033 0.419926C12.2685 0.372198 12.2229 0.333366 12.1702 0.306595C12.1176 0.279823 12.0593 0.265869 12.0003 0.265869C11.9412 0.265869 11.883 0.279823 11.8303 0.306595C11.7776 0.333366 11.7321 0.372198 11.6973 0.419926L10.3323 2.30243C10.2769 2.37941 10.1945 2.43257 10.1015 2.45121C10.0086 2.46986 9.91201 2.45261 9.83126 2.40293L7.84826 1.18493C7.79777 1.15392 7.74065 1.13532 7.68158 1.13064C7.62251 1.12597 7.56318 1.13537 7.50844 1.15805C7.45371 1.18074 7.40512 1.21607 7.36668 1.26115C7.32823 1.30624 7.30101 1.35979 7.28726 1.41743L6.74726 3.67943C6.72569 3.77152 6.67012 3.85206 6.59168 3.90492C6.51323 3.95777 6.41771 3.97902 6.32426 3.96443L4.02626 3.59693C3.96782 3.58768 3.90802 3.59239 3.85174 3.61068C3.79547 3.62897 3.74433 3.66031 3.70249 3.70215C3.66065 3.74399 3.6293 3.79514 3.61101 3.85141C3.59273 3.90768 3.58801 3.96748 3.59726 4.02593L3.96326 6.32393C3.97792 6.41717 3.95687 6.51251 3.90432 6.59092C3.85177 6.66933 3.77158 6.72504 3.67976 6.74693L1.41626 7.28693C1.35876 7.30087 1.30537 7.32822 1.26046 7.36674C1.21555 7.40527 1.18039 7.45387 1.15786 7.50859C1.13534 7.5633 1.12607 7.62257 1.13084 7.68154C1.1356 7.74052 1.15425 7.79754 1.18526 7.84793L2.40326 9.83093C2.4525 9.91154 2.4695 10.0078 2.45087 10.1004C2.43224 10.193 2.37934 10.2751 2.30276 10.3304L0.418761 11.6954C0.37074 11.7302 0.331646 11.7759 0.304687 11.8287C0.277728 11.8815 0.263672 11.9399 0.263672 11.9992C0.263672 12.0585 0.277728 12.1169 0.304687 12.1697C0.331646 12.2225 0.37074 12.2682 0.418761 12.3029L2.30276 13.6679C2.37974 13.7233 2.4329 13.8057 2.45155 13.8987C2.4702 13.9916 2.45294 14.0882 2.40326 14.1689L1.18526 16.1519C1.15425 16.2023 1.1356 16.2593 1.13084 16.3183C1.12607 16.3773 1.13534 16.4366 1.15786 16.4913C1.18039 16.546 1.21555 16.5946 1.26046 16.6331C1.30537 16.6716 1.35876 16.699 1.41626 16.7129L3.68126 17.2529C3.7728 17.2751 3.85263 17.331 3.90488 17.4093C3.95713 17.4877 3.97797 17.5829 3.96326 17.6759L3.59726 19.9739C3.58801 20.0324 3.59273 20.0922 3.61101 20.1484C3.6293 20.2047 3.66065 20.2559 3.70249 20.2977C3.74433 20.3395 3.79547 20.3709 3.85174 20.3892C3.90802 20.4075 3.96782 20.4122 4.02626 20.4029L6.32426 20.0369C6.41751 20.0223 6.51285 20.0433 6.59126 20.0959C6.66967 20.1484 6.72537 20.2286 6.74726 20.3204L7.28726 22.5824C7.30101 22.6401 7.32823 22.6936 7.36668 22.7387C7.40512 22.7838 7.45371 22.8191 7.50844 22.8418C7.56318 22.8645 7.62251 22.8739 7.68158 22.8692C7.74065 22.8645 7.79777 22.8459 7.84826 22.8149L9.83126 21.5969C9.91187 21.5477 10.0081 21.5307 10.1007 21.5493C10.1933 21.568 10.2755 21.6208 10.3308 21.6974L11.6958 23.5814C11.7305 23.6294 11.7762 23.6685 11.829 23.6955C11.8818 23.7225 11.9402 23.7365 11.9995 23.7365C12.0588 23.7365 12.1172 23.7225 12.17 23.6955C12.2228 23.6685 12.2685 23.6294 12.3033 23.5814L13.6683 21.6974C13.7236 21.6204 13.806 21.5673 13.899 21.5486C13.9919 21.53 14.0885 21.5472 14.1693 21.5969L16.1523 22.8149C16.2028 22.8459 16.2599 22.8645 16.3189 22.8692C16.378 22.8739 16.4373 22.8645 16.4921 22.8418C16.5468 22.8191 16.5954 22.7838 16.6338 22.7387C16.6723 22.6936 16.6995 22.6401 16.7133 22.5824L17.2533 20.3204C17.2748 20.2283 17.3304 20.1478 17.4088 20.0949C17.4873 20.0421 17.5828 20.0208 17.6763 20.0354L19.9743 20.4029C20.0327 20.4122 20.0925 20.4075 20.1488 20.3892C20.205 20.3709 20.2562 20.3395 20.298 20.2977C20.3399 20.2559 20.3712 20.2047 20.3895 20.1484C20.4078 20.0922 20.4125 20.0324 20.4033 19.9739L20.0373 17.6759C20.0226 17.5827 20.0437 17.4873 20.0962 17.4089C20.1488 17.3305 20.2289 17.2748 20.3208 17.2529L22.5828 16.7129C22.6404 16.6992 22.6939 16.672 22.739 16.6335C22.7841 16.5951 22.8195 16.5465 22.8421 16.4917C22.8648 16.437 22.8742 16.3777 22.8695 16.3186C22.8649 16.2595 22.8463 16.2024 22.8153 16.1519L21.5973 14.1689C21.548 14.0883 21.531 13.9921 21.5497 13.8995C21.5683 13.8069 21.6212 13.7247 21.6978 13.6694L23.5818 12.3044C23.6298 12.2697 23.6689 12.224 23.6958 12.1712C23.7228 12.1184 23.7368 12.06 23.7368 12.0007C23.7368 11.9414 23.7228 11.883 23.6958 11.8302C23.6689 11.7773 23.6298 11.7317 23.5818 11.6969L21.6978 10.3319C21.6208 10.2766 21.5676 10.1941 21.549 10.1012C21.5303 10.0082 21.5476 9.91167 21.5973 9.83093L22.8153 7.84793C22.8463 7.79744 22.8649 7.74032 22.8695 7.68125C22.8742 7.62218 22.8648 7.56285 22.8421 7.50811C22.8195 7.45337 22.7841 7.40479 22.739 7.36634C22.6939 7.3279 22.6404 7.30068 22.5828 7.28693L20.3208 6.74693C20.2287 6.72536 20.1481 6.66979 20.0953 6.59134C20.0424 6.5129 20.0212 6.41738 20.0358 6.32393L20.4033 4.02593C20.4125 3.96748 20.4078 3.90768 20.3895 3.85141C20.3712 3.79514 20.3399 3.74399 20.298 3.70215C20.2562 3.66031 20.205 3.62897 20.1488 3.61068C20.0925 3.59239 20.0327 3.58768 19.9743 3.59693L17.6763 3.96293C17.583 3.97758 17.4877 3.95653 17.4093 3.90398C17.3309 3.85143 17.2751 3.77124 17.2533 3.67943L16.7133 1.41743C16.6995 1.35979 16.6723 1.30624 16.6338 1.26115C16.5954 1.21607 16.5468 1.18074 16.4921 1.15805C16.4373 1.13537 16.378 1.12597 16.3189 1.13064C16.2599 1.13532 16.2028 1.15392 16.1523 1.18493L14.1693 2.40293C14.0886 2.45216 13.9924 2.46917 13.8998 2.45053C13.8072 2.4319 13.7251 2.37901 13.6698 2.30243L12.3048 0.419926H12.3033ZM12.0003 3.74993C9.81222 3.74993 7.71381 4.61912 6.16663 6.1663C4.61945 7.71347 3.75026 9.81189 3.75026 11.9999C3.75026 14.188 4.61945 16.2864 6.16663 17.8336C7.71381 19.3807 9.81222 20.2499 12.0003 20.2499C14.1883 20.2499 16.2867 19.3807 17.8339 17.8336C19.3811 16.2864 20.2503 14.188 20.2503 11.9999C20.2503 9.81189 19.3811 7.71347 17.8339 6.1663C16.2867 4.61912 14.1883 3.74993 12.0003 3.74993Z" fill="black"/>
</svg>
