<svg width="24" height="24" viewBox="0 0 24 24" fill="none" xmlns="http://www.w3.org/2000/svg">
<g clip-path="url(#clip0_1315_2650)">
<path fill-rule="evenodd" clip-rule="evenodd" d="M5.46999 1.9853C5.38144 1.8714 5.26966 1.77763 5.14209 1.71024C5.01452 1.64285 4.87407 1.60337 4.73007 1.59444C4.58606 1.5855 4.44181 1.6073 4.30688 1.6584C4.17196 1.7095 4.04944 1.78872 3.94749 1.8908L2.39649 3.4433C1.67199 4.1693 1.40499 5.1968 1.72149 6.0983C3.0351 9.82969 5.17193 13.2174 7.97349 16.0103C10.7664 18.8118 14.1541 20.9486 17.8855 22.2623C18.787 22.5788 19.8145 22.3118 20.5405 21.5873L22.0915 20.0363C22.1936 19.9343 22.2728 19.8118 22.3239 19.6769C22.375 19.542 22.3968 19.3977 22.3879 19.2537C22.3789 19.1097 22.3394 18.9693 22.2721 18.8417C22.2047 18.7141 22.1109 18.6024 21.997 18.5138L18.5365 15.8228C18.4148 15.7284 18.2733 15.6629 18.1225 15.6312C17.9718 15.5995 17.8159 15.6024 17.6665 15.6398L14.3815 16.4603C13.943 16.5699 13.4836 16.5641 13.0481 16.4434C12.6125 16.3228 12.2156 16.0914 11.896 15.7718L8.21199 12.0863C7.89214 11.7669 7.66048 11.37 7.53956 10.9345C7.41864 10.4989 7.41258 10.0394 7.52199 9.6008L8.34399 6.3158C8.38135 6.1664 8.38429 6.01046 8.35259 5.85975C8.32089 5.70904 8.25537 5.5675 8.16099 5.4458L5.46999 1.9853ZM2.81499 0.759804C3.07748 0.497228 3.39283 0.293499 3.7401 0.162146C4.08736 0.0307919 4.4586 -0.0251811 4.82916 -0.00205668C5.19972 0.0210677 5.56112 0.12276 5.88936 0.296269C6.2176 0.469777 6.50518 0.711131 6.73299 1.0043L9.42399 4.4633C9.91749 5.0978 10.0915 5.9243 9.89649 6.7043L9.07599 9.9893C9.03357 10.1594 9.03586 10.3377 9.08264 10.5067C9.12942 10.6757 9.21911 10.8297 9.34299 10.9538L13.0285 14.6393C13.1527 14.7634 13.307 14.8533 13.4763 14.9001C13.6456 14.9468 13.8241 14.949 13.9945 14.9063L17.278 14.0858C17.6629 13.9896 18.0647 13.9821 18.4529 14.0639C18.8411 14.1458 19.2057 14.3148 19.519 14.5583L22.978 17.2493C24.2215 18.2168 24.3355 20.0543 23.2225 21.1658L21.6715 22.7168C20.5615 23.8268 18.9025 24.3143 17.356 23.7698C13.3978 22.3771 9.8039 20.1111 6.84099 17.1398C3.86992 14.1773 1.6039 10.584 0.210988 6.6263C-0.332012 5.0813 0.155488 3.4208 1.26549 2.3108L2.81649 0.759804H2.81499ZM18.739 1.4933C18.9379 1.4933 19.1287 1.57232 19.2693 1.71297C19.41 1.85363 19.489 2.04439 19.489 2.2433V4.4933H21.739C21.9379 4.4933 22.1287 4.57232 22.2693 4.71297C22.41 4.85363 22.489 5.04439 22.489 5.2433C22.489 5.44222 22.41 5.63298 22.2693 5.77363C22.1287 5.91429 21.9379 5.9933 21.739 5.9933H19.489V8.2433C19.489 8.44222 19.41 8.63298 19.2693 8.77363C19.1287 8.91429 18.9379 8.9933 18.739 8.9933C18.5401 8.9933 18.3493 8.91429 18.2087 8.77363C18.068 8.63298 17.989 8.44222 17.989 8.2433V5.9933H15.739C15.5401 5.9933 15.3493 5.91429 15.2087 5.77363C15.068 5.63298 14.989 5.44222 14.989 5.2433C14.989 5.04439 15.068 4.85363 15.2087 4.71297C15.3493 4.57232 15.5401 4.4933 15.739 4.4933H17.989V2.2433C17.989 2.04439 18.068 1.85363 18.2087 1.71297C18.3493 1.57232 18.5401 1.4933 18.739 1.4933Z" fill="black"/>
</g>
<defs>
<clipPath id="clip0_1315_2650">
<rect width="24" height="24" fill="white"/>
</clipPath>
</defs>
</svg>
