<svg width="24" height="24" viewBox="0 0 24 24" fill="none" xmlns="http://www.w3.org/2000/svg">
<path fill-rule="evenodd" clip-rule="evenodd" d="M3.40131 1.46996C3.64731 1.22393 3.94281 1.03302 4.26821 0.9099C4.59362 0.786778 4.94148 0.734255 5.28873 0.755816C5.63598 0.777377 5.97467 0.872529 6.28234 1.03496C6.59002 1.19739 6.85963 1.42339 7.07331 1.69796L9.59481 4.94096C10.0583 5.53496 10.2218 6.31046 10.0388 7.04096L9.26931 10.1205C9.22929 10.2803 9.23133 10.4477 9.27523 10.6065C9.31913 10.7652 9.40339 10.9099 9.51981 11.0265L12.9758 14.481C13.0923 14.5974 13.237 14.6816 13.3958 14.7255C13.5546 14.7694 13.722 14.7715 13.8818 14.7315L16.9598 13.962C17.3208 13.8718 17.6976 13.8649 18.0617 13.9418C18.4258 14.0188 18.7676 14.1775 19.0613 14.406L22.3043 16.9275C23.4698 17.8335 23.5778 19.557 22.5338 20.5995L21.0788 22.0545C20.0393 23.094 18.4838 23.5515 17.0333 23.0415C13.3229 21.7355 9.95414 19.611 7.17681 16.8255C4.39077 14.0483 2.26573 10.6795 0.959309 6.96896C0.449309 5.51846 0.906809 3.96296 1.94631 2.92196L3.40131 1.46846V1.46996Z" fill="black"/>
</svg>
