<svg width="24" height="24" viewBox="0 0 24 24" fill="none" xmlns="http://www.w3.org/2000/svg">
<g clip-path="url(#clip0_1315_2646)">
<path fill-rule="evenodd" clip-rule="evenodd" d="M5.46999 1.9853C5.38144 1.8714 5.26966 1.77763 5.14209 1.71024C5.01452 1.64285 4.87407 1.60337 4.73007 1.59444C4.58606 1.5855 4.44181 1.6073 4.30688 1.6584C4.17196 1.7095 4.04944 1.78872 3.94749 1.8908L2.39649 3.4433C1.67199 4.1693 1.40499 5.1968 1.72149 6.0983C3.0351 9.82969 5.17193 13.2174 7.97349 16.0103C10.7664 18.8118 14.1541 20.9486 17.8855 22.2623C18.787 22.5788 19.8145 22.3118 20.5405 21.5873L22.0915 20.0363C22.1936 19.9343 22.2728 19.8118 22.3239 19.6769C22.375 19.542 22.3968 19.3977 22.3879 19.2537C22.3789 19.1097 22.3394 18.9693 22.2721 18.8417C22.2047 18.7141 22.1109 18.6024 21.997 18.5138L18.5365 15.8228C18.4148 15.7284 18.2733 15.6629 18.1225 15.6312C17.9718 15.5995 17.8159 15.6024 17.6665 15.6398L14.3815 16.4603C13.943 16.5699 13.4836 16.5641 13.0481 16.4434C12.6125 16.3228 12.2156 16.0914 11.896 15.7718L8.21199 12.0863C7.89214 11.7669 7.66048 11.37 7.53956 10.9345C7.41864 10.4989 7.41258 10.0394 7.52199 9.6008L8.34399 6.3158C8.38135 6.1664 8.38429 6.01046 8.35259 5.85975C8.32089 5.70904 8.25537 5.5675 8.16099 5.4458L5.46999 1.9853ZM2.81499 0.759804C3.07748 0.497228 3.39283 0.293499 3.7401 0.162146C4.08736 0.0307919 4.4586 -0.0251811 4.82916 -0.00205668C5.19972 0.0210677 5.56112 0.12276 5.88936 0.296269C6.2176 0.469777 6.50518 0.711131 6.73299 1.0043L9.42399 4.4633C9.91749 5.0978 10.0915 5.9243 9.89649 6.7043L9.07599 9.9893C9.03357 10.1594 9.03586 10.3377 9.08264 10.5067C9.12942 10.6757 9.21911 10.8297 9.34299 10.9538L13.0285 14.6393C13.1527 14.7634 13.307 14.8533 13.4763 14.9001C13.6456 14.9468 13.8241 14.949 13.9945 14.9063L17.278 14.0858C17.6629 13.9896 18.0647 13.9821 18.4529 14.0639C18.8411 14.1458 19.2057 14.3148 19.519 14.5583L22.978 17.2493C24.2215 18.2168 24.3355 20.0543 23.2225 21.1658L21.6715 22.7168C20.5615 23.8268 18.9025 24.3143 17.356 23.7698C13.3978 22.3771 9.8039 20.1111 6.84099 17.1398C3.86992 14.1773 1.6039 10.584 0.210988 6.6263C-0.332012 5.0813 0.155488 3.4208 1.26549 2.3108L2.81649 0.759804H2.81499ZM16.489 0.743304C16.489 0.544391 16.568 0.353626 16.7087 0.212974C16.8493 0.0723214 17.0401 -0.00669627 17.239 -0.00669627H23.239C23.4379 -0.00669627 23.6287 0.0723214 23.7693 0.212974C23.91 0.353626 23.989 0.544391 23.989 0.743304V6.7433C23.989 6.94222 23.91 7.13298 23.7693 7.27363C23.6287 7.41429 23.4379 7.4933 23.239 7.4933C23.0401 7.4933 22.8493 7.41429 22.7087 7.27363C22.568 7.13298 22.489 6.94222 22.489 6.7433V2.5538L16.27 8.7743C16.1292 8.91513 15.9382 8.99425 15.739 8.99425C15.5398 8.99425 15.3488 8.91513 15.208 8.7743C15.0672 8.63347 14.988 8.44247 14.988 8.2433C14.988 8.04414 15.0672 7.85313 15.208 7.7123L21.4285 1.4933H17.239C17.0401 1.4933 16.8493 1.41429 16.7087 1.27363C16.568 1.13298 16.489 0.942216 16.489 0.743304Z" fill="black"/>
</g>
<defs>
<clipPath id="clip0_1315_2646">
<rect width="24" height="24" fill="white"/>
</clipPath>
</defs>
</svg>
