<svg width="24" height="24" viewBox="0 0 24 24" fill="none" xmlns="http://www.w3.org/2000/svg">
<g clip-path="url(#clip0_1315_2648)">
<path fill-rule="evenodd" clip-rule="evenodd" d="M2.81649 0.785212C3.07895 0.523145 3.39411 0.319849 3.74108 0.188797C4.08806 0.0577446 4.45892 0.00192809 4.8291 0.0250464C5.19927 0.0481647 5.56031 0.14969 5.88828 0.322894C6.21625 0.496098 6.50367 0.737026 6.73149 1.02971L9.42399 4.48871C9.91749 5.12321 10.0915 5.94971 9.89649 6.72971L9.07599 10.0147C9.03357 10.1849 9.03586 10.3631 9.08264 10.5321C9.12942 10.7011 9.21911 10.8551 9.34299 10.9792L13.0285 14.6647C13.1527 14.7888 13.307 14.8787 13.4763 14.9255C13.6456 14.9723 13.8241 14.9744 13.9945 14.9317L17.278 14.1112C17.6629 14.015 18.0647 14.0075 18.4529 14.0894C18.8411 14.1712 19.2057 14.3403 19.519 14.5837L22.978 17.2747C24.2215 18.2422 24.3355 20.0797 23.2225 21.1912L21.6715 22.7422C20.5615 23.8522 18.9025 24.3397 17.356 23.7952C13.3978 22.4025 9.8039 20.1365 6.84099 17.1652C3.86992 14.2027 1.6039 10.6094 0.210988 6.65171C-0.332012 5.10671 0.155488 3.44621 1.26549 2.33621L2.81649 0.785212ZM18.739 1.51871C18.9379 1.51871 19.1287 1.59773 19.2693 1.73838C19.41 1.87903 19.489 2.0698 19.489 2.26871V4.51871H21.739C21.9379 4.51871 22.1287 4.59773 22.2693 4.73838C22.41 4.87903 22.489 5.0698 22.489 5.26871C22.489 5.46762 22.41 5.65839 22.2693 5.79904C22.1287 5.93969 21.9379 6.01871 21.739 6.01871H19.489V8.26871C19.489 8.46762 19.41 8.65839 19.2693 8.79904C19.1287 8.9397 18.9379 9.01871 18.739 9.01871C18.5401 9.01871 18.3493 8.9397 18.2087 8.79904C18.068 8.65839 17.989 8.46762 17.989 8.26871V6.01871H15.739C15.5401 6.01871 15.3493 5.93969 15.2087 5.79904C15.068 5.65839 14.989 5.46762 14.989 5.26871C14.989 5.0698 15.068 4.87903 15.2087 4.73838C15.3493 4.59773 15.5401 4.51871 15.739 4.51871H17.989V2.26871C17.989 2.0698 18.068 1.87903 18.2087 1.73838C18.3493 1.59773 18.5401 1.51871 18.739 1.51871Z" fill="black"/>
</g>
<defs>
<clipPath id="clip0_1315_2648">
<rect width="24" height="24" fill="white"/>
</clipPath>
</defs>
</svg>
