<svg width="24" height="24" viewBox="0 0 24 24" fill="none" xmlns="http://www.w3.org/2000/svg">
<g clip-path="url(#clip0_1315_2634)">
<path fill-rule="evenodd" clip-rule="evenodd" d="M5.46999 1.98548C5.38144 1.87157 5.26966 1.7778 5.14209 1.71041C5.01452 1.64302 4.87407 1.60355 4.73007 1.59461C4.58606 1.58567 4.44181 1.60748 4.30688 1.65857C4.17196 1.70967 4.04944 1.78889 3.94749 1.89098L2.39649 3.44348C1.67199 4.16948 1.40499 5.19698 1.72149 6.09848C3.0351 9.82986 5.17193 13.2176 7.97349 16.0105C10.7664 18.812 14.1541 20.9488 17.8855 22.2625C18.787 22.579 19.8145 22.312 20.5405 21.5875L22.0915 20.0365C22.1936 19.9345 22.2728 19.812 22.3239 19.6771C22.375 19.5422 22.3968 19.3979 22.3879 19.2539C22.3789 19.1099 22.3394 18.9694 22.2721 18.8419C22.2047 18.7143 22.1109 18.6025 21.997 18.514L18.5365 15.823C18.4148 15.7286 18.2733 15.6631 18.1225 15.6314C17.9718 15.5997 17.8159 15.6026 17.6665 15.64L14.3815 16.4605C13.943 16.5701 13.4836 16.5643 13.0481 16.4436C12.6125 16.3229 12.2156 16.0916 11.896 15.772L8.21199 12.0865C7.89214 11.767 7.66048 11.3702 7.53956 10.9346C7.41864 10.4991 7.41258 10.0396 7.52199 9.60098L8.34399 6.31598C8.38135 6.16657 8.38429 6.01063 8.35259 5.85992C8.32089 5.70921 8.25537 5.56767 8.16099 5.44598L5.46999 1.98548ZM2.81499 0.759977C3.07748 0.497401 3.39283 0.293672 3.7401 0.162319C4.08736 0.030965 4.4586 -0.025008 4.82916 -0.00188358C5.19972 0.0212408 5.56112 0.122934 5.88936 0.296442C6.2176 0.46995 6.50518 0.711304 6.73299 1.00448L9.42399 4.46348C9.91749 5.09798 10.0915 5.92448 9.89649 6.70448L9.07599 9.98948C9.03357 10.1596 9.03586 10.3378 9.08264 10.5068C9.12942 10.6758 9.21911 10.8299 9.34299 10.954L13.0285 14.6395C13.1527 14.7636 13.307 14.8534 13.4763 14.9002C13.6456 14.947 13.8241 14.9492 13.9945 14.9065L17.278 14.086C17.6629 13.9897 18.0647 13.9823 18.4529 14.0641C18.8411 14.146 19.2057 14.315 19.519 14.5585L22.978 17.2495C24.2215 18.217 24.3355 20.0545 23.2225 21.166L21.6715 22.717C20.5615 23.827 18.9025 24.3145 17.356 23.77C13.3978 22.3773 9.8039 20.1112 6.84099 17.14C3.86992 14.1775 1.6039 10.5842 0.210988 6.62648C-0.332012 5.08148 0.155488 3.42098 1.26549 2.31098L2.81649 0.759977H2.81499ZM18.958 0.962477C19.0277 0.892632 19.1104 0.837218 19.2015 0.799408C19.2927 0.761598 19.3903 0.742136 19.489 0.742136C19.5876 0.742136 19.6853 0.761598 19.7764 0.799408C19.8676 0.837218 19.9503 0.892632 20.02 0.962477L23.77 4.71248C23.8398 4.78215 23.8952 4.86491 23.9331 4.95603C23.9709 5.04714 23.9903 5.14483 23.9903 5.24348C23.9903 5.34213 23.9709 5.43981 23.9331 5.53093C23.8952 5.62205 23.8398 5.70481 23.77 5.77448L20.02 9.52448C19.8792 9.66531 19.6882 9.74442 19.489 9.74442C19.2898 9.74442 19.0988 9.66531 18.958 9.52448C18.8172 9.38365 18.738 9.19264 18.738 8.99348C18.738 8.79431 18.8172 8.60331 18.958 8.46248L21.4285 5.99348H14.239C14.0401 5.99348 13.8493 5.91446 13.7087 5.77381C13.568 5.63315 13.489 5.44239 13.489 5.24348C13.489 5.04456 13.568 4.8538 13.7087 4.71315C13.8493 4.57249 14.0401 4.49348 14.239 4.49348H21.4285L18.958 2.02448C18.8881 1.95481 18.8327 1.87204 18.7949 1.78093C18.7571 1.68981 18.7376 1.59213 18.7376 1.49348C18.7376 1.39483 18.7571 1.29714 18.7949 1.20603C18.8327 1.11491 18.8881 1.03215 18.958 0.962477Z" fill="black"/>
</g>
<defs>
<clipPath id="clip0_1315_2634">
<rect width="24" height="24" fill="white"/>
</clipPath>
</defs>
</svg>
