<svg width="24" height="24" viewBox="0 0 24 24" fill="none" xmlns="http://www.w3.org/2000/svg">
<g clip-path="url(#clip0_1315_2632)">
<path fill-rule="evenodd" clip-rule="evenodd" d="M2.81649 0.785039C3.07895 0.522972 3.39411 0.319676 3.74108 0.188623C4.08806 0.057571 4.45892 0.00175452 4.8291 0.0248728C5.19927 0.0479912 5.56031 0.149516 5.88828 0.322721C6.21625 0.495925 6.50367 0.736853 6.73149 1.02954L9.42399 4.48854C9.91749 5.12304 10.0915 5.94954 9.89649 6.72954L9.07599 10.0145C9.03357 10.1847 9.03586 10.3629 9.08264 10.5319C9.12942 10.7009 9.21911 10.8549 9.34299 10.979L13.0285 14.6645C13.1527 14.7887 13.307 14.8785 13.4763 14.9253C13.6456 14.9721 13.8241 14.9742 13.9945 14.9315L17.278 14.111C17.6629 14.0148 18.0647 14.0073 18.4529 14.0892C18.8411 14.171 19.2057 14.3401 19.519 14.5835L22.978 17.2745C24.2215 18.242 24.3355 20.0795 23.2225 21.191L21.6715 22.742C20.5615 23.852 18.9025 24.3395 17.356 23.795C13.3978 22.4023 9.8039 20.1363 6.84099 17.165C3.86992 14.2026 1.6039 10.6092 0.210988 6.65154C-0.332012 5.10654 0.155488 3.44604 1.26549 2.33604L2.81649 0.785039ZM18.958 0.987539C19.0277 0.917694 19.1104 0.862279 19.2015 0.82447C19.2927 0.78666 19.3903 0.767198 19.489 0.767198C19.5876 0.767198 19.6853 0.78666 19.7764 0.82447C19.8676 0.862279 19.9503 0.917694 20.02 0.987539L23.77 4.73754C23.8398 4.80721 23.8952 4.88997 23.9331 4.98109C23.9709 5.07221 23.9903 5.16989 23.9903 5.26854C23.9903 5.36719 23.9709 5.46487 23.9331 5.55599C23.8952 5.64711 23.8398 5.72987 23.77 5.79954L20.02 9.54954C19.8792 9.69037 19.6882 9.76949 19.489 9.76949C19.2898 9.76949 19.0988 9.69037 18.958 9.54954C18.8172 9.40871 18.738 9.2177 18.738 9.01854C18.738 8.81938 18.8172 8.62837 18.958 8.48754L21.4285 6.01854H14.239C14.0401 6.01854 13.8493 5.93952 13.7087 5.79887C13.568 5.65822 13.489 5.46745 13.489 5.26854C13.489 5.06963 13.568 4.87886 13.7087 4.73821C13.8493 4.59756 14.0401 4.51854 14.239 4.51854H21.4285L18.958 2.04954C18.8881 1.97987 18.8327 1.89711 18.7949 1.80599C18.7571 1.71487 18.7376 1.61719 18.7376 1.51854C18.7376 1.41989 18.7571 1.32221 18.7949 1.23109C18.8327 1.13997 18.8881 1.05721 18.958 0.987539Z" fill="black"/>
</g>
<defs>
<clipPath id="clip0_1315_2632">
<rect width="24" height="24" fill="white"/>
</clipPath>
</defs>
</svg>
