<svg width="24" height="24" viewBox="0 0 24 24" fill="none" xmlns="http://www.w3.org/2000/svg">
<g clip-path="url(#clip0_1315_2638)">
<path fill-rule="evenodd" clip-rule="evenodd" d="M23.77 0.198916C23.8398 0.268585 23.8952 0.351348 23.9331 0.442466C23.9709 0.533584 23.9903 0.631265 23.9903 0.729916C23.9903 0.828567 23.9709 0.926249 23.9331 1.01737C23.8952 1.10848 23.8398 1.19125 23.77 1.26092L17.5495 7.47992H21.739C21.9379 7.47992 22.1287 7.55893 22.2693 7.69959C22.41 7.84024 22.489 8.031 22.489 8.22992C22.489 8.42883 22.41 8.61959 22.2693 8.76025C22.1287 8.9009 21.9379 8.97992 21.739 8.97992H15.739C15.5401 8.97992 15.3493 8.9009 15.2087 8.76025C15.068 8.61959 14.989 8.42883 14.989 8.22992V2.22992C14.989 2.031 15.068 1.84024 15.2087 1.69959C15.3493 1.55893 15.5401 1.47992 15.739 1.47992C15.9379 1.47992 16.1287 1.55893 16.2693 1.69959C16.41 1.84024 16.489 2.031 16.489 2.22992V6.41942L22.708 0.198916C22.7777 0.129072 22.8604 0.0736573 22.9515 0.0358476C23.0427 -0.00196209 23.1403 -0.0214243 23.239 -0.0214243C23.3376 -0.0214243 23.4353 -0.00196209 23.5264 0.0358476C23.6176 0.0736573 23.7003 0.129072 23.77 0.198916ZM5.46999 1.97192C5.38144 1.85801 5.26966 1.76424 5.14209 1.69685C5.01452 1.62946 4.87407 1.58999 4.73007 1.58105C4.58606 1.57211 4.44181 1.59392 4.30688 1.64501C4.17196 1.69611 4.04944 1.77533 3.94749 1.87742L2.39649 3.42992C1.67199 4.15592 1.40499 5.18342 1.72149 6.08492C3.0351 9.8163 5.17193 13.2041 7.97349 15.9969C10.7664 18.7984 14.1541 20.9353 17.8855 22.2489C18.787 22.5654 19.8145 22.2984 20.5405 21.5739L22.0915 20.0229C22.1936 19.921 22.2728 19.7984 22.3239 19.6635C22.375 19.5286 22.3968 19.3843 22.3879 19.2403C22.3789 19.0963 22.3394 18.9559 22.2721 18.8283C22.2047 18.7007 22.1109 18.589 21.997 18.5004L18.5365 15.8094C18.4148 15.715 18.2733 15.6495 18.1225 15.6178C17.9718 15.5861 17.8159 15.5891 17.6665 15.6264L14.3815 16.4469C13.943 16.5565 13.4836 16.5507 13.0481 16.43C12.6125 16.3094 12.2156 16.078 11.896 15.7584L8.21199 12.0729C7.89214 11.7535 7.66048 11.3566 7.53956 10.9211C7.41864 10.4855 7.41258 10.026 7.52199 9.58742L8.34399 6.30242C8.38135 6.15301 8.38429 5.99707 8.35259 5.84636C8.32089 5.69565 8.25537 5.55411 8.16099 5.43242L5.46999 1.97192ZM2.81499 0.746416C3.07748 0.483841 3.39283 0.280112 3.7401 0.148758C4.08736 0.0174045 4.4586 -0.0385685 4.82916 -0.015444C5.19972 0.0076804 5.56112 0.109373 5.88936 0.282881C6.2176 0.45639 6.50518 0.697744 6.73299 0.990916L9.42399 4.44992C9.91749 5.08442 10.0915 5.91092 9.89649 6.69092L9.07599 9.97592C9.03357 10.1461 9.03586 10.3243 9.08264 10.4933C9.12942 10.6623 9.21911 10.8163 9.34299 10.9404L13.0285 14.6259C13.1527 14.75 13.307 14.8399 13.4763 14.8867C13.6456 14.9335 13.8241 14.9356 13.9945 14.8929L17.278 14.0724C17.6629 13.9762 18.0647 13.9687 18.4529 14.0506C18.8411 14.1324 19.2057 14.3015 19.519 14.5449L22.978 17.2359C24.2215 18.2034 24.3355 20.0409 23.2225 21.1524L21.6715 22.7034C20.5615 23.8134 18.9025 24.3009 17.356 23.7564C13.3978 22.3637 9.8039 20.0977 6.84099 17.1264C3.86992 14.1639 1.6039 10.5706 0.210988 6.61292C-0.332012 5.06792 0.155488 3.40742 1.26549 2.29742L2.81649 0.746416H2.81499Z" fill="black"/>
</g>
<defs>
<clipPath id="clip0_1315_2638">
<rect width="24" height="24" fill="white"/>
</clipPath>
</defs>
</svg>
