<svg width="24" height="24" viewBox="0 0 24 24" fill="none" xmlns="http://www.w3.org/2000/svg">
<g clip-path="url(#clip0_1315_2660)">
<path fill-rule="evenodd" clip-rule="evenodd" d="M21 3H3C2.60218 3 2.22064 3.15804 1.93934 3.43934C1.65804 3.72064 1.5 4.10218 1.5 4.5V19.5C1.5 19.8978 1.65804 20.2794 1.93934 20.5607C2.22064 20.842 2.60218 21 3 21H21C21.3978 21 21.7794 20.842 22.0607 20.5607C22.342 20.2794 22.5 19.8978 22.5 19.5V4.5C22.5 4.10218 22.342 3.72064 22.0607 3.43934C21.7794 3.15804 21.3978 3 21 3ZM3 1.5C2.20435 1.5 1.44129 1.81607 0.87868 2.37868C0.316071 2.94129 0 3.70435 0 4.5L0 19.5C0 20.2956 0.316071 21.0587 0.87868 21.6213C1.44129 22.1839 2.20435 22.5 3 22.5H21C21.7956 22.5 22.5587 22.1839 23.1213 21.6213C23.6839 21.0587 24 20.2956 24 19.5V4.5C24 3.70435 23.6839 2.94129 23.1213 2.37868C22.5587 1.81607 21.7956 1.5 21 1.5H3Z" fill="black"/>
<path fill-rule="evenodd" clip-rule="evenodd" d="M9.00134 13.4999C9.00134 13.301 9.08036 13.1102 9.22101 12.9695C9.36166 12.8289 9.55243 12.7499 9.75134 12.7499H14.2513C14.4503 12.7499 14.641 12.8289 14.7817 12.9695C14.9223 13.1102 15.0013 13.301 15.0013 13.4999C15.0013 13.6988 14.9223 13.8896 14.7817 14.0302C14.641 14.1709 14.4503 14.2499 14.2513 14.2499H9.75134C9.55243 14.2499 9.36166 14.1709 9.22101 14.0302C9.08036 13.8896 9.00134 13.6988 9.00134 13.4999ZM4.72034 6.21888C4.79001 6.14903 4.87277 6.09362 4.96389 6.05581C5.05501 6.018 5.15269 5.99854 5.25134 5.99854C5.34999 5.99854 5.44767 6.018 5.53879 6.05581C5.62991 6.09362 5.71267 6.14903 5.78234 6.21888L8.78234 9.21888C8.85219 9.28855 8.9076 9.37131 8.94541 9.46243C8.98322 9.55355 9.00268 9.65123 9.00268 9.74988C9.00268 9.84853 8.98322 9.94621 8.94541 10.0373C8.9076 10.1284 8.85219 10.2112 8.78234 10.2809L5.78234 13.2809C5.64151 13.4217 5.4505 13.5008 5.25134 13.5008C5.05218 13.5008 4.86117 13.4217 4.72034 13.2809C4.57951 13.14 4.50039 12.949 4.50039 12.7499C4.50039 12.5507 4.57951 12.3597 4.72034 12.2189L7.19084 9.74988L4.72034 7.28088C4.6505 7.21121 4.59508 7.12845 4.55727 7.03733C4.51946 6.94621 4.5 6.84853 4.5 6.74988C4.5 6.65123 4.51946 6.55355 4.55727 6.46243C4.59508 6.37131 4.6505 6.28855 4.72034 6.21888Z" fill="black"/>
</g>
<defs>
<clipPath id="clip0_1315_2660">
<rect width="24" height="24" fill="white"/>
</clipPath>
</defs>
</svg>
