<svg width="24" height="24" viewBox="0 0 24 24" fill="none" xmlns="http://www.w3.org/2000/svg">
<g clip-path="url(#clip0_1315_2680)">
<path fill-rule="evenodd" clip-rule="evenodd" d="M2.2471 3.75C2.2471 3.15326 2.48415 2.58097 2.90611 2.15901C3.32807 1.73705 3.90036 1.5 4.4971 1.5H19.4971C20.0938 1.5 20.6661 1.73705 21.0881 2.15901C21.51 2.58097 21.7471 3.15326 21.7471 3.75V9.0945C22.3917 9.26025 22.963 9.63567 23.3708 10.1617C23.7787 10.6877 24.0001 11.3344 24.0001 12C24.0001 12.6656 23.7787 13.3123 23.3708 13.8383C22.963 14.3643 22.3917 14.7398 21.7471 14.9055V20.25C21.7471 20.8467 21.51 21.419 21.0881 21.841C20.6661 22.2629 20.0938 22.5 19.4971 22.5H4.4971C3.90036 22.5 3.32807 22.2629 2.90611 21.841C2.48415 21.419 2.2471 20.8467 2.2471 20.25V14.9055C1.60246 14.7398 1.03124 14.3643 0.623368 13.8383C0.215499 13.3123 -0.00585938 12.6656 -0.00585938 12C-0.00585938 11.3344 0.215499 10.6877 0.623368 10.1617C1.03124 9.63567 1.60246 9.26025 2.2471 9.0945V3.75ZM3.7471 9.0945C4.39174 9.26025 4.96296 9.63567 5.37083 10.1617C5.7787 10.6877 6.00006 11.3344 6.00006 12C6.00006 12.6656 5.7787 13.3123 5.37083 13.8383C4.96296 14.3643 4.39174 14.7398 3.7471 14.9055V20.25C3.7471 20.4489 3.82612 20.6397 3.96677 20.7803C4.10742 20.921 4.29819 21 4.4971 21H19.4971C19.696 21 19.8868 20.921 20.0274 20.7803C20.1681 20.6397 20.2471 20.4489 20.2471 20.25V14.9055C19.6025 14.7398 19.0312 14.3643 18.6234 13.8383C18.2155 13.3123 17.9941 12.6656 17.9941 12C17.9941 11.3344 18.2155 10.6877 18.6234 10.1617C19.0312 9.63567 19.6025 9.26025 20.2471 9.0945V3.75C20.2471 3.55109 20.1681 3.36032 20.0274 3.21967C19.8868 3.07902 19.696 3 19.4971 3H4.4971C4.29819 3 4.10742 3.07902 3.96677 3.21967C3.82612 3.36032 3.7471 3.55109 3.7471 3.75V9.0945ZM2.9971 10.5C2.59928 10.5 2.21774 10.658 1.93644 10.9393C1.65514 11.2206 1.4971 11.6022 1.4971 12C1.4971 12.3978 1.65514 12.7794 1.93644 13.0607C2.21774 13.342 2.59928 13.5 2.9971 13.5C3.39492 13.5 3.77646 13.342 4.05776 13.0607C4.33906 12.7794 4.4971 12.3978 4.4971 12C4.4971 11.6022 4.33906 11.2206 4.05776 10.9393C3.77646 10.658 3.39492 10.5 2.9971 10.5ZM20.9971 10.5C20.5993 10.5 20.2177 10.658 19.9364 10.9393C19.6551 11.2206 19.4971 11.6022 19.4971 12C19.4971 12.3978 19.6551 12.7794 19.9364 13.0607C20.2177 13.342 20.5993 13.5 20.9971 13.5C21.3949 13.5 21.7765 13.342 22.0578 13.0607C22.3391 12.7794 22.4971 12.3978 22.4971 12C22.4971 11.6022 22.3391 11.2206 22.0578 10.9393C21.7765 10.658 21.3949 10.5 20.9971 10.5Z" fill="black"/>
</g>
<defs>
<clipPath id="clip0_1315_2680">
<rect width="24" height="24" fill="white"/>
</clipPath>
</defs>
</svg>
