<svg width="24" height="24" viewBox="0 0 24 24" fill="none" xmlns="http://www.w3.org/2000/svg">
<path d="M3.05273 4.83765L5.57873 19.9936C5.69556 20.6941 6.05708 21.3305 6.599 21.7894C7.14091 22.2484 7.82808 22.5002 8.53823 22.5001H15.4562C16.1664 22.5002 16.8536 22.2484 17.3955 21.7894C17.9374 21.3305 18.2989 20.6941 18.4157 19.9936L20.9417 4.83765C20.4377 6.33615 16.6247 7.50015 11.9972 7.50015C7.36823 7.50015 3.55673 6.33615 3.05273 4.83765Z" fill="black"/>
<path fill-rule="evenodd" clip-rule="evenodd" d="M19.35 4.5C19.08 4.29 18.6045 4.0395 17.889 3.801C16.4505 3.321 14.37 3 12 3C9.63 3 7.548 3.3225 6.111 3.801C5.3955 4.041 4.9185 4.2915 4.6485 4.5C4.9185 4.71 5.3955 4.9605 6.111 5.199C7.548 5.679 9.63 6 12 6C14.37 6 16.4505 5.6775 17.889 5.199C18.6045 4.959 19.0815 4.7085 19.3515 4.5H19.35ZM12 7.5C16.971 7.5 21 6.1575 21 4.5C21 2.8425 16.971 1.5 12 1.5C7.029 1.5 3 2.8425 3 4.5C3 6.1575 7.029 7.5 12 7.5Z" fill="black"/>
</svg>
