<svg width="24" height="24" viewBox="0 0 24 24" fill="none" xmlns="http://www.w3.org/2000/svg">
<path fill-rule="evenodd" clip-rule="evenodd" d="M4.77 6L7.062 19.746C7.12023 20.0963 7.30082 20.4145 7.57163 20.6441C7.84245 20.8737 8.18594 20.9998 8.541 21H15.459C15.8141 20.9998 16.1575 20.8737 16.4284 20.6441C16.6992 20.4145 16.8798 20.0963 16.938 19.746L19.23 6H4.77ZM5.5815 19.9935C5.69832 20.694 6.05985 21.3303 6.60176 21.7893C7.14368 22.2482 7.83084 22.5001 8.541 22.5H15.459C16.1692 22.5001 16.8563 22.2482 17.3982 21.7893C17.9402 21.3303 18.3017 20.694 18.4185 19.9935L21 4.5H3L5.5815 19.9935Z" fill="black"/>
<path d="M21 4.5C21 6.1575 16.971 7.5 12 7.5C7.029 7.5 3 6.1575 3 4.5C3 2.8425 7.029 1.5 12 1.5C16.971 1.5 21 2.8425 21 4.5Z" fill="black"/>
<path fill-rule="evenodd" clip-rule="evenodd" d="M19.35 4.5C19.08 4.29 18.6045 4.0395 17.889 3.801C16.4505 3.321 14.37 3 12 3C9.63 3 7.548 3.3225 6.111 3.801C5.3955 4.041 4.9185 4.2915 4.6485 4.5C4.9185 4.71 5.3955 4.9605 6.111 5.199C7.548 5.679 9.63 6 12 6C14.37 6 16.4505 5.6775 17.889 5.199C18.6045 4.959 19.0815 4.7085 19.3515 4.5H19.35ZM12 7.5C16.971 7.5 21 6.1575 21 4.5C21 2.8425 16.971 1.5 12 1.5C7.029 1.5 3 2.8425 3 4.5C3 6.1575 7.029 7.5 12 7.5Z" fill="black"/>
</svg>
