<svg width="24" height="24" viewBox="0 0 24 24" fill="none" xmlns="http://www.w3.org/2000/svg">
<path fill-rule="evenodd" clip-rule="evenodd" d="M12 0C12.1235 6.38256e-05 12.2451 0.0306303 12.3539 0.0889844C12.4628 0.147339 12.5555 0.231674 12.624 0.3345L17.124 7.0845C17.1991 7.19744 17.2422 7.32865 17.2487 7.46416C17.2552 7.59967 17.2248 7.7344 17.1608 7.854C17.0968 7.9736 17.0015 8.07359 16.8851 8.14333C16.7687 8.21306 16.6356 8.24993 16.5 8.25H16.353L19.386 13.1025C19.4569 13.216 19.4962 13.3465 19.4997 13.4803C19.5032 13.6141 19.4709 13.7465 19.406 13.8636C19.3411 13.9807 19.246 14.0783 19.1306 14.1462C19.0153 14.2142 18.8839 14.25 18.75 14.25H18.4635L20.9205 19.164C20.9778 19.2783 21.0049 19.4054 20.9992 19.5332C20.9936 19.661 20.9553 19.7852 20.8881 19.894C20.8209 20.0028 20.727 20.0927 20.6153 20.155C20.5036 20.2173 20.3779 20.25 20.25 20.25H3.74998C3.62208 20.25 3.49631 20.2173 3.38462 20.155C3.27292 20.0927 3.17902 20.0028 3.11183 19.894C3.04464 19.7852 3.0064 19.661 3.00074 19.5332C2.99507 19.4054 3.02218 19.2783 3.07948 19.164L5.53498 14.25H5.24998C5.1161 14.25 4.98466 14.2142 4.86931 14.1462C4.75395 14.0783 4.65889 13.9807 4.59399 13.8636C4.52909 13.7465 4.49672 13.6141 4.50023 13.4803C4.50375 13.3465 4.54302 13.216 4.61398 13.1025L7.64698 8.25H7.49998C7.36431 8.24993 7.23121 8.21306 7.11484 8.14333C6.99847 8.07359 6.9032 7.9736 6.83916 7.854C6.77513 7.7344 6.74474 7.59967 6.75122 7.46416C6.7577 7.32865 6.80082 7.19744 6.87598 7.0845L11.376 0.3345C11.4444 0.231674 11.5372 0.147339 11.646 0.0889844C11.7549 0.0306303 11.8765 6.38256e-05 12 0V0ZM8.90098 6.75H8.99998C9.13385 6.75 9.26529 6.78584 9.38064 6.85379C9.496 6.92174 9.59106 7.01933 9.65596 7.13642C9.72086 7.25352 9.75323 7.38585 9.74972 7.51969C9.7462 7.65352 9.70693 7.78397 9.63597 7.8975L6.60297 12.75H6.74997C6.87787 12.75 7.00364 12.7827 7.11533 12.845C7.22703 12.9073 7.32093 12.9972 7.38812 13.106C7.45531 13.2148 7.49355 13.339 7.49921 13.4668C7.50488 13.5946 7.47777 13.7217 7.42048 13.836L4.96498 18.75H19.038L16.581 13.836C16.5237 13.7218 16.4966 13.5948 16.5022 13.4672C16.5078 13.3395 16.5459 13.2154 16.6129 13.1066C16.68 12.9978 16.7736 12.908 16.8851 12.8456C16.9966 12.7832 17.1222 12.7503 17.25 12.75H17.397L14.364 7.8975C14.293 7.78397 14.2537 7.65352 14.2502 7.51969C14.2467 7.38585 14.2791 7.25352 14.344 7.13642C14.4089 7.01933 14.504 6.92174 14.6193 6.85379C14.7347 6.78584 14.8661 6.75 15 6.75H15.099L12 2.1015L8.90098 6.75Z" fill="black"/>
<path d="M10.5 20.25H13.5V24H10.5V20.25Z" fill="black"/>
</svg>
