<svg width="24" height="24" viewBox="0 0 24 24" fill="none" xmlns="http://www.w3.org/2000/svg">
<g clip-path="url(#clip0_1315_2735)">
<path fill-rule="evenodd" clip-rule="evenodd" d="M11.9066 3.02393C11.8723 3.0445 11.8442 3.07407 11.8256 3.10943L1.54005 20.6099C1.51443 20.651 1.5006 20.6983 1.50007 20.7468C1.49954 20.7952 1.51233 20.8428 1.53705 20.8844C1.56105 20.9294 1.59255 20.9594 1.61805 20.9744C1.64055 20.9894 1.66905 20.9999 1.71705 20.9999H22.2866C22.3213 21.0012 22.3557 20.9923 22.3856 20.9744C22.4202 20.9519 22.4486 20.9209 22.4681 20.8844C22.4925 20.8427 22.5051 20.795 22.5043 20.7465C22.5035 20.6981 22.4894 20.6509 22.4636 20.6099L12.1796 3.10943C12.1609 3.07407 12.1329 3.0445 12.0986 3.02393C12.0691 3.00781 12.0361 2.99954 12.0026 2.99993C11.969 2.99954 11.936 3.00781 11.9066 3.02393ZM13.4726 2.34893C13.3241 2.09027 13.11 1.87538 12.8519 1.72594C12.5938 1.5765 12.3008 1.4978 12.0026 1.4978C11.7043 1.4978 11.4113 1.5765 11.1532 1.72594C10.8951 1.87538 10.681 2.09027 10.5326 2.34893L0.247053 19.8494C-0.438447 21.0164 0.383553 22.4999 1.71705 22.4999H22.2866C23.6201 22.4999 24.4436 21.0149 23.7566 19.8494L13.4726 2.34893Z" fill="black"/>
</g>
<defs>
<clipPath id="clip0_1315_2735">
<rect width="24" height="24" fill="white"/>
</clipPath>
</defs>
</svg>
