<svg width="24" height="24" viewBox="0 0 24 24" fill="none" xmlns="http://www.w3.org/2000/svg">
<path d="M11.457 19.5V5.50354H9.57V11.43H2.6385V5.50504H0.75V19.5H2.637V13.092H9.567V19.5H11.4555H11.457ZM15.99 9.40054V9.32854C15.99 7.99504 16.935 6.82654 18.564 6.82654C19.9995 6.82654 21.0765 7.73854 21.0765 9.18454C21.0765 10.467 20.2455 11.4405 19.476 12.312L14.2065 18.3105V19.5H23.25V17.859H16.8825V17.7465L20.604 13.4805C21.9165 11.9835 22.983 10.8045 22.983 9.05104C22.983 6.85654 21.2505 5.21704 18.6045 5.21704C15.693 5.21704 14.1555 7.20604 14.1555 9.32704V9.40054H15.99Z" fill="black"/>
</svg>
