<svg width="24" height="24" viewBox="0 0 24 24" fill="none" xmlns="http://www.w3.org/2000/svg">
<path d="M12.3161 19.5003C15.4751 19.5003 17.4341 17.8698 17.4341 15.2658C17.4341 13.3068 15.9581 11.8413 13.9481 11.6868V11.6043C14.7179 11.4884 15.4209 11.1013 15.9303 10.5126C16.4397 9.92403 16.7219 9.17275 16.7261 8.39433C16.7261 6.12933 14.9831 4.70433 12.2051 4.70433H5.76562V19.5003H12.3161ZM8.86312 7.01133H11.4071C12.8516 7.01133 13.6826 7.68783 13.6826 8.87733C13.6826 10.1283 12.7391 10.8573 11.0876 10.8573H8.86312V7.00983V7.01133ZM8.86312 17.1933V12.8973H11.4581C13.2836 12.8973 14.2781 13.6353 14.2781 15.0198C14.2781 16.4343 13.3136 17.1933 11.5301 17.1933H8.86162H8.86312Z" fill="black"/>
</svg>
