<svg width="24" height="24" viewBox="0 0 24 24" fill="none" xmlns="http://www.w3.org/2000/svg">
<path d="M0.75 13.5C0.75 12.7044 1.06607 11.9413 1.62868 11.3787C2.19129 10.8161 2.95435 10.5 3.75 10.5H14.25C15.0456 10.5 15.8087 10.8161 16.3713 11.3787C16.9339 11.9413 17.25 12.7044 17.25 13.5V21C17.25 21.7956 16.9339 22.5587 16.3713 23.1213C15.8087 23.6839 15.0456 24 14.25 24H3.75C2.95435 24 2.19129 23.6839 1.62868 23.1213C1.06607 22.5587 0.75 21.7956 0.75 21V13.5Z" fill="black"/>
<path fill-rule="evenodd" clip-rule="evenodd" d="M12.75 6C12.75 5.31056 12.8858 4.62787 13.1496 3.99091C13.4135 3.35395 13.8002 2.7752 14.2877 2.28769C14.7752 1.80018 15.354 1.41347 15.9909 1.14963C16.6279 0.885795 17.3106 0.75 18 0.75C18.6894 0.75 19.3721 0.885795 20.0091 1.14963C20.646 1.41347 21.2248 1.80018 21.7123 2.28769C22.1998 2.7752 22.5865 3.35395 22.8504 3.99091C23.1142 4.62787 23.25 5.31056 23.25 6V10.5H21.75V6C21.75 5.00544 21.3549 4.05161 20.6517 3.34835C19.9484 2.64509 18.9946 2.25 18 2.25C17.0054 2.25 16.0516 2.64509 15.3483 3.34835C14.6451 4.05161 14.25 5.00544 14.25 6V10.5H12.75V6Z" fill="black"/>
</svg>
