<svg width="24" height="24" viewBox="0 0 24 24" fill="none" xmlns="http://www.w3.org/2000/svg">
<path fill-rule="evenodd" clip-rule="evenodd" d="M0.75 14.8499C0.948912 14.8499 1.13968 14.9289 1.28033 15.0695C1.42098 15.2102 1.5 15.4009 1.5 15.5999V19.3499C1.5 19.7477 1.65804 20.1292 1.93934 20.4105C2.22064 20.6918 2.60218 20.8499 3 20.8499H21C21.3978 20.8499 21.7794 20.6918 22.0607 20.4105C22.342 20.1292 22.5 19.7477 22.5 19.3499V15.5999C22.5 15.4009 22.579 15.2102 22.7197 15.0695C22.8603 14.9289 23.0511 14.8499 23.25 14.8499C23.4489 14.8499 23.6397 14.9289 23.7803 15.0695C23.921 15.2102 24 15.4009 24 15.5999V19.3499C24 20.1455 23.6839 20.9086 23.1213 21.4712C22.5587 22.0338 21.7956 22.3499 21 22.3499H3C2.20435 22.3499 1.44129 22.0338 0.87868 21.4712C0.316071 20.9086 0 20.1455 0 19.3499V15.5999C0 15.4009 0.0790176 15.2102 0.21967 15.0695C0.360322 14.9289 0.551088 14.8499 0.75 14.8499Z" fill="black"/>
<path fill-rule="evenodd" clip-rule="evenodd" d="M11.4699 1.71888C11.5396 1.64903 11.6224 1.59362 11.7135 1.55581C11.8046 1.518 11.9023 1.49854 12.0009 1.49854C12.0996 1.49854 12.1973 1.518 12.2884 1.55581C12.3795 1.59362 12.4623 1.64903 12.5319 1.71888L17.0319 6.21888C17.1728 6.35971 17.2519 6.55071 17.2519 6.74988C17.2519 6.94904 17.1728 7.14005 17.0319 7.28088C16.8911 7.42171 16.7001 7.50082 16.5009 7.50082C16.3018 7.50082 16.1108 7.42171 15.9699 7.28088L12.7509 4.06038V17.2499C12.7509 17.4488 12.6719 17.6396 12.5313 17.7802C12.3906 17.9209 12.1999 17.9999 12.0009 17.9999C11.802 17.9999 11.6113 17.9209 11.4706 17.7802C11.33 17.6396 11.2509 17.4488 11.2509 17.2499V4.06038L8.03195 7.28088C7.96222 7.35061 7.87943 7.40592 7.78832 7.44366C7.69721 7.4814 7.59956 7.50082 7.50095 7.50082C7.40233 7.50082 7.30468 7.4814 7.21357 7.44366C7.12246 7.40592 7.03968 7.35061 6.96995 7.28088C6.90022 7.21114 6.8449 7.12836 6.80716 7.03725C6.76942 6.94614 6.75 6.84849 6.75 6.74988C6.75 6.65126 6.76942 6.55361 6.80716 6.4625C6.8449 6.37139 6.90022 6.28861 6.96995 6.21888L11.4699 1.71888Z" fill="black"/>
</svg>
