<svg width="24" height="24" viewBox="0 0 24 24" fill="none" xmlns="http://www.w3.org/2000/svg">
<path fill-rule="evenodd" clip-rule="evenodd" d="M10.0755 5.3249C10.2026 5.38612 10.3098 5.48192 10.3849 5.60132C10.46 5.72071 10.4999 5.85886 10.5 5.9999V17.9999C10.4998 18.141 10.4598 18.2792 10.3846 18.3986C10.3093 18.518 10.2019 18.6138 10.0747 18.6749C9.9475 18.736 9.80562 18.76 9.6654 18.744C9.52517 18.7281 9.39228 18.673 9.282 18.5849L5.7375 15.7499H2.25C2.05109 15.7499 1.86032 15.6709 1.71967 15.5302C1.57902 15.3896 1.5 15.1988 1.5 14.9999V8.9999C1.5 8.80099 1.57902 8.61023 1.71967 8.46957C1.86032 8.32892 2.05109 8.2499 2.25 8.2499H5.7375L9.282 5.4149C9.39236 5.32669 9.52539 5.27143 9.66578 5.25551C9.80616 5.23959 9.94819 5.26364 10.0755 5.3249ZM20.781 8.4689C20.8508 8.53857 20.9063 8.62134 20.9441 8.71245C20.9819 8.80357 21.0013 8.90125 21.0013 8.9999C21.0013 9.09856 20.9819 9.19624 20.9441 9.28735C20.9063 9.37847 20.8508 9.46124 20.781 9.5309L14.781 15.5309C14.6402 15.6717 14.4492 15.7509 14.25 15.7509C14.0508 15.7509 13.8598 15.6717 13.719 15.5309C13.5782 15.3901 13.4991 15.1991 13.4991 14.9999C13.4991 14.8007 13.5782 14.6097 13.719 14.4689L19.719 8.4689C19.7887 8.39906 19.8714 8.34364 19.9626 8.30584C20.0537 8.26803 20.1513 8.24856 20.25 8.24856C20.3487 8.24856 20.4463 8.26803 20.5374 8.30584C20.6286 8.34364 20.7113 8.39906 20.781 8.4689Z" fill="black"/>
<path fill-rule="evenodd" clip-rule="evenodd" d="M13.7203 8.46888C13.6505 8.53854 13.5951 8.62131 13.5573 8.71242C13.5195 8.80354 13.5 8.90122 13.5 8.99988C13.5 9.09853 13.5195 9.19621 13.5573 9.28733C13.5951 9.37844 13.6505 9.46121 13.7203 9.53088L19.7203 15.5309C19.7901 15.6006 19.8729 15.6559 19.964 15.6937C20.0551 15.7314 20.1527 15.7508 20.2513 15.7508C20.35 15.7508 20.4476 15.7314 20.5387 15.6937C20.6298 15.6559 20.7126 15.6006 20.7823 15.5309C20.8521 15.4611 20.9074 15.3784 20.9451 15.2873C20.9829 15.1961 21.0023 15.0985 21.0023 14.9999C21.0023 14.9013 20.9829 14.8036 20.9451 14.7125C20.9074 14.6214 20.8521 14.5386 20.7823 14.4689L14.7823 8.46888C14.7127 8.39903 14.6299 8.34362 14.5388 8.30581C14.4477 8.268 14.35 8.24854 14.2513 8.24854C14.1527 8.24854 14.055 8.268 13.9639 8.30581C13.8728 8.34362 13.79 8.39903 13.7203 8.46888Z" fill="black"/>
</svg>
