<svg width="24" height="24" viewBox="0 0 24 24" fill="none" xmlns="http://www.w3.org/2000/svg">
<path fill-rule="evenodd" clip-rule="evenodd" d="M16.0755 5.3249C16.2026 5.38612 16.3098 5.48192 16.3849 5.60132C16.46 5.72071 16.4999 5.85886 16.5 5.9999V17.9999C16.4998 18.141 16.4598 18.2792 16.3846 18.3986C16.3093 18.518 16.2019 18.6138 16.0747 18.6749C15.9475 18.736 15.8056 18.76 15.6654 18.744C15.5252 18.7281 15.3923 18.673 15.282 18.5849L11.7375 15.7499H8.25C8.05109 15.7499 7.86032 15.6709 7.71967 15.5302C7.57902 15.3896 7.5 15.1988 7.5 14.9999V8.9999C7.5 8.80099 7.57902 8.61023 7.71967 8.46957C7.86032 8.32892 8.05109 8.2499 8.25 8.2499H11.7375L15.282 5.4149C15.3924 5.32669 15.5254 5.27143 15.6658 5.25551C15.8062 5.23959 15.9482 5.26364 16.0755 5.3249Z" fill="black"/>
</svg>
