<svg width="24" height="24" viewBox="0 0 24 24" fill="none" xmlns="http://www.w3.org/2000/svg">
<path d="M16.0596 4.94108C14.7266 4.6473 13.3656 4.49943 12.0006 4.50008C8.04671 4.49355 4.19291 5.74313 0.995127 8.06858C0.910894 8.13153 0.841308 8.21199 0.791165 8.30442C0.741021 8.39685 0.711511 8.49906 0.704667 8.60399C0.697824 8.70892 0.71381 8.81409 0.751524 8.91225C0.789238 9.01041 0.847783 9.09923 0.923127 9.17258C1.05422 9.3017 1.22688 9.38011 1.41037 9.39385C1.59386 9.40758 1.77627 9.35575 1.92513 9.24758C4.85784 7.13107 8.38394 5.99455 12.0006 6.00008C12.9456 6.00008 13.8741 6.07508 14.7786 6.22208L16.0596 4.94108ZM12.0006 9.00008C9.14313 9.00008 6.48063 9.84008 4.25163 11.2891C4.16245 11.3493 4.0879 11.4287 4.03345 11.5214C3.97899 11.6142 3.94602 11.718 3.93696 11.8252C3.92789 11.9324 3.94296 12.0403 3.98106 12.1409C4.01917 12.2415 4.07933 12.3323 4.15713 12.4066C4.28493 12.5313 4.45134 12.6089 4.62905 12.6266C4.80676 12.6443 4.98521 12.6011 5.13513 12.5041C6.72613 11.4845 8.52504 10.8336 10.4001 10.5991L12.0006 9.00008ZM15.8946 11.1061L17.0721 9.92858C18.0171 10.2886 18.9141 10.7461 19.7496 11.2891C19.8383 11.3496 19.9125 11.4292 19.9666 11.5219C20.0207 11.6147 20.0535 11.7184 20.0625 11.8254C20.0716 11.9324 20.0567 12.0401 20.0189 12.1406C19.9811 12.2412 19.9214 12.332 19.8441 12.4066C19.7163 12.5313 19.5499 12.6089 19.3722 12.6266C19.1945 12.6443 19.016 12.6011 18.8661 12.5041C17.9408 11.9115 16.9425 11.4416 15.8961 11.1061H15.8946ZM12.0006 15.0001L13.4016 13.6006C14.4532 13.7513 15.4729 14.0741 16.4196 14.5561C16.8471 14.7736 16.9086 15.3421 16.5696 15.6811L16.5471 15.7036C16.4274 15.8186 16.2748 15.8935 16.1105 15.9177C15.9462 15.9419 15.7784 15.9142 15.6306 15.8386C14.5008 15.2848 13.2589 14.998 12.0006 15.0001ZM19.3581 7.64258L20.4786 6.52208C21.3636 6.97208 22.2081 7.48958 23.0061 8.06708C23.0906 8.13002 23.1604 8.21056 23.2107 8.30313C23.261 8.39569 23.2906 8.49808 23.2975 8.6032C23.3043 8.70833 23.2882 8.81369 23.2504 8.912C23.2125 9.01031 23.1537 9.09922 23.0781 9.17258C22.947 9.3017 22.7744 9.38011 22.5909 9.39385C22.4074 9.40758 22.225 9.35575 22.0761 9.24758C21.2211 8.63061 20.3113 8.09336 19.3581 7.64258ZM13.5306 17.6701C13.8876 17.8801 13.8846 18.3661 13.5906 18.6601L12.5316 19.7191C12.462 19.7889 12.3792 19.8443 12.2881 19.8822C12.197 19.92 12.0993 19.9394 12.0006 19.9394C11.902 19.9394 11.8043 19.92 11.7132 19.8822C11.6221 19.8443 11.5393 19.7889 11.4696 19.7191L10.4091 18.6586C10.1166 18.3661 10.1136 17.8816 10.4691 17.6686C10.9325 17.3934 11.4617 17.2488 12.0006 17.2501C12.5601 17.2501 13.0836 17.4031 13.5306 17.6701ZM20.0631 2.81258C20.2123 2.6634 20.4146 2.57959 20.6256 2.57959C20.8366 2.57959 21.0389 2.6634 21.1881 2.81258C21.3373 2.96177 21.4211 3.16411 21.4211 3.37508C21.4211 3.58606 21.3373 3.7884 21.1881 3.93758L5.06313 20.0626C4.98926 20.1365 4.90156 20.195 4.80505 20.235C4.70854 20.275 4.60509 20.2956 4.50063 20.2956C4.39616 20.2956 4.29272 20.275 4.1962 20.235C4.09969 20.195 4.01199 20.1365 3.93813 20.0626C3.86426 19.9887 3.80566 19.901 3.76568 19.8045C3.72571 19.708 3.70513 19.6045 3.70513 19.5001C3.70513 19.3956 3.72571 19.2922 3.76568 19.1957C3.80566 19.0991 3.86426 19.0115 3.93813 18.9376L20.0631 2.81258Z" fill="black"/>
</svg>
