<svg width="24" height="24" viewBox="0 0 24 24" fill="none" xmlns="http://www.w3.org/2000/svg">
<g clip-path="url(#clip0_1315_2863)">
<path fill-rule="evenodd" clip-rule="evenodd" d="M13.575 0.6525C12.705 -0.2175 11.295 -0.2175 10.425 0.6525L6.0705 5.0085L12 10.9395L17.931 5.0085L13.5735 0.6525H13.575ZM18.99 6.069L13.062 12L18.993 17.931L23.349 13.5735C24.219 12.7035 24.219 11.295 23.349 10.4265L18.993 6.069H18.99ZM17.931 18.9915L12 13.0605L6.069 18.9915L10.4265 23.3475C11.2965 24.2175 12.705 24.2175 13.5735 23.3475L17.931 18.9915ZM5.0085 17.931L10.9395 12L5.0085 6.069L0.6525 10.4265C-0.2175 11.2965 -0.2175 12.705 0.6525 13.5735L5.0085 17.931Z" fill="black"/>
</g>
<defs>
<clipPath id="clip0_1315_2863">
<rect width="24" height="24" fill="white"/>
</clipPath>
</defs>
</svg>
